%TF.GenerationSoftware,KiCad,Pcbnew,10.0.4*%
%TF.CreationDate,2026-09-10T18:54:18-07:00*%
%TF.ProjectId,cardshark,63617264-7368-4617-926b-2e6b69636164,rev?*%
%TF.SameCoordinates,Original*%
%TF.FileFunction,Soldermask,Bot*%
%TF.FilePolarity,Negative*%
%FSLAX46Y46*%
G04 Gerber Fmt 4.6, Leading zero omitted, Abs format (unit mm)*
G04 Created by KiCad (PCBNEW 10.0.4) date 2026-09-10 18:54:18*
%MOMM*%
%LPD*%
G01*
G04 APERTURE LIST*
G04 Aperture macros list*
%AMRoundRect*
0 Rectangle with rounded corners*
0 $1 Rounding radius*
0 $2 $3 $4 $5 $6 $7 $8 $9 X,Y pos of 4 corners*
0 Add a 4 corners polygon primitive as box body*
4,1,4,$2,$3,$4,$5,$6,$7,$8,$9,$2,$3,0*
0 Add four circle primitives for the rounded corners*
1,1,$1+$1,$2,$3*
1,1,$1+$1,$4,$5*
1,1,$1+$1,$6,$7*
1,1,$1+$1,$8,$9*
0 Add four rect primitives between the rounded corners*
20,1,$1+$1,$2,$3,$4,$5,0*
20,1,$1+$1,$4,$5,$6,$7,0*
20,1,$1+$1,$6,$7,$8,$9,0*
20,1,$1+$1,$8,$9,$2,$3,0*%
G04 Aperture macros list end*
%ADD10RoundRect,0.102000X0.847500X-0.847500X0.847500X0.847500X-0.847500X0.847500X-0.847500X-0.847500X0*%
%ADD11C,1.899000*%
%ADD12C,4.450000*%
%ADD13R,1.600000X1.600000*%
%ADD14O,1.600000X1.600000*%
%ADD15C,1.600000*%
%ADD16R,1.700000X1.700000*%
%ADD17O,1.700000X1.700000*%
%ADD18R,1.020000X4.570000*%
%ADD19R,0.510000X0.760000*%
%ADD20C,1.700000*%
%ADD21R,1.780000X7.620000*%
%ADD22RoundRect,0.225000X-0.225000X-0.250000X0.225000X-0.250000X0.225000X0.250000X-0.225000X0.250000X0*%
%ADD23RoundRect,0.249998X0.450002X-0.262502X0.450002X0.262502X-0.450002X0.262502X-0.450002X-0.262502X0*%
%ADD24R,2.400000X0.740000*%
%ADD25RoundRect,0.150000X0.150000X-0.825000X0.150000X0.825000X-0.150000X0.825000X-0.150000X-0.825000X0*%
%ADD26RoundRect,0.250000X-0.250000X-0.475000X0.250000X-0.475000X0.250000X0.475000X-0.250000X0.475000X0*%
%ADD27RoundRect,0.225000X-0.250000X0.225000X-0.250000X-0.225000X0.250000X-0.225000X0.250000X0.225000X0*%
G04 APERTURE END LIST*
D10*
%TO.C,J3*%
X266925000Y-85875000D03*
D11*
X266925000Y-88165000D03*
X266925000Y-90455000D03*
X266925000Y-92745000D03*
X266925000Y-95035000D03*
X269425000Y-84730000D03*
X269425000Y-87020000D03*
X269425000Y-89310000D03*
X269425000Y-91600000D03*
X269425000Y-93890000D03*
X271925000Y-85875000D03*
X271925000Y-88165000D03*
X271925000Y-90455000D03*
X271925000Y-92745000D03*
X271925000Y-95035000D03*
D12*
X269425000Y-102725000D03*
X269425000Y-77735000D03*
%TD*%
D13*
%TO.C,U1*%
X225760000Y-107760000D03*
D14*
X223220000Y-107760000D03*
X220680000Y-107760000D03*
X218140000Y-107760000D03*
X215600000Y-107760000D03*
X213060000Y-107760000D03*
X210520000Y-107760000D03*
X207980000Y-107760000D03*
X205440000Y-107760000D03*
X202900000Y-107760000D03*
X200360000Y-107760000D03*
X197820000Y-107760000D03*
X195280000Y-107760000D03*
X192740000Y-107760000D03*
X192740000Y-123000000D03*
X195280000Y-123000000D03*
X197820000Y-123000000D03*
X200360000Y-123000000D03*
X202900000Y-123000000D03*
X205440000Y-123000000D03*
X207980000Y-123000000D03*
X210520000Y-123000000D03*
X213060000Y-123000000D03*
X215600000Y-123000000D03*
X218140000Y-123000000D03*
X220680000Y-123000000D03*
X223220000Y-123000000D03*
X225760000Y-123000000D03*
%TD*%
D13*
%TO.C,Y1*%
X44275000Y-107700000D03*
D15*
X59515000Y-107700000D03*
X59515000Y-100080000D03*
X44275000Y-100080000D03*
%TD*%
D16*
%TO.C,JP1*%
X232500000Y-126500000D03*
D17*
X229960000Y-126500000D03*
%TD*%
D18*
%TO.C,U8*%
X111470000Y-136000000D03*
D19*
X111470000Y-138660000D03*
D18*
X110200000Y-136000000D03*
D19*
X110200000Y-138660000D03*
D18*
X108940000Y-136000000D03*
D19*
X108940000Y-138660000D03*
D18*
X107660000Y-136000000D03*
D19*
X107660000Y-138660000D03*
D18*
X106390000Y-136000000D03*
D19*
X106390000Y-138660000D03*
D18*
X105120000Y-136000000D03*
D19*
X105120000Y-138660000D03*
D18*
X103850000Y-136000000D03*
D19*
X103850000Y-138660000D03*
D18*
X102580000Y-136000000D03*
D19*
X102580000Y-138660000D03*
D18*
X101310000Y-136000000D03*
D19*
X101310000Y-138660000D03*
D18*
X100040000Y-136000000D03*
D19*
X100040000Y-138660000D03*
D18*
X98770000Y-136000000D03*
D19*
X98770000Y-138660000D03*
D18*
X97510000Y-136000000D03*
D19*
X97510000Y-138660000D03*
D18*
X96230000Y-136000000D03*
D19*
X96230000Y-138660000D03*
D18*
X94960000Y-136000000D03*
D19*
X94960000Y-138660000D03*
D18*
X93690000Y-136000000D03*
D19*
X93690000Y-138660000D03*
D18*
X92420000Y-136000000D03*
D19*
X92420000Y-138660000D03*
D18*
X91150000Y-136000000D03*
D19*
X91150000Y-138660000D03*
D18*
X89880000Y-136000000D03*
D19*
X89880000Y-138660000D03*
D18*
X88620000Y-136000000D03*
D19*
X88620000Y-138660000D03*
D18*
X87340000Y-136000000D03*
D19*
X87340000Y-138660000D03*
D18*
X86080000Y-136000000D03*
D19*
X86080000Y-138660000D03*
D18*
X84800000Y-136000000D03*
D19*
X84800000Y-138660000D03*
D18*
X83530000Y-136000000D03*
D19*
X83530000Y-138660000D03*
D18*
X82260000Y-136000000D03*
D19*
X82260000Y-138660000D03*
D18*
X80990000Y-136000000D03*
D19*
X80990000Y-138660000D03*
D18*
X79720000Y-136000000D03*
D19*
X79720000Y-138660000D03*
D18*
X78450000Y-136000000D03*
D19*
X78450000Y-138660000D03*
D18*
X77180000Y-136000000D03*
D19*
X77180000Y-138660000D03*
D18*
X75910000Y-136000000D03*
D19*
X75910000Y-138660000D03*
D18*
X74640000Y-136000000D03*
D19*
X74640000Y-138660000D03*
D18*
X73370000Y-136000000D03*
D19*
X73370000Y-138660000D03*
D18*
X72100000Y-136000000D03*
D19*
X72100000Y-138660000D03*
D18*
X70830000Y-136000000D03*
D19*
X70830000Y-138660000D03*
D18*
X69560000Y-136000000D03*
D19*
X69560000Y-138660000D03*
D18*
X68290000Y-136000000D03*
D19*
X68290000Y-138660000D03*
D18*
X67020000Y-136000000D03*
D19*
X67020000Y-138660000D03*
D18*
X65750000Y-136000000D03*
D19*
X65750000Y-138660000D03*
D18*
X64480000Y-136000000D03*
D19*
X64480000Y-138660000D03*
D18*
X63210000Y-136000000D03*
D19*
X63210000Y-138660000D03*
D18*
X61940000Y-136000000D03*
D19*
X61940000Y-138660000D03*
D18*
X60670000Y-136000000D03*
D19*
X60670000Y-138660000D03*
D18*
X59400000Y-136000000D03*
D19*
X59400000Y-138660000D03*
D18*
X58130000Y-136000000D03*
D19*
X58130000Y-138660000D03*
D18*
X56860000Y-136000000D03*
D19*
X56860000Y-138660000D03*
D18*
X55590000Y-136000000D03*
D19*
X55590000Y-138660000D03*
D18*
X51790000Y-136000000D03*
D19*
X51790000Y-138660000D03*
D18*
X50520000Y-136000000D03*
D19*
X50520000Y-138660000D03*
D18*
X49250000Y-136000000D03*
D19*
X49250000Y-138660000D03*
D18*
X47980000Y-136000000D03*
D19*
X47980000Y-138660000D03*
D18*
X46710000Y-136000000D03*
D19*
X46710000Y-138660000D03*
D18*
X45440000Y-136000000D03*
D19*
X45440000Y-138660000D03*
D18*
X44170000Y-136000000D03*
D19*
X44170000Y-138660000D03*
D18*
X42900000Y-136000000D03*
D19*
X42900000Y-138660000D03*
D18*
X41630000Y-136000000D03*
D19*
X41630000Y-138660000D03*
D18*
X40360000Y-136000000D03*
D19*
X40360000Y-138660000D03*
D18*
X39090000Y-136000000D03*
D19*
X39090000Y-138660000D03*
%TD*%
D16*
%TO.C,JP2*%
X42500000Y-121710000D03*
D20*
X42500000Y-124250000D03*
%TD*%
D21*
%TO.C,J2*%
X253700000Y-135600000D03*
X251160000Y-135600000D03*
X248620000Y-135600000D03*
X246080000Y-135600000D03*
X243540000Y-135600000D03*
X241000000Y-135600000D03*
X238460000Y-135600000D03*
X235920000Y-135600000D03*
X233380000Y-135600000D03*
X230840000Y-135600000D03*
X228300000Y-135600000D03*
X225760000Y-135600000D03*
X223220000Y-135600000D03*
X220680000Y-135600000D03*
X218140000Y-135600000D03*
X215600000Y-135600000D03*
X213060000Y-135600000D03*
X210520000Y-135600000D03*
X207980000Y-135600000D03*
X205440000Y-135600000D03*
X202900000Y-135600000D03*
X200360000Y-135600000D03*
X197820000Y-135600000D03*
X195280000Y-135600000D03*
X192740000Y-135600000D03*
X190200000Y-135600000D03*
X187660000Y-135600000D03*
X185120000Y-135600000D03*
X182580000Y-135600000D03*
X180040000Y-135600000D03*
X177500000Y-135600000D03*
%TD*%
D22*
%TO.C,C44*%
X96025000Y-115800000D03*
X97575000Y-115800000D03*
%TD*%
D23*
%TO.C,R26*%
X93930000Y-115662500D03*
X93930000Y-113837500D03*
%TD*%
D24*
%TO.C,J1*%
X79100000Y-128570000D03*
X83000000Y-128570000D03*
X79100000Y-127300000D03*
X83000000Y-127300000D03*
X79100000Y-126030000D03*
X83000000Y-126030000D03*
%TD*%
D25*
%TO.C,U10*%
X75560000Y-128975000D03*
X74290000Y-128975000D03*
X73020000Y-128975000D03*
X71750000Y-128975000D03*
X70480000Y-128975000D03*
X69210000Y-128975000D03*
X67940000Y-128975000D03*
X67940000Y-124025000D03*
X69210000Y-124025000D03*
X70480000Y-124025000D03*
X71750000Y-124025000D03*
X73020000Y-124025000D03*
X74290000Y-124025000D03*
X75560000Y-124025000D03*
%TD*%
D26*
%TO.C,C34*%
X95700000Y-113900000D03*
X97600000Y-113900000D03*
%TD*%
D27*
%TO.C,C19*%
X77500000Y-122250000D03*
X77500000Y-123800000D03*
%TD*%
G36*
X112286121Y-133720002D02*
G01*
X112332614Y-133773658D01*
X112344000Y-133826000D01*
X112344000Y-139861810D01*
X112323998Y-139929931D01*
X112307095Y-139950905D01*
X111745905Y-140512095D01*
X111683593Y-140546121D01*
X111656810Y-140549000D01*
X55373190Y-140549000D01*
X55305069Y-140528998D01*
X55284095Y-140512095D01*
X54722905Y-139950905D01*
X54688879Y-139888593D01*
X54686000Y-139861810D01*
X54686000Y-133826000D01*
X54706002Y-133757879D01*
X54759658Y-133711386D01*
X54812000Y-133700000D01*
X112218000Y-133700000D01*
X112286121Y-133720002D01*
G37*
G36*
X52545321Y-133720002D02*
G01*
X52591814Y-133773658D01*
X52603200Y-133826000D01*
X52603200Y-139861810D01*
X52583198Y-139929931D01*
X52566295Y-139950905D01*
X52005105Y-140512095D01*
X51942793Y-140546121D01*
X51916010Y-140549000D01*
X38863190Y-140549000D01*
X38795069Y-140528998D01*
X38774095Y-140512095D01*
X38212905Y-139950905D01*
X38178879Y-139888593D01*
X38176000Y-139861810D01*
X38176000Y-133826000D01*
X38196002Y-133757879D01*
X38249658Y-133711386D01*
X38302000Y-133700000D01*
X52477200Y-133700000D01*
X52545321Y-133720002D01*
G37*
G36*
X256167121Y-131820002D02*
G01*
X256213614Y-131873658D01*
X256225000Y-131926000D01*
X256225000Y-139597810D01*
X256204998Y-139665931D01*
X256188095Y-139686905D01*
X255311905Y-140563095D01*
X255249593Y-140597121D01*
X255222810Y-140600000D01*
X175952190Y-140600000D01*
X175884069Y-140579998D01*
X175863095Y-140563095D01*
X174986905Y-139686905D01*
X174952879Y-139624593D01*
X174950000Y-139597810D01*
X174950000Y-131926000D01*
X174970002Y-131857879D01*
X175023658Y-131811386D01*
X175076000Y-131800000D01*
X256099000Y-131800000D01*
X256167121Y-131820002D01*
G37*
M02*
