M48
; DRILL file {KiCad 9.0.2} date 2025-08-11T18:57:55-0700
; FORMAT={-:-/ absolute / metric / decimal}
; #@! TF.CreationDate,2025-08-11T18:57:55-07:00
; #@! TF.GenerationSoftware,Kicad,Pcbnew,9.0.2
; #@! TF.FileFunction,Plated,1,4,PTH
FMAT,2
METRIC
; #@! TA.AperFunction,Plated,PTH,ViaDrill
T1C0.400
; #@! TA.AperFunction,Plated,PTH,ComponentDrill
T2C0.800
; #@! TA.AperFunction,Plated,PTH,ComponentDrill
T3C1.000
; #@! TA.AperFunction,Plated,PTH,ComponentDrill
T4C1.130
; #@! TA.AperFunction,Plated,PTH,ComponentDrill
T5C3.230
%
G90
G05
T1
X122.7Y-62.5
X122.75Y-64.7
X122.75Y-67.6
X122.75Y-70.4
X122.75Y-73.4
X122.75Y-76.4
X122.75Y-79.3
X122.75Y-82.1
X122.75Y-85.2
X122.75Y-88.0
X122.75Y-90.9
X122.75Y-93.9
X122.75Y-96.8
X122.75Y-99.6
X122.75Y-102.7
X122.75Y-105.5
X122.75Y-108.4
X122.75Y-111.65
X122.75Y-114.55
X122.75Y-117.35
X122.75Y-120.25
X122.75Y-123.25
X122.75Y-126.25
X122.75Y-129.25
X123.55Y-60.0
X126.1Y-130.5
X126.55Y-59.0
X127.75Y-65.25
X127.8Y-90.65
X127.8Y-108.35
X128.452Y-126.702
X129.0Y-130.6
X129.45Y-59.0
X129.6Y-110.9
X129.9Y-129.7
X129.989Y-78.225
X130.0Y-121.4
X130.0Y-126.75
X130.12Y-67.2
X130.14Y-97.44
X130.9Y-110.9
X131.259Y-72.888
X131.4Y-67.2
X131.6Y-130.6
X131.625Y-126.625
X131.7Y-96.3
X132.1Y-110.9
X132.25Y-59.0
X132.301Y-71.73
X132.66Y-67.2
X133.0Y-126.75
X133.1Y-95.3
X133.4Y-110.9
X133.498Y-70.577
X133.93Y-67.2
X134.355Y-126.605
X134.5Y-94.1
X134.6Y-130.6
X134.7Y-110.9
X135.313Y-70.289
X135.35Y-59.0
X135.75Y-126.75
X136.5Y-94.6
X136.535Y-67.235
X136.8Y-78.3
X137.312Y-126.562
X137.5Y-130.6
X137.504Y-95.431
X137.629Y-103.117
X137.733Y-67.133
X137.9Y-116.4
X138.15Y-59.0
X138.2Y-72.8
X138.426Y-94.93
X138.5Y-126.75
X138.625Y-87.7
X139.15Y-116.375
X139.875Y-126.625
X139.9Y-103.1
X139.9Y-105.9
X140.1Y-130.6
X140.725Y-70.425
X141.05Y-59.0
X141.25Y-126.75
X141.5Y-73.425
X142.6Y-126.6
X142.8Y-104.926
X142.8Y-130.6
X142.85Y-73.45
X143.0Y-87.1
X144.1Y-73.45
X144.25Y-126.5
X144.3Y-59.0
X145.0Y-61.0
X145.25Y-88.75
X145.3Y-126.553
X145.3Y-130.6
X146.25Y-127.0
X146.625Y-77.5
X147.2Y-59.0
X147.95Y-77.5
X148.7Y-126.125
X149.66Y-130.6
X150.0Y-59.0
X151.0Y-130.6
X152.6Y-127.6
X152.655Y-130.704
X153.0Y-61.472
X153.1Y-59.0
X153.104Y-95.175
X153.7Y-130.6
X153.8Y-101.9
X153.98Y-119.724
X154.0Y-107.275
X154.7Y-90.7
X154.8Y-130.6
X154.9Y-108.3
X154.985Y-119.2
X155.5Y-101.805
X155.855Y-100.817
X155.869Y-130.6
X155.9Y-59.0
X156.898Y-100.625
X157.2Y-95.2
X157.5Y-130.6
X157.624Y-99.725
X158.4Y-98.95
X158.8Y-59.0
X158.862Y-95.696
X158.95Y-108.3
X159.001Y-97.405
X159.4Y-91.25
X159.4Y-128.0
X159.5Y-98.525
X159.536Y-96.501
X161.225Y-129.1
X161.75Y-59.0
X162.0Y-129.808
X162.775Y-129.1
X163.75Y-128.0
X164.2Y-124.8
X164.25Y-67.5
X164.75Y-59.0
X164.752Y-111.357
X166.0Y-65.527
X166.0Y-128.0
X166.0Y-130.6
X166.4Y-84.25
X166.4Y-124.8
X167.65Y-59.0
X168.2Y-125.904
X168.2Y-127.0
X168.4Y-70.4
X168.992Y-61.699
X169.4Y-71.0
X169.675Y-97.3
X169.839Y-62.474
X170.4Y-71.6
X170.45Y-59.0
X170.6Y-130.6
X171.0Y-62.75
X171.2Y-127.9
X171.4Y-96.219
X171.635Y-71.934
X171.777Y-116.727
X172.0Y-63.5
X172.83Y-72.085
X173.16Y-90.356
X173.55Y-59.0
X173.9Y-124.8
X174.7Y-72.65
X174.75Y-67.475
X175.75Y-130.6
X175.917Y-112.5
X175.95Y-73.05
X176.0Y-67.75
X176.35Y-59.0
X176.8Y-127.8
X177.2Y-73.05
X177.675Y-84.375
X177.8Y-97.8
X177.819Y-94.885
X177.9Y-89.3
X177.932Y-91.689
X178.0Y-69.75
X178.136Y-114.686
X179.25Y-59.0
X179.471Y-108.91
X179.8Y-67.55
X180.2Y-86.9
X180.974Y-111.854
X181.05Y-67.55
X181.475Y-130.57
X181.85Y-102.35
X182.25Y-59.0
X182.25Y-62.5
X182.3Y-67.55
X182.4Y-107.325
X182.5Y-72.5
X182.8Y-125.2
X182.825Y-111.1
X183.55Y-67.5
X183.675Y-80.636
X183.784Y-84.626
X183.9Y-130.8
X184.204Y-81.931
X184.6Y-118.8
X184.704Y-117.6
X184.8Y-120.2
X184.85Y-62.75
X185.002Y-124.302
X185.15Y-59.0
X185.975Y-80.55
X186.15Y-67.45
X186.15Y-111.875
X186.4Y-129.65
X186.4Y-130.7
X186.45Y-124.278
X186.475Y-107.35
X186.55Y-110.75
X186.677Y-81.785
X186.8Y-96.8
X187.05Y-116.45
X187.4Y-67.45
X187.5Y-124.25
X187.662Y-111.691
X187.95Y-59.0
X188.216Y-119.816
X188.355Y-87.472
X188.355Y-89.022
X188.385Y-90.78
X188.521Y-85.689
X188.55Y-124.25
X188.65Y-67.45
X188.8Y-130.7
X189.0Y-111.848
X189.003Y-86.622
X189.099Y-89.797
X189.105Y-91.595
X189.134Y-88.247
X189.825Y-72.425
X189.865Y-123.452
X189.95Y-67.45
X190.103Y-111.96
X190.175Y-107.35
X190.25Y-96.75
X190.774Y-122.926
X191.05Y-59.0
X191.2Y-62.8
X191.4Y-130.7
X191.71Y-122.45
X192.881Y-122.454
X193.125Y-107.35
X193.438Y-111.977
X193.675Y-76.075
X193.7Y-130.7
X193.85Y-59.0
X193.929Y-122.407
X194.0Y-90.25
X194.0Y-96.75
X194.254Y-77.201
X194.45Y-84.85
X194.485Y-79.25
X194.678Y-103.123
X194.7Y-110.55
X195.264Y-77.764
X195.485Y-81.448
X195.584Y-103.654
X195.7Y-79.55
X196.025Y-116.05
X196.1Y-102.35
X196.175Y-111.957
X196.21Y-84.595
X196.5Y-130.7
X196.575Y-104.0
X196.75Y-59.0
X196.875Y-118.25
X196.875Y-119.75
X197.335Y-101.516
X197.55Y-121.65
X197.625Y-103.971
X197.75Y-90.25
X197.75Y-128.05
X197.8Y-76.1
X198.3Y-118.45
X198.394Y-101.479
X198.7Y-104.0
X199.0Y-130.7
X199.4Y-101.18
X199.497Y-79.45
X199.525Y-93.0
X199.702Y-84.7
X199.805Y-104.027
X199.825Y-78.279
X199.895Y-77.113
X199.895Y-76.017
X200.0Y-59.0
X200.25Y-128.05
X200.407Y-100.88
X200.464Y-79.86
X200.6Y-72.9
X200.855Y-104.028
X200.935Y-115.125
X201.089Y-80.703
X201.4Y-130.7
X201.425Y-100.625
X201.945Y-79.099
X202.139Y-80.692
X202.2Y-103.4
X202.33Y-72.034
X202.435Y-81.7
X202.725Y-129.4
X202.825Y-107.875
X202.9Y-59.0
X202.957Y-128.303
X202.995Y-75.595
X203.001Y-100.749
X203.03Y-68.28
X203.093Y-105.928
X203.75Y-115.0
X203.9Y-95.4
X203.9Y-130.75
X203.975Y-103.575
X204.0Y-116.5
X204.149Y-100.446
X204.25Y-88.75
X204.485Y-81.35
X204.553Y-89.927
X204.8Y-111.3
X204.885Y-87.715
X205.0Y-92.75
X205.015Y-101.067
X205.065Y-106.521
X205.26Y-77.8
X205.425Y-80.65
X205.7Y-59.0
X205.75Y-116.5
X206.22Y-67.971
X206.6Y-129.275
X207.4Y-113.7
X208.0Y-99.75
X208.075Y-97.55
X208.25Y-120.75
X208.3Y-130.0
X208.425Y-103.95
X208.425Y-108.925
X208.8Y-59.0
X209.0Y-76.2
X209.0Y-81.5
X209.0Y-116.0
X209.25Y-102.25
X209.275Y-107.15
X209.5Y-130.0
X209.75Y-119.75
X210.25Y-105.95
X210.25Y-111.55
X210.25Y-113.25
X210.5Y-79.25
X210.5Y-83.25
X210.552Y-130.901
X210.83Y-92.86
X211.1Y-74.525
X211.283Y-93.807
X211.5Y-118.25
X211.6Y-59.0
X211.602Y-130.898
X211.77Y-85.27
X212.0Y-81.5
X212.0Y-94.605
X212.25Y-102.25
X212.5Y-93.25
X212.575Y-67.425
X212.675Y-107.925
X212.75Y-95.38
X212.95Y-65.1
X213.25Y-85.25
X213.43Y-96.254
X213.5Y-116.25
X213.75Y-108.95
X213.85Y-89.3
X214.0Y-74.526
X214.0Y-76.2
X214.205Y-97.068
X214.5Y-59.0
X214.5Y-95.5
X214.5Y-111.25
X214.5Y-113.25
X214.5Y-127.0
X214.55Y-68.472
X215.25Y-65.0
X215.5Y-79.25
X215.75Y-125.75
X215.94Y-98.375
X216.1Y-112.2
X216.75Y-97.5
X216.75Y-99.25
X217.5Y-59.0
X217.5Y-104.75
X217.55Y-128.0
X218.0Y-76.2
X218.0Y-81.8
X218.0Y-86.0
X218.2Y-89.6
X219.1Y-127.3
X219.25Y-122.25
X219.55Y-80.35
X219.75Y-111.5
X219.974Y-121.341
X219.99Y-75.15
X220.4Y-112.6
X220.4Y-114.15
X220.4Y-115.7
X220.4Y-117.275
X220.5Y-59.0
X220.5Y-107.75
X220.681Y-120.564
X221.0Y-93.8
X221.4Y-114.925
X221.4Y-116.475
X221.428Y-113.326
X221.604Y-120.064
X221.75Y-124.75
X221.75Y-128.0
X221.887Y-119.053
X222.0Y-81.8
X222.0Y-86.0
X222.02Y-77.76
X223.0Y-109.75
X223.25Y-75.25
X223.3Y-130.4
X223.4Y-59.0
X223.577Y-118.65
X223.75Y-102.25
X223.9Y-128.025
X224.119Y-116.019
X224.5Y-118.15
X224.5Y-124.75
X225.0Y-94.0
X225.0Y-100.25
X225.05Y-98.075
X225.126Y-115.722
X225.5Y-117.25
X225.5Y-123.8
X225.5Y-127.0
X225.75Y-103.75
X226.0Y-76.45
X226.0Y-81.8
X226.0Y-86.0
X226.0Y-90.0
X226.2Y-59.0
X226.275Y-126.1
X226.6Y-121.7
X227.0Y-101.9
X227.004Y-117.173
X227.3Y-122.6
X227.45Y-126.675
X227.75Y-125.0
X227.815Y-116.505
X228.0Y-115.0
X228.753Y-126.685
X229.3Y-59.0
X229.802Y-126.72
X230.0Y-76.45
X230.0Y-81.8
X230.0Y-86.0
X230.0Y-90.0
X230.0Y-94.0
X230.0Y-98.0
X230.0Y-100.25
X230.812Y-126.433
X231.025Y-130.475
X231.06Y-74.4
X231.25Y-99.321
X231.45Y-69.58
X231.75Y-111.0
X231.8Y-126.8
X232.1Y-59.0
X232.1Y-76.45
X232.1Y-81.8
X232.1Y-86.0
X232.1Y-90.0
X232.1Y-94.0
X232.905Y-126.795
X233.0Y-109.75
X233.15Y-72.225
X233.25Y-96.75
X233.93Y-127.025
X234.0Y-76.45
X234.0Y-81.8
X234.0Y-86.0
X234.0Y-90.0
X234.0Y-94.0
X234.0Y-98.0
X234.0Y-100.25
X234.0Y-102.25
X234.977Y-126.948
X235.0Y-59.0
X235.752Y-127.7
X236.4Y-122.8
X236.5Y-116.5
X236.8Y-126.7
X237.1Y-112.8
X238.0Y-59.0
X238.0Y-76.4
X238.0Y-81.75
X238.0Y-86.0
X238.0Y-90.0
X238.0Y-94.0
X238.0Y-98.0
X238.0Y-100.25
X238.0Y-102.25
X238.5Y-112.7
X238.6Y-116.45
X238.75Y-124.75
X238.85Y-122.9
X239.3Y-113.625
X240.8Y-112.075
X240.9Y-59.0
X241.1Y-116.4
X241.25Y-124.75
X241.4Y-122.9
X241.7Y-109.8
X242.0Y-76.4
X242.0Y-81.75
X242.0Y-86.0
X242.0Y-90.0
X242.0Y-94.0
X242.0Y-98.0
X242.0Y-100.25
X242.0Y-102.25
X242.1Y-114.1
X243.0Y-111.575
X243.0Y-127.5
X243.5Y-116.35
X243.7Y-59.0
X243.9Y-122.9
X244.8Y-114.325
X245.875Y-116.35
X246.0Y-76.4
X246.0Y-81.75
X246.0Y-86.0
X246.0Y-90.0
X246.0Y-94.0
X246.0Y-98.0
X246.0Y-100.25
X246.0Y-102.25
X246.8Y-59.0
X246.8Y-115.2
X248.4Y-122.2
X248.8Y-101.4
X248.9Y-125.1
X249.0Y-129.0
X249.6Y-59.0
X250.0Y-76.4
X250.0Y-81.75
X250.0Y-86.0
X250.0Y-90.0
X250.0Y-94.0
X250.0Y-98.0
X250.0Y-100.25
X250.0Y-102.25
X250.0Y-112.5
X250.0Y-115.0
X250.197Y-126.454
X250.3Y-130.05
X252.0Y-131.0
X252.5Y-59.0
X255.0Y-96.75
X255.0Y-112.5
X255.0Y-115.0
X255.1Y-76.4
X255.1Y-81.75
X255.1Y-86.0
X255.1Y-90.0
X255.1Y-93.9
X255.25Y-127.7
X255.4Y-99.321
X255.75Y-59.0
X258.0Y-90.0
X258.0Y-93.9
X258.05Y-76.4
X258.05Y-81.75
X258.05Y-86.0
X258.25Y-101.75
X258.25Y-127.7
X258.65Y-59.0
X260.0Y-112.5
X260.0Y-115.0
X261.25Y-127.7
X261.45Y-59.0
X262.75Y-76.4
X262.75Y-81.75
X262.75Y-86.0
X262.75Y-90.0
X262.75Y-94.0
X262.75Y-96.25
X264.25Y-127.7
X264.55Y-59.0
X265.0Y-112.5
X265.0Y-115.0
X265.0Y-117.5
X266.05Y-102.85
X267.35Y-59.0
X267.5Y-127.7
X267.95Y-99.3
X270.0Y-112.5
X270.0Y-115.0
X270.0Y-117.5
X270.0Y-120.0
X270.25Y-59.0
X270.6Y-127.8
X270.625Y-96.275
X271.05Y-115.0
X272.7Y-108.7
X272.75Y-59.0
X273.7Y-111.4
X273.7Y-114.3
X273.7Y-117.1
X273.7Y-120.2
X273.7Y-123.0
X273.7Y-125.9
X273.75Y-107.75
X274.5Y-61.8
X274.5Y-64.8
X274.5Y-67.7
X274.5Y-70.5
X274.5Y-73.5
X274.5Y-76.5
X274.5Y-79.4
X274.5Y-82.2
X274.5Y-85.3
X274.5Y-88.1
X274.5Y-91.0
X274.5Y-94.0
X274.5Y-96.9
X274.5Y-99.7
X274.5Y-102.8
X274.5Y-105.6
T2
X237.58Y-108.5
X237.58Y-123.74
X240.12Y-108.5
X240.12Y-123.74
X242.66Y-108.5
X242.66Y-123.74
X245.2Y-108.5
X245.2Y-123.74
X247.74Y-108.5
X247.74Y-123.74
X250.28Y-108.5
X250.28Y-123.74
X252.82Y-108.5
X252.82Y-123.74
X255.36Y-108.5
X255.36Y-123.74
X257.9Y-108.5
X257.9Y-123.74
X260.44Y-108.5
X260.44Y-123.74
X262.98Y-108.5
X262.98Y-123.74
X265.52Y-108.5
X265.52Y-123.74
X268.06Y-108.5
X268.06Y-123.74
X270.6Y-108.5
X270.6Y-123.74
T3
X208.77Y-61.3
X208.77Y-63.84
X211.31Y-61.3
X211.31Y-63.84
X213.85Y-61.3
X213.85Y-63.84
X216.39Y-61.3
X216.39Y-63.84
X218.93Y-61.3
X218.93Y-63.84
X221.47Y-61.3
X221.47Y-63.84
X224.01Y-61.3
X224.01Y-63.84
X226.55Y-61.3
X226.55Y-63.84
X229.09Y-61.3
X229.09Y-63.84
X231.63Y-61.3
X231.63Y-63.84
X234.17Y-61.3
X234.17Y-63.84
X236.71Y-61.3
X236.71Y-63.84
X238.46Y-127.55
X239.25Y-61.3
X239.25Y-63.84
X241.0Y-127.55
X244.885Y-127.55
X247.425Y-127.55
T4
X266.925Y-85.875
X266.925Y-88.165
X266.925Y-90.455
X266.925Y-92.745
X266.925Y-95.035
X269.425Y-84.73
X269.425Y-87.02
X269.425Y-89.31
X269.425Y-91.6
X269.425Y-93.89
X271.925Y-85.875
X271.925Y-88.165
X271.925Y-90.455
X271.925Y-92.745
X271.925Y-95.035
T5
X269.425Y-77.735
X269.425Y-102.725
M30
