%TF.GenerationSoftware,KiCad,Pcbnew,8.0.5-dirty*%
%TF.CreationDate,2025-04-01T15:59:29-07:00*%
%TF.ProjectId,cardshark-isa,63617264-7368-4617-926b-2d6973612e6b,rev?*%
%TF.SameCoordinates,Original*%
%TF.FileFunction,Drillmap*%
%TF.FilePolarity,Positive*%
%FSLAX45Y45*%
G04 Gerber Fmt 4.5, Leading zero omitted, Abs format (unit mm)*
G04 Created by KiCad (PCBNEW 8.0.5-dirty) date 2025-04-01 15:59:29*
%MOMM*%
%LPD*%
G01*
G04 APERTURE LIST*
%ADD10C,0.050000*%
%ADD11C,0.200000*%
%ADD12C,0.100000*%
%ADD13C,0.113000*%
%ADD14C,0.323000*%
G04 APERTURE END LIST*
D10*
X27525000Y-5995000D02*
X27525000Y-12820000D01*
X27406967Y-12940000D01*
X25627500Y-12940000D01*
X25627500Y-13945000D01*
X25532500Y-14040000D01*
X17595000Y-14040000D01*
X17500000Y-13945000D01*
X17500000Y-13155000D01*
X17000000Y-13155000D01*
X17000000Y-13950000D01*
X16925000Y-14034900D01*
X12250000Y-14034900D01*
X12178000Y-13973940D01*
X12178000Y-12925000D01*
X12178000Y-12875000D01*
X12178000Y-6054338D01*
X12401017Y-5830000D01*
X27360000Y-5830000D01*
X27525000Y-5995000D01*
D11*
D12*
X12250000Y-6230000D02*
X12290000Y-6270000D01*
X12290000Y-6230000D02*
X12250000Y-6270000D01*
X12255000Y-6450000D02*
X12295000Y-6490000D01*
X12295000Y-6450000D02*
X12255000Y-6490000D01*
X12255000Y-6740000D02*
X12295000Y-6780000D01*
X12295000Y-6740000D02*
X12255000Y-6780000D01*
X12255000Y-7020000D02*
X12295000Y-7060000D01*
X12295000Y-7020000D02*
X12255000Y-7060000D01*
X12255000Y-7320000D02*
X12295000Y-7360000D01*
X12295000Y-7320000D02*
X12255000Y-7360000D01*
X12255000Y-7620000D02*
X12295000Y-7660000D01*
X12295000Y-7620000D02*
X12255000Y-7660000D01*
X12255000Y-7910000D02*
X12295000Y-7950000D01*
X12295000Y-7910000D02*
X12255000Y-7950000D01*
X12255000Y-8190000D02*
X12295000Y-8230000D01*
X12295000Y-8190000D02*
X12255000Y-8230000D01*
X12255000Y-8500000D02*
X12295000Y-8540000D01*
X12295000Y-8500000D02*
X12255000Y-8540000D01*
X12255000Y-8780000D02*
X12295000Y-8820000D01*
X12295000Y-8780000D02*
X12255000Y-8820000D01*
X12255000Y-9070000D02*
X12295000Y-9110000D01*
X12295000Y-9070000D02*
X12255000Y-9110000D01*
X12255000Y-9370000D02*
X12295000Y-9410000D01*
X12295000Y-9370000D02*
X12255000Y-9410000D01*
X12255000Y-9660000D02*
X12295000Y-9700000D01*
X12295000Y-9660000D02*
X12255000Y-9700000D01*
X12255000Y-9940000D02*
X12295000Y-9980000D01*
X12295000Y-9940000D02*
X12255000Y-9980000D01*
X12255000Y-10250000D02*
X12295000Y-10290000D01*
X12295000Y-10250000D02*
X12255000Y-10290000D01*
X12255000Y-10530000D02*
X12295000Y-10570000D01*
X12295000Y-10530000D02*
X12255000Y-10570000D01*
X12255000Y-10820000D02*
X12295000Y-10860000D01*
X12295000Y-10820000D02*
X12255000Y-10860000D01*
X12255000Y-11145000D02*
X12295000Y-11185000D01*
X12295000Y-11145000D02*
X12255000Y-11185000D01*
X12255000Y-11435000D02*
X12295000Y-11475000D01*
X12295000Y-11435000D02*
X12255000Y-11475000D01*
X12255000Y-11715000D02*
X12295000Y-11755000D01*
X12295000Y-11715000D02*
X12255000Y-11755000D01*
X12255000Y-12005000D02*
X12295000Y-12045000D01*
X12295000Y-12005000D02*
X12255000Y-12045000D01*
X12255000Y-12305000D02*
X12295000Y-12345000D01*
X12295000Y-12305000D02*
X12255000Y-12345000D01*
X12255000Y-12605000D02*
X12295000Y-12645000D01*
X12295000Y-12605000D02*
X12255000Y-12645000D01*
X12255000Y-12905000D02*
X12295000Y-12945000D01*
X12295000Y-12905000D02*
X12255000Y-12945000D01*
X12335000Y-5980000D02*
X12375000Y-6020000D01*
X12375000Y-5980000D02*
X12335000Y-6020000D01*
X12605000Y-6230000D02*
X12645000Y-6270000D01*
X12645000Y-6230000D02*
X12605000Y-6270000D01*
X12605000Y-6430000D02*
X12645000Y-6470000D01*
X12645000Y-6430000D02*
X12605000Y-6470000D01*
X12605000Y-6630000D02*
X12645000Y-6670000D01*
X12645000Y-6630000D02*
X12605000Y-6670000D01*
X12635000Y-5880000D02*
X12675000Y-5920000D01*
X12675000Y-5880000D02*
X12635000Y-5920000D01*
X12640000Y-10200000D02*
X12680000Y-10240000D01*
X12680000Y-10200000D02*
X12640000Y-10240000D01*
X12655000Y-12954000D02*
X12695000Y-12994000D01*
X12695000Y-12954000D02*
X12655000Y-12994000D01*
X12705000Y-6330000D02*
X12745000Y-6370000D01*
X12745000Y-6330000D02*
X12705000Y-6370000D01*
X12705000Y-6630000D02*
X12745000Y-6670000D01*
X12745000Y-6630000D02*
X12705000Y-6670000D01*
X12755000Y-6730000D02*
X12795000Y-6770000D01*
X12795000Y-6730000D02*
X12755000Y-6770000D01*
X12805000Y-6630000D02*
X12845000Y-6670000D01*
X12845000Y-6630000D02*
X12805000Y-6670000D01*
X12805000Y-6830000D02*
X12845000Y-6870000D01*
X12845000Y-6830000D02*
X12805000Y-6870000D01*
X12880000Y-13040000D02*
X12920000Y-13080000D01*
X12920000Y-13040000D02*
X12880000Y-13080000D01*
X12905000Y-6630000D02*
X12945000Y-6670000D01*
X12945000Y-6630000D02*
X12905000Y-6670000D01*
X12905000Y-6830000D02*
X12945000Y-6870000D01*
X12945000Y-6830000D02*
X12905000Y-6870000D01*
X12925000Y-5880000D02*
X12965000Y-5920000D01*
X12965000Y-5880000D02*
X12925000Y-5920000D01*
X12955000Y-6730000D02*
X12995000Y-6770000D01*
X12995000Y-6730000D02*
X12955000Y-6770000D01*
X12970000Y-12950000D02*
X13010000Y-12990000D01*
X13010000Y-12950000D02*
X12970000Y-12990000D01*
X12980000Y-12120000D02*
X13020000Y-12160000D01*
X13020000Y-12120000D02*
X12980000Y-12160000D01*
X13005000Y-6330000D02*
X13045000Y-6370000D01*
X13045000Y-6330000D02*
X13005000Y-6370000D01*
X13005000Y-6630000D02*
X13045000Y-6670000D01*
X13045000Y-6630000D02*
X13005000Y-6670000D01*
X13014292Y-8801200D02*
X13054292Y-8841200D01*
X13054292Y-8801200D02*
X13014292Y-8841200D01*
X13017500Y-7302500D02*
X13057500Y-7342500D01*
X13057500Y-7302500D02*
X13017500Y-7342500D01*
X13095000Y-7220000D02*
X13135000Y-7260000D01*
X13135000Y-7220000D02*
X13095000Y-7260000D01*
X13096104Y-8735383D02*
X13136104Y-8775383D01*
X13136104Y-8735383D02*
X13096104Y-8775383D01*
X13105000Y-6230000D02*
X13145000Y-6270000D01*
X13145000Y-6230000D02*
X13105000Y-6270000D01*
X13105000Y-6430000D02*
X13145000Y-6470000D01*
X13145000Y-6430000D02*
X13105000Y-6470000D01*
X13105000Y-6630000D02*
X13145000Y-6670000D01*
X13145000Y-6630000D02*
X13105000Y-6670000D01*
X13105000Y-10155000D02*
X13145000Y-10195000D01*
X13145000Y-10155000D02*
X13105000Y-10195000D01*
X13105000Y-10280000D02*
X13145000Y-10320000D01*
X13145000Y-10280000D02*
X13105000Y-10320000D01*
X13105000Y-10405000D02*
X13145000Y-10445000D01*
X13145000Y-10405000D02*
X13105000Y-10445000D01*
X13105000Y-10530000D02*
X13145000Y-10570000D01*
X13145000Y-10530000D02*
X13105000Y-10570000D01*
X13105000Y-10805000D02*
X13145000Y-10845000D01*
X13145000Y-10805000D02*
X13105000Y-10845000D01*
X13105000Y-10930000D02*
X13145000Y-10970000D01*
X13145000Y-10930000D02*
X13105000Y-10970000D01*
X13105000Y-11055000D02*
X13145000Y-11095000D01*
X13145000Y-11055000D02*
X13105000Y-11095000D01*
X13105000Y-11180000D02*
X13145000Y-11220000D01*
X13145000Y-11180000D02*
X13105000Y-11220000D01*
X13105000Y-11480000D02*
X13145000Y-11520000D01*
X13145000Y-11480000D02*
X13105000Y-11520000D01*
X13140000Y-13040000D02*
X13180000Y-13080000D01*
X13180000Y-13040000D02*
X13140000Y-13080000D01*
X13155000Y-10030000D02*
X13195000Y-10070000D01*
X13195000Y-10030000D02*
X13155000Y-10070000D01*
X13160000Y-9660000D02*
X13200000Y-9700000D01*
X13200000Y-9660000D02*
X13160000Y-9700000D01*
X13160000Y-9790000D02*
X13200000Y-9830000D01*
X13200000Y-9790000D02*
X13160000Y-9830000D01*
X13172596Y-8663453D02*
X13212596Y-8703453D01*
X13212596Y-8663453D02*
X13172596Y-8703453D01*
X13185000Y-7150000D02*
X13225000Y-7190000D01*
X13225000Y-7150000D02*
X13185000Y-7190000D01*
X13190000Y-10670000D02*
X13230000Y-10710000D01*
X13230000Y-10670000D02*
X13190000Y-10710000D01*
X13200000Y-8795000D02*
X13240000Y-8835000D01*
X13240000Y-8795000D02*
X13200000Y-8835000D01*
X13205000Y-5880000D02*
X13245000Y-5920000D01*
X13245000Y-5880000D02*
X13205000Y-5920000D01*
X13227885Y-9151412D02*
X13267885Y-9191412D01*
X13267885Y-9151412D02*
X13227885Y-9191412D01*
X13230000Y-8930000D02*
X13270000Y-8970000D01*
X13270000Y-8930000D02*
X13230000Y-8970000D01*
X13230000Y-10855000D02*
X13270000Y-10895000D01*
X13270000Y-10855000D02*
X13230000Y-10895000D01*
X13234805Y-9034890D02*
X13274805Y-9074890D01*
X13274805Y-9034890D02*
X13234805Y-9074890D01*
X13250096Y-8588537D02*
X13290096Y-8628537D01*
X13290096Y-8588537D02*
X13250096Y-8628537D01*
X13260398Y-12215000D02*
X13300398Y-12255000D01*
X13300398Y-12215000D02*
X13260398Y-12255000D01*
X13271162Y-7082045D02*
X13311162Y-7122045D01*
X13311162Y-7082045D02*
X13271162Y-7122045D01*
X13275291Y-9245101D02*
X13315291Y-9285101D01*
X13315291Y-9245101D02*
X13275291Y-9285101D01*
X13280000Y-12355000D02*
X13320000Y-12395000D01*
X13320000Y-12355000D02*
X13280000Y-12395000D01*
X13330000Y-12120000D02*
X13370000Y-12160000D01*
X13370000Y-12120000D02*
X13330000Y-12160000D01*
X13332892Y-9332892D02*
X13372892Y-9372892D01*
X13372892Y-9332892D02*
X13332892Y-9372892D01*
X13335145Y-8510200D02*
X13375145Y-8550200D01*
X13375145Y-8510200D02*
X13335145Y-8550200D01*
X13342500Y-7005000D02*
X13382500Y-7045000D01*
X13382500Y-7005000D02*
X13342500Y-7045000D01*
X13405000Y-8430000D02*
X13445000Y-8470000D01*
X13445000Y-8430000D02*
X13405000Y-8470000D01*
X13414864Y-6917364D02*
X13454864Y-6957364D01*
X13454864Y-6917364D02*
X13414864Y-6957364D01*
X13440000Y-13040000D02*
X13480000Y-13080000D01*
X13480000Y-13040000D02*
X13440000Y-13080000D01*
X13505000Y-12292500D02*
X13545000Y-12332500D01*
X13545000Y-12292500D02*
X13505000Y-12332500D01*
X13505000Y-12430000D02*
X13545000Y-12470000D01*
X13545000Y-12430000D02*
X13505000Y-12470000D01*
X13515000Y-5880000D02*
X13555000Y-5920000D01*
X13555000Y-5880000D02*
X13515000Y-5920000D01*
X13520000Y-7690000D02*
X13560000Y-7730000D01*
X13560000Y-7690000D02*
X13520000Y-7730000D01*
X13530000Y-8355000D02*
X13570000Y-8395000D01*
X13570000Y-8355000D02*
X13530000Y-8395000D01*
X13580000Y-6260000D02*
X13620000Y-6300000D01*
X13620000Y-6260000D02*
X13580000Y-6300000D01*
X13710000Y-6710000D02*
X13750000Y-6750000D01*
X13750000Y-6710000D02*
X13710000Y-6750000D01*
X13720000Y-12342500D02*
X13760000Y-12382500D01*
X13760000Y-12342500D02*
X13720000Y-12382500D01*
X13730000Y-12120000D02*
X13770000Y-12160000D01*
X13770000Y-12120000D02*
X13730000Y-12160000D01*
X13730000Y-12480000D02*
X13770000Y-12520000D01*
X13770000Y-12480000D02*
X13730000Y-12520000D01*
X13730000Y-13040000D02*
X13770000Y-13080000D01*
X13770000Y-13040000D02*
X13730000Y-13080000D01*
X13795000Y-5880000D02*
X13835000Y-5920000D01*
X13835000Y-5880000D02*
X13795000Y-5920000D01*
X13833984Y-6713984D02*
X13873984Y-6753984D01*
X13873984Y-6713984D02*
X13833984Y-6753984D01*
X13930000Y-11490000D02*
X13970000Y-11530000D01*
X13970000Y-11490000D02*
X13930000Y-11530000D01*
X13955000Y-10672500D02*
X13995000Y-10712500D01*
X13995000Y-10672500D02*
X13955000Y-10712500D01*
X13955000Y-12392500D02*
X13995000Y-12432500D01*
X13995000Y-12392500D02*
X13955000Y-12432500D01*
X13955000Y-12530000D02*
X13995000Y-12570000D01*
X13995000Y-12530000D02*
X13955000Y-12570000D01*
X13970000Y-6710000D02*
X14010000Y-6750000D01*
X14010000Y-6710000D02*
X13970000Y-6750000D01*
X13990000Y-13040000D02*
X14030000Y-13080000D01*
X14030000Y-13040000D02*
X13990000Y-13080000D01*
X14038213Y-8779007D02*
X14078213Y-8819007D01*
X14078213Y-8779007D02*
X14038213Y-8819007D01*
X14085000Y-5880000D02*
X14125000Y-5920000D01*
X14125000Y-5880000D02*
X14085000Y-5920000D01*
X14100000Y-6710000D02*
X14140000Y-6750000D01*
X14140000Y-6710000D02*
X14100000Y-6750000D01*
X14130000Y-8830000D02*
X14170000Y-8870000D01*
X14170000Y-8830000D02*
X14130000Y-8870000D01*
X14130000Y-9582500D02*
X14170000Y-9622500D01*
X14170000Y-9582500D02*
X14130000Y-9622500D01*
X14130000Y-12120000D02*
X14170000Y-12160000D01*
X14170000Y-12120000D02*
X14130000Y-12160000D01*
X14155000Y-10080000D02*
X14195000Y-10120000D01*
X14195000Y-10080000D02*
X14155000Y-10120000D01*
X14180000Y-12580000D02*
X14220000Y-12620000D01*
X14220000Y-12580000D02*
X14180000Y-12620000D01*
X14190000Y-12442500D02*
X14230000Y-12482500D01*
X14230000Y-12442500D02*
X14190000Y-12482500D01*
X14220000Y-8907500D02*
X14260000Y-8947500D01*
X14260000Y-8907500D02*
X14220000Y-8947500D01*
X14230000Y-9660000D02*
X14270000Y-9700000D01*
X14270000Y-9660000D02*
X14230000Y-9700000D01*
X14260000Y-10110000D02*
X14300000Y-10150000D01*
X14300000Y-10110000D02*
X14260000Y-10150000D01*
X14260000Y-13040000D02*
X14300000Y-13080000D01*
X14300000Y-13040000D02*
X14260000Y-13080000D01*
X14305000Y-8455000D02*
X14345000Y-8495000D01*
X14345000Y-8455000D02*
X14305000Y-8495000D01*
X14306515Y-8977500D02*
X14346515Y-9017500D01*
X14346515Y-8977500D02*
X14306515Y-9017500D01*
X14340000Y-6710000D02*
X14380000Y-6750000D01*
X14380000Y-6710000D02*
X14340000Y-6750000D01*
X14360000Y-7750000D02*
X14400000Y-7790000D01*
X14400000Y-7750000D02*
X14360000Y-7790000D01*
X14380000Y-9052500D02*
X14420000Y-9092500D01*
X14420000Y-9052500D02*
X14380000Y-9092500D01*
X14405000Y-12630000D02*
X14445000Y-12670000D01*
X14445000Y-12630000D02*
X14405000Y-12670000D01*
X14410000Y-5880000D02*
X14450000Y-5920000D01*
X14450000Y-5880000D02*
X14410000Y-5920000D01*
X14410000Y-12492500D02*
X14450000Y-12532500D01*
X14450000Y-12492500D02*
X14410000Y-12532500D01*
X14480000Y-6710000D02*
X14520000Y-6750000D01*
X14520000Y-6710000D02*
X14480000Y-6750000D01*
X14530000Y-13040000D02*
X14570000Y-13080000D01*
X14570000Y-13040000D02*
X14530000Y-13080000D01*
X14545000Y-10455000D02*
X14585000Y-10495000D01*
X14585000Y-10455000D02*
X14545000Y-10495000D01*
X14605000Y-12120000D02*
X14645000Y-12160000D01*
X14645000Y-12120000D02*
X14605000Y-12160000D01*
X14605000Y-12680000D02*
X14645000Y-12720000D01*
X14645000Y-12680000D02*
X14605000Y-12720000D01*
X14612500Y-9505000D02*
X14652500Y-9545000D01*
X14652500Y-9505000D02*
X14612500Y-9545000D01*
X14630000Y-8680000D02*
X14670000Y-8720000D01*
X14670000Y-8680000D02*
X14630000Y-8720000D01*
X14630000Y-12542500D02*
X14670000Y-12582500D01*
X14670000Y-12542500D02*
X14630000Y-12582500D01*
X14672500Y-10667500D02*
X14712500Y-10707500D01*
X14712500Y-10667500D02*
X14672500Y-10707500D01*
X14674152Y-9207500D02*
X14714152Y-9247500D01*
X14714152Y-9207500D02*
X14674152Y-9247500D01*
X14690000Y-9905000D02*
X14730000Y-9945000D01*
X14730000Y-9905000D02*
X14690000Y-9945000D01*
X14692500Y-9408069D02*
X14732500Y-9448069D01*
X14732500Y-9408069D02*
X14692500Y-9448069D01*
X14700000Y-5880000D02*
X14740000Y-5920000D01*
X14740000Y-5880000D02*
X14700000Y-5920000D01*
X14780000Y-11430000D02*
X14820000Y-11470000D01*
X14820000Y-11430000D02*
X14780000Y-11470000D01*
X14850000Y-6698189D02*
X14890000Y-6738189D01*
X14890000Y-6698189D02*
X14850000Y-6738189D01*
X14850000Y-12592500D02*
X14890000Y-12632500D01*
X14890000Y-12592500D02*
X14850000Y-12632500D01*
X14875000Y-7290337D02*
X14915000Y-7330337D01*
X14915000Y-7290337D02*
X14875000Y-7330337D01*
X14946000Y-13040000D02*
X14986000Y-13080000D01*
X14986000Y-13040000D02*
X14946000Y-13080000D01*
X14980000Y-5880000D02*
X15020000Y-5920000D01*
X15020000Y-5880000D02*
X14980000Y-5920000D01*
X14980000Y-6700000D02*
X15020000Y-6740000D01*
X15020000Y-6700000D02*
X14980000Y-6740000D01*
X14980000Y-7290000D02*
X15020000Y-7330000D01*
X15020000Y-7290000D02*
X14980000Y-7330000D01*
X15058421Y-9810351D02*
X15098421Y-9850351D01*
X15098421Y-9810351D02*
X15058421Y-9850351D01*
X15080000Y-10155000D02*
X15120000Y-10195000D01*
X15120000Y-10155000D02*
X15080000Y-10195000D01*
X15080000Y-10280000D02*
X15120000Y-10320000D01*
X15120000Y-10280000D02*
X15080000Y-10320000D01*
X15080000Y-10405000D02*
X15120000Y-10445000D01*
X15120000Y-10405000D02*
X15080000Y-10445000D01*
X15080000Y-10530000D02*
X15120000Y-10570000D01*
X15120000Y-10530000D02*
X15080000Y-10570000D01*
X15080000Y-10780000D02*
X15120000Y-10820000D01*
X15120000Y-10780000D02*
X15080000Y-10820000D01*
X15080000Y-10905000D02*
X15120000Y-10945000D01*
X15120000Y-10905000D02*
X15080000Y-10945000D01*
X15080000Y-11030000D02*
X15120000Y-11070000D01*
X15120000Y-11030000D02*
X15080000Y-11070000D01*
X15080000Y-11180000D02*
X15120000Y-11220000D01*
X15120000Y-11180000D02*
X15080000Y-11220000D01*
X15080000Y-13040000D02*
X15120000Y-13080000D01*
X15120000Y-13040000D02*
X15080000Y-13080000D01*
X15110000Y-6700000D02*
X15150000Y-6740000D01*
X15150000Y-6700000D02*
X15110000Y-6740000D01*
X15110000Y-7290000D02*
X15150000Y-7330000D01*
X15150000Y-7290000D02*
X15110000Y-7330000D01*
X15120000Y-9112705D02*
X15160000Y-9152705D01*
X15160000Y-9112705D02*
X15120000Y-9152705D01*
X15120000Y-9296885D02*
X15160000Y-9336885D01*
X15160000Y-9296885D02*
X15120000Y-9336885D01*
X15180000Y-12710000D02*
X15220000Y-12750000D01*
X15220000Y-12710000D02*
X15180000Y-12750000D01*
X15240000Y-6700000D02*
X15280000Y-6740000D01*
X15280000Y-6700000D02*
X15240000Y-6740000D01*
X15245521Y-13050448D02*
X15285521Y-13090448D01*
X15285521Y-13050448D02*
X15245521Y-13090448D01*
X15255000Y-11430000D02*
X15295000Y-11470000D01*
X15295000Y-11430000D02*
X15255000Y-11470000D01*
X15290000Y-5880000D02*
X15330000Y-5920000D01*
X15330000Y-5880000D02*
X15290000Y-5920000D01*
X15305000Y-8480000D02*
X15345000Y-8520000D01*
X15345000Y-8480000D02*
X15305000Y-8520000D01*
X15305000Y-8680000D02*
X15345000Y-8720000D01*
X15345000Y-8680000D02*
X15305000Y-8720000D01*
X15350000Y-13040000D02*
X15390000Y-13080000D01*
X15390000Y-13040000D02*
X15350000Y-13080000D01*
X15359327Y-6703908D02*
X15399327Y-6743908D01*
X15399327Y-6703908D02*
X15359327Y-6743908D01*
X15410000Y-10110000D02*
X15450000Y-10150000D01*
X15450000Y-10110000D02*
X15410000Y-10150000D01*
X15431676Y-9738722D02*
X15471676Y-9778722D01*
X15471676Y-9738722D02*
X15431676Y-9778722D01*
X15434176Y-9860757D02*
X15474176Y-9900757D01*
X15474176Y-9860757D02*
X15434176Y-9900757D01*
X15460000Y-13040000D02*
X15500000Y-13080000D01*
X15500000Y-13040000D02*
X15460000Y-13080000D01*
X15484183Y-9289183D02*
X15524183Y-9329183D01*
X15524183Y-9289183D02*
X15484183Y-9329183D01*
X15490000Y-6698337D02*
X15530000Y-6738337D01*
X15530000Y-6698337D02*
X15490000Y-6738337D01*
X15490000Y-7300000D02*
X15530000Y-7340000D01*
X15530000Y-7300000D02*
X15490000Y-7340000D01*
X15504581Y-9186184D02*
X15544581Y-9226184D01*
X15544581Y-9186184D02*
X15504581Y-9226184D01*
X15520604Y-9082413D02*
X15560604Y-9122413D01*
X15560604Y-9082413D02*
X15520604Y-9122413D01*
X15546237Y-8980590D02*
X15586237Y-9020590D01*
X15586237Y-8980590D02*
X15546237Y-9020590D01*
X15566854Y-13040000D02*
X15606854Y-13080000D01*
X15606854Y-13040000D02*
X15566854Y-13080000D01*
X15570000Y-5880000D02*
X15610000Y-5920000D01*
X15610000Y-5880000D02*
X15570000Y-5920000D01*
X15600000Y-10750000D02*
X15640000Y-10790000D01*
X15640000Y-10750000D02*
X15600000Y-10790000D01*
X15620000Y-6700000D02*
X15660000Y-6740000D01*
X15660000Y-6700000D02*
X15620000Y-6740000D01*
X15730000Y-13040000D02*
X15770000Y-13080000D01*
X15770000Y-13040000D02*
X15730000Y-13080000D01*
X15750000Y-6699547D02*
X15790000Y-6739547D01*
X15790000Y-6699547D02*
X15750000Y-6739547D01*
X15790000Y-11430000D02*
X15830000Y-11470000D01*
X15830000Y-11430000D02*
X15790000Y-11470000D01*
X15860000Y-5880000D02*
X15900000Y-5920000D01*
X15900000Y-5880000D02*
X15860000Y-5920000D01*
X15880000Y-8770000D02*
X15920000Y-8810000D01*
X15920000Y-8770000D02*
X15880000Y-8810000D01*
X15914278Y-6696581D02*
X15954278Y-6736581D01*
X15954278Y-6696581D02*
X15914278Y-6736581D01*
X16026411Y-11302841D02*
X16066411Y-11342841D01*
X16066411Y-11302841D02*
X16026411Y-11342841D01*
X16030000Y-8770000D02*
X16070000Y-8810000D01*
X16070000Y-8770000D02*
X16030000Y-8810000D01*
X16070000Y-11430000D02*
X16110000Y-11470000D01*
X16110000Y-11430000D02*
X16070000Y-11470000D01*
X16080000Y-6730000D02*
X16120000Y-6770000D01*
X16120000Y-6730000D02*
X16080000Y-6770000D01*
X16082500Y-10670000D02*
X16122500Y-10710000D01*
X16122500Y-10670000D02*
X16082500Y-10710000D01*
X16095000Y-11215000D02*
X16135000Y-11255000D01*
X16135000Y-11215000D02*
X16095000Y-11255000D01*
X16102500Y-12890000D02*
X16142500Y-12930000D01*
X16142500Y-12890000D02*
X16102500Y-12930000D01*
X16116644Y-7660984D02*
X16156644Y-7700984D01*
X16156644Y-7660984D02*
X16116644Y-7700984D01*
X16120000Y-6510000D02*
X16160000Y-6550000D01*
X16160000Y-6510000D02*
X16120000Y-6550000D01*
X16147752Y-10192500D02*
X16187752Y-10232500D01*
X16187752Y-10192500D02*
X16147752Y-10232500D01*
X16155000Y-5880000D02*
X16195000Y-5920000D01*
X16195000Y-5880000D02*
X16155000Y-5920000D01*
X16160000Y-10085000D02*
X16200000Y-10125000D01*
X16200000Y-10085000D02*
X16160000Y-10125000D01*
X16180000Y-12960843D02*
X16220000Y-13000843D01*
X16220000Y-12960843D02*
X16180000Y-13000843D01*
X16182483Y-7742778D02*
X16222483Y-7782778D01*
X16222483Y-7742778D02*
X16182483Y-7782778D01*
X16229489Y-8850511D02*
X16269489Y-8890511D01*
X16269489Y-8850511D02*
X16229489Y-8890511D01*
X16240000Y-11240000D02*
X16280000Y-11280000D01*
X16280000Y-11240000D02*
X16240000Y-11280000D01*
X16247858Y-10226835D02*
X16287858Y-10266835D01*
X16287858Y-10226835D02*
X16247858Y-10266835D01*
X16256668Y-7817086D02*
X16296668Y-7857086D01*
X16296668Y-7817086D02*
X16256668Y-7857086D01*
X16257500Y-12890000D02*
X16297500Y-12930000D01*
X16297500Y-12890000D02*
X16257500Y-12930000D01*
X16275000Y-9630000D02*
X16315000Y-9670000D01*
X16315000Y-9630000D02*
X16275000Y-9670000D01*
X16277500Y-9470000D02*
X16317500Y-9510000D01*
X16317500Y-9470000D02*
X16277500Y-9510000D01*
X16300000Y-9107500D02*
X16340000Y-9147500D01*
X16340000Y-9107500D02*
X16300000Y-9147500D01*
X16322726Y-7898703D02*
X16362726Y-7938703D01*
X16362726Y-7898703D02*
X16322726Y-7938703D01*
X16343712Y-9388508D02*
X16383712Y-9428508D01*
X16383712Y-9388508D02*
X16343712Y-9428508D01*
X16344238Y-9551062D02*
X16384238Y-9591062D01*
X16384238Y-9551062D02*
X16344238Y-9591062D01*
X16352188Y-9707500D02*
X16392188Y-9747500D01*
X16392188Y-9707500D02*
X16352188Y-9747500D01*
X16353367Y-10261633D02*
X16393367Y-10301633D01*
X16393367Y-10261633D02*
X16353367Y-10301633D01*
X16355000Y-12780000D02*
X16395000Y-12820000D01*
X16395000Y-12780000D02*
X16355000Y-12820000D01*
X16392635Y-7977047D02*
X16432635Y-8017047D01*
X16432635Y-7977047D02*
X16392635Y-8017047D01*
X16405000Y-6455000D02*
X16445000Y-6495000D01*
X16445000Y-6455000D02*
X16405000Y-6495000D01*
X16405000Y-6730000D02*
X16445000Y-6770000D01*
X16445000Y-6730000D02*
X16405000Y-6770000D01*
X16413199Y-9157500D02*
X16453199Y-9197500D01*
X16453199Y-9157500D02*
X16413199Y-9197500D01*
X16440000Y-12360000D02*
X16480000Y-12400000D01*
X16480000Y-12360000D02*
X16440000Y-12400000D01*
X16455000Y-5880000D02*
X16495000Y-5920000D01*
X16495000Y-5880000D02*
X16455000Y-5920000D01*
X16458424Y-10295980D02*
X16498424Y-10335980D01*
X16498424Y-10295980D02*
X16458424Y-10335980D01*
X16463478Y-8054547D02*
X16503478Y-8094547D01*
X16503478Y-8054547D02*
X16463478Y-8094547D01*
X16509792Y-9205400D02*
X16549792Y-9245400D01*
X16549792Y-9205400D02*
X16509792Y-9245400D01*
X16534321Y-8132047D02*
X16574321Y-8172047D01*
X16574321Y-8132047D02*
X16534321Y-8172047D01*
X16560026Y-10322474D02*
X16600026Y-10362474D01*
X16600026Y-10322474D02*
X16560026Y-10362474D01*
X16580000Y-8965453D02*
X16620000Y-9005453D01*
X16620000Y-8965453D02*
X16580000Y-9005453D01*
X16580000Y-12780000D02*
X16620000Y-12820000D01*
X16620000Y-12780000D02*
X16580000Y-12820000D01*
X16580000Y-13040000D02*
X16620000Y-13080000D01*
X16620000Y-13040000D02*
X16580000Y-13080000D01*
X16616250Y-9241250D02*
X16656250Y-9281250D01*
X16656250Y-9241250D02*
X16616250Y-9281250D01*
X16618356Y-8195000D02*
X16658356Y-8235000D01*
X16658356Y-8195000D02*
X16618356Y-8235000D01*
X16620000Y-8405000D02*
X16660000Y-8445000D01*
X16660000Y-8405000D02*
X16620000Y-8445000D01*
X16635000Y-6510000D02*
X16675000Y-6550000D01*
X16675000Y-6510000D02*
X16635000Y-6550000D01*
X16710000Y-12100000D02*
X16750000Y-12140000D01*
X16750000Y-12100000D02*
X16710000Y-12140000D01*
X16710035Y-8257500D02*
X16750035Y-8297500D01*
X16750035Y-8257500D02*
X16710035Y-8297500D01*
X16710055Y-8965453D02*
X16750055Y-9005453D01*
X16750055Y-8965453D02*
X16710055Y-9005453D01*
X16742613Y-10212613D02*
X16782613Y-10252613D01*
X16782613Y-10212613D02*
X16742613Y-10252613D01*
X16745000Y-5880000D02*
X16785000Y-5920000D01*
X16785000Y-5880000D02*
X16745000Y-5920000D01*
X16810000Y-6867500D02*
X16850000Y-6907500D01*
X16850000Y-6867500D02*
X16810000Y-6907500D01*
X16810000Y-7285000D02*
X16850000Y-7325000D01*
X16850000Y-7285000D02*
X16810000Y-7325000D01*
X16820000Y-6030000D02*
X16860000Y-6070000D01*
X16860000Y-6030000D02*
X16820000Y-6070000D01*
X16835316Y-9015453D02*
X16875316Y-9055453D01*
X16875316Y-9015453D02*
X16835316Y-9055453D01*
X16861689Y-9117087D02*
X16901689Y-9157087D01*
X16901689Y-9117087D02*
X16861689Y-9157087D01*
X16880086Y-10190000D02*
X16920086Y-10230000D01*
X16920086Y-10190000D02*
X16880086Y-10230000D01*
X16940000Y-6030000D02*
X16980000Y-6070000D01*
X16980000Y-6030000D02*
X16940000Y-6070000D01*
X16940000Y-6870000D02*
X16980000Y-6910000D01*
X16980000Y-6870000D02*
X16940000Y-6910000D01*
X16940000Y-7285000D02*
X16980000Y-7325000D01*
X16980000Y-7285000D02*
X16940000Y-7325000D01*
X16953116Y-9065453D02*
X16993116Y-9105453D01*
X16993116Y-9065453D02*
X16953116Y-9105453D01*
X16955000Y-12280000D02*
X16995000Y-12320000D01*
X16995000Y-12280000D02*
X16955000Y-12320000D01*
X16995960Y-10190000D02*
X17035960Y-10230000D01*
X17035960Y-10190000D02*
X16995960Y-10230000D01*
X17025000Y-5880000D02*
X17065000Y-5920000D01*
X17065000Y-5880000D02*
X17025000Y-5920000D01*
X17040000Y-12860000D02*
X17080000Y-12900000D01*
X17080000Y-12860000D02*
X17040000Y-12900000D01*
X17040000Y-13040000D02*
X17080000Y-13080000D01*
X17080000Y-13040000D02*
X17040000Y-13080000D01*
X17055000Y-9440000D02*
X17095000Y-9480000D01*
X17095000Y-9440000D02*
X17055000Y-9480000D01*
X17065000Y-6030000D02*
X17105000Y-6070000D01*
X17105000Y-6030000D02*
X17065000Y-6070000D01*
X17065000Y-6875000D02*
X17105000Y-6915000D01*
X17105000Y-6875000D02*
X17065000Y-6915000D01*
X17065000Y-7285000D02*
X17105000Y-7325000D01*
X17105000Y-7285000D02*
X17065000Y-7325000D01*
X17080000Y-12155000D02*
X17120000Y-12195000D01*
X17120000Y-12155000D02*
X17080000Y-12195000D01*
X17105562Y-10190000D02*
X17145562Y-10230000D01*
X17145562Y-10190000D02*
X17105562Y-10230000D01*
X17179196Y-9165453D02*
X17219196Y-9205453D01*
X17219196Y-9165453D02*
X17179196Y-9205453D01*
X17195000Y-6030000D02*
X17235000Y-6070000D01*
X17235000Y-6030000D02*
X17195000Y-6070000D01*
X17195000Y-6875000D02*
X17235000Y-6915000D01*
X17235000Y-6875000D02*
X17195000Y-6915000D01*
X17195000Y-7285000D02*
X17235000Y-7325000D01*
X17235000Y-7285000D02*
X17195000Y-7325000D01*
X17217500Y-10190000D02*
X17257500Y-10230000D01*
X17257500Y-10190000D02*
X17217500Y-10230000D01*
X17250790Y-9324202D02*
X17290790Y-9364202D01*
X17290790Y-9324202D02*
X17250790Y-9364202D01*
X17268485Y-9220703D02*
X17308485Y-9260703D01*
X17308485Y-9220703D02*
X17268485Y-9260703D01*
X17300000Y-12155000D02*
X17340000Y-12195000D01*
X17340000Y-12155000D02*
X17300000Y-12195000D01*
X17300000Y-12730000D02*
X17340000Y-12770000D01*
X17340000Y-12730000D02*
X17300000Y-12770000D01*
X17320000Y-6875000D02*
X17360000Y-6915000D01*
X17360000Y-6875000D02*
X17320000Y-6915000D01*
X17320000Y-7285000D02*
X17360000Y-7325000D01*
X17360000Y-7285000D02*
X17320000Y-7325000D01*
X17335000Y-5880000D02*
X17375000Y-5920000D01*
X17375000Y-5880000D02*
X17335000Y-5920000D01*
X17352345Y-9283890D02*
X17392345Y-9323890D01*
X17392345Y-9283890D02*
X17352345Y-9323890D01*
X17418344Y-11363344D02*
X17458344Y-11403344D01*
X17458344Y-11363344D02*
X17418344Y-11403344D01*
X17450000Y-7245000D02*
X17490000Y-7285000D01*
X17490000Y-7245000D02*
X17450000Y-7285000D01*
X17460000Y-6030000D02*
X17500000Y-6070000D01*
X17500000Y-6030000D02*
X17460000Y-6070000D01*
X17469000Y-9527752D02*
X17509000Y-9567752D01*
X17509000Y-9527752D02*
X17469000Y-9567752D01*
X17470640Y-9365453D02*
X17510640Y-9405453D01*
X17510640Y-9365453D02*
X17470640Y-9405453D01*
X17550000Y-11230000D02*
X17590000Y-11270000D01*
X17590000Y-11230000D02*
X17550000Y-11270000D01*
X17575000Y-6280000D02*
X17615000Y-6320000D01*
X17615000Y-6280000D02*
X17575000Y-6320000D01*
X17575000Y-7285000D02*
X17615000Y-7325000D01*
X17615000Y-7285000D02*
X17575000Y-7325000D01*
X17615000Y-5880000D02*
X17655000Y-5920000D01*
X17655000Y-5880000D02*
X17615000Y-5920000D01*
X17700000Y-7285000D02*
X17740000Y-7325000D01*
X17740000Y-7285000D02*
X17700000Y-7325000D01*
X17705000Y-12355000D02*
X17745000Y-12395000D01*
X17745000Y-12355000D02*
X17705000Y-12395000D01*
X17730000Y-12530000D02*
X17770000Y-12570000D01*
X17770000Y-12530000D02*
X17730000Y-12570000D01*
X17747500Y-8417500D02*
X17787500Y-8457500D01*
X17787500Y-8417500D02*
X17747500Y-8457500D01*
X17755000Y-12730000D02*
X17795000Y-12770000D01*
X17795000Y-12730000D02*
X17755000Y-12770000D01*
X17760000Y-9760000D02*
X17800000Y-9800000D01*
X17800000Y-9760000D02*
X17760000Y-9800000D01*
X17761981Y-9618928D02*
X17801981Y-9658928D01*
X17801981Y-9618928D02*
X17761981Y-9658928D01*
X17770000Y-9105000D02*
X17810000Y-9145000D01*
X17810000Y-9105000D02*
X17770000Y-9145000D01*
X17779804Y-11407752D02*
X17819804Y-11447752D01*
X17819804Y-11407752D02*
X17779804Y-11447752D01*
X17780000Y-6955000D02*
X17820000Y-6995000D01*
X17820000Y-6955000D02*
X17780000Y-6995000D01*
X17830000Y-12355000D02*
X17870000Y-12395000D01*
X17870000Y-12355000D02*
X17830000Y-12395000D01*
X17847921Y-9030000D02*
X17887921Y-9070000D01*
X17887921Y-9030000D02*
X17847921Y-9070000D01*
X17905000Y-5880000D02*
X17945000Y-5920000D01*
X17945000Y-5880000D02*
X17905000Y-5920000D01*
X17910844Y-10870844D02*
X17950844Y-10910844D01*
X17950844Y-10870844D02*
X17910844Y-10910844D01*
X17926584Y-9105000D02*
X17966584Y-9145000D01*
X17966584Y-9105000D02*
X17926584Y-9145000D01*
X17959104Y-11175953D02*
X17999104Y-11215953D01*
X17999104Y-11175953D02*
X17959104Y-11215953D01*
X17960000Y-6735000D02*
X18000000Y-6775000D01*
X18000000Y-6735000D02*
X17960000Y-6775000D01*
X17990000Y-12780000D02*
X18030000Y-12820000D01*
X18030000Y-12780000D02*
X17990000Y-12820000D01*
X18000000Y-8670000D02*
X18040000Y-8710000D01*
X18040000Y-8670000D02*
X18000000Y-8710000D01*
X18010000Y-9030000D02*
X18050000Y-9070000D01*
X18050000Y-9030000D02*
X18010000Y-9070000D01*
X18030000Y-12355000D02*
X18070000Y-12395000D01*
X18070000Y-12355000D02*
X18030000Y-12395000D01*
X18085000Y-6735000D02*
X18125000Y-6775000D01*
X18125000Y-6735000D02*
X18085000Y-6775000D01*
X18165000Y-10215000D02*
X18205000Y-10255000D01*
X18205000Y-10215000D02*
X18165000Y-10255000D01*
X18170500Y-13080000D02*
X18210500Y-13120000D01*
X18210500Y-13080000D02*
X18170500Y-13120000D01*
X18205000Y-5880000D02*
X18245000Y-5920000D01*
X18245000Y-5880000D02*
X18205000Y-5920000D01*
X18205000Y-6230000D02*
X18245000Y-6270000D01*
X18245000Y-6230000D02*
X18205000Y-6270000D01*
X18205000Y-10705000D02*
X18245000Y-10745000D01*
X18245000Y-10705000D02*
X18205000Y-10745000D01*
X18205000Y-10980000D02*
X18245000Y-11020000D01*
X18245000Y-10980000D02*
X18205000Y-11020000D01*
X18210000Y-6735000D02*
X18250000Y-6775000D01*
X18250000Y-6735000D02*
X18210000Y-6775000D01*
X18230000Y-7230000D02*
X18270000Y-7270000D01*
X18270000Y-7230000D02*
X18230000Y-7270000D01*
X18231560Y-12531560D02*
X18271560Y-12571560D01*
X18271560Y-12531560D02*
X18231560Y-12571560D01*
X18259322Y-7953178D02*
X18299322Y-7993178D01*
X18299322Y-7953178D02*
X18259322Y-7993178D01*
X18335000Y-6730000D02*
X18375000Y-6770000D01*
X18375000Y-6730000D02*
X18335000Y-6770000D01*
X18358353Y-8442560D02*
X18398353Y-8482560D01*
X18398353Y-8442560D02*
X18358353Y-8482560D01*
X18370000Y-13060000D02*
X18410000Y-13100000D01*
X18410000Y-13060000D02*
X18370000Y-13100000D01*
X18400412Y-8173086D02*
X18440412Y-8213086D01*
X18440412Y-8173086D02*
X18400412Y-8213086D01*
X18450000Y-11177500D02*
X18490000Y-11217500D01*
X18490000Y-11177500D02*
X18450000Y-11217500D01*
X18465000Y-6255000D02*
X18505000Y-6295000D01*
X18505000Y-6255000D02*
X18465000Y-6295000D01*
X18468812Y-11662626D02*
X18508812Y-11702626D01*
X18508812Y-11662626D02*
X18468812Y-11702626D01*
X18480199Y-12410199D02*
X18520199Y-12450199D01*
X18520199Y-12410199D02*
X18480199Y-12450199D01*
X18495000Y-5880000D02*
X18535000Y-5920000D01*
X18535000Y-5880000D02*
X18495000Y-5920000D01*
X18516240Y-7956260D02*
X18556240Y-7996260D01*
X18556240Y-7956260D02*
X18516240Y-7996260D01*
X18520000Y-11990000D02*
X18560000Y-12030000D01*
X18560000Y-11990000D02*
X18520000Y-12030000D01*
X18595000Y-6725000D02*
X18635000Y-6765000D01*
X18635000Y-6725000D02*
X18595000Y-6765000D01*
X18595000Y-11167500D02*
X18635000Y-11207500D01*
X18635000Y-11167500D02*
X18595000Y-11207500D01*
X18605000Y-10705000D02*
X18645000Y-10745000D01*
X18645000Y-10705000D02*
X18605000Y-10745000D01*
X18620000Y-12945000D02*
X18660000Y-12985000D01*
X18660000Y-12945000D02*
X18620000Y-12985000D01*
X18620000Y-13050000D02*
X18660000Y-13090000D01*
X18660000Y-13050000D02*
X18620000Y-13090000D01*
X18625038Y-12407837D02*
X18665038Y-12447837D01*
X18665038Y-12407837D02*
X18625038Y-12447837D01*
X18647723Y-8158453D02*
X18687723Y-8198453D01*
X18687723Y-8158453D02*
X18647723Y-8198453D01*
X18660000Y-9660000D02*
X18700000Y-9700000D01*
X18700000Y-9660000D02*
X18660000Y-9700000D01*
X18680000Y-10980000D02*
X18720000Y-11020000D01*
X18720000Y-10980000D02*
X18680000Y-11020000D01*
X18685000Y-11625000D02*
X18725000Y-11665000D01*
X18725000Y-11625000D02*
X18685000Y-11665000D01*
X18720000Y-6725000D02*
X18760000Y-6765000D01*
X18760000Y-6725000D02*
X18720000Y-6765000D01*
X18730000Y-12405000D02*
X18770000Y-12445000D01*
X18770000Y-12405000D02*
X18730000Y-12445000D01*
X18746250Y-11149148D02*
X18786250Y-11189148D01*
X18786250Y-11149148D02*
X18746250Y-11189148D01*
X18775000Y-5880000D02*
X18815000Y-5920000D01*
X18815000Y-5880000D02*
X18775000Y-5920000D01*
X18815453Y-8727245D02*
X18855453Y-8767245D01*
X18855453Y-8727245D02*
X18815453Y-8767245D01*
X18815453Y-8882245D02*
X18855453Y-8922245D01*
X18855453Y-8882245D02*
X18815453Y-8922245D01*
X18818491Y-9057983D02*
X18858491Y-9097983D01*
X18858491Y-9057983D02*
X18818491Y-9097983D01*
X18835000Y-12405000D02*
X18875000Y-12445000D01*
X18875000Y-12405000D02*
X18835000Y-12445000D01*
X18840505Y-8557316D02*
X18880505Y-8597316D01*
X18880505Y-8557316D02*
X18840505Y-8597316D01*
X18845000Y-6725000D02*
X18885000Y-6765000D01*
X18885000Y-6725000D02*
X18845000Y-6765000D01*
X18860000Y-13050000D02*
X18900000Y-13090000D01*
X18900000Y-13050000D02*
X18860000Y-13090000D01*
X18880000Y-11164801D02*
X18920000Y-11204801D01*
X18920000Y-11164801D02*
X18880000Y-11204801D01*
X18889943Y-8959745D02*
X18929943Y-8999745D01*
X18929943Y-8959745D02*
X18889943Y-8999745D01*
X18890453Y-9139547D02*
X18930453Y-9179547D01*
X18930453Y-9139547D02*
X18890453Y-9179547D01*
X18893397Y-8804745D02*
X18933397Y-8844745D01*
X18933397Y-8804745D02*
X18893397Y-8844745D01*
X18896012Y-8649745D02*
X18936012Y-8689745D01*
X18936012Y-8649745D02*
X18896012Y-8689745D01*
X18927000Y-10980000D02*
X18967000Y-11020000D01*
X18967000Y-10980000D02*
X18927000Y-11020000D01*
X18966512Y-12325221D02*
X19006512Y-12365221D01*
X19006512Y-12325221D02*
X18966512Y-12365221D01*
X18975000Y-6725000D02*
X19015000Y-6765000D01*
X19015000Y-6725000D02*
X18975000Y-6765000D01*
X18995000Y-7255000D02*
X19035000Y-7295000D01*
X19035000Y-7255000D02*
X18995000Y-7295000D01*
X19005000Y-9655000D02*
X19045000Y-9695000D01*
X19045000Y-9655000D02*
X19005000Y-9695000D01*
X19005000Y-10705000D02*
X19045000Y-10745000D01*
X19045000Y-10705000D02*
X19005000Y-10745000D01*
X19057384Y-12272616D02*
X19097384Y-12312616D01*
X19097384Y-12272616D02*
X19057384Y-12312616D01*
X19085000Y-5880000D02*
X19125000Y-5920000D01*
X19125000Y-5880000D02*
X19085000Y-5920000D01*
X19100000Y-6260000D02*
X19140000Y-6300000D01*
X19140000Y-6260000D02*
X19100000Y-6300000D01*
X19102000Y-11155000D02*
X19142000Y-11195000D01*
X19142000Y-11155000D02*
X19102000Y-11195000D01*
X19120000Y-13050000D02*
X19160000Y-13090000D01*
X19160000Y-13050000D02*
X19120000Y-13090000D01*
X19150967Y-12225000D02*
X19190967Y-12265000D01*
X19190967Y-12225000D02*
X19150967Y-12265000D01*
X19268055Y-12225396D02*
X19308055Y-12265396D01*
X19308055Y-12225396D02*
X19268055Y-12265396D01*
X19300000Y-10705000D02*
X19340000Y-10745000D01*
X19340000Y-10705000D02*
X19300000Y-10745000D01*
X19345000Y-10966000D02*
X19385000Y-11006000D01*
X19385000Y-10966000D02*
X19345000Y-11006000D01*
X19350000Y-13050000D02*
X19390000Y-13090000D01*
X19390000Y-13050000D02*
X19350000Y-13090000D01*
X19365000Y-5880000D02*
X19405000Y-5920000D01*
X19405000Y-5880000D02*
X19365000Y-5920000D01*
X19372949Y-12220689D02*
X19412949Y-12260689D01*
X19412949Y-12220689D02*
X19372949Y-12260689D01*
X19379953Y-7764000D02*
X19419953Y-7804000D01*
X19419953Y-7764000D02*
X19379953Y-7804000D01*
X19380000Y-9005000D02*
X19420000Y-9045000D01*
X19420000Y-9005000D02*
X19380000Y-9045000D01*
X19380000Y-9655000D02*
X19420000Y-9695000D01*
X19420000Y-9655000D02*
X19380000Y-9695000D01*
X19425000Y-8465000D02*
X19465000Y-8505000D01*
X19465000Y-8465000D02*
X19425000Y-8505000D01*
X19428467Y-7905000D02*
X19468467Y-7945000D01*
X19468467Y-7905000D02*
X19428467Y-7945000D01*
X19447772Y-10292330D02*
X19487772Y-10332330D01*
X19487772Y-10292330D02*
X19447772Y-10332330D01*
X19478467Y-7999961D02*
X19518467Y-8039961D01*
X19518467Y-7999961D02*
X19478467Y-8039961D01*
X19480000Y-7630000D02*
X19520000Y-7670000D01*
X19520000Y-7630000D02*
X19480000Y-7670000D01*
X19528467Y-8124783D02*
X19568467Y-8164783D01*
X19568467Y-8124783D02*
X19528467Y-8164783D01*
X19537699Y-6912699D02*
X19577699Y-6952699D01*
X19577699Y-6912699D02*
X19537699Y-6952699D01*
X19538351Y-10345439D02*
X19578351Y-10385439D01*
X19578351Y-10345439D02*
X19538351Y-10385439D01*
X19590000Y-10215000D02*
X19630000Y-10255000D01*
X19630000Y-10215000D02*
X19590000Y-10255000D01*
X19590000Y-11625000D02*
X19630000Y-11665000D01*
X19630000Y-11625000D02*
X19590000Y-11665000D01*
X19590000Y-11880000D02*
X19630000Y-11920000D01*
X19630000Y-11880000D02*
X19590000Y-11920000D01*
X19597521Y-11175711D02*
X19637521Y-11215711D01*
X19637521Y-11175711D02*
X19597521Y-11215711D01*
X19600967Y-8439547D02*
X19640967Y-8479547D01*
X19640967Y-8439547D02*
X19600967Y-8479547D01*
X19628467Y-11777039D02*
X19668467Y-11817039D01*
X19668467Y-11777039D02*
X19628467Y-11817039D01*
X19630000Y-13050000D02*
X19670000Y-13090000D01*
X19670000Y-13050000D02*
X19630000Y-13090000D01*
X19637500Y-10380000D02*
X19677500Y-10420000D01*
X19677500Y-10380000D02*
X19637500Y-10420000D01*
X19655000Y-5880000D02*
X19695000Y-5920000D01*
X19695000Y-5880000D02*
X19655000Y-5920000D01*
X19713495Y-10131632D02*
X19753495Y-10171632D01*
X19753495Y-10131632D02*
X19713495Y-10171632D01*
X19730000Y-7430000D02*
X19770000Y-7470000D01*
X19770000Y-7430000D02*
X19730000Y-7470000D01*
X19735000Y-12145000D02*
X19775000Y-12185000D01*
X19775000Y-12145000D02*
X19735000Y-12185000D01*
X19742461Y-10377137D02*
X19782461Y-10417137D01*
X19782461Y-10377137D02*
X19742461Y-10417137D01*
X19755000Y-9005000D02*
X19795000Y-9045000D01*
X19795000Y-9005000D02*
X19755000Y-9045000D01*
X19755000Y-12785000D02*
X19795000Y-12825000D01*
X19795000Y-12785000D02*
X19755000Y-12825000D01*
X19772500Y-11787500D02*
X19812500Y-11827500D01*
X19812500Y-11787500D02*
X19772500Y-11827500D01*
X19819366Y-10127901D02*
X19859366Y-10167901D01*
X19859366Y-10127901D02*
X19819366Y-10167901D01*
X19850000Y-10380000D02*
X19890000Y-10420000D01*
X19890000Y-10380000D02*
X19850000Y-10420000D01*
X19880000Y-13050000D02*
X19920000Y-13090000D01*
X19920000Y-13050000D02*
X19880000Y-13090000D01*
X19920009Y-10097968D02*
X19960009Y-10137968D01*
X19960009Y-10097968D02*
X19920009Y-10137968D01*
X19932500Y-9280000D02*
X19972500Y-9320000D01*
X19972500Y-9280000D02*
X19932500Y-9320000D01*
X19950237Y-8450000D02*
X19990237Y-8490000D01*
X19990237Y-8450000D02*
X19950237Y-8490000D01*
X19960537Y-10382716D02*
X20000537Y-10422716D01*
X20000537Y-10382716D02*
X19960537Y-10422716D01*
X19971936Y-7524531D02*
X20011936Y-7564531D01*
X20011936Y-7524531D02*
X19971936Y-7564531D01*
X19973989Y-7632080D02*
X20013989Y-7672080D01*
X20013989Y-7632080D02*
X19973989Y-7672080D01*
X19980000Y-5880000D02*
X20020000Y-5920000D01*
X20020000Y-5880000D02*
X19980000Y-5920000D01*
X19984516Y-7736551D02*
X20024516Y-7776551D01*
X20024516Y-7736551D02*
X19984516Y-7776551D01*
X20002500Y-7840000D02*
X20042500Y-7880000D01*
X20042500Y-7840000D02*
X20002500Y-7880000D01*
X20005000Y-12785000D02*
X20045000Y-12825000D01*
X20045000Y-12785000D02*
X20005000Y-12825000D01*
X20020652Y-10068036D02*
X20060652Y-10108036D01*
X20060652Y-10068036D02*
X20020652Y-10108036D01*
X20025725Y-7966461D02*
X20065725Y-8006461D01*
X20065725Y-7966461D02*
X20025725Y-8006461D01*
X20065537Y-10382846D02*
X20105537Y-10422846D01*
X20105537Y-10382846D02*
X20065537Y-10422846D01*
X20073467Y-11492500D02*
X20113467Y-11532500D01*
X20113467Y-11492500D02*
X20073467Y-11532500D01*
X20088917Y-8050317D02*
X20128917Y-8090317D01*
X20128917Y-8050317D02*
X20088917Y-8090317D01*
X20095966Y-7220965D02*
X20135966Y-7260965D01*
X20135966Y-7220965D02*
X20095966Y-7260965D01*
X20120000Y-13050000D02*
X20160000Y-13090000D01*
X20160000Y-13050000D02*
X20120000Y-13090000D01*
X20122500Y-10042500D02*
X20162500Y-10082500D01*
X20162500Y-10042500D02*
X20122500Y-10082500D01*
X20174485Y-7889866D02*
X20214485Y-7929866D01*
X20214485Y-7889866D02*
X20174485Y-7929866D01*
X20193912Y-8049245D02*
X20233912Y-8089245D01*
X20233912Y-8049245D02*
X20193912Y-8089245D01*
X20200000Y-10320000D02*
X20240000Y-10360000D01*
X20240000Y-10320000D02*
X20200000Y-10360000D01*
X20223467Y-8150000D02*
X20263467Y-8190000D01*
X20263467Y-8150000D02*
X20223467Y-8190000D01*
X20252500Y-12920000D02*
X20292500Y-12960000D01*
X20292500Y-12920000D02*
X20252500Y-12960000D01*
X20255000Y-10780000D02*
X20295000Y-10820000D01*
X20295000Y-10780000D02*
X20255000Y-10820000D01*
X20260000Y-6950000D02*
X20300000Y-6990000D01*
X20300000Y-6950000D02*
X20260000Y-6990000D01*
X20270000Y-5880000D02*
X20310000Y-5920000D01*
X20310000Y-5880000D02*
X20270000Y-5920000D01*
X20275747Y-12810276D02*
X20315747Y-12850276D01*
X20315747Y-12810276D02*
X20275747Y-12850276D01*
X20279489Y-7539488D02*
X20319489Y-7579488D01*
X20319489Y-7539488D02*
X20279489Y-7579488D01*
X20280093Y-10054907D02*
X20320093Y-10094907D01*
X20320093Y-10054907D02*
X20280093Y-10094907D01*
X20325000Y-6770000D02*
X20365000Y-6810000D01*
X20365000Y-6770000D02*
X20325000Y-6810000D01*
X20355000Y-11480000D02*
X20395000Y-11520000D01*
X20395000Y-11480000D02*
X20355000Y-11520000D01*
X20370000Y-9520000D02*
X20410000Y-9560000D01*
X20410000Y-9520000D02*
X20370000Y-9560000D01*
X20370000Y-13055000D02*
X20410000Y-13095000D01*
X20410000Y-13055000D02*
X20370000Y-13095000D01*
X20380000Y-11630000D02*
X20420000Y-11670000D01*
X20420000Y-11630000D02*
X20380000Y-11670000D01*
X20394950Y-10024552D02*
X20434950Y-10064552D01*
X20434950Y-10024552D02*
X20394950Y-10064552D01*
X20405000Y-8855000D02*
X20445000Y-8895000D01*
X20445000Y-8855000D02*
X20405000Y-8895000D01*
X20405000Y-10484951D02*
X20445000Y-10524951D01*
X20445000Y-10484951D02*
X20405000Y-10524951D01*
X20425000Y-6965000D02*
X20465000Y-7005000D01*
X20465000Y-6965000D02*
X20425000Y-7005000D01*
X20428467Y-8115000D02*
X20468467Y-8155000D01*
X20468467Y-8115000D02*
X20428467Y-8155000D01*
X20435310Y-8972651D02*
X20475310Y-9012651D01*
X20475310Y-8972651D02*
X20435310Y-9012651D01*
X20440000Y-10340000D02*
X20480000Y-10380000D01*
X20480000Y-10340000D02*
X20440000Y-10380000D01*
X20455000Y-10780000D02*
X20495000Y-10820000D01*
X20495000Y-10780000D02*
X20455000Y-10820000D01*
X20460000Y-11110000D02*
X20500000Y-11150000D01*
X20500000Y-11110000D02*
X20460000Y-11150000D01*
X20468508Y-8751492D02*
X20508508Y-8791492D01*
X20508508Y-8751492D02*
X20468508Y-8791492D01*
X20480000Y-10585492D02*
X20520000Y-10625492D01*
X20520000Y-10585492D02*
X20480000Y-10625492D01*
X20480000Y-9255000D02*
X20520000Y-9295000D01*
X20520000Y-9255000D02*
X20480000Y-9295000D01*
X20481548Y-10086701D02*
X20521548Y-10126701D01*
X20521548Y-10086701D02*
X20481548Y-10126701D01*
X20522500Y-8045000D02*
X20562500Y-8085000D01*
X20562500Y-8045000D02*
X20522500Y-8085000D01*
X20550000Y-5880000D02*
X20590000Y-5920000D01*
X20590000Y-5880000D02*
X20550000Y-5920000D01*
X20555000Y-11630000D02*
X20595000Y-11670000D01*
X20595000Y-11630000D02*
X20555000Y-11670000D01*
X20640000Y-12907500D02*
X20680000Y-12947500D01*
X20680000Y-12907500D02*
X20640000Y-12947500D01*
X20670000Y-7760000D02*
X20710000Y-7800000D01*
X20710000Y-7760000D02*
X20670000Y-7800000D01*
X20705000Y-12055000D02*
X20745000Y-12095000D01*
X20745000Y-12055000D02*
X20705000Y-12095000D01*
X20720000Y-11350000D02*
X20760000Y-11390000D01*
X20760000Y-11350000D02*
X20720000Y-11390000D01*
X20780000Y-9955000D02*
X20820000Y-9995000D01*
X20820000Y-9955000D02*
X20780000Y-9995000D01*
X20787500Y-9735000D02*
X20827500Y-9775000D01*
X20827500Y-9735000D02*
X20787500Y-9775000D01*
X20810000Y-12980000D02*
X20850000Y-13020000D01*
X20850000Y-12980000D02*
X20810000Y-13020000D01*
X20822500Y-10375000D02*
X20862500Y-10415000D01*
X20862500Y-10375000D02*
X20822500Y-10415000D01*
X20860000Y-5880000D02*
X20900000Y-5920000D01*
X20900000Y-5880000D02*
X20860000Y-5920000D01*
X20880000Y-8130000D02*
X20920000Y-8170000D01*
X20920000Y-8130000D02*
X20880000Y-8170000D01*
X20880000Y-11580000D02*
X20920000Y-11620000D01*
X20920000Y-11580000D02*
X20880000Y-11620000D01*
X20905000Y-10205000D02*
X20945000Y-10245000D01*
X20945000Y-10205000D02*
X20905000Y-10245000D01*
X20930000Y-7505000D02*
X20970000Y-7545000D01*
X20970000Y-7505000D02*
X20930000Y-7545000D01*
X20930000Y-12980000D02*
X20970000Y-13020000D01*
X20970000Y-12980000D02*
X20930000Y-13020000D01*
X20955000Y-11955000D02*
X20995000Y-11995000D01*
X20995000Y-11955000D02*
X20955000Y-11995000D01*
X21005000Y-10755000D02*
X21045000Y-10795000D01*
X21045000Y-10755000D02*
X21005000Y-10795000D01*
X21005000Y-11135000D02*
X21045000Y-11175000D01*
X21045000Y-11135000D02*
X21005000Y-11175000D01*
X21005000Y-11305000D02*
X21045000Y-11345000D01*
X21045000Y-11305000D02*
X21005000Y-11345000D01*
X21030000Y-7905000D02*
X21070000Y-7945000D01*
X21070000Y-7905000D02*
X21030000Y-7945000D01*
X21030000Y-8305000D02*
X21070000Y-8345000D01*
X21070000Y-8305000D02*
X21030000Y-8345000D01*
X21035199Y-13070062D02*
X21075199Y-13110062D01*
X21075199Y-13070062D02*
X21035199Y-13110062D01*
X21063000Y-9266000D02*
X21103000Y-9306000D01*
X21103000Y-9266000D02*
X21063000Y-9306000D01*
X21090000Y-7432500D02*
X21130000Y-7472500D01*
X21130000Y-7432500D02*
X21090000Y-7472500D01*
X21108321Y-9360716D02*
X21148321Y-9400716D01*
X21148321Y-9360716D02*
X21108321Y-9400716D01*
X21130000Y-11805000D02*
X21170000Y-11845000D01*
X21170000Y-11805000D02*
X21130000Y-11845000D01*
X21140000Y-5880000D02*
X21180000Y-5920000D01*
X21180000Y-5880000D02*
X21140000Y-5920000D01*
X21140199Y-13069801D02*
X21180199Y-13109801D01*
X21180199Y-13069801D02*
X21140199Y-13109801D01*
X21157000Y-8507000D02*
X21197000Y-8547000D01*
X21197000Y-8507000D02*
X21157000Y-8547000D01*
X21180000Y-8130000D02*
X21220000Y-8170000D01*
X21220000Y-8130000D02*
X21180000Y-8170000D01*
X21180000Y-9440546D02*
X21220000Y-9480546D01*
X21220000Y-9440546D02*
X21180000Y-9480546D01*
X21205000Y-10205000D02*
X21245000Y-10245000D01*
X21245000Y-10205000D02*
X21205000Y-10245000D01*
X21230000Y-9305000D02*
X21270000Y-9345000D01*
X21270000Y-9305000D02*
X21230000Y-9345000D01*
X21247500Y-10772500D02*
X21287500Y-10812500D01*
X21287500Y-10772500D02*
X21247500Y-10812500D01*
X21255000Y-9518000D02*
X21295000Y-9558000D01*
X21295000Y-9518000D02*
X21255000Y-9558000D01*
X21275000Y-6490000D02*
X21315000Y-6530000D01*
X21315000Y-6490000D02*
X21275000Y-6530000D01*
X21305000Y-8505000D02*
X21345000Y-8545000D01*
X21345000Y-8505000D02*
X21305000Y-8545000D01*
X21323009Y-9605366D02*
X21363009Y-9645366D01*
X21363009Y-9605366D02*
X21323009Y-9645366D01*
X21330000Y-11605000D02*
X21370000Y-11645000D01*
X21370000Y-11605000D02*
X21330000Y-11645000D01*
X21355000Y-10905000D02*
X21395000Y-10945000D01*
X21395000Y-10905000D02*
X21355000Y-10945000D01*
X21365000Y-8910000D02*
X21405000Y-8950000D01*
X21405000Y-8910000D02*
X21365000Y-8950000D01*
X21400509Y-9686769D02*
X21440509Y-9726769D01*
X21440509Y-9686769D02*
X21400509Y-9726769D01*
X21430000Y-5880000D02*
X21470000Y-5920000D01*
X21470000Y-5880000D02*
X21430000Y-5920000D01*
X21430000Y-7505000D02*
X21470000Y-7545000D01*
X21470000Y-7505000D02*
X21430000Y-7545000D01*
X21430000Y-9530000D02*
X21470000Y-9570000D01*
X21470000Y-9530000D02*
X21430000Y-9570000D01*
X21430000Y-11105000D02*
X21470000Y-11145000D01*
X21470000Y-11105000D02*
X21430000Y-11145000D01*
X21430000Y-11305000D02*
X21470000Y-11345000D01*
X21470000Y-11305000D02*
X21430000Y-11345000D01*
X21430000Y-12680000D02*
X21470000Y-12720000D01*
X21470000Y-12680000D02*
X21430000Y-12720000D01*
X21497500Y-6705000D02*
X21537500Y-6745000D01*
X21537500Y-6705000D02*
X21497500Y-6745000D01*
X21530000Y-7905000D02*
X21570000Y-7945000D01*
X21570000Y-7905000D02*
X21530000Y-7945000D01*
X21532500Y-6512500D02*
X21572500Y-6552500D01*
X21572500Y-6512500D02*
X21532500Y-6552500D01*
X21555000Y-12555000D02*
X21595000Y-12595000D01*
X21595000Y-12555000D02*
X21555000Y-12595000D01*
X21574000Y-9817500D02*
X21614000Y-9857500D01*
X21614000Y-9817500D02*
X21574000Y-9857500D01*
X21590000Y-11200000D02*
X21630000Y-11240000D01*
X21630000Y-11200000D02*
X21590000Y-11240000D01*
X21655000Y-9730000D02*
X21695000Y-9770000D01*
X21695000Y-9730000D02*
X21655000Y-9770000D01*
X21655000Y-9905000D02*
X21695000Y-9945000D01*
X21695000Y-9905000D02*
X21655000Y-9945000D01*
X21730000Y-5880000D02*
X21770000Y-5920000D01*
X21770000Y-5880000D02*
X21730000Y-5920000D01*
X21730000Y-10455000D02*
X21770000Y-10495000D01*
X21770000Y-10455000D02*
X21730000Y-10495000D01*
X21735000Y-12780000D02*
X21775000Y-12820000D01*
X21775000Y-12780000D02*
X21735000Y-12820000D01*
X21780000Y-8160000D02*
X21820000Y-8200000D01*
X21820000Y-8160000D02*
X21780000Y-8200000D01*
X21780000Y-8580000D02*
X21820000Y-8620000D01*
X21820000Y-8580000D02*
X21780000Y-8620000D01*
X21830000Y-7505000D02*
X21870000Y-7545000D01*
X21870000Y-7505000D02*
X21830000Y-7545000D01*
X21835000Y-8902500D02*
X21875000Y-8942500D01*
X21875000Y-8902500D02*
X21835000Y-8942500D01*
X21890000Y-12710000D02*
X21930000Y-12750000D01*
X21930000Y-12710000D02*
X21890000Y-12750000D01*
X21905000Y-12205000D02*
X21945000Y-12245000D01*
X21945000Y-12205000D02*
X21905000Y-12245000D01*
X21935000Y-8015000D02*
X21975000Y-8055000D01*
X21975000Y-8015000D02*
X21935000Y-8055000D01*
X21955000Y-11130000D02*
X21995000Y-11170000D01*
X21995000Y-11130000D02*
X21955000Y-11170000D01*
X21977424Y-12114089D02*
X22017424Y-12154089D01*
X22017424Y-12114089D02*
X21977424Y-12154089D01*
X22000453Y-7430000D02*
X22040453Y-7470000D01*
X22040453Y-7430000D02*
X22000453Y-7470000D01*
X22020000Y-11240000D02*
X22060000Y-11280000D01*
X22060000Y-11240000D02*
X22020000Y-11280000D01*
X22020000Y-11395000D02*
X22060000Y-11435000D01*
X22060000Y-11395000D02*
X22020000Y-11435000D01*
X22020000Y-11550000D02*
X22060000Y-11590000D01*
X22060000Y-11550000D02*
X22020000Y-11590000D01*
X22020000Y-11707500D02*
X22060000Y-11747500D01*
X22060000Y-11707500D02*
X22020000Y-11747500D01*
X22030000Y-5880000D02*
X22070000Y-5920000D01*
X22070000Y-5880000D02*
X22030000Y-5920000D01*
X22030000Y-10755000D02*
X22070000Y-10795000D01*
X22070000Y-10755000D02*
X22030000Y-10795000D01*
X22048056Y-12036397D02*
X22088056Y-12076397D01*
X22088056Y-12036397D02*
X22048056Y-12076397D01*
X22120000Y-11472500D02*
X22160000Y-11512500D01*
X22160000Y-11472500D02*
X22120000Y-11512500D01*
X22120000Y-11627500D02*
X22160000Y-11667500D01*
X22160000Y-11627500D02*
X22120000Y-11667500D01*
X22122839Y-11312597D02*
X22162839Y-11352597D01*
X22162839Y-11312597D02*
X22122839Y-11352597D01*
X22140387Y-11986397D02*
X22180387Y-12026397D01*
X22180387Y-11986397D02*
X22140387Y-12026397D01*
X22155000Y-12455000D02*
X22195000Y-12495000D01*
X22195000Y-12455000D02*
X22155000Y-12495000D01*
X22155000Y-12780000D02*
X22195000Y-12820000D01*
X22195000Y-12780000D02*
X22155000Y-12820000D01*
X22168669Y-11885277D02*
X22208669Y-11925277D01*
X22208669Y-11885277D02*
X22168669Y-11925277D01*
X22180000Y-8160000D02*
X22220000Y-8200000D01*
X22220000Y-8160000D02*
X22180000Y-8200000D01*
X22180000Y-8580000D02*
X22220000Y-8620000D01*
X22220000Y-8580000D02*
X22180000Y-8620000D01*
X22180000Y-8980000D02*
X22220000Y-9020000D01*
X22220000Y-8980000D02*
X22180000Y-9020000D01*
X22182000Y-7756000D02*
X22222000Y-7796000D01*
X22222000Y-7756000D02*
X22182000Y-7796000D01*
X22280000Y-10955000D02*
X22320000Y-10995000D01*
X22320000Y-10955000D02*
X22280000Y-10995000D01*
X22305000Y-7505000D02*
X22345000Y-7545000D01*
X22345000Y-7505000D02*
X22305000Y-7545000D01*
X22310000Y-13020000D02*
X22350000Y-13060000D01*
X22350000Y-13020000D02*
X22310000Y-13060000D01*
X22320000Y-5880000D02*
X22360000Y-5920000D01*
X22360000Y-5880000D02*
X22320000Y-5920000D01*
X22337669Y-11845000D02*
X22377669Y-11885000D01*
X22377669Y-11845000D02*
X22337669Y-11885000D01*
X22355000Y-10205000D02*
X22395000Y-10245000D01*
X22395000Y-10205000D02*
X22355000Y-10245000D01*
X22391933Y-11581933D02*
X22431933Y-11621933D01*
X22431933Y-11581933D02*
X22391933Y-11621933D01*
X22430000Y-11795000D02*
X22470000Y-11835000D01*
X22470000Y-11795000D02*
X22430000Y-11835000D01*
X22430000Y-12455000D02*
X22470000Y-12495000D01*
X22470000Y-12455000D02*
X22430000Y-12495000D01*
X22430000Y-12780000D02*
X22470000Y-12820000D01*
X22470000Y-12780000D02*
X22430000Y-12820000D01*
X22480000Y-9380000D02*
X22520000Y-9420000D01*
X22520000Y-9380000D02*
X22480000Y-9420000D01*
X22480000Y-10005000D02*
X22520000Y-10045000D01*
X22520000Y-10005000D02*
X22480000Y-10045000D01*
X22485000Y-9787500D02*
X22525000Y-9827500D01*
X22525000Y-9787500D02*
X22485000Y-9827500D01*
X22492631Y-11552186D02*
X22532631Y-11592186D01*
X22532631Y-11552186D02*
X22492631Y-11592186D01*
X22530000Y-11705000D02*
X22570000Y-11745000D01*
X22570000Y-11705000D02*
X22530000Y-11745000D01*
X22530000Y-12360000D02*
X22570000Y-12400000D01*
X22570000Y-12360000D02*
X22530000Y-12400000D01*
X22530000Y-12680000D02*
X22570000Y-12720000D01*
X22570000Y-12680000D02*
X22530000Y-12720000D01*
X22555000Y-10355000D02*
X22595000Y-10395000D01*
X22595000Y-10355000D02*
X22555000Y-10395000D01*
X22580000Y-7625000D02*
X22620000Y-7665000D01*
X22620000Y-7625000D02*
X22580000Y-7665000D01*
X22580000Y-8160000D02*
X22620000Y-8200000D01*
X22620000Y-8160000D02*
X22580000Y-8200000D01*
X22580000Y-8580000D02*
X22620000Y-8620000D01*
X22620000Y-8580000D02*
X22580000Y-8620000D01*
X22580000Y-8980000D02*
X22620000Y-9020000D01*
X22620000Y-8980000D02*
X22580000Y-9020000D01*
X22600000Y-5880000D02*
X22640000Y-5920000D01*
X22640000Y-5880000D02*
X22600000Y-5920000D01*
X22607500Y-12589963D02*
X22647500Y-12629963D01*
X22647500Y-12589963D02*
X22607500Y-12629963D01*
X22640000Y-12150000D02*
X22680000Y-12190000D01*
X22680000Y-12150000D02*
X22640000Y-12190000D01*
X22680000Y-10170000D02*
X22720000Y-10210000D01*
X22720000Y-10170000D02*
X22680000Y-10210000D01*
X22680446Y-11697255D02*
X22720446Y-11737255D01*
X22720446Y-11697255D02*
X22680446Y-11737255D01*
X22710000Y-12240000D02*
X22750000Y-12280000D01*
X22750000Y-12240000D02*
X22710000Y-12280000D01*
X22755000Y-12480000D02*
X22795000Y-12520000D01*
X22795000Y-12480000D02*
X22755000Y-12520000D01*
X22780000Y-11480000D02*
X22820000Y-11520000D01*
X22820000Y-11480000D02*
X22780000Y-11520000D01*
X22780000Y-11630000D02*
X22820000Y-11670000D01*
X22820000Y-11630000D02*
X22780000Y-11670000D01*
X22830000Y-12830000D02*
X22870000Y-12870000D01*
X22870000Y-12830000D02*
X22830000Y-12870000D01*
X22831655Y-12662413D02*
X22871655Y-12702413D01*
X22871655Y-12662413D02*
X22831655Y-12702413D01*
X22910000Y-5880000D02*
X22950000Y-5920000D01*
X22950000Y-5880000D02*
X22910000Y-5920000D01*
X22937500Y-12659398D02*
X22977500Y-12699398D01*
X22977500Y-12659398D02*
X22937500Y-12699398D01*
X22980000Y-7625000D02*
X23020000Y-7665000D01*
X23020000Y-7625000D02*
X22980000Y-7665000D01*
X22980000Y-8160000D02*
X23020000Y-8200000D01*
X23020000Y-8160000D02*
X22980000Y-8200000D01*
X22980000Y-8580000D02*
X23020000Y-8620000D01*
X23020000Y-8580000D02*
X22980000Y-8620000D01*
X22980000Y-8980000D02*
X23020000Y-9020000D01*
X23020000Y-8980000D02*
X22980000Y-9020000D01*
X22980000Y-9380000D02*
X23020000Y-9420000D01*
X23020000Y-9380000D02*
X22980000Y-9420000D01*
X22980000Y-9780000D02*
X23020000Y-9820000D01*
X23020000Y-9780000D02*
X22980000Y-9820000D01*
X22980000Y-10005000D02*
X23020000Y-10045000D01*
X23020000Y-10005000D02*
X22980000Y-10045000D01*
X23042104Y-12650284D02*
X23082104Y-12690284D01*
X23082104Y-12650284D02*
X23042104Y-12690284D01*
X23060000Y-6860000D02*
X23100000Y-6900000D01*
X23100000Y-6860000D02*
X23060000Y-6900000D01*
X23082500Y-13027500D02*
X23122500Y-13067500D01*
X23122500Y-13027500D02*
X23082500Y-13067500D01*
X23086000Y-7420000D02*
X23126000Y-7460000D01*
X23126000Y-7420000D02*
X23086000Y-7460000D01*
X23105000Y-9912051D02*
X23145000Y-9952051D01*
X23145000Y-9912051D02*
X23105000Y-9952051D01*
X23155000Y-11080000D02*
X23195000Y-11120000D01*
X23195000Y-11080000D02*
X23155000Y-11120000D01*
X23159957Y-12660043D02*
X23199957Y-12700043D01*
X23199957Y-12660043D02*
X23159957Y-12700043D01*
X23190000Y-5880000D02*
X23230000Y-5920000D01*
X23230000Y-5880000D02*
X23190000Y-5920000D01*
X23190000Y-7625000D02*
X23230000Y-7665000D01*
X23230000Y-7625000D02*
X23190000Y-7665000D01*
X23190000Y-8160000D02*
X23230000Y-8200000D01*
X23230000Y-8160000D02*
X23190000Y-8200000D01*
X23190000Y-8580000D02*
X23230000Y-8620000D01*
X23230000Y-8580000D02*
X23190000Y-8620000D01*
X23190000Y-8980000D02*
X23230000Y-9020000D01*
X23230000Y-8980000D02*
X23190000Y-9020000D01*
X23190000Y-9380000D02*
X23230000Y-9420000D01*
X23230000Y-9380000D02*
X23190000Y-9420000D01*
X23270511Y-12659489D02*
X23310511Y-12699489D01*
X23310511Y-12659489D02*
X23270511Y-12699489D01*
X23280000Y-10955000D02*
X23320000Y-10995000D01*
X23320000Y-10955000D02*
X23280000Y-10995000D01*
X23295000Y-7202500D02*
X23335000Y-7242500D01*
X23335000Y-7202500D02*
X23295000Y-7242500D01*
X23305000Y-9655000D02*
X23345000Y-9695000D01*
X23345000Y-9655000D02*
X23305000Y-9695000D01*
X23372958Y-12682506D02*
X23412958Y-12722506D01*
X23412958Y-12682506D02*
X23372958Y-12722506D01*
X23380000Y-7625000D02*
X23420000Y-7665000D01*
X23420000Y-7625000D02*
X23380000Y-7665000D01*
X23380000Y-8160000D02*
X23420000Y-8200000D01*
X23420000Y-8160000D02*
X23380000Y-8200000D01*
X23380000Y-8580000D02*
X23420000Y-8620000D01*
X23420000Y-8580000D02*
X23380000Y-8620000D01*
X23380000Y-8980000D02*
X23420000Y-9020000D01*
X23420000Y-8980000D02*
X23380000Y-9020000D01*
X23380000Y-9380000D02*
X23420000Y-9420000D01*
X23420000Y-9380000D02*
X23380000Y-9420000D01*
X23380000Y-9780000D02*
X23420000Y-9820000D01*
X23420000Y-9780000D02*
X23380000Y-9820000D01*
X23380000Y-10005000D02*
X23420000Y-10045000D01*
X23420000Y-10005000D02*
X23380000Y-10045000D01*
X23380000Y-10205000D02*
X23420000Y-10245000D01*
X23420000Y-10205000D02*
X23380000Y-10245000D01*
X23477673Y-12674778D02*
X23517673Y-12714778D01*
X23517673Y-12674778D02*
X23477673Y-12714778D01*
X23480000Y-5880000D02*
X23520000Y-5920000D01*
X23520000Y-5880000D02*
X23480000Y-5920000D01*
X23555173Y-12750000D02*
X23595173Y-12790000D01*
X23595173Y-12750000D02*
X23555173Y-12790000D01*
X23620000Y-12260000D02*
X23660000Y-12300000D01*
X23660000Y-12260000D02*
X23620000Y-12300000D01*
X23630000Y-11630000D02*
X23670000Y-11670000D01*
X23670000Y-11630000D02*
X23630000Y-11670000D01*
X23660000Y-12650000D02*
X23700000Y-12690000D01*
X23700000Y-12650000D02*
X23660000Y-12690000D01*
X23690000Y-11260000D02*
X23730000Y-11300000D01*
X23730000Y-11260000D02*
X23690000Y-11300000D01*
X23780000Y-5880000D02*
X23820000Y-5920000D01*
X23820000Y-5880000D02*
X23780000Y-5920000D01*
X23780000Y-7620000D02*
X23820000Y-7660000D01*
X23820000Y-7620000D02*
X23780000Y-7660000D01*
X23780000Y-8155000D02*
X23820000Y-8195000D01*
X23820000Y-8155000D02*
X23780000Y-8195000D01*
X23780000Y-8580000D02*
X23820000Y-8620000D01*
X23820000Y-8580000D02*
X23780000Y-8620000D01*
X23780000Y-8980000D02*
X23820000Y-9020000D01*
X23820000Y-8980000D02*
X23780000Y-9020000D01*
X23780000Y-9380000D02*
X23820000Y-9420000D01*
X23820000Y-9380000D02*
X23780000Y-9420000D01*
X23780000Y-9780000D02*
X23820000Y-9820000D01*
X23820000Y-9780000D02*
X23780000Y-9820000D01*
X23780000Y-10005000D02*
X23820000Y-10045000D01*
X23820000Y-10005000D02*
X23780000Y-10045000D01*
X23780000Y-10205000D02*
X23820000Y-10245000D01*
X23820000Y-10205000D02*
X23780000Y-10245000D01*
X23830000Y-11250000D02*
X23870000Y-11290000D01*
X23870000Y-11250000D02*
X23830000Y-11290000D01*
X23840000Y-11625000D02*
X23880000Y-11665000D01*
X23880000Y-11625000D02*
X23840000Y-11665000D01*
X23855000Y-12455000D02*
X23895000Y-12495000D01*
X23895000Y-12455000D02*
X23855000Y-12495000D01*
X23865000Y-12270000D02*
X23905000Y-12310000D01*
X23905000Y-12270000D02*
X23865000Y-12310000D01*
X23910000Y-11342500D02*
X23950000Y-11382500D01*
X23950000Y-11342500D02*
X23910000Y-11382500D01*
X24060000Y-11187500D02*
X24100000Y-11227500D01*
X24100000Y-11187500D02*
X24060000Y-11227500D01*
X24070000Y-5880000D02*
X24110000Y-5920000D01*
X24110000Y-5880000D02*
X24070000Y-5920000D01*
X24090000Y-11620000D02*
X24130000Y-11660000D01*
X24130000Y-11620000D02*
X24090000Y-11660000D01*
X24105000Y-12455000D02*
X24145000Y-12495000D01*
X24145000Y-12455000D02*
X24105000Y-12495000D01*
X24120000Y-12270000D02*
X24160000Y-12310000D01*
X24160000Y-12270000D02*
X24120000Y-12310000D01*
X24150000Y-10960000D02*
X24190000Y-11000000D01*
X24190000Y-10960000D02*
X24150000Y-11000000D01*
X24180000Y-7620000D02*
X24220000Y-7660000D01*
X24220000Y-7620000D02*
X24180000Y-7660000D01*
X24180000Y-8155000D02*
X24220000Y-8195000D01*
X24220000Y-8155000D02*
X24180000Y-8195000D01*
X24180000Y-8580000D02*
X24220000Y-8620000D01*
X24220000Y-8580000D02*
X24180000Y-8620000D01*
X24180000Y-8980000D02*
X24220000Y-9020000D01*
X24220000Y-8980000D02*
X24180000Y-9020000D01*
X24180000Y-9380000D02*
X24220000Y-9420000D01*
X24220000Y-9380000D02*
X24180000Y-9420000D01*
X24180000Y-9780000D02*
X24220000Y-9820000D01*
X24220000Y-9780000D02*
X24180000Y-9820000D01*
X24180000Y-10005000D02*
X24220000Y-10045000D01*
X24220000Y-10005000D02*
X24180000Y-10045000D01*
X24180000Y-10205000D02*
X24220000Y-10245000D01*
X24220000Y-10205000D02*
X24180000Y-10245000D01*
X24190000Y-11390000D02*
X24230000Y-11430000D01*
X24230000Y-11390000D02*
X24190000Y-11430000D01*
X24280000Y-11137500D02*
X24320000Y-11177500D01*
X24320000Y-11137500D02*
X24280000Y-11177500D01*
X24280000Y-12730000D02*
X24320000Y-12770000D01*
X24320000Y-12730000D02*
X24280000Y-12770000D01*
X24330000Y-11615000D02*
X24370000Y-11655000D01*
X24370000Y-11615000D02*
X24330000Y-11655000D01*
X24350000Y-5880000D02*
X24390000Y-5920000D01*
X24390000Y-5880000D02*
X24350000Y-5920000D01*
X24370000Y-12270000D02*
X24410000Y-12310000D01*
X24410000Y-12270000D02*
X24370000Y-12310000D01*
X24460000Y-11412500D02*
X24500000Y-11452500D01*
X24500000Y-11412500D02*
X24460000Y-11452500D01*
X24580000Y-7620000D02*
X24620000Y-7660000D01*
X24620000Y-7620000D02*
X24580000Y-7660000D01*
X24580000Y-8155000D02*
X24620000Y-8195000D01*
X24620000Y-8155000D02*
X24580000Y-8195000D01*
X24580000Y-8580000D02*
X24620000Y-8620000D01*
X24620000Y-8580000D02*
X24580000Y-8620000D01*
X24580000Y-8980000D02*
X24620000Y-9020000D01*
X24620000Y-8980000D02*
X24580000Y-9020000D01*
X24580000Y-9380000D02*
X24620000Y-9420000D01*
X24620000Y-9380000D02*
X24580000Y-9420000D01*
X24580000Y-9780000D02*
X24620000Y-9820000D01*
X24620000Y-9780000D02*
X24580000Y-9820000D01*
X24580000Y-10005000D02*
X24620000Y-10045000D01*
X24620000Y-10005000D02*
X24580000Y-10045000D01*
X24580000Y-10205000D02*
X24620000Y-10245000D01*
X24620000Y-10205000D02*
X24580000Y-10245000D01*
X24660000Y-5880000D02*
X24700000Y-5920000D01*
X24700000Y-5880000D02*
X24660000Y-5920000D01*
X24660000Y-11500000D02*
X24700000Y-11540000D01*
X24700000Y-11500000D02*
X24660000Y-11540000D01*
X24820000Y-12200000D02*
X24860000Y-12240000D01*
X24860000Y-12200000D02*
X24820000Y-12240000D01*
X24860000Y-10120000D02*
X24900000Y-10160000D01*
X24900000Y-10120000D02*
X24860000Y-10160000D01*
X24870000Y-12490000D02*
X24910000Y-12530000D01*
X24910000Y-12490000D02*
X24870000Y-12530000D01*
X24880000Y-12880000D02*
X24920000Y-12920000D01*
X24920000Y-12880000D02*
X24880000Y-12920000D01*
X24940000Y-5880000D02*
X24980000Y-5920000D01*
X24980000Y-5880000D02*
X24940000Y-5920000D01*
X24980000Y-7620000D02*
X25020000Y-7660000D01*
X25020000Y-7620000D02*
X24980000Y-7660000D01*
X24980000Y-8155000D02*
X25020000Y-8195000D01*
X25020000Y-8155000D02*
X24980000Y-8195000D01*
X24980000Y-8580000D02*
X25020000Y-8620000D01*
X25020000Y-8580000D02*
X24980000Y-8620000D01*
X24980000Y-8980000D02*
X25020000Y-9020000D01*
X25020000Y-8980000D02*
X24980000Y-9020000D01*
X24980000Y-9380000D02*
X25020000Y-9420000D01*
X25020000Y-9380000D02*
X24980000Y-9420000D01*
X24980000Y-9780000D02*
X25020000Y-9820000D01*
X25020000Y-9780000D02*
X24980000Y-9820000D01*
X24980000Y-10005000D02*
X25020000Y-10045000D01*
X25020000Y-10005000D02*
X24980000Y-10045000D01*
X24980000Y-10205000D02*
X25020000Y-10245000D01*
X25020000Y-10205000D02*
X24980000Y-10245000D01*
X24980000Y-11230000D02*
X25020000Y-11270000D01*
X25020000Y-11230000D02*
X24980000Y-11270000D01*
X24980000Y-11480000D02*
X25020000Y-11520000D01*
X25020000Y-11480000D02*
X24980000Y-11520000D01*
X25010000Y-12985000D02*
X25050000Y-13025000D01*
X25050000Y-12985000D02*
X25010000Y-13025000D01*
X25150000Y-12870000D02*
X25190000Y-12910000D01*
X25190000Y-12870000D02*
X25150000Y-12910000D01*
X25230000Y-5880000D02*
X25270000Y-5920000D01*
X25270000Y-5880000D02*
X25230000Y-5920000D01*
X25455000Y-12855000D02*
X25495000Y-12895000D01*
X25495000Y-12855000D02*
X25455000Y-12895000D01*
X25460000Y-13010000D02*
X25500000Y-13050000D01*
X25500000Y-13010000D02*
X25460000Y-13050000D01*
X25480000Y-9655000D02*
X25520000Y-9695000D01*
X25520000Y-9655000D02*
X25480000Y-9695000D01*
X25480000Y-11230000D02*
X25520000Y-11270000D01*
X25520000Y-11230000D02*
X25480000Y-11270000D01*
X25480000Y-11480000D02*
X25520000Y-11520000D01*
X25520000Y-11480000D02*
X25480000Y-11520000D01*
X25490000Y-7620000D02*
X25530000Y-7660000D01*
X25530000Y-7620000D02*
X25490000Y-7660000D01*
X25490000Y-8155000D02*
X25530000Y-8195000D01*
X25530000Y-8155000D02*
X25490000Y-8195000D01*
X25490000Y-8580000D02*
X25530000Y-8620000D01*
X25530000Y-8580000D02*
X25490000Y-8620000D01*
X25490000Y-8980000D02*
X25530000Y-9020000D01*
X25530000Y-8980000D02*
X25490000Y-9020000D01*
X25490000Y-9370000D02*
X25530000Y-9410000D01*
X25530000Y-9370000D02*
X25490000Y-9410000D01*
X25520000Y-9912051D02*
X25560000Y-9952051D01*
X25560000Y-9912051D02*
X25520000Y-9952051D01*
X25555000Y-5880000D02*
X25595000Y-5920000D01*
X25595000Y-5880000D02*
X25555000Y-5920000D01*
X25755000Y-12855000D02*
X25795000Y-12895000D01*
X25795000Y-12855000D02*
X25755000Y-12895000D01*
X25780000Y-8980000D02*
X25820000Y-9020000D01*
X25820000Y-8980000D02*
X25780000Y-9020000D01*
X25780000Y-9370000D02*
X25820000Y-9410000D01*
X25820000Y-9370000D02*
X25780000Y-9410000D01*
X25785000Y-7620000D02*
X25825000Y-7660000D01*
X25825000Y-7620000D02*
X25785000Y-7660000D01*
X25785000Y-8155000D02*
X25825000Y-8195000D01*
X25825000Y-8155000D02*
X25785000Y-8195000D01*
X25785000Y-8580000D02*
X25825000Y-8620000D01*
X25825000Y-8580000D02*
X25785000Y-8620000D01*
X25805000Y-10155000D02*
X25845000Y-10195000D01*
X25845000Y-10155000D02*
X25805000Y-10195000D01*
X25845000Y-5880000D02*
X25885000Y-5920000D01*
X25885000Y-5880000D02*
X25845000Y-5920000D01*
X25980000Y-11230000D02*
X26020000Y-11270000D01*
X26020000Y-11230000D02*
X25980000Y-11270000D01*
X25980000Y-11480000D02*
X26020000Y-11520000D01*
X26020000Y-11480000D02*
X25980000Y-11520000D01*
X26055000Y-12855000D02*
X26095000Y-12895000D01*
X26095000Y-12855000D02*
X26055000Y-12895000D01*
X26125000Y-5880000D02*
X26165000Y-5920000D01*
X26165000Y-5880000D02*
X26125000Y-5920000D01*
X26255000Y-7620000D02*
X26295000Y-7660000D01*
X26295000Y-7620000D02*
X26255000Y-7660000D01*
X26255000Y-8155000D02*
X26295000Y-8195000D01*
X26295000Y-8155000D02*
X26255000Y-8195000D01*
X26255000Y-8580000D02*
X26295000Y-8620000D01*
X26295000Y-8580000D02*
X26255000Y-8620000D01*
X26255000Y-8980000D02*
X26295000Y-9020000D01*
X26295000Y-8980000D02*
X26255000Y-9020000D01*
X26255000Y-9380000D02*
X26295000Y-9420000D01*
X26295000Y-9380000D02*
X26255000Y-9420000D01*
X26255000Y-9605000D02*
X26295000Y-9645000D01*
X26295000Y-9605000D02*
X26255000Y-9645000D01*
X26355000Y-12855000D02*
X26395000Y-12895000D01*
X26395000Y-12855000D02*
X26355000Y-12895000D01*
X26435000Y-5880000D02*
X26475000Y-5920000D01*
X26475000Y-5880000D02*
X26435000Y-5920000D01*
X26480000Y-11230000D02*
X26520000Y-11270000D01*
X26520000Y-11230000D02*
X26480000Y-11270000D01*
X26480000Y-11480000D02*
X26520000Y-11520000D01*
X26520000Y-11480000D02*
X26480000Y-11520000D01*
X26480000Y-11730000D02*
X26520000Y-11770000D01*
X26520000Y-11730000D02*
X26480000Y-11770000D01*
X26585000Y-10265000D02*
X26625000Y-10305000D01*
X26625000Y-10265000D02*
X26585000Y-10305000D01*
X26655000Y-12855000D02*
X26695000Y-12895000D01*
X26695000Y-12855000D02*
X26655000Y-12895000D01*
X26715000Y-5880000D02*
X26755000Y-5920000D01*
X26755000Y-5880000D02*
X26715000Y-5920000D01*
X26775000Y-9910000D02*
X26815000Y-9950000D01*
X26815000Y-9910000D02*
X26775000Y-9950000D01*
X26980000Y-11230000D02*
X27020000Y-11270000D01*
X27020000Y-11230000D02*
X26980000Y-11270000D01*
X26980000Y-11480000D02*
X27020000Y-11520000D01*
X27020000Y-11480000D02*
X26980000Y-11520000D01*
X26980000Y-11730000D02*
X27020000Y-11770000D01*
X27020000Y-11730000D02*
X26980000Y-11770000D01*
X26980000Y-11980000D02*
X27020000Y-12020000D01*
X27020000Y-11980000D02*
X26980000Y-12020000D01*
X26980000Y-12855000D02*
X27020000Y-12895000D01*
X27020000Y-12855000D02*
X26980000Y-12895000D01*
X27005000Y-5880000D02*
X27045000Y-5920000D01*
X27045000Y-5880000D02*
X27005000Y-5920000D01*
X27042500Y-9607500D02*
X27082500Y-9647500D01*
X27082500Y-9607500D02*
X27042500Y-9647500D01*
X27085000Y-11480000D02*
X27125000Y-11520000D01*
X27125000Y-11480000D02*
X27085000Y-11520000D01*
X27100000Y-12570000D02*
X27140000Y-12610000D01*
X27140000Y-12570000D02*
X27100000Y-12610000D01*
X27255000Y-5880000D02*
X27295000Y-5920000D01*
X27295000Y-5880000D02*
X27255000Y-5920000D01*
X27330000Y-12855000D02*
X27370000Y-12895000D01*
X27370000Y-12855000D02*
X27330000Y-12895000D01*
X27430000Y-6160000D02*
X27470000Y-6200000D01*
X27470000Y-6160000D02*
X27430000Y-6200000D01*
X27430000Y-6460000D02*
X27470000Y-6500000D01*
X27470000Y-6460000D02*
X27430000Y-6500000D01*
X27430000Y-6750000D02*
X27470000Y-6790000D01*
X27470000Y-6750000D02*
X27430000Y-6790000D01*
X27430000Y-7030000D02*
X27470000Y-7070000D01*
X27470000Y-7030000D02*
X27430000Y-7070000D01*
X27430000Y-7330000D02*
X27470000Y-7370000D01*
X27470000Y-7330000D02*
X27430000Y-7370000D01*
X27430000Y-7630000D02*
X27470000Y-7670000D01*
X27470000Y-7630000D02*
X27430000Y-7670000D01*
X27430000Y-7920000D02*
X27470000Y-7960000D01*
X27470000Y-7920000D02*
X27430000Y-7960000D01*
X27430000Y-8200000D02*
X27470000Y-8240000D01*
X27470000Y-8200000D02*
X27430000Y-8240000D01*
X27430000Y-8510000D02*
X27470000Y-8550000D01*
X27470000Y-8510000D02*
X27430000Y-8550000D01*
X27430000Y-8790000D02*
X27470000Y-8830000D01*
X27470000Y-8790000D02*
X27430000Y-8830000D01*
X27430000Y-9080000D02*
X27470000Y-9120000D01*
X27470000Y-9080000D02*
X27430000Y-9120000D01*
X27430000Y-9380000D02*
X27470000Y-9420000D01*
X27470000Y-9380000D02*
X27430000Y-9420000D01*
X27430000Y-9670000D02*
X27470000Y-9710000D01*
X27470000Y-9670000D02*
X27430000Y-9710000D01*
X27430000Y-9950000D02*
X27470000Y-9990000D01*
X27470000Y-9950000D02*
X27430000Y-9990000D01*
X27430000Y-10260000D02*
X27470000Y-10300000D01*
X27470000Y-10260000D02*
X27430000Y-10300000D01*
X27430000Y-10540000D02*
X27470000Y-10580000D01*
X27470000Y-10540000D02*
X27430000Y-10580000D01*
X27430000Y-10830000D02*
X27470000Y-10870000D01*
X27470000Y-10830000D02*
X27430000Y-10870000D01*
X27430000Y-11155000D02*
X27470000Y-11195000D01*
X27470000Y-11155000D02*
X27430000Y-11195000D01*
X27430000Y-11445000D02*
X27470000Y-11485000D01*
X27470000Y-11445000D02*
X27430000Y-11485000D01*
X27430000Y-11725000D02*
X27470000Y-11765000D01*
X27470000Y-11725000D02*
X27430000Y-11765000D01*
X27430000Y-12035000D02*
X27470000Y-12075000D01*
X27470000Y-12035000D02*
X27430000Y-12075000D01*
X27430000Y-12315000D02*
X27470000Y-12355000D01*
X27470000Y-12315000D02*
X27430000Y-12355000D01*
X27430000Y-12605000D02*
X27470000Y-12645000D01*
X27470000Y-12605000D02*
X27430000Y-12645000D01*
X23798000Y-10850000D02*
G75*
G02*
X23718000Y-10850000I-40000J0D01*
G01*
X23718000Y-10850000D02*
G75*
G02*
X23798000Y-10850000I40000J0D01*
G01*
X23798000Y-12374000D02*
G75*
G02*
X23718000Y-12374000I-40000J0D01*
G01*
X23718000Y-12374000D02*
G75*
G02*
X23798000Y-12374000I40000J0D01*
G01*
X24052000Y-10850000D02*
G75*
G02*
X23972000Y-10850000I-40000J0D01*
G01*
X23972000Y-10850000D02*
G75*
G02*
X24052000Y-10850000I40000J0D01*
G01*
X24052000Y-12374000D02*
G75*
G02*
X23972000Y-12374000I-40000J0D01*
G01*
X23972000Y-12374000D02*
G75*
G02*
X24052000Y-12374000I40000J0D01*
G01*
X24306000Y-10850000D02*
G75*
G02*
X24226000Y-10850000I-40000J0D01*
G01*
X24226000Y-10850000D02*
G75*
G02*
X24306000Y-10850000I40000J0D01*
G01*
X24306000Y-12374000D02*
G75*
G02*
X24226000Y-12374000I-40000J0D01*
G01*
X24226000Y-12374000D02*
G75*
G02*
X24306000Y-12374000I40000J0D01*
G01*
X24560000Y-10850000D02*
G75*
G02*
X24480000Y-10850000I-40000J0D01*
G01*
X24480000Y-10850000D02*
G75*
G02*
X24560000Y-10850000I40000J0D01*
G01*
X24560000Y-12374000D02*
G75*
G02*
X24480000Y-12374000I-40000J0D01*
G01*
X24480000Y-12374000D02*
G75*
G02*
X24560000Y-12374000I40000J0D01*
G01*
X24814000Y-10850000D02*
G75*
G02*
X24734000Y-10850000I-40000J0D01*
G01*
X24734000Y-10850000D02*
G75*
G02*
X24814000Y-10850000I40000J0D01*
G01*
X24814000Y-12374000D02*
G75*
G02*
X24734000Y-12374000I-40000J0D01*
G01*
X24734000Y-12374000D02*
G75*
G02*
X24814000Y-12374000I40000J0D01*
G01*
X25068000Y-10850000D02*
G75*
G02*
X24988000Y-10850000I-40000J0D01*
G01*
X24988000Y-10850000D02*
G75*
G02*
X25068000Y-10850000I40000J0D01*
G01*
X25068000Y-12374000D02*
G75*
G02*
X24988000Y-12374000I-40000J0D01*
G01*
X24988000Y-12374000D02*
G75*
G02*
X25068000Y-12374000I40000J0D01*
G01*
X25322000Y-10850000D02*
G75*
G02*
X25242000Y-10850000I-40000J0D01*
G01*
X25242000Y-10850000D02*
G75*
G02*
X25322000Y-10850000I40000J0D01*
G01*
X25322000Y-12374000D02*
G75*
G02*
X25242000Y-12374000I-40000J0D01*
G01*
X25242000Y-12374000D02*
G75*
G02*
X25322000Y-12374000I40000J0D01*
G01*
X25576000Y-10850000D02*
G75*
G02*
X25496000Y-10850000I-40000J0D01*
G01*
X25496000Y-10850000D02*
G75*
G02*
X25576000Y-10850000I40000J0D01*
G01*
X25576000Y-12374000D02*
G75*
G02*
X25496000Y-12374000I-40000J0D01*
G01*
X25496000Y-12374000D02*
G75*
G02*
X25576000Y-12374000I40000J0D01*
G01*
X25830000Y-10850000D02*
G75*
G02*
X25750000Y-10850000I-40000J0D01*
G01*
X25750000Y-10850000D02*
G75*
G02*
X25830000Y-10850000I40000J0D01*
G01*
X25830000Y-12374000D02*
G75*
G02*
X25750000Y-12374000I-40000J0D01*
G01*
X25750000Y-12374000D02*
G75*
G02*
X25830000Y-12374000I40000J0D01*
G01*
X26084000Y-10850000D02*
G75*
G02*
X26004000Y-10850000I-40000J0D01*
G01*
X26004000Y-10850000D02*
G75*
G02*
X26084000Y-10850000I40000J0D01*
G01*
X26084000Y-12374000D02*
G75*
G02*
X26004000Y-12374000I-40000J0D01*
G01*
X26004000Y-12374000D02*
G75*
G02*
X26084000Y-12374000I40000J0D01*
G01*
X26338000Y-10850000D02*
G75*
G02*
X26258000Y-10850000I-40000J0D01*
G01*
X26258000Y-10850000D02*
G75*
G02*
X26338000Y-10850000I40000J0D01*
G01*
X26338000Y-12374000D02*
G75*
G02*
X26258000Y-12374000I-40000J0D01*
G01*
X26258000Y-12374000D02*
G75*
G02*
X26338000Y-12374000I40000J0D01*
G01*
X26592000Y-10850000D02*
G75*
G02*
X26512000Y-10850000I-40000J0D01*
G01*
X26512000Y-10850000D02*
G75*
G02*
X26592000Y-10850000I40000J0D01*
G01*
X26592000Y-12374000D02*
G75*
G02*
X26512000Y-12374000I-40000J0D01*
G01*
X26512000Y-12374000D02*
G75*
G02*
X26592000Y-12374000I40000J0D01*
G01*
X26846000Y-10850000D02*
G75*
G02*
X26766000Y-10850000I-40000J0D01*
G01*
X26766000Y-10850000D02*
G75*
G02*
X26846000Y-10850000I40000J0D01*
G01*
X26846000Y-12374000D02*
G75*
G02*
X26766000Y-12374000I-40000J0D01*
G01*
X26766000Y-12374000D02*
G75*
G02*
X26846000Y-12374000I40000J0D01*
G01*
X27100000Y-10850000D02*
G75*
G02*
X27020000Y-10850000I-40000J0D01*
G01*
X27020000Y-10850000D02*
G75*
G02*
X27100000Y-10850000I40000J0D01*
G01*
X27100000Y-12374000D02*
G75*
G02*
X27020000Y-12374000I-40000J0D01*
G01*
X27020000Y-12374000D02*
G75*
G02*
X27100000Y-12374000I40000J0D01*
G01*
X20877000Y-6080000D02*
X20877000Y-6180000D01*
X20827000Y-6130000D02*
X20927000Y-6130000D01*
X20877000Y-6334000D02*
X20877000Y-6434000D01*
X20827000Y-6384000D02*
X20927000Y-6384000D01*
X21131000Y-6080000D02*
X21131000Y-6180000D01*
X21081000Y-6130000D02*
X21181000Y-6130000D01*
X21131000Y-6334000D02*
X21131000Y-6434000D01*
X21081000Y-6384000D02*
X21181000Y-6384000D01*
X21385000Y-6080000D02*
X21385000Y-6180000D01*
X21335000Y-6130000D02*
X21435000Y-6130000D01*
X21385000Y-6334000D02*
X21385000Y-6434000D01*
X21335000Y-6384000D02*
X21435000Y-6384000D01*
X21639000Y-6080000D02*
X21639000Y-6180000D01*
X21589000Y-6130000D02*
X21689000Y-6130000D01*
X21639000Y-6334000D02*
X21639000Y-6434000D01*
X21589000Y-6384000D02*
X21689000Y-6384000D01*
X21893000Y-6080000D02*
X21893000Y-6180000D01*
X21843000Y-6130000D02*
X21943000Y-6130000D01*
X21893000Y-6334000D02*
X21893000Y-6434000D01*
X21843000Y-6384000D02*
X21943000Y-6384000D01*
X22147000Y-6080000D02*
X22147000Y-6180000D01*
X22097000Y-6130000D02*
X22197000Y-6130000D01*
X22147000Y-6334000D02*
X22147000Y-6434000D01*
X22097000Y-6384000D02*
X22197000Y-6384000D01*
X22401000Y-6080000D02*
X22401000Y-6180000D01*
X22351000Y-6130000D02*
X22451000Y-6130000D01*
X22401000Y-6334000D02*
X22401000Y-6434000D01*
X22351000Y-6384000D02*
X22451000Y-6384000D01*
X22655000Y-6080000D02*
X22655000Y-6180000D01*
X22605000Y-6130000D02*
X22705000Y-6130000D01*
X22655000Y-6334000D02*
X22655000Y-6434000D01*
X22605000Y-6384000D02*
X22705000Y-6384000D01*
X22909000Y-6080000D02*
X22909000Y-6180000D01*
X22859000Y-6130000D02*
X22959000Y-6130000D01*
X22909000Y-6334000D02*
X22909000Y-6434000D01*
X22859000Y-6384000D02*
X22959000Y-6384000D01*
X23163000Y-6080000D02*
X23163000Y-6180000D01*
X23113000Y-6130000D02*
X23213000Y-6130000D01*
X23163000Y-6334000D02*
X23163000Y-6434000D01*
X23113000Y-6384000D02*
X23213000Y-6384000D01*
X23417000Y-6080000D02*
X23417000Y-6180000D01*
X23367000Y-6130000D02*
X23467000Y-6130000D01*
X23417000Y-6334000D02*
X23417000Y-6434000D01*
X23367000Y-6384000D02*
X23467000Y-6384000D01*
X23671000Y-6080000D02*
X23671000Y-6180000D01*
X23621000Y-6130000D02*
X23721000Y-6130000D01*
X23671000Y-6334000D02*
X23671000Y-6434000D01*
X23621000Y-6384000D02*
X23721000Y-6384000D01*
X23846000Y-12705000D02*
X23846000Y-12805000D01*
X23796000Y-12755000D02*
X23896000Y-12755000D01*
X23925000Y-6080000D02*
X23925000Y-6180000D01*
X23875000Y-6130000D02*
X23975000Y-6130000D01*
X23925000Y-6334000D02*
X23925000Y-6434000D01*
X23875000Y-6384000D02*
X23975000Y-6384000D01*
X24100000Y-12705000D02*
X24100000Y-12805000D01*
X24050000Y-12755000D02*
X24150000Y-12755000D01*
X24488500Y-12705000D02*
X24488500Y-12805000D01*
X24438500Y-12755000D02*
X24538500Y-12755000D01*
X24742500Y-12705000D02*
X24742500Y-12805000D01*
X24692500Y-12755000D02*
X24792500Y-12755000D01*
D13*
X26732452Y-8627452D02*
X26732452Y-8547548D01*
X26652548Y-8547548D01*
X26652548Y-8627452D01*
X26732452Y-8627452D01*
X26732452Y-8856452D02*
X26732452Y-8776548D01*
X26652548Y-8776548D01*
X26652548Y-8856452D01*
X26732452Y-8856452D01*
X26732452Y-9085452D02*
X26732452Y-9005548D01*
X26652548Y-9005548D01*
X26652548Y-9085452D01*
X26732452Y-9085452D01*
X26732452Y-9314452D02*
X26732452Y-9234548D01*
X26652548Y-9234548D01*
X26652548Y-9314452D01*
X26732452Y-9314452D01*
X26732452Y-9543452D02*
X26732452Y-9463548D01*
X26652548Y-9463548D01*
X26652548Y-9543452D01*
X26732452Y-9543452D01*
X26982452Y-8512952D02*
X26982452Y-8433048D01*
X26902548Y-8433048D01*
X26902548Y-8512952D01*
X26982452Y-8512952D01*
X26982452Y-8741952D02*
X26982452Y-8662048D01*
X26902548Y-8662048D01*
X26902548Y-8741952D01*
X26982452Y-8741952D01*
X26982452Y-8970952D02*
X26982452Y-8891048D01*
X26902548Y-8891048D01*
X26902548Y-8970952D01*
X26982452Y-8970952D01*
X26982452Y-9199952D02*
X26982452Y-9120048D01*
X26902548Y-9120048D01*
X26902548Y-9199952D01*
X26982452Y-9199952D01*
X26982452Y-9428952D02*
X26982452Y-9349048D01*
X26902548Y-9349048D01*
X26902548Y-9428952D01*
X26982452Y-9428952D01*
X27232452Y-8627452D02*
X27232452Y-8547548D01*
X27152548Y-8547548D01*
X27152548Y-8627452D01*
X27232452Y-8627452D01*
X27232452Y-8856452D02*
X27232452Y-8776548D01*
X27152548Y-8776548D01*
X27152548Y-8856452D01*
X27232452Y-8856452D01*
X27232452Y-9085452D02*
X27232452Y-9005548D01*
X27152548Y-9005548D01*
X27152548Y-9085452D01*
X27232452Y-9085452D01*
X27232452Y-9314452D02*
X27232452Y-9234548D01*
X27152548Y-9234548D01*
X27152548Y-9314452D01*
X27232452Y-9314452D01*
X27232452Y-9543452D02*
X27232452Y-9463548D01*
X27152548Y-9463548D01*
X27152548Y-9543452D01*
X27232452Y-9543452D01*
D14*
X26942500Y-7935000D02*
X27104000Y-7773500D01*
X26942500Y-7612000D01*
X26781000Y-7773500D01*
X26942500Y-7935000D01*
X26942500Y-10434000D02*
X27104000Y-10272500D01*
X26942500Y-10111000D01*
X26781000Y-10272500D01*
X26942500Y-10434000D01*
D11*
X12436277Y-14353984D02*
X12436277Y-14153984D01*
X12436277Y-14153984D02*
X12483896Y-14153984D01*
X12483896Y-14153984D02*
X12512467Y-14163508D01*
X12512467Y-14163508D02*
X12531515Y-14182555D01*
X12531515Y-14182555D02*
X12541039Y-14201603D01*
X12541039Y-14201603D02*
X12550562Y-14239698D01*
X12550562Y-14239698D02*
X12550562Y-14268269D01*
X12550562Y-14268269D02*
X12541039Y-14306365D01*
X12541039Y-14306365D02*
X12531515Y-14325412D01*
X12531515Y-14325412D02*
X12512467Y-14344460D01*
X12512467Y-14344460D02*
X12483896Y-14353984D01*
X12483896Y-14353984D02*
X12436277Y-14353984D01*
X12636277Y-14353984D02*
X12636277Y-14220650D01*
X12636277Y-14258746D02*
X12645801Y-14239698D01*
X12645801Y-14239698D02*
X12655324Y-14230174D01*
X12655324Y-14230174D02*
X12674372Y-14220650D01*
X12674372Y-14220650D02*
X12693420Y-14220650D01*
X12760086Y-14353984D02*
X12760086Y-14220650D01*
X12760086Y-14153984D02*
X12750562Y-14163508D01*
X12750562Y-14163508D02*
X12760086Y-14173031D01*
X12760086Y-14173031D02*
X12769610Y-14163508D01*
X12769610Y-14163508D02*
X12760086Y-14153984D01*
X12760086Y-14153984D02*
X12760086Y-14173031D01*
X12883896Y-14353984D02*
X12864848Y-14344460D01*
X12864848Y-14344460D02*
X12855324Y-14325412D01*
X12855324Y-14325412D02*
X12855324Y-14153984D01*
X12988658Y-14353984D02*
X12969610Y-14344460D01*
X12969610Y-14344460D02*
X12960086Y-14325412D01*
X12960086Y-14325412D02*
X12960086Y-14153984D01*
X13217229Y-14353984D02*
X13217229Y-14153984D01*
X13217229Y-14153984D02*
X13283896Y-14296841D01*
X13283896Y-14296841D02*
X13350562Y-14153984D01*
X13350562Y-14153984D02*
X13350562Y-14353984D01*
X13531515Y-14353984D02*
X13531515Y-14249222D01*
X13531515Y-14249222D02*
X13521991Y-14230174D01*
X13521991Y-14230174D02*
X13502943Y-14220650D01*
X13502943Y-14220650D02*
X13464848Y-14220650D01*
X13464848Y-14220650D02*
X13445801Y-14230174D01*
X13531515Y-14344460D02*
X13512467Y-14353984D01*
X13512467Y-14353984D02*
X13464848Y-14353984D01*
X13464848Y-14353984D02*
X13445801Y-14344460D01*
X13445801Y-14344460D02*
X13436277Y-14325412D01*
X13436277Y-14325412D02*
X13436277Y-14306365D01*
X13436277Y-14306365D02*
X13445801Y-14287317D01*
X13445801Y-14287317D02*
X13464848Y-14277793D01*
X13464848Y-14277793D02*
X13512467Y-14277793D01*
X13512467Y-14277793D02*
X13531515Y-14268269D01*
X13626753Y-14220650D02*
X13626753Y-14420650D01*
X13626753Y-14230174D02*
X13645801Y-14220650D01*
X13645801Y-14220650D02*
X13683896Y-14220650D01*
X13683896Y-14220650D02*
X13702943Y-14230174D01*
X13702943Y-14230174D02*
X13712467Y-14239698D01*
X13712467Y-14239698D02*
X13721991Y-14258746D01*
X13721991Y-14258746D02*
X13721991Y-14315888D01*
X13721991Y-14315888D02*
X13712467Y-14334936D01*
X13712467Y-14334936D02*
X13702943Y-14344460D01*
X13702943Y-14344460D02*
X13683896Y-14353984D01*
X13683896Y-14353984D02*
X13645801Y-14353984D01*
X13645801Y-14353984D02*
X13626753Y-14344460D01*
X13807705Y-14334936D02*
X13817229Y-14344460D01*
X13817229Y-14344460D02*
X13807705Y-14353984D01*
X13807705Y-14353984D02*
X13798182Y-14344460D01*
X13798182Y-14344460D02*
X13807705Y-14334936D01*
X13807705Y-14334936D02*
X13807705Y-14353984D01*
X13807705Y-14230174D02*
X13817229Y-14239698D01*
X13817229Y-14239698D02*
X13807705Y-14249222D01*
X13807705Y-14249222D02*
X13798182Y-14239698D01*
X13798182Y-14239698D02*
X13807705Y-14230174D01*
X13807705Y-14230174D02*
X13807705Y-14249222D01*
D12*
X12135500Y-14662500D02*
X12175500Y-14702500D01*
X12175500Y-14662500D02*
X12135500Y-14702500D01*
D11*
X12474372Y-14573984D02*
X12493420Y-14573984D01*
X12493420Y-14573984D02*
X12512467Y-14583508D01*
X12512467Y-14583508D02*
X12521991Y-14593031D01*
X12521991Y-14593031D02*
X12531515Y-14612079D01*
X12531515Y-14612079D02*
X12541039Y-14650174D01*
X12541039Y-14650174D02*
X12541039Y-14697793D01*
X12541039Y-14697793D02*
X12531515Y-14735888D01*
X12531515Y-14735888D02*
X12521991Y-14754936D01*
X12521991Y-14754936D02*
X12512467Y-14764460D01*
X12512467Y-14764460D02*
X12493420Y-14773984D01*
X12493420Y-14773984D02*
X12474372Y-14773984D01*
X12474372Y-14773984D02*
X12455324Y-14764460D01*
X12455324Y-14764460D02*
X12445801Y-14754936D01*
X12445801Y-14754936D02*
X12436277Y-14735888D01*
X12436277Y-14735888D02*
X12426753Y-14697793D01*
X12426753Y-14697793D02*
X12426753Y-14650174D01*
X12426753Y-14650174D02*
X12436277Y-14612079D01*
X12436277Y-14612079D02*
X12445801Y-14593031D01*
X12445801Y-14593031D02*
X12455324Y-14583508D01*
X12455324Y-14583508D02*
X12474372Y-14573984D01*
X12626753Y-14754936D02*
X12636277Y-14764460D01*
X12636277Y-14764460D02*
X12626753Y-14773984D01*
X12626753Y-14773984D02*
X12617229Y-14764460D01*
X12617229Y-14764460D02*
X12626753Y-14754936D01*
X12626753Y-14754936D02*
X12626753Y-14773984D01*
X12807705Y-14640650D02*
X12807705Y-14773984D01*
X12760086Y-14564460D02*
X12712467Y-14707317D01*
X12712467Y-14707317D02*
X12836277Y-14707317D01*
X12950562Y-14573984D02*
X12969610Y-14573984D01*
X12969610Y-14573984D02*
X12988658Y-14583508D01*
X12988658Y-14583508D02*
X12998182Y-14593031D01*
X12998182Y-14593031D02*
X13007705Y-14612079D01*
X13007705Y-14612079D02*
X13017229Y-14650174D01*
X13017229Y-14650174D02*
X13017229Y-14697793D01*
X13017229Y-14697793D02*
X13007705Y-14735888D01*
X13007705Y-14735888D02*
X12998182Y-14754936D01*
X12998182Y-14754936D02*
X12988658Y-14764460D01*
X12988658Y-14764460D02*
X12969610Y-14773984D01*
X12969610Y-14773984D02*
X12950562Y-14773984D01*
X12950562Y-14773984D02*
X12931515Y-14764460D01*
X12931515Y-14764460D02*
X12921991Y-14754936D01*
X12921991Y-14754936D02*
X12912467Y-14735888D01*
X12912467Y-14735888D02*
X12902943Y-14697793D01*
X12902943Y-14697793D02*
X12902943Y-14650174D01*
X12902943Y-14650174D02*
X12912467Y-14612079D01*
X12912467Y-14612079D02*
X12921991Y-14593031D01*
X12921991Y-14593031D02*
X12931515Y-14583508D01*
X12931515Y-14583508D02*
X12950562Y-14573984D01*
X13141039Y-14573984D02*
X13160086Y-14573984D01*
X13160086Y-14573984D02*
X13179134Y-14583508D01*
X13179134Y-14583508D02*
X13188658Y-14593031D01*
X13188658Y-14593031D02*
X13198182Y-14612079D01*
X13198182Y-14612079D02*
X13207705Y-14650174D01*
X13207705Y-14650174D02*
X13207705Y-14697793D01*
X13207705Y-14697793D02*
X13198182Y-14735888D01*
X13198182Y-14735888D02*
X13188658Y-14754936D01*
X13188658Y-14754936D02*
X13179134Y-14764460D01*
X13179134Y-14764460D02*
X13160086Y-14773984D01*
X13160086Y-14773984D02*
X13141039Y-14773984D01*
X13141039Y-14773984D02*
X13121991Y-14764460D01*
X13121991Y-14764460D02*
X13112467Y-14754936D01*
X13112467Y-14754936D02*
X13102943Y-14735888D01*
X13102943Y-14735888D02*
X13093420Y-14697793D01*
X13093420Y-14697793D02*
X13093420Y-14650174D01*
X13093420Y-14650174D02*
X13102943Y-14612079D01*
X13102943Y-14612079D02*
X13112467Y-14593031D01*
X13112467Y-14593031D02*
X13121991Y-14583508D01*
X13121991Y-14583508D02*
X13141039Y-14573984D01*
X13293420Y-14773984D02*
X13293420Y-14640650D01*
X13293420Y-14659698D02*
X13302943Y-14650174D01*
X13302943Y-14650174D02*
X13321991Y-14640650D01*
X13321991Y-14640650D02*
X13350563Y-14640650D01*
X13350563Y-14640650D02*
X13369610Y-14650174D01*
X13369610Y-14650174D02*
X13379134Y-14669222D01*
X13379134Y-14669222D02*
X13379134Y-14773984D01*
X13379134Y-14669222D02*
X13388658Y-14650174D01*
X13388658Y-14650174D02*
X13407705Y-14640650D01*
X13407705Y-14640650D02*
X13436277Y-14640650D01*
X13436277Y-14640650D02*
X13455324Y-14650174D01*
X13455324Y-14650174D02*
X13464848Y-14669222D01*
X13464848Y-14669222D02*
X13464848Y-14773984D01*
X13560086Y-14773984D02*
X13560086Y-14640650D01*
X13560086Y-14659698D02*
X13569610Y-14650174D01*
X13569610Y-14650174D02*
X13588658Y-14640650D01*
X13588658Y-14640650D02*
X13617229Y-14640650D01*
X13617229Y-14640650D02*
X13636277Y-14650174D01*
X13636277Y-14650174D02*
X13645801Y-14669222D01*
X13645801Y-14669222D02*
X13645801Y-14773984D01*
X13645801Y-14669222D02*
X13655324Y-14650174D01*
X13655324Y-14650174D02*
X13674372Y-14640650D01*
X13674372Y-14640650D02*
X13702943Y-14640650D01*
X13702943Y-14640650D02*
X13721991Y-14650174D01*
X13721991Y-14650174D02*
X13731515Y-14669222D01*
X13731515Y-14669222D02*
X13731515Y-14773984D01*
X14121991Y-14564460D02*
X13950563Y-14821603D01*
X14379134Y-14573984D02*
X14398182Y-14573984D01*
X14398182Y-14573984D02*
X14417229Y-14583508D01*
X14417229Y-14583508D02*
X14426753Y-14593031D01*
X14426753Y-14593031D02*
X14436277Y-14612079D01*
X14436277Y-14612079D02*
X14445801Y-14650174D01*
X14445801Y-14650174D02*
X14445801Y-14697793D01*
X14445801Y-14697793D02*
X14436277Y-14735888D01*
X14436277Y-14735888D02*
X14426753Y-14754936D01*
X14426753Y-14754936D02*
X14417229Y-14764460D01*
X14417229Y-14764460D02*
X14398182Y-14773984D01*
X14398182Y-14773984D02*
X14379134Y-14773984D01*
X14379134Y-14773984D02*
X14360086Y-14764460D01*
X14360086Y-14764460D02*
X14350563Y-14754936D01*
X14350563Y-14754936D02*
X14341039Y-14735888D01*
X14341039Y-14735888D02*
X14331515Y-14697793D01*
X14331515Y-14697793D02*
X14331515Y-14650174D01*
X14331515Y-14650174D02*
X14341039Y-14612079D01*
X14341039Y-14612079D02*
X14350563Y-14593031D01*
X14350563Y-14593031D02*
X14360086Y-14583508D01*
X14360086Y-14583508D02*
X14379134Y-14573984D01*
X14531515Y-14754936D02*
X14541039Y-14764460D01*
X14541039Y-14764460D02*
X14531515Y-14773984D01*
X14531515Y-14773984D02*
X14521991Y-14764460D01*
X14521991Y-14764460D02*
X14531515Y-14754936D01*
X14531515Y-14754936D02*
X14531515Y-14773984D01*
X14664848Y-14573984D02*
X14683896Y-14573984D01*
X14683896Y-14573984D02*
X14702944Y-14583508D01*
X14702944Y-14583508D02*
X14712467Y-14593031D01*
X14712467Y-14593031D02*
X14721991Y-14612079D01*
X14721991Y-14612079D02*
X14731515Y-14650174D01*
X14731515Y-14650174D02*
X14731515Y-14697793D01*
X14731515Y-14697793D02*
X14721991Y-14735888D01*
X14721991Y-14735888D02*
X14712467Y-14754936D01*
X14712467Y-14754936D02*
X14702944Y-14764460D01*
X14702944Y-14764460D02*
X14683896Y-14773984D01*
X14683896Y-14773984D02*
X14664848Y-14773984D01*
X14664848Y-14773984D02*
X14645801Y-14764460D01*
X14645801Y-14764460D02*
X14636277Y-14754936D01*
X14636277Y-14754936D02*
X14626753Y-14735888D01*
X14626753Y-14735888D02*
X14617229Y-14697793D01*
X14617229Y-14697793D02*
X14617229Y-14650174D01*
X14617229Y-14650174D02*
X14626753Y-14612079D01*
X14626753Y-14612079D02*
X14636277Y-14593031D01*
X14636277Y-14593031D02*
X14645801Y-14583508D01*
X14645801Y-14583508D02*
X14664848Y-14573984D01*
X14921991Y-14773984D02*
X14807706Y-14773984D01*
X14864848Y-14773984D02*
X14864848Y-14573984D01*
X14864848Y-14573984D02*
X14845801Y-14602555D01*
X14845801Y-14602555D02*
X14826753Y-14621603D01*
X14826753Y-14621603D02*
X14807706Y-14631127D01*
X15102944Y-14573984D02*
X15007706Y-14573984D01*
X15007706Y-14573984D02*
X14998182Y-14669222D01*
X14998182Y-14669222D02*
X15007706Y-14659698D01*
X15007706Y-14659698D02*
X15026753Y-14650174D01*
X15026753Y-14650174D02*
X15074372Y-14650174D01*
X15074372Y-14650174D02*
X15093420Y-14659698D01*
X15093420Y-14659698D02*
X15102944Y-14669222D01*
X15102944Y-14669222D02*
X15112467Y-14688269D01*
X15112467Y-14688269D02*
X15112467Y-14735888D01*
X15112467Y-14735888D02*
X15102944Y-14754936D01*
X15102944Y-14754936D02*
X15093420Y-14764460D01*
X15093420Y-14764460D02*
X15074372Y-14773984D01*
X15074372Y-14773984D02*
X15026753Y-14773984D01*
X15026753Y-14773984D02*
X15007706Y-14764460D01*
X15007706Y-14764460D02*
X14998182Y-14754936D01*
X15179134Y-14573984D02*
X15312467Y-14573984D01*
X15312467Y-14573984D02*
X15226753Y-14773984D01*
X15379134Y-14573984D02*
X15379134Y-14612079D01*
X15455325Y-14573984D02*
X15455325Y-14612079D01*
X15750563Y-14850174D02*
X15741039Y-14840650D01*
X15741039Y-14840650D02*
X15721991Y-14812079D01*
X15721991Y-14812079D02*
X15712468Y-14793031D01*
X15712468Y-14793031D02*
X15702944Y-14764460D01*
X15702944Y-14764460D02*
X15693420Y-14716841D01*
X15693420Y-14716841D02*
X15693420Y-14678746D01*
X15693420Y-14678746D02*
X15702944Y-14631127D01*
X15702944Y-14631127D02*
X15712468Y-14602555D01*
X15712468Y-14602555D02*
X15721991Y-14583508D01*
X15721991Y-14583508D02*
X15741039Y-14554936D01*
X15741039Y-14554936D02*
X15750563Y-14545412D01*
X15807706Y-14573984D02*
X15941039Y-14573984D01*
X15941039Y-14573984D02*
X15855325Y-14773984D01*
X16102944Y-14640650D02*
X16102944Y-14773984D01*
X16055325Y-14564460D02*
X16007706Y-14707317D01*
X16007706Y-14707317D02*
X16131515Y-14707317D01*
X16236277Y-14659698D02*
X16217229Y-14650174D01*
X16217229Y-14650174D02*
X16207706Y-14640650D01*
X16207706Y-14640650D02*
X16198182Y-14621603D01*
X16198182Y-14621603D02*
X16198182Y-14612079D01*
X16198182Y-14612079D02*
X16207706Y-14593031D01*
X16207706Y-14593031D02*
X16217229Y-14583508D01*
X16217229Y-14583508D02*
X16236277Y-14573984D01*
X16236277Y-14573984D02*
X16274372Y-14573984D01*
X16274372Y-14573984D02*
X16293420Y-14583508D01*
X16293420Y-14583508D02*
X16302944Y-14593031D01*
X16302944Y-14593031D02*
X16312468Y-14612079D01*
X16312468Y-14612079D02*
X16312468Y-14621603D01*
X16312468Y-14621603D02*
X16302944Y-14640650D01*
X16302944Y-14640650D02*
X16293420Y-14650174D01*
X16293420Y-14650174D02*
X16274372Y-14659698D01*
X16274372Y-14659698D02*
X16236277Y-14659698D01*
X16236277Y-14659698D02*
X16217229Y-14669222D01*
X16217229Y-14669222D02*
X16207706Y-14678746D01*
X16207706Y-14678746D02*
X16198182Y-14697793D01*
X16198182Y-14697793D02*
X16198182Y-14735888D01*
X16198182Y-14735888D02*
X16207706Y-14754936D01*
X16207706Y-14754936D02*
X16217229Y-14764460D01*
X16217229Y-14764460D02*
X16236277Y-14773984D01*
X16236277Y-14773984D02*
X16274372Y-14773984D01*
X16274372Y-14773984D02*
X16293420Y-14764460D01*
X16293420Y-14764460D02*
X16302944Y-14754936D01*
X16302944Y-14754936D02*
X16312468Y-14735888D01*
X16312468Y-14735888D02*
X16312468Y-14697793D01*
X16312468Y-14697793D02*
X16302944Y-14678746D01*
X16302944Y-14678746D02*
X16293420Y-14669222D01*
X16293420Y-14669222D02*
X16274372Y-14659698D01*
X16550563Y-14773984D02*
X16550563Y-14573984D01*
X16636277Y-14773984D02*
X16636277Y-14669222D01*
X16636277Y-14669222D02*
X16626753Y-14650174D01*
X16626753Y-14650174D02*
X16607706Y-14640650D01*
X16607706Y-14640650D02*
X16579134Y-14640650D01*
X16579134Y-14640650D02*
X16560087Y-14650174D01*
X16560087Y-14650174D02*
X16550563Y-14659698D01*
X16760087Y-14773984D02*
X16741039Y-14764460D01*
X16741039Y-14764460D02*
X16731515Y-14754936D01*
X16731515Y-14754936D02*
X16721991Y-14735888D01*
X16721991Y-14735888D02*
X16721991Y-14678746D01*
X16721991Y-14678746D02*
X16731515Y-14659698D01*
X16731515Y-14659698D02*
X16741039Y-14650174D01*
X16741039Y-14650174D02*
X16760087Y-14640650D01*
X16760087Y-14640650D02*
X16788658Y-14640650D01*
X16788658Y-14640650D02*
X16807706Y-14650174D01*
X16807706Y-14650174D02*
X16817230Y-14659698D01*
X16817230Y-14659698D02*
X16826753Y-14678746D01*
X16826753Y-14678746D02*
X16826753Y-14735888D01*
X16826753Y-14735888D02*
X16817230Y-14754936D01*
X16817230Y-14754936D02*
X16807706Y-14764460D01*
X16807706Y-14764460D02*
X16788658Y-14773984D01*
X16788658Y-14773984D02*
X16760087Y-14773984D01*
X16941039Y-14773984D02*
X16921992Y-14764460D01*
X16921992Y-14764460D02*
X16912468Y-14745412D01*
X16912468Y-14745412D02*
X16912468Y-14573984D01*
X17093420Y-14764460D02*
X17074373Y-14773984D01*
X17074373Y-14773984D02*
X17036277Y-14773984D01*
X17036277Y-14773984D02*
X17017230Y-14764460D01*
X17017230Y-14764460D02*
X17007706Y-14745412D01*
X17007706Y-14745412D02*
X17007706Y-14669222D01*
X17007706Y-14669222D02*
X17017230Y-14650174D01*
X17017230Y-14650174D02*
X17036277Y-14640650D01*
X17036277Y-14640650D02*
X17074373Y-14640650D01*
X17074373Y-14640650D02*
X17093420Y-14650174D01*
X17093420Y-14650174D02*
X17102944Y-14669222D01*
X17102944Y-14669222D02*
X17102944Y-14688269D01*
X17102944Y-14688269D02*
X17007706Y-14707317D01*
X17179134Y-14764460D02*
X17198182Y-14773984D01*
X17198182Y-14773984D02*
X17236277Y-14773984D01*
X17236277Y-14773984D02*
X17255325Y-14764460D01*
X17255325Y-14764460D02*
X17264849Y-14745412D01*
X17264849Y-14745412D02*
X17264849Y-14735888D01*
X17264849Y-14735888D02*
X17255325Y-14716841D01*
X17255325Y-14716841D02*
X17236277Y-14707317D01*
X17236277Y-14707317D02*
X17207706Y-14707317D01*
X17207706Y-14707317D02*
X17188658Y-14697793D01*
X17188658Y-14697793D02*
X17179134Y-14678746D01*
X17179134Y-14678746D02*
X17179134Y-14669222D01*
X17179134Y-14669222D02*
X17188658Y-14650174D01*
X17188658Y-14650174D02*
X17207706Y-14640650D01*
X17207706Y-14640650D02*
X17236277Y-14640650D01*
X17236277Y-14640650D02*
X17255325Y-14650174D01*
X17331515Y-14850174D02*
X17341039Y-14840650D01*
X17341039Y-14840650D02*
X17360087Y-14812079D01*
X17360087Y-14812079D02*
X17369611Y-14793031D01*
X17369611Y-14793031D02*
X17379134Y-14764460D01*
X17379134Y-14764460D02*
X17388658Y-14716841D01*
X17388658Y-14716841D02*
X17388658Y-14678746D01*
X17388658Y-14678746D02*
X17379134Y-14631127D01*
X17379134Y-14631127D02*
X17369611Y-14602555D01*
X17369611Y-14602555D02*
X17360087Y-14583508D01*
X17360087Y-14583508D02*
X17341039Y-14554936D01*
X17341039Y-14554936D02*
X17331515Y-14545412D01*
D12*
X12175500Y-14946500D02*
G75*
G02*
X12095500Y-14946500I-40000J0D01*
G01*
X12095500Y-14946500D02*
G75*
G02*
X12175500Y-14946500I40000J0D01*
G01*
D11*
X12474372Y-14837984D02*
X12493420Y-14837984D01*
X12493420Y-14837984D02*
X12512467Y-14847508D01*
X12512467Y-14847508D02*
X12521991Y-14857031D01*
X12521991Y-14857031D02*
X12531515Y-14876079D01*
X12531515Y-14876079D02*
X12541039Y-14914174D01*
X12541039Y-14914174D02*
X12541039Y-14961793D01*
X12541039Y-14961793D02*
X12531515Y-14999888D01*
X12531515Y-14999888D02*
X12521991Y-15018936D01*
X12521991Y-15018936D02*
X12512467Y-15028460D01*
X12512467Y-15028460D02*
X12493420Y-15037984D01*
X12493420Y-15037984D02*
X12474372Y-15037984D01*
X12474372Y-15037984D02*
X12455324Y-15028460D01*
X12455324Y-15028460D02*
X12445801Y-15018936D01*
X12445801Y-15018936D02*
X12436277Y-14999888D01*
X12436277Y-14999888D02*
X12426753Y-14961793D01*
X12426753Y-14961793D02*
X12426753Y-14914174D01*
X12426753Y-14914174D02*
X12436277Y-14876079D01*
X12436277Y-14876079D02*
X12445801Y-14857031D01*
X12445801Y-14857031D02*
X12455324Y-14847508D01*
X12455324Y-14847508D02*
X12474372Y-14837984D01*
X12626753Y-15018936D02*
X12636277Y-15028460D01*
X12636277Y-15028460D02*
X12626753Y-15037984D01*
X12626753Y-15037984D02*
X12617229Y-15028460D01*
X12617229Y-15028460D02*
X12626753Y-15018936D01*
X12626753Y-15018936D02*
X12626753Y-15037984D01*
X12750562Y-14923698D02*
X12731515Y-14914174D01*
X12731515Y-14914174D02*
X12721991Y-14904650D01*
X12721991Y-14904650D02*
X12712467Y-14885603D01*
X12712467Y-14885603D02*
X12712467Y-14876079D01*
X12712467Y-14876079D02*
X12721991Y-14857031D01*
X12721991Y-14857031D02*
X12731515Y-14847508D01*
X12731515Y-14847508D02*
X12750562Y-14837984D01*
X12750562Y-14837984D02*
X12788658Y-14837984D01*
X12788658Y-14837984D02*
X12807705Y-14847508D01*
X12807705Y-14847508D02*
X12817229Y-14857031D01*
X12817229Y-14857031D02*
X12826753Y-14876079D01*
X12826753Y-14876079D02*
X12826753Y-14885603D01*
X12826753Y-14885603D02*
X12817229Y-14904650D01*
X12817229Y-14904650D02*
X12807705Y-14914174D01*
X12807705Y-14914174D02*
X12788658Y-14923698D01*
X12788658Y-14923698D02*
X12750562Y-14923698D01*
X12750562Y-14923698D02*
X12731515Y-14933222D01*
X12731515Y-14933222D02*
X12721991Y-14942746D01*
X12721991Y-14942746D02*
X12712467Y-14961793D01*
X12712467Y-14961793D02*
X12712467Y-14999888D01*
X12712467Y-14999888D02*
X12721991Y-15018936D01*
X12721991Y-15018936D02*
X12731515Y-15028460D01*
X12731515Y-15028460D02*
X12750562Y-15037984D01*
X12750562Y-15037984D02*
X12788658Y-15037984D01*
X12788658Y-15037984D02*
X12807705Y-15028460D01*
X12807705Y-15028460D02*
X12817229Y-15018936D01*
X12817229Y-15018936D02*
X12826753Y-14999888D01*
X12826753Y-14999888D02*
X12826753Y-14961793D01*
X12826753Y-14961793D02*
X12817229Y-14942746D01*
X12817229Y-14942746D02*
X12807705Y-14933222D01*
X12807705Y-14933222D02*
X12788658Y-14923698D01*
X12950562Y-14837984D02*
X12969610Y-14837984D01*
X12969610Y-14837984D02*
X12988658Y-14847508D01*
X12988658Y-14847508D02*
X12998182Y-14857031D01*
X12998182Y-14857031D02*
X13007705Y-14876079D01*
X13007705Y-14876079D02*
X13017229Y-14914174D01*
X13017229Y-14914174D02*
X13017229Y-14961793D01*
X13017229Y-14961793D02*
X13007705Y-14999888D01*
X13007705Y-14999888D02*
X12998182Y-15018936D01*
X12998182Y-15018936D02*
X12988658Y-15028460D01*
X12988658Y-15028460D02*
X12969610Y-15037984D01*
X12969610Y-15037984D02*
X12950562Y-15037984D01*
X12950562Y-15037984D02*
X12931515Y-15028460D01*
X12931515Y-15028460D02*
X12921991Y-15018936D01*
X12921991Y-15018936D02*
X12912467Y-14999888D01*
X12912467Y-14999888D02*
X12902943Y-14961793D01*
X12902943Y-14961793D02*
X12902943Y-14914174D01*
X12902943Y-14914174D02*
X12912467Y-14876079D01*
X12912467Y-14876079D02*
X12921991Y-14857031D01*
X12921991Y-14857031D02*
X12931515Y-14847508D01*
X12931515Y-14847508D02*
X12950562Y-14837984D01*
X13141039Y-14837984D02*
X13160086Y-14837984D01*
X13160086Y-14837984D02*
X13179134Y-14847508D01*
X13179134Y-14847508D02*
X13188658Y-14857031D01*
X13188658Y-14857031D02*
X13198182Y-14876079D01*
X13198182Y-14876079D02*
X13207705Y-14914174D01*
X13207705Y-14914174D02*
X13207705Y-14961793D01*
X13207705Y-14961793D02*
X13198182Y-14999888D01*
X13198182Y-14999888D02*
X13188658Y-15018936D01*
X13188658Y-15018936D02*
X13179134Y-15028460D01*
X13179134Y-15028460D02*
X13160086Y-15037984D01*
X13160086Y-15037984D02*
X13141039Y-15037984D01*
X13141039Y-15037984D02*
X13121991Y-15028460D01*
X13121991Y-15028460D02*
X13112467Y-15018936D01*
X13112467Y-15018936D02*
X13102943Y-14999888D01*
X13102943Y-14999888D02*
X13093420Y-14961793D01*
X13093420Y-14961793D02*
X13093420Y-14914174D01*
X13093420Y-14914174D02*
X13102943Y-14876079D01*
X13102943Y-14876079D02*
X13112467Y-14857031D01*
X13112467Y-14857031D02*
X13121991Y-14847508D01*
X13121991Y-14847508D02*
X13141039Y-14837984D01*
X13293420Y-15037984D02*
X13293420Y-14904650D01*
X13293420Y-14923698D02*
X13302943Y-14914174D01*
X13302943Y-14914174D02*
X13321991Y-14904650D01*
X13321991Y-14904650D02*
X13350563Y-14904650D01*
X13350563Y-14904650D02*
X13369610Y-14914174D01*
X13369610Y-14914174D02*
X13379134Y-14933222D01*
X13379134Y-14933222D02*
X13379134Y-15037984D01*
X13379134Y-14933222D02*
X13388658Y-14914174D01*
X13388658Y-14914174D02*
X13407705Y-14904650D01*
X13407705Y-14904650D02*
X13436277Y-14904650D01*
X13436277Y-14904650D02*
X13455324Y-14914174D01*
X13455324Y-14914174D02*
X13464848Y-14933222D01*
X13464848Y-14933222D02*
X13464848Y-15037984D01*
X13560086Y-15037984D02*
X13560086Y-14904650D01*
X13560086Y-14923698D02*
X13569610Y-14914174D01*
X13569610Y-14914174D02*
X13588658Y-14904650D01*
X13588658Y-14904650D02*
X13617229Y-14904650D01*
X13617229Y-14904650D02*
X13636277Y-14914174D01*
X13636277Y-14914174D02*
X13645801Y-14933222D01*
X13645801Y-14933222D02*
X13645801Y-15037984D01*
X13645801Y-14933222D02*
X13655324Y-14914174D01*
X13655324Y-14914174D02*
X13674372Y-14904650D01*
X13674372Y-14904650D02*
X13702943Y-14904650D01*
X13702943Y-14904650D02*
X13721991Y-14914174D01*
X13721991Y-14914174D02*
X13731515Y-14933222D01*
X13731515Y-14933222D02*
X13731515Y-15037984D01*
X14121991Y-14828460D02*
X13950563Y-15085603D01*
X14379134Y-14837984D02*
X14398182Y-14837984D01*
X14398182Y-14837984D02*
X14417229Y-14847508D01*
X14417229Y-14847508D02*
X14426753Y-14857031D01*
X14426753Y-14857031D02*
X14436277Y-14876079D01*
X14436277Y-14876079D02*
X14445801Y-14914174D01*
X14445801Y-14914174D02*
X14445801Y-14961793D01*
X14445801Y-14961793D02*
X14436277Y-14999888D01*
X14436277Y-14999888D02*
X14426753Y-15018936D01*
X14426753Y-15018936D02*
X14417229Y-15028460D01*
X14417229Y-15028460D02*
X14398182Y-15037984D01*
X14398182Y-15037984D02*
X14379134Y-15037984D01*
X14379134Y-15037984D02*
X14360086Y-15028460D01*
X14360086Y-15028460D02*
X14350563Y-15018936D01*
X14350563Y-15018936D02*
X14341039Y-14999888D01*
X14341039Y-14999888D02*
X14331515Y-14961793D01*
X14331515Y-14961793D02*
X14331515Y-14914174D01*
X14331515Y-14914174D02*
X14341039Y-14876079D01*
X14341039Y-14876079D02*
X14350563Y-14857031D01*
X14350563Y-14857031D02*
X14360086Y-14847508D01*
X14360086Y-14847508D02*
X14379134Y-14837984D01*
X14531515Y-15018936D02*
X14541039Y-15028460D01*
X14541039Y-15028460D02*
X14531515Y-15037984D01*
X14531515Y-15037984D02*
X14521991Y-15028460D01*
X14521991Y-15028460D02*
X14531515Y-15018936D01*
X14531515Y-15018936D02*
X14531515Y-15037984D01*
X14664848Y-14837984D02*
X14683896Y-14837984D01*
X14683896Y-14837984D02*
X14702944Y-14847508D01*
X14702944Y-14847508D02*
X14712467Y-14857031D01*
X14712467Y-14857031D02*
X14721991Y-14876079D01*
X14721991Y-14876079D02*
X14731515Y-14914174D01*
X14731515Y-14914174D02*
X14731515Y-14961793D01*
X14731515Y-14961793D02*
X14721991Y-14999888D01*
X14721991Y-14999888D02*
X14712467Y-15018936D01*
X14712467Y-15018936D02*
X14702944Y-15028460D01*
X14702944Y-15028460D02*
X14683896Y-15037984D01*
X14683896Y-15037984D02*
X14664848Y-15037984D01*
X14664848Y-15037984D02*
X14645801Y-15028460D01*
X14645801Y-15028460D02*
X14636277Y-15018936D01*
X14636277Y-15018936D02*
X14626753Y-14999888D01*
X14626753Y-14999888D02*
X14617229Y-14961793D01*
X14617229Y-14961793D02*
X14617229Y-14914174D01*
X14617229Y-14914174D02*
X14626753Y-14876079D01*
X14626753Y-14876079D02*
X14636277Y-14857031D01*
X14636277Y-14857031D02*
X14645801Y-14847508D01*
X14645801Y-14847508D02*
X14664848Y-14837984D01*
X14798182Y-14837984D02*
X14921991Y-14837984D01*
X14921991Y-14837984D02*
X14855325Y-14914174D01*
X14855325Y-14914174D02*
X14883896Y-14914174D01*
X14883896Y-14914174D02*
X14902944Y-14923698D01*
X14902944Y-14923698D02*
X14912467Y-14933222D01*
X14912467Y-14933222D02*
X14921991Y-14952269D01*
X14921991Y-14952269D02*
X14921991Y-14999888D01*
X14921991Y-14999888D02*
X14912467Y-15018936D01*
X14912467Y-15018936D02*
X14902944Y-15028460D01*
X14902944Y-15028460D02*
X14883896Y-15037984D01*
X14883896Y-15037984D02*
X14826753Y-15037984D01*
X14826753Y-15037984D02*
X14807706Y-15028460D01*
X14807706Y-15028460D02*
X14798182Y-15018936D01*
X15112467Y-15037984D02*
X14998182Y-15037984D01*
X15055325Y-15037984D02*
X15055325Y-14837984D01*
X15055325Y-14837984D02*
X15036277Y-14866555D01*
X15036277Y-14866555D02*
X15017229Y-14885603D01*
X15017229Y-14885603D02*
X14998182Y-14895127D01*
X15293420Y-14837984D02*
X15198182Y-14837984D01*
X15198182Y-14837984D02*
X15188658Y-14933222D01*
X15188658Y-14933222D02*
X15198182Y-14923698D01*
X15198182Y-14923698D02*
X15217229Y-14914174D01*
X15217229Y-14914174D02*
X15264848Y-14914174D01*
X15264848Y-14914174D02*
X15283896Y-14923698D01*
X15283896Y-14923698D02*
X15293420Y-14933222D01*
X15293420Y-14933222D02*
X15302944Y-14952269D01*
X15302944Y-14952269D02*
X15302944Y-14999888D01*
X15302944Y-14999888D02*
X15293420Y-15018936D01*
X15293420Y-15018936D02*
X15283896Y-15028460D01*
X15283896Y-15028460D02*
X15264848Y-15037984D01*
X15264848Y-15037984D02*
X15217229Y-15037984D01*
X15217229Y-15037984D02*
X15198182Y-15028460D01*
X15198182Y-15028460D02*
X15188658Y-15018936D01*
X15379134Y-14837984D02*
X15379134Y-14876079D01*
X15455325Y-14837984D02*
X15455325Y-14876079D01*
X15750563Y-15114174D02*
X15741039Y-15104650D01*
X15741039Y-15104650D02*
X15721991Y-15076079D01*
X15721991Y-15076079D02*
X15712468Y-15057031D01*
X15712468Y-15057031D02*
X15702944Y-15028460D01*
X15702944Y-15028460D02*
X15693420Y-14980841D01*
X15693420Y-14980841D02*
X15693420Y-14942746D01*
X15693420Y-14942746D02*
X15702944Y-14895127D01*
X15702944Y-14895127D02*
X15712468Y-14866555D01*
X15712468Y-14866555D02*
X15721991Y-14847508D01*
X15721991Y-14847508D02*
X15741039Y-14818936D01*
X15741039Y-14818936D02*
X15750563Y-14809412D01*
X15817229Y-14857031D02*
X15826753Y-14847508D01*
X15826753Y-14847508D02*
X15845801Y-14837984D01*
X15845801Y-14837984D02*
X15893420Y-14837984D01*
X15893420Y-14837984D02*
X15912468Y-14847508D01*
X15912468Y-14847508D02*
X15921991Y-14857031D01*
X15921991Y-14857031D02*
X15931515Y-14876079D01*
X15931515Y-14876079D02*
X15931515Y-14895127D01*
X15931515Y-14895127D02*
X15921991Y-14923698D01*
X15921991Y-14923698D02*
X15807706Y-15037984D01*
X15807706Y-15037984D02*
X15931515Y-15037984D01*
X16045801Y-14923698D02*
X16026753Y-14914174D01*
X16026753Y-14914174D02*
X16017229Y-14904650D01*
X16017229Y-14904650D02*
X16007706Y-14885603D01*
X16007706Y-14885603D02*
X16007706Y-14876079D01*
X16007706Y-14876079D02*
X16017229Y-14857031D01*
X16017229Y-14857031D02*
X16026753Y-14847508D01*
X16026753Y-14847508D02*
X16045801Y-14837984D01*
X16045801Y-14837984D02*
X16083896Y-14837984D01*
X16083896Y-14837984D02*
X16102944Y-14847508D01*
X16102944Y-14847508D02*
X16112468Y-14857031D01*
X16112468Y-14857031D02*
X16121991Y-14876079D01*
X16121991Y-14876079D02*
X16121991Y-14885603D01*
X16121991Y-14885603D02*
X16112468Y-14904650D01*
X16112468Y-14904650D02*
X16102944Y-14914174D01*
X16102944Y-14914174D02*
X16083896Y-14923698D01*
X16083896Y-14923698D02*
X16045801Y-14923698D01*
X16045801Y-14923698D02*
X16026753Y-14933222D01*
X16026753Y-14933222D02*
X16017229Y-14942746D01*
X16017229Y-14942746D02*
X16007706Y-14961793D01*
X16007706Y-14961793D02*
X16007706Y-14999888D01*
X16007706Y-14999888D02*
X16017229Y-15018936D01*
X16017229Y-15018936D02*
X16026753Y-15028460D01*
X16026753Y-15028460D02*
X16045801Y-15037984D01*
X16045801Y-15037984D02*
X16083896Y-15037984D01*
X16083896Y-15037984D02*
X16102944Y-15028460D01*
X16102944Y-15028460D02*
X16112468Y-15018936D01*
X16112468Y-15018936D02*
X16121991Y-14999888D01*
X16121991Y-14999888D02*
X16121991Y-14961793D01*
X16121991Y-14961793D02*
X16112468Y-14942746D01*
X16112468Y-14942746D02*
X16102944Y-14933222D01*
X16102944Y-14933222D02*
X16083896Y-14923698D01*
X16360087Y-15037984D02*
X16360087Y-14837984D01*
X16445801Y-15037984D02*
X16445801Y-14933222D01*
X16445801Y-14933222D02*
X16436277Y-14914174D01*
X16436277Y-14914174D02*
X16417230Y-14904650D01*
X16417230Y-14904650D02*
X16388658Y-14904650D01*
X16388658Y-14904650D02*
X16369610Y-14914174D01*
X16369610Y-14914174D02*
X16360087Y-14923698D01*
X16569610Y-15037984D02*
X16550563Y-15028460D01*
X16550563Y-15028460D02*
X16541039Y-15018936D01*
X16541039Y-15018936D02*
X16531515Y-14999888D01*
X16531515Y-14999888D02*
X16531515Y-14942746D01*
X16531515Y-14942746D02*
X16541039Y-14923698D01*
X16541039Y-14923698D02*
X16550563Y-14914174D01*
X16550563Y-14914174D02*
X16569610Y-14904650D01*
X16569610Y-14904650D02*
X16598182Y-14904650D01*
X16598182Y-14904650D02*
X16617230Y-14914174D01*
X16617230Y-14914174D02*
X16626753Y-14923698D01*
X16626753Y-14923698D02*
X16636277Y-14942746D01*
X16636277Y-14942746D02*
X16636277Y-14999888D01*
X16636277Y-14999888D02*
X16626753Y-15018936D01*
X16626753Y-15018936D02*
X16617230Y-15028460D01*
X16617230Y-15028460D02*
X16598182Y-15037984D01*
X16598182Y-15037984D02*
X16569610Y-15037984D01*
X16750563Y-15037984D02*
X16731515Y-15028460D01*
X16731515Y-15028460D02*
X16721991Y-15009412D01*
X16721991Y-15009412D02*
X16721991Y-14837984D01*
X16902944Y-15028460D02*
X16883896Y-15037984D01*
X16883896Y-15037984D02*
X16845801Y-15037984D01*
X16845801Y-15037984D02*
X16826753Y-15028460D01*
X16826753Y-15028460D02*
X16817230Y-15009412D01*
X16817230Y-15009412D02*
X16817230Y-14933222D01*
X16817230Y-14933222D02*
X16826753Y-14914174D01*
X16826753Y-14914174D02*
X16845801Y-14904650D01*
X16845801Y-14904650D02*
X16883896Y-14904650D01*
X16883896Y-14904650D02*
X16902944Y-14914174D01*
X16902944Y-14914174D02*
X16912468Y-14933222D01*
X16912468Y-14933222D02*
X16912468Y-14952269D01*
X16912468Y-14952269D02*
X16817230Y-14971317D01*
X16988658Y-15028460D02*
X17007706Y-15037984D01*
X17007706Y-15037984D02*
X17045801Y-15037984D01*
X17045801Y-15037984D02*
X17064849Y-15028460D01*
X17064849Y-15028460D02*
X17074373Y-15009412D01*
X17074373Y-15009412D02*
X17074373Y-14999888D01*
X17074373Y-14999888D02*
X17064849Y-14980841D01*
X17064849Y-14980841D02*
X17045801Y-14971317D01*
X17045801Y-14971317D02*
X17017230Y-14971317D01*
X17017230Y-14971317D02*
X16998182Y-14961793D01*
X16998182Y-14961793D02*
X16988658Y-14942746D01*
X16988658Y-14942746D02*
X16988658Y-14933222D01*
X16988658Y-14933222D02*
X16998182Y-14914174D01*
X16998182Y-14914174D02*
X17017230Y-14904650D01*
X17017230Y-14904650D02*
X17045801Y-14904650D01*
X17045801Y-14904650D02*
X17064849Y-14914174D01*
X17141039Y-15114174D02*
X17150563Y-15104650D01*
X17150563Y-15104650D02*
X17169611Y-15076079D01*
X17169611Y-15076079D02*
X17179134Y-15057031D01*
X17179134Y-15057031D02*
X17188658Y-15028460D01*
X17188658Y-15028460D02*
X17198182Y-14980841D01*
X17198182Y-14980841D02*
X17198182Y-14942746D01*
X17198182Y-14942746D02*
X17188658Y-14895127D01*
X17188658Y-14895127D02*
X17179134Y-14866555D01*
X17179134Y-14866555D02*
X17169611Y-14847508D01*
X17169611Y-14847508D02*
X17150563Y-14818936D01*
X17150563Y-14818936D02*
X17141039Y-14809412D01*
D12*
X12125500Y-15160500D02*
X12125500Y-15260500D01*
X12075500Y-15210500D02*
X12175500Y-15210500D01*
D11*
X12541039Y-15301984D02*
X12426753Y-15301984D01*
X12483896Y-15301984D02*
X12483896Y-15101984D01*
X12483896Y-15101984D02*
X12464848Y-15130555D01*
X12464848Y-15130555D02*
X12445801Y-15149603D01*
X12445801Y-15149603D02*
X12426753Y-15159127D01*
X12626753Y-15282936D02*
X12636277Y-15292460D01*
X12636277Y-15292460D02*
X12626753Y-15301984D01*
X12626753Y-15301984D02*
X12617229Y-15292460D01*
X12617229Y-15292460D02*
X12626753Y-15282936D01*
X12626753Y-15282936D02*
X12626753Y-15301984D01*
X12760086Y-15101984D02*
X12779134Y-15101984D01*
X12779134Y-15101984D02*
X12798182Y-15111508D01*
X12798182Y-15111508D02*
X12807705Y-15121031D01*
X12807705Y-15121031D02*
X12817229Y-15140079D01*
X12817229Y-15140079D02*
X12826753Y-15178174D01*
X12826753Y-15178174D02*
X12826753Y-15225793D01*
X12826753Y-15225793D02*
X12817229Y-15263888D01*
X12817229Y-15263888D02*
X12807705Y-15282936D01*
X12807705Y-15282936D02*
X12798182Y-15292460D01*
X12798182Y-15292460D02*
X12779134Y-15301984D01*
X12779134Y-15301984D02*
X12760086Y-15301984D01*
X12760086Y-15301984D02*
X12741039Y-15292460D01*
X12741039Y-15292460D02*
X12731515Y-15282936D01*
X12731515Y-15282936D02*
X12721991Y-15263888D01*
X12721991Y-15263888D02*
X12712467Y-15225793D01*
X12712467Y-15225793D02*
X12712467Y-15178174D01*
X12712467Y-15178174D02*
X12721991Y-15140079D01*
X12721991Y-15140079D02*
X12731515Y-15121031D01*
X12731515Y-15121031D02*
X12741039Y-15111508D01*
X12741039Y-15111508D02*
X12760086Y-15101984D01*
X12950562Y-15101984D02*
X12969610Y-15101984D01*
X12969610Y-15101984D02*
X12988658Y-15111508D01*
X12988658Y-15111508D02*
X12998182Y-15121031D01*
X12998182Y-15121031D02*
X13007705Y-15140079D01*
X13007705Y-15140079D02*
X13017229Y-15178174D01*
X13017229Y-15178174D02*
X13017229Y-15225793D01*
X13017229Y-15225793D02*
X13007705Y-15263888D01*
X13007705Y-15263888D02*
X12998182Y-15282936D01*
X12998182Y-15282936D02*
X12988658Y-15292460D01*
X12988658Y-15292460D02*
X12969610Y-15301984D01*
X12969610Y-15301984D02*
X12950562Y-15301984D01*
X12950562Y-15301984D02*
X12931515Y-15292460D01*
X12931515Y-15292460D02*
X12921991Y-15282936D01*
X12921991Y-15282936D02*
X12912467Y-15263888D01*
X12912467Y-15263888D02*
X12902943Y-15225793D01*
X12902943Y-15225793D02*
X12902943Y-15178174D01*
X12902943Y-15178174D02*
X12912467Y-15140079D01*
X12912467Y-15140079D02*
X12921991Y-15121031D01*
X12921991Y-15121031D02*
X12931515Y-15111508D01*
X12931515Y-15111508D02*
X12950562Y-15101984D01*
X13141039Y-15101984D02*
X13160086Y-15101984D01*
X13160086Y-15101984D02*
X13179134Y-15111508D01*
X13179134Y-15111508D02*
X13188658Y-15121031D01*
X13188658Y-15121031D02*
X13198182Y-15140079D01*
X13198182Y-15140079D02*
X13207705Y-15178174D01*
X13207705Y-15178174D02*
X13207705Y-15225793D01*
X13207705Y-15225793D02*
X13198182Y-15263888D01*
X13198182Y-15263888D02*
X13188658Y-15282936D01*
X13188658Y-15282936D02*
X13179134Y-15292460D01*
X13179134Y-15292460D02*
X13160086Y-15301984D01*
X13160086Y-15301984D02*
X13141039Y-15301984D01*
X13141039Y-15301984D02*
X13121991Y-15292460D01*
X13121991Y-15292460D02*
X13112467Y-15282936D01*
X13112467Y-15282936D02*
X13102943Y-15263888D01*
X13102943Y-15263888D02*
X13093420Y-15225793D01*
X13093420Y-15225793D02*
X13093420Y-15178174D01*
X13093420Y-15178174D02*
X13102943Y-15140079D01*
X13102943Y-15140079D02*
X13112467Y-15121031D01*
X13112467Y-15121031D02*
X13121991Y-15111508D01*
X13121991Y-15111508D02*
X13141039Y-15101984D01*
X13293420Y-15301984D02*
X13293420Y-15168650D01*
X13293420Y-15187698D02*
X13302943Y-15178174D01*
X13302943Y-15178174D02*
X13321991Y-15168650D01*
X13321991Y-15168650D02*
X13350563Y-15168650D01*
X13350563Y-15168650D02*
X13369610Y-15178174D01*
X13369610Y-15178174D02*
X13379134Y-15197222D01*
X13379134Y-15197222D02*
X13379134Y-15301984D01*
X13379134Y-15197222D02*
X13388658Y-15178174D01*
X13388658Y-15178174D02*
X13407705Y-15168650D01*
X13407705Y-15168650D02*
X13436277Y-15168650D01*
X13436277Y-15168650D02*
X13455324Y-15178174D01*
X13455324Y-15178174D02*
X13464848Y-15197222D01*
X13464848Y-15197222D02*
X13464848Y-15301984D01*
X13560086Y-15301984D02*
X13560086Y-15168650D01*
X13560086Y-15187698D02*
X13569610Y-15178174D01*
X13569610Y-15178174D02*
X13588658Y-15168650D01*
X13588658Y-15168650D02*
X13617229Y-15168650D01*
X13617229Y-15168650D02*
X13636277Y-15178174D01*
X13636277Y-15178174D02*
X13645801Y-15197222D01*
X13645801Y-15197222D02*
X13645801Y-15301984D01*
X13645801Y-15197222D02*
X13655324Y-15178174D01*
X13655324Y-15178174D02*
X13674372Y-15168650D01*
X13674372Y-15168650D02*
X13702943Y-15168650D01*
X13702943Y-15168650D02*
X13721991Y-15178174D01*
X13721991Y-15178174D02*
X13731515Y-15197222D01*
X13731515Y-15197222D02*
X13731515Y-15301984D01*
X14121991Y-15092460D02*
X13950563Y-15349603D01*
X14379134Y-15101984D02*
X14398182Y-15101984D01*
X14398182Y-15101984D02*
X14417229Y-15111508D01*
X14417229Y-15111508D02*
X14426753Y-15121031D01*
X14426753Y-15121031D02*
X14436277Y-15140079D01*
X14436277Y-15140079D02*
X14445801Y-15178174D01*
X14445801Y-15178174D02*
X14445801Y-15225793D01*
X14445801Y-15225793D02*
X14436277Y-15263888D01*
X14436277Y-15263888D02*
X14426753Y-15282936D01*
X14426753Y-15282936D02*
X14417229Y-15292460D01*
X14417229Y-15292460D02*
X14398182Y-15301984D01*
X14398182Y-15301984D02*
X14379134Y-15301984D01*
X14379134Y-15301984D02*
X14360086Y-15292460D01*
X14360086Y-15292460D02*
X14350563Y-15282936D01*
X14350563Y-15282936D02*
X14341039Y-15263888D01*
X14341039Y-15263888D02*
X14331515Y-15225793D01*
X14331515Y-15225793D02*
X14331515Y-15178174D01*
X14331515Y-15178174D02*
X14341039Y-15140079D01*
X14341039Y-15140079D02*
X14350563Y-15121031D01*
X14350563Y-15121031D02*
X14360086Y-15111508D01*
X14360086Y-15111508D02*
X14379134Y-15101984D01*
X14531515Y-15282936D02*
X14541039Y-15292460D01*
X14541039Y-15292460D02*
X14531515Y-15301984D01*
X14531515Y-15301984D02*
X14521991Y-15292460D01*
X14521991Y-15292460D02*
X14531515Y-15282936D01*
X14531515Y-15282936D02*
X14531515Y-15301984D01*
X14664848Y-15101984D02*
X14683896Y-15101984D01*
X14683896Y-15101984D02*
X14702944Y-15111508D01*
X14702944Y-15111508D02*
X14712467Y-15121031D01*
X14712467Y-15121031D02*
X14721991Y-15140079D01*
X14721991Y-15140079D02*
X14731515Y-15178174D01*
X14731515Y-15178174D02*
X14731515Y-15225793D01*
X14731515Y-15225793D02*
X14721991Y-15263888D01*
X14721991Y-15263888D02*
X14712467Y-15282936D01*
X14712467Y-15282936D02*
X14702944Y-15292460D01*
X14702944Y-15292460D02*
X14683896Y-15301984D01*
X14683896Y-15301984D02*
X14664848Y-15301984D01*
X14664848Y-15301984D02*
X14645801Y-15292460D01*
X14645801Y-15292460D02*
X14636277Y-15282936D01*
X14636277Y-15282936D02*
X14626753Y-15263888D01*
X14626753Y-15263888D02*
X14617229Y-15225793D01*
X14617229Y-15225793D02*
X14617229Y-15178174D01*
X14617229Y-15178174D02*
X14626753Y-15140079D01*
X14626753Y-15140079D02*
X14636277Y-15121031D01*
X14636277Y-15121031D02*
X14645801Y-15111508D01*
X14645801Y-15111508D02*
X14664848Y-15101984D01*
X14798182Y-15101984D02*
X14921991Y-15101984D01*
X14921991Y-15101984D02*
X14855325Y-15178174D01*
X14855325Y-15178174D02*
X14883896Y-15178174D01*
X14883896Y-15178174D02*
X14902944Y-15187698D01*
X14902944Y-15187698D02*
X14912467Y-15197222D01*
X14912467Y-15197222D02*
X14921991Y-15216269D01*
X14921991Y-15216269D02*
X14921991Y-15263888D01*
X14921991Y-15263888D02*
X14912467Y-15282936D01*
X14912467Y-15282936D02*
X14902944Y-15292460D01*
X14902944Y-15292460D02*
X14883896Y-15301984D01*
X14883896Y-15301984D02*
X14826753Y-15301984D01*
X14826753Y-15301984D02*
X14807706Y-15292460D01*
X14807706Y-15292460D02*
X14798182Y-15282936D01*
X15017229Y-15301984D02*
X15055325Y-15301984D01*
X15055325Y-15301984D02*
X15074372Y-15292460D01*
X15074372Y-15292460D02*
X15083896Y-15282936D01*
X15083896Y-15282936D02*
X15102944Y-15254365D01*
X15102944Y-15254365D02*
X15112467Y-15216269D01*
X15112467Y-15216269D02*
X15112467Y-15140079D01*
X15112467Y-15140079D02*
X15102944Y-15121031D01*
X15102944Y-15121031D02*
X15093420Y-15111508D01*
X15093420Y-15111508D02*
X15074372Y-15101984D01*
X15074372Y-15101984D02*
X15036277Y-15101984D01*
X15036277Y-15101984D02*
X15017229Y-15111508D01*
X15017229Y-15111508D02*
X15007706Y-15121031D01*
X15007706Y-15121031D02*
X14998182Y-15140079D01*
X14998182Y-15140079D02*
X14998182Y-15187698D01*
X14998182Y-15187698D02*
X15007706Y-15206746D01*
X15007706Y-15206746D02*
X15017229Y-15216269D01*
X15017229Y-15216269D02*
X15036277Y-15225793D01*
X15036277Y-15225793D02*
X15074372Y-15225793D01*
X15074372Y-15225793D02*
X15093420Y-15216269D01*
X15093420Y-15216269D02*
X15102944Y-15206746D01*
X15102944Y-15206746D02*
X15112467Y-15187698D01*
X15283896Y-15168650D02*
X15283896Y-15301984D01*
X15236277Y-15092460D02*
X15188658Y-15235317D01*
X15188658Y-15235317D02*
X15312467Y-15235317D01*
X15379134Y-15101984D02*
X15379134Y-15140079D01*
X15455325Y-15101984D02*
X15455325Y-15140079D01*
X15750563Y-15378174D02*
X15741039Y-15368650D01*
X15741039Y-15368650D02*
X15721991Y-15340079D01*
X15721991Y-15340079D02*
X15712468Y-15321031D01*
X15712468Y-15321031D02*
X15702944Y-15292460D01*
X15702944Y-15292460D02*
X15693420Y-15244841D01*
X15693420Y-15244841D02*
X15693420Y-15206746D01*
X15693420Y-15206746D02*
X15702944Y-15159127D01*
X15702944Y-15159127D02*
X15712468Y-15130555D01*
X15712468Y-15130555D02*
X15721991Y-15111508D01*
X15721991Y-15111508D02*
X15741039Y-15082936D01*
X15741039Y-15082936D02*
X15750563Y-15073412D01*
X15807706Y-15101984D02*
X15931515Y-15101984D01*
X15931515Y-15101984D02*
X15864848Y-15178174D01*
X15864848Y-15178174D02*
X15893420Y-15178174D01*
X15893420Y-15178174D02*
X15912468Y-15187698D01*
X15912468Y-15187698D02*
X15921991Y-15197222D01*
X15921991Y-15197222D02*
X15931515Y-15216269D01*
X15931515Y-15216269D02*
X15931515Y-15263888D01*
X15931515Y-15263888D02*
X15921991Y-15282936D01*
X15921991Y-15282936D02*
X15912468Y-15292460D01*
X15912468Y-15292460D02*
X15893420Y-15301984D01*
X15893420Y-15301984D02*
X15836277Y-15301984D01*
X15836277Y-15301984D02*
X15817229Y-15292460D01*
X15817229Y-15292460D02*
X15807706Y-15282936D01*
X16055325Y-15101984D02*
X16074372Y-15101984D01*
X16074372Y-15101984D02*
X16093420Y-15111508D01*
X16093420Y-15111508D02*
X16102944Y-15121031D01*
X16102944Y-15121031D02*
X16112468Y-15140079D01*
X16112468Y-15140079D02*
X16121991Y-15178174D01*
X16121991Y-15178174D02*
X16121991Y-15225793D01*
X16121991Y-15225793D02*
X16112468Y-15263888D01*
X16112468Y-15263888D02*
X16102944Y-15282936D01*
X16102944Y-15282936D02*
X16093420Y-15292460D01*
X16093420Y-15292460D02*
X16074372Y-15301984D01*
X16074372Y-15301984D02*
X16055325Y-15301984D01*
X16055325Y-15301984D02*
X16036277Y-15292460D01*
X16036277Y-15292460D02*
X16026753Y-15282936D01*
X16026753Y-15282936D02*
X16017229Y-15263888D01*
X16017229Y-15263888D02*
X16007706Y-15225793D01*
X16007706Y-15225793D02*
X16007706Y-15178174D01*
X16007706Y-15178174D02*
X16017229Y-15140079D01*
X16017229Y-15140079D02*
X16026753Y-15121031D01*
X16026753Y-15121031D02*
X16036277Y-15111508D01*
X16036277Y-15111508D02*
X16055325Y-15101984D01*
X16360087Y-15301984D02*
X16360087Y-15101984D01*
X16445801Y-15301984D02*
X16445801Y-15197222D01*
X16445801Y-15197222D02*
X16436277Y-15178174D01*
X16436277Y-15178174D02*
X16417230Y-15168650D01*
X16417230Y-15168650D02*
X16388658Y-15168650D01*
X16388658Y-15168650D02*
X16369610Y-15178174D01*
X16369610Y-15178174D02*
X16360087Y-15187698D01*
X16569610Y-15301984D02*
X16550563Y-15292460D01*
X16550563Y-15292460D02*
X16541039Y-15282936D01*
X16541039Y-15282936D02*
X16531515Y-15263888D01*
X16531515Y-15263888D02*
X16531515Y-15206746D01*
X16531515Y-15206746D02*
X16541039Y-15187698D01*
X16541039Y-15187698D02*
X16550563Y-15178174D01*
X16550563Y-15178174D02*
X16569610Y-15168650D01*
X16569610Y-15168650D02*
X16598182Y-15168650D01*
X16598182Y-15168650D02*
X16617230Y-15178174D01*
X16617230Y-15178174D02*
X16626753Y-15187698D01*
X16626753Y-15187698D02*
X16636277Y-15206746D01*
X16636277Y-15206746D02*
X16636277Y-15263888D01*
X16636277Y-15263888D02*
X16626753Y-15282936D01*
X16626753Y-15282936D02*
X16617230Y-15292460D01*
X16617230Y-15292460D02*
X16598182Y-15301984D01*
X16598182Y-15301984D02*
X16569610Y-15301984D01*
X16750563Y-15301984D02*
X16731515Y-15292460D01*
X16731515Y-15292460D02*
X16721991Y-15273412D01*
X16721991Y-15273412D02*
X16721991Y-15101984D01*
X16902944Y-15292460D02*
X16883896Y-15301984D01*
X16883896Y-15301984D02*
X16845801Y-15301984D01*
X16845801Y-15301984D02*
X16826753Y-15292460D01*
X16826753Y-15292460D02*
X16817230Y-15273412D01*
X16817230Y-15273412D02*
X16817230Y-15197222D01*
X16817230Y-15197222D02*
X16826753Y-15178174D01*
X16826753Y-15178174D02*
X16845801Y-15168650D01*
X16845801Y-15168650D02*
X16883896Y-15168650D01*
X16883896Y-15168650D02*
X16902944Y-15178174D01*
X16902944Y-15178174D02*
X16912468Y-15197222D01*
X16912468Y-15197222D02*
X16912468Y-15216269D01*
X16912468Y-15216269D02*
X16817230Y-15235317D01*
X16988658Y-15292460D02*
X17007706Y-15301984D01*
X17007706Y-15301984D02*
X17045801Y-15301984D01*
X17045801Y-15301984D02*
X17064849Y-15292460D01*
X17064849Y-15292460D02*
X17074373Y-15273412D01*
X17074373Y-15273412D02*
X17074373Y-15263888D01*
X17074373Y-15263888D02*
X17064849Y-15244841D01*
X17064849Y-15244841D02*
X17045801Y-15235317D01*
X17045801Y-15235317D02*
X17017230Y-15235317D01*
X17017230Y-15235317D02*
X16998182Y-15225793D01*
X16998182Y-15225793D02*
X16988658Y-15206746D01*
X16988658Y-15206746D02*
X16988658Y-15197222D01*
X16988658Y-15197222D02*
X16998182Y-15178174D01*
X16998182Y-15178174D02*
X17017230Y-15168650D01*
X17017230Y-15168650D02*
X17045801Y-15168650D01*
X17045801Y-15168650D02*
X17064849Y-15178174D01*
X17141039Y-15378174D02*
X17150563Y-15368650D01*
X17150563Y-15368650D02*
X17169611Y-15340079D01*
X17169611Y-15340079D02*
X17179134Y-15321031D01*
X17179134Y-15321031D02*
X17188658Y-15292460D01*
X17188658Y-15292460D02*
X17198182Y-15244841D01*
X17198182Y-15244841D02*
X17198182Y-15206746D01*
X17198182Y-15206746D02*
X17188658Y-15159127D01*
X17188658Y-15159127D02*
X17179134Y-15130555D01*
X17179134Y-15130555D02*
X17169611Y-15111508D01*
X17169611Y-15111508D02*
X17150563Y-15082936D01*
X17150563Y-15082936D02*
X17141039Y-15073412D01*
D13*
X12158952Y-15514452D02*
X12158952Y-15434548D01*
X12079048Y-15434548D01*
X12079048Y-15514452D01*
X12158952Y-15514452D01*
D11*
X12541039Y-15565984D02*
X12426753Y-15565984D01*
X12483896Y-15565984D02*
X12483896Y-15365984D01*
X12483896Y-15365984D02*
X12464848Y-15394555D01*
X12464848Y-15394555D02*
X12445801Y-15413603D01*
X12445801Y-15413603D02*
X12426753Y-15423127D01*
X12626753Y-15546936D02*
X12636277Y-15556460D01*
X12636277Y-15556460D02*
X12626753Y-15565984D01*
X12626753Y-15565984D02*
X12617229Y-15556460D01*
X12617229Y-15556460D02*
X12626753Y-15546936D01*
X12626753Y-15546936D02*
X12626753Y-15565984D01*
X12826753Y-15565984D02*
X12712467Y-15565984D01*
X12769610Y-15565984D02*
X12769610Y-15365984D01*
X12769610Y-15365984D02*
X12750562Y-15394555D01*
X12750562Y-15394555D02*
X12731515Y-15413603D01*
X12731515Y-15413603D02*
X12712467Y-15423127D01*
X12893420Y-15365984D02*
X13017229Y-15365984D01*
X13017229Y-15365984D02*
X12950562Y-15442174D01*
X12950562Y-15442174D02*
X12979134Y-15442174D01*
X12979134Y-15442174D02*
X12998182Y-15451698D01*
X12998182Y-15451698D02*
X13007705Y-15461222D01*
X13007705Y-15461222D02*
X13017229Y-15480269D01*
X13017229Y-15480269D02*
X13017229Y-15527888D01*
X13017229Y-15527888D02*
X13007705Y-15546936D01*
X13007705Y-15546936D02*
X12998182Y-15556460D01*
X12998182Y-15556460D02*
X12979134Y-15565984D01*
X12979134Y-15565984D02*
X12921991Y-15565984D01*
X12921991Y-15565984D02*
X12902943Y-15556460D01*
X12902943Y-15556460D02*
X12893420Y-15546936D01*
X13141039Y-15365984D02*
X13160086Y-15365984D01*
X13160086Y-15365984D02*
X13179134Y-15375508D01*
X13179134Y-15375508D02*
X13188658Y-15385031D01*
X13188658Y-15385031D02*
X13198182Y-15404079D01*
X13198182Y-15404079D02*
X13207705Y-15442174D01*
X13207705Y-15442174D02*
X13207705Y-15489793D01*
X13207705Y-15489793D02*
X13198182Y-15527888D01*
X13198182Y-15527888D02*
X13188658Y-15546936D01*
X13188658Y-15546936D02*
X13179134Y-15556460D01*
X13179134Y-15556460D02*
X13160086Y-15565984D01*
X13160086Y-15565984D02*
X13141039Y-15565984D01*
X13141039Y-15565984D02*
X13121991Y-15556460D01*
X13121991Y-15556460D02*
X13112467Y-15546936D01*
X13112467Y-15546936D02*
X13102943Y-15527888D01*
X13102943Y-15527888D02*
X13093420Y-15489793D01*
X13093420Y-15489793D02*
X13093420Y-15442174D01*
X13093420Y-15442174D02*
X13102943Y-15404079D01*
X13102943Y-15404079D02*
X13112467Y-15385031D01*
X13112467Y-15385031D02*
X13121991Y-15375508D01*
X13121991Y-15375508D02*
X13141039Y-15365984D01*
X13293420Y-15565984D02*
X13293420Y-15432650D01*
X13293420Y-15451698D02*
X13302943Y-15442174D01*
X13302943Y-15442174D02*
X13321991Y-15432650D01*
X13321991Y-15432650D02*
X13350563Y-15432650D01*
X13350563Y-15432650D02*
X13369610Y-15442174D01*
X13369610Y-15442174D02*
X13379134Y-15461222D01*
X13379134Y-15461222D02*
X13379134Y-15565984D01*
X13379134Y-15461222D02*
X13388658Y-15442174D01*
X13388658Y-15442174D02*
X13407705Y-15432650D01*
X13407705Y-15432650D02*
X13436277Y-15432650D01*
X13436277Y-15432650D02*
X13455324Y-15442174D01*
X13455324Y-15442174D02*
X13464848Y-15461222D01*
X13464848Y-15461222D02*
X13464848Y-15565984D01*
X13560086Y-15565984D02*
X13560086Y-15432650D01*
X13560086Y-15451698D02*
X13569610Y-15442174D01*
X13569610Y-15442174D02*
X13588658Y-15432650D01*
X13588658Y-15432650D02*
X13617229Y-15432650D01*
X13617229Y-15432650D02*
X13636277Y-15442174D01*
X13636277Y-15442174D02*
X13645801Y-15461222D01*
X13645801Y-15461222D02*
X13645801Y-15565984D01*
X13645801Y-15461222D02*
X13655324Y-15442174D01*
X13655324Y-15442174D02*
X13674372Y-15432650D01*
X13674372Y-15432650D02*
X13702943Y-15432650D01*
X13702943Y-15432650D02*
X13721991Y-15442174D01*
X13721991Y-15442174D02*
X13731515Y-15461222D01*
X13731515Y-15461222D02*
X13731515Y-15565984D01*
X14121991Y-15356460D02*
X13950563Y-15613603D01*
X14379134Y-15365984D02*
X14398182Y-15365984D01*
X14398182Y-15365984D02*
X14417229Y-15375508D01*
X14417229Y-15375508D02*
X14426753Y-15385031D01*
X14426753Y-15385031D02*
X14436277Y-15404079D01*
X14436277Y-15404079D02*
X14445801Y-15442174D01*
X14445801Y-15442174D02*
X14445801Y-15489793D01*
X14445801Y-15489793D02*
X14436277Y-15527888D01*
X14436277Y-15527888D02*
X14426753Y-15546936D01*
X14426753Y-15546936D02*
X14417229Y-15556460D01*
X14417229Y-15556460D02*
X14398182Y-15565984D01*
X14398182Y-15565984D02*
X14379134Y-15565984D01*
X14379134Y-15565984D02*
X14360086Y-15556460D01*
X14360086Y-15556460D02*
X14350563Y-15546936D01*
X14350563Y-15546936D02*
X14341039Y-15527888D01*
X14341039Y-15527888D02*
X14331515Y-15489793D01*
X14331515Y-15489793D02*
X14331515Y-15442174D01*
X14331515Y-15442174D02*
X14341039Y-15404079D01*
X14341039Y-15404079D02*
X14350563Y-15385031D01*
X14350563Y-15385031D02*
X14360086Y-15375508D01*
X14360086Y-15375508D02*
X14379134Y-15365984D01*
X14531515Y-15546936D02*
X14541039Y-15556460D01*
X14541039Y-15556460D02*
X14531515Y-15565984D01*
X14531515Y-15565984D02*
X14521991Y-15556460D01*
X14521991Y-15556460D02*
X14531515Y-15546936D01*
X14531515Y-15546936D02*
X14531515Y-15565984D01*
X14664848Y-15365984D02*
X14683896Y-15365984D01*
X14683896Y-15365984D02*
X14702944Y-15375508D01*
X14702944Y-15375508D02*
X14712467Y-15385031D01*
X14712467Y-15385031D02*
X14721991Y-15404079D01*
X14721991Y-15404079D02*
X14731515Y-15442174D01*
X14731515Y-15442174D02*
X14731515Y-15489793D01*
X14731515Y-15489793D02*
X14721991Y-15527888D01*
X14721991Y-15527888D02*
X14712467Y-15546936D01*
X14712467Y-15546936D02*
X14702944Y-15556460D01*
X14702944Y-15556460D02*
X14683896Y-15565984D01*
X14683896Y-15565984D02*
X14664848Y-15565984D01*
X14664848Y-15565984D02*
X14645801Y-15556460D01*
X14645801Y-15556460D02*
X14636277Y-15546936D01*
X14636277Y-15546936D02*
X14626753Y-15527888D01*
X14626753Y-15527888D02*
X14617229Y-15489793D01*
X14617229Y-15489793D02*
X14617229Y-15442174D01*
X14617229Y-15442174D02*
X14626753Y-15404079D01*
X14626753Y-15404079D02*
X14636277Y-15385031D01*
X14636277Y-15385031D02*
X14645801Y-15375508D01*
X14645801Y-15375508D02*
X14664848Y-15365984D01*
X14902944Y-15432650D02*
X14902944Y-15565984D01*
X14855325Y-15356460D02*
X14807706Y-15499317D01*
X14807706Y-15499317D02*
X14931515Y-15499317D01*
X15093420Y-15432650D02*
X15093420Y-15565984D01*
X15045801Y-15356460D02*
X14998182Y-15499317D01*
X14998182Y-15499317D02*
X15121991Y-15499317D01*
X15293420Y-15365984D02*
X15198182Y-15365984D01*
X15198182Y-15365984D02*
X15188658Y-15461222D01*
X15188658Y-15461222D02*
X15198182Y-15451698D01*
X15198182Y-15451698D02*
X15217229Y-15442174D01*
X15217229Y-15442174D02*
X15264848Y-15442174D01*
X15264848Y-15442174D02*
X15283896Y-15451698D01*
X15283896Y-15451698D02*
X15293420Y-15461222D01*
X15293420Y-15461222D02*
X15302944Y-15480269D01*
X15302944Y-15480269D02*
X15302944Y-15527888D01*
X15302944Y-15527888D02*
X15293420Y-15546936D01*
X15293420Y-15546936D02*
X15283896Y-15556460D01*
X15283896Y-15556460D02*
X15264848Y-15565984D01*
X15264848Y-15565984D02*
X15217229Y-15565984D01*
X15217229Y-15565984D02*
X15198182Y-15556460D01*
X15198182Y-15556460D02*
X15188658Y-15546936D01*
X15379134Y-15365984D02*
X15379134Y-15404079D01*
X15455325Y-15365984D02*
X15455325Y-15404079D01*
X15750563Y-15642174D02*
X15741039Y-15632650D01*
X15741039Y-15632650D02*
X15721991Y-15604079D01*
X15721991Y-15604079D02*
X15712468Y-15585031D01*
X15712468Y-15585031D02*
X15702944Y-15556460D01*
X15702944Y-15556460D02*
X15693420Y-15508841D01*
X15693420Y-15508841D02*
X15693420Y-15470746D01*
X15693420Y-15470746D02*
X15702944Y-15423127D01*
X15702944Y-15423127D02*
X15712468Y-15394555D01*
X15712468Y-15394555D02*
X15721991Y-15375508D01*
X15721991Y-15375508D02*
X15741039Y-15346936D01*
X15741039Y-15346936D02*
X15750563Y-15337412D01*
X15931515Y-15565984D02*
X15817229Y-15565984D01*
X15874372Y-15565984D02*
X15874372Y-15365984D01*
X15874372Y-15365984D02*
X15855325Y-15394555D01*
X15855325Y-15394555D02*
X15836277Y-15413603D01*
X15836277Y-15413603D02*
X15817229Y-15423127D01*
X16112468Y-15365984D02*
X16017229Y-15365984D01*
X16017229Y-15365984D02*
X16007706Y-15461222D01*
X16007706Y-15461222D02*
X16017229Y-15451698D01*
X16017229Y-15451698D02*
X16036277Y-15442174D01*
X16036277Y-15442174D02*
X16083896Y-15442174D01*
X16083896Y-15442174D02*
X16102944Y-15451698D01*
X16102944Y-15451698D02*
X16112468Y-15461222D01*
X16112468Y-15461222D02*
X16121991Y-15480269D01*
X16121991Y-15480269D02*
X16121991Y-15527888D01*
X16121991Y-15527888D02*
X16112468Y-15546936D01*
X16112468Y-15546936D02*
X16102944Y-15556460D01*
X16102944Y-15556460D02*
X16083896Y-15565984D01*
X16083896Y-15565984D02*
X16036277Y-15565984D01*
X16036277Y-15565984D02*
X16017229Y-15556460D01*
X16017229Y-15556460D02*
X16007706Y-15546936D01*
X16360087Y-15565984D02*
X16360087Y-15365984D01*
X16445801Y-15565984D02*
X16445801Y-15461222D01*
X16445801Y-15461222D02*
X16436277Y-15442174D01*
X16436277Y-15442174D02*
X16417230Y-15432650D01*
X16417230Y-15432650D02*
X16388658Y-15432650D01*
X16388658Y-15432650D02*
X16369610Y-15442174D01*
X16369610Y-15442174D02*
X16360087Y-15451698D01*
X16569610Y-15565984D02*
X16550563Y-15556460D01*
X16550563Y-15556460D02*
X16541039Y-15546936D01*
X16541039Y-15546936D02*
X16531515Y-15527888D01*
X16531515Y-15527888D02*
X16531515Y-15470746D01*
X16531515Y-15470746D02*
X16541039Y-15451698D01*
X16541039Y-15451698D02*
X16550563Y-15442174D01*
X16550563Y-15442174D02*
X16569610Y-15432650D01*
X16569610Y-15432650D02*
X16598182Y-15432650D01*
X16598182Y-15432650D02*
X16617230Y-15442174D01*
X16617230Y-15442174D02*
X16626753Y-15451698D01*
X16626753Y-15451698D02*
X16636277Y-15470746D01*
X16636277Y-15470746D02*
X16636277Y-15527888D01*
X16636277Y-15527888D02*
X16626753Y-15546936D01*
X16626753Y-15546936D02*
X16617230Y-15556460D01*
X16617230Y-15556460D02*
X16598182Y-15565984D01*
X16598182Y-15565984D02*
X16569610Y-15565984D01*
X16750563Y-15565984D02*
X16731515Y-15556460D01*
X16731515Y-15556460D02*
X16721991Y-15537412D01*
X16721991Y-15537412D02*
X16721991Y-15365984D01*
X16902944Y-15556460D02*
X16883896Y-15565984D01*
X16883896Y-15565984D02*
X16845801Y-15565984D01*
X16845801Y-15565984D02*
X16826753Y-15556460D01*
X16826753Y-15556460D02*
X16817230Y-15537412D01*
X16817230Y-15537412D02*
X16817230Y-15461222D01*
X16817230Y-15461222D02*
X16826753Y-15442174D01*
X16826753Y-15442174D02*
X16845801Y-15432650D01*
X16845801Y-15432650D02*
X16883896Y-15432650D01*
X16883896Y-15432650D02*
X16902944Y-15442174D01*
X16902944Y-15442174D02*
X16912468Y-15461222D01*
X16912468Y-15461222D02*
X16912468Y-15480269D01*
X16912468Y-15480269D02*
X16817230Y-15499317D01*
X16988658Y-15556460D02*
X17007706Y-15565984D01*
X17007706Y-15565984D02*
X17045801Y-15565984D01*
X17045801Y-15565984D02*
X17064849Y-15556460D01*
X17064849Y-15556460D02*
X17074373Y-15537412D01*
X17074373Y-15537412D02*
X17074373Y-15527888D01*
X17074373Y-15527888D02*
X17064849Y-15508841D01*
X17064849Y-15508841D02*
X17045801Y-15499317D01*
X17045801Y-15499317D02*
X17017230Y-15499317D01*
X17017230Y-15499317D02*
X16998182Y-15489793D01*
X16998182Y-15489793D02*
X16988658Y-15470746D01*
X16988658Y-15470746D02*
X16988658Y-15461222D01*
X16988658Y-15461222D02*
X16998182Y-15442174D01*
X16998182Y-15442174D02*
X17017230Y-15432650D01*
X17017230Y-15432650D02*
X17045801Y-15432650D01*
X17045801Y-15432650D02*
X17064849Y-15442174D01*
X17141039Y-15642174D02*
X17150563Y-15632650D01*
X17150563Y-15632650D02*
X17169611Y-15604079D01*
X17169611Y-15604079D02*
X17179134Y-15585031D01*
X17179134Y-15585031D02*
X17188658Y-15556460D01*
X17188658Y-15556460D02*
X17198182Y-15508841D01*
X17198182Y-15508841D02*
X17198182Y-15470746D01*
X17198182Y-15470746D02*
X17188658Y-15423127D01*
X17188658Y-15423127D02*
X17179134Y-15394555D01*
X17179134Y-15394555D02*
X17169611Y-15375508D01*
X17169611Y-15375508D02*
X17150563Y-15346936D01*
X17150563Y-15346936D02*
X17141039Y-15337412D01*
X12075500Y-15838500D02*
X12175500Y-15738500D01*
X12075500Y-15638500D01*
X11975500Y-15738500D01*
X12075500Y-15838500D01*
X12417229Y-15629984D02*
X12541039Y-15629984D01*
X12541039Y-15629984D02*
X12474372Y-15706174D01*
X12474372Y-15706174D02*
X12502943Y-15706174D01*
X12502943Y-15706174D02*
X12521991Y-15715698D01*
X12521991Y-15715698D02*
X12531515Y-15725222D01*
X12531515Y-15725222D02*
X12541039Y-15744269D01*
X12541039Y-15744269D02*
X12541039Y-15791888D01*
X12541039Y-15791888D02*
X12531515Y-15810936D01*
X12531515Y-15810936D02*
X12521991Y-15820460D01*
X12521991Y-15820460D02*
X12502943Y-15829984D01*
X12502943Y-15829984D02*
X12445801Y-15829984D01*
X12445801Y-15829984D02*
X12426753Y-15820460D01*
X12426753Y-15820460D02*
X12417229Y-15810936D01*
X12626753Y-15810936D02*
X12636277Y-15820460D01*
X12636277Y-15820460D02*
X12626753Y-15829984D01*
X12626753Y-15829984D02*
X12617229Y-15820460D01*
X12617229Y-15820460D02*
X12626753Y-15810936D01*
X12626753Y-15810936D02*
X12626753Y-15829984D01*
X12712467Y-15649031D02*
X12721991Y-15639508D01*
X12721991Y-15639508D02*
X12741039Y-15629984D01*
X12741039Y-15629984D02*
X12788658Y-15629984D01*
X12788658Y-15629984D02*
X12807705Y-15639508D01*
X12807705Y-15639508D02*
X12817229Y-15649031D01*
X12817229Y-15649031D02*
X12826753Y-15668079D01*
X12826753Y-15668079D02*
X12826753Y-15687127D01*
X12826753Y-15687127D02*
X12817229Y-15715698D01*
X12817229Y-15715698D02*
X12702943Y-15829984D01*
X12702943Y-15829984D02*
X12826753Y-15829984D01*
X12893420Y-15629984D02*
X13017229Y-15629984D01*
X13017229Y-15629984D02*
X12950562Y-15706174D01*
X12950562Y-15706174D02*
X12979134Y-15706174D01*
X12979134Y-15706174D02*
X12998182Y-15715698D01*
X12998182Y-15715698D02*
X13007705Y-15725222D01*
X13007705Y-15725222D02*
X13017229Y-15744269D01*
X13017229Y-15744269D02*
X13017229Y-15791888D01*
X13017229Y-15791888D02*
X13007705Y-15810936D01*
X13007705Y-15810936D02*
X12998182Y-15820460D01*
X12998182Y-15820460D02*
X12979134Y-15829984D01*
X12979134Y-15829984D02*
X12921991Y-15829984D01*
X12921991Y-15829984D02*
X12902943Y-15820460D01*
X12902943Y-15820460D02*
X12893420Y-15810936D01*
X13141039Y-15629984D02*
X13160086Y-15629984D01*
X13160086Y-15629984D02*
X13179134Y-15639508D01*
X13179134Y-15639508D02*
X13188658Y-15649031D01*
X13188658Y-15649031D02*
X13198182Y-15668079D01*
X13198182Y-15668079D02*
X13207705Y-15706174D01*
X13207705Y-15706174D02*
X13207705Y-15753793D01*
X13207705Y-15753793D02*
X13198182Y-15791888D01*
X13198182Y-15791888D02*
X13188658Y-15810936D01*
X13188658Y-15810936D02*
X13179134Y-15820460D01*
X13179134Y-15820460D02*
X13160086Y-15829984D01*
X13160086Y-15829984D02*
X13141039Y-15829984D01*
X13141039Y-15829984D02*
X13121991Y-15820460D01*
X13121991Y-15820460D02*
X13112467Y-15810936D01*
X13112467Y-15810936D02*
X13102943Y-15791888D01*
X13102943Y-15791888D02*
X13093420Y-15753793D01*
X13093420Y-15753793D02*
X13093420Y-15706174D01*
X13093420Y-15706174D02*
X13102943Y-15668079D01*
X13102943Y-15668079D02*
X13112467Y-15649031D01*
X13112467Y-15649031D02*
X13121991Y-15639508D01*
X13121991Y-15639508D02*
X13141039Y-15629984D01*
X13293420Y-15829984D02*
X13293420Y-15696650D01*
X13293420Y-15715698D02*
X13302943Y-15706174D01*
X13302943Y-15706174D02*
X13321991Y-15696650D01*
X13321991Y-15696650D02*
X13350563Y-15696650D01*
X13350563Y-15696650D02*
X13369610Y-15706174D01*
X13369610Y-15706174D02*
X13379134Y-15725222D01*
X13379134Y-15725222D02*
X13379134Y-15829984D01*
X13379134Y-15725222D02*
X13388658Y-15706174D01*
X13388658Y-15706174D02*
X13407705Y-15696650D01*
X13407705Y-15696650D02*
X13436277Y-15696650D01*
X13436277Y-15696650D02*
X13455324Y-15706174D01*
X13455324Y-15706174D02*
X13464848Y-15725222D01*
X13464848Y-15725222D02*
X13464848Y-15829984D01*
X13560086Y-15829984D02*
X13560086Y-15696650D01*
X13560086Y-15715698D02*
X13569610Y-15706174D01*
X13569610Y-15706174D02*
X13588658Y-15696650D01*
X13588658Y-15696650D02*
X13617229Y-15696650D01*
X13617229Y-15696650D02*
X13636277Y-15706174D01*
X13636277Y-15706174D02*
X13645801Y-15725222D01*
X13645801Y-15725222D02*
X13645801Y-15829984D01*
X13645801Y-15725222D02*
X13655324Y-15706174D01*
X13655324Y-15706174D02*
X13674372Y-15696650D01*
X13674372Y-15696650D02*
X13702943Y-15696650D01*
X13702943Y-15696650D02*
X13721991Y-15706174D01*
X13721991Y-15706174D02*
X13731515Y-15725222D01*
X13731515Y-15725222D02*
X13731515Y-15829984D01*
X14121991Y-15620460D02*
X13950563Y-15877603D01*
X14379134Y-15629984D02*
X14398182Y-15629984D01*
X14398182Y-15629984D02*
X14417229Y-15639508D01*
X14417229Y-15639508D02*
X14426753Y-15649031D01*
X14426753Y-15649031D02*
X14436277Y-15668079D01*
X14436277Y-15668079D02*
X14445801Y-15706174D01*
X14445801Y-15706174D02*
X14445801Y-15753793D01*
X14445801Y-15753793D02*
X14436277Y-15791888D01*
X14436277Y-15791888D02*
X14426753Y-15810936D01*
X14426753Y-15810936D02*
X14417229Y-15820460D01*
X14417229Y-15820460D02*
X14398182Y-15829984D01*
X14398182Y-15829984D02*
X14379134Y-15829984D01*
X14379134Y-15829984D02*
X14360086Y-15820460D01*
X14360086Y-15820460D02*
X14350563Y-15810936D01*
X14350563Y-15810936D02*
X14341039Y-15791888D01*
X14341039Y-15791888D02*
X14331515Y-15753793D01*
X14331515Y-15753793D02*
X14331515Y-15706174D01*
X14331515Y-15706174D02*
X14341039Y-15668079D01*
X14341039Y-15668079D02*
X14350563Y-15649031D01*
X14350563Y-15649031D02*
X14360086Y-15639508D01*
X14360086Y-15639508D02*
X14379134Y-15629984D01*
X14531515Y-15810936D02*
X14541039Y-15820460D01*
X14541039Y-15820460D02*
X14531515Y-15829984D01*
X14531515Y-15829984D02*
X14521991Y-15820460D01*
X14521991Y-15820460D02*
X14531515Y-15810936D01*
X14531515Y-15810936D02*
X14531515Y-15829984D01*
X14731515Y-15829984D02*
X14617229Y-15829984D01*
X14674372Y-15829984D02*
X14674372Y-15629984D01*
X14674372Y-15629984D02*
X14655325Y-15658555D01*
X14655325Y-15658555D02*
X14636277Y-15677603D01*
X14636277Y-15677603D02*
X14617229Y-15687127D01*
X14807706Y-15649031D02*
X14817229Y-15639508D01*
X14817229Y-15639508D02*
X14836277Y-15629984D01*
X14836277Y-15629984D02*
X14883896Y-15629984D01*
X14883896Y-15629984D02*
X14902944Y-15639508D01*
X14902944Y-15639508D02*
X14912467Y-15649031D01*
X14912467Y-15649031D02*
X14921991Y-15668079D01*
X14921991Y-15668079D02*
X14921991Y-15687127D01*
X14921991Y-15687127D02*
X14912467Y-15715698D01*
X14912467Y-15715698D02*
X14798182Y-15829984D01*
X14798182Y-15829984D02*
X14921991Y-15829984D01*
X14988658Y-15629984D02*
X15121991Y-15629984D01*
X15121991Y-15629984D02*
X15036277Y-15829984D01*
X15188658Y-15649031D02*
X15198182Y-15639508D01*
X15198182Y-15639508D02*
X15217229Y-15629984D01*
X15217229Y-15629984D02*
X15264848Y-15629984D01*
X15264848Y-15629984D02*
X15283896Y-15639508D01*
X15283896Y-15639508D02*
X15293420Y-15649031D01*
X15293420Y-15649031D02*
X15302944Y-15668079D01*
X15302944Y-15668079D02*
X15302944Y-15687127D01*
X15302944Y-15687127D02*
X15293420Y-15715698D01*
X15293420Y-15715698D02*
X15179134Y-15829984D01*
X15179134Y-15829984D02*
X15302944Y-15829984D01*
X15379134Y-15629984D02*
X15379134Y-15668079D01*
X15455325Y-15629984D02*
X15455325Y-15668079D01*
X15750563Y-15906174D02*
X15741039Y-15896650D01*
X15741039Y-15896650D02*
X15721991Y-15868079D01*
X15721991Y-15868079D02*
X15712468Y-15849031D01*
X15712468Y-15849031D02*
X15702944Y-15820460D01*
X15702944Y-15820460D02*
X15693420Y-15772841D01*
X15693420Y-15772841D02*
X15693420Y-15734746D01*
X15693420Y-15734746D02*
X15702944Y-15687127D01*
X15702944Y-15687127D02*
X15712468Y-15658555D01*
X15712468Y-15658555D02*
X15721991Y-15639508D01*
X15721991Y-15639508D02*
X15741039Y-15610936D01*
X15741039Y-15610936D02*
X15750563Y-15601412D01*
X15817229Y-15649031D02*
X15826753Y-15639508D01*
X15826753Y-15639508D02*
X15845801Y-15629984D01*
X15845801Y-15629984D02*
X15893420Y-15629984D01*
X15893420Y-15629984D02*
X15912468Y-15639508D01*
X15912468Y-15639508D02*
X15921991Y-15649031D01*
X15921991Y-15649031D02*
X15931515Y-15668079D01*
X15931515Y-15668079D02*
X15931515Y-15687127D01*
X15931515Y-15687127D02*
X15921991Y-15715698D01*
X15921991Y-15715698D02*
X15807706Y-15829984D01*
X15807706Y-15829984D02*
X15931515Y-15829984D01*
X16169610Y-15829984D02*
X16169610Y-15629984D01*
X16255325Y-15829984D02*
X16255325Y-15725222D01*
X16255325Y-15725222D02*
X16245801Y-15706174D01*
X16245801Y-15706174D02*
X16226753Y-15696650D01*
X16226753Y-15696650D02*
X16198182Y-15696650D01*
X16198182Y-15696650D02*
X16179134Y-15706174D01*
X16179134Y-15706174D02*
X16169610Y-15715698D01*
X16379134Y-15829984D02*
X16360087Y-15820460D01*
X16360087Y-15820460D02*
X16350563Y-15810936D01*
X16350563Y-15810936D02*
X16341039Y-15791888D01*
X16341039Y-15791888D02*
X16341039Y-15734746D01*
X16341039Y-15734746D02*
X16350563Y-15715698D01*
X16350563Y-15715698D02*
X16360087Y-15706174D01*
X16360087Y-15706174D02*
X16379134Y-15696650D01*
X16379134Y-15696650D02*
X16407706Y-15696650D01*
X16407706Y-15696650D02*
X16426753Y-15706174D01*
X16426753Y-15706174D02*
X16436277Y-15715698D01*
X16436277Y-15715698D02*
X16445801Y-15734746D01*
X16445801Y-15734746D02*
X16445801Y-15791888D01*
X16445801Y-15791888D02*
X16436277Y-15810936D01*
X16436277Y-15810936D02*
X16426753Y-15820460D01*
X16426753Y-15820460D02*
X16407706Y-15829984D01*
X16407706Y-15829984D02*
X16379134Y-15829984D01*
X16560087Y-15829984D02*
X16541039Y-15820460D01*
X16541039Y-15820460D02*
X16531515Y-15801412D01*
X16531515Y-15801412D02*
X16531515Y-15629984D01*
X16712468Y-15820460D02*
X16693420Y-15829984D01*
X16693420Y-15829984D02*
X16655325Y-15829984D01*
X16655325Y-15829984D02*
X16636277Y-15820460D01*
X16636277Y-15820460D02*
X16626753Y-15801412D01*
X16626753Y-15801412D02*
X16626753Y-15725222D01*
X16626753Y-15725222D02*
X16636277Y-15706174D01*
X16636277Y-15706174D02*
X16655325Y-15696650D01*
X16655325Y-15696650D02*
X16693420Y-15696650D01*
X16693420Y-15696650D02*
X16712468Y-15706174D01*
X16712468Y-15706174D02*
X16721991Y-15725222D01*
X16721991Y-15725222D02*
X16721991Y-15744269D01*
X16721991Y-15744269D02*
X16626753Y-15763317D01*
X16798182Y-15820460D02*
X16817230Y-15829984D01*
X16817230Y-15829984D02*
X16855325Y-15829984D01*
X16855325Y-15829984D02*
X16874373Y-15820460D01*
X16874373Y-15820460D02*
X16883896Y-15801412D01*
X16883896Y-15801412D02*
X16883896Y-15791888D01*
X16883896Y-15791888D02*
X16874373Y-15772841D01*
X16874373Y-15772841D02*
X16855325Y-15763317D01*
X16855325Y-15763317D02*
X16826753Y-15763317D01*
X16826753Y-15763317D02*
X16807706Y-15753793D01*
X16807706Y-15753793D02*
X16798182Y-15734746D01*
X16798182Y-15734746D02*
X16798182Y-15725222D01*
X16798182Y-15725222D02*
X16807706Y-15706174D01*
X16807706Y-15706174D02*
X16826753Y-15696650D01*
X16826753Y-15696650D02*
X16855325Y-15696650D01*
X16855325Y-15696650D02*
X16874373Y-15706174D01*
X16950563Y-15906174D02*
X16960087Y-15896650D01*
X16960087Y-15896650D02*
X16979134Y-15868079D01*
X16979134Y-15868079D02*
X16988658Y-15849031D01*
X16988658Y-15849031D02*
X16998182Y-15820460D01*
X16998182Y-15820460D02*
X17007706Y-15772841D01*
X17007706Y-15772841D02*
X17007706Y-15734746D01*
X17007706Y-15734746D02*
X16998182Y-15687127D01*
X16998182Y-15687127D02*
X16988658Y-15658555D01*
X16988658Y-15658555D02*
X16979134Y-15639508D01*
X16979134Y-15639508D02*
X16960087Y-15610936D01*
X16960087Y-15610936D02*
X16950563Y-15601412D01*
M02*
