M48
; DRILL file {KiCad 8.0.5-dirty} date 2025-01-08T08:14:31-0800
; FORMAT={-:-/ absolute / inch / decimal}
; #@! TF.CreationDate,2025-01-08T08:14:31-08:00
; #@! TF.GenerationSoftware,Kicad,Pcbnew,8.0.5-dirty
; #@! TF.FileFunction,Plated,1,4,PTH
FMAT,2
INCH
; #@! TA.AperFunction,Plated,PTH,ViaDrill
T1C0.0157
; #@! TA.AperFunction,Plated,PTH,ComponentDrill
T2C0.0256
; #@! TA.AperFunction,Plated,PTH,ComponentDrill
T3C0.0394
; #@! TA.AperFunction,Plated,PTH,ComponentDrill
T4C0.0445
; #@! TA.AperFunction,Plated,PTH,ComponentDrill
T5C0.1272
%
G90
G05
T1
X1.5453Y-2.9528
X1.5453Y-3.1142
X1.5453Y-3.2677
X1.5453Y-3.4291
X1.5453Y-3.5984
X1.5453Y-3.7638
X1.5453Y-3.9252
X1.5453Y-4.0906
X1.5453Y-4.248
X1.5453Y-4.4094
X1.5453Y-4.5748
X1.5453Y-4.7362
X1.5453Y-4.9016
X1.5453Y-5.0591
X1.59Y-5.2067
X1.6043Y-2.8839
X1.6496Y-4.9745
X1.6535Y-2.8248
X1.7126Y-5.2126
X1.7185Y-5.1122
X1.7559Y-2.8248
X1.7717Y-3.4252
X1.7913Y-5.2067
X1.811Y-3.4646
X1.8465Y-4.9365
X1.8483Y-4.8903
X1.8504Y-3.3071
X1.8504Y-3.4921
X1.8583Y-5.1132
X1.8898Y-3.5039
X1.89Y-5.2124
X1.9094Y-2.8248
X1.9291Y-3.5039
X1.9685Y-3.5039
X1.9685Y-4.7693
X1.9975Y-4.9005
X2.0079Y-3.3071
X2.0079Y-3.4921
X2.0257Y-4.8699
X2.0472Y-3.4646
X2.0709Y-2.8248
X2.0866Y-3.4252
X2.1145Y-4.6948
X2.1148Y-4.6535
X2.1161Y-5.1594
X2.1319Y-4.0787
X2.1485Y-4.0409
X2.1664Y-4.0036
X2.1816Y-3.9652
X2.1929Y-4.4764
X2.1966Y-3.9267
X2.2156Y-3.8899
X2.231Y-3.8516
X2.2392Y-4.5098
X2.2402Y-2.8248
X2.2507Y-3.8143
X2.2789Y-3.7841
X2.2859Y-3.7434
X2.2896Y-5.2146
X2.323Y-3.7252
X2.3425Y-4.8819
X2.4055Y-2.8248
X2.4183Y-4.9577
X2.4201Y-5.2067
X2.4222Y-3.7085
X2.4371Y-5.169
X2.4419Y-3.6698
X2.4481Y-5.1292
X2.4592Y-5.0894
X2.4606Y-4.9016
X2.4646Y-3.624
X2.474Y-5.0493
X2.4843Y-3.5853
X2.5039Y-3.5138
X2.5236Y-3.4765
X2.5433Y-3.4397
X2.5591Y-4.2923
X2.5591Y-5.1693
X2.56Y-5.1099
X2.563Y-3.3986
X2.5669Y-2.8248
X2.5823Y-3.3618
X2.6017Y-3.3253
X2.6181Y-3.2874
X2.6211Y-5.1555
X2.6387Y-3.2391
X2.6573Y-3.1927
X2.6673Y-3.1395
X2.6777Y-3.0915
X2.6821Y-5.0516
X2.7165Y-3.0719
X2.7205Y-5.2185
X2.7323Y-2.8248
X2.7411Y-4.5876
X2.7449Y-5.0955
X2.8061Y-5.2106
X2.8081Y-5.1211
X2.8243Y-4.4798
X2.8591Y-5.1773
X2.8898Y-2.8248
X2.9201Y-5.0909
X2.937Y-4.5157
X2.9606Y-4.5866
X2.9724Y-5.1417
X3.0103Y-5.0697
X3.0315Y-2.8248
X3.0315Y-3.8091
X3.0668Y-2.8612
X3.0701Y-5.0954
X3.1Y-2.8858
X3.1093Y-5.1564
X3.1102Y-4.5965
X3.1364Y-2.9055
X3.1436Y-5.0147
X3.1437Y-5.1299
X3.1688Y-4.5871
X3.1703Y-5.2257
X3.1727Y-2.9252
X3.1883Y-5.0131
X3.2091Y-2.9449
X3.2165Y-2.8248
X3.2244Y-4.8782
X3.2382Y-4.5571
X3.2413Y-5.2289
X3.2454Y-2.9646
X3.2657Y-4.8224
X3.2818Y-2.9843
X3.2884Y-4.857
X3.298Y-4.9565
X3.311Y-4.9173
X3.3181Y-3.0039
X3.3264Y-4.8733
X3.3313Y-5.2289
X3.3543Y-3.3701
X3.3545Y-3.0236
X3.3594Y-5.1573
X3.3594Y-5.1987
X3.3661Y-5.0984
X3.378Y-2.8248
X3.3844Y-5.0446
X3.3915Y-4.7227
X3.407Y-4.4714
X3.4071Y-5.1243
X3.4134Y-4.6744
X3.4222Y-5.2289
X3.4438Y-4.4902
X3.4478Y-4.8858
X3.4498Y-5.1981
X3.4641Y-4.4092
X3.4732Y-4.7764
X3.4835Y-4.8484
X3.5Y-4.3888
X3.5108Y-5.2146
X3.5236Y-3.7362
X3.5385Y-4.3691
X3.5433Y-2.8248
X3.5502Y-5.166
X3.5749Y-4.5954
X3.579Y-4.3494
X3.5817Y-5.2078
X3.6104Y-3.3702
X3.6161Y-4.5974
X3.6221Y-4.3297
X3.6394Y-5.1427
X3.6447Y-5.0615
X3.6566Y-4.9457
X3.6636Y-4.31
X3.6949Y-4.8726
X3.7008Y-2.8248
X3.7044Y-4.2916
X3.7047Y-4.5106
X3.7293Y-4.6222
X3.7303Y-5.0902
X3.7357Y-4.5394
X3.7499Y-4.2709
X3.7601Y-4.1028
X3.7777Y-4.5492
X3.7795Y-4.2421
X3.8007Y-4.0948
X3.8103Y-4.0526
X3.8206Y-5.2096
X3.8583Y-2.8248
X3.9201Y-5.1122
X3.9291Y-4.252
X3.9331Y-3.3701
X3.9449Y-5.0285
X3.9606Y-3.9213
X3.9665Y-4.9586
X3.9764Y-4.7343
X4.0157Y-2.8248
X4.0157Y-5.1024
X4.0201Y-5.1811
X4.0482Y-4.9568
X4.0945Y-3.3701
X4.1093Y-5.1001
X4.1417Y-5.0709
X4.1732Y-2.8248
X4.1831Y-4.5768
X4.252Y-3.3701
X4.2594Y-5.1112
X4.3189Y-4.4921
X4.3307Y-2.8248
X4.3366Y-4.1742
X4.3602Y-4.1043
X4.3799Y-4.5079
X4.3954Y-4.5767
X4.4094Y-3.3701
X4.4331Y-5.1417
X4.4587Y-4.065
X4.4587Y-4.7736
X4.4774Y-5.0315
X4.4882Y-2.8248
X4.4882Y-4.5079
X4.4886Y-4.247
X4.4933Y-4.5985
X4.5039Y-4.6772
X4.5669Y-3.3701
X4.5906Y-5.1417
X4.5965Y-4.7736
X4.6063Y-4.5079
X4.6387Y-4.6034
X4.6417Y-4.0315
X4.6417Y-4.6772
X4.6535Y-4.1732
X4.6567Y-2.8248
X4.6746Y-3.9006
X4.6752Y-3.8396
X4.6752Y-3.9616
X4.6784Y-3.7761
X4.685Y-4.8622
X4.685Y-4.9902
X4.6929Y-4.0679
X4.7016Y-4.1732
X4.7047Y-3.8091
X4.7049Y-3.8701
X4.7056Y-3.9311
X4.7082Y-3.7475
X4.7244Y-3.3701
X4.7343Y-4.5079
X4.7402Y-4.252
X4.7441Y-4.7736
X4.7559Y-5.1417
X4.774Y-4.6061
X4.7746Y-3.75
X4.7795Y-4.6772
X4.8142Y-2.8248
X4.8223Y-4.094
X4.8701Y-4.6378
X4.872Y-4.1323
X4.874Y-4.7638
X4.874Y-4.8425
X4.874Y-4.9222
X4.8819Y-3.3701
X4.9173Y-5.1417
X4.9311Y-4.5079
X4.9717Y-2.8248
X4.9902Y-4.065
X4.9902Y-4.1535
X4.999Y-3.6929
X5.0157Y-4.0266
X5.0394Y-3.3701
X5.0787Y-4.1535
X5.0827Y-5.1417
X5.1291Y-2.8248
X5.1455Y-3.7687
X5.1476Y-4.5079
X5.1654Y-4.7638
X5.1654Y-4.8425
X5.1654Y-4.9213
X5.1673Y-4.6752
X5.1732Y-3.997
X5.1969Y-4.5512
X5.2283Y-4.6024
X5.2343Y-3.3701
X5.252Y-5.1417
X5.2866Y-2.8248
X5.2913Y-4.7638
X5.2913Y-4.8425
X5.2913Y-4.9213
X5.2933Y-4.6752
X5.3346Y-4.5472
X5.3504Y-4.6102
X5.3917Y-3.3701
X5.4038Y-4.3719
X5.4091Y-4.3251
X5.4134Y-5.1417
X5.4183Y-3.7028
X5.4232Y-4.6752
X5.4252Y-4.7638
X5.4252Y-4.8425
X5.4252Y-4.9213
X5.4331Y-4.2913
X5.438Y-4.2047
X5.4436Y-4.3831
X5.4441Y-2.8248
X5.4724Y-3.7205
X5.4733Y-3.7627
X5.4737Y-3.8055
X5.4924Y-4.5178
X5.5079Y-4.252
X5.5172Y-3.8052
X5.5285Y-4.4976
X5.541Y-3.9774
X5.5433Y-4.1634
X5.5512Y-4.6752
X5.5512Y-4.7638
X5.5512Y-4.8425
X5.5512Y-4.9213
X5.5551Y-3.3701
X5.562Y-4.4734
X5.5669Y-5.1417
X5.5709Y-3.9478
X5.5807Y-3.8976
X5.5899Y-3.8573
X5.6016Y-2.8248
X5.6742Y-4.6752
X5.6742Y-4.7638
X5.6742Y-4.8425
X5.6742Y-4.9213
X5.6742Y-5.0591
X5.7047Y-3.4488
X5.7283Y-5.1417
X5.7579Y-4.4219
X5.7677Y-2.8248
X5.7933Y-4.4557
X5.8034Y-4.0418
X5.812Y-4.6752
X5.812Y-4.7638
X5.812Y-4.8425
X5.812Y-4.9213
X5.812Y-5.0591
X5.8268Y-3.5709
X5.8406Y-4.0787
X5.8406Y-4.1634
X5.8858Y-3.3701
X5.8901Y-4.0568
X5.8937Y-5.1417
X5.8957Y-4.2047
X5.9232Y-4.1437
X5.9252Y-3.6654
X5.9291Y-3.4134
X5.9449Y-2.8248
X5.9537Y-4.2461
X5.9596Y-4.6752
X5.9596Y-4.7638
X5.9596Y-4.8425
X5.9596Y-4.9213
X5.9596Y-5.0591
X5.9727Y-4.3829
X5.9941Y-3.4744
X5.998Y-3.5375
X6.0079Y-3.1024
X6.0132Y-4.2907
X6.0138Y-4.3556
X6.0276Y-3.5866
X6.0276Y-3.6378
X6.0404Y-4.3219
X6.0412Y-3.7226
X6.0443Y-3.6756
X6.0591Y-5.1417
X6.0974Y-5.0591
X6.1024Y-4.6752
X6.1024Y-4.7638
X6.1024Y-4.8425
X6.1024Y-4.9213
X6.1134Y-2.8248
X6.1791Y-3.8307
X6.2183Y-3.8439
X6.2205Y-5.1417
X6.2261Y-3.9234
X6.2343Y-3.882
X6.2474Y-3.7723
X6.2549Y-4.6752
X6.2549Y-4.7638
X6.2549Y-4.8425
X6.2549Y-4.9213
X6.2549Y-5.0591
X6.2559Y-3.3701
X6.2597Y-4.5376
X6.2628Y-4.2461
X6.2709Y-2.8248
X6.2913Y-3.4134
X6.2953Y-4.5167
X6.3157Y-3.8905
X6.3307Y-3.1142
X6.3337Y-4.4982
X6.3356Y-3.9267
X6.3504Y-3.4724
X6.3583Y-4.2461
X6.374Y-4.4557
X6.3768Y-3.9305
X6.3858Y-5.1417
X6.4026Y-4.6752
X6.4026Y-4.7638
X6.4026Y-4.8425
X6.4026Y-4.9213
X6.4026Y-5.0591
X6.4134Y-3.5394
X6.4173Y-3.878
X6.4192Y-3.8367
X6.4253Y-3.9291
X6.4283Y-2.8248
X6.437Y-3.5925
X6.437Y-3.6417
X6.437Y-3.6909
X6.437Y-3.7402
X6.4389Y-4.4262
X6.5404Y-5.0591
X6.5551Y-4.6752
X6.5551Y-4.7638
X6.5551Y-4.8425
X6.5551Y-4.9213
X6.5551Y-5.1417
X6.5858Y-2.8248
X6.5985Y-4.1122
X6.6132Y-4.2451
X6.6181Y-3.5394
X6.6181Y-3.6811
X6.6381Y-4.0935
X6.6733Y-4.0719
X6.6811Y-3.1142
X6.7077Y-4.6752
X6.7077Y-4.7638
X6.7077Y-4.8425
X6.7077Y-4.9213
X6.7143Y-4.0522
X6.7165Y-3.5906
X6.7165Y-5.1417
X6.7433Y-2.8248
X6.7556Y-4.0331
X6.7736Y-4.2461
X6.7913Y-4.3874
X6.7916Y-4.0128
X6.8009Y-4.3123
X6.8051Y-4.1457
X6.813Y-3.8396
X6.8209Y-4.3524
X6.8284Y-4.2815
X6.8307Y-3.9931
X6.8602Y-4.6752
X6.8602Y-4.7638
X6.8602Y-4.8425
X6.8602Y-4.9213
X6.8642Y-4.2067
X6.872Y-3.9823
X6.9094Y-2.8248
X6.9281Y-5.1526
X6.9331Y-3.1142
X7.0226Y-4.6752
X7.0226Y-4.7638
X7.0226Y-4.8425
X7.0226Y-4.9213
X7.0404Y-3.7894
X7.0551Y-5.0394
X7.0807Y-4.3878
X7.0866Y-2.8248
X7.1083Y-4.9921
X7.1102Y-4.5592
X7.1407Y-4.5225
X7.1609Y-4.0212
X7.1638Y-4.4882
X7.1703Y-4.6752
X7.1703Y-4.7638
X7.1703Y-4.8425
X7.1703Y-4.9213
X7.1713Y-4.2461
X7.185Y-5.1476
X7.2008Y-4.4524
X7.2403Y-4.4262
X7.252Y-3.7874
X7.2638Y-2.8248
X7.2697Y-5.0551
X7.313Y-5.1476
X7.3228Y-3.5039
X7.3228Y-4.6752
X7.3228Y-4.7638
X7.3228Y-4.8425
X7.3327Y-4.9921
X7.3976Y-5.0551
X7.4114Y-5.1476
X7.4323Y-2.8248
X7.4528Y-4.3878
X7.4547Y-4.9921
X7.4754Y-4.6752
X7.4754Y-4.7638
X7.4754Y-4.8425
X7.5059Y-5.0551
X7.5098Y-5.1476
X7.5591Y-4.2461
X7.5898Y-2.8248
X7.6043Y-4.3878
X7.6043Y-5.0551
X7.6181Y-5.1476
X7.6213Y-3.192
X7.628Y-4.6752
X7.628Y-4.7638
X7.628Y-4.8425
X7.6413Y-4.3487
X7.6457Y-4.2865
X7.6515Y-3.943
X7.6516Y-3.9921
X7.6535Y-3.5906
X7.6535Y-3.6417
X7.6535Y-3.6929
X7.6535Y-3.7441
X7.6535Y-3.8425
X7.6535Y-3.8898
X7.6585Y-4.124
X7.6705Y-4.3195
X7.7028Y-5.0551
X7.7067Y-4.2067
X7.7165Y-5.1476
X7.7177Y-4.2804
X7.7472Y-2.8248
X7.7657Y-4.6752
X7.7657Y-4.7638
X7.7657Y-4.8425
X7.815Y-5.1476
X7.8815Y-3.7683
X7.9047Y-2.8248
X7.9134Y-5.1476
X7.9183Y-4.6752
X7.9183Y-4.7638
X7.9183Y-4.8425
X7.9268Y-4.5484
X7.935Y-4.3878
X7.9677Y-4.5311
X7.9998Y-4.505
X8.0118Y-5.1476
X8.0303Y-4.4767
X8.0622Y-2.8248
X8.063Y-3.7559
X8.0709Y-4.6752
X8.0709Y-4.7638
X8.0709Y-4.8425
X8.0809Y-4.4431
X8.0891Y-3.2993
X8.1102Y-5.1476
X8.1299Y-3.4449
X8.189Y-4.5669
X8.2165Y-4.6732
X8.2197Y-2.8248
X8.248Y-4.7638
X8.2913Y-4.5984
X8.3169Y-4.439
X8.3268Y-4.8228
X8.3386Y-4.6732
X8.3661Y-4.5197
X8.3772Y-2.8248
X8.4055Y-4.7441
X8.4134Y-4.5984
X8.4331Y-4.4567
X8.4449Y-4.311
X8.4567Y-3.0315
X8.4567Y-3.1496
X8.4843Y-4.6654
X8.4921Y-4.5197
X8.5079Y-4.3819
X8.5433Y-2.8248
X8.5433Y-5.1378
X8.563Y-4.5866
X8.5709Y-4.4409
X8.5728Y-4.1831
X8.5827Y-4.3031
X8.6417Y-4.5079
X8.6457Y-4.3661
X8.6516Y-5.0295
X8.6713Y-4.2165
X8.7008Y-4.0551
X8.7205Y-2.8248
X8.7244Y-4.2874
X8.7244Y-4.4252
X8.7461Y-4.1417
X8.7598Y-3.8287
X8.7638Y-4.5079
X8.7697Y-4.9114
X8.8031Y-4.2087
X8.8031Y-4.3465
X8.8268Y-4.063
X8.84Y-5.14
X8.8681Y-3.8878
X8.8819Y-4.1299
X8.8819Y-4.2677
X8.8882Y-5.163
X8.889Y-2.8248
X8.937Y-4.9114
X8.9449Y-3.9449
X8.9606Y-4.189
X8.9961Y-3.7598
X9.0079Y-4.7402
X9.0197Y-3.8701
X9.0394Y-4.1102
X9.0465Y-2.8248
X9.0728Y-4.3031
X9.0846Y-4.6703
X9.1004Y-3.7913
X9.1043Y-4.9114
X9.1043Y-5.0492
X9.1063Y-3.9055
X9.124Y-3.6319
X9.1575Y-4.2913
X9.1752Y-3.7126
X9.185Y-3.8287
X9.2039Y-2.8248
X9.2224Y-4.9114
X9.2224Y-5.0492
X9.25Y-3.6378
X9.252Y-3.5039
X9.2579Y-3.8898
X9.2618Y-4.1969
X9.2638Y-3.748
X9.2717Y-4.6673
X9.2815Y-5.0689
X9.2855Y-4.6102
X9.2874Y-4.7402
X9.311Y-4.5778
X9.3307Y-3.5591
X9.3366Y-3.813
X9.3489Y-4.5581
X9.3533Y-3.0266
X9.3563Y-3.6555
X9.3614Y-2.8248
X9.3799Y-3.376
X9.4173Y-3.4685
X9.4173Y-3.7323
X9.437Y-3.5787
X9.4498Y-3.1516
X9.5039Y-3.5433
X9.5039Y-3.6978
X9.5039Y-3.8583
X9.5079Y-3.248
X9.5189Y-2.8248
X9.5571Y-4.9803
X9.5945Y-4.7559
X9.6063Y-3.2283
X9.6063Y-3.3701
X9.6063Y-3.5443
X9.6063Y-3.6978
X9.6063Y-3.8583
X9.6535Y-4.5354
X9.6654Y-5.0492
X9.6713Y-4.3494
X9.685Y-2.8248
X9.7165Y-3.2283
X9.7165Y-3.3701
X9.7165Y-3.5443
X9.7165Y-3.6978
X9.7165Y-3.8583
X9.8031Y-5.0787
X9.8307Y-3.5443
X9.8307Y-3.6978
X9.8307Y-3.8583
X9.8327Y-3.2283
X9.8327Y-3.3701
X9.8583Y-4.4488
X9.8583Y-4.7047
X9.8622Y-2.8248
X9.8652Y-4.1624
X9.8661Y-4.3219
X9.8917Y-3.2972
X9.8917Y-3.4646
X9.8917Y-3.622
X9.9055Y-5.1299
X9.9173Y-4.1634
X9.9173Y-4.3219
X9.9646Y-4.3219
X9.9665Y-4.1693
X10.0034Y-4.8281
X10.0098Y-4.1998
X10.0177Y-4.3219
X10.0295Y-2.8248
X10.0295Y-5.0689
X10.0354Y-4.5787
X10.0433Y-3.3691
X10.0433Y-3.5433
X10.0433Y-3.6969
X10.0591Y-3.8091
X10.0591Y-3.9075
X10.0591Y-4.2303
X10.0591Y-4.3219
X10.1083Y-4.2608
X10.1083Y-4.3219
X10.1087Y-4.8729
X10.1142Y-4.7362
X10.1476Y-5.0689
X10.1575Y-3.5433
X10.1575Y-3.6969
X10.1594Y-3.3691
X10.1673Y-4.7343
X10.187Y-2.8248
X10.1995Y-4.3152
X10.2165Y-4.4488
X10.2165Y-4.6654
X10.2362Y-3.8091
X10.2362Y-3.9055
X10.2657Y-5.0689
X10.3169Y-4.3624
X10.3445Y-2.8248
X10.3543Y-4.3996
X10.3839Y-5.0689
X10.3957Y-4.3996
X10.4232Y-4.6018
X10.502Y-2.8248
X10.502Y-5.0689
X10.5394Y-3.9094
X10.6102Y-3.8337
X10.6299Y-5.0689
X10.6545Y-3.7904
X10.6594Y-2.8248
X10.7677Y-2.8248
X10.7677Y-4.3504
X10.7677Y-4.4685
X10.7677Y-4.5787
X10.7677Y-4.7008
X10.7677Y-4.811
X10.7677Y-4.9252
X10.8071Y-2.9035
X10.8071Y-3.0217
X10.8071Y-3.1358
X10.8071Y-3.2461
X10.8071Y-3.3681
X10.8071Y-3.4783
X10.8071Y-3.5925
X10.8071Y-3.7106
X10.8071Y-3.8248
X10.8071Y-3.935
X10.8071Y-4.0571
X10.8071Y-4.1673
X10.8071Y-4.2815
X10.8071Y-4.4094
X10.8071Y-4.5236
X10.8071Y-4.6339
X10.8071Y-4.7559
X10.8071Y-4.8661
X10.8071Y-4.9803
T2
X10.5307Y-4.9213
X10.5315Y-4.7835
X10.5807Y-4.9213
X10.5815Y-4.7835
T3
X1.6457Y-4.5378
X1.6457Y-4.6378
X1.7457Y-4.5378
X1.7457Y-4.6378
X1.8457Y-4.5378
X1.8457Y-4.6378
X2.5949Y-2.939
X2.6949Y-2.939
X9.7431Y-5.0236
X9.8431Y-5.0236
T4
X10.5089Y-3.3809
X10.5089Y-3.4711
X10.5089Y-3.5612
X10.5089Y-3.6514
X10.5089Y-3.7415
X10.6073Y-3.3358
X10.6073Y-3.426
X10.6073Y-3.5161
X10.6073Y-3.6063
X10.6073Y-3.6965
X10.7057Y-3.3809
X10.7057Y-3.4711
X10.7057Y-3.5612
X10.7057Y-3.6514
X10.7057Y-3.7415
T5
X10.6073Y-3.0604
X10.6073Y-4.0443
M30
