%TF.GenerationSoftware,KiCad,Pcbnew,8.0.5-dirty*%
%TF.CreationDate,2025-01-19T10:00:47-08:00*%
%TF.ProjectId,cardshark,63617264-7368-4617-926b-2e6b69636164,rev?*%
%TF.SameCoordinates,Original*%
%TF.FileFunction,Drillmap*%
%TF.FilePolarity,Positive*%
%FSLAX45Y45*%
G04 Gerber Fmt 4.5, Leading zero omitted, Abs format (unit mm)*
G04 Created by KiCad (PCBNEW 8.0.5-dirty) date 2025-01-19 10:00:47*
%MOMM*%
%LPD*%
G01*
G04 APERTURE LIST*
%ADD10C,0.050000*%
%ADD11C,0.200000*%
G04 APERTURE END LIST*
D10*
X27525000Y-7245000D02*
X27525000Y-12820000D01*
X27406967Y-12940000D01*
X25627500Y-12940000D01*
X25627500Y-13945000D01*
X25532500Y-14040000D01*
X17595000Y-14040000D01*
X17500000Y-13945000D01*
X17500000Y-13155000D01*
X11239400Y-13155000D01*
X11239400Y-13971400D01*
X11175900Y-14034900D01*
X5537100Y-14034900D01*
X5473600Y-13971400D01*
X5473600Y-13184000D01*
X5265320Y-13184000D01*
X5265320Y-13971400D01*
X5201820Y-14034900D01*
X3886100Y-14034900D01*
X3822600Y-13971400D01*
X3822600Y-13195000D01*
X3822500Y-13195000D01*
X3825142Y-7433642D01*
X4160171Y-7095000D01*
X27375000Y-7095000D01*
X27525000Y-7245000D01*
D11*
X4080777Y-14353984D02*
X4080777Y-14153984D01*
X4080777Y-14153984D02*
X4128396Y-14153984D01*
X4128396Y-14153984D02*
X4156967Y-14163508D01*
X4156967Y-14163508D02*
X4176015Y-14182555D01*
X4176015Y-14182555D02*
X4185539Y-14201603D01*
X4185539Y-14201603D02*
X4195063Y-14239698D01*
X4195063Y-14239698D02*
X4195063Y-14268269D01*
X4195063Y-14268269D02*
X4185539Y-14306365D01*
X4185539Y-14306365D02*
X4176015Y-14325412D01*
X4176015Y-14325412D02*
X4156967Y-14344460D01*
X4156967Y-14344460D02*
X4128396Y-14353984D01*
X4128396Y-14353984D02*
X4080777Y-14353984D01*
X4280777Y-14353984D02*
X4280777Y-14220650D01*
X4280777Y-14258746D02*
X4290301Y-14239698D01*
X4290301Y-14239698D02*
X4299824Y-14230174D01*
X4299824Y-14230174D02*
X4318872Y-14220650D01*
X4318872Y-14220650D02*
X4337920Y-14220650D01*
X4404586Y-14353984D02*
X4404586Y-14220650D01*
X4404586Y-14153984D02*
X4395063Y-14163508D01*
X4395063Y-14163508D02*
X4404586Y-14173031D01*
X4404586Y-14173031D02*
X4414110Y-14163508D01*
X4414110Y-14163508D02*
X4404586Y-14153984D01*
X4404586Y-14153984D02*
X4404586Y-14173031D01*
X4528396Y-14353984D02*
X4509348Y-14344460D01*
X4509348Y-14344460D02*
X4499824Y-14325412D01*
X4499824Y-14325412D02*
X4499824Y-14153984D01*
X4633158Y-14353984D02*
X4614110Y-14344460D01*
X4614110Y-14344460D02*
X4604586Y-14325412D01*
X4604586Y-14325412D02*
X4604586Y-14153984D01*
X4861729Y-14353984D02*
X4861729Y-14153984D01*
X4861729Y-14153984D02*
X4928396Y-14296841D01*
X4928396Y-14296841D02*
X4995063Y-14153984D01*
X4995063Y-14153984D02*
X4995063Y-14353984D01*
X5176015Y-14353984D02*
X5176015Y-14249222D01*
X5176015Y-14249222D02*
X5166491Y-14230174D01*
X5166491Y-14230174D02*
X5147444Y-14220650D01*
X5147444Y-14220650D02*
X5109348Y-14220650D01*
X5109348Y-14220650D02*
X5090301Y-14230174D01*
X5176015Y-14344460D02*
X5156967Y-14353984D01*
X5156967Y-14353984D02*
X5109348Y-14353984D01*
X5109348Y-14353984D02*
X5090301Y-14344460D01*
X5090301Y-14344460D02*
X5080777Y-14325412D01*
X5080777Y-14325412D02*
X5080777Y-14306365D01*
X5080777Y-14306365D02*
X5090301Y-14287317D01*
X5090301Y-14287317D02*
X5109348Y-14277793D01*
X5109348Y-14277793D02*
X5156967Y-14277793D01*
X5156967Y-14277793D02*
X5176015Y-14268269D01*
X5271253Y-14220650D02*
X5271253Y-14420650D01*
X5271253Y-14230174D02*
X5290301Y-14220650D01*
X5290301Y-14220650D02*
X5328396Y-14220650D01*
X5328396Y-14220650D02*
X5347444Y-14230174D01*
X5347444Y-14230174D02*
X5356967Y-14239698D01*
X5356967Y-14239698D02*
X5366491Y-14258746D01*
X5366491Y-14258746D02*
X5366491Y-14315888D01*
X5366491Y-14315888D02*
X5356967Y-14334936D01*
X5356967Y-14334936D02*
X5347444Y-14344460D01*
X5347444Y-14344460D02*
X5328396Y-14353984D01*
X5328396Y-14353984D02*
X5290301Y-14353984D01*
X5290301Y-14353984D02*
X5271253Y-14344460D01*
X5452205Y-14334936D02*
X5461729Y-14344460D01*
X5461729Y-14344460D02*
X5452205Y-14353984D01*
X5452205Y-14353984D02*
X5442682Y-14344460D01*
X5442682Y-14344460D02*
X5452205Y-14334936D01*
X5452205Y-14334936D02*
X5452205Y-14353984D01*
X5452205Y-14230174D02*
X5461729Y-14239698D01*
X5461729Y-14239698D02*
X5452205Y-14249222D01*
X5452205Y-14249222D02*
X5442682Y-14239698D01*
X5442682Y-14239698D02*
X5452205Y-14230174D01*
X5452205Y-14230174D02*
X5452205Y-14249222D01*
M02*
