M48
; DRILL file {KiCad 9.0.3+1} date 2025-09-04T10:43:57-0700
; FORMAT={-:-/ absolute / metric / decimal}
; #@! TF.CreationDate,2025-09-04T10:43:57-07:00
; #@! TF.GenerationSoftware,Kicad,Pcbnew,9.0.3+1
; #@! TF.FileFunction,Plated,1,4,PTH
FMAT,2
METRIC
; #@! TA.AperFunction,Plated,PTH,ViaDrill
T1C0.400
; #@! TA.AperFunction,Plated,PTH,ComponentDrill
T2C0.800
; #@! TA.AperFunction,Plated,PTH,ComponentDrill
T3C1.000
; #@! TA.AperFunction,Plated,PTH,ComponentDrill
T4C1.130
; #@! TA.AperFunction,Plated,PTH,ComponentDrill
T5C3.230
%
G90
G05
T1
X122.7Y-62.5
X122.75Y-64.7
X122.75Y-67.6
X122.75Y-70.4
X122.75Y-73.4
X122.75Y-76.4
X122.75Y-79.3
X122.75Y-82.1
X122.75Y-85.2
X122.75Y-88.0
X122.75Y-90.9
X122.75Y-93.9
X122.75Y-96.8
X122.75Y-99.6
X122.75Y-102.7
X122.75Y-105.5
X122.75Y-108.4
X122.75Y-111.65
X122.75Y-114.55
X122.75Y-117.35
X122.75Y-120.25
X122.75Y-123.25
X122.75Y-126.25
X122.75Y-129.25
X123.55Y-60.0
X126.1Y-130.5
X126.25Y-62.5
X126.25Y-64.5
X126.25Y-66.5
X126.55Y-59.0
X126.86Y-102.45
X127.25Y-63.5
X127.25Y-66.5
X127.75Y-67.5
X128.25Y-66.5
X128.25Y-68.5
X129.0Y-130.6
X129.25Y-66.5
X129.25Y-68.5
X129.45Y-59.0
X129.75Y-67.5
X129.9Y-129.7
X130.0Y-121.4
X130.25Y-63.5
X130.25Y-66.5
X130.343Y-88.212
X130.375Y-73.225
X131.15Y-72.4
X131.161Y-87.554
X131.25Y-62.5
X131.25Y-64.5
X131.25Y-66.5
X131.25Y-101.75
X131.25Y-103.0
X131.25Y-104.25
X131.25Y-105.5
X131.25Y-108.25
X131.25Y-109.5
X131.25Y-110.75
X131.25Y-112.0
X131.25Y-115.0
X131.6Y-130.6
X131.75Y-100.5
X131.8Y-96.8
X131.8Y-98.1
X131.926Y-86.835
X131.937Y-88.261
X132.05Y-71.7
X132.1Y-106.9
X132.25Y-59.0
X132.479Y-91.714
X132.5Y-89.5
X132.5Y-108.75
X132.548Y-90.549
X132.701Y-86.085
X132.804Y-122.35
X132.912Y-71.02
X132.953Y-92.651
X133.0Y-123.75
X133.5Y-121.4
X133.529Y-93.529
X133.551Y-85.302
X133.625Y-70.25
X134.25Y-84.5
X134.349Y-69.374
X134.6Y-130.6
X135.25Y-123.125
X135.25Y-124.5
X135.35Y-59.0
X135.4Y-77.1
X135.5Y-83.75
X136.0Y-62.8
X137.3Y-67.3
X137.4Y-123.625
X137.5Y-121.4
X137.5Y-125.0
X137.5Y-130.6
X138.15Y-59.0
X138.54Y-67.34
X139.5Y-115.1
X139.75Y-106.925
X139.75Y-124.125
X139.75Y-125.5
X139.9Y-67.3
X140.1Y-130.6
X140.582Y-87.99
X141.05Y-59.0
X141.2Y-67.3
X141.5Y-88.5
X141.5Y-96.025
X141.5Y-121.4
X141.75Y-101.0
X142.0Y-126.0
X142.1Y-124.625
X142.4Y-89.275
X142.5Y-96.8
X142.8Y-101.3
X142.8Y-130.6
X143.25Y-84.75
X143.265Y-89.975
X143.6Y-67.3
X143.8Y-77.7
X144.0Y-90.725
X144.25Y-126.5
X144.3Y-59.0
X144.3Y-125.125
X145.0Y-67.3
X145.3Y-130.6
X145.65Y-104.75
X146.25Y-121.4
X146.25Y-127.0
X146.325Y-95.25
X146.5Y-87.0
X146.5Y-125.625
X146.925Y-106.875
X146.942Y-92.275
X147.1Y-99.25
X147.125Y-94.281
X147.2Y-59.0
X148.0Y-114.5
X148.7Y-67.182
X148.7Y-126.125
X148.95Y-73.103
X149.66Y-130.6
X150.0Y-59.0
X150.0Y-67.2
X150.0Y-73.1
X150.784Y-98.304
X151.0Y-101.75
X151.0Y-103.0
X151.0Y-104.25
X151.0Y-105.5
X151.0Y-108.0
X151.0Y-109.25
X151.0Y-110.5
X151.0Y-112.0
X151.0Y-130.6
X151.3Y-67.2
X151.3Y-73.1
X151.4Y-91.327
X151.4Y-93.169
X152.2Y-127.6
X152.6Y-67.2
X152.655Y-130.704
X152.75Y-114.5
X153.1Y-59.0
X153.25Y-85.0
X153.25Y-87.0
X153.7Y-130.6
X153.793Y-67.239
X154.3Y-101.3
X154.517Y-97.587
X154.542Y-98.808
X154.8Y-130.6
X155.042Y-93.092
X155.1Y-67.183
X155.1Y-73.2
X155.246Y-92.062
X155.406Y-91.024
X155.662Y-90.006
X155.869Y-130.6
X155.9Y-59.0
X156.2Y-107.7
X156.4Y-67.2
X157.5Y-130.6
X157.7Y-67.195
X158.1Y-114.5
X158.8Y-59.0
X159.0Y-87.9
X159.343Y-67.166
X160.464Y-113.228
X160.5Y-87.9
X160.9Y-114.5
X161.0Y-67.5
X161.025Y-106.9
X161.15Y-112.35
X161.225Y-129.1
X161.366Y-76.81
X161.4Y-65.3
X161.678Y-102.125
X161.75Y-59.0
X161.8Y-101.05
X162.0Y-129.808
X162.025Y-77.628
X162.495Y-88.705
X162.6Y-112.6
X162.679Y-102.468
X162.767Y-78.371
X162.775Y-129.1
X162.95Y-96.5
X162.975Y-94.9
X163.2Y-91.275
X163.427Y-79.187
X163.637Y-94.085
X163.642Y-95.711
X163.722Y-97.275
X163.734Y-102.816
X163.75Y-128.0
X164.126Y-79.97
X164.25Y-64.75
X164.25Y-67.5
X164.332Y-91.775
X164.6Y-123.8
X164.75Y-59.0
X164.784Y-103.16
X164.835Y-80.745
X165.298Y-92.254
X165.543Y-81.52
X165.8Y-103.425
X166.0Y-89.855
X166.0Y-128.0
X166.0Y-130.6
X166.362Y-92.612
X166.384Y-82.15
X166.4Y-84.25
X166.55Y-65.3
X167.3Y-121.2
X167.3Y-82.775
X167.301Y-89.855
X167.626Y-102.326
X167.65Y-59.0
X168.075Y-125.075
X168.075Y-126.125
X168.3Y-68.875
X168.3Y-73.05
X168.4Y-60.5
X168.553Y-90.355
X168.817Y-91.371
X169.001Y-102.1
X169.6Y-60.5
X169.6Y-68.9
X169.6Y-73.05
X169.731Y-90.855
X170.0Y-123.0
X170.16Y-102.1
X170.45Y-59.0
X170.6Y-128.8
X170.6Y-130.6
X170.75Y-94.6
X170.85Y-60.5
X170.85Y-68.95
X170.85Y-73.05
X171.25Y-121.75
X171.256Y-102.1
X171.992Y-91.855
X172.15Y-60.5
X172.15Y-68.95
X172.15Y-73.05
X172.375Y-102.1
X172.708Y-93.442
X172.885Y-92.407
X173.2Y-127.5
X173.4Y-68.95
X173.4Y-73.05
X173.55Y-59.0
X173.764Y-93.08
X174.7Y-72.65
X174.8Y-60.5
X174.89Y-95.478
X174.906Y-93.855
X175.75Y-130.6
X175.917Y-112.5
X175.95Y-63.0
X175.95Y-73.05
X176.35Y-59.0
X176.6Y-121.75
X177.2Y-73.05
X177.25Y-123.75
X177.5Y-125.5
X177.675Y-84.375
X177.8Y-97.8
X177.82Y-96.389
X177.9Y-91.25
X178.0Y-69.75
X178.132Y-114.756
X178.5Y-123.75
X178.679Y-90.5
X179.25Y-59.0
X179.466Y-91.25
X179.471Y-108.91
X179.8Y-67.55
X180.2Y-86.9
X180.3Y-90.5
X180.5Y-123.75
X181.05Y-67.55
X181.1Y-111.95
X181.475Y-130.57
X181.85Y-102.35
X182.25Y-59.0
X182.25Y-62.5
X182.3Y-67.55
X182.4Y-107.325
X182.5Y-72.5
X182.516Y-125.516
X182.825Y-111.1
X183.429Y-80.493
X183.55Y-67.5
X183.784Y-84.626
X183.9Y-130.8
X184.204Y-81.931
X184.741Y-116.761
X184.85Y-62.75
X185.002Y-124.302
X185.135Y-118.145
X185.15Y-59.0
X185.552Y-120.102
X186.15Y-67.45
X186.15Y-111.875
X186.4Y-129.65
X186.4Y-130.7
X186.45Y-124.278
X186.475Y-107.35
X186.55Y-110.75
X186.643Y-80.55
X186.677Y-81.785
X186.8Y-96.8
X187.05Y-116.45
X187.4Y-67.45
X187.5Y-124.25
X187.662Y-111.691
X187.95Y-59.0
X188.355Y-87.472
X188.355Y-89.022
X188.385Y-90.78
X188.521Y-85.689
X188.55Y-124.25
X188.65Y-67.45
X188.8Y-130.7
X189.0Y-111.848
X189.003Y-86.622
X189.099Y-89.797
X189.105Y-91.595
X189.134Y-88.247
X189.8Y-110.75
X189.825Y-72.425
X189.865Y-123.452
X189.95Y-67.45
X190.175Y-107.35
X190.25Y-96.75
X190.774Y-122.926
X191.05Y-59.0
X191.2Y-62.8
X191.22Y-111.75
X191.4Y-130.7
X191.71Y-122.45
X192.881Y-122.454
X193.125Y-107.35
X193.65Y-110.75
X193.675Y-76.075
X193.7Y-130.7
X193.85Y-59.0
X193.929Y-122.407
X194.0Y-90.25
X194.0Y-96.75
X194.225Y-78.225
X194.45Y-84.85
X194.485Y-79.25
X194.678Y-103.123
X195.294Y-77.344
X195.485Y-81.448
X195.577Y-69.327
X195.584Y-103.654
X195.7Y-79.55
X196.1Y-102.35
X196.1Y-116.45
X196.1Y-119.0
X196.175Y-111.957
X196.21Y-84.595
X196.485Y-117.97
X196.5Y-130.7
X196.575Y-104.0
X196.75Y-59.0
X197.335Y-101.516
X197.5Y-74.5
X197.55Y-121.65
X197.625Y-103.971
X197.75Y-90.25
X197.75Y-128.05
X197.925Y-118.075
X198.394Y-101.479
X198.7Y-104.0
X199.0Y-130.7
X199.4Y-101.18
X199.525Y-93.0
X199.702Y-84.7
X199.805Y-104.027
X199.919Y-75.445
X199.94Y-76.521
X200.0Y-59.0
X200.045Y-77.566
X200.225Y-78.6
X200.25Y-128.05
X200.407Y-100.88
X200.457Y-79.865
X200.855Y-104.028
X200.935Y-115.125
X201.089Y-80.703
X201.16Y-72.41
X201.4Y-130.7
X201.425Y-100.625
X201.945Y-79.099
X202.139Y-80.692
X202.2Y-103.4
X202.435Y-81.7
X202.725Y-129.4
X202.8Y-69.7
X202.825Y-107.875
X202.9Y-59.0
X202.957Y-128.303
X202.995Y-75.595
X203.001Y-100.749
X203.093Y-105.928
X203.45Y-67.9
X203.75Y-115.0
X203.9Y-88.7
X203.9Y-95.4
X203.9Y-130.75
X203.975Y-103.575
X204.0Y-116.5
X204.149Y-100.446
X204.45Y-69.85
X204.485Y-81.35
X204.553Y-89.927
X204.8Y-111.3
X204.885Y-87.715
X205.0Y-92.75
X205.015Y-101.067
X205.065Y-106.521
X205.425Y-80.65
X205.7Y-59.0
X205.75Y-116.5
X206.6Y-129.275
X206.9Y-77.8
X207.25Y-120.75
X207.4Y-113.7
X208.0Y-99.75
X208.075Y-97.55
X208.3Y-130.0
X208.425Y-103.95
X208.425Y-109.425
X208.8Y-59.0
X209.0Y-81.5
X209.0Y-116.0
X209.25Y-102.25
X209.275Y-107.15
X209.5Y-75.25
X209.5Y-130.0
X209.75Y-119.75
X210.25Y-105.95
X210.25Y-111.55
X210.25Y-113.25
X210.5Y-79.25
X210.5Y-83.25
X210.552Y-130.901
X210.83Y-92.86
X211.1Y-74.525
X211.283Y-93.807
X211.5Y-118.25
X211.6Y-59.0
X211.602Y-130.898
X211.77Y-85.27
X212.0Y-81.5
X212.0Y-94.605
X212.25Y-102.25
X212.5Y-93.25
X212.675Y-107.925
X212.75Y-95.38
X212.95Y-65.1
X213.25Y-85.25
X213.43Y-96.254
X213.5Y-116.25
X213.75Y-109.25
X213.85Y-89.3
X214.205Y-97.068
X214.5Y-59.0
X214.5Y-75.25
X214.5Y-95.5
X214.5Y-111.25
X214.5Y-113.25
X214.5Y-127.0
X215.25Y-65.0
X215.475Y-67.1
X215.5Y-79.25
X215.75Y-125.75
X215.94Y-98.375
X216.1Y-112.2
X216.75Y-97.5
X216.75Y-99.25
X217.5Y-59.0
X217.5Y-104.75
X217.55Y-128.0
X218.0Y-81.8
X218.0Y-86.0
X218.5Y-75.25
X218.55Y-89.225
X219.1Y-127.3
X219.25Y-122.25
X219.55Y-80.35
X219.75Y-111.5
X219.974Y-121.341
X220.205Y-74.5
X220.4Y-112.6
X220.4Y-114.15
X220.4Y-115.7
X220.4Y-117.275
X220.5Y-59.0
X220.5Y-107.75
X220.681Y-120.564
X221.4Y-114.925
X221.4Y-116.475
X221.428Y-113.326
X221.604Y-120.064
X221.75Y-124.75
X221.75Y-128.0
X221.887Y-119.053
X222.0Y-81.8
X222.0Y-86.0
X222.0Y-90.0
X222.02Y-77.76
X223.0Y-109.75
X223.25Y-75.25
X223.3Y-130.4
X223.4Y-59.0
X223.577Y-118.65
X223.75Y-102.25
X223.9Y-128.025
X224.119Y-116.019
X224.5Y-118.15
X224.5Y-124.75
X225.0Y-94.0
X225.0Y-100.25
X225.05Y-98.075
X225.126Y-115.722
X225.5Y-117.25
X225.5Y-123.8
X225.5Y-127.0
X225.75Y-103.75
X226.0Y-76.45
X226.0Y-81.8
X226.0Y-86.0
X226.0Y-90.0
X226.2Y-59.0
X226.275Y-126.1
X226.6Y-121.7
X227.0Y-101.9
X227.004Y-117.173
X227.3Y-122.6
X227.45Y-126.675
X227.75Y-125.0
X227.815Y-116.505
X228.0Y-115.0
X228.753Y-126.685
X229.3Y-59.0
X229.802Y-126.72
X230.0Y-76.45
X230.0Y-81.8
X230.0Y-86.0
X230.0Y-90.0
X230.0Y-94.0
X230.0Y-98.0
X230.0Y-100.25
X230.8Y-68.8
X230.812Y-126.433
X231.025Y-130.475
X231.06Y-74.4
X231.25Y-99.321
X231.75Y-111.0
X231.86Y-126.506
X232.1Y-59.0
X232.1Y-76.45
X232.1Y-81.8
X232.1Y-86.0
X232.1Y-90.0
X232.1Y-94.0
X232.905Y-126.795
X233.0Y-109.75
X233.15Y-72.225
X233.25Y-96.75
X233.93Y-127.025
X234.0Y-76.45
X234.0Y-81.8
X234.0Y-86.0
X234.0Y-90.0
X234.0Y-94.0
X234.0Y-98.0
X234.0Y-100.25
X234.0Y-102.25
X234.977Y-126.948
X235.0Y-59.0
X235.752Y-127.7
X236.4Y-122.8
X236.5Y-116.5
X236.8Y-126.7
X237.1Y-112.8
X238.0Y-59.0
X238.0Y-76.4
X238.0Y-81.75
X238.0Y-86.0
X238.0Y-90.0
X238.0Y-94.0
X238.0Y-98.0
X238.0Y-100.25
X238.0Y-102.25
X238.5Y-112.7
X238.6Y-116.45
X238.75Y-124.75
X238.85Y-122.9
X239.3Y-113.625
X240.8Y-112.075
X240.9Y-59.0
X241.1Y-116.4
X241.25Y-124.75
X241.4Y-122.9
X241.7Y-109.8
X242.0Y-76.4
X242.0Y-81.75
X242.0Y-86.0
X242.0Y-90.0
X242.0Y-94.0
X242.0Y-98.0
X242.0Y-100.25
X242.0Y-102.25
X242.1Y-114.1
X243.0Y-111.575
X243.0Y-127.5
X243.5Y-116.35
X243.7Y-59.0
X243.9Y-122.9
X244.8Y-114.325
X245.875Y-116.35
X246.0Y-76.4
X246.0Y-81.75
X246.0Y-86.0
X246.0Y-90.0
X246.0Y-94.0
X246.0Y-98.0
X246.0Y-100.25
X246.0Y-102.25
X246.8Y-59.0
X246.8Y-115.2
X248.4Y-122.2
X248.8Y-101.4
X248.9Y-125.1
X249.0Y-129.0
X249.6Y-59.0
X250.0Y-76.4
X250.0Y-81.75
X250.0Y-86.0
X250.0Y-90.0
X250.0Y-94.0
X250.0Y-98.0
X250.0Y-100.25
X250.0Y-102.25
X250.0Y-112.5
X250.0Y-115.0
X250.197Y-126.454
X250.3Y-130.05
X252.0Y-131.0
X252.5Y-59.0
X255.0Y-96.75
X255.0Y-112.5
X255.0Y-115.0
X255.1Y-76.4
X255.1Y-81.75
X255.1Y-86.0
X255.1Y-90.0
X255.1Y-93.9
X255.25Y-127.7
X255.4Y-99.321
X255.75Y-59.0
X258.0Y-90.0
X258.0Y-93.9
X258.05Y-76.4
X258.05Y-81.75
X258.05Y-86.0
X258.25Y-101.75
X258.25Y-127.7
X258.65Y-59.0
X260.0Y-112.5
X260.0Y-115.0
X261.25Y-127.7
X261.45Y-59.0
X262.75Y-76.4
X262.75Y-81.75
X262.75Y-86.0
X262.75Y-90.0
X262.75Y-94.0
X262.75Y-96.25
X264.25Y-127.7
X264.55Y-59.0
X265.0Y-112.5
X265.0Y-115.0
X265.0Y-117.5
X266.05Y-102.85
X267.35Y-59.0
X267.5Y-127.7
X267.95Y-99.3
X270.0Y-112.5
X270.0Y-115.0
X270.0Y-117.5
X270.0Y-120.0
X270.25Y-59.0
X270.6Y-127.8
X270.625Y-96.275
X271.05Y-115.0
X272.7Y-108.7
X272.75Y-59.0
X273.7Y-111.4
X273.7Y-114.3
X273.7Y-117.1
X273.7Y-120.2
X273.7Y-123.0
X273.7Y-125.9
X273.75Y-107.75
X274.5Y-61.8
X274.5Y-64.8
X274.5Y-67.7
X274.5Y-70.5
X274.5Y-73.5
X274.5Y-76.5
X274.5Y-79.4
X274.5Y-82.2
X274.5Y-85.3
X274.5Y-88.1
X274.5Y-91.0
X274.5Y-94.0
X274.5Y-96.9
X274.5Y-99.7
X274.5Y-102.8
X274.5Y-105.6
T2
X237.58Y-108.5
X237.58Y-123.74
X240.12Y-108.5
X240.12Y-123.74
X242.66Y-108.5
X242.66Y-123.74
X245.2Y-108.5
X245.2Y-123.74
X247.74Y-108.5
X247.74Y-123.74
X250.28Y-108.5
X250.28Y-123.74
X252.82Y-108.5
X252.82Y-123.74
X255.36Y-108.5
X255.36Y-123.74
X257.9Y-108.5
X257.9Y-123.74
X260.44Y-108.5
X260.44Y-123.74
X262.98Y-108.5
X262.98Y-123.74
X265.52Y-108.5
X265.52Y-123.74
X268.06Y-108.5
X268.06Y-123.74
X270.6Y-108.5
X270.6Y-123.74
T3
X208.77Y-61.3
X208.77Y-63.84
X211.31Y-61.3
X211.31Y-63.84
X213.85Y-61.3
X213.85Y-63.84
X216.39Y-61.3
X216.39Y-63.84
X218.93Y-61.3
X218.93Y-63.84
X221.47Y-61.3
X221.47Y-63.84
X224.01Y-61.3
X224.01Y-63.84
X226.55Y-61.3
X226.55Y-63.84
X229.09Y-61.3
X229.09Y-63.84
X231.63Y-61.3
X231.63Y-63.84
X234.17Y-61.3
X234.17Y-63.84
X236.71Y-61.3
X236.71Y-63.84
X238.46Y-127.55
X239.25Y-61.3
X239.25Y-63.84
X241.0Y-127.55
X244.885Y-127.55
X247.425Y-127.55
T4
X266.925Y-85.875
X266.925Y-88.165
X266.925Y-90.455
X266.925Y-92.745
X266.925Y-95.035
X269.425Y-84.73
X269.425Y-87.02
X269.425Y-89.31
X269.425Y-91.6
X269.425Y-93.89
X271.925Y-85.875
X271.925Y-88.165
X271.925Y-90.455
X271.925Y-92.745
X271.925Y-95.035
T5
X269.425Y-77.735
X269.425Y-102.725
M30
