%TF.GenerationSoftware,KiCad,Pcbnew,10.0.4*%
%TF.CreationDate,2026-09-10T18:54:17-07:00*%
%TF.ProjectId,cardshark,63617264-7368-4617-926b-2e6b69636164,rev?*%
%TF.SameCoordinates,Original*%
%TF.FileFunction,Paste,Top*%
%TF.FilePolarity,Positive*%
%FSLAX46Y46*%
G04 Gerber Fmt 4.6, Leading zero omitted, Abs format (unit mm)*
G04 Created by KiCad (PCBNEW 10.0.4) date 2026-09-10 18:54:17*
%MOMM*%
%LPD*%
G01*
G04 APERTURE LIST*
G04 Aperture macros list*
%AMRoundRect*
0 Rectangle with rounded corners*
0 $1 Rounding radius*
0 $2 $3 $4 $5 $6 $7 $8 $9 X,Y pos of 4 corners*
0 Add a 4 corners polygon primitive as box body*
4,1,4,$2,$3,$4,$5,$6,$7,$8,$9,$2,$3,0*
0 Add four circle primitives for the rounded corners*
1,1,$1+$1,$2,$3*
1,1,$1+$1,$4,$5*
1,1,$1+$1,$6,$7*
1,1,$1+$1,$8,$9*
0 Add four rect primitives between the rounded corners*
20,1,$1+$1,$2,$3,$4,$5,0*
20,1,$1+$1,$4,$5,$6,$7,0*
20,1,$1+$1,$6,$7,$8,$9,0*
20,1,$1+$1,$8,$9,$2,$3,0*%
G04 Aperture macros list end*
%ADD10RoundRect,0.225000X-0.250000X0.225000X-0.250000X-0.225000X0.250000X-0.225000X0.250000X0.225000X0*%
%ADD11RoundRect,0.250000X0.475000X-0.250000X0.475000X0.250000X-0.475000X0.250000X-0.475000X-0.250000X0*%
%ADD12RoundRect,0.250000X-0.475000X0.250000X-0.475000X-0.250000X0.475000X-0.250000X0.475000X0.250000X0*%
%ADD13RoundRect,0.250000X0.250000X0.475000X-0.250000X0.475000X-0.250000X-0.475000X0.250000X-0.475000X0*%
%ADD14RoundRect,0.225000X0.250000X-0.225000X0.250000X0.225000X-0.250000X0.225000X-0.250000X-0.225000X0*%
%ADD15RoundRect,0.249998X-0.450002X0.262502X-0.450002X-0.262502X0.450002X-0.262502X0.450002X0.262502X0*%
%ADD16RoundRect,0.249998X-0.262502X-0.450002X0.262502X-0.450002X0.262502X0.450002X-0.262502X0.450002X0*%
%ADD17RoundRect,0.225000X0.335876X0.017678X0.017678X0.335876X-0.335876X-0.017678X-0.017678X-0.335876X0*%
%ADD18RoundRect,0.225000X0.017678X-0.335876X0.335876X-0.017678X-0.017678X0.335876X-0.335876X0.017678X0*%
%ADD19RoundRect,0.250000X0.450000X-0.262500X0.450000X0.262500X-0.450000X0.262500X-0.450000X-0.262500X0*%
%ADD20RoundRect,0.150000X0.150000X-1.475000X0.150000X1.475000X-0.150000X1.475000X-0.150000X-1.475000X0*%
%ADD21RoundRect,0.200000X0.053033X-0.335876X0.335876X-0.053033X-0.053033X0.335876X-0.335876X0.053033X0*%
%ADD22R,1.600000X0.500000*%
%ADD23R,1.600000X0.400000*%
%ADD24RoundRect,0.218750X0.381250X-0.218750X0.381250X0.218750X-0.381250X0.218750X-0.381250X-0.218750X0*%
%ADD25RoundRect,0.150000X-0.587500X-0.150000X0.587500X-0.150000X0.587500X0.150000X-0.587500X0.150000X0*%
%ADD26RoundRect,0.250000X-0.800000X-0.600000X0.800000X-0.600000X0.800000X0.600000X-0.800000X0.600000X0*%
%ADD27RoundRect,0.218750X-0.218750X-0.381250X0.218750X-0.381250X0.218750X0.381250X-0.218750X0.381250X0*%
%ADD28RoundRect,0.218750X0.218750X0.381250X-0.218750X0.381250X-0.218750X-0.381250X0.218750X-0.381250X0*%
%ADD29RoundRect,0.200000X-0.275000X0.200000X-0.275000X-0.200000X0.275000X-0.200000X0.275000X0.200000X0*%
%ADD30RoundRect,0.225000X-0.335876X-0.017678X-0.017678X-0.335876X0.335876X0.017678X0.017678X0.335876X0*%
%ADD31RoundRect,0.250000X-0.550000X1.250000X-0.550000X-1.250000X0.550000X-1.250000X0.550000X1.250000X0*%
%ADD32RoundRect,0.007500X-0.792500X-0.142500X0.792500X-0.142500X0.792500X0.142500X-0.792500X0.142500X0*%
%ADD33RoundRect,0.007500X-0.142500X-0.792500X0.142500X-0.792500X0.142500X0.792500X-0.142500X0.792500X0*%
%ADD34RoundRect,0.225000X-0.225000X-0.250000X0.225000X-0.250000X0.225000X0.250000X-0.225000X0.250000X0*%
%ADD35RoundRect,0.250000X-0.262500X-0.450000X0.262500X-0.450000X0.262500X0.450000X-0.262500X0.450000X0*%
%ADD36RoundRect,0.250000X-0.250000X-0.475000X0.250000X-0.475000X0.250000X0.475000X-0.250000X0.475000X0*%
%ADD37RoundRect,0.125000X0.125000X-0.825000X0.125000X0.825000X-0.125000X0.825000X-0.125000X-0.825000X0*%
%ADD38RoundRect,0.250000X0.262500X0.450000X-0.262500X0.450000X-0.262500X-0.450000X0.262500X-0.450000X0*%
%ADD39RoundRect,0.250000X-1.125000X1.275000X-1.125000X-1.275000X1.125000X-1.275000X1.125000X1.275000X0*%
%ADD40RoundRect,0.250000X-0.350000X0.850000X-0.350000X-0.850000X0.350000X-0.850000X0.350000X0.850000X0*%
G04 APERTURE END LIST*
D10*
%TO.C,C14*%
X131750000Y-109820000D03*
X131750000Y-108270000D03*
%TD*%
D11*
%TO.C,C16*%
X113500000Y-117450000D03*
X113500000Y-115550000D03*
%TD*%
D12*
%TO.C,C17*%
X108000000Y-113550000D03*
X108000000Y-115450000D03*
%TD*%
D10*
%TO.C,C46*%
X65750000Y-101725000D03*
X65750000Y-103275000D03*
%TD*%
%TO.C,C49*%
X108000000Y-110325000D03*
X108000000Y-111875000D03*
%TD*%
D13*
%TO.C,C3*%
X70949999Y-94500000D03*
X69050001Y-94500000D03*
%TD*%
D14*
%TO.C,C9*%
X49000000Y-87438500D03*
X49000000Y-85888500D03*
%TD*%
%TO.C,C8*%
X79750000Y-88275000D03*
X79750000Y-86725000D03*
%TD*%
D10*
%TO.C,C13*%
X165642000Y-104945000D03*
X165642000Y-106495000D03*
%TD*%
D15*
%TO.C,R27*%
X63800000Y-101587500D03*
X63800000Y-103412500D03*
%TD*%
D16*
%TO.C,R19*%
X56987500Y-129000000D03*
X58812500Y-129000000D03*
%TD*%
D17*
%TO.C,C37*%
X85213828Y-126554336D03*
X84117812Y-125458320D03*
%TD*%
D18*
%TO.C,C38*%
X132201992Y-92298008D03*
X133298008Y-91201992D03*
%TD*%
D11*
%TO.C,C32*%
X262800000Y-95050000D03*
X262800000Y-93150000D03*
%TD*%
D19*
%TO.C,R5*%
X116500000Y-125725000D03*
X116500000Y-123900000D03*
%TD*%
D20*
%TO.C,U7*%
X136502000Y-107470000D03*
X137770000Y-107470000D03*
X139040000Y-107470000D03*
X140310000Y-107470000D03*
X141580000Y-107470000D03*
X142850000Y-107470000D03*
X144120000Y-107470000D03*
X145390000Y-107470000D03*
X146660000Y-107470000D03*
X147930000Y-107470000D03*
X149200000Y-107470000D03*
X150470000Y-107470000D03*
X151740000Y-107470000D03*
X153010000Y-107470000D03*
X154280000Y-107470000D03*
X155550000Y-107470000D03*
X156820000Y-107470000D03*
X158090000Y-107470000D03*
X159360000Y-107470000D03*
X160630000Y-107470000D03*
X160630000Y-97500000D03*
X159360000Y-97500000D03*
X158090000Y-97500000D03*
X156820000Y-97500000D03*
X155550000Y-97500000D03*
X154280000Y-97500000D03*
X153010000Y-97500000D03*
X151740000Y-97500000D03*
X150470000Y-97500000D03*
X149200000Y-97500000D03*
X147930000Y-97500000D03*
X146660000Y-97500000D03*
X145390000Y-97500000D03*
X144120000Y-97500000D03*
X142850000Y-97500000D03*
X141580000Y-97500000D03*
X140310000Y-97500000D03*
X139040000Y-97500000D03*
X137770000Y-97500000D03*
X136500000Y-97500000D03*
%TD*%
D21*
%TO.C,R29*%
X91264080Y-80217630D03*
X92430806Y-79050904D03*
%TD*%
D20*
%TO.C,U3*%
X136675004Y-85913500D03*
X137943004Y-85913500D03*
X139213004Y-85913500D03*
X140483004Y-85913500D03*
X141753004Y-85913500D03*
X143023004Y-85913500D03*
X144293004Y-85913500D03*
X145563004Y-85913500D03*
X146833004Y-85913500D03*
X148103004Y-85913500D03*
X149373004Y-85913500D03*
X150643004Y-85913500D03*
X151913004Y-85913500D03*
X153183004Y-85913500D03*
X154453004Y-85913500D03*
X155723004Y-85913500D03*
X156993004Y-85913500D03*
X158263004Y-85913500D03*
X159533004Y-85913500D03*
X160803004Y-85913500D03*
X160803004Y-75943500D03*
X159533004Y-75943500D03*
X158263004Y-75943500D03*
X156993004Y-75943500D03*
X155723004Y-75943500D03*
X154453004Y-75943500D03*
X153183004Y-75943500D03*
X151913004Y-75943500D03*
X150643004Y-75943500D03*
X149373004Y-75943500D03*
X148103004Y-75943500D03*
X146833004Y-75943500D03*
X145563004Y-75943500D03*
X144293004Y-75943500D03*
X143023004Y-75943500D03*
X141753004Y-75943500D03*
X140483004Y-75943500D03*
X139213004Y-75943500D03*
X137943004Y-75943500D03*
X136673004Y-75943500D03*
%TD*%
%TO.C,U13*%
X104810000Y-85913500D03*
X106078000Y-85913500D03*
X107348000Y-85913500D03*
X108618000Y-85913500D03*
X109888000Y-85913500D03*
X111158000Y-85913500D03*
X112428000Y-85913500D03*
X113698000Y-85913500D03*
X114968000Y-85913500D03*
X116238000Y-85913500D03*
X117508000Y-85913500D03*
X118778000Y-85913500D03*
X120048000Y-85913500D03*
X121318000Y-85913500D03*
X122588000Y-85913500D03*
X123858000Y-85913500D03*
X125128000Y-85913500D03*
X126398000Y-85913500D03*
X127668000Y-85913500D03*
X128938000Y-85913500D03*
X128938000Y-75943500D03*
X127668000Y-75943500D03*
X126398000Y-75943500D03*
X125128000Y-75943500D03*
X123858000Y-75943500D03*
X122588000Y-75943500D03*
X121318000Y-75943500D03*
X120048000Y-75943500D03*
X118778000Y-75943500D03*
X117508000Y-75943500D03*
X116238000Y-75943500D03*
X114968000Y-75943500D03*
X113698000Y-75943500D03*
X112428000Y-75943500D03*
X111158000Y-75943500D03*
X109888000Y-75943500D03*
X108618000Y-75943500D03*
X107348000Y-75943500D03*
X106078000Y-75943500D03*
X104808000Y-75943500D03*
%TD*%
D14*
%TO.C,C22*%
X99500000Y-127025000D03*
X99500000Y-125475000D03*
%TD*%
D22*
%TO.C,RN3*%
X107980000Y-124700000D03*
D23*
X107980000Y-125500000D03*
X107980000Y-126300000D03*
D22*
X107980000Y-127100000D03*
X110520000Y-127100000D03*
D23*
X110520000Y-126300000D03*
X110520000Y-125500000D03*
D22*
X110520000Y-124700000D03*
%TD*%
D14*
%TO.C,C40*%
X229235000Y-118885000D03*
X229235000Y-117335000D03*
%TD*%
D12*
%TO.C,C2*%
X90500000Y-83850002D03*
X90500000Y-85750000D03*
%TD*%
D14*
%TO.C,C54*%
X101925000Y-85938500D03*
X101925000Y-84388500D03*
%TD*%
D11*
%TO.C,C21*%
X68500000Y-102200000D03*
X68500000Y-100300000D03*
%TD*%
D24*
%TO.C,FB6*%
X45500000Y-129312500D03*
X45500000Y-127187500D03*
%TD*%
D25*
%TO.C,Q1*%
X112562500Y-121912500D03*
X112562500Y-123812500D03*
X114437500Y-122862500D03*
%TD*%
D13*
%TO.C,C5*%
X47450000Y-125000000D03*
X45550000Y-125000000D03*
%TD*%
D26*
%TO.C,Y1*%
X48625000Y-105150000D03*
X54525000Y-105150000D03*
X54525000Y-102450000D03*
X48625000Y-102450000D03*
%TD*%
D22*
%TO.C,RN5*%
X255980000Y-97800000D03*
D23*
X255980000Y-98600000D03*
X255980000Y-99400000D03*
D22*
X255980000Y-100200000D03*
X258520000Y-100200000D03*
D23*
X258520000Y-99400000D03*
X258520000Y-98600000D03*
D22*
X258520000Y-97800000D03*
%TD*%
D27*
%TO.C,FB2*%
X258337500Y-89700000D03*
X260462500Y-89700000D03*
%TD*%
D13*
%TO.C,C1*%
X109645297Y-99674015D03*
X107745299Y-99674015D03*
%TD*%
D11*
%TO.C,C7*%
X217500000Y-128650000D03*
X217500000Y-126750000D03*
%TD*%
D27*
%TO.C,FB3*%
X258337500Y-93200000D03*
X260462500Y-93200000D03*
%TD*%
D28*
%TO.C,FB4*%
X148812500Y-122750000D03*
X146687500Y-122750000D03*
%TD*%
D27*
%TO.C,FB1*%
X258437500Y-86000000D03*
X260562500Y-86000000D03*
%TD*%
D24*
%TO.C,FB5*%
X215400000Y-128862500D03*
X215400000Y-126737500D03*
%TD*%
D14*
%TO.C,C26*%
X165765004Y-87438500D03*
X165765004Y-85888500D03*
%TD*%
D29*
%TO.C,R3*%
X95250000Y-84438500D03*
X95250000Y-86088500D03*
%TD*%
D30*
%TO.C,C53*%
X92851992Y-125451992D03*
X93948008Y-126548008D03*
%TD*%
D31*
%TO.C,C11*%
X124000000Y-116800000D03*
X124000000Y-121200000D03*
%TD*%
D19*
%TO.C,R9*%
X118250000Y-120162500D03*
X118250000Y-118337500D03*
%TD*%
D29*
%TO.C,R2*%
X98500000Y-84413500D03*
X98500000Y-86063500D03*
%TD*%
D32*
%TO.C,U2*%
X73870000Y-94775000D03*
X73870000Y-95275000D03*
X73870000Y-95775000D03*
X73870000Y-96275000D03*
X73870000Y-96775000D03*
X73870000Y-97275000D03*
X73870000Y-97775000D03*
X73870000Y-98275000D03*
X73870000Y-98775000D03*
X73870000Y-99275000D03*
X73870000Y-99775000D03*
X73870000Y-100275000D03*
X73870000Y-100775000D03*
X73870000Y-101275000D03*
X73870000Y-101775000D03*
X73870000Y-102275000D03*
X73870000Y-102775000D03*
X73870000Y-103275000D03*
X73870000Y-103775000D03*
X73870000Y-104275000D03*
X73870000Y-104775000D03*
X73870000Y-105275000D03*
X73870000Y-105775000D03*
X73870000Y-106275000D03*
X73870000Y-106775000D03*
X73870000Y-107275000D03*
X73870000Y-107775000D03*
X73870000Y-108275000D03*
X73870000Y-108775000D03*
X73870000Y-109275000D03*
X73870000Y-109775000D03*
X73870000Y-110275000D03*
X73870000Y-110775000D03*
X73870000Y-111275000D03*
X73870000Y-111775000D03*
X73870000Y-112275000D03*
X73870000Y-112775000D03*
X73870000Y-113275000D03*
X73870000Y-113775000D03*
X73870000Y-114275000D03*
X73870000Y-114775000D03*
X73870000Y-115275000D03*
X73870000Y-115775000D03*
X73870000Y-116275000D03*
X73870000Y-116775000D03*
X73870000Y-117275000D03*
X73870000Y-117775000D03*
X73870000Y-118275000D03*
X73870000Y-118775000D03*
X73870000Y-119275000D03*
X73870000Y-119775000D03*
X73870000Y-120275000D03*
D33*
X76150000Y-122600000D03*
X76650000Y-122600000D03*
X77150000Y-122600000D03*
X77650000Y-122600000D03*
X78150000Y-122600000D03*
X78650000Y-122600000D03*
X79150000Y-122600000D03*
X79650000Y-122600000D03*
X80150000Y-122600000D03*
X80650000Y-122600000D03*
X81150000Y-122600000D03*
X81650000Y-122600000D03*
X82150000Y-122600000D03*
X82650000Y-122600000D03*
X83150000Y-122600000D03*
X83650000Y-122600000D03*
X84150000Y-122600000D03*
X84650000Y-122600000D03*
X85150000Y-122600000D03*
X85650000Y-122600000D03*
X86150000Y-122600000D03*
X86650000Y-122600000D03*
X87150000Y-122600000D03*
X87650000Y-122600000D03*
X88150000Y-122600000D03*
X88650000Y-122600000D03*
X89150000Y-122600000D03*
X89650000Y-122600000D03*
X90150000Y-122600000D03*
X90650000Y-122600000D03*
X91150000Y-122600000D03*
X91650000Y-122600000D03*
X92150000Y-122600000D03*
X92650000Y-122600000D03*
X93150000Y-122600000D03*
X93650000Y-122600000D03*
X94150000Y-122600000D03*
X94650000Y-122600000D03*
X95150000Y-122600000D03*
X95650000Y-122600000D03*
X96150000Y-122600000D03*
X96650000Y-122600000D03*
X97150000Y-122600000D03*
X97650000Y-122600000D03*
X98150000Y-122600000D03*
X98650000Y-122600000D03*
X99150000Y-122600000D03*
X99650000Y-122600000D03*
X100150000Y-122600000D03*
X100650000Y-122600000D03*
X101150000Y-122600000D03*
X101650000Y-122600000D03*
D32*
X103900000Y-120275000D03*
X103900000Y-119775000D03*
X103900000Y-119275000D03*
X103900000Y-118775000D03*
X103900000Y-118275000D03*
X103900000Y-117775000D03*
X103900000Y-117275000D03*
X103900000Y-116775000D03*
X103900000Y-116275000D03*
X103900000Y-115775000D03*
X103900000Y-115275000D03*
X103900000Y-114775000D03*
X103900000Y-114275000D03*
X103900000Y-113775000D03*
X103900000Y-113275000D03*
X103900000Y-112775000D03*
X103900000Y-112275000D03*
X103900000Y-111775000D03*
X103900000Y-111275000D03*
X103900000Y-110775000D03*
X103900000Y-110275000D03*
X103900000Y-109775000D03*
X103900000Y-109275000D03*
X103900000Y-108775000D03*
X103900000Y-108275000D03*
X103900000Y-107775000D03*
X103900000Y-107275000D03*
X103900000Y-106775000D03*
X103900000Y-106275000D03*
X103900000Y-105775000D03*
X103900000Y-105275000D03*
X103900000Y-104775000D03*
X103900000Y-104275000D03*
X103900000Y-103775000D03*
X103900000Y-103275000D03*
X103900000Y-102775000D03*
X103900000Y-102275000D03*
X103900000Y-101775000D03*
X103900000Y-101275000D03*
X103900000Y-100775000D03*
X103900000Y-100275000D03*
X103900000Y-99775000D03*
X103900000Y-99275000D03*
X103900000Y-98775000D03*
X103900000Y-98275000D03*
X103900000Y-97775000D03*
X103900000Y-97275000D03*
X103900000Y-96775000D03*
X103900000Y-96275000D03*
X103900000Y-95775000D03*
X103900000Y-95275000D03*
X103900000Y-94775000D03*
D33*
X101650000Y-92495000D03*
X101150000Y-92495000D03*
X100650000Y-92495000D03*
X100150000Y-92495000D03*
X99650000Y-92495000D03*
X99150000Y-92495000D03*
X98650000Y-92495000D03*
X98150000Y-92495000D03*
X97650000Y-92495000D03*
X97150000Y-92495000D03*
X96650000Y-92495000D03*
X96150000Y-92495000D03*
X95650000Y-92495000D03*
X95150000Y-92495000D03*
X94650000Y-92495000D03*
X94150000Y-92495000D03*
X93650000Y-92495000D03*
X93150000Y-92495000D03*
X92650000Y-92495000D03*
X92150000Y-92495000D03*
X91650000Y-92495000D03*
X91150000Y-92495000D03*
X90650000Y-92495000D03*
X90150000Y-92495000D03*
X89650000Y-92495000D03*
X89150000Y-92495000D03*
X88650000Y-92495000D03*
X88150000Y-92495000D03*
X87650000Y-92495000D03*
X87150000Y-92495000D03*
X86650000Y-92495000D03*
X86150000Y-92495000D03*
X85650000Y-92495000D03*
X85150000Y-92495000D03*
X84650000Y-92495000D03*
X84150000Y-92495000D03*
X83650000Y-92495000D03*
X83150000Y-92495000D03*
X82650000Y-92495000D03*
X82150000Y-92495000D03*
X81650000Y-92495000D03*
X81150000Y-92495000D03*
X80650000Y-92495000D03*
X80150000Y-92495000D03*
X79650000Y-92495000D03*
X79150000Y-92495000D03*
X78650000Y-92495000D03*
X78150000Y-92495000D03*
X77650000Y-92495000D03*
X77150000Y-92495000D03*
X76650000Y-92495000D03*
X76150000Y-92495000D03*
%TD*%
D20*
%TO.C,U12*%
X53060000Y-85913500D03*
X54328000Y-85913500D03*
X55598000Y-85913500D03*
X56868000Y-85913500D03*
X58138000Y-85913500D03*
X59408000Y-85913500D03*
X60678000Y-85913500D03*
X61948000Y-85913500D03*
X63218000Y-85913500D03*
X64488000Y-85913500D03*
X65758000Y-85913500D03*
X67028000Y-85913500D03*
X68298000Y-85913500D03*
X69568000Y-85913500D03*
X70838000Y-85913500D03*
X72108000Y-85913500D03*
X73378000Y-85913500D03*
X74648000Y-85913500D03*
X75918000Y-85913500D03*
X77188000Y-85913500D03*
X77188000Y-75943500D03*
X75918000Y-75943500D03*
X74648000Y-75943500D03*
X73378000Y-75943500D03*
X72108000Y-75943500D03*
X70838000Y-75943500D03*
X69568000Y-75943500D03*
X68298000Y-75943500D03*
X67028000Y-75943500D03*
X65758000Y-75943500D03*
X64488000Y-75943500D03*
X63218000Y-75943500D03*
X61948000Y-75943500D03*
X60678000Y-75943500D03*
X59408000Y-75943500D03*
X58138000Y-75943500D03*
X56868000Y-75943500D03*
X55598000Y-75943500D03*
X54328000Y-75943500D03*
X53058000Y-75943500D03*
%TD*%
D29*
%TO.C,R1*%
X97000000Y-84413500D03*
X97000000Y-86063500D03*
%TD*%
D34*
%TO.C,C45*%
X123475000Y-91000000D03*
X125025000Y-91000000D03*
%TD*%
D22*
%TO.C,RN4*%
X107980000Y-117050000D03*
D23*
X107980000Y-117850000D03*
X107980000Y-118650000D03*
D22*
X107980000Y-119450000D03*
X110520000Y-119450000D03*
D23*
X110520000Y-118650000D03*
X110520000Y-117850000D03*
D22*
X110520000Y-117050000D03*
%TD*%
D35*
%TO.C,R10*%
X228837500Y-107750000D03*
X230662500Y-107750000D03*
%TD*%
D36*
%TO.C,C6*%
X140400000Y-122700000D03*
X142300000Y-122700000D03*
%TD*%
D29*
%TO.C,R6*%
X100208623Y-84338500D03*
X100208623Y-85988500D03*
%TD*%
D37*
%TO.C,U6*%
X240150000Y-127250000D03*
X240800000Y-127250000D03*
X241450000Y-127250000D03*
X242100000Y-127250000D03*
X242750000Y-127250000D03*
X243400000Y-127250000D03*
X244050000Y-127250000D03*
X244700000Y-127250000D03*
X245350000Y-127250000D03*
X246000000Y-127250000D03*
X246000000Y-120250000D03*
X245350000Y-120250000D03*
X244700000Y-120250000D03*
X244050000Y-120250000D03*
X243400000Y-120250000D03*
X242750000Y-120250000D03*
X242100000Y-120250000D03*
X241450000Y-120250000D03*
X240800000Y-120250000D03*
X240150000Y-120250000D03*
%TD*%
D38*
%TO.C,R28*%
X65412500Y-98700000D03*
X63587500Y-98700000D03*
%TD*%
D11*
%TO.C,C31*%
X262800000Y-91550000D03*
X262800000Y-89650000D03*
%TD*%
D39*
%TO.C,U5*%
X133775000Y-121085000D03*
X130725000Y-121085000D03*
X133775000Y-124435000D03*
X130725000Y-124435000D03*
D40*
X134530000Y-116460000D03*
X129970000Y-116460000D03*
%TD*%
D25*
%TO.C,U4*%
X118562500Y-121962500D03*
X118562500Y-123862500D03*
X120437500Y-122912500D03*
%TD*%
D11*
%TO.C,C30*%
X262800000Y-87750000D03*
X262800000Y-85850000D03*
%TD*%
D14*
%TO.C,C18*%
X57000000Y-127275000D03*
X57000000Y-125725000D03*
%TD*%
D22*
%TO.C,RN2*%
X117670000Y-93400000D03*
D23*
X117670000Y-92600000D03*
X117670000Y-91800000D03*
D22*
X117670000Y-91000000D03*
X115130000Y-91000000D03*
D23*
X115130000Y-91800000D03*
X115130000Y-92600000D03*
D22*
X115130000Y-93400000D03*
%TD*%
D10*
%TO.C,C39*%
X237800000Y-120225000D03*
X237800000Y-121775000D03*
%TD*%
D12*
%TO.C,C35*%
X63824506Y-105450001D03*
X63824506Y-107349999D03*
%TD*%
D21*
%TO.C,R30*%
X93416637Y-81583363D03*
X94583363Y-80416637D03*
%TD*%
D34*
%TO.C,C4*%
X44400000Y-96275000D03*
X45950000Y-96275000D03*
%TD*%
M02*
