%TF.GenerationSoftware,KiCad,Pcbnew,9.0.3+1*%
%TF.CreationDate,2025-09-04T08:11:30-07:00*%
%TF.ProjectId,cardshark-isa,63617264-7368-4617-926b-2d6973612e6b,rev?*%
%TF.SameCoordinates,Original*%
%TF.FileFunction,Paste,Bot*%
%TF.FilePolarity,Positive*%
%FSLAX46Y46*%
G04 Gerber Fmt 4.6, Leading zero omitted, Abs format (unit mm)*
G04 Created by KiCad (PCBNEW 9.0.3+1) date 2025-09-04 08:11:30*
%MOMM*%
%LPD*%
G01*
G04 APERTURE LIST*
G04 Aperture macros list*
%AMRoundRect*
0 Rectangle with rounded corners*
0 $1 Rounding radius*
0 $2 $3 $4 $5 $6 $7 $8 $9 X,Y pos of 4 corners*
0 Add a 4 corners polygon primitive as box body*
4,1,4,$2,$3,$4,$5,$6,$7,$8,$9,$2,$3,0*
0 Add four circle primitives for the rounded corners*
1,1,$1+$1,$2,$3*
1,1,$1+$1,$4,$5*
1,1,$1+$1,$6,$7*
1,1,$1+$1,$8,$9*
0 Add four rect primitives between the rounded corners*
20,1,$1+$1,$2,$3,$4,$5,0*
20,1,$1+$1,$4,$5,$6,$7,0*
20,1,$1+$1,$6,$7,$8,$9,0*
20,1,$1+$1,$8,$9,$2,$3,0*%
G04 Aperture macros list end*
%ADD10RoundRect,0.250000X0.650000X-0.325000X0.650000X0.325000X-0.650000X0.325000X-0.650000X-0.325000X0*%
%ADD11RoundRect,0.250000X0.250000X0.475000X-0.250000X0.475000X-0.250000X-0.475000X0.250000X-0.475000X0*%
%ADD12RoundRect,0.250000X-0.475000X0.250000X-0.475000X-0.250000X0.475000X-0.250000X0.475000X0.250000X0*%
%ADD13RoundRect,0.250000X-0.250000X-0.475000X0.250000X-0.475000X0.250000X0.475000X-0.250000X0.475000X0*%
%ADD14RoundRect,0.249998X-0.450002X0.262502X-0.450002X-0.262502X0.450002X-0.262502X0.450002X0.262502X0*%
%ADD15RoundRect,0.249998X-0.262502X-0.450002X0.262502X-0.450002X0.262502X0.450002X-0.262502X0.450002X0*%
%ADD16R,1.600000X0.500000*%
%ADD17R,1.600000X0.400000*%
%ADD18RoundRect,0.250000X0.262500X0.450000X-0.262500X0.450000X-0.262500X-0.450000X0.262500X-0.450000X0*%
%ADD19RoundRect,0.250000X-0.262500X-0.450000X0.262500X-0.450000X0.262500X0.450000X-0.262500X0.450000X0*%
%ADD20RoundRect,0.250000X-0.325000X-0.650000X0.325000X-0.650000X0.325000X0.650000X-0.325000X0.650000X0*%
%ADD21RoundRect,0.250000X0.325000X0.650000X-0.325000X0.650000X-0.325000X-0.650000X0.325000X-0.650000X0*%
%ADD22RoundRect,0.250000X0.475000X-0.250000X0.475000X0.250000X-0.475000X0.250000X-0.475000X-0.250000X0*%
%ADD23RoundRect,0.250000X0.450000X-0.262500X0.450000X0.262500X-0.450000X0.262500X-0.450000X-0.262500X0*%
%ADD24RoundRect,0.100000X0.650000X0.100000X-0.650000X0.100000X-0.650000X-0.100000X0.650000X-0.100000X0*%
%ADD25RoundRect,0.218750X0.218750X0.381250X-0.218750X0.381250X-0.218750X-0.381250X0.218750X-0.381250X0*%
%ADD26RoundRect,0.250000X-0.450000X0.262500X-0.450000X-0.262500X0.450000X-0.262500X0.450000X0.262500X0*%
%ADD27R,0.500000X1.600000*%
%ADD28R,0.400000X1.600000*%
G04 APERTURE END LIST*
D10*
%TO.C,C16*%
X199850000Y-88725001D03*
X199850000Y-85774999D03*
%TD*%
%TO.C,C17*%
X219750000Y-97425000D03*
X219750000Y-94475000D03*
%TD*%
D11*
%TO.C,C44*%
X196775000Y-92850000D03*
X194875000Y-92850000D03*
%TD*%
%TO.C,C46*%
X181276357Y-117514119D03*
X179376359Y-117514119D03*
%TD*%
%TO.C,C9*%
X143900000Y-115000000D03*
X142000000Y-115000000D03*
%TD*%
%TO.C,C10*%
X144000000Y-107000000D03*
X142100002Y-107000000D03*
%TD*%
D12*
%TO.C,C8*%
X139400000Y-85050000D03*
X139400000Y-86950000D03*
%TD*%
D13*
%TO.C,C25*%
X251050001Y-104500000D03*
X252949999Y-104500000D03*
%TD*%
D14*
%TO.C,R26*%
X198525000Y-92975000D03*
X198525000Y-94800000D03*
%TD*%
%TO.C,R27*%
X183200000Y-117362500D03*
X183200000Y-119187500D03*
%TD*%
D15*
%TO.C,R19*%
X255087500Y-104500000D03*
X256912500Y-104500000D03*
%TD*%
D13*
%TO.C,C7*%
X255050000Y-102250000D03*
X256950000Y-102250000D03*
%TD*%
%TO.C,C38*%
X157847500Y-113350000D03*
X159747500Y-113350000D03*
%TD*%
D11*
%TO.C,C3*%
X208425000Y-105950000D03*
X206525000Y-105950000D03*
%TD*%
D16*
%TO.C,RN3*%
X160770000Y-94100000D03*
D17*
X160770000Y-94900000D03*
X160770000Y-95700000D03*
D16*
X160770000Y-96500000D03*
X158230000Y-96500000D03*
D17*
X158230000Y-95700000D03*
X158230000Y-94900000D03*
D16*
X158230000Y-94100000D03*
%TD*%
D18*
%TO.C,R17*%
X207287500Y-109800000D03*
X205462500Y-109800000D03*
%TD*%
D11*
%TO.C,C34*%
X196775000Y-94825000D03*
X194875000Y-94825000D03*
%TD*%
D19*
%TO.C,R4*%
X157337500Y-98100000D03*
X159162500Y-98100000D03*
%TD*%
D16*
%TO.C,RN1*%
X160770000Y-90400000D03*
D17*
X160770000Y-91200000D03*
X160770000Y-92000000D03*
D16*
X160770000Y-92800000D03*
X158230000Y-92800000D03*
D17*
X158230000Y-92000000D03*
X158230000Y-91200000D03*
D16*
X158230000Y-90400000D03*
%TD*%
D20*
%TO.C,C12*%
X178525000Y-129000000D03*
X181475000Y-129000000D03*
%TD*%
D18*
%TO.C,R18*%
X207300000Y-107900000D03*
X205475000Y-107900000D03*
%TD*%
D21*
%TO.C,C11*%
X253475000Y-129000000D03*
X250525000Y-129000000D03*
%TD*%
D22*
%TO.C,C22*%
X207950000Y-93699999D03*
X207950000Y-91800001D03*
%TD*%
D12*
%TO.C,C40*%
X228100000Y-118150000D03*
X228100000Y-120050000D03*
%TD*%
D19*
%TO.C,R11*%
X216775000Y-66200000D03*
X218600000Y-66200000D03*
%TD*%
D13*
%TO.C,C43*%
X157847500Y-108950000D03*
X159747500Y-108950000D03*
%TD*%
%TO.C,C2*%
X201950000Y-94100000D03*
X203850000Y-94100000D03*
%TD*%
D12*
%TO.C,C26*%
X159000000Y-85050000D03*
X159000000Y-86950000D03*
%TD*%
D22*
%TO.C,C53*%
X183854534Y-87199999D03*
X183854534Y-85300001D03*
%TD*%
D19*
%TO.C,R3*%
X153387500Y-65900000D03*
X155212500Y-65900000D03*
%TD*%
D23*
%TO.C,R1*%
X155100000Y-76412500D03*
X155100000Y-74587500D03*
%TD*%
D19*
%TO.C,R2*%
X157337500Y-100000000D03*
X159162500Y-100000000D03*
%TD*%
D24*
%TO.C,U5*%
X261580000Y-103350000D03*
X261580000Y-104000000D03*
X261580000Y-104650000D03*
X258920000Y-104650000D03*
X258920000Y-103350000D03*
%TD*%
D13*
%TO.C,C5*%
X179650002Y-126850000D03*
X181550000Y-126850000D03*
%TD*%
D23*
%TO.C,R20*%
X183210000Y-122562500D03*
X183210000Y-120737500D03*
%TD*%
D25*
%TO.C,FB4*%
X223825000Y-94550000D03*
X221700000Y-94550000D03*
%TD*%
D20*
%TO.C,C19*%
X125125000Y-129000000D03*
X128075000Y-129000000D03*
%TD*%
D10*
%TO.C,C6*%
X211000000Y-91075001D03*
X211000000Y-88124999D03*
%TD*%
D19*
%TO.C,R6*%
X157337500Y-101925000D03*
X159162500Y-101925000D03*
%TD*%
D26*
%TO.C,R13*%
X227200000Y-128287500D03*
X227200000Y-130112500D03*
%TD*%
D23*
%TO.C,R5*%
X271100000Y-113425000D03*
X271100000Y-111600000D03*
%TD*%
D27*
%TO.C,RN2*%
X148400000Y-74480000D03*
D28*
X149200000Y-74480000D03*
X150000000Y-74480000D03*
D27*
X150800000Y-74480000D03*
X150800000Y-77020000D03*
D28*
X150000000Y-77020000D03*
X149200000Y-77020000D03*
D27*
X148400000Y-77020000D03*
%TD*%
D11*
%TO.C,C39*%
X270550000Y-121400000D03*
X268650000Y-121400000D03*
%TD*%
D26*
%TO.C,R12*%
X225300000Y-128287500D03*
X225300000Y-130112500D03*
%TD*%
D11*
%TO.C,C35*%
X181266355Y-119514119D03*
X179366357Y-119514119D03*
%TD*%
D22*
%TO.C,C4*%
X196104534Y-87495466D03*
X196104534Y-85595466D03*
%TD*%
M02*
