%TF.GenerationSoftware,KiCad,Pcbnew,10.0.4*%
%TF.CreationDate,2026-09-10T18:54:18-07:00*%
%TF.ProjectId,cardshark,63617264-7368-4617-926b-2e6b69636164,rev?*%
%TF.SameCoordinates,Original*%
%TF.FileFunction,Soldermask,Top*%
%TF.FilePolarity,Negative*%
%FSLAX46Y46*%
G04 Gerber Fmt 4.6, Leading zero omitted, Abs format (unit mm)*
G04 Created by KiCad (PCBNEW 10.0.4) date 2026-09-10 18:54:18*
%MOMM*%
%LPD*%
G01*
G04 APERTURE LIST*
G04 Aperture macros list*
%AMRoundRect*
0 Rectangle with rounded corners*
0 $1 Rounding radius*
0 $2 $3 $4 $5 $6 $7 $8 $9 X,Y pos of 4 corners*
0 Add a 4 corners polygon primitive as box body*
4,1,4,$2,$3,$4,$5,$6,$7,$8,$9,$2,$3,0*
0 Add four circle primitives for the rounded corners*
1,1,$1+$1,$2,$3*
1,1,$1+$1,$4,$5*
1,1,$1+$1,$6,$7*
1,1,$1+$1,$8,$9*
0 Add four rect primitives between the rounded corners*
20,1,$1+$1,$2,$3,$4,$5,0*
20,1,$1+$1,$4,$5,$6,$7,0*
20,1,$1+$1,$6,$7,$8,$9,0*
20,1,$1+$1,$8,$9,$2,$3,0*%
G04 Aperture macros list end*
%ADD10RoundRect,0.225000X-0.250000X0.225000X-0.250000X-0.225000X0.250000X-0.225000X0.250000X0.225000X0*%
%ADD11RoundRect,0.250000X0.475000X-0.250000X0.475000X0.250000X-0.475000X0.250000X-0.475000X-0.250000X0*%
%ADD12RoundRect,0.250000X-0.475000X0.250000X-0.475000X-0.250000X0.475000X-0.250000X0.475000X0.250000X0*%
%ADD13RoundRect,0.250000X0.250000X0.475000X-0.250000X0.475000X-0.250000X-0.475000X0.250000X-0.475000X0*%
%ADD14RoundRect,0.225000X0.250000X-0.225000X0.250000X0.225000X-0.250000X0.225000X-0.250000X-0.225000X0*%
%ADD15RoundRect,0.249998X-0.450002X0.262502X-0.450002X-0.262502X0.450002X-0.262502X0.450002X0.262502X0*%
%ADD16RoundRect,0.249998X-0.262502X-0.450002X0.262502X-0.450002X0.262502X0.450002X-0.262502X0.450002X0*%
%ADD17RoundRect,0.225000X0.335876X0.017678X0.017678X0.335876X-0.335876X-0.017678X-0.017678X-0.335876X0*%
%ADD18C,2.000000*%
%ADD19RoundRect,0.225000X0.017678X-0.335876X0.335876X-0.017678X-0.017678X0.335876X-0.335876X0.017678X0*%
%ADD20RoundRect,0.250000X0.450000X-0.262500X0.450000X0.262500X-0.450000X0.262500X-0.450000X-0.262500X0*%
%ADD21RoundRect,0.102000X0.847500X-0.847500X0.847500X0.847500X-0.847500X0.847500X-0.847500X-0.847500X0*%
%ADD22C,1.899000*%
%ADD23C,4.450000*%
%ADD24RoundRect,0.150000X0.150000X-1.475000X0.150000X1.475000X-0.150000X1.475000X-0.150000X-1.475000X0*%
%ADD25RoundRect,0.200000X0.053033X-0.335876X0.335876X-0.053033X-0.053033X0.335876X-0.335876X0.053033X0*%
%ADD26R,1.600000X0.500000*%
%ADD27R,1.600000X0.400000*%
%ADD28RoundRect,0.218750X0.381250X-0.218750X0.381250X0.218750X-0.381250X0.218750X-0.381250X-0.218750X0*%
%ADD29R,1.600000X1.600000*%
%ADD30O,1.600000X1.600000*%
%ADD31RoundRect,0.150000X-0.587500X-0.150000X0.587500X-0.150000X0.587500X0.150000X-0.587500X0.150000X0*%
%ADD32RoundRect,0.250000X-0.800000X-0.600000X0.800000X-0.600000X0.800000X0.600000X-0.800000X0.600000X0*%
%ADD33C,1.600000*%
%ADD34R,1.700000X1.700000*%
%ADD35O,1.700000X1.700000*%
%ADD36RoundRect,0.218750X-0.218750X-0.381250X0.218750X-0.381250X0.218750X0.381250X-0.218750X0.381250X0*%
%ADD37RoundRect,0.218750X0.218750X0.381250X-0.218750X0.381250X-0.218750X-0.381250X0.218750X-0.381250X0*%
%ADD38R,1.020000X4.570000*%
%ADD39R,0.510000X0.760000*%
%ADD40C,1.700000*%
%ADD41RoundRect,0.200000X-0.275000X0.200000X-0.275000X-0.200000X0.275000X-0.200000X0.275000X0.200000X0*%
%ADD42RoundRect,0.225000X-0.335876X-0.017678X-0.017678X-0.335876X0.335876X0.017678X0.017678X0.335876X0*%
%ADD43RoundRect,0.250000X-0.550000X1.250000X-0.550000X-1.250000X0.550000X-1.250000X0.550000X1.250000X0*%
%ADD44RoundRect,0.007500X-0.792500X-0.142500X0.792500X-0.142500X0.792500X0.142500X-0.792500X0.142500X0*%
%ADD45RoundRect,0.007500X-0.142500X-0.792500X0.142500X-0.792500X0.142500X0.792500X-0.142500X0.792500X0*%
%ADD46RoundRect,0.225000X-0.225000X-0.250000X0.225000X-0.250000X0.225000X0.250000X-0.225000X0.250000X0*%
%ADD47R,1.780000X7.620000*%
%ADD48RoundRect,0.250000X-0.262500X-0.450000X0.262500X-0.450000X0.262500X0.450000X-0.262500X0.450000X0*%
%ADD49RoundRect,0.250000X-0.250000X-0.475000X0.250000X-0.475000X0.250000X0.475000X-0.250000X0.475000X0*%
%ADD50RoundRect,0.125000X0.125000X-0.825000X0.125000X0.825000X-0.125000X0.825000X-0.125000X-0.825000X0*%
%ADD51RoundRect,0.250000X0.262500X0.450000X-0.262500X0.450000X-0.262500X-0.450000X0.262500X-0.450000X0*%
%ADD52RoundRect,0.250000X-0.350000X0.850000X-0.350000X-0.850000X0.350000X-0.850000X0.350000X0.850000X0*%
%ADD53RoundRect,0.249997X-2.650003X2.950003X-2.650003X-2.950003X2.650003X-2.950003X2.650003X2.950003X0*%
G04 APERTURE END LIST*
D10*
%TO.C,C14*%
X131750000Y-109820000D03*
X131750000Y-108270000D03*
%TD*%
D11*
%TO.C,C16*%
X113500000Y-117450000D03*
X113500000Y-115550000D03*
%TD*%
D12*
%TO.C,C17*%
X108000000Y-113550000D03*
X108000000Y-115450000D03*
%TD*%
D10*
%TO.C,C46*%
X65750000Y-101725000D03*
X65750000Y-103275000D03*
%TD*%
%TO.C,C49*%
X108000000Y-110325000D03*
X108000000Y-111875000D03*
%TD*%
D13*
%TO.C,C3*%
X70949999Y-94500000D03*
X69050001Y-94500000D03*
%TD*%
D14*
%TO.C,C9*%
X49000000Y-87438500D03*
X49000000Y-85888500D03*
%TD*%
%TO.C,C8*%
X79750000Y-88275000D03*
X79750000Y-86725000D03*
%TD*%
D10*
%TO.C,C13*%
X165642000Y-104945000D03*
X165642000Y-106495000D03*
%TD*%
D15*
%TO.C,R27*%
X63800000Y-101587500D03*
X63800000Y-103412500D03*
%TD*%
D16*
%TO.C,R19*%
X56987500Y-129000000D03*
X58812500Y-129000000D03*
%TD*%
D17*
%TO.C,C37*%
X85213828Y-126554336D03*
X84117812Y-125458320D03*
%TD*%
D18*
%TO.C,FID1*%
X272250000Y-73000000D03*
%TD*%
%TO.C,FID2*%
X271750000Y-127000000D03*
%TD*%
%TO.C,FID3*%
X42700000Y-73800000D03*
%TD*%
D19*
%TO.C,C38*%
X132201992Y-92298008D03*
X133298008Y-91201992D03*
%TD*%
D11*
%TO.C,C32*%
X262800000Y-95050000D03*
X262800000Y-93150000D03*
%TD*%
D20*
%TO.C,R5*%
X116500000Y-125725000D03*
X116500000Y-123900000D03*
%TD*%
D21*
%TO.C,J3*%
X266925000Y-85875000D03*
D22*
X266925000Y-88165000D03*
X266925000Y-90455000D03*
X266925000Y-92745000D03*
X266925000Y-95035000D03*
X269425000Y-84730000D03*
X269425000Y-87020000D03*
X269425000Y-89310000D03*
X269425000Y-91600000D03*
X269425000Y-93890000D03*
X271925000Y-85875000D03*
X271925000Y-88165000D03*
X271925000Y-90455000D03*
X271925000Y-92745000D03*
X271925000Y-95035000D03*
D23*
X269425000Y-102725000D03*
X269425000Y-77735000D03*
%TD*%
D24*
%TO.C,U7*%
X136502000Y-107470000D03*
X137770000Y-107470000D03*
X139040000Y-107470000D03*
X140310000Y-107470000D03*
X141580000Y-107470000D03*
X142850000Y-107470000D03*
X144120000Y-107470000D03*
X145390000Y-107470000D03*
X146660000Y-107470000D03*
X147930000Y-107470000D03*
X149200000Y-107470000D03*
X150470000Y-107470000D03*
X151740000Y-107470000D03*
X153010000Y-107470000D03*
X154280000Y-107470000D03*
X155550000Y-107470000D03*
X156820000Y-107470000D03*
X158090000Y-107470000D03*
X159360000Y-107470000D03*
X160630000Y-107470000D03*
X160630000Y-97500000D03*
X159360000Y-97500000D03*
X158090000Y-97500000D03*
X156820000Y-97500000D03*
X155550000Y-97500000D03*
X154280000Y-97500000D03*
X153010000Y-97500000D03*
X151740000Y-97500000D03*
X150470000Y-97500000D03*
X149200000Y-97500000D03*
X147930000Y-97500000D03*
X146660000Y-97500000D03*
X145390000Y-97500000D03*
X144120000Y-97500000D03*
X142850000Y-97500000D03*
X141580000Y-97500000D03*
X140310000Y-97500000D03*
X139040000Y-97500000D03*
X137770000Y-97500000D03*
X136500000Y-97500000D03*
%TD*%
D25*
%TO.C,R29*%
X91264080Y-80217630D03*
X92430806Y-79050904D03*
%TD*%
D24*
%TO.C,U3*%
X136675004Y-85913500D03*
X137943004Y-85913500D03*
X139213004Y-85913500D03*
X140483004Y-85913500D03*
X141753004Y-85913500D03*
X143023004Y-85913500D03*
X144293004Y-85913500D03*
X145563004Y-85913500D03*
X146833004Y-85913500D03*
X148103004Y-85913500D03*
X149373004Y-85913500D03*
X150643004Y-85913500D03*
X151913004Y-85913500D03*
X153183004Y-85913500D03*
X154453004Y-85913500D03*
X155723004Y-85913500D03*
X156993004Y-85913500D03*
X158263004Y-85913500D03*
X159533004Y-85913500D03*
X160803004Y-85913500D03*
X160803004Y-75943500D03*
X159533004Y-75943500D03*
X158263004Y-75943500D03*
X156993004Y-75943500D03*
X155723004Y-75943500D03*
X154453004Y-75943500D03*
X153183004Y-75943500D03*
X151913004Y-75943500D03*
X150643004Y-75943500D03*
X149373004Y-75943500D03*
X148103004Y-75943500D03*
X146833004Y-75943500D03*
X145563004Y-75943500D03*
X144293004Y-75943500D03*
X143023004Y-75943500D03*
X141753004Y-75943500D03*
X140483004Y-75943500D03*
X139213004Y-75943500D03*
X137943004Y-75943500D03*
X136673004Y-75943500D03*
%TD*%
%TO.C,U13*%
X104810000Y-85913500D03*
X106078000Y-85913500D03*
X107348000Y-85913500D03*
X108618000Y-85913500D03*
X109888000Y-85913500D03*
X111158000Y-85913500D03*
X112428000Y-85913500D03*
X113698000Y-85913500D03*
X114968000Y-85913500D03*
X116238000Y-85913500D03*
X117508000Y-85913500D03*
X118778000Y-85913500D03*
X120048000Y-85913500D03*
X121318000Y-85913500D03*
X122588000Y-85913500D03*
X123858000Y-85913500D03*
X125128000Y-85913500D03*
X126398000Y-85913500D03*
X127668000Y-85913500D03*
X128938000Y-85913500D03*
X128938000Y-75943500D03*
X127668000Y-75943500D03*
X126398000Y-75943500D03*
X125128000Y-75943500D03*
X123858000Y-75943500D03*
X122588000Y-75943500D03*
X121318000Y-75943500D03*
X120048000Y-75943500D03*
X118778000Y-75943500D03*
X117508000Y-75943500D03*
X116238000Y-75943500D03*
X114968000Y-75943500D03*
X113698000Y-75943500D03*
X112428000Y-75943500D03*
X111158000Y-75943500D03*
X109888000Y-75943500D03*
X108618000Y-75943500D03*
X107348000Y-75943500D03*
X106078000Y-75943500D03*
X104808000Y-75943500D03*
%TD*%
D14*
%TO.C,C22*%
X99500000Y-127025000D03*
X99500000Y-125475000D03*
%TD*%
D26*
%TO.C,RN3*%
X107980000Y-124700000D03*
D27*
X107980000Y-125500000D03*
X107980000Y-126300000D03*
D26*
X107980000Y-127100000D03*
X110520000Y-127100000D03*
D27*
X110520000Y-126300000D03*
X110520000Y-125500000D03*
D26*
X110520000Y-124700000D03*
%TD*%
D14*
%TO.C,C40*%
X229235000Y-118885000D03*
X229235000Y-117335000D03*
%TD*%
D12*
%TO.C,C2*%
X90500000Y-83850002D03*
X90500000Y-85750000D03*
%TD*%
D14*
%TO.C,C54*%
X101925000Y-85938500D03*
X101925000Y-84388500D03*
%TD*%
D11*
%TO.C,C21*%
X68500000Y-102200000D03*
X68500000Y-100300000D03*
%TD*%
D28*
%TO.C,FB6*%
X45500000Y-129312500D03*
X45500000Y-127187500D03*
%TD*%
D29*
%TO.C,U1*%
X225760000Y-107760000D03*
D30*
X223220000Y-107760000D03*
X220680000Y-107760000D03*
X218140000Y-107760000D03*
X215600000Y-107760000D03*
X213060000Y-107760000D03*
X210520000Y-107760000D03*
X207980000Y-107760000D03*
X205440000Y-107760000D03*
X202900000Y-107760000D03*
X200360000Y-107760000D03*
X197820000Y-107760000D03*
X195280000Y-107760000D03*
X192740000Y-107760000D03*
X192740000Y-123000000D03*
X195280000Y-123000000D03*
X197820000Y-123000000D03*
X200360000Y-123000000D03*
X202900000Y-123000000D03*
X205440000Y-123000000D03*
X207980000Y-123000000D03*
X210520000Y-123000000D03*
X213060000Y-123000000D03*
X215600000Y-123000000D03*
X218140000Y-123000000D03*
X220680000Y-123000000D03*
X223220000Y-123000000D03*
X225760000Y-123000000D03*
%TD*%
D31*
%TO.C,Q1*%
X112562500Y-121912500D03*
X112562500Y-123812500D03*
X114437500Y-122862500D03*
%TD*%
D13*
%TO.C,C5*%
X47450000Y-125000000D03*
X45550000Y-125000000D03*
%TD*%
D29*
%TO.C,Y1*%
X44275000Y-107700000D03*
D32*
X48625000Y-105150000D03*
X54525000Y-105150000D03*
D33*
X59515000Y-107700000D03*
D32*
X54525000Y-102450000D03*
D33*
X59515000Y-100080000D03*
X44275000Y-100080000D03*
D32*
X48625000Y-102450000D03*
%TD*%
D34*
%TO.C,JP1*%
X232500000Y-126500000D03*
D35*
X229960000Y-126500000D03*
%TD*%
D26*
%TO.C,RN5*%
X255980000Y-97800000D03*
D27*
X255980000Y-98600000D03*
X255980000Y-99400000D03*
D26*
X255980000Y-100200000D03*
X258520000Y-100200000D03*
D27*
X258520000Y-99400000D03*
X258520000Y-98600000D03*
D26*
X258520000Y-97800000D03*
%TD*%
D36*
%TO.C,FB2*%
X258337500Y-89700000D03*
X260462500Y-89700000D03*
%TD*%
D13*
%TO.C,C1*%
X109645297Y-99674015D03*
X107745299Y-99674015D03*
%TD*%
D11*
%TO.C,C7*%
X217500000Y-128650000D03*
X217500000Y-126750000D03*
%TD*%
D36*
%TO.C,FB3*%
X258337500Y-93200000D03*
X260462500Y-93200000D03*
%TD*%
D37*
%TO.C,FB4*%
X148812500Y-122750000D03*
X146687500Y-122750000D03*
%TD*%
D36*
%TO.C,FB1*%
X258437500Y-86000000D03*
X260562500Y-86000000D03*
%TD*%
D38*
%TO.C,U8*%
X111470000Y-136000000D03*
D39*
X111470000Y-138660000D03*
D38*
X110200000Y-136000000D03*
D39*
X110200000Y-138660000D03*
D38*
X108940000Y-136000000D03*
D39*
X108940000Y-138660000D03*
D38*
X107660000Y-136000000D03*
D39*
X107660000Y-138660000D03*
D38*
X106390000Y-136000000D03*
D39*
X106390000Y-138660000D03*
D38*
X105120000Y-136000000D03*
D39*
X105120000Y-138660000D03*
D38*
X103850000Y-136000000D03*
D39*
X103850000Y-138660000D03*
D38*
X102580000Y-136000000D03*
D39*
X102580000Y-138660000D03*
D38*
X101310000Y-136000000D03*
D39*
X101310000Y-138660000D03*
D38*
X100040000Y-136000000D03*
D39*
X100040000Y-138660000D03*
D38*
X98770000Y-136000000D03*
D39*
X98770000Y-138660000D03*
D38*
X97510000Y-136000000D03*
D39*
X97510000Y-138660000D03*
D38*
X96230000Y-136000000D03*
D39*
X96230000Y-138660000D03*
D38*
X94960000Y-136000000D03*
D39*
X94960000Y-138660000D03*
D38*
X93690000Y-136000000D03*
D39*
X93690000Y-138660000D03*
D38*
X92420000Y-136000000D03*
D39*
X92420000Y-138660000D03*
D38*
X91150000Y-136000000D03*
D39*
X91150000Y-138660000D03*
D38*
X89880000Y-136000000D03*
D39*
X89880000Y-138660000D03*
D38*
X88620000Y-136000000D03*
D39*
X88620000Y-138660000D03*
D38*
X87340000Y-136000000D03*
D39*
X87340000Y-138660000D03*
D38*
X86080000Y-136000000D03*
D39*
X86080000Y-138660000D03*
D38*
X84800000Y-136000000D03*
D39*
X84800000Y-138660000D03*
D38*
X83530000Y-136000000D03*
D39*
X83530000Y-138660000D03*
D38*
X82260000Y-136000000D03*
D39*
X82260000Y-138660000D03*
D38*
X80990000Y-136000000D03*
D39*
X80990000Y-138660000D03*
D38*
X79720000Y-136000000D03*
D39*
X79720000Y-138660000D03*
D38*
X78450000Y-136000000D03*
D39*
X78450000Y-138660000D03*
D38*
X77180000Y-136000000D03*
D39*
X77180000Y-138660000D03*
D38*
X75910000Y-136000000D03*
D39*
X75910000Y-138660000D03*
D38*
X74640000Y-136000000D03*
D39*
X74640000Y-138660000D03*
D38*
X73370000Y-136000000D03*
D39*
X73370000Y-138660000D03*
D38*
X72100000Y-136000000D03*
D39*
X72100000Y-138660000D03*
D38*
X70830000Y-136000000D03*
D39*
X70830000Y-138660000D03*
D38*
X69560000Y-136000000D03*
D39*
X69560000Y-138660000D03*
D38*
X68290000Y-136000000D03*
D39*
X68290000Y-138660000D03*
D38*
X67020000Y-136000000D03*
D39*
X67020000Y-138660000D03*
D38*
X65750000Y-136000000D03*
D39*
X65750000Y-138660000D03*
D38*
X64480000Y-136000000D03*
D39*
X64480000Y-138660000D03*
D38*
X63210000Y-136000000D03*
D39*
X63210000Y-138660000D03*
D38*
X61940000Y-136000000D03*
D39*
X61940000Y-138660000D03*
D38*
X60670000Y-136000000D03*
D39*
X60670000Y-138660000D03*
D38*
X59400000Y-136000000D03*
D39*
X59400000Y-138660000D03*
D38*
X58130000Y-136000000D03*
D39*
X58130000Y-138660000D03*
D38*
X56860000Y-136000000D03*
D39*
X56860000Y-138660000D03*
D38*
X55590000Y-136000000D03*
D39*
X55590000Y-138660000D03*
D38*
X51790000Y-136000000D03*
D39*
X51790000Y-138660000D03*
D38*
X50520000Y-136000000D03*
D39*
X50520000Y-138660000D03*
D38*
X49250000Y-136000000D03*
D39*
X49250000Y-138660000D03*
D38*
X47980000Y-136000000D03*
D39*
X47980000Y-138660000D03*
D38*
X46710000Y-136000000D03*
D39*
X46710000Y-138660000D03*
D38*
X45440000Y-136000000D03*
D39*
X45440000Y-138660000D03*
D38*
X44170000Y-136000000D03*
D39*
X44170000Y-138660000D03*
D38*
X42900000Y-136000000D03*
D39*
X42900000Y-138660000D03*
D38*
X41630000Y-136000000D03*
D39*
X41630000Y-138660000D03*
D38*
X40360000Y-136000000D03*
D39*
X40360000Y-138660000D03*
D38*
X39090000Y-136000000D03*
D39*
X39090000Y-138660000D03*
%TD*%
D28*
%TO.C,FB5*%
X215400000Y-128862500D03*
X215400000Y-126737500D03*
%TD*%
D14*
%TO.C,C26*%
X165765004Y-87438500D03*
X165765004Y-85888500D03*
%TD*%
D34*
%TO.C,JP2*%
X42500000Y-121710000D03*
D40*
X42500000Y-124250000D03*
%TD*%
D41*
%TO.C,R3*%
X95250000Y-84438500D03*
X95250000Y-86088500D03*
%TD*%
D42*
%TO.C,C53*%
X92851992Y-125451992D03*
X93948008Y-126548008D03*
%TD*%
D43*
%TO.C,C11*%
X124000000Y-116800000D03*
X124000000Y-121200000D03*
%TD*%
D20*
%TO.C,R9*%
X118250000Y-120162500D03*
X118250000Y-118337500D03*
%TD*%
D41*
%TO.C,R2*%
X98500000Y-84413500D03*
X98500000Y-86063500D03*
%TD*%
D44*
%TO.C,U2*%
X73870000Y-94775000D03*
X73870000Y-95275000D03*
X73870000Y-95775000D03*
X73870000Y-96275000D03*
X73870000Y-96775000D03*
X73870000Y-97275000D03*
X73870000Y-97775000D03*
X73870000Y-98275000D03*
X73870000Y-98775000D03*
X73870000Y-99275000D03*
X73870000Y-99775000D03*
X73870000Y-100275000D03*
X73870000Y-100775000D03*
X73870000Y-101275000D03*
X73870000Y-101775000D03*
X73870000Y-102275000D03*
X73870000Y-102775000D03*
X73870000Y-103275000D03*
X73870000Y-103775000D03*
X73870000Y-104275000D03*
X73870000Y-104775000D03*
X73870000Y-105275000D03*
X73870000Y-105775000D03*
X73870000Y-106275000D03*
X73870000Y-106775000D03*
X73870000Y-107275000D03*
X73870000Y-107775000D03*
X73870000Y-108275000D03*
X73870000Y-108775000D03*
X73870000Y-109275000D03*
X73870000Y-109775000D03*
X73870000Y-110275000D03*
X73870000Y-110775000D03*
X73870000Y-111275000D03*
X73870000Y-111775000D03*
X73870000Y-112275000D03*
X73870000Y-112775000D03*
X73870000Y-113275000D03*
X73870000Y-113775000D03*
X73870000Y-114275000D03*
X73870000Y-114775000D03*
X73870000Y-115275000D03*
X73870000Y-115775000D03*
X73870000Y-116275000D03*
X73870000Y-116775000D03*
X73870000Y-117275000D03*
X73870000Y-117775000D03*
X73870000Y-118275000D03*
X73870000Y-118775000D03*
X73870000Y-119275000D03*
X73870000Y-119775000D03*
X73870000Y-120275000D03*
D45*
X76150000Y-122600000D03*
X76650000Y-122600000D03*
X77150000Y-122600000D03*
X77650000Y-122600000D03*
X78150000Y-122600000D03*
X78650000Y-122600000D03*
X79150000Y-122600000D03*
X79650000Y-122600000D03*
X80150000Y-122600000D03*
X80650000Y-122600000D03*
X81150000Y-122600000D03*
X81650000Y-122600000D03*
X82150000Y-122600000D03*
X82650000Y-122600000D03*
X83150000Y-122600000D03*
X83650000Y-122600000D03*
X84150000Y-122600000D03*
X84650000Y-122600000D03*
X85150000Y-122600000D03*
X85650000Y-122600000D03*
X86150000Y-122600000D03*
X86650000Y-122600000D03*
X87150000Y-122600000D03*
X87650000Y-122600000D03*
X88150000Y-122600000D03*
X88650000Y-122600000D03*
X89150000Y-122600000D03*
X89650000Y-122600000D03*
X90150000Y-122600000D03*
X90650000Y-122600000D03*
X91150000Y-122600000D03*
X91650000Y-122600000D03*
X92150000Y-122600000D03*
X92650000Y-122600000D03*
X93150000Y-122600000D03*
X93650000Y-122600000D03*
X94150000Y-122600000D03*
X94650000Y-122600000D03*
X95150000Y-122600000D03*
X95650000Y-122600000D03*
X96150000Y-122600000D03*
X96650000Y-122600000D03*
X97150000Y-122600000D03*
X97650000Y-122600000D03*
X98150000Y-122600000D03*
X98650000Y-122600000D03*
X99150000Y-122600000D03*
X99650000Y-122600000D03*
X100150000Y-122600000D03*
X100650000Y-122600000D03*
X101150000Y-122600000D03*
X101650000Y-122600000D03*
D44*
X103900000Y-120275000D03*
X103900000Y-119775000D03*
X103900000Y-119275000D03*
X103900000Y-118775000D03*
X103900000Y-118275000D03*
X103900000Y-117775000D03*
X103900000Y-117275000D03*
X103900000Y-116775000D03*
X103900000Y-116275000D03*
X103900000Y-115775000D03*
X103900000Y-115275000D03*
X103900000Y-114775000D03*
X103900000Y-114275000D03*
X103900000Y-113775000D03*
X103900000Y-113275000D03*
X103900000Y-112775000D03*
X103900000Y-112275000D03*
X103900000Y-111775000D03*
X103900000Y-111275000D03*
X103900000Y-110775000D03*
X103900000Y-110275000D03*
X103900000Y-109775000D03*
X103900000Y-109275000D03*
X103900000Y-108775000D03*
X103900000Y-108275000D03*
X103900000Y-107775000D03*
X103900000Y-107275000D03*
X103900000Y-106775000D03*
X103900000Y-106275000D03*
X103900000Y-105775000D03*
X103900000Y-105275000D03*
X103900000Y-104775000D03*
X103900000Y-104275000D03*
X103900000Y-103775000D03*
X103900000Y-103275000D03*
X103900000Y-102775000D03*
X103900000Y-102275000D03*
X103900000Y-101775000D03*
X103900000Y-101275000D03*
X103900000Y-100775000D03*
X103900000Y-100275000D03*
X103900000Y-99775000D03*
X103900000Y-99275000D03*
X103900000Y-98775000D03*
X103900000Y-98275000D03*
X103900000Y-97775000D03*
X103900000Y-97275000D03*
X103900000Y-96775000D03*
X103900000Y-96275000D03*
X103900000Y-95775000D03*
X103900000Y-95275000D03*
X103900000Y-94775000D03*
D45*
X101650000Y-92495000D03*
X101150000Y-92495000D03*
X100650000Y-92495000D03*
X100150000Y-92495000D03*
X99650000Y-92495000D03*
X99150000Y-92495000D03*
X98650000Y-92495000D03*
X98150000Y-92495000D03*
X97650000Y-92495000D03*
X97150000Y-92495000D03*
X96650000Y-92495000D03*
X96150000Y-92495000D03*
X95650000Y-92495000D03*
X95150000Y-92495000D03*
X94650000Y-92495000D03*
X94150000Y-92495000D03*
X93650000Y-92495000D03*
X93150000Y-92495000D03*
X92650000Y-92495000D03*
X92150000Y-92495000D03*
X91650000Y-92495000D03*
X91150000Y-92495000D03*
X90650000Y-92495000D03*
X90150000Y-92495000D03*
X89650000Y-92495000D03*
X89150000Y-92495000D03*
X88650000Y-92495000D03*
X88150000Y-92495000D03*
X87650000Y-92495000D03*
X87150000Y-92495000D03*
X86650000Y-92495000D03*
X86150000Y-92495000D03*
X85650000Y-92495000D03*
X85150000Y-92495000D03*
X84650000Y-92495000D03*
X84150000Y-92495000D03*
X83650000Y-92495000D03*
X83150000Y-92495000D03*
X82650000Y-92495000D03*
X82150000Y-92495000D03*
X81650000Y-92495000D03*
X81150000Y-92495000D03*
X80650000Y-92495000D03*
X80150000Y-92495000D03*
X79650000Y-92495000D03*
X79150000Y-92495000D03*
X78650000Y-92495000D03*
X78150000Y-92495000D03*
X77650000Y-92495000D03*
X77150000Y-92495000D03*
X76650000Y-92495000D03*
X76150000Y-92495000D03*
%TD*%
D24*
%TO.C,U12*%
X53060000Y-85913500D03*
X54328000Y-85913500D03*
X55598000Y-85913500D03*
X56868000Y-85913500D03*
X58138000Y-85913500D03*
X59408000Y-85913500D03*
X60678000Y-85913500D03*
X61948000Y-85913500D03*
X63218000Y-85913500D03*
X64488000Y-85913500D03*
X65758000Y-85913500D03*
X67028000Y-85913500D03*
X68298000Y-85913500D03*
X69568000Y-85913500D03*
X70838000Y-85913500D03*
X72108000Y-85913500D03*
X73378000Y-85913500D03*
X74648000Y-85913500D03*
X75918000Y-85913500D03*
X77188000Y-85913500D03*
X77188000Y-75943500D03*
X75918000Y-75943500D03*
X74648000Y-75943500D03*
X73378000Y-75943500D03*
X72108000Y-75943500D03*
X70838000Y-75943500D03*
X69568000Y-75943500D03*
X68298000Y-75943500D03*
X67028000Y-75943500D03*
X65758000Y-75943500D03*
X64488000Y-75943500D03*
X63218000Y-75943500D03*
X61948000Y-75943500D03*
X60678000Y-75943500D03*
X59408000Y-75943500D03*
X58138000Y-75943500D03*
X56868000Y-75943500D03*
X55598000Y-75943500D03*
X54328000Y-75943500D03*
X53058000Y-75943500D03*
%TD*%
D41*
%TO.C,R1*%
X97000000Y-84413500D03*
X97000000Y-86063500D03*
%TD*%
D46*
%TO.C,C45*%
X123475000Y-91000000D03*
X125025000Y-91000000D03*
%TD*%
D47*
%TO.C,J2*%
X253700000Y-135600000D03*
X251160000Y-135600000D03*
X248620000Y-135600000D03*
X246080000Y-135600000D03*
X243540000Y-135600000D03*
X241000000Y-135600000D03*
X238460000Y-135600000D03*
X235920000Y-135600000D03*
X233380000Y-135600000D03*
X230840000Y-135600000D03*
X228300000Y-135600000D03*
X225760000Y-135600000D03*
X223220000Y-135600000D03*
X220680000Y-135600000D03*
X218140000Y-135600000D03*
X215600000Y-135600000D03*
X213060000Y-135600000D03*
X210520000Y-135600000D03*
X207980000Y-135600000D03*
X205440000Y-135600000D03*
X202900000Y-135600000D03*
X200360000Y-135600000D03*
X197820000Y-135600000D03*
X195280000Y-135600000D03*
X192740000Y-135600000D03*
X190200000Y-135600000D03*
X187660000Y-135600000D03*
X185120000Y-135600000D03*
X182580000Y-135600000D03*
X180040000Y-135600000D03*
X177500000Y-135600000D03*
%TD*%
D26*
%TO.C,RN4*%
X107980000Y-117050000D03*
D27*
X107980000Y-117850000D03*
X107980000Y-118650000D03*
D26*
X107980000Y-119450000D03*
X110520000Y-119450000D03*
D27*
X110520000Y-118650000D03*
X110520000Y-117850000D03*
D26*
X110520000Y-117050000D03*
%TD*%
D48*
%TO.C,R10*%
X228837500Y-107750000D03*
X230662500Y-107750000D03*
%TD*%
D49*
%TO.C,C6*%
X140400000Y-122700000D03*
X142300000Y-122700000D03*
%TD*%
D41*
%TO.C,R6*%
X100208623Y-84338500D03*
X100208623Y-85988500D03*
%TD*%
D50*
%TO.C,U6*%
X240150000Y-127250000D03*
X240800000Y-127250000D03*
X241450000Y-127250000D03*
X242100000Y-127250000D03*
X242750000Y-127250000D03*
X243400000Y-127250000D03*
X244050000Y-127250000D03*
X244700000Y-127250000D03*
X245350000Y-127250000D03*
X246000000Y-127250000D03*
X246000000Y-120250000D03*
X245350000Y-120250000D03*
X244700000Y-120250000D03*
X244050000Y-120250000D03*
X243400000Y-120250000D03*
X242750000Y-120250000D03*
X242100000Y-120250000D03*
X241450000Y-120250000D03*
X240800000Y-120250000D03*
X240150000Y-120250000D03*
%TD*%
D51*
%TO.C,R28*%
X65412500Y-98700000D03*
X63587500Y-98700000D03*
%TD*%
D11*
%TO.C,C31*%
X262800000Y-91550000D03*
X262800000Y-89650000D03*
%TD*%
D52*
%TO.C,U5*%
X134530000Y-116460000D03*
D53*
X132250000Y-122760000D03*
D52*
X129970000Y-116460000D03*
%TD*%
D31*
%TO.C,U4*%
X118562500Y-121962500D03*
X118562500Y-123862500D03*
X120437500Y-122912500D03*
%TD*%
D11*
%TO.C,C30*%
X262800000Y-87750000D03*
X262800000Y-85850000D03*
%TD*%
D14*
%TO.C,C18*%
X57000000Y-127275000D03*
X57000000Y-125725000D03*
%TD*%
D26*
%TO.C,RN2*%
X117670000Y-93400000D03*
D27*
X117670000Y-92600000D03*
X117670000Y-91800000D03*
D26*
X117670000Y-91000000D03*
X115130000Y-91000000D03*
D27*
X115130000Y-91800000D03*
X115130000Y-92600000D03*
D26*
X115130000Y-93400000D03*
%TD*%
D10*
%TO.C,C39*%
X237800000Y-120225000D03*
X237800000Y-121775000D03*
%TD*%
D12*
%TO.C,C35*%
X63824506Y-105450001D03*
X63824506Y-107349999D03*
%TD*%
D25*
%TO.C,R30*%
X93416637Y-81583363D03*
X94583363Y-80416637D03*
%TD*%
D46*
%TO.C,C4*%
X44400000Y-96275000D03*
X45950000Y-96275000D03*
%TD*%
G36*
X112286121Y-133720002D02*
G01*
X112332614Y-133773658D01*
X112344000Y-133826000D01*
X112344000Y-139861810D01*
X112323998Y-139929931D01*
X112307095Y-139950905D01*
X111745905Y-140512095D01*
X111683593Y-140546121D01*
X111656810Y-140549000D01*
X55373190Y-140549000D01*
X55305069Y-140528998D01*
X55284095Y-140512095D01*
X54722905Y-139950905D01*
X54688879Y-139888593D01*
X54686000Y-139861810D01*
X54686000Y-133826000D01*
X54706002Y-133757879D01*
X54759658Y-133711386D01*
X54812000Y-133700000D01*
X112218000Y-133700000D01*
X112286121Y-133720002D01*
G37*
G36*
X52545321Y-133720002D02*
G01*
X52591814Y-133773658D01*
X52603200Y-133826000D01*
X52603200Y-139861810D01*
X52583198Y-139929931D01*
X52566295Y-139950905D01*
X52005105Y-140512095D01*
X51942793Y-140546121D01*
X51916010Y-140549000D01*
X38863190Y-140549000D01*
X38795069Y-140528998D01*
X38774095Y-140512095D01*
X38212905Y-139950905D01*
X38178879Y-139888593D01*
X38176000Y-139861810D01*
X38176000Y-133826000D01*
X38196002Y-133757879D01*
X38249658Y-133711386D01*
X38302000Y-133700000D01*
X52477200Y-133700000D01*
X52545321Y-133720002D01*
G37*
G36*
X256167121Y-131820002D02*
G01*
X256213614Y-131873658D01*
X256225000Y-131926000D01*
X256225000Y-139597810D01*
X256204998Y-139665931D01*
X256188095Y-139686905D01*
X255311905Y-140563095D01*
X255249593Y-140597121D01*
X255222810Y-140600000D01*
X175952190Y-140600000D01*
X175884069Y-140579998D01*
X175863095Y-140563095D01*
X174986905Y-139686905D01*
X174952879Y-139624593D01*
X174950000Y-139597810D01*
X174950000Y-131926000D01*
X174970002Y-131857879D01*
X175023658Y-131811386D01*
X175076000Y-131800000D01*
X256099000Y-131800000D01*
X256167121Y-131820002D01*
G37*
M02*
