%TF.GenerationSoftware,KiCad,Pcbnew,9.0.2*%
%TF.CreationDate,2025-08-11T18:57:53-07:00*%
%TF.ProjectId,cardshark-isa,63617264-7368-4617-926b-2d6973612e6b,rev?*%
%TF.SameCoordinates,Original*%
%TF.FileFunction,Soldermask,Bot*%
%TF.FilePolarity,Negative*%
%FSLAX46Y46*%
G04 Gerber Fmt 4.6, Leading zero omitted, Abs format (unit mm)*
G04 Created by KiCad (PCBNEW 9.0.2) date 2025-08-11 18:57:53*
%MOMM*%
%LPD*%
G01*
G04 APERTURE LIST*
G04 Aperture macros list*
%AMRoundRect*
0 Rectangle with rounded corners*
0 $1 Rounding radius*
0 $2 $3 $4 $5 $6 $7 $8 $9 X,Y pos of 4 corners*
0 Add a 4 corners polygon primitive as box body*
4,1,4,$2,$3,$4,$5,$6,$7,$8,$9,$2,$3,0*
0 Add four circle primitives for the rounded corners*
1,1,$1+$1,$2,$3*
1,1,$1+$1,$4,$5*
1,1,$1+$1,$6,$7*
1,1,$1+$1,$8,$9*
0 Add four rect primitives between the rounded corners*
20,1,$1+$1,$2,$3,$4,$5,0*
20,1,$1+$1,$4,$5,$6,$7,0*
20,1,$1+$1,$6,$7,$8,$9,0*
20,1,$1+$1,$8,$9,$2,$3,0*%
G04 Aperture macros list end*
%ADD10R,1.700000X1.700000*%
%ADD11O,1.700000X1.700000*%
%ADD12C,4.450000*%
%ADD13RoundRect,0.102000X0.847500X-0.847500X0.847500X0.847500X-0.847500X0.847500X-0.847500X-0.847500X0*%
%ADD14C,1.899000*%
%ADD15R,1.600000X1.600000*%
%ADD16O,1.600000X1.600000*%
%ADD17R,1.780000X7.620000*%
%ADD18RoundRect,0.250000X0.650000X-0.325000X0.650000X0.325000X-0.650000X0.325000X-0.650000X-0.325000X0*%
%ADD19RoundRect,0.250000X0.250000X0.475000X-0.250000X0.475000X-0.250000X-0.475000X0.250000X-0.475000X0*%
%ADD20RoundRect,0.250000X-0.250000X-0.475000X0.250000X-0.475000X0.250000X0.475000X-0.250000X0.475000X0*%
%ADD21RoundRect,0.249998X-0.450002X0.262502X-0.450002X-0.262502X0.450002X-0.262502X0.450002X0.262502X0*%
%ADD22RoundRect,0.249998X-0.262502X-0.450002X0.262502X-0.450002X0.262502X0.450002X-0.262502X0.450002X0*%
%ADD23RoundRect,0.250000X0.262500X0.450000X-0.262500X0.450000X-0.262500X-0.450000X0.262500X-0.450000X0*%
%ADD24RoundRect,0.250000X-0.262500X-0.450000X0.262500X-0.450000X0.262500X0.450000X-0.262500X0.450000X0*%
%ADD25RoundRect,0.250000X-0.325000X-0.650000X0.325000X-0.650000X0.325000X0.650000X-0.325000X0.650000X0*%
%ADD26RoundRect,0.250000X0.325000X0.650000X-0.325000X0.650000X-0.325000X-0.650000X0.325000X-0.650000X0*%
%ADD27RoundRect,0.250000X0.475000X-0.250000X0.475000X0.250000X-0.475000X0.250000X-0.475000X-0.250000X0*%
%ADD28RoundRect,0.250000X-0.475000X0.250000X-0.475000X-0.250000X0.475000X-0.250000X0.475000X0.250000X0*%
%ADD29RoundRect,0.250000X-0.450000X0.262500X-0.450000X-0.262500X0.450000X-0.262500X0.450000X0.262500X0*%
%ADD30RoundRect,0.100000X0.650000X0.100000X-0.650000X0.100000X-0.650000X-0.100000X0.650000X-0.100000X0*%
%ADD31RoundRect,0.218750X0.218750X0.381250X-0.218750X0.381250X-0.218750X-0.381250X0.218750X-0.381250X0*%
%ADD32RoundRect,0.250000X0.450000X-0.262500X0.450000X0.262500X-0.450000X0.262500X-0.450000X-0.262500X0*%
%ADD33R,0.500000X1.600000*%
%ADD34R,0.400000X1.600000*%
%ADD35RoundRect,0.250000X-0.800000X-0.600000X0.800000X-0.600000X0.800000X0.600000X-0.800000X0.600000X0*%
G04 APERTURE END LIST*
D10*
%TO.C,J1*%
X239250000Y-61300000D03*
D11*
X239250000Y-63840000D03*
X236710000Y-61300000D03*
X236710000Y-63840000D03*
X234170000Y-61300000D03*
X234170000Y-63840000D03*
X231630000Y-61300000D03*
X231630000Y-63840000D03*
X229090000Y-61300000D03*
X229090000Y-63840000D03*
X226550000Y-61300000D03*
X226550000Y-63840000D03*
X224010000Y-61300000D03*
X224010000Y-63840000D03*
X221470000Y-61300000D03*
X221470000Y-63840000D03*
X218930000Y-61300000D03*
X218930000Y-63840000D03*
X216390000Y-61300000D03*
X216390000Y-63840000D03*
X213850000Y-61300000D03*
X213850000Y-63840000D03*
X211310000Y-61300000D03*
X211310000Y-63840000D03*
X208770000Y-61300000D03*
X208770000Y-63840000D03*
%TD*%
D12*
%TO.C,J3*%
X269425000Y-102725000D03*
X269425000Y-77735000D03*
D13*
X266925000Y-85875000D03*
D14*
X266925000Y-88165000D03*
X266925000Y-90455000D03*
X266925000Y-92745000D03*
X266925000Y-95035000D03*
X269425000Y-84730000D03*
X269425000Y-87020000D03*
X269425000Y-89310000D03*
X269425000Y-91600000D03*
X269425000Y-93890000D03*
X271925000Y-85875000D03*
X271925000Y-88165000D03*
X271925000Y-90455000D03*
X271925000Y-92745000D03*
X271925000Y-95035000D03*
%TD*%
D15*
%TO.C,U2*%
X270600000Y-108500000D03*
D16*
X268060000Y-108500000D03*
X265520000Y-108500000D03*
X262980000Y-108500000D03*
X260440000Y-108500000D03*
X257900000Y-108500000D03*
X255360000Y-108500000D03*
X252820000Y-108500000D03*
X250280000Y-108500000D03*
X247740000Y-108500000D03*
X245200000Y-108500000D03*
X242660000Y-108500000D03*
X240120000Y-108500000D03*
X237580000Y-108500000D03*
X237580000Y-123740000D03*
X240120000Y-123740000D03*
X242660000Y-123740000D03*
X245200000Y-123740000D03*
X247740000Y-123740000D03*
X250280000Y-123740000D03*
X252820000Y-123740000D03*
X255360000Y-123740000D03*
X257900000Y-123740000D03*
X260440000Y-123740000D03*
X262980000Y-123740000D03*
X265520000Y-123740000D03*
X268060000Y-123740000D03*
X270600000Y-123740000D03*
%TD*%
D10*
%TO.C,JP1*%
X247425000Y-127550000D03*
D11*
X244885000Y-127550000D03*
%TD*%
D17*
%TO.C,J4*%
X253800000Y-135500000D03*
X251260000Y-135500000D03*
X248720000Y-135500000D03*
X246180000Y-135500000D03*
X243640000Y-135500000D03*
X241100000Y-135500000D03*
X238560000Y-135500000D03*
X236020000Y-135500000D03*
X233480000Y-135500000D03*
X230940000Y-135500000D03*
X228400000Y-135500000D03*
X225860000Y-135500000D03*
X223320000Y-135500000D03*
X220780000Y-135500000D03*
X218240000Y-135500000D03*
X215700000Y-135500000D03*
X213160000Y-135500000D03*
X210620000Y-135500000D03*
X208080000Y-135500000D03*
X205540000Y-135500000D03*
X203000000Y-135500000D03*
X200460000Y-135500000D03*
X197920000Y-135500000D03*
X195380000Y-135500000D03*
X192840000Y-135500000D03*
X190300000Y-135500000D03*
X187760000Y-135500000D03*
X185220000Y-135500000D03*
X182680000Y-135500000D03*
X180140000Y-135500000D03*
X177600000Y-135500000D03*
X167440000Y-135500000D03*
X164900000Y-135500000D03*
X162360000Y-135500000D03*
X159820000Y-135500000D03*
X157280000Y-135500000D03*
X154740000Y-135500000D03*
X152200000Y-135500000D03*
X149660000Y-135500000D03*
X147120000Y-135500000D03*
X144580000Y-135500000D03*
X142040000Y-135500000D03*
X139500000Y-135500000D03*
X136960000Y-135500000D03*
X134420000Y-135500000D03*
X131880000Y-135500000D03*
X129340000Y-135500000D03*
X126800000Y-135500000D03*
X124260000Y-135500000D03*
%TD*%
D10*
%TO.C,JP2*%
X241000000Y-127550000D03*
D11*
X238460000Y-127550000D03*
%TD*%
D18*
%TO.C,C16*%
X199850000Y-88725001D03*
X199850000Y-85774999D03*
%TD*%
%TO.C,C17*%
X215600000Y-91075000D03*
X215600000Y-88125000D03*
%TD*%
D19*
%TO.C,C44*%
X196775000Y-92850000D03*
X194875000Y-92850000D03*
%TD*%
%TO.C,C46*%
X181549999Y-118800000D03*
X179650001Y-118800000D03*
%TD*%
D20*
%TO.C,C25*%
X251050001Y-104500000D03*
X252949999Y-104500000D03*
%TD*%
D21*
%TO.C,R26*%
X198525000Y-92975000D03*
X198525000Y-94800000D03*
%TD*%
D22*
%TO.C,R27*%
X179687500Y-120800000D03*
X181512500Y-120800000D03*
%TD*%
%TO.C,R19*%
X255087500Y-104500000D03*
X256912500Y-104500000D03*
%TD*%
D20*
%TO.C,C7*%
X255050000Y-102250000D03*
X256950000Y-102250000D03*
%TD*%
D19*
%TO.C,C3*%
X208425000Y-105950000D03*
X206525000Y-105950000D03*
%TD*%
D23*
%TO.C,R17*%
X207287500Y-109800000D03*
X205462500Y-109800000D03*
%TD*%
D19*
%TO.C,C34*%
X196775000Y-94825000D03*
X194875000Y-94825000D03*
%TD*%
D24*
%TO.C,R4*%
X150087500Y-100800000D03*
X151912500Y-100800000D03*
%TD*%
D25*
%TO.C,C12*%
X178525000Y-129000000D03*
X181475000Y-129000000D03*
%TD*%
D23*
%TO.C,R18*%
X207300000Y-107900000D03*
X205475000Y-107900000D03*
%TD*%
D26*
%TO.C,C11*%
X253475000Y-129000000D03*
X250525000Y-129000000D03*
%TD*%
D27*
%TO.C,C22*%
X207950000Y-93699999D03*
X207950000Y-91800001D03*
%TD*%
D28*
%TO.C,C40*%
X228100000Y-118150000D03*
X228100000Y-120050000D03*
%TD*%
D24*
%TO.C,R11*%
X216775000Y-66200000D03*
X218600000Y-66200000D03*
%TD*%
D20*
%TO.C,C2*%
X201950000Y-94100000D03*
X203850000Y-94100000D03*
%TD*%
D27*
%TO.C,C53*%
X183854534Y-87199999D03*
X183854534Y-85300001D03*
%TD*%
D29*
%TO.C,R3*%
X145250000Y-85337500D03*
X145250000Y-87162500D03*
%TD*%
%TO.C,R1*%
X147975000Y-69462500D03*
X147975000Y-71287500D03*
%TD*%
D24*
%TO.C,R2*%
X150087500Y-95000000D03*
X151912500Y-95000000D03*
%TD*%
D30*
%TO.C,U5*%
X261580000Y-103350000D03*
X261580000Y-104000000D03*
X261580000Y-104650000D03*
X258920000Y-104650000D03*
X258920000Y-103350000D03*
%TD*%
D20*
%TO.C,C5*%
X179650002Y-126850000D03*
X181550000Y-126850000D03*
%TD*%
D24*
%TO.C,R20*%
X179687500Y-124800000D03*
X181512500Y-124800000D03*
%TD*%
D31*
%TO.C,FB4*%
X220462500Y-88120890D03*
X218337500Y-88120890D03*
%TD*%
D25*
%TO.C,C19*%
X125125000Y-129000000D03*
X128075000Y-129000000D03*
%TD*%
D18*
%TO.C,C6*%
X211000000Y-91075001D03*
X211000000Y-88124999D03*
%TD*%
D24*
%TO.C,R6*%
X150087500Y-92975000D03*
X151912500Y-92975000D03*
%TD*%
D29*
%TO.C,R13*%
X227200000Y-128287500D03*
X227200000Y-130112500D03*
%TD*%
D19*
%TO.C,C18*%
X181550000Y-116800000D03*
X179650000Y-116800000D03*
%TD*%
D32*
%TO.C,R5*%
X271100000Y-113425000D03*
X271100000Y-111600000D03*
%TD*%
D33*
%TO.C,RN2*%
X141200000Y-75130000D03*
D34*
X142000000Y-75130000D03*
X142800000Y-75130000D03*
D33*
X143600000Y-75130000D03*
X143600000Y-77670000D03*
D34*
X142800000Y-77670000D03*
X142000000Y-77670000D03*
D33*
X141200000Y-77670000D03*
%TD*%
D19*
%TO.C,C39*%
X270550000Y-121400000D03*
X268650000Y-121400000D03*
%TD*%
D29*
%TO.C,R12*%
X225300000Y-128287500D03*
X225300000Y-130112500D03*
%TD*%
D19*
%TO.C,C35*%
X181549999Y-122800000D03*
X179650001Y-122800000D03*
%TD*%
D27*
%TO.C,C4*%
X196104534Y-87495466D03*
X196104534Y-85595466D03*
%TD*%
D35*
%TO.C,Y1*%
X184050000Y-113450000D03*
X189950000Y-113450000D03*
X189950000Y-116150000D03*
X184050000Y-116150000D03*
%TD*%
G36*
X169942121Y-131920002D02*
G01*
X169988614Y-131973658D01*
X170000000Y-132026000D01*
X170000000Y-139452317D01*
X169979998Y-139520438D01*
X169968431Y-139535736D01*
X169287616Y-140306419D01*
X169227525Y-140344230D01*
X169193185Y-140349000D01*
X122546175Y-140349000D01*
X122478054Y-140328998D01*
X122464757Y-140319162D01*
X121824582Y-139777146D01*
X121785518Y-139717863D01*
X121780000Y-139680984D01*
X121780000Y-132026000D01*
X121800002Y-131957879D01*
X121853658Y-131911386D01*
X121906000Y-131900000D01*
X169874000Y-131900000D01*
X169942121Y-131920002D01*
G37*
G36*
X256217121Y-131920002D02*
G01*
X256263614Y-131973658D01*
X256275000Y-132026000D01*
X256275000Y-139397810D01*
X256254998Y-139465931D01*
X256238095Y-139486905D01*
X255361905Y-140363095D01*
X255299593Y-140397121D01*
X255272810Y-140400000D01*
X176002190Y-140400000D01*
X175934069Y-140379998D01*
X175913095Y-140363095D01*
X175036905Y-139486905D01*
X175002879Y-139424593D01*
X175000000Y-139397810D01*
X175000000Y-132026000D01*
X175020002Y-131957879D01*
X175073658Y-131911386D01*
X175126000Y-131900000D01*
X256149000Y-131900000D01*
X256217121Y-131920002D01*
G37*
M02*
