%TF.GenerationSoftware,KiCad,Pcbnew,10.0.4*%
%TF.CreationDate,2026-09-17T12:08:21-07:00*%
%TF.ProjectId,cardshark,63617264-7368-4617-926b-2e6b69636164,rev?*%
%TF.SameCoordinates,Original*%
%TF.FileFunction,Copper,L4,Bot*%
%TF.FilePolarity,Positive*%
%FSLAX46Y46*%
G04 Gerber Fmt 4.6, Leading zero omitted, Abs format (unit mm)*
G04 Created by KiCad (PCBNEW 10.0.4) date 2026-09-17 12:08:21*
%MOMM*%
%LPD*%
G01*
G04 APERTURE LIST*
G04 Aperture macros list*
%AMRoundRect*
0 Rectangle with rounded corners*
0 $1 Rounding radius*
0 $2 $3 $4 $5 $6 $7 $8 $9 X,Y pos of 4 corners*
0 Add a 4 corners polygon primitive as box body*
4,1,4,$2,$3,$4,$5,$6,$7,$8,$9,$2,$3,0*
0 Add four circle primitives for the rounded corners*
1,1,$1+$1,$2,$3*
1,1,$1+$1,$4,$5*
1,1,$1+$1,$6,$7*
1,1,$1+$1,$8,$9*
0 Add four rect primitives between the rounded corners*
20,1,$1+$1,$2,$3,$4,$5,0*
20,1,$1+$1,$4,$5,$6,$7,0*
20,1,$1+$1,$6,$7,$8,$9,0*
20,1,$1+$1,$8,$9,$2,$3,0*%
G04 Aperture macros list end*
%TA.AperFunction,SMDPad,CuDef*%
%ADD10RoundRect,0.250000X-0.250000X-0.475000X0.250000X-0.475000X0.250000X0.475000X-0.250000X0.475000X0*%
%TD*%
%TA.AperFunction,ComponentPad*%
%ADD11R,1.695000X1.695000*%
%TD*%
%TA.AperFunction,ComponentPad*%
%ADD12C,1.695000*%
%TD*%
%TA.AperFunction,ComponentPad*%
%ADD13C,4.246000*%
%TD*%
%TA.AperFunction,ComponentPad*%
%ADD14R,1.600000X1.600000*%
%TD*%
%TA.AperFunction,ComponentPad*%
%ADD15C,1.600000*%
%TD*%
%TA.AperFunction,ComponentPad*%
%ADD16R,1.700000X1.700000*%
%TD*%
%TA.AperFunction,ComponentPad*%
%ADD17O,1.700000X1.700000*%
%TD*%
%TA.AperFunction,ConnectorPad*%
%ADD18R,1.020000X4.570000*%
%TD*%
%TA.AperFunction,ConnectorPad*%
%ADD19R,0.510000X0.760000*%
%TD*%
%TA.AperFunction,ComponentPad*%
%ADD20C,1.700000*%
%TD*%
%TA.AperFunction,ConnectorPad*%
%ADD21R,1.780000X7.620000*%
%TD*%
%TA.AperFunction,SMDPad,CuDef*%
%ADD22RoundRect,0.249998X0.450002X-0.262502X0.450002X0.262502X-0.450002X0.262502X-0.450002X-0.262502X0*%
%TD*%
%TA.AperFunction,SMDPad,CuDef*%
%ADD23R,2.400000X0.740000*%
%TD*%
%TA.AperFunction,SMDPad,CuDef*%
%ADD24RoundRect,0.150000X0.150000X-0.825000X0.150000X0.825000X-0.150000X0.825000X-0.150000X-0.825000X0*%
%TD*%
%TA.AperFunction,SMDPad,CuDef*%
%ADD25RoundRect,0.250000X-0.475000X0.250000X-0.475000X-0.250000X0.475000X-0.250000X0.475000X0.250000X0*%
%TD*%
%TA.AperFunction,ComponentPad*%
%ADD26O,1.600000X1.600000*%
%TD*%
%TA.AperFunction,ViaPad*%
%ADD27C,0.800000*%
%TD*%
%TA.AperFunction,Conductor*%
%ADD28C,0.390000*%
%TD*%
%TA.AperFunction,Conductor*%
%ADD29C,0.250000*%
%TD*%
%TA.AperFunction,Conductor*%
%ADD30C,0.750000*%
%TD*%
%TA.AperFunction,Conductor*%
%ADD31C,1.300000*%
%TD*%
%TA.AperFunction,Conductor*%
%ADD32C,0.500000*%
%TD*%
G04 APERTURE END LIST*
D10*
%TO.P,C44,1*%
%TO.N,/VFILTER*%
X95800000Y-115800000D03*
%TO.P,C44,2*%
%TO.N,GND*%
X97700000Y-115800000D03*
%TD*%
D11*
%TO.P,J3,1*%
%TO.N,/R*%
X266925000Y-85875000D03*
D12*
%TO.P,J3,2*%
%TO.N,/G*%
X266925000Y-88165000D03*
%TO.P,J3,3*%
%TO.N,/B*%
X266925000Y-90455000D03*
%TO.P,J3,4*%
%TO.N,unconnected-(J3-Pad4)*%
X266925000Y-92745000D03*
%TO.P,J3,5*%
%TO.N,GND*%
X266925000Y-95035000D03*
%TO.P,J3,6*%
X269425000Y-84730000D03*
%TO.P,J3,7*%
X269425000Y-87020000D03*
%TO.P,J3,8*%
X269425000Y-89310000D03*
%TO.P,J3,9*%
%TO.N,/VCC*%
X269425000Y-91600000D03*
%TO.P,J3,10*%
%TO.N,GND*%
X269425000Y-93890000D03*
%TO.P,J3,11*%
%TO.N,unconnected-(J3-Pad11)*%
X271925000Y-85875000D03*
%TO.P,J3,12*%
%TO.N,/P1O*%
X271925000Y-88165000D03*
%TO.P,J3,13*%
%TO.N,Net-(RN5-R1.2)*%
X271925000Y-90455000D03*
%TO.P,J3,14*%
%TO.N,Net-(RN5-R3.2)*%
X271925000Y-92745000D03*
%TO.P,J3,15*%
%TO.N,unconnected-(J3-Pad15)*%
X271925000Y-95035000D03*
D13*
%TO.P,J3,SH*%
%TO.N,GND*%
X269425000Y-102725000D03*
X269425000Y-77735000D03*
%TD*%
D14*
%TO.P,Y1,1,EN_1*%
%TO.N,unconnected-(Y1-EN-Pad1)*%
X44275000Y-107700000D03*
D15*
%TO.P,Y1,7,GND_7*%
%TO.N,GND*%
X59515000Y-107700000D03*
%TO.P,Y1,8,OUT_8*%
%TO.N,Net-(Y1-OUT)*%
X59515000Y-100080000D03*
%TO.P,Y1,14,Vcc_14*%
%TO.N,/VCC*%
X44275000Y-100080000D03*
%TD*%
D16*
%TO.P,JP1,1,A_1*%
%TO.N,/IRQ2*%
X233000000Y-126600000D03*
D17*
%TO.P,JP1,2,B_2*%
%TO.N,/IRQ*%
X230460000Y-126600000D03*
%TD*%
D18*
%TO.P,U8,B1,D0_B1*%
%TO.N,/DAT0*%
X111470000Y-136000000D03*
D19*
X111470000Y-138660000D03*
D18*
%TO.P,U8,B2,D2_B2*%
%TO.N,/DAT2*%
X110200000Y-136000000D03*
D19*
X110200000Y-138660000D03*
D18*
%TO.P,U8,B3,D4_B3*%
%TO.N,/DAT4*%
X108940000Y-136000000D03*
D19*
X108940000Y-138660000D03*
D18*
%TO.P,U8,B4,D6_B4*%
%TO.N,/DAT6*%
X107660000Y-136000000D03*
D19*
X107660000Y-138660000D03*
D18*
%TO.P,U8,B5,D8_B5*%
%TO.N,/DAT8*%
X106390000Y-136000000D03*
D19*
X106390000Y-138660000D03*
D18*
%TO.P,U8,B6,GND_B6*%
%TO.N,GND*%
X105120000Y-136000000D03*
D19*
X105120000Y-138660000D03*
D18*
%TO.P,U8,B7,D10_B7*%
%TO.N,/DAT10*%
X103850000Y-136000000D03*
D19*
X103850000Y-138660000D03*
D18*
%TO.P,U8,B8,D12_B8*%
%TO.N,/DAT12*%
X102580000Y-136000000D03*
D19*
X102580000Y-138660000D03*
D18*
%TO.P,U8,B9,+5V_B9*%
%TO.N,/+5V_VLB*%
X101310000Y-136000000D03*
D19*
X101310000Y-138660000D03*
D18*
%TO.P,U8,B10,D14_B10*%
%TO.N,/DAT14*%
X100040000Y-136000000D03*
D19*
X100040000Y-138660000D03*
D18*
%TO.P,U8,B11,D16_B11*%
%TO.N,/DAT16*%
X98770000Y-136000000D03*
D19*
X98770000Y-138660000D03*
D18*
%TO.P,U8,B12,D18_B12*%
%TO.N,/DAT18*%
X97510000Y-136000000D03*
D19*
X97510000Y-138660000D03*
D18*
%TO.P,U8,B13,D20_B13*%
%TO.N,/DAT20*%
X96230000Y-136000000D03*
D19*
X96230000Y-138660000D03*
D18*
%TO.P,U8,B14,GND_B14*%
%TO.N,GND*%
X94960000Y-136000000D03*
D19*
X94960000Y-138660000D03*
D18*
%TO.P,U8,B15,D22_B15*%
%TO.N,/DAT22*%
X93690000Y-136000000D03*
D19*
X93690000Y-138660000D03*
D18*
%TO.P,U8,B16,D24_B16*%
%TO.N,/DAT24*%
X92420000Y-136000000D03*
D19*
X92420000Y-138660000D03*
D18*
%TO.P,U8,B17,D26_B17*%
%TO.N,/DAT26*%
X91150000Y-136000000D03*
D19*
X91150000Y-138660000D03*
D18*
%TO.P,U8,B18,D28_B18*%
%TO.N,/DAT28*%
X89880000Y-136000000D03*
D19*
X89880000Y-138660000D03*
D18*
%TO.P,U8,B19,D30_B19*%
%TO.N,/DAT30*%
X88620000Y-136000000D03*
D19*
X88620000Y-138660000D03*
D18*
%TO.P,U8,B20,+5V_B20*%
%TO.N,/+5V_VLB*%
X87340000Y-136000000D03*
D19*
X87340000Y-138660000D03*
D18*
%TO.P,U8,B21,A31_B21*%
%TO.N,/ADR31*%
X86080000Y-136000000D03*
D19*
X86080000Y-138660000D03*
D18*
%TO.P,U8,B22,GND_B22*%
%TO.N,GND*%
X84800000Y-136000000D03*
D19*
X84800000Y-138660000D03*
D18*
%TO.P,U8,B23,A29_B23*%
%TO.N,unconnected-(U8-A29-PadB23)_1*%
X83530000Y-136000000D03*
D19*
%TO.N,unconnected-(U8-A29-PadB23)*%
X83530000Y-138660000D03*
D18*
%TO.P,U8,B24,A27_B24*%
%TO.N,unconnected-(U8-A27-PadB24)*%
X82260000Y-136000000D03*
D19*
%TO.N,unconnected-(U8-A27-PadB24)_1*%
X82260000Y-138660000D03*
D18*
%TO.P,U8,B25,A25_B25*%
%TO.N,/ADR25*%
X80990000Y-136000000D03*
D19*
X80990000Y-138660000D03*
D18*
%TO.P,U8,B26,A23_B26*%
%TO.N,/ADR23*%
X79720000Y-136000000D03*
D19*
X79720000Y-138660000D03*
D18*
%TO.P,U8,B27,A21_B27*%
%TO.N,/ADR21*%
X78450000Y-136000000D03*
D19*
X78450000Y-138660000D03*
D18*
%TO.P,U8,B28,A19_B28*%
%TO.N,/ADR19*%
X77180000Y-136000000D03*
D19*
X77180000Y-138660000D03*
D18*
%TO.P,U8,B29,GND_B29*%
%TO.N,GND*%
X75910000Y-136000000D03*
D19*
X75910000Y-138660000D03*
D18*
%TO.P,U8,B30,A17_B30*%
%TO.N,/ADR17*%
X74640000Y-136000000D03*
D19*
X74640000Y-138660000D03*
D18*
%TO.P,U8,B31,A15_B31*%
%TO.N,/ADR15*%
X73370000Y-136000000D03*
D19*
X73370000Y-138660000D03*
D18*
%TO.P,U8,B32,+5V_B32*%
%TO.N,/+5V_VLB*%
X72100000Y-136000000D03*
D19*
X72100000Y-138660000D03*
D18*
%TO.P,U8,B33,A13_B33*%
%TO.N,/ADR13*%
X70830000Y-136000000D03*
D19*
X70830000Y-138660000D03*
D18*
%TO.P,U8,B34,A11_B34*%
%TO.N,/ADR11*%
X69560000Y-136000000D03*
D19*
X69560000Y-138660000D03*
D18*
%TO.P,U8,B35,A9_B35*%
%TO.N,/ADR9*%
X68290000Y-136000000D03*
D19*
X68290000Y-138660000D03*
D18*
%TO.P,U8,B36,A7_B36*%
%TO.N,/ADR7*%
X67020000Y-136000000D03*
D19*
X67020000Y-138660000D03*
D18*
%TO.P,U8,B37,A5_B37*%
%TO.N,/ADR5*%
X65750000Y-136000000D03*
D19*
X65750000Y-138660000D03*
D18*
%TO.P,U8,B38,GND_B38*%
%TO.N,GND*%
X64480000Y-136000000D03*
D19*
X64480000Y-138660000D03*
D18*
%TO.P,U8,B39,A3_B39*%
%TO.N,/ADR3*%
X63210000Y-136000000D03*
D19*
X63210000Y-138660000D03*
D18*
%TO.P,U8,B40,A2_B40*%
%TO.N,/ADR2*%
X61940000Y-136000000D03*
D19*
X61940000Y-138660000D03*
D18*
%TO.P,U8,B41,NC_B41*%
%TO.N,unconnected-(U8-NC-PadB41)*%
X60670000Y-136000000D03*
D19*
%TO.N,unconnected-(U8-NC-PadB41)_1*%
X60670000Y-138660000D03*
D18*
%TO.P,U8,B42,RESET_B42*%
%TO.N,/RESET*%
X59400000Y-136000000D03*
D19*
X59400000Y-138660000D03*
D18*
%TO.P,U8,B43,DC#_B43*%
%TO.N,unconnected-(U8-DC#-PadB43)*%
X58130000Y-136000000D03*
D19*
%TO.N,unconnected-(U8-DC#-PadB43)_1*%
X58130000Y-138660000D03*
D18*
%TO.P,U8,B44,MI/O#_B44*%
%TO.N,/MI{slash}O#*%
X56860000Y-136000000D03*
D19*
X56860000Y-138660000D03*
D18*
%TO.P,U8,B45,W/R#_B45*%
%TO.N,/W{slash}R#*%
X55590000Y-136000000D03*
D19*
X55590000Y-138660000D03*
D18*
%TO.P,U8,B48,RDYRTN#_B48*%
%TO.N,/RDYRTN#*%
X51790000Y-136000000D03*
D19*
X51790000Y-138660000D03*
D18*
%TO.P,U8,B49,GND_B49*%
%TO.N,GND*%
X50520000Y-136000000D03*
D19*
X50520000Y-138660000D03*
D18*
%TO.P,U8,B50,IRQ9_B50*%
%TO.N,unconnected-(U8-IRQ9-PadB50)_1*%
X49250000Y-136000000D03*
D19*
%TO.N,unconnected-(U8-IRQ9-PadB50)*%
X49250000Y-138660000D03*
D18*
%TO.P,U8,B51,BRDY#_B51*%
%TO.N,unconnected-(U8-BRDY#-PadB51)_1*%
X47980000Y-136000000D03*
D19*
%TO.N,unconnected-(U8-BRDY#-PadB51)*%
X47980000Y-138660000D03*
D18*
%TO.P,U8,B52,BLAST#_B52*%
%TO.N,unconnected-(U8-BLAST#-PadB52)*%
X46710000Y-136000000D03*
D19*
%TO.N,unconnected-(U8-BLAST#-PadB52)_1*%
X46710000Y-138660000D03*
D18*
%TO.P,U8,B53,ID0_B53*%
%TO.N,unconnected-(U8-ID0-PadB53)*%
X45440000Y-136000000D03*
D19*
%TO.N,unconnected-(U8-ID0-PadB53)_1*%
X45440000Y-138660000D03*
D18*
%TO.P,U8,B54,ID1_B54*%
%TO.N,unconnected-(U8-ID1-PadB54)_1*%
X44170000Y-136000000D03*
D19*
%TO.N,unconnected-(U8-ID1-PadB54)*%
X44170000Y-138660000D03*
D18*
%TO.P,U8,B55,GND_B55*%
%TO.N,GND*%
X42900000Y-136000000D03*
D19*
X42900000Y-138660000D03*
D18*
%TO.P,U8,B56,LCLK_B56*%
%TO.N,/CLK1X*%
X41630000Y-136000000D03*
D19*
X41630000Y-138660000D03*
D18*
%TO.P,U8,B57,+5V_B57*%
%TO.N,/+5V_VLB*%
X40360000Y-136000000D03*
D19*
X40360000Y-138660000D03*
D18*
%TO.P,U8,B58,LBS16#_B58*%
%TO.N,unconnected-(U8-LBS16#-PadB58)_1*%
X39090000Y-136000000D03*
D19*
%TO.N,unconnected-(U8-LBS16#-PadB58)*%
X39090000Y-138660000D03*
%TD*%
D16*
%TO.P,JP2,1,A_1*%
%TO.N,Net-(JP2-A)*%
X42500000Y-121710000D03*
D20*
%TO.P,JP2,2,B_2*%
%TO.N,/VID3*%
X42500000Y-124250000D03*
%TD*%
D21*
%TO.P,J2,1,GND_1*%
%TO.N,GND*%
X253700000Y-135600000D03*
%TO.P,J2,2,RESET_2*%
%TO.N,unconnected-(J2-RESET-Pad2)*%
X251160000Y-135600000D03*
%TO.P,J2,3,VCC_3*%
%TO.N,/+5V_ISA*%
X248620000Y-135600000D03*
%TO.P,J2,4,IRQ2_4*%
%TO.N,/IRQ2*%
X246080000Y-135600000D03*
%TO.P,J2,5,-5V_5*%
%TO.N,unconnected-(J2--5V-Pad5)*%
X243540000Y-135600000D03*
%TO.P,J2,6,DRQ2_6*%
%TO.N,unconnected-(J2-DRQ2-Pad6)*%
X241000000Y-135600000D03*
%TO.P,J2,7,-12V_7*%
%TO.N,unconnected-(J2--12V-Pad7)*%
X238460000Y-135600000D03*
%TO.P,J2,8,UNUSED_8*%
%TO.N,unconnected-(J2-UNUSED-Pad8)*%
X235920000Y-135600000D03*
%TO.P,J2,9,+12V_9*%
%TO.N,/+12V*%
X233380000Y-135600000D03*
%TO.P,J2,10,GND_10*%
%TO.N,GND*%
X230840000Y-135600000D03*
%TO.P,J2,11,~{SMEMW}_11*%
%TO.N,unconnected-(J2-~{SMEMW}-Pad11)*%
X228300000Y-135600000D03*
%TO.P,J2,12,~{SMEMR}_12*%
%TO.N,/~{SMEMRD}*%
X225760000Y-135600000D03*
%TO.P,J2,13,~{IOW}_13*%
%TO.N,unconnected-(J2-~{IOW}-Pad13)*%
X223220000Y-135600000D03*
%TO.P,J2,14,~{IOR}_14*%
%TO.N,unconnected-(J2-~{IOR}-Pad14)*%
X220680000Y-135600000D03*
%TO.P,J2,15,~{DACK3}_15*%
%TO.N,unconnected-(J2-~{DACK3}-Pad15)*%
X218140000Y-135600000D03*
%TO.P,J2,16,DRQ3_16*%
%TO.N,unconnected-(J2-DRQ3-Pad16)*%
X215600000Y-135600000D03*
%TO.P,J2,17,~{DACK1}_17*%
%TO.N,unconnected-(J2-~{DACK1}-Pad17)*%
X213060000Y-135600000D03*
%TO.P,J2,18,DRQ1_18*%
%TO.N,unconnected-(J2-DRQ1-Pad18)*%
X210520000Y-135600000D03*
%TO.P,J2,19,~{DACK0}_19*%
%TO.N,unconnected-(J2-~{DACK0}-Pad19)*%
X207980000Y-135600000D03*
%TO.P,J2,20,CLK_20*%
%TO.N,unconnected-(J2-CLK-Pad20)*%
X205440000Y-135600000D03*
%TO.P,J2,21,IRQ7_21*%
%TO.N,unconnected-(J2-IRQ7-Pad21)*%
X202900000Y-135600000D03*
%TO.P,J2,22,IRQ6_22*%
%TO.N,unconnected-(J2-IRQ6-Pad22)*%
X200360000Y-135600000D03*
%TO.P,J2,23,IRQ5_23*%
%TO.N,unconnected-(J2-IRQ5-Pad23)*%
X197820000Y-135600000D03*
%TO.P,J2,24,IRQ4_24*%
%TO.N,unconnected-(J2-IRQ4-Pad24)*%
X195280000Y-135600000D03*
%TO.P,J2,25,IRQ3_25*%
%TO.N,unconnected-(J2-IRQ3-Pad25)*%
X192740000Y-135600000D03*
%TO.P,J2,26,~{DACK2}_26*%
%TO.N,unconnected-(J2-~{DACK2}-Pad26)*%
X190200000Y-135600000D03*
%TO.P,J2,27,TC_27*%
%TO.N,unconnected-(J2-TC-Pad27)*%
X187660000Y-135600000D03*
%TO.P,J2,28,ALE_28*%
%TO.N,unconnected-(J2-ALE-Pad28)*%
X185120000Y-135600000D03*
%TO.P,J2,29,VCC_29*%
%TO.N,/+5V_ISA*%
X182580000Y-135600000D03*
%TO.P,J2,30,OSC_30*%
%TO.N,unconnected-(J2-OSC-Pad30)*%
X180040000Y-135600000D03*
%TO.P,J2,31,GND_31*%
%TO.N,GND*%
X177500000Y-135600000D03*
%TD*%
D22*
%TO.P,R26,1*%
%TO.N,/VFILTER*%
X93930000Y-115662500D03*
%TO.P,R26,2*%
%TO.N,Net-(C34-Pad1)*%
X93930000Y-113837500D03*
%TD*%
D23*
%TO.P,J1,1,Pin_1_1*%
%TO.N,Net-(J1-Pin_1)*%
X79100000Y-128570000D03*
%TO.P,J1,2,Pin_2_2*%
%TO.N,/ADR25*%
X83000000Y-128570000D03*
%TO.P,J1,3,Pin_3_3*%
%TO.N,/ADR26*%
X79100000Y-127300000D03*
%TO.P,J1,4,Pin_4_4*%
%TO.N,/HIMEM*%
X83000000Y-127300000D03*
%TO.P,J1,5,Pin_5_5*%
%TO.N,Net-(J1-Pin_5)*%
X79100000Y-126030000D03*
%TO.P,J1,6,Pin_6_6*%
%TO.N,/ADR31*%
X83000000Y-126030000D03*
%TD*%
D24*
%TO.P,U10,1,1A_1*%
%TO.N,Net-(J1-Pin_5)*%
X75560000Y-128975000D03*
%TO.P,U10,2,1B_2*%
%TO.N,Net-(J1-Pin_1)*%
X74290000Y-128975000D03*
%TO.P,U10,3,1C_3*%
%TO.N,/ADR24*%
X73020000Y-128975000D03*
%TO.P,U10,4,2A_4*%
%TO.N,GND*%
X71750000Y-128975000D03*
%TO.P,U10,5,1Y_5*%
%TO.N,/LOMEM*%
X70480000Y-128975000D03*
%TO.P,U10,6,2Y_6*%
%TO.N,unconnected-(U10-2Y-Pad6)*%
X69210000Y-128975000D03*
%TO.P,U10,7,GND_7*%
%TO.N,GND*%
X67940000Y-128975000D03*
%TO.P,U10,8,2B_8*%
X67940000Y-124025000D03*
%TO.P,U10,9,2C_9*%
X69210000Y-124025000D03*
%TO.P,U10,10,2D_10*%
X70480000Y-124025000D03*
%TO.P,U10,11,2E_11*%
X71750000Y-124025000D03*
%TO.P,U10,12,1D_12*%
%TO.N,/ADR23*%
X73020000Y-124025000D03*
%TO.P,U10,13,1E_13*%
%TO.N,/ADR22*%
X74290000Y-124025000D03*
%TO.P,U10,14,VCC_14*%
%TO.N,/VCC*%
X75560000Y-124025000D03*
%TD*%
D10*
%TO.P,C34,1*%
%TO.N,Net-(C34-Pad1)*%
X95800000Y-113750000D03*
%TO.P,C34,2*%
%TO.N,GND*%
X97700000Y-113750000D03*
%TD*%
D25*
%TO.P,C19,1*%
%TO.N,GND*%
X77500000Y-122075000D03*
%TO.P,C19,2*%
%TO.N,/VCC*%
X77500000Y-123975000D03*
%TD*%
D14*
%TO.P,U1,1,VPP_1*%
%TO.N,Net-(U1-VPP)*%
X233250000Y-108000000D03*
D26*
%TO.P,U1,2,A12_2*%
%TO.N,/SA12*%
X230710000Y-108000000D03*
%TO.P,U1,3,A7_3*%
%TO.N,/SA7*%
X228170000Y-108000000D03*
%TO.P,U1,4,A6_4*%
%TO.N,/SA6*%
X225630000Y-108000000D03*
%TO.P,U1,5,A5_5*%
%TO.N,/SA5*%
X223090000Y-108000000D03*
%TO.P,U1,6,A4_6*%
%TO.N,/SA4*%
X220550000Y-108000000D03*
%TO.P,U1,7,A3_7*%
%TO.N,/SA3*%
X218010000Y-108000000D03*
%TO.P,U1,8,A2_8*%
%TO.N,/SA2*%
X215470000Y-108000000D03*
%TO.P,U1,9,A1_9*%
%TO.N,/SA1*%
X212930000Y-108000000D03*
%TO.P,U1,10,A0_10*%
%TO.N,/SA0*%
X210390000Y-108000000D03*
%TO.P,U1,11,D0_11*%
%TO.N,/BD0*%
X207850000Y-108000000D03*
%TO.P,U1,12,D1_12*%
%TO.N,/BD1*%
X205310000Y-108000000D03*
%TO.P,U1,13,D2_13*%
%TO.N,/BD2*%
X202770000Y-108000000D03*
%TO.P,U1,14,GND_14*%
%TO.N,GND*%
X200230000Y-108000000D03*
%TO.P,U1,15,D3_15*%
%TO.N,/BD3*%
X200230000Y-123240000D03*
%TO.P,U1,16,D4_16*%
%TO.N,/BD4*%
X202770000Y-123240000D03*
%TO.P,U1,17,D5_17*%
%TO.N,/BD5*%
X205310000Y-123240000D03*
%TO.P,U1,18,D6_18*%
%TO.N,/BD6*%
X207850000Y-123240000D03*
%TO.P,U1,19,D7_19*%
%TO.N,/BD7*%
X210390000Y-123240000D03*
%TO.P,U1,20,~{CE}_20*%
%TO.N,/EROM*%
X212930000Y-123240000D03*
%TO.P,U1,21,A10_21*%
%TO.N,/SA10*%
X215470000Y-123240000D03*
%TO.P,U1,22,~{OE}_22*%
%TO.N,/~{SMEMRD}*%
X218010000Y-123240000D03*
%TO.P,U1,23,A11_23*%
%TO.N,/SA11*%
X220550000Y-123240000D03*
%TO.P,U1,24,A9_24*%
%TO.N,/SA9*%
X223090000Y-123240000D03*
%TO.P,U1,25,A8_25*%
%TO.N,/SA8*%
X225630000Y-123240000D03*
%TO.P,U1,26,A13_26*%
%TO.N,/SA13*%
X228170000Y-123240000D03*
%TO.P,U1,27,A14_27*%
%TO.N,/SA14*%
X230710000Y-123240000D03*
%TO.P,U1,28,VCC_28*%
%TO.N,/VCC*%
X233250000Y-123240000D03*
%TD*%
D27*
%TO.N,GND*%
X103344065Y-84869240D03*
X120300000Y-123000000D03*
X66500000Y-92500000D03*
X228500000Y-114500000D03*
X249000000Y-127000000D03*
X249000000Y-122000000D03*
X249000000Y-113500000D03*
X244500000Y-109000000D03*
X230500000Y-110000000D03*
%TO.N,/VCC*%
X236000000Y-111000000D03*
%TO.N,GND*%
X243000000Y-125000000D03*
X237000000Y-127000000D03*
X134250000Y-78000000D03*
X95124999Y-132525000D03*
%TO.N,/+5V_VLB*%
X85750000Y-130250000D03*
%TO.N,/VCC*%
X82131029Y-124237607D03*
%TO.N,/DAT7*%
X95250000Y-127250000D03*
%TO.N,/DAT26*%
X87163783Y-130300001D03*
%TO.N,GND*%
X91110898Y-132755253D03*
X112750000Y-119000000D03*
X102000000Y-97750000D03*
X160865004Y-78013500D03*
X50100000Y-129300000D03*
X59408000Y-73963500D03*
X261400000Y-95000000D03*
X144125000Y-130498996D03*
X96750000Y-98500000D03*
X151375000Y-130498996D03*
X142842000Y-95420000D03*
X96500000Y-107750000D03*
X136700000Y-123000000D03*
X225000000Y-130325000D03*
X274500000Y-103050000D03*
X102000000Y-104750000D03*
X80750000Y-117500000D03*
X173250000Y-102850000D03*
X272000000Y-98600000D03*
X77100000Y-116000000D03*
X198750000Y-94000000D03*
X177600000Y-126250000D03*
X119000000Y-93400000D03*
X77250000Y-113250000D03*
X105292896Y-132907275D03*
X239800000Y-98000000D03*
X273370000Y-76760000D03*
X104183742Y-77788500D03*
X102171001Y-127120000D03*
X52800000Y-125800000D03*
X97600000Y-110600000D03*
X141492000Y-104320000D03*
X153250000Y-113700000D03*
X230890000Y-130390000D03*
X86000000Y-98500000D03*
X86000000Y-110600000D03*
X56600000Y-105100000D03*
X96600000Y-94800000D03*
X274500000Y-91250000D03*
X253750000Y-97100000D03*
X182750000Y-91000000D03*
X106907374Y-114538934D03*
X178800000Y-118800000D03*
X161625000Y-97375000D03*
X222500000Y-105000000D03*
X188000000Y-96000000D03*
X58750000Y-93750000D03*
X135492000Y-98320000D03*
X61500000Y-97250000D03*
X65750000Y-105400000D03*
X132066942Y-93366244D03*
X111709161Y-130651744D03*
X261450000Y-87700000D03*
X102000000Y-107750000D03*
X85600000Y-96700000D03*
X52000000Y-110250000D03*
X110458742Y-78208742D03*
X246000000Y-124750000D03*
X69500000Y-102200000D03*
X109250000Y-123750000D03*
X73253985Y-92553985D03*
X68600000Y-104200000D03*
X110500000Y-99675000D03*
X47980000Y-132180000D03*
X99571016Y-132174999D03*
X273909000Y-84250000D03*
X65000000Y-100250000D03*
X128500000Y-113700000D03*
X229500000Y-86750000D03*
X210250000Y-95000000D03*
X48250000Y-124250000D03*
X121318000Y-78000000D03*
X91000000Y-114000000D03*
X142117925Y-78367925D03*
X273370000Y-79660000D03*
X97750000Y-96000000D03*
X86000000Y-107750000D03*
X69568000Y-73763500D03*
X254600000Y-95450000D03*
X194900000Y-107900000D03*
X67900000Y-133075000D03*
X83175380Y-124346397D03*
X210000000Y-105000000D03*
X136326992Y-77826992D03*
X131200000Y-130498996D03*
X235000000Y-105000000D03*
X170000000Y-128000000D03*
X198750000Y-97250000D03*
X188750000Y-99500000D03*
X244000000Y-87750000D03*
X52000000Y-99250000D03*
X231000000Y-75000000D03*
X75400000Y-101800000D03*
X105989639Y-127500000D03*
X64500000Y-133000000D03*
X261500000Y-91550000D03*
X42750000Y-109250000D03*
X264000000Y-76000000D03*
X110750000Y-128218871D03*
X79751475Y-88523525D03*
X247500000Y-105000000D03*
X160765004Y-73513500D03*
X206000000Y-82500000D03*
X133000000Y-119250000D03*
X78750000Y-120500000D03*
X128250000Y-121000000D03*
X144125000Y-126250000D03*
X103750000Y-122000000D03*
X124250000Y-130498996D03*
X132198013Y-107448013D03*
X152880000Y-94520000D03*
X260000000Y-105000000D03*
X90500000Y-82900000D03*
X78000000Y-75963500D03*
X109245547Y-110391786D03*
X52250000Y-93750000D03*
X137800000Y-130499600D03*
X98425000Y-120400000D03*
X76900000Y-120500000D03*
X109971202Y-114390105D03*
X53250000Y-119000000D03*
X158875000Y-130498996D03*
X123900000Y-123000000D03*
X162250000Y-113000000D03*
X113766469Y-114265708D03*
X100400000Y-113300000D03*
X250200000Y-80200000D03*
X153165004Y-79246957D03*
X169000000Y-109250000D03*
X86000000Y-114000000D03*
X56950000Y-123825000D03*
X90750000Y-117500000D03*
X85000000Y-117750000D03*
X41500000Y-103750000D03*
X145000000Y-113700000D03*
X257500000Y-96000000D03*
X53058000Y-73963500D03*
X69700000Y-77763500D03*
X132500000Y-116500000D03*
X83900000Y-120800000D03*
X75525000Y-133074998D03*
X55525000Y-121950000D03*
X136500000Y-113700000D03*
X102500000Y-119750000D03*
X71250000Y-99500000D03*
X210250000Y-90500000D03*
X229500000Y-90750000D03*
X88875000Y-119375000D03*
X81500000Y-133074998D03*
X94200000Y-117500000D03*
X89600000Y-94800000D03*
X41750000Y-97000000D03*
X177250000Y-98250000D03*
X152750000Y-102000000D03*
X239000000Y-123000000D03*
X47500000Y-96250000D03*
X45250000Y-93750000D03*
X121250000Y-114000000D03*
X257000000Y-85000000D03*
X253750000Y-130250000D03*
X128938000Y-73963500D03*
X58250000Y-133000000D03*
X102250000Y-110750000D03*
X274500000Y-97150000D03*
%TO.N,/AVcc*%
X100100000Y-119800000D03*
X129000000Y-116500000D03*
X114750000Y-116000000D03*
X105225000Y-115805093D03*
X125250000Y-116500000D03*
X118250000Y-116500000D03*
%TO.N,/VCC*%
X91250000Y-94500000D03*
X79275000Y-86650000D03*
X97043701Y-118105867D03*
X103797695Y-86250000D03*
X71752842Y-94500000D03*
X161615004Y-84613500D03*
X45500000Y-126750000D03*
X101600000Y-112100000D03*
X69500000Y-100250000D03*
X51775000Y-85888500D03*
X160962500Y-105262500D03*
X134181938Y-79264940D03*
X90875001Y-87118664D03*
X102000000Y-99750000D03*
X135600000Y-86800000D03*
X109535936Y-119473396D03*
X91005114Y-124094886D03*
X75692594Y-123912077D03*
%TO.N,/RC_RESET*%
X56775000Y-130225000D03*
X72555612Y-119821422D03*
%TO.N,/RESET*%
X58800000Y-131850000D03*
%TO.N,/P1O*%
X113250000Y-110050000D03*
X130500000Y-109250000D03*
X111725000Y-118226922D03*
%TO.N,Net-(RN5-R1.2)*%
X260000000Y-97800000D03*
%TO.N,Net-(RN5-R3.2)*%
X259970002Y-99480055D03*
X266750000Y-99750000D03*
%TO.N,/WE*%
X114998254Y-79936036D03*
X68250000Y-87500000D03*
X120250000Y-80000000D03*
X148765004Y-80451431D03*
%TO.N,/RAS*%
X98500000Y-83800000D03*
X153183004Y-84363500D03*
%TO.N,/MA0*%
X89839144Y-78738500D03*
X154690004Y-81206889D03*
X72250000Y-87500000D03*
X124425280Y-81196911D03*
%TO.N,/MA1*%
X89000000Y-79369642D03*
X73500000Y-87500000D03*
X156245532Y-81663500D03*
X125100000Y-82001431D03*
%TO.N,/MA2*%
X88000000Y-79988197D03*
X75000000Y-87500000D03*
X158114004Y-81763500D03*
X126400000Y-82756889D03*
%TO.N,/MA3*%
X159664004Y-81763500D03*
X127750000Y-83363500D03*
X76113118Y-87393927D03*
X86750000Y-80647217D03*
%TO.N,/MD7*%
X137865004Y-87613500D03*
X76379644Y-95951856D03*
%TO.N,/MD6*%
X139115004Y-87613500D03*
X77487636Y-95908383D03*
%TO.N,/MD5*%
X140365004Y-87613500D03*
X77584107Y-96953942D03*
%TO.N,/MD4*%
X141615004Y-87613500D03*
X77675000Y-98000000D03*
%TO.N,/MD3*%
X78714996Y-99225001D03*
X144360146Y-87918069D03*
%TO.N,/MD2*%
X77337754Y-99725000D03*
X145365004Y-87613500D03*
%TO.N,/MD1*%
X146615004Y-87613500D03*
X76384027Y-100183670D03*
%TO.N,/MD0*%
X75400000Y-100550000D03*
X147865004Y-87613500D03*
%TO.N,/CAS0*%
X141650000Y-89550000D03*
X75275000Y-95975000D03*
%TO.N,/MD56*%
X98142971Y-94823148D03*
X113641764Y-93461040D03*
%TO.N,/MD57*%
X99115885Y-94428251D03*
X112014089Y-93305000D03*
%TO.N,/MD58*%
X100021715Y-93897239D03*
X106900000Y-93650000D03*
%TO.N,/RAS1*%
X98975428Y-86061594D03*
X69948804Y-87516622D03*
X121250000Y-83775000D03*
%TO.N,/RED*%
X106744451Y-124683354D03*
X145500000Y-127500000D03*
%TO.N,/GREEN*%
X105750000Y-125500000D03*
X146250000Y-128500000D03*
%TO.N,/BLUE*%
X147000000Y-129500000D03*
X104750000Y-126276568D03*
%TO.N,/+5V_VLB*%
X100925000Y-132726749D03*
X72300000Y-132825000D03*
X96674999Y-132888055D03*
X45384049Y-128384049D03*
X78832150Y-133014407D03*
X61475000Y-132795226D03*
%TO.N,/BD0*%
X240139232Y-116425000D03*
%TO.N,/BD1*%
X241722668Y-116925000D03*
%TO.N,/BD2*%
X242772239Y-117425000D03*
%TO.N,/BD3*%
X243888403Y-117745968D03*
%TO.N,/BD4*%
X244930652Y-117873331D03*
%TO.N,/BD5*%
X246002779Y-118125000D03*
%TO.N,/BD6*%
X246800000Y-118900000D03*
%TO.N,/BD7*%
X246750000Y-120250000D03*
%TO.N,/EROM*%
X167800000Y-111500000D03*
X77250000Y-109563725D03*
X112000000Y-110050000D03*
X240793207Y-121510434D03*
%TO.N,/~{SMEMRD}*%
X240200000Y-124700000D03*
X227600000Y-130300000D03*
%TO.N,Net-(Y1-OUT)*%
X62750000Y-98750000D03*
%TO.N,/IRQ*%
X82100000Y-114200000D03*
X226525000Y-130250000D03*
X78225003Y-106400000D03*
X179387500Y-126687500D03*
X175475000Y-130600000D03*
%TO.N,/HSYNC*%
X99896942Y-118542833D03*
X252000000Y-100750000D03*
%TO.N,/VSYNC*%
X254250000Y-100250000D03*
X98132106Y-117471877D03*
%TO.N,/+12V*%
X186000000Y-122750000D03*
X150000000Y-122750000D03*
%TO.N,/DAT1*%
X111470000Y-132525000D03*
X107421114Y-129787500D03*
%TO.N,/DAT3*%
X108105103Y-130687500D03*
X110570001Y-131873985D03*
%TO.N,/DAT7*%
X92000000Y-124500000D03*
%TO.N,/DAT19*%
X94630013Y-130875000D03*
X84957663Y-120184451D03*
%TO.N,/ADR26*%
X80774999Y-131541485D03*
%TO.N,/ADR24*%
X75471015Y-125599999D03*
%TO.N,/ADR22*%
X73926831Y-123090963D03*
%TO.N,/BE0#*%
X64507246Y-109821738D03*
X76251992Y-104550000D03*
%TO.N,/BE1#*%
X63185232Y-110435232D03*
X76216437Y-105682389D03*
%TO.N,/BE2#*%
X75500000Y-106449997D03*
X61775267Y-111025267D03*
%TO.N,/ADS#*%
X76761274Y-117774997D03*
X54985829Y-127760829D03*
%TO.N,/LRDY#*%
X54134453Y-130750000D03*
X76018101Y-119219538D03*
%TO.N,/LDEV#*%
X82250000Y-117250000D03*
X54718459Y-123818459D03*
%TO.N,/VID2*%
X44250000Y-126750000D03*
X94925000Y-85000000D03*
%TO.N,/DAT0*%
X95375000Y-120163895D03*
%TO.N,/DAT2*%
X94812300Y-121050387D03*
%TO.N,/DAT4*%
X93762365Y-121038784D03*
%TO.N,/DAT6*%
X92808594Y-119761136D03*
%TO.N,/DAT8*%
X91758714Y-119745270D03*
%TO.N,/DAT10*%
X90476992Y-120726992D03*
%TO.N,/DAT12*%
X89250000Y-120950000D03*
%TO.N,/DAT14*%
X87400000Y-119400000D03*
%TO.N,/DAT16*%
X86600000Y-120200000D03*
%TO.N,/DAT18*%
X85802779Y-119516667D03*
%TO.N,/DAT20*%
X93525943Y-130929067D03*
%TO.N,/DAT22*%
X80300000Y-121125000D03*
%TO.N,/DAT24*%
X90252907Y-131197093D03*
%TO.N,/DAT28*%
X89249952Y-133086342D03*
%TO.N,/DAT30*%
X87571232Y-132859567D03*
%TO.N,/ADR23*%
X78701992Y-131048008D03*
X73560379Y-125364621D03*
%TO.N,/ADR21*%
X77950001Y-131780818D03*
%TO.N,/ADR19*%
X76400001Y-131203985D03*
%TO.N,/ADR17*%
X74942065Y-131957935D03*
%TO.N,/ADR15*%
X73865000Y-133074998D03*
%TO.N,/ADR13*%
X72300000Y-131250000D03*
%TO.N,/ADR11*%
X70700001Y-131250000D03*
%TO.N,/ADR9*%
X69098008Y-131926992D03*
%TO.N,/ADR7*%
X67351992Y-131248008D03*
%TO.N,/ADR5*%
X65750000Y-131750000D03*
%TO.N,/ADR3*%
X62596016Y-130503984D03*
%TO.N,/ADR2*%
X61511508Y-130515492D03*
%TO.N,/MI{slash}O#*%
X82876716Y-119776716D03*
X56437879Y-133044131D03*
X55593889Y-125818889D03*
%TO.N,/W{slash}R#*%
X73040177Y-121765160D03*
%TO.N,/RDYRTN#*%
X77048049Y-118800000D03*
%TO.N,/CLK1X*%
X75800000Y-112600000D03*
%TO.N,/+5V_ISA*%
X181000000Y-129500000D03*
X222750000Y-130000000D03*
X250147579Y-129975000D03*
%TO.N,Net-(JP2-A)*%
X92924999Y-82221167D03*
%TO.N,/MD32*%
X70701992Y-96048008D03*
X58500000Y-91500000D03*
%TO.N,/CAS4*%
X72273008Y-96123008D03*
X67000000Y-77863500D03*
%TO.N,OSC*%
X66300000Y-98700000D03*
X67414082Y-103214082D03*
%TO.N,/LOMEM*%
X72410562Y-122605448D03*
%TO.N,/HIMEM*%
X75300000Y-120050000D03*
%TO.N,/VFILTER*%
X94900000Y-115662500D03*
%TO.N,/CAS5*%
X68250000Y-77863500D03*
X78350001Y-87829157D03*
%TD*%
%TO.N,GND*%
D28*
X95124999Y-132525000D02*
X94878895Y-132771104D01*
X93780035Y-132771104D02*
X92397403Y-131388472D01*
X94878895Y-132771104D02*
X93780035Y-132771104D01*
X92397403Y-131388472D02*
X92397403Y-130297403D01*
X83900000Y-121800000D02*
X83900000Y-120800000D01*
X92397403Y-130297403D02*
X83900000Y-121800000D01*
%TO.N,/DAT22*%
D29*
X80300000Y-121125000D02*
X83250000Y-122750000D01*
X83250000Y-122750000D02*
X91500000Y-131000000D01*
X91500000Y-131000000D02*
X91500000Y-131337034D01*
X91500000Y-131337034D02*
X93409030Y-133246064D01*
X93409030Y-133246064D02*
X93409030Y-135719030D01*
X93409030Y-135719030D02*
X93690000Y-136000000D01*
%TO.N,/DAT20*%
X95486254Y-131750000D02*
X95900000Y-132163746D01*
X94322666Y-131750000D02*
X95486254Y-131750000D01*
X93525943Y-130929067D02*
X93525943Y-130953277D01*
X93525943Y-130953277D02*
X94322666Y-131750000D01*
X95900000Y-132163746D02*
X95900000Y-135670000D01*
%TO.N,/DAT19*%
X94630013Y-130875000D02*
X94543458Y-130788445D01*
X94543458Y-130788445D02*
X94481338Y-130788445D01*
X94481338Y-130788445D02*
X84957663Y-121264770D01*
X84957663Y-121264770D02*
X84957663Y-120184451D01*
%TO.N,/DAT24*%
X90252907Y-131197093D02*
X90652953Y-131197093D01*
X90652953Y-131197093D02*
X92097107Y-132641247D01*
X92097107Y-132641247D02*
X92097107Y-135677107D01*
X92097107Y-135677107D02*
X92420000Y-136000000D01*
%TO.N,GND*%
D30*
X95124999Y-132525000D02*
X95004824Y-132525000D01*
X95004824Y-132525000D02*
X94960000Y-132569824D01*
X94960000Y-132569824D02*
X94960000Y-136000000D01*
%TO.N,/DAT7*%
D29*
X92000000Y-124500000D02*
X95250000Y-127250000D01*
%TO.N,/+5V_ISA*%
D31*
X181000000Y-129500000D02*
X181000000Y-129590000D01*
X181000000Y-129590000D02*
X182580000Y-131170000D01*
X182580000Y-131170000D02*
X182580000Y-135600000D01*
%TO.N,/+12V*%
X186000000Y-122750000D02*
X191614566Y-128364566D01*
X191614566Y-128364566D02*
X231254566Y-128364566D01*
X231254566Y-128364566D02*
X233380000Y-130490000D01*
X233380000Y-130490000D02*
X233380000Y-135600000D01*
%TO.N,/IRQ2*%
D29*
X237150000Y-131150000D02*
X233000000Y-127000000D01*
X246080000Y-131755000D02*
X245475000Y-131150000D01*
X245475000Y-131150000D02*
X237150000Y-131150000D01*
X246080000Y-135600000D02*
X246080000Y-131755000D01*
X233000000Y-127000000D02*
X233000000Y-126600000D01*
%TO.N,GND*%
D30*
X97600000Y-110600000D02*
X97700000Y-110700000D01*
X97700000Y-110700000D02*
X97700000Y-113750000D01*
X97575000Y-110625000D02*
X97600000Y-110600000D01*
%TO.N,Net-(C34-Pad1)*%
D29*
X93930000Y-113837500D02*
X95637500Y-113837500D01*
X95637500Y-113837500D02*
X95725000Y-113750000D01*
X95725000Y-113750000D02*
X95800000Y-113750000D01*
%TO.N,/CAS5*%
X78306234Y-87829157D02*
X76871891Y-89263500D01*
X68263500Y-89263500D02*
X67000000Y-88000000D01*
X67000000Y-79113500D02*
X68250000Y-77863500D01*
X67000000Y-88000000D02*
X67000000Y-79113500D01*
X76871891Y-89263500D02*
X68263500Y-89263500D01*
X78350001Y-87829157D02*
X78306234Y-87829157D01*
%TO.N,/DAT26*%
X87163783Y-130300001D02*
X87559630Y-130300001D01*
X87559630Y-130300001D02*
X91150000Y-133890371D01*
X91150000Y-133890371D02*
X91150000Y-136000000D01*
%TO.N,/DAT18*%
X85802779Y-119516667D02*
X85823997Y-119537885D01*
X85823993Y-121423993D02*
X93650000Y-129250000D01*
X85823997Y-119537885D02*
X85823993Y-120304323D01*
X85823993Y-120304323D02*
X85823993Y-121423993D01*
X93650000Y-129250000D02*
X94132960Y-129250000D01*
X94132960Y-129250000D02*
X97800000Y-132917040D01*
X97800000Y-132917040D02*
X97800000Y-135710000D01*
%TO.N,/DAT16*%
X86600000Y-120200000D02*
X86600000Y-121492894D01*
X86600000Y-121492894D02*
X93857106Y-128750000D01*
X93857106Y-128750000D02*
X94341480Y-128750000D01*
X94341480Y-128750000D02*
X98795000Y-133203520D01*
X98795000Y-133203520D02*
X98795000Y-135975000D01*
%TO.N,/DAT14*%
X87400000Y-119400000D02*
X87400000Y-121585788D01*
X100065000Y-133765000D02*
X100065000Y-135975000D01*
X87400000Y-121585788D02*
X94064212Y-128250000D01*
X94064212Y-128250000D02*
X94550000Y-128250000D01*
X94550000Y-128250000D02*
X100065000Y-133765000D01*
%TO.N,/+5V_VLB*%
D28*
X87340000Y-136000000D02*
X87340000Y-133823346D01*
X87340000Y-133823346D02*
X85750000Y-132233346D01*
X85750000Y-132233346D02*
X85750000Y-130250000D01*
%TO.N,/DAT30*%
D29*
X87571232Y-132859567D02*
X87690372Y-132978707D01*
X87690372Y-132978707D02*
X87753707Y-132978707D01*
X87753707Y-132978707D02*
X88295750Y-133520750D01*
X88295750Y-133520750D02*
X88295750Y-135675750D01*
X88295750Y-135675750D02*
X88620000Y-136000000D01*
%TO.N,/DAT28*%
X89249952Y-133086342D02*
X89249952Y-133093276D01*
X89249952Y-133093276D02*
X89880000Y-133723324D01*
X89880000Y-133723324D02*
X89880000Y-136000000D01*
%TO.N,/ADR26*%
X80774999Y-131541485D02*
X80774999Y-127924999D01*
X80774999Y-127924999D02*
X80150000Y-127300000D01*
X80150000Y-127300000D02*
X79100000Y-127300000D01*
%TO.N,/ADR25*%
X83000000Y-128570000D02*
X83000000Y-130412500D01*
X83000000Y-130412500D02*
X80725000Y-132687500D01*
X80725000Y-132687500D02*
X80725000Y-135735000D01*
X80725000Y-135735000D02*
X80990000Y-136000000D01*
%TO.N,GND*%
D32*
X81664245Y-133075001D02*
X84192018Y-133075001D01*
X81664242Y-133074998D02*
X81664245Y-133075001D01*
X81500000Y-133074998D02*
X81664242Y-133074998D01*
X84192018Y-133075001D02*
X84800000Y-133682983D01*
X84800000Y-133682983D02*
X84800000Y-136000000D01*
%TO.N,/ADR24*%
D29*
X75485742Y-125814258D02*
X73020000Y-128280000D01*
X73020000Y-128280000D02*
X73020000Y-128975000D01*
X75471015Y-125599999D02*
X75485742Y-125614726D01*
X75485742Y-125614726D02*
X75485742Y-125814258D01*
%TO.N,/ADR23*%
X73560379Y-125364621D02*
X73539621Y-125364621D01*
X73539621Y-125364621D02*
X73020000Y-124845000D01*
X73020000Y-124845000D02*
X73020000Y-124025000D01*
%TO.N,/ADR9*%
X69098008Y-131926992D02*
X68675000Y-132350000D01*
X68675000Y-132350000D02*
X68675000Y-135340000D01*
%TO.N,/RESET*%
X58800000Y-131850000D02*
X58800000Y-132271570D01*
X58800000Y-132271570D02*
X59400000Y-132871570D01*
X59400000Y-132871570D02*
X59400000Y-136000000D01*
%TO.N,/RC_RESET*%
X71765419Y-120055619D02*
X72039123Y-120012865D01*
X71493003Y-120105934D02*
X71765419Y-120055619D01*
X71222083Y-120163770D02*
X71493003Y-120105934D01*
X70420379Y-120381934D02*
X70685566Y-120301823D01*
X68161789Y-121422698D02*
X68399032Y-121279667D01*
X72039123Y-120012865D02*
X72313907Y-119977704D01*
X69133230Y-120890719D02*
X69384826Y-120774783D01*
X70952869Y-120229083D02*
X71222083Y-120163770D01*
X72552907Y-119963460D02*
X72555612Y-119960755D01*
X70685566Y-120301823D02*
X70952869Y-120229083D01*
X70157511Y-120469356D02*
X70420379Y-120381934D01*
X68884939Y-121013576D02*
X69133230Y-120890719D01*
X69897163Y-120564021D02*
X70157511Y-120469356D01*
X69384826Y-120774783D02*
X69639536Y-120665856D01*
X68640144Y-121143258D02*
X68884939Y-121013576D01*
X68399032Y-121279667D02*
X68640144Y-121143258D01*
X69639536Y-120665856D02*
X69897163Y-120564021D01*
X67928596Y-121572241D02*
X68161789Y-121422698D01*
X57678842Y-130225000D02*
X65682188Y-123610590D01*
X65682188Y-123610590D02*
X67147172Y-122145606D01*
X67147172Y-122145606D02*
X67255089Y-122058774D01*
X67255089Y-122058774D02*
X67475072Y-121890401D01*
X67699632Y-121728182D02*
X67928596Y-121572241D01*
X56775000Y-130225000D02*
X57678842Y-130225000D01*
X67475072Y-121890401D02*
X67699632Y-121728182D01*
X72313907Y-119977704D02*
X72451685Y-119963460D01*
X72451685Y-119963460D02*
X72552907Y-119963460D01*
X72555612Y-119960755D02*
X72555612Y-119821422D01*
%TO.N,/ADS#*%
X67618595Y-119455452D02*
G75*
G02*
X69476967Y-118538150I5331505J-8460048D01*
G01*
X69517399Y-118523185D02*
G75*
G02*
X72994299Y-117900690I3473101J-9377515D01*
G01*
X54985829Y-127760829D02*
X67618595Y-119455452D01*
X69476970Y-118538159D02*
X69517399Y-118523185D01*
X72994299Y-117900674D02*
X76635597Y-117900674D01*
X76635597Y-117900674D02*
X76761274Y-117774997D01*
%TO.N,/MI{slash}O#*%
X66725474Y-119239125D02*
G75*
G02*
X74888705Y-117000002I8163226J-13760875D01*
G01*
X76825732Y-116999996D02*
G75*
G02*
X77723762Y-117212963I-32J-2000004D01*
G01*
X55593889Y-125818889D02*
X66725474Y-119239125D01*
X74888705Y-117000000D02*
X76825732Y-116999996D01*
X77723769Y-117212949D02*
X82876716Y-119776716D01*
%TO.N,/ADR3*%
X62596016Y-130503984D02*
X63210000Y-131117968D01*
X63210000Y-131117968D02*
X63210000Y-136000000D01*
%TO.N,/ADR2*%
X61511508Y-130515492D02*
X62251000Y-131254984D01*
X62251000Y-131254984D02*
X62251000Y-135689000D01*
%TO.N,/EROM*%
X167800000Y-111500000D02*
X199750000Y-125000000D01*
X199750000Y-125000000D02*
X211170000Y-125000000D01*
X211170000Y-125000000D02*
X212930000Y-123240000D01*
%TO.N,/BD2*%
X242772239Y-117425000D02*
X242497239Y-117700000D01*
X242497239Y-117700000D02*
X212470000Y-117700000D01*
X212470000Y-117700000D02*
X202770000Y-108000000D01*
%TO.N,/BD1*%
X241722668Y-116925000D02*
X241447668Y-117200000D01*
X241447668Y-117200000D02*
X214510000Y-117200000D01*
X214510000Y-117200000D02*
X205310000Y-108000000D01*
%TO.N,/BD0*%
X240139232Y-116425000D02*
X216275000Y-116425000D01*
X216275000Y-116425000D02*
X207850000Y-108000000D01*
%TO.N,/BD6*%
X246800000Y-118900000D02*
X246000000Y-119700000D01*
%TO.N,/BD4*%
X244103983Y-118700000D02*
X207310000Y-118700000D01*
%TO.N,/BD5*%
X209350000Y-119200000D02*
X205310000Y-123240000D01*
X244927779Y-119200000D02*
X209350000Y-119200000D01*
X246002779Y-118125000D02*
X244927779Y-119200000D01*
%TO.N,/BD4*%
X207310000Y-118700000D02*
X202770000Y-123240000D01*
%TO.N,/BD3*%
X243434371Y-118200000D02*
X205270000Y-118200000D01*
%TO.N,/BD6*%
X211390000Y-119700000D02*
X207850000Y-123240000D01*
X246000000Y-119700000D02*
X211390000Y-119700000D01*
%TO.N,/BD7*%
X246750000Y-120250000D02*
X213380000Y-120250000D01*
%TO.N,/BD3*%
X205270000Y-118200000D02*
X200230000Y-123240000D01*
%TO.N,/BD4*%
X244930652Y-117873331D02*
X244103983Y-118700000D01*
%TO.N,/BD7*%
X213380000Y-120250000D02*
X210390000Y-123240000D01*
%TO.N,/BD3*%
X243888403Y-117745968D02*
X243434371Y-118200000D01*
%TO.N,/~{SMEMRD}*%
X240200000Y-124700000D02*
X219470000Y-124700000D01*
%TO.N,/EROM*%
X240793207Y-121510434D02*
X214659566Y-121510434D01*
X214659566Y-121510434D02*
X212930000Y-123240000D01*
%TO.N,/~{SMEMRD}*%
X219470000Y-124700000D02*
X218010000Y-123240000D01*
%TO.N,GND*%
D30*
X105292896Y-132907275D02*
X105120000Y-133080171D01*
X64480000Y-133595077D02*
X64480000Y-136000000D01*
X106907374Y-114538934D02*
X106250000Y-115196308D01*
D31*
X177600000Y-126250000D02*
X177600000Y-131650000D01*
D32*
X71710723Y-128935723D02*
X71750000Y-128975000D01*
X105989639Y-127500000D02*
X110750000Y-128218871D01*
X71710723Y-126400000D02*
X68800000Y-126400000D01*
D30*
X106907374Y-114538934D02*
X109822373Y-114538934D01*
D32*
X269425000Y-84730000D02*
X268976852Y-84281852D01*
D30*
X109822373Y-114538934D02*
X109971202Y-114390105D01*
D32*
X71710723Y-126400000D02*
X71710723Y-128935723D01*
X67940000Y-127260000D02*
X67940000Y-128975000D01*
D30*
X102500000Y-120750000D02*
X103750000Y-122000000D01*
X102100000Y-110600000D02*
X102250000Y-110750000D01*
X102500000Y-119750000D02*
X102500000Y-120750000D01*
D32*
X109245547Y-110391786D02*
X102608214Y-110391786D01*
D30*
X106250000Y-115196308D02*
X106250000Y-116600000D01*
X94200000Y-117500000D02*
X90750000Y-117500000D01*
D31*
X177600000Y-131650000D02*
X177550000Y-131700000D01*
D30*
X101350000Y-121250000D02*
X99101026Y-121276060D01*
X112750000Y-117100000D02*
X112750000Y-119000000D01*
X64500000Y-133575077D02*
X64480000Y-133595077D01*
D32*
X75539490Y-133074998D02*
X75910000Y-133445508D01*
X64500000Y-133000000D02*
X64500000Y-130665000D01*
D30*
X105120000Y-133080171D02*
X105120000Y-136000000D01*
X64500000Y-133000000D02*
X64500000Y-133575077D01*
D32*
X76900000Y-120500000D02*
X77500000Y-121100000D01*
D30*
X42900000Y-133600000D02*
X44320000Y-132180000D01*
D31*
X269400000Y-89000000D02*
X269400000Y-84520000D01*
D30*
X97600000Y-110600000D02*
X102100000Y-110600000D01*
D32*
X75525000Y-133074998D02*
X75539490Y-133074998D01*
D31*
X267955000Y-95035000D02*
X269400000Y-93590000D01*
D32*
X123599811Y-130500000D02*
X131200000Y-130500000D01*
D30*
X110040105Y-114390105D02*
X112750000Y-117100000D01*
X42900000Y-136000000D02*
X42900000Y-133600000D01*
X97600000Y-110600000D02*
X86000000Y-110600000D01*
D32*
X77500000Y-121100000D02*
X77500000Y-122250000D01*
X264868148Y-84281852D02*
X261450000Y-87700000D01*
D31*
X177550000Y-131700000D02*
X177550000Y-132877208D01*
D32*
X102608214Y-110391786D02*
X102250000Y-110750000D01*
D30*
X106250000Y-116600000D02*
X102500000Y-119750000D01*
X50520000Y-133245000D02*
X49455000Y-132180000D01*
X50520000Y-136000000D02*
X50520000Y-133245000D01*
D31*
X266925000Y-95035000D02*
X267955000Y-95035000D01*
D30*
X99101026Y-121276060D02*
X94800000Y-117500000D01*
D32*
X66440000Y-128725000D02*
X67000000Y-128725000D01*
X110750000Y-128218871D02*
X121717173Y-130321185D01*
X67000000Y-128725000D02*
X67690000Y-128725000D01*
D30*
X109971202Y-114390105D02*
X110040105Y-114390105D01*
D32*
X75910000Y-133445508D02*
X75910000Y-136000000D01*
D30*
X49455000Y-132180000D02*
X47980000Y-132180000D01*
D31*
X253750000Y-130250000D02*
X253750000Y-136410000D01*
D32*
X67940000Y-124025000D02*
X71750000Y-124025000D01*
X68800000Y-126400000D02*
X67940000Y-127260000D01*
X71750000Y-124025000D02*
X71710723Y-124064277D01*
X67690000Y-128725000D02*
X67940000Y-128975000D01*
X131200000Y-130500000D02*
X158875000Y-130500000D01*
D30*
X102500000Y-119750000D02*
X101350000Y-121250000D01*
D31*
X230890000Y-130390000D02*
X230890000Y-136410000D01*
D32*
X71710723Y-124064277D02*
X71710723Y-126400000D01*
D30*
X44320000Y-132180000D02*
X47980000Y-132180000D01*
D32*
X268976852Y-84281852D02*
X264868148Y-84281852D01*
X64500000Y-130665000D02*
X66440000Y-128725000D01*
X121717173Y-130321185D02*
G75*
G03*
X123599811Y-130499998I1882627J9821185D01*
G01*
%TO.N,/AVcc*%
X104125000Y-115775000D02*
X100100000Y-119800000D01*
X105194907Y-115775000D02*
X104125000Y-115775000D01*
X105225000Y-115805093D02*
X105194907Y-115775000D01*
%TO.N,/VCC*%
X75560000Y-123861022D02*
X75603011Y-123818011D01*
X77481989Y-123818011D02*
X77500000Y-123800000D01*
X75560000Y-124025000D02*
X75560000Y-123861022D01*
X75603011Y-123818011D02*
X77481989Y-123818011D01*
%TO.N,/P1O*%
D29*
X270702500Y-84278623D02*
X270702500Y-86942500D01*
X269823877Y-83400000D02*
X270702500Y-84278623D01*
X270702500Y-86942500D02*
X271925000Y-88165000D01*
X130500000Y-109250000D02*
X258500000Y-83500000D01*
X258500000Y-83500000D02*
X269823877Y-83400000D01*
%TO.N,Net-(RN5-R1.2)*%
X267965851Y-97800000D02*
X270690993Y-95074858D01*
X270690993Y-91689007D02*
X271925000Y-90455000D01*
X260000000Y-97800000D02*
X267965851Y-97800000D01*
X270690993Y-95074858D02*
X270690993Y-91689007D01*
%TO.N,Net-(RN5-R3.2)*%
X259970002Y-99480055D02*
X260239947Y-99750000D01*
X260239947Y-99750000D02*
X266750000Y-99750000D01*
%TO.N,/WE*%
X79530391Y-80206749D02*
X68250000Y-87500000D01*
X120250000Y-80292391D02*
X120379520Y-80421911D01*
X114998254Y-79936036D02*
X93550000Y-77963500D01*
X120250000Y-80000000D02*
X120250000Y-80292391D01*
X120379520Y-80421911D02*
X148735484Y-80421911D01*
X115062218Y-80000000D02*
X114998254Y-79936036D01*
X148735484Y-80421911D02*
X148765004Y-80451431D01*
X120250000Y-80000000D02*
X115062218Y-80000000D01*
X93550000Y-77963500D02*
X87131628Y-77963500D01*
X87131628Y-77963500D02*
G75*
G03*
X79530383Y-80206736I-28J-14000000D01*
G01*
%TO.N,/RAS*%
X121550000Y-83000000D02*
X124950000Y-84144522D01*
X152964026Y-84144522D02*
X153183004Y-84363500D01*
X124950000Y-84144522D02*
X152964026Y-84144522D01*
X104450000Y-83000000D02*
X121550000Y-83000000D01*
X98500000Y-83800000D02*
X104450000Y-83000000D01*
%TO.N,/MA0*%
X124228369Y-81000000D02*
X114950000Y-81000000D01*
X114950000Y-81000000D02*
X93500000Y-78738500D01*
X72250000Y-87500000D02*
X72325000Y-87500000D01*
X154670462Y-81226431D02*
X154690004Y-81206889D01*
X72325000Y-87500000D02*
X76836960Y-82988040D01*
X87443561Y-78594642D02*
X89695286Y-78594642D01*
X124454800Y-81226431D02*
X154670462Y-81226431D01*
X124425280Y-81196911D02*
X124454800Y-81226431D01*
X124425280Y-81196911D02*
X124228369Y-81000000D01*
X93500000Y-78738500D02*
X89839144Y-78738500D01*
X89695286Y-78594642D02*
X89839144Y-78738500D01*
X76836960Y-82988040D02*
G75*
G02*
X87443561Y-78594602I10606640J-10606560D01*
G01*
%TO.N,/MA1*%
X125098569Y-82000000D02*
X125100000Y-82001431D01*
X155927143Y-81981889D02*
X156245532Y-81663500D01*
X73625000Y-87500000D02*
X77518405Y-83606595D01*
X77518405Y-83606595D02*
X78137806Y-82987195D01*
X73500000Y-87500000D02*
X73625000Y-87500000D01*
X124000000Y-82000000D02*
X125098569Y-82000000D01*
X87249050Y-79213197D02*
X88843555Y-79213197D01*
X89000000Y-79369642D02*
X89193858Y-79563500D01*
X122150000Y-81500000D02*
X124000000Y-82000000D01*
X125080458Y-81981889D02*
X155927143Y-81981889D01*
X88843555Y-79213197D02*
X89000000Y-79369642D01*
X114850000Y-81500000D02*
X122150000Y-81500000D01*
X89193858Y-79563500D02*
X93450000Y-79550000D01*
X93450000Y-79550000D02*
X114850000Y-81500000D01*
X78137806Y-82987195D02*
G75*
G02*
X87249050Y-79213197I9111244J-9111255D01*
G01*
%TO.N,/MA2*%
X75000000Y-87500000D02*
X75000000Y-87411029D01*
X126675000Y-82481889D02*
X157395615Y-82481889D01*
X122000000Y-82000000D02*
X124750000Y-82800000D01*
X88000000Y-79988197D02*
X88175303Y-80163500D01*
X75000000Y-87411029D02*
X79609880Y-82801149D01*
X86680948Y-79872217D02*
X87884020Y-79872217D01*
X157395615Y-82481889D02*
X158114004Y-81763500D01*
X114800000Y-82000000D02*
X122000000Y-82000000D01*
X126356889Y-82800000D02*
X126400000Y-82756889D01*
X124750000Y-82800000D02*
X126356889Y-82800000D01*
X87884020Y-79872217D02*
X88000000Y-79988197D01*
X88175303Y-80163500D02*
X93450000Y-80150000D01*
X126400000Y-82756889D02*
X126675000Y-82481889D01*
X93450000Y-80150000D02*
X114800000Y-82000000D01*
X79609880Y-82801149D02*
G75*
G02*
X86680948Y-79872246I7071020J-7071051D01*
G01*
%TO.N,/MA3*%
X127581611Y-83531889D02*
X127750000Y-83363500D01*
X86750000Y-80647217D02*
X87000000Y-80647217D01*
X86749999Y-80647216D02*
X86750000Y-80647217D01*
X114600000Y-82500000D02*
X121850000Y-82500000D01*
X76113118Y-87393927D02*
X76138306Y-87393927D01*
X83599805Y-81914485D02*
X86749999Y-80647216D01*
X76138306Y-87393927D02*
X79184021Y-84662870D01*
X158064004Y-83363500D02*
X127750000Y-83363500D01*
X87216283Y-80863500D02*
X93400000Y-80850000D01*
X87000000Y-80647217D02*
X87216283Y-80863500D01*
X159664004Y-81763500D02*
X158064004Y-83363500D01*
X124900000Y-83531889D02*
X127581611Y-83531889D01*
X121850000Y-82500000D02*
X124900000Y-83531889D01*
X93400000Y-80850000D02*
X114600000Y-82500000D01*
X83599805Y-81914485D02*
G75*
G03*
X79184019Y-84662868I5598195J-13916115D01*
G01*
%TO.N,/MD7*%
X137578504Y-87900000D02*
X137865004Y-87613500D01*
X76379644Y-95920359D02*
X78542139Y-93757864D01*
X92684274Y-87900000D02*
X137578504Y-87900000D01*
X76379644Y-95951856D02*
X76379644Y-95920359D01*
X78542139Y-93757864D02*
G75*
G02*
X92684274Y-87899982I14142161J-14142136D01*
G01*
%TO.N,/MD6*%
X77533649Y-95908383D02*
X79184168Y-94257864D01*
X93326303Y-88400000D02*
X138328504Y-88400000D01*
X138328504Y-88400000D02*
X139115004Y-87613500D01*
X77487636Y-95908383D02*
X77533649Y-95908383D01*
X79184168Y-94257864D02*
G75*
G02*
X93326303Y-88400002I14142132J-14142136D01*
G01*
%TO.N,/MD5*%
X93922320Y-88900000D02*
X139078504Y-88900000D01*
X77584107Y-96953942D02*
X79780185Y-94757864D01*
X139078504Y-88900000D02*
X140365004Y-87613500D01*
X93922320Y-88900000D02*
G75*
G03*
X79780175Y-94757854I-20J-20000000D01*
G01*
%TO.N,/MD4*%
X77675000Y-98000000D02*
X77750000Y-98000000D01*
X139828504Y-89400000D02*
X141615004Y-87613500D01*
X77750000Y-98000000D02*
X80492136Y-95257864D01*
X94634271Y-89400000D02*
X139828504Y-89400000D01*
X80492136Y-95257864D02*
G75*
G02*
X94634271Y-89399980I14142164J-14142136D01*
G01*
%TO.N,/MD3*%
X95824268Y-90400000D02*
X141896016Y-90400000D01*
X144360146Y-87935870D02*
X144360146Y-87918069D01*
X78714996Y-99225001D02*
X81682133Y-96257864D01*
X141896016Y-90400000D02*
X144360146Y-87935870D01*
X95824268Y-90400000D02*
G75*
G03*
X81682134Y-96257865I2J-20000000D01*
G01*
%TO.N,/MD2*%
X142490079Y-90900000D02*
X145365004Y-88025075D01*
X96470059Y-90900000D02*
X142490079Y-90900000D01*
X77337754Y-99725000D02*
X77612754Y-100000000D01*
X79085788Y-100000000D02*
X82327924Y-96757864D01*
X145365004Y-88025075D02*
X145365004Y-87613500D01*
X77612754Y-100000000D02*
X79085788Y-100000000D01*
X96470059Y-90900000D02*
G75*
G03*
X82327924Y-96757864I1J-20000000D01*
G01*
%TO.N,/MD1*%
X142828504Y-91400000D02*
X146615004Y-87613500D01*
X76384027Y-100183670D02*
X76700357Y-100500000D01*
X76700357Y-100500000D02*
X79292894Y-100500000D01*
X96677165Y-91400000D02*
X142828504Y-91400000D01*
X79292894Y-100500000D02*
X82535030Y-97257864D01*
X96677165Y-91400000D02*
G75*
G03*
X82535027Y-97257861I-5J-20000000D01*
G01*
%TO.N,/MD0*%
X79500000Y-101000000D02*
X82742136Y-97757864D01*
X96884271Y-91900000D02*
X143578504Y-91900000D01*
X143578504Y-91900000D02*
X147865004Y-87613500D01*
X75850000Y-101000000D02*
X79500000Y-101000000D01*
X75400000Y-100550000D02*
X75850000Y-101000000D01*
X82742136Y-97757864D02*
G75*
G02*
X96884271Y-91899980I14142164J-14142136D01*
G01*
%TO.N,/CAS0*%
X75275000Y-96705209D02*
X75275000Y-95975000D01*
X77369791Y-98800000D02*
X75275000Y-96705209D01*
X81086116Y-95757865D02*
X78046017Y-98797964D01*
X141300000Y-89900000D02*
X95228252Y-89900000D01*
X141650000Y-89550000D02*
X141300000Y-89900000D01*
X78046017Y-98800000D02*
X77369791Y-98800000D01*
X78046017Y-98797964D02*
X78046017Y-98800000D01*
X81086116Y-95757865D02*
G75*
G02*
X95228252Y-89900002I14142134J-14142135D01*
G01*
%TO.N,/MD56*%
X98142971Y-94846190D02*
X98696443Y-95399662D01*
X112370445Y-94042175D02*
X113641764Y-93461040D01*
X98696443Y-95399662D02*
X106133926Y-95399897D01*
X98142971Y-94823148D02*
X98142971Y-94846190D01*
X106133926Y-95399897D02*
G75*
G03*
X112370445Y-94042175I474J14999997D01*
G01*
%TO.N,/MD57*%
X99365606Y-94677972D02*
X105048986Y-94693952D01*
X109266030Y-94101317D02*
X112014089Y-93305000D01*
X99115885Y-94428251D02*
X99365606Y-94677972D01*
X109266030Y-94101317D02*
G75*
G02*
X105048986Y-94693940I-4174830J14407317D01*
G01*
%TO.N,/MD58*%
X106900000Y-93798249D02*
X106801010Y-93897239D01*
X106801010Y-93897239D02*
X100021715Y-93897239D01*
X106900000Y-93650000D02*
X106900000Y-93798249D01*
%TO.N,/RAS1*%
X71053479Y-88763500D02*
X75841851Y-88763500D01*
X69948804Y-87516622D02*
X69948804Y-87698804D01*
X75841851Y-88763500D02*
X77887637Y-86717714D01*
X98975428Y-86061594D02*
X98975428Y-85962404D01*
X105654647Y-83796600D02*
X121250000Y-83775000D01*
X93677480Y-81675365D02*
X98975428Y-86061594D01*
X90615559Y-81445636D02*
X93039764Y-81445636D01*
X98975428Y-85962404D02*
X99074618Y-86061594D01*
X69948804Y-87698804D02*
X69975001Y-87725001D01*
X99074618Y-85962404D02*
X101025917Y-84939590D01*
X69975001Y-87725001D02*
X70014980Y-87725001D01*
X70014980Y-87725001D02*
X71053479Y-88763500D01*
X99074618Y-86061594D02*
X99074618Y-85962404D01*
X77887637Y-86717714D02*
G75*
G02*
X90615559Y-81445634I12727923J-12727916D01*
G01*
X101025917Y-84939590D02*
G75*
G02*
X105654647Y-83796599I4642583J-8857010D01*
G01*
X93039764Y-81445636D02*
G75*
G02*
X93677490Y-81675353I36J-999964D01*
G01*
%TO.N,/RED*%
D28*
X121992105Y-127064126D02*
X122878630Y-127143239D01*
X129099096Y-127475743D02*
X129989003Y-127491585D01*
X116690935Y-126424077D02*
X117571973Y-126550397D01*
X124653616Y-127277780D02*
X125541936Y-127333196D01*
X114932406Y-126147936D02*
X115811056Y-126289919D01*
X106744451Y-124683354D02*
X114055055Y-125998138D01*
X128209366Y-127451980D02*
X129099096Y-127475743D01*
X126430715Y-127380704D02*
X127319882Y-127420300D01*
X130879015Y-127499506D02*
X131324039Y-127500000D01*
X119337247Y-126779490D02*
X120221343Y-126882244D01*
X122878630Y-127143239D02*
X123765823Y-127214459D01*
X125541936Y-127333196D02*
X126430715Y-127380704D01*
X129989003Y-127491585D02*
X130879015Y-127499506D01*
X127319882Y-127420300D02*
X128209366Y-127451980D01*
X131324039Y-127500000D02*
X145500000Y-127500000D01*
X117571973Y-126550397D02*
X118454100Y-126668872D01*
X115811056Y-126289919D02*
X116690935Y-126424077D01*
X114055055Y-125998138D02*
X114932406Y-126147936D01*
X123765823Y-127214459D02*
X124653616Y-127277780D01*
X120221343Y-126882244D02*
X121106319Y-126977125D01*
X118454100Y-126668872D02*
X119337247Y-126779490D01*
X121106319Y-126977125D02*
X121992105Y-127064126D01*
%TO.N,/GREEN*%
X146250000Y-128500000D02*
X131733394Y-128500000D01*
X114789987Y-127054152D02*
X105750000Y-125500000D01*
X131733394Y-128500000D02*
G75*
G02*
X114789987Y-127054153I6J100000100D01*
G01*
%TO.N,/BLUE*%
X147000000Y-129500000D02*
X131607674Y-129500000D01*
X113932571Y-127925559D02*
X104750000Y-126276568D01*
X131607674Y-129500000D02*
G75*
G02*
X113932572Y-127925555I26J100000000D01*
G01*
%TO.N,/+5V_VLB*%
D30*
X45384049Y-128384049D02*
X40385000Y-133383098D01*
X72125000Y-133078993D02*
X72125000Y-135975000D01*
X72300000Y-132903993D02*
X72125000Y-133078993D01*
X100925000Y-132726749D02*
X100961967Y-132726749D01*
X101310000Y-133074782D02*
X101310000Y-136000000D01*
X72300000Y-132825000D02*
X72300000Y-132903993D01*
X100961967Y-132726749D02*
X101310000Y-133074782D01*
X40385000Y-133383098D02*
X40385000Y-135975000D01*
%TO.N,/EROM*%
D29*
X112000000Y-110050000D02*
X110760886Y-109715439D01*
X108193973Y-109369809D02*
X78050000Y-109250000D01*
X78050000Y-109250000D02*
X77250000Y-109563725D01*
X108193973Y-109369809D02*
G75*
G02*
X110760884Y-109715447I-39773J-9999891D01*
G01*
%TO.N,/~{SMEMRD}*%
X225760000Y-135600000D02*
X225760000Y-132140000D01*
X225760000Y-132140000D02*
X227600000Y-130300000D01*
%TO.N,Net-(Y1-OUT)*%
D28*
X59515000Y-100080000D02*
X62750000Y-98750000D01*
%TO.N,/IRQ*%
D29*
X174801004Y-131273996D02*
X175475000Y-130600000D01*
X104223844Y-127823844D02*
X104223844Y-127823849D01*
X137478380Y-131273996D02*
X137478984Y-131274600D01*
X138121620Y-131273996D02*
X174801004Y-131273996D01*
X106459754Y-128750000D02*
X107625000Y-128750000D01*
X179400000Y-126700000D02*
X193200000Y-131100000D01*
X117100000Y-131300000D02*
X137478380Y-131273996D01*
X179387500Y-126687500D02*
X179400000Y-126700000D01*
X96364466Y-119964466D02*
X104223844Y-127823844D01*
X225675000Y-131100000D02*
X226525000Y-130250000D01*
X193200000Y-131100000D02*
X225675000Y-131100000D01*
X107625000Y-128750000D02*
X117100000Y-131300000D01*
X91327822Y-118500000D02*
X92828932Y-118500000D01*
X82100000Y-114200000D02*
X88847127Y-117841216D01*
X137478984Y-131274600D02*
X138121016Y-131274600D01*
X138121016Y-131274600D02*
X138121620Y-131273996D01*
X88847127Y-117841216D02*
G75*
G03*
X91327822Y-118499989I2480673J4341216D01*
G01*
X92828932Y-118500000D02*
G75*
G02*
X96364450Y-119964482I-32J-5000000D01*
G01*
X104223844Y-127823849D02*
G75*
G03*
X106459754Y-128750044I2235956J2235849D01*
G01*
%TO.N,/HSYNC*%
X251975408Y-100774592D02*
X226026897Y-100774592D01*
X194488414Y-103246171D02*
X149399877Y-110401279D01*
X99896942Y-118441601D02*
X99896942Y-118542833D01*
X102563325Y-115775215D02*
X99896942Y-118441601D01*
X125963575Y-112716489D02*
X107921517Y-113430566D01*
X252000000Y-100750000D02*
X251975408Y-100774592D01*
X149399877Y-110401279D02*
G75*
G02*
X125963575Y-112716485I-31345777J197528379D01*
G01*
X226026897Y-100774592D02*
G75*
G03*
X194488413Y-103246167I-192697J-200000008D01*
G01*
X107921517Y-113430566D02*
G75*
G03*
X102563304Y-115775194I317383J-8020234D01*
G01*
%TO.N,/VSYNC*%
X126804644Y-111686861D02*
X108427081Y-112562818D01*
X254113733Y-100250000D02*
X254082584Y-100218851D01*
X254250000Y-100250000D02*
X254113733Y-100250000D01*
X250335662Y-99510558D02*
X225590650Y-99631265D01*
X195435649Y-102066526D02*
X148413158Y-109476025D01*
X99884681Y-117471877D02*
X98132106Y-117471877D01*
X101751886Y-115561562D02*
X99884681Y-117471877D01*
X148413158Y-109476025D02*
G75*
G02*
X126804644Y-111686858I-31130558J197562325D01*
G01*
X225590650Y-99631265D02*
G75*
G03*
X195435648Y-102066519I975550J-199997635D01*
G01*
X254082584Y-100218851D02*
G75*
G03*
X250335662Y-99510551I-3699484J-9305549D01*
G01*
X108427081Y-112562818D02*
G75*
G03*
X101751888Y-115561564I476119J-9988682D01*
G01*
%TO.N,/DAT1*%
X111470000Y-132092182D02*
X111470000Y-132525000D01*
X111043998Y-131251966D02*
X111177107Y-131385075D01*
X107421114Y-129787500D02*
X107508464Y-129787500D01*
X111470000Y-132092182D02*
G75*
G03*
X111177098Y-131385084I-1000000J-18D01*
G01*
X111043998Y-131251966D02*
G75*
G03*
X107508464Y-129787525I-3535498J-3535534D01*
G01*
%TO.N,/DAT3*%
X110570001Y-131873985D02*
X108105103Y-130784199D01*
X110570001Y-131873985D02*
X110546016Y-131850000D01*
X108105103Y-130784199D02*
X108105103Y-130687500D01*
%TO.N,/BE0#*%
X76251992Y-104550000D02*
X75400000Y-104550000D01*
X75400000Y-104550000D02*
X64507246Y-109821738D01*
%TO.N,/BE1#*%
X76209045Y-105674997D02*
X75178984Y-105674997D01*
X76216437Y-105682389D02*
X76209045Y-105674997D01*
X75178984Y-105674997D02*
X64900000Y-110600000D01*
X64900000Y-110600000D02*
X63346738Y-110596738D01*
X63346738Y-110596738D02*
X63185232Y-110435232D01*
%TO.N,/BE2#*%
X64900000Y-111210232D02*
X61960232Y-111210232D01*
X61960232Y-111210232D02*
X61775267Y-111025267D01*
X75500000Y-106449997D02*
X64900000Y-111210232D01*
%TO.N,/LRDY#*%
X75330910Y-119001349D02*
X73466361Y-119001349D01*
X67563430Y-120929459D02*
X54134453Y-130750000D01*
X76018101Y-119164153D02*
X75999135Y-119145187D01*
X76018101Y-119219538D02*
X76018101Y-119164153D01*
X73466361Y-119001349D02*
G75*
G03*
X67563449Y-120929485I39J-9999951D01*
G01*
X75999135Y-119145187D02*
G75*
G03*
X75330910Y-119001343I-669435J-1485813D01*
G01*
%TO.N,/LDEV#*%
X75080763Y-115000000D02*
X75888557Y-115000000D01*
X54718459Y-123818459D02*
X64884914Y-117794052D01*
X81654960Y-116830019D02*
X82250000Y-117250000D01*
X75888557Y-115000000D02*
G75*
G02*
X81654974Y-116829998I43J-10000000D01*
G01*
X75080763Y-115000000D02*
G75*
G03*
X64884923Y-117794068I37J-20000000D01*
G01*
%TO.N,/VID2*%
X78867135Y-91232865D02*
X74835281Y-95264719D01*
X74284817Y-96304709D02*
X73746784Y-99129384D01*
X94925000Y-85000000D02*
X94550000Y-85375000D01*
X64995149Y-107294002D02*
X61822870Y-109016031D01*
X94550000Y-85375000D02*
X93009271Y-85375000D01*
X52000000Y-118000000D02*
X44250000Y-126750000D01*
X61822870Y-109016031D02*
X52000000Y-118000000D01*
X68404449Y-106092016D02*
X64995149Y-107294002D01*
X71129703Y-104192079D02*
X70816032Y-104524202D01*
X71193529Y-104124498D02*
X71129703Y-104192079D01*
X74835281Y-95264719D02*
G75*
G03*
X74284835Y-96304713I1414219J-1414181D01*
G01*
X68404449Y-106092016D02*
G75*
G03*
X70816023Y-104524194I-2032549J5765016D01*
G01*
X78867135Y-91232865D02*
G75*
G02*
X93009271Y-85374980I14142165J-14142135D01*
G01*
X73746784Y-99129384D02*
G75*
G02*
X71193543Y-104124511I-9823384J1871084D01*
G01*
%TO.N,/DAT0*%
X106570010Y-130248422D02*
X107772140Y-131450642D01*
X95800000Y-121963312D02*
X101171177Y-127334489D01*
X107772140Y-131450642D02*
X109950000Y-132350000D01*
X101171177Y-127334489D02*
X101667096Y-127818728D01*
X109950000Y-132350000D02*
X111470000Y-133870000D01*
X111470000Y-133870000D02*
X111470000Y-136000000D01*
X101667096Y-127818728D02*
X106570010Y-130248422D01*
X95800000Y-120588895D02*
X95800000Y-121963312D01*
X95375000Y-120163895D02*
X95800000Y-120588895D01*
%TO.N,/DAT2*%
X94812300Y-121682718D02*
X101415521Y-128285939D01*
X101415521Y-128285939D02*
X106362902Y-130748422D01*
X106362902Y-130748422D02*
X107484033Y-131869930D01*
X94812300Y-121050387D02*
X94812300Y-121682718D01*
X109325000Y-132850000D02*
X110200000Y-133725000D01*
X110200000Y-133725000D02*
X110200000Y-136000000D01*
X107484033Y-131869930D02*
X109325000Y-132850000D01*
%TO.N,/DAT4*%
X93762365Y-121426281D02*
X101072278Y-128724377D01*
X93762365Y-121038784D02*
X93762365Y-121426281D01*
X107307374Y-132400000D02*
X108940000Y-133640000D01*
X108940000Y-133640000D02*
X108940000Y-136000000D01*
X101072278Y-128724377D02*
X106155796Y-131248422D01*
X106155796Y-131248422D02*
X107307374Y-132400000D01*
%TO.N,/DAT6*%
X92800000Y-119769730D02*
X92800000Y-121172436D01*
X100808835Y-129175004D02*
X105948689Y-131748422D01*
X105948689Y-131748422D02*
X107660000Y-133459733D01*
X107660000Y-133459733D02*
X107660000Y-136000000D01*
X92808594Y-119761136D02*
X92800000Y-119769730D01*
X92800000Y-121172436D02*
X100808835Y-129175004D01*
%TO.N,/DAT8*%
X91749997Y-119753987D02*
X92299986Y-121380276D01*
X106390000Y-132908363D02*
X106390000Y-136000000D01*
X105731637Y-132250000D02*
X106390000Y-132908363D01*
X91758714Y-119745270D02*
X91749997Y-119753987D01*
X100593920Y-129667228D02*
X105731637Y-132250000D01*
X92299986Y-121380276D02*
X100593920Y-129667228D01*
%TO.N,/DAT10*%
X90476992Y-120726992D02*
X92270279Y-122062433D01*
X103875000Y-133664476D02*
X103875000Y-135975000D01*
X92270279Y-122062433D02*
X103875000Y-133664476D01*
%TO.N,/DAT12*%
X95500000Y-126000000D02*
X102605000Y-133101582D01*
X102605000Y-133101582D02*
X102605000Y-135975000D01*
X89250000Y-120950000D02*
X95500000Y-126000000D01*
%TO.N,/DAT26*%
X91175000Y-133925000D02*
X91175000Y-135975000D01*
%TO.N,/ADR31*%
X84580254Y-131279108D02*
X84580254Y-126844468D01*
X85458933Y-133092342D02*
X85241074Y-132874481D01*
X84287361Y-126137361D02*
X84180000Y-126030000D01*
X84180000Y-126030000D02*
X83000000Y-126030000D01*
X86080000Y-133713409D02*
X85458933Y-133092342D01*
X86080000Y-136000000D02*
X86080000Y-133713409D01*
X84580254Y-131279108D02*
G75*
G03*
X85241071Y-132874484I2256246J8D01*
G01*
X84580254Y-126844468D02*
G75*
G03*
X84287335Y-126137387I-999954J-32D01*
G01*
%TO.N,/ADR23*%
X79720000Y-132800000D02*
X78701992Y-131048008D01*
X79720000Y-136000000D02*
X79720000Y-132800000D01*
%TO.N,/ADR21*%
X77950001Y-131780818D02*
X78075018Y-131905835D01*
X78055000Y-135605000D02*
X78100000Y-135650000D01*
X77950001Y-131780818D02*
X78055000Y-131885817D01*
X78055000Y-131885817D02*
X78055000Y-135605000D01*
%TO.N,/ADR19*%
X76400001Y-131203985D02*
X77050000Y-133625000D01*
X77050000Y-133625000D02*
X77050000Y-135545000D01*
%TO.N,/ADR17*%
X74640000Y-133600000D02*
X74640000Y-135620000D01*
X74640000Y-135620000D02*
X74450000Y-135810000D01*
X74942065Y-131957935D02*
X74640000Y-133600000D01*
%TO.N,/ADR15*%
X73370000Y-133569998D02*
X73370000Y-136000000D01*
X73865000Y-133074998D02*
X73370000Y-133569998D01*
%TO.N,/ADR13*%
X72300000Y-131250000D02*
X71050000Y-133450000D01*
X71050000Y-133450000D02*
X71050000Y-135505000D01*
%TO.N,/ADR11*%
X69575000Y-133700000D02*
X69585000Y-135975000D01*
X70700001Y-131250000D02*
X69575000Y-133700000D01*
%TO.N,/ADR7*%
X67351992Y-131248008D02*
X67075000Y-133250000D01*
X67075000Y-133250000D02*
X67045000Y-135975000D01*
%TO.N,/ADR5*%
X65775000Y-131980986D02*
X65775000Y-135975000D01*
X65776000Y-131979986D02*
X65775000Y-131980986D01*
X65750000Y-131750000D02*
X65776000Y-131979986D01*
%TO.N,/MI{slash}O#*%
X56876000Y-133482252D02*
X56876000Y-135984000D01*
X56437879Y-133044131D02*
X56876000Y-133482252D01*
%TO.N,/W{slash}R#*%
X55590000Y-133070853D02*
X55590000Y-136000000D01*
X70738766Y-121765160D02*
X70738763Y-121765163D01*
X67128464Y-123063965D02*
X55952940Y-132300039D01*
X73040177Y-121765160D02*
X70738766Y-121765160D01*
X55952940Y-132300039D02*
G75*
G03*
X55589964Y-133070853I637060J-770861D01*
G01*
X70738763Y-121765163D02*
G75*
G03*
X67128474Y-123063977I37J-5667237D01*
G01*
%TO.N,/RDYRTN#*%
X68226916Y-119762109D02*
X67985216Y-119904789D01*
X71374996Y-118609996D02*
X71099723Y-118664785D01*
X70554331Y-118797423D02*
X70284642Y-118875168D01*
X69752337Y-119053204D02*
X69490141Y-119153355D01*
X51813823Y-133417187D02*
X51798255Y-133613953D01*
X67514299Y-120210211D02*
X67399596Y-120291067D01*
X52935965Y-130723755D02*
X52813228Y-130878335D01*
X51906889Y-132832715D02*
X51868182Y-133026264D01*
X67985216Y-119904789D02*
X67747614Y-120054195D01*
X68472526Y-119626269D02*
X68226916Y-119762109D01*
X51798255Y-133613953D02*
X51790464Y-133811180D01*
X53411823Y-130223690D02*
X53339393Y-130290727D01*
X53199253Y-130429722D02*
X53064707Y-130574140D01*
X69230859Y-119260824D02*
X68974695Y-119375527D01*
X52007054Y-132450953D02*
X51953203Y-132640845D01*
X53339393Y-130290727D02*
X53199253Y-130429722D01*
X52386006Y-131541369D02*
X52295964Y-131717015D01*
X71651698Y-118562955D02*
X71374996Y-118609996D01*
X77048049Y-118800000D02*
X76756132Y-118654518D01*
X67399596Y-120291067D02*
X53411823Y-130223690D01*
X68721851Y-119497374D02*
X68472526Y-119626269D01*
X51953203Y-132640845D02*
X51906889Y-132832715D01*
X76756132Y-118654518D02*
X76609365Y-118581369D01*
X72208516Y-118492253D02*
X71929611Y-118523696D01*
X70826096Y-118727277D02*
X70554331Y-118797423D01*
X52482909Y-131369413D02*
X52386006Y-131541369D01*
X52813228Y-130878335D02*
X52696687Y-131037638D01*
X72768423Y-118452902D02*
X72488193Y-118468649D01*
X52137015Y-132078279D02*
X52068356Y-132263333D01*
X68974695Y-119375527D02*
X68721851Y-119497374D01*
X70284642Y-118875168D02*
X70017240Y-118960450D01*
X53064707Y-130574140D02*
X52935965Y-130723755D01*
X51837144Y-133221189D02*
X51813823Y-133417187D01*
X52696687Y-131037638D02*
X52586523Y-131201415D01*
X69490141Y-119153355D02*
X69230859Y-119260824D01*
X73189321Y-118444538D02*
X73048985Y-118445026D01*
X52586523Y-131201415D02*
X52482909Y-131369413D01*
X51868182Y-133026264D02*
X51837144Y-133221189D01*
X71929611Y-118523696D02*
X71651698Y-118562955D01*
X73048985Y-118445026D02*
X72768423Y-118452902D01*
X52295964Y-131717015D02*
X52212924Y-131896078D01*
X52212924Y-131896078D02*
X52137015Y-132078279D01*
X70017240Y-118960450D02*
X69752337Y-119053204D01*
X51790000Y-133909870D02*
X51790000Y-136000000D01*
X71099723Y-118664785D02*
X70826096Y-118727277D01*
X51790464Y-133811180D02*
X51790000Y-133909870D01*
X52068356Y-132263333D02*
X52007054Y-132450953D01*
X76028075Y-118444538D02*
X73189321Y-118444538D01*
X72488193Y-118468649D02*
X72208516Y-118492253D01*
X67747614Y-120054195D02*
X67514299Y-120210211D01*
X76028075Y-118444538D02*
G75*
G02*
X76609371Y-118581357I25J-1303162D01*
G01*
%TO.N,/CLK1X*%
X75800000Y-112600000D02*
X75700000Y-112700000D01*
X54624720Y-120907910D02*
X42215786Y-132648329D01*
X75700000Y-112700000D02*
X75242790Y-112700000D01*
X41630000Y-134062542D02*
X41630000Y-136000000D01*
X75800000Y-112600000D02*
X75799998Y-112600002D01*
X54624720Y-120907910D02*
G75*
G02*
X75242790Y-112699993I20618080J-21792090D01*
G01*
X42215786Y-132648329D02*
G75*
G03*
X41630030Y-134062542I1414214J-1414171D01*
G01*
%TO.N,/+5V_ISA*%
D31*
X248620000Y-131502579D02*
X248620000Y-135600000D01*
X250147579Y-129975000D02*
X248620000Y-131502579D01*
%TO.N,Net-(JP2-A)*%
D29*
X61655106Y-108508051D02*
X61638250Y-108507299D01*
X64633575Y-106891314D02*
X64629214Y-106900425D01*
X70598489Y-103930640D02*
X70328734Y-104217799D01*
X51199056Y-117800944D02*
X47290000Y-121710000D01*
X64669502Y-106878647D02*
X64633575Y-106891314D01*
X65000000Y-106700000D02*
X64669502Y-106878647D01*
X73683431Y-96021702D02*
X73138730Y-98926771D01*
X79471839Y-89869076D02*
X74252861Y-94958390D01*
X61638250Y-108507299D02*
X61611882Y-108531415D01*
X61300000Y-108700000D02*
X51199056Y-117800944D01*
X87287717Y-85645063D02*
X84984913Y-86451780D01*
X64629214Y-106900425D02*
X61655106Y-108508051D01*
X92924999Y-82221167D02*
X91696241Y-83203723D01*
X47290000Y-121710000D02*
X42500000Y-121710000D01*
X61611882Y-108531415D02*
X61300000Y-108700000D01*
X68359540Y-105505497D02*
X65000000Y-106700000D01*
X70328734Y-104217799D02*
G75*
G02*
X68359537Y-105505488I-3644234J3423399D01*
G01*
X84984913Y-86451780D02*
G75*
G03*
X79471832Y-89869069I4959287J-14156520D01*
G01*
X70598489Y-103930640D02*
G75*
G03*
X73138721Y-98926769I-7288489J6846740D01*
G01*
X91696241Y-83203723D02*
G75*
G02*
X87287720Y-85645072I-9367841J11715123D01*
G01*
X73683431Y-96021702D02*
G75*
G02*
X74252864Y-94958393I1965769J-368598D01*
G01*
%TO.N,/MD32*%
X58500000Y-91500000D02*
X70701992Y-96048008D01*
%TO.N,/CAS4*%
X66500000Y-90425000D02*
X66500000Y-78363500D01*
X72273008Y-96123008D02*
X72200000Y-96050000D01*
X66500000Y-78363500D02*
X67000000Y-77863500D01*
X72200000Y-96050000D02*
X72125000Y-96050000D01*
X72125000Y-96050000D02*
X66500000Y-90425000D01*
%TO.N,OSC*%
D28*
X67414082Y-103214082D02*
X67414082Y-99814082D01*
X67414082Y-99814082D02*
X66300000Y-98700000D01*
%TO.N,/LOMEM*%
D29*
X72075908Y-130300000D02*
X71000000Y-130300000D01*
X70480000Y-129780000D02*
X70480000Y-128975000D01*
X72410562Y-122605448D02*
X72375000Y-122641010D01*
X72375000Y-130000908D02*
X72075908Y-130300000D01*
X71000000Y-130300000D02*
X70480000Y-129780000D01*
X72375000Y-122641010D02*
X72375000Y-130000908D01*
%TO.N,/HIMEM*%
X81900000Y-127300000D02*
X83000000Y-127300000D01*
X75300000Y-120050000D02*
X76300000Y-122550000D01*
X76300000Y-122550000D02*
X76809190Y-123000000D01*
X76809190Y-123000000D02*
X77530269Y-123000000D01*
X81400000Y-126600000D02*
X81900000Y-127300000D01*
X80155994Y-124548941D02*
X81400000Y-126600000D01*
X77530269Y-123000000D02*
G75*
G02*
X80156017Y-124548928I31J-3000000D01*
G01*
%TO.N,/VFILTER*%
D28*
X95700000Y-115800000D02*
X96025000Y-115800000D01*
X93930000Y-115662500D02*
X95562500Y-115662500D01*
X95562500Y-115662500D02*
X95700000Y-115800000D01*
%TO.N,Net-(J1-Pin_1)*%
D29*
X74290000Y-128975000D02*
X74290000Y-129890000D01*
X78230000Y-128570000D02*
X79100000Y-128570000D01*
X76525000Y-130275000D02*
X78230000Y-128570000D01*
X74675000Y-130275000D02*
X76525000Y-130275000D01*
X74290000Y-129890000D02*
X74675000Y-130275000D01*
X79100000Y-128570000D02*
X78170000Y-128570000D01*
%TO.N,Net-(J1-Pin_5)*%
X75560000Y-128540000D02*
X78070000Y-126030000D01*
X78070000Y-126030000D02*
X79100000Y-126030000D01*
X75560000Y-128975000D02*
X75560000Y-128540000D01*
%TO.N,GND*%
D30*
X94200000Y-117500000D02*
X96200000Y-117500000D01*
X96200000Y-117500000D02*
X97575000Y-116125000D01*
%TD*%
%TA.AperFunction,Conductor*%
%TO.N,GND*%
G36*
X57820502Y-131673988D02*
G01*
X57873058Y-131721720D01*
X57891500Y-131787349D01*
X57891500Y-131939481D01*
X57908838Y-132026645D01*
X57924971Y-132107752D01*
X57926414Y-132115003D01*
X57935250Y-132136335D01*
X57994898Y-132280336D01*
X58094322Y-132429135D01*
X58161050Y-132495863D01*
X58220868Y-132555681D01*
X58222062Y-132556661D01*
X58224133Y-132558946D01*
X58225243Y-132560056D01*
X58225188Y-132560110D01*
X58246894Y-132584058D01*
X58307929Y-132675403D01*
X58307931Y-132675405D01*
X58729595Y-133097069D01*
X58744539Y-133124437D01*
X58761396Y-133150666D01*
X58762301Y-133156964D01*
X58763621Y-133159381D01*
X58766500Y-133186164D01*
X58766500Y-133274000D01*
X58746498Y-133342121D01*
X58692842Y-133388614D01*
X58640500Y-133400000D01*
X57608955Y-133400000D01*
X57540834Y-133379998D01*
X57494341Y-133326342D01*
X57485377Y-133298585D01*
X57485155Y-133297467D01*
X57455131Y-133224982D01*
X57437401Y-133182177D01*
X57368072Y-133078419D01*
X57367614Y-133077733D01*
X57346399Y-133009980D01*
X57346379Y-133007731D01*
X57346379Y-132954653D01*
X57346378Y-132954649D01*
X57334478Y-132894823D01*
X57311466Y-132779131D01*
X57242981Y-132613795D01*
X57143557Y-132464996D01*
X57062428Y-132383867D01*
X57028403Y-132321555D01*
X57033469Y-132250739D01*
X57071253Y-132197650D01*
X57685232Y-131690224D01*
X57750483Y-131662247D01*
X57820502Y-131673988D01*
G37*
%TD.AperFunction*%
%TA.AperFunction,Conductor*%
G36*
X71683621Y-123791002D02*
G01*
X71730114Y-123844658D01*
X71741500Y-123897000D01*
X71741500Y-124153000D01*
X71721498Y-124221121D01*
X71667842Y-124267614D01*
X71615500Y-124279000D01*
X70734000Y-124279000D01*
X70734000Y-125504991D01*
X70893399Y-125458681D01*
X71036500Y-125374052D01*
X71037771Y-125373067D01*
X71038949Y-125372604D01*
X71043321Y-125370019D01*
X71043737Y-125370723D01*
X71103855Y-125347118D01*
X71173478Y-125361016D01*
X71192229Y-125373067D01*
X71193499Y-125374052D01*
X71336598Y-125458681D01*
X71496251Y-125505065D01*
X71496249Y-125505065D01*
X71533543Y-125507999D01*
X71615499Y-125507999D01*
X71683619Y-125528000D01*
X71730113Y-125581655D01*
X71741500Y-125633999D01*
X71741500Y-127366000D01*
X71721498Y-127434121D01*
X71667842Y-127480614D01*
X71615501Y-127492000D01*
X71533544Y-127492000D01*
X71496249Y-127494934D01*
X71336599Y-127541318D01*
X71193498Y-127625948D01*
X71193496Y-127625949D01*
X71075949Y-127743496D01*
X71075943Y-127743503D01*
X71025981Y-127827986D01*
X70974088Y-127876439D01*
X70904238Y-127889144D01*
X70844313Y-127866393D01*
X70836477Y-127860798D01*
X70731394Y-127809427D01*
X70663261Y-127799500D01*
X70663260Y-127799500D01*
X70296740Y-127799500D01*
X70296738Y-127799500D01*
X70228605Y-127809427D01*
X70123517Y-127860801D01*
X70123514Y-127860803D01*
X70040803Y-127943514D01*
X70040801Y-127943517D01*
X69989427Y-128048605D01*
X69979500Y-128116738D01*
X69979500Y-128545560D01*
X69974086Y-128563997D01*
X69973743Y-128583211D01*
X69960027Y-128611878D01*
X69959498Y-128613681D01*
X69958265Y-128615562D01*
X69941265Y-128641004D01*
X69886788Y-128686532D01*
X69816344Y-128695379D01*
X69752301Y-128664738D01*
X69714989Y-128604336D01*
X69710500Y-128571002D01*
X69710500Y-128116744D01*
X69710500Y-128116740D01*
X69700573Y-128048607D01*
X69649198Y-127943517D01*
X69649196Y-127943514D01*
X69566485Y-127860803D01*
X69566482Y-127860801D01*
X69461394Y-127809427D01*
X69393261Y-127799500D01*
X69393260Y-127799500D01*
X69026740Y-127799500D01*
X69026738Y-127799500D01*
X68958605Y-127809427D01*
X68853519Y-127860800D01*
X68845683Y-127866395D01*
X68778619Y-127889697D01*
X68709603Y-127873043D01*
X68664017Y-127827986D01*
X68614051Y-127743497D01*
X68496503Y-127625949D01*
X68496501Y-127625948D01*
X68353401Y-127541318D01*
X68194000Y-127495007D01*
X68194000Y-128849000D01*
X68173998Y-128917121D01*
X68120342Y-128963614D01*
X68068000Y-128975000D01*
X67940000Y-128975000D01*
X67940000Y-129103000D01*
X67919998Y-129171121D01*
X67866342Y-129217614D01*
X67814000Y-129229000D01*
X67132001Y-129229000D01*
X67132001Y-129866456D01*
X67134934Y-129903750D01*
X67181318Y-130063400D01*
X67245463Y-130171864D01*
X67262922Y-130240680D01*
X67240405Y-130308012D01*
X67185060Y-130352481D01*
X67161592Y-130359582D01*
X67119547Y-130367945D01*
X67086992Y-130374421D01*
X67086991Y-130374421D01*
X67086988Y-130374422D01*
X66921654Y-130442907D01*
X66772861Y-130542327D01*
X66772854Y-130542332D01*
X66646316Y-130668870D01*
X66646311Y-130668877D01*
X66546889Y-130817672D01*
X66546887Y-130817676D01*
X66484908Y-130967305D01*
X66440360Y-131022586D01*
X66372996Y-131045006D01*
X66304205Y-131027447D01*
X66298498Y-131023851D01*
X66240353Y-130985000D01*
X66180336Y-130944898D01*
X66063429Y-130896473D01*
X66015003Y-130876414D01*
X66015001Y-130876413D01*
X66015000Y-130876413D01*
X65926645Y-130858838D01*
X65839481Y-130841500D01*
X65839479Y-130841500D01*
X65660521Y-130841500D01*
X65660518Y-130841500D01*
X65529771Y-130867507D01*
X65485000Y-130876413D01*
X65484999Y-130876413D01*
X65484996Y-130876414D01*
X65397857Y-130912509D01*
X65327868Y-130941500D01*
X65319662Y-130944899D01*
X65170869Y-131044319D01*
X65170862Y-131044324D01*
X65044324Y-131170862D01*
X65044319Y-131170869D01*
X64944899Y-131319662D01*
X64876414Y-131484996D01*
X64876413Y-131484999D01*
X64876413Y-131485000D01*
X64873529Y-131499500D01*
X64841500Y-131660518D01*
X64841500Y-131839481D01*
X64857843Y-131921640D01*
X64871474Y-131990172D01*
X64876414Y-132015003D01*
X64896473Y-132063429D01*
X64944898Y-132180336D01*
X65044322Y-132329135D01*
X65044324Y-132329137D01*
X65104595Y-132389408D01*
X65119539Y-132416776D01*
X65136396Y-132443005D01*
X65137301Y-132449303D01*
X65138621Y-132451720D01*
X65141500Y-132478503D01*
X65141500Y-132563868D01*
X65121498Y-132631989D01*
X65067842Y-132678482D01*
X65051562Y-132684597D01*
X64005562Y-132997039D01*
X63934566Y-132997370D01*
X63874662Y-132959266D01*
X63844868Y-132894823D01*
X63843500Y-132876310D01*
X63843500Y-131055575D01*
X63843499Y-131055571D01*
X63819155Y-130933183D01*
X63771400Y-130817893D01*
X63702071Y-130714135D01*
X63613833Y-130625897D01*
X63541421Y-130553485D01*
X63507395Y-130491173D01*
X63504516Y-130464390D01*
X63504516Y-130414506D01*
X63504515Y-130414502D01*
X63469603Y-130238984D01*
X63401118Y-130073648D01*
X63301694Y-129924849D01*
X63175151Y-129798306D01*
X63026352Y-129698882D01*
X62888799Y-129641905D01*
X62861019Y-129630398D01*
X62861017Y-129630397D01*
X62861016Y-129630397D01*
X62772661Y-129612822D01*
X62685497Y-129595484D01*
X62685495Y-129595484D01*
X62506537Y-129595484D01*
X62506534Y-129595484D01*
X62375787Y-129621491D01*
X62331016Y-129630397D01*
X62331015Y-129630397D01*
X62331012Y-129630398D01*
X62165675Y-129698884D01*
X62115150Y-129732643D01*
X62047397Y-129753857D01*
X61978930Y-129735073D01*
X61975150Y-129732644D01*
X61971601Y-129730272D01*
X61941844Y-129710390D01*
X61835885Y-129666500D01*
X61776511Y-129641906D01*
X61776509Y-129641905D01*
X61776508Y-129641905D01*
X61688153Y-129624330D01*
X61600989Y-129606992D01*
X61600987Y-129606992D01*
X61422029Y-129606992D01*
X61422026Y-129606992D01*
X61304363Y-129630397D01*
X61246508Y-129641905D01*
X61246507Y-129641905D01*
X61246504Y-129641906D01*
X61081170Y-129710391D01*
X60932377Y-129809811D01*
X60932370Y-129809816D01*
X60805832Y-129936354D01*
X60805827Y-129936361D01*
X60706407Y-130085154D01*
X60637922Y-130250488D01*
X60603008Y-130426010D01*
X60603008Y-130604973D01*
X60616115Y-130670865D01*
X60627288Y-130727038D01*
X60637922Y-130780495D01*
X60647714Y-130804135D01*
X60706406Y-130945828D01*
X60805830Y-131094627D01*
X60932373Y-131221170D01*
X61081172Y-131320594D01*
X61246508Y-131389079D01*
X61422029Y-131423992D01*
X61471912Y-131423992D01*
X61501827Y-131432775D01*
X61532295Y-131439403D01*
X61537392Y-131443218D01*
X61540033Y-131443994D01*
X61561005Y-131460894D01*
X61580593Y-131480481D01*
X61614620Y-131542793D01*
X61617500Y-131569579D01*
X61617500Y-131760726D01*
X61597498Y-131828847D01*
X61543842Y-131875340D01*
X61491500Y-131886726D01*
X61385518Y-131886726D01*
X61254771Y-131912733D01*
X61210000Y-131921639D01*
X61209999Y-131921639D01*
X61209996Y-131921640D01*
X61044662Y-131990125D01*
X60895869Y-132089545D01*
X60895862Y-132089550D01*
X60769324Y-132216088D01*
X60769319Y-132216095D01*
X60687563Y-132338453D01*
X60669898Y-132364890D01*
X60663847Y-132379499D01*
X60601414Y-132530222D01*
X60601413Y-132530225D01*
X60601413Y-132530226D01*
X60595469Y-132560110D01*
X60566500Y-132705744D01*
X60566500Y-132884707D01*
X60576057Y-132932754D01*
X60601413Y-133060226D01*
X60666690Y-133217818D01*
X60669989Y-133225781D01*
X60677578Y-133296371D01*
X60645799Y-133359858D01*
X60584741Y-133396086D01*
X60553580Y-133400000D01*
X60159500Y-133400000D01*
X60091379Y-133379998D01*
X60044886Y-133326342D01*
X60033500Y-133274000D01*
X60033500Y-132809177D01*
X60033499Y-132809173D01*
X60009155Y-132686785D01*
X59961400Y-132571495D01*
X59892071Y-132467737D01*
X59803833Y-132379499D01*
X59693796Y-132269462D01*
X59659770Y-132207150D01*
X59664835Y-132136335D01*
X59666461Y-132132201D01*
X59673587Y-132115000D01*
X59708500Y-131939479D01*
X59708500Y-131760521D01*
X59673587Y-131585000D01*
X59605102Y-131419664D01*
X59505678Y-131270865D01*
X59379135Y-131144322D01*
X59230336Y-131044898D01*
X59065000Y-130976413D01*
X58983252Y-130960152D01*
X58909174Y-130945417D01*
X58846265Y-130912509D01*
X58811133Y-130850814D01*
X58814933Y-130779919D01*
X58853487Y-130724715D01*
X62049269Y-128083543D01*
X67132000Y-128083543D01*
X67132000Y-128721000D01*
X67686000Y-128721000D01*
X67686000Y-127495007D01*
X67526598Y-127541318D01*
X67383498Y-127625948D01*
X67383496Y-127625949D01*
X67265949Y-127743496D01*
X67265948Y-127743498D01*
X67181318Y-127886598D01*
X67134934Y-128046250D01*
X67132000Y-128083543D01*
X62049269Y-128083543D01*
X65881400Y-124916456D01*
X67132001Y-124916456D01*
X67134934Y-124953750D01*
X67181318Y-125113400D01*
X67265948Y-125256501D01*
X67265949Y-125256503D01*
X67383497Y-125374051D01*
X67526600Y-125458681D01*
X67686000Y-125504991D01*
X68194000Y-125504991D01*
X68353399Y-125458681D01*
X68496500Y-125374052D01*
X68497771Y-125373067D01*
X68498949Y-125372604D01*
X68503321Y-125370019D01*
X68503737Y-125370723D01*
X68563855Y-125347118D01*
X68633478Y-125361016D01*
X68652229Y-125373067D01*
X68653499Y-125374052D01*
X68796600Y-125458681D01*
X68956000Y-125504991D01*
X69464000Y-125504991D01*
X69623399Y-125458681D01*
X69766500Y-125374052D01*
X69767771Y-125373067D01*
X69768949Y-125372604D01*
X69773321Y-125370019D01*
X69773737Y-125370723D01*
X69833855Y-125347118D01*
X69903478Y-125361016D01*
X69922229Y-125373067D01*
X69923499Y-125374052D01*
X70066600Y-125458681D01*
X70226000Y-125504991D01*
X70226000Y-124279000D01*
X69464000Y-124279000D01*
X69464000Y-125504991D01*
X68956000Y-125504991D01*
X68956000Y-124279000D01*
X68194000Y-124279000D01*
X68194000Y-125504991D01*
X67686000Y-125504991D01*
X67686000Y-124279000D01*
X67132001Y-124279000D01*
X67132001Y-124916456D01*
X65881400Y-124916456D01*
X67232448Y-123799875D01*
X67297699Y-123771898D01*
X67312716Y-123771000D01*
X71615500Y-123771000D01*
X71683621Y-123791002D01*
G37*
%TD.AperFunction*%
%TD*%
%TA.AperFunction,Conductor*%
%TO.N,GND*%
G36*
X268064552Y-93627288D02*
G01*
X268077005Y-93636000D01*
X268919241Y-93636000D01*
X268898504Y-93671918D01*
X268860000Y-93815616D01*
X268860000Y-93964384D01*
X268898504Y-94108082D01*
X268919241Y-94144000D01*
X268074441Y-94144000D01*
X268056550Y-94155678D01*
X268043590Y-94155770D01*
X268031533Y-94160526D01*
X268008763Y-94156017D01*
X267985556Y-94156182D01*
X267972961Y-94148927D01*
X267961889Y-94146735D01*
X267935419Y-94127304D01*
X267932781Y-94125784D01*
X267782532Y-93981056D01*
X267769091Y-93957500D01*
X267752530Y-93936024D01*
X267751766Y-93927137D01*
X267747347Y-93919392D01*
X267748775Y-93892310D01*
X267746454Y-93865288D01*
X267750616Y-93857399D01*
X267751086Y-93848493D01*
X267766931Y-93826479D01*
X267779586Y-93802496D01*
X267791833Y-93791883D01*
X267792562Y-93790871D01*
X267793369Y-93790552D01*
X267795878Y-93788378D01*
X267808375Y-93779299D01*
X267931426Y-93656247D01*
X267993736Y-93622224D01*
X268064552Y-93627288D01*
G37*
%TD.AperFunction*%
%TA.AperFunction,Conductor*%
G36*
X268898504Y-89528082D02*
G01*
X268972888Y-89656918D01*
X269078082Y-89762112D01*
X269206918Y-89836496D01*
X269246979Y-89847230D01*
X268653461Y-90440747D01*
X268652048Y-90445290D01*
X268645926Y-90474430D01*
X268641160Y-90480290D01*
X268639807Y-90484641D01*
X268625495Y-90499552D01*
X268615890Y-90511365D01*
X268612511Y-90514199D01*
X268541625Y-90565701D01*
X268492204Y-90615121D01*
X268487978Y-90618667D01*
X268460303Y-90630774D01*
X268433783Y-90645256D01*
X268428126Y-90644851D01*
X268422934Y-90647123D01*
X268393107Y-90642346D01*
X268362968Y-90640191D01*
X268358429Y-90636793D01*
X268352831Y-90635897D01*
X268330317Y-90615748D01*
X268306132Y-90597644D01*
X268304150Y-90592331D01*
X268299926Y-90588551D01*
X268291879Y-90559431D01*
X268281321Y-90531124D01*
X268281000Y-90522135D01*
X268281000Y-90348283D01*
X268281000Y-90348280D01*
X268256383Y-90192855D01*
X268265483Y-90122447D01*
X268291737Y-90084051D01*
X268887769Y-89488019D01*
X268898504Y-89528082D01*
G37*
%TD.AperFunction*%
%TA.AperFunction,Conductor*%
G36*
X270558262Y-90084051D02*
G01*
X270592287Y-90146364D01*
X270593616Y-90192857D01*
X270569782Y-90343346D01*
X270569000Y-90348281D01*
X270569000Y-90522135D01*
X270564174Y-90538567D01*
X270564449Y-90555694D01*
X270554379Y-90571927D01*
X270548998Y-90590256D01*
X270536054Y-90601471D01*
X270527026Y-90616027D01*
X270509778Y-90624239D01*
X270495342Y-90636749D01*
X270478388Y-90639186D01*
X270462925Y-90646550D01*
X270443976Y-90644134D01*
X270425068Y-90646853D01*
X270409018Y-90639678D01*
X270392498Y-90637572D01*
X270370079Y-90622270D01*
X270362022Y-90618668D01*
X270357801Y-90615127D01*
X270308375Y-90565701D01*
X270237473Y-90514188D01*
X270234108Y-90511365D01*
X270216772Y-90485316D01*
X270197671Y-90460545D01*
X270196926Y-90455496D01*
X270194773Y-90452260D01*
X270194568Y-90439500D01*
X270194443Y-90438652D01*
X269603021Y-89847230D01*
X269643082Y-89836496D01*
X269771918Y-89762112D01*
X269877112Y-89656918D01*
X269951496Y-89528082D01*
X269962230Y-89488019D01*
X270558262Y-90084051D01*
G37*
%TD.AperFunction*%
%TA.AperFunction,Conductor*%
G36*
X268898504Y-87238082D02*
G01*
X268972888Y-87366918D01*
X269078082Y-87472112D01*
X269206918Y-87546496D01*
X269246979Y-87557230D01*
X268662619Y-88141589D01*
X268663684Y-88155116D01*
X268663684Y-88174886D01*
X268662619Y-88188410D01*
X269246978Y-88772769D01*
X269206918Y-88783504D01*
X269078082Y-88857888D01*
X268972888Y-88963082D01*
X268898504Y-89091918D01*
X268887769Y-89131978D01*
X268291737Y-88535946D01*
X268290103Y-88532954D01*
X268287199Y-88531165D01*
X268273207Y-88502012D01*
X268257711Y-88473634D01*
X268257515Y-88469317D01*
X268256479Y-88467158D01*
X268256426Y-88445252D01*
X268255795Y-88431301D01*
X268256050Y-88429243D01*
X268281000Y-88271720D01*
X268281000Y-88058280D01*
X268256383Y-87902855D01*
X268265483Y-87832447D01*
X268291737Y-87794051D01*
X268887769Y-87198019D01*
X268898504Y-87238082D01*
G37*
%TD.AperFunction*%
%TA.AperFunction,Conductor*%
G36*
X270558262Y-87794052D02*
G01*
X270592288Y-87856364D01*
X270593616Y-87902857D01*
X270577821Y-88002584D01*
X270569000Y-88058280D01*
X270569000Y-88271720D01*
X270576517Y-88319178D01*
X270593616Y-88427140D01*
X270584516Y-88497551D01*
X270558263Y-88535945D01*
X269962230Y-89131978D01*
X269951496Y-89091918D01*
X269877112Y-88963082D01*
X269771918Y-88857888D01*
X269643082Y-88783504D01*
X269603020Y-88772769D01*
X270187377Y-88188411D01*
X270186313Y-88174886D01*
X270186313Y-88155116D01*
X270187377Y-88141586D01*
X269603021Y-87557230D01*
X269643082Y-87546496D01*
X269771918Y-87472112D01*
X269877112Y-87366918D01*
X269951496Y-87238082D01*
X269962230Y-87198020D01*
X270558262Y-87794052D01*
G37*
%TD.AperFunction*%
%TA.AperFunction,Conductor*%
G36*
X268898504Y-84948082D02*
G01*
X268972888Y-85076918D01*
X269078082Y-85182112D01*
X269206918Y-85256496D01*
X269246977Y-85267230D01*
X268662619Y-85851588D01*
X268663684Y-85865116D01*
X268663684Y-85884886D01*
X268662619Y-85898410D01*
X269246979Y-86482769D01*
X269206918Y-86493504D01*
X269078082Y-86567888D01*
X268972888Y-86673082D01*
X268898504Y-86801918D01*
X268887769Y-86841978D01*
X268317905Y-86272114D01*
X268283879Y-86209802D01*
X268281000Y-86183019D01*
X268281000Y-85566980D01*
X268301002Y-85498859D01*
X268317905Y-85477885D01*
X268887769Y-84908020D01*
X268898504Y-84948082D01*
G37*
%TD.AperFunction*%
%TA.AperFunction,Conductor*%
G36*
X274823963Y-73409587D02*
G01*
X274892008Y-73429837D01*
X274938304Y-73483662D01*
X274949500Y-73535585D01*
X274949500Y-105459712D01*
X274929498Y-105527833D01*
X274875842Y-105574326D01*
X274823050Y-105585711D01*
X269909650Y-105568180D01*
X269841601Y-105547935D01*
X269795300Y-105494114D01*
X269785447Y-105423804D01*
X269815171Y-105359329D01*
X269875033Y-105321159D01*
X269882062Y-105319340D01*
X270154508Y-105257155D01*
X270433409Y-105159563D01*
X270433429Y-105159555D01*
X270699677Y-105031336D01*
X270949883Y-104874121D01*
X271097328Y-104756537D01*
X270373161Y-104032370D01*
X270477102Y-103956853D01*
X270656853Y-103777102D01*
X270732370Y-103673161D01*
X271456537Y-104397328D01*
X271574121Y-104249883D01*
X271731336Y-103999677D01*
X271859555Y-103733429D01*
X271859563Y-103733409D01*
X271957155Y-103454508D01*
X272022913Y-103166407D01*
X272056000Y-102872754D01*
X272056000Y-102577245D01*
X272022913Y-102283592D01*
X271957155Y-101995491D01*
X271859563Y-101716590D01*
X271859555Y-101716570D01*
X271731336Y-101450322D01*
X271574121Y-101200116D01*
X271456538Y-101052671D01*
X271456536Y-101052671D01*
X270732369Y-101776837D01*
X270656853Y-101672898D01*
X270477102Y-101493147D01*
X270373160Y-101417629D01*
X271097327Y-100693462D01*
X271097327Y-100693461D01*
X270949883Y-100575878D01*
X270699677Y-100418663D01*
X270433429Y-100290444D01*
X270433409Y-100290436D01*
X270154508Y-100192844D01*
X269866407Y-100127086D01*
X269572755Y-100094000D01*
X269277245Y-100094000D01*
X268983592Y-100127086D01*
X268695491Y-100192844D01*
X268416590Y-100290436D01*
X268416570Y-100290444D01*
X268150322Y-100418663D01*
X267900125Y-100575871D01*
X267900118Y-100575877D01*
X267752671Y-100693460D01*
X267752671Y-100693462D01*
X268476838Y-101417629D01*
X268372898Y-101493147D01*
X268193147Y-101672898D01*
X268117629Y-101776838D01*
X267393462Y-101052671D01*
X267393460Y-101052671D01*
X267275877Y-101200118D01*
X267275871Y-101200125D01*
X267118663Y-101450322D01*
X266990444Y-101716570D01*
X266990436Y-101716590D01*
X266892844Y-101995491D01*
X266827086Y-102283592D01*
X266794000Y-102577245D01*
X266794000Y-102872754D01*
X266827086Y-103166407D01*
X266892844Y-103454508D01*
X266990436Y-103733409D01*
X266990444Y-103733429D01*
X267118663Y-103999677D01*
X267275878Y-104249883D01*
X267393461Y-104397327D01*
X267393462Y-104397327D01*
X268117628Y-103673160D01*
X268193147Y-103777102D01*
X268372898Y-103956853D01*
X268476837Y-104032369D01*
X267752671Y-104756536D01*
X267752671Y-104756538D01*
X267900116Y-104874121D01*
X268150322Y-105031336D01*
X268416570Y-105159555D01*
X268416590Y-105159563D01*
X268695491Y-105257155D01*
X268952530Y-105315823D01*
X269014492Y-105350482D01*
X269047879Y-105413138D01*
X269042092Y-105483899D01*
X268998968Y-105540297D01*
X268932198Y-105564428D01*
X268924042Y-105564663D01*
X194750003Y-105299999D01*
X194749998Y-105300000D01*
X171877285Y-112502470D01*
X171806301Y-112503852D01*
X171790399Y-112498352D01*
X168694265Y-111190127D01*
X168639301Y-111145189D01*
X168626897Y-111122282D01*
X168605102Y-111069664D01*
X168505678Y-110920865D01*
X168379135Y-110794322D01*
X168230336Y-110694898D01*
X168113429Y-110646473D01*
X168065003Y-110626414D01*
X168065001Y-110626413D01*
X168065000Y-110626413D01*
X167976645Y-110608838D01*
X167889481Y-110591500D01*
X167889479Y-110591500D01*
X167710521Y-110591500D01*
X167710518Y-110591500D01*
X167579771Y-110617507D01*
X167535000Y-110626413D01*
X167534999Y-110626413D01*
X167534996Y-110626414D01*
X167369662Y-110694899D01*
X167220869Y-110794319D01*
X167220862Y-110794324D01*
X167094324Y-110920862D01*
X167094319Y-110920869D01*
X166994899Y-111069662D01*
X166926414Y-111234996D01*
X166891500Y-111410518D01*
X166891500Y-111589481D01*
X166895670Y-111610445D01*
X166926413Y-111765000D01*
X166994898Y-111930336D01*
X167094322Y-112079135D01*
X167220865Y-112205678D01*
X167369664Y-112305102D01*
X167535000Y-112373587D01*
X167710521Y-112408500D01*
X167710522Y-112408500D01*
X167889478Y-112408500D01*
X167889479Y-112408500D01*
X168065000Y-112373587D01*
X168104600Y-112357183D01*
X168175186Y-112349594D01*
X168201854Y-112357526D01*
X169652294Y-112970389D01*
X169707255Y-113015324D01*
X169729198Y-113082845D01*
X169711154Y-113151510D01*
X169658850Y-113199519D01*
X169641095Y-113206632D01*
X136018476Y-123794182D01*
X135980631Y-123800000D01*
X106972759Y-123800000D01*
X106948178Y-123797579D01*
X106833935Y-123774854D01*
X106833930Y-123774854D01*
X106654972Y-123774854D01*
X106654966Y-123774854D01*
X106540724Y-123797579D01*
X106516143Y-123800000D01*
X101148094Y-123800000D01*
X101079973Y-123779998D01*
X101058999Y-123763095D01*
X96873997Y-119578093D01*
X96866811Y-119570907D01*
X96866810Y-119570905D01*
X96812418Y-119516514D01*
X96655907Y-119360002D01*
X96639955Y-119346378D01*
X96319288Y-119072502D01*
X95961162Y-118812308D01*
X95961160Y-118812306D01*
X95961152Y-118812301D01*
X95583704Y-118581001D01*
X95189272Y-118380028D01*
X95137025Y-118358386D01*
X94780293Y-118210623D01*
X94359277Y-118073825D01*
X94218372Y-118039997D01*
X93928821Y-117970482D01*
X93928815Y-117970481D01*
X93928813Y-117970480D01*
X93491600Y-117901233D01*
X93491592Y-117901232D01*
X93491590Y-117901232D01*
X93050273Y-117866500D01*
X93050271Y-117866500D01*
X91330545Y-117866500D01*
X91325097Y-117866382D01*
X91301232Y-117865348D01*
X90955931Y-117850400D01*
X90945074Y-117849458D01*
X90581385Y-117801990D01*
X90570649Y-117800114D01*
X90212402Y-117721390D01*
X90201868Y-117718592D01*
X89851783Y-117609209D01*
X89841531Y-117605512D01*
X89502207Y-117466285D01*
X89492312Y-117461716D01*
X89171215Y-117296226D01*
X89169149Y-117295136D01*
X89156078Y-117288082D01*
X89153451Y-117286622D01*
X89094649Y-117253022D01*
X89094647Y-117253021D01*
X89094645Y-117253020D01*
X89094642Y-117253019D01*
X89087620Y-117250064D01*
X89087834Y-117249553D01*
X89075051Y-117244355D01*
X89024818Y-117217246D01*
X87632341Y-116465769D01*
X83021858Y-113977633D01*
X82971409Y-113927679D01*
X82965289Y-113914968D01*
X82905102Y-113769664D01*
X82805678Y-113620865D01*
X82709257Y-113524444D01*
X92721500Y-113524444D01*
X92721500Y-114150546D01*
X92732112Y-114254427D01*
X92787885Y-114422740D01*
X92880971Y-114573654D01*
X92968222Y-114660905D01*
X93002248Y-114723217D01*
X92997183Y-114794032D01*
X92968222Y-114839095D01*
X92880971Y-114926345D01*
X92787885Y-115077260D01*
X92732113Y-115245570D01*
X92732112Y-115245577D01*
X92721500Y-115349444D01*
X92721500Y-115975546D01*
X92732112Y-116079427D01*
X92787885Y-116247740D01*
X92880971Y-116398654D01*
X93006345Y-116524028D01*
X93006347Y-116524029D01*
X93006348Y-116524030D01*
X93157260Y-116617115D01*
X93325572Y-116672887D01*
X93429453Y-116683500D01*
X94430546Y-116683499D01*
X94534428Y-116672887D01*
X94702740Y-116617115D01*
X94708173Y-116613763D01*
X94716542Y-116608602D01*
X94785021Y-116589863D01*
X94852760Y-116611121D01*
X94889931Y-116649693D01*
X94918868Y-116696606D01*
X94950970Y-116748652D01*
X94950975Y-116748658D01*
X95076341Y-116874024D01*
X95076347Y-116874029D01*
X95076348Y-116874030D01*
X95227262Y-116967115D01*
X95395574Y-117022887D01*
X95499455Y-117033500D01*
X96100544Y-117033499D01*
X96204426Y-117022887D01*
X96372738Y-116967115D01*
X96523652Y-116874030D01*
X96649030Y-116748652D01*
X96649037Y-116748639D01*
X96651478Y-116745554D01*
X96653709Y-116743973D01*
X96654220Y-116743463D01*
X96654307Y-116743550D01*
X96709416Y-116704521D01*
X96780340Y-116701324D01*
X96841734Y-116736980D01*
X96849161Y-116745551D01*
X96851369Y-116748344D01*
X96976654Y-116873629D01*
X96976660Y-116873634D01*
X97123371Y-116964126D01*
X97170849Y-117016912D01*
X97182252Y-117086987D01*
X97153960Y-117152102D01*
X97094954Y-117191585D01*
X97057224Y-117197367D01*
X96954219Y-117197367D01*
X96831835Y-117221711D01*
X96778701Y-117232280D01*
X96778700Y-117232280D01*
X96778697Y-117232281D01*
X96613363Y-117300766D01*
X96464570Y-117400186D01*
X96464563Y-117400191D01*
X96338025Y-117526729D01*
X96338020Y-117526736D01*
X96238600Y-117675529D01*
X96170115Y-117840863D01*
X96135201Y-118016385D01*
X96135201Y-118195348D01*
X96140276Y-118220862D01*
X96169874Y-118369662D01*
X96170115Y-118370870D01*
X96174053Y-118380376D01*
X96238599Y-118536203D01*
X96338023Y-118685002D01*
X96464566Y-118811545D01*
X96613365Y-118910969D01*
X96778701Y-118979454D01*
X96954222Y-119014367D01*
X96954223Y-119014367D01*
X97133179Y-119014367D01*
X97133180Y-119014367D01*
X97308701Y-118979454D01*
X97474037Y-118910969D01*
X97622836Y-118811545D01*
X97749379Y-118685002D01*
X97848803Y-118536203D01*
X97883618Y-118452152D01*
X97928165Y-118396873D01*
X97995529Y-118374452D01*
X98024608Y-118376793D01*
X98034488Y-118378758D01*
X98042627Y-118380377D01*
X98221584Y-118380377D01*
X98221585Y-118380377D01*
X98397106Y-118345464D01*
X98562442Y-118276979D01*
X98711241Y-118177555D01*
X98746514Y-118142282D01*
X98773882Y-118127337D01*
X98800111Y-118110481D01*
X98806409Y-118109575D01*
X98808826Y-118108256D01*
X98835609Y-118105377D01*
X98906216Y-118105377D01*
X98974337Y-118125379D01*
X99020830Y-118179035D01*
X99030934Y-118249309D01*
X99024767Y-118271781D01*
X99025154Y-118271899D01*
X99023357Y-118277822D01*
X98988442Y-118453351D01*
X98988442Y-118632314D01*
X98998923Y-118685004D01*
X99023002Y-118806059D01*
X99023356Y-118807836D01*
X99031008Y-118826308D01*
X99091840Y-118973169D01*
X99191264Y-119121968D01*
X99191266Y-119121970D01*
X99279482Y-119210186D01*
X99313508Y-119272498D01*
X99308443Y-119343313D01*
X99297764Y-119364180D01*
X99297815Y-119364207D01*
X99296313Y-119367016D01*
X99295158Y-119369274D01*
X99294900Y-119369659D01*
X99294899Y-119369660D01*
X99226414Y-119534996D01*
X99191500Y-119710518D01*
X99191500Y-119889481D01*
X99205630Y-119960518D01*
X99224747Y-120056626D01*
X99226414Y-120065003D01*
X99238063Y-120093125D01*
X99294898Y-120230336D01*
X99394322Y-120379135D01*
X99520865Y-120505678D01*
X99669664Y-120605102D01*
X99835000Y-120673587D01*
X100010521Y-120708500D01*
X100010522Y-120708500D01*
X100189478Y-120708500D01*
X100189479Y-120708500D01*
X100365000Y-120673587D01*
X100530336Y-120605102D01*
X100679135Y-120505678D01*
X100805678Y-120379135D01*
X100905102Y-120230336D01*
X100973587Y-120065000D01*
X100973588Y-120064994D01*
X100973589Y-120064994D01*
X100982495Y-120020216D01*
X101015401Y-119957306D01*
X101016922Y-119955757D01*
X101588765Y-119383914D01*
X108627436Y-119383914D01*
X108627436Y-119562877D01*
X108635475Y-119603289D01*
X108662349Y-119738396D01*
X108730834Y-119903732D01*
X108830258Y-120052531D01*
X108956801Y-120179074D01*
X109105600Y-120278498D01*
X109270936Y-120346983D01*
X109446457Y-120381896D01*
X109446458Y-120381896D01*
X109625414Y-120381896D01*
X109625415Y-120381896D01*
X109800936Y-120346983D01*
X109966272Y-120278498D01*
X110115071Y-120179074D01*
X110241614Y-120052531D01*
X110341038Y-119903732D01*
X110409523Y-119738396D01*
X110444436Y-119562875D01*
X110444436Y-119383917D01*
X110444436Y-119383914D01*
X110432868Y-119325760D01*
X110409523Y-119208396D01*
X110341038Y-119043060D01*
X110241614Y-118894261D01*
X110115071Y-118767718D01*
X109966272Y-118668294D01*
X109821114Y-118608167D01*
X109800939Y-118599810D01*
X109800937Y-118599809D01*
X109800936Y-118599809D01*
X109706381Y-118581001D01*
X109625417Y-118564896D01*
X109625415Y-118564896D01*
X109446457Y-118564896D01*
X109446454Y-118564896D01*
X109315707Y-118590903D01*
X109270936Y-118599809D01*
X109270935Y-118599809D01*
X109270932Y-118599810D01*
X109105598Y-118668295D01*
X108956805Y-118767715D01*
X108956798Y-118767720D01*
X108830260Y-118894258D01*
X108830255Y-118894265D01*
X108730835Y-119043058D01*
X108662350Y-119208392D01*
X108627436Y-119383914D01*
X101588765Y-119383914D01*
X102835240Y-118137440D01*
X110816500Y-118137440D01*
X110816500Y-118316403D01*
X110832006Y-118394355D01*
X110843741Y-118453354D01*
X110851414Y-118491925D01*
X110852654Y-118494918D01*
X110919898Y-118657258D01*
X111019322Y-118806057D01*
X111145865Y-118932600D01*
X111294664Y-119032024D01*
X111460000Y-119100509D01*
X111635521Y-119135422D01*
X111635522Y-119135422D01*
X111814478Y-119135422D01*
X111814479Y-119135422D01*
X111990000Y-119100509D01*
X112155336Y-119032024D01*
X112304135Y-118932600D01*
X112430678Y-118806057D01*
X112530102Y-118657258D01*
X112598587Y-118491922D01*
X112633500Y-118316401D01*
X112633500Y-118137443D01*
X112598587Y-117961922D01*
X112530102Y-117796586D01*
X112430678Y-117647787D01*
X112304135Y-117521244D01*
X112155336Y-117421820D01*
X112012042Y-117362465D01*
X111990003Y-117353336D01*
X111990001Y-117353335D01*
X111990000Y-117353335D01*
X111901645Y-117335760D01*
X111814481Y-117318422D01*
X111814479Y-117318422D01*
X111635521Y-117318422D01*
X111635518Y-117318422D01*
X111504771Y-117344429D01*
X111460000Y-117353335D01*
X111459999Y-117353335D01*
X111459996Y-117353336D01*
X111294662Y-117421821D01*
X111145869Y-117521241D01*
X111145862Y-117521246D01*
X111019324Y-117647784D01*
X111019319Y-117647791D01*
X110919899Y-117796584D01*
X110851414Y-117961918D01*
X110816500Y-118137440D01*
X102835240Y-118137440D01*
X104402276Y-116570405D01*
X104429644Y-116555460D01*
X104455873Y-116538604D01*
X104462171Y-116537698D01*
X104464588Y-116536379D01*
X104491371Y-116533500D01*
X104641660Y-116533500D01*
X104709781Y-116553502D01*
X104711643Y-116554722D01*
X104794664Y-116610195D01*
X104960000Y-116678680D01*
X105135521Y-116713593D01*
X105135522Y-116713593D01*
X105314478Y-116713593D01*
X105314479Y-116713593D01*
X105490000Y-116678680D01*
X105655336Y-116610195D01*
X105804135Y-116510771D01*
X105930678Y-116384228D01*
X106030102Y-116235429D01*
X106098587Y-116070093D01*
X106130328Y-115910518D01*
X113841500Y-115910518D01*
X113841500Y-116089481D01*
X113851763Y-116141077D01*
X113876413Y-116265000D01*
X113944898Y-116430336D01*
X114044322Y-116579135D01*
X114170865Y-116705678D01*
X114319664Y-116805102D01*
X114485000Y-116873587D01*
X114660521Y-116908500D01*
X114660522Y-116908500D01*
X114839478Y-116908500D01*
X114839479Y-116908500D01*
X115015000Y-116873587D01*
X115180336Y-116805102D01*
X115329135Y-116705678D01*
X115455678Y-116579135D01*
X115555102Y-116430336D01*
X115563311Y-116410518D01*
X117341500Y-116410518D01*
X117341500Y-116589481D01*
X117352805Y-116646313D01*
X117373163Y-116748662D01*
X117376414Y-116765003D01*
X117376910Y-116766201D01*
X117444898Y-116930336D01*
X117544322Y-117079135D01*
X117670865Y-117205678D01*
X117819664Y-117305102D01*
X117985000Y-117373587D01*
X118160521Y-117408500D01*
X118160522Y-117408500D01*
X118339478Y-117408500D01*
X118339479Y-117408500D01*
X118515000Y-117373587D01*
X118680336Y-117305102D01*
X118829135Y-117205678D01*
X118955678Y-117079135D01*
X119055102Y-116930336D01*
X119123587Y-116765000D01*
X119158500Y-116589479D01*
X119158500Y-116410521D01*
X119158499Y-116410518D01*
X124341500Y-116410518D01*
X124341500Y-116589481D01*
X124352805Y-116646313D01*
X124373163Y-116748662D01*
X124376414Y-116765003D01*
X124376910Y-116766201D01*
X124444898Y-116930336D01*
X124544322Y-117079135D01*
X124670865Y-117205678D01*
X124819664Y-117305102D01*
X124985000Y-117373587D01*
X125160521Y-117408500D01*
X125160522Y-117408500D01*
X125339478Y-117408500D01*
X125339479Y-117408500D01*
X125515000Y-117373587D01*
X125680336Y-117305102D01*
X125829135Y-117205678D01*
X125955678Y-117079135D01*
X126055102Y-116930336D01*
X126123587Y-116765000D01*
X126158500Y-116589479D01*
X126158500Y-116410521D01*
X126158499Y-116410518D01*
X128091500Y-116410518D01*
X128091500Y-116589481D01*
X128102805Y-116646313D01*
X128123163Y-116748662D01*
X128126414Y-116765003D01*
X128126910Y-116766201D01*
X128194898Y-116930336D01*
X128294322Y-117079135D01*
X128420865Y-117205678D01*
X128569664Y-117305102D01*
X128735000Y-117373587D01*
X128910521Y-117408500D01*
X128910522Y-117408500D01*
X129089478Y-117408500D01*
X129089479Y-117408500D01*
X129265000Y-117373587D01*
X129430336Y-117305102D01*
X129579135Y-117205678D01*
X129705678Y-117079135D01*
X129805102Y-116930336D01*
X129873587Y-116765000D01*
X129908500Y-116589479D01*
X129908500Y-116410521D01*
X129873587Y-116235000D01*
X129805102Y-116069664D01*
X129705678Y-115920865D01*
X129579135Y-115794322D01*
X129430336Y-115694898D01*
X129282175Y-115633527D01*
X129265003Y-115626414D01*
X129265001Y-115626413D01*
X129265000Y-115626413D01*
X129176645Y-115608838D01*
X129089481Y-115591500D01*
X129089479Y-115591500D01*
X128910521Y-115591500D01*
X128910518Y-115591500D01*
X128779771Y-115617507D01*
X128735000Y-115626413D01*
X128734999Y-115626413D01*
X128734996Y-115626414D01*
X128569662Y-115694899D01*
X128420869Y-115794319D01*
X128420862Y-115794324D01*
X128294324Y-115920862D01*
X128294319Y-115920869D01*
X128213725Y-116041488D01*
X128194898Y-116069664D01*
X128180716Y-116103902D01*
X128126414Y-116234996D01*
X128126413Y-116234999D01*
X128126413Y-116235000D01*
X128123879Y-116247740D01*
X128091500Y-116410518D01*
X126158499Y-116410518D01*
X126123587Y-116235000D01*
X126055102Y-116069664D01*
X125955678Y-115920865D01*
X125829135Y-115794322D01*
X125680336Y-115694898D01*
X125532175Y-115633527D01*
X125515003Y-115626414D01*
X125515001Y-115626413D01*
X125515000Y-115626413D01*
X125426645Y-115608838D01*
X125339481Y-115591500D01*
X125339479Y-115591500D01*
X125160521Y-115591500D01*
X125160518Y-115591500D01*
X125029771Y-115617507D01*
X124985000Y-115626413D01*
X124984999Y-115626413D01*
X124984996Y-115626414D01*
X124819662Y-115694899D01*
X124670869Y-115794319D01*
X124670862Y-115794324D01*
X124544324Y-115920862D01*
X124544319Y-115920869D01*
X124463725Y-116041488D01*
X124444898Y-116069664D01*
X124430716Y-116103902D01*
X124376414Y-116234996D01*
X124376413Y-116234999D01*
X124376413Y-116235000D01*
X124373879Y-116247740D01*
X124341500Y-116410518D01*
X119158499Y-116410518D01*
X119123587Y-116235000D01*
X119055102Y-116069664D01*
X118955678Y-115920865D01*
X118829135Y-115794322D01*
X118680336Y-115694898D01*
X118532175Y-115633527D01*
X118515003Y-115626414D01*
X118515001Y-115626413D01*
X118515000Y-115626413D01*
X118426645Y-115608838D01*
X118339481Y-115591500D01*
X118339479Y-115591500D01*
X118160521Y-115591500D01*
X118160518Y-115591500D01*
X118029771Y-115617507D01*
X117985000Y-115626413D01*
X117984999Y-115626413D01*
X117984996Y-115626414D01*
X117819662Y-115694899D01*
X117670869Y-115794319D01*
X117670862Y-115794324D01*
X117544324Y-115920862D01*
X117544319Y-115920869D01*
X117463725Y-116041488D01*
X117444898Y-116069664D01*
X117430716Y-116103902D01*
X117376414Y-116234996D01*
X117376413Y-116234999D01*
X117376413Y-116235000D01*
X117373879Y-116247740D01*
X117341500Y-116410518D01*
X115563311Y-116410518D01*
X115585559Y-116356807D01*
X115585845Y-116356117D01*
X115585847Y-116356113D01*
X115623585Y-116265005D01*
X115623585Y-116265004D01*
X115623587Y-116265000D01*
X115658500Y-116089479D01*
X115658500Y-115910521D01*
X115623587Y-115735000D01*
X115555102Y-115569664D01*
X115455678Y-115420865D01*
X115329135Y-115294322D01*
X115180336Y-115194898D01*
X115063429Y-115146473D01*
X115015003Y-115126414D01*
X115015001Y-115126413D01*
X115015000Y-115126413D01*
X114926645Y-115108838D01*
X114839481Y-115091500D01*
X114839479Y-115091500D01*
X114660521Y-115091500D01*
X114660518Y-115091500D01*
X114529771Y-115117507D01*
X114485000Y-115126413D01*
X114484999Y-115126413D01*
X114484996Y-115126414D01*
X114319662Y-115194899D01*
X114170869Y-115294319D01*
X114170862Y-115294324D01*
X114044324Y-115420862D01*
X114044319Y-115420869D01*
X113944899Y-115569662D01*
X113876414Y-115734996D01*
X113841500Y-115910518D01*
X106130328Y-115910518D01*
X106133500Y-115894572D01*
X106133500Y-115715614D01*
X106098587Y-115540093D01*
X106030102Y-115374757D01*
X105930678Y-115225958D01*
X105804135Y-115099415D01*
X105655336Y-114999991D01*
X105538429Y-114951566D01*
X105490003Y-114931507D01*
X105490001Y-114931506D01*
X105490000Y-114931506D01*
X105360138Y-114905675D01*
X105344428Y-114902550D01*
X105314981Y-114887146D01*
X105284993Y-114872870D01*
X105283697Y-114870781D01*
X105281519Y-114869642D01*
X105265080Y-114840774D01*
X105247564Y-114812541D01*
X105247603Y-114810082D01*
X105246387Y-114807947D01*
X105248165Y-114774771D01*
X105248694Y-114741553D01*
X105250055Y-114739506D01*
X105250187Y-114737052D01*
X105269617Y-114710106D01*
X105288023Y-114682445D01*
X105290812Y-114680714D01*
X105291713Y-114679466D01*
X105318493Y-114663541D01*
X105502617Y-114582972D01*
X105510488Y-114579842D01*
X105974189Y-114413370D01*
X105982287Y-114410769D01*
X106456204Y-114276096D01*
X106464444Y-114274054D01*
X106946377Y-114171803D01*
X106954770Y-114170317D01*
X107442518Y-114100954D01*
X107451003Y-114100040D01*
X107944449Y-114063725D01*
X107948675Y-114063487D01*
X107982084Y-114062164D01*
X107982090Y-114062165D01*
X107982090Y-114062164D01*
X108023431Y-114060529D01*
X108023431Y-114060528D01*
X108036823Y-114059999D01*
X108036831Y-114059997D01*
X125911766Y-113352535D01*
X125911768Y-113352536D01*
X125945647Y-113351194D01*
X126050974Y-113347026D01*
X126050977Y-113347025D01*
X127300878Y-113297555D01*
X129923792Y-113159334D01*
X132544672Y-112986788D01*
X135163069Y-112779948D01*
X135163082Y-112779946D01*
X135163092Y-112779946D01*
X135494039Y-112749438D01*
X137778534Y-112538849D01*
X140390619Y-112263533D01*
X142535513Y-112009027D01*
X142998876Y-111954046D01*
X143298650Y-111914489D01*
X145602857Y-111610441D01*
X148202118Y-111232778D01*
X149437542Y-111036729D01*
X194511730Y-103883897D01*
X194511732Y-103883898D01*
X194587577Y-103871861D01*
X194587931Y-103871807D01*
X197187771Y-103476804D01*
X197189205Y-103476596D01*
X199793609Y-103115989D01*
X199794966Y-103115811D01*
X202403890Y-102789603D01*
X202405233Y-102789444D01*
X205018354Y-102497674D01*
X205019714Y-102497532D01*
X207636267Y-102240285D01*
X207637724Y-102240151D01*
X210257506Y-102017448D01*
X210258895Y-102017339D01*
X212881346Y-101829224D01*
X212882865Y-101829125D01*
X215507457Y-101675636D01*
X215509078Y-101675552D01*
X218135524Y-101556705D01*
X218136934Y-101556650D01*
X220764689Y-101472469D01*
X220766226Y-101472429D01*
X223394906Y-101422927D01*
X223396514Y-101422908D01*
X226026002Y-101408093D01*
X226026499Y-101408092D01*
X226103208Y-101408166D01*
X226103509Y-101408092D01*
X251321089Y-101408092D01*
X251389210Y-101428094D01*
X251410184Y-101444997D01*
X251420865Y-101455678D01*
X251569664Y-101555102D01*
X251735000Y-101623587D01*
X251910521Y-101658500D01*
X251910522Y-101658500D01*
X252089478Y-101658500D01*
X252089479Y-101658500D01*
X252265000Y-101623587D01*
X252299842Y-101609155D01*
X252325781Y-101598411D01*
X252396370Y-101590821D01*
X252459858Y-101622599D01*
X252496086Y-101683657D01*
X252500000Y-101714819D01*
X252500000Y-101750000D01*
X255500000Y-101750000D01*
X255500000Y-100500000D01*
X255280102Y-100500000D01*
X255211981Y-100479998D01*
X255165488Y-100426342D01*
X255155384Y-100356068D01*
X255156523Y-100349417D01*
X255158500Y-100339479D01*
X255158500Y-100160521D01*
X255123587Y-99985000D01*
X255055102Y-99819664D01*
X254955678Y-99670865D01*
X254829135Y-99544322D01*
X254680336Y-99444898D01*
X254520203Y-99378568D01*
X254515003Y-99376414D01*
X254515001Y-99376413D01*
X254515000Y-99376413D01*
X254426645Y-99358838D01*
X254339481Y-99341500D01*
X254339479Y-99341500D01*
X254160521Y-99341500D01*
X254160518Y-99341500D01*
X253984994Y-99376414D01*
X253860895Y-99427818D01*
X253790305Y-99435407D01*
X253772604Y-99430867D01*
X253578123Y-99365627D01*
X253493120Y-99337112D01*
X253469496Y-99330601D01*
X252931160Y-99182232D01*
X252361538Y-99058321D01*
X252361528Y-99058319D01*
X251786068Y-98965770D01*
X251786048Y-98965767D01*
X251786032Y-98965765D01*
X251206307Y-98904828D01*
X250624116Y-98875698D01*
X250624115Y-98875698D01*
X250401037Y-98876742D01*
X250401038Y-98876743D01*
X250395020Y-98876771D01*
X250394965Y-98876761D01*
X250332866Y-98877063D01*
X250332755Y-98877064D01*
X250332143Y-98877067D01*
X250332129Y-98877067D01*
X250310193Y-98877171D01*
X250255739Y-98877430D01*
X250255738Y-98877430D01*
X250248622Y-98877464D01*
X250248447Y-98877475D01*
X225664481Y-98997397D01*
X225664480Y-98997396D01*
X225664480Y-98997397D01*
X225622619Y-98997601D01*
X225622618Y-98997600D01*
X225526335Y-98998071D01*
X225525596Y-98998074D01*
X225525576Y-98998075D01*
X225525472Y-98998075D01*
X225525167Y-98998077D01*
X225525165Y-98998077D01*
X224509196Y-99003033D01*
X224321789Y-99003948D01*
X221790649Y-99048236D01*
X219260263Y-99124457D01*
X216731044Y-99232598D01*
X214203389Y-99372642D01*
X211677704Y-99544566D01*
X209154374Y-99748346D01*
X206633831Y-99983945D01*
X204116453Y-100251328D01*
X201602719Y-100550445D01*
X201602711Y-100550446D01*
X201602661Y-100550452D01*
X199389886Y-100842116D01*
X199092812Y-100881273D01*
X196587347Y-101243733D01*
X195403548Y-101430267D01*
X195403541Y-101430268D01*
X148390535Y-108838273D01*
X148314924Y-108850187D01*
X148314173Y-108850303D01*
X145935442Y-109210426D01*
X145933936Y-109210645D01*
X143551321Y-109541982D01*
X143549813Y-109542182D01*
X141163534Y-109844709D01*
X141162024Y-109844892D01*
X138772094Y-110118608D01*
X138770582Y-110118772D01*
X136377538Y-110363612D01*
X136376023Y-110363757D01*
X133980354Y-110579673D01*
X133978838Y-110579801D01*
X131580580Y-110766792D01*
X131579063Y-110766901D01*
X129178802Y-110924917D01*
X129177284Y-110925008D01*
X126774776Y-111054063D01*
X126774016Y-111054101D01*
X126739371Y-111055752D01*
X126697649Y-111057741D01*
X126697647Y-111057741D01*
X126691425Y-111058038D01*
X108473753Y-111926374D01*
X108396920Y-111930036D01*
X108396919Y-111930036D01*
X108090802Y-111944624D01*
X108090784Y-111944625D01*
X108090781Y-111944626D01*
X107481203Y-112009027D01*
X107481199Y-112009027D01*
X107481186Y-112009029D01*
X106876353Y-112108430D01*
X106278211Y-112242510D01*
X106278206Y-112242511D01*
X105688815Y-112410811D01*
X105512977Y-112472176D01*
X105110064Y-112612789D01*
X105110058Y-112612791D01*
X105110045Y-112612796D01*
X104543924Y-112847760D01*
X103992235Y-113114960D01*
X103456883Y-113413475D01*
X102939598Y-113742339D01*
X102442105Y-114100457D01*
X102442098Y-114100462D01*
X101966095Y-114486611D01*
X101966068Y-114486634D01*
X101513069Y-114899583D01*
X101298853Y-115118747D01*
X101298851Y-115118751D01*
X101252610Y-115166060D01*
X101252607Y-115166061D01*
X99655103Y-116800450D01*
X99593184Y-116835184D01*
X99564997Y-116838377D01*
X98835609Y-116838377D01*
X98767488Y-116818375D01*
X98746514Y-116801472D01*
X98711243Y-116766201D01*
X98711236Y-116766195D01*
X98688092Y-116750731D01*
X98642564Y-116696254D01*
X98633717Y-116625810D01*
X98640195Y-116604771D01*
X98639349Y-116604491D01*
X98697393Y-116429321D01*
X98697394Y-116429318D01*
X98707999Y-116325516D01*
X98708000Y-116325516D01*
X98708000Y-116054000D01*
X97826000Y-116054000D01*
X97757879Y-116033998D01*
X97711386Y-115980342D01*
X97700000Y-115928000D01*
X97700000Y-115800000D01*
X97572000Y-115800000D01*
X97503879Y-115779998D01*
X97457386Y-115726342D01*
X97446000Y-115674000D01*
X97446000Y-115546000D01*
X97954000Y-115546000D01*
X98708000Y-115546000D01*
X98708000Y-115274483D01*
X98697394Y-115170681D01*
X98697393Y-115170678D01*
X98641657Y-115002474D01*
X98544782Y-114845415D01*
X98546311Y-114844471D01*
X98523251Y-114787314D01*
X98536500Y-114717565D01*
X98544824Y-114704611D01*
X98544782Y-114704585D01*
X98641657Y-114547525D01*
X98697393Y-114379321D01*
X98697394Y-114379318D01*
X98707999Y-114275516D01*
X98708000Y-114275516D01*
X98708000Y-114004000D01*
X97954000Y-114004000D01*
X97954000Y-115546000D01*
X97446000Y-115546000D01*
X97446000Y-113496000D01*
X97954000Y-113496000D01*
X98708000Y-113496000D01*
X98708000Y-113224483D01*
X98697394Y-113120681D01*
X98697393Y-113120678D01*
X98641657Y-112952474D01*
X98548634Y-112801660D01*
X98548629Y-112801654D01*
X98423345Y-112676370D01*
X98423339Y-112676365D01*
X98272525Y-112583342D01*
X98104321Y-112527606D01*
X98104318Y-112527605D01*
X98000516Y-112517000D01*
X97954000Y-112517000D01*
X97954000Y-113496000D01*
X97446000Y-113496000D01*
X97446000Y-112517000D01*
X97399483Y-112517000D01*
X97295681Y-112527605D01*
X97295678Y-112527606D01*
X97127474Y-112583342D01*
X96976660Y-112676365D01*
X96976654Y-112676370D01*
X96851370Y-112801654D01*
X96849157Y-112804454D01*
X96847149Y-112805875D01*
X96846175Y-112806850D01*
X96846008Y-112806683D01*
X96791216Y-112845482D01*
X96720291Y-112848672D01*
X96658900Y-112813011D01*
X96651483Y-112804450D01*
X96649028Y-112801345D01*
X96523658Y-112675975D01*
X96523652Y-112675970D01*
X96421231Y-112612796D01*
X96372738Y-112582885D01*
X96214153Y-112530336D01*
X96204427Y-112527113D01*
X96204420Y-112527112D01*
X96100553Y-112516500D01*
X95499455Y-112516500D01*
X95395574Y-112527112D01*
X95227261Y-112582885D01*
X95076347Y-112675970D01*
X95076341Y-112675975D01*
X94950975Y-112801341D01*
X94950968Y-112801350D01*
X94912271Y-112864087D01*
X94859485Y-112911565D01*
X94789410Y-112922967D01*
X94738884Y-112905179D01*
X94702740Y-112882885D01*
X94648766Y-112865000D01*
X94534429Y-112827113D01*
X94534422Y-112827112D01*
X94430555Y-112816500D01*
X93429453Y-112816500D01*
X93325572Y-112827112D01*
X93157259Y-112882885D01*
X93006345Y-112975971D01*
X92880971Y-113101345D01*
X92787885Y-113252260D01*
X92732113Y-113420570D01*
X92732112Y-113420577D01*
X92721500Y-113524444D01*
X82709257Y-113524444D01*
X82679135Y-113494322D01*
X82530336Y-113394898D01*
X82382947Y-113333847D01*
X82365003Y-113326414D01*
X82365001Y-113326413D01*
X82365000Y-113326413D01*
X82276645Y-113308838D01*
X82189481Y-113291500D01*
X82189479Y-113291500D01*
X82010521Y-113291500D01*
X82010518Y-113291500D01*
X81879771Y-113317507D01*
X81835000Y-113326413D01*
X81834999Y-113326413D01*
X81834996Y-113326414D01*
X81669662Y-113394899D01*
X81520869Y-113494319D01*
X81520862Y-113494324D01*
X81394324Y-113620862D01*
X81394319Y-113620869D01*
X81294899Y-113769662D01*
X81226414Y-113934996D01*
X81191500Y-114110518D01*
X81191500Y-114289481D01*
X81206820Y-114366500D01*
X81216144Y-114413376D01*
X81226414Y-114465003D01*
X81229006Y-114471261D01*
X81294898Y-114630336D01*
X81394322Y-114779135D01*
X81520865Y-114905678D01*
X81669664Y-115005102D01*
X81835000Y-115073587D01*
X82010521Y-115108500D01*
X82010522Y-115108500D01*
X82189478Y-115108500D01*
X82189479Y-115108500D01*
X82335005Y-115079553D01*
X82405718Y-115085881D01*
X82419426Y-115092249D01*
X84780596Y-116366499D01*
X88538223Y-118394373D01*
X88540783Y-118395795D01*
X88709058Y-118491925D01*
X88714297Y-118494918D01*
X88735296Y-118504932D01*
X89091581Y-118674838D01*
X89481162Y-118826308D01*
X89880895Y-118948497D01*
X89880904Y-118948499D01*
X90288568Y-119040728D01*
X90288575Y-119040729D01*
X90288583Y-119040731D01*
X90451000Y-119065000D01*
X90701976Y-119102502D01*
X90701978Y-119102502D01*
X90701984Y-119102503D01*
X90861473Y-119114353D01*
X90927924Y-119139348D01*
X90970314Y-119196301D01*
X90975183Y-119267130D01*
X90956906Y-119310002D01*
X90953616Y-119314925D01*
X90953613Y-119314930D01*
X90885128Y-119480266D01*
X90850214Y-119655788D01*
X90850214Y-119721400D01*
X90830212Y-119789521D01*
X90776556Y-119836014D01*
X90706282Y-119846118D01*
X90699633Y-119844979D01*
X90566476Y-119818492D01*
X90566471Y-119818492D01*
X90387513Y-119818492D01*
X90387510Y-119818492D01*
X90256763Y-119844499D01*
X90211992Y-119853405D01*
X90211991Y-119853405D01*
X90211988Y-119853406D01*
X90090010Y-119903932D01*
X90052545Y-119919451D01*
X90046654Y-119921891D01*
X89897861Y-120021311D01*
X89897859Y-120021312D01*
X89806290Y-120112880D01*
X89743977Y-120146905D01*
X89673161Y-120141839D01*
X89669000Y-120140202D01*
X89536023Y-120085121D01*
X89515003Y-120076414D01*
X89515001Y-120076413D01*
X89515000Y-120076413D01*
X89415523Y-120056626D01*
X89339481Y-120041500D01*
X89339479Y-120041500D01*
X89160521Y-120041500D01*
X89160518Y-120041500D01*
X89042362Y-120065003D01*
X88985000Y-120076413D01*
X88984999Y-120076413D01*
X88984996Y-120076414D01*
X88872629Y-120122959D01*
X88837235Y-120137620D01*
X88819662Y-120144899D01*
X88670869Y-120244319D01*
X88670862Y-120244324D01*
X88544324Y-120370862D01*
X88544319Y-120370869D01*
X88444899Y-120519662D01*
X88376414Y-120684996D01*
X88341500Y-120860518D01*
X88341500Y-121039481D01*
X88354915Y-121106922D01*
X88376309Y-121214479D01*
X88376414Y-121215003D01*
X88444899Y-121380339D01*
X88447897Y-121384825D01*
X88469111Y-121452578D01*
X88450327Y-121521045D01*
X88397509Y-121568487D01*
X88327426Y-121579842D01*
X88262330Y-121551506D01*
X88254036Y-121543920D01*
X88070405Y-121360289D01*
X88036379Y-121297977D01*
X88033500Y-121271194D01*
X88033500Y-120103503D01*
X88053502Y-120035382D01*
X88070405Y-120014408D01*
X88105678Y-119979135D01*
X88205102Y-119830336D01*
X88273587Y-119665000D01*
X88308500Y-119489479D01*
X88308500Y-119310521D01*
X88273587Y-119135000D01*
X88205102Y-118969664D01*
X88105678Y-118820865D01*
X87979135Y-118694322D01*
X87830336Y-118594898D01*
X87713429Y-118546473D01*
X87665003Y-118526414D01*
X87665001Y-118526413D01*
X87665000Y-118526413D01*
X87556982Y-118504927D01*
X87489481Y-118491500D01*
X87489479Y-118491500D01*
X87310521Y-118491500D01*
X87310518Y-118491500D01*
X87179771Y-118517507D01*
X87135000Y-118526413D01*
X87134999Y-118526413D01*
X87134996Y-118526414D01*
X86969662Y-118594899D01*
X86820869Y-118694319D01*
X86820862Y-118694324D01*
X86694324Y-118820862D01*
X86694316Y-118820871D01*
X86658440Y-118874564D01*
X86603963Y-118920091D01*
X86533520Y-118928938D01*
X86469476Y-118898296D01*
X86464581Y-118893656D01*
X86381916Y-118810991D01*
X86381914Y-118810989D01*
X86233115Y-118711565D01*
X86102010Y-118657259D01*
X86067782Y-118643081D01*
X86067780Y-118643080D01*
X86067779Y-118643080D01*
X85979424Y-118625505D01*
X85892260Y-118608167D01*
X85892258Y-118608167D01*
X85713300Y-118608167D01*
X85713297Y-118608167D01*
X85591914Y-118632312D01*
X85537779Y-118643080D01*
X85537778Y-118643080D01*
X85537775Y-118643081D01*
X85436583Y-118684997D01*
X85374964Y-118710521D01*
X85372441Y-118711566D01*
X85223648Y-118810986D01*
X85223641Y-118810991D01*
X85097103Y-118937529D01*
X85097098Y-118937536D01*
X84997676Y-119086331D01*
X84997674Y-119086335D01*
X84949480Y-119202685D01*
X84904932Y-119257966D01*
X84857654Y-119278045D01*
X84764002Y-119296673D01*
X84692663Y-119310864D01*
X84692661Y-119310864D01*
X84692660Y-119310865D01*
X84595805Y-119350984D01*
X84550709Y-119369664D01*
X84527325Y-119379350D01*
X84378532Y-119478770D01*
X84378525Y-119478775D01*
X84251987Y-119605313D01*
X84251982Y-119605320D01*
X84152562Y-119754113D01*
X84084077Y-119919447D01*
X84049163Y-120094969D01*
X84049163Y-120273932D01*
X84065457Y-120355846D01*
X84083162Y-120444857D01*
X84084077Y-120449454D01*
X84097722Y-120482396D01*
X84152561Y-120614787D01*
X84251985Y-120763586D01*
X84251987Y-120763588D01*
X84287258Y-120798859D01*
X84321284Y-120861171D01*
X84324163Y-120887954D01*
X84324163Y-121327166D01*
X84330752Y-121360289D01*
X84348508Y-121449555D01*
X84396263Y-121564845D01*
X84465592Y-121668603D01*
X84465594Y-121668605D01*
X92894498Y-130097509D01*
X92928524Y-130159821D01*
X92923459Y-130230636D01*
X92894498Y-130275699D01*
X92820267Y-130349929D01*
X92820262Y-130349936D01*
X92720842Y-130498729D01*
X92652357Y-130664063D01*
X92652356Y-130664066D01*
X92652356Y-130664067D01*
X92643450Y-130708838D01*
X92617443Y-130839585D01*
X92617443Y-131018548D01*
X92652357Y-131194072D01*
X92692379Y-131290692D01*
X92699968Y-131361282D01*
X92668189Y-131424769D01*
X92607131Y-131460996D01*
X92536179Y-131458462D01*
X92486875Y-131428005D01*
X92170405Y-131111535D01*
X92136379Y-131049223D01*
X92133500Y-131022440D01*
X92133500Y-130937607D01*
X92133499Y-130937603D01*
X92132403Y-130932093D01*
X92109155Y-130815215D01*
X92061400Y-130699925D01*
X91992071Y-130596167D01*
X91903833Y-130507929D01*
X83722792Y-122326888D01*
X83705764Y-122305597D01*
X83678777Y-122282873D01*
X83653833Y-122257929D01*
X83636969Y-122246661D01*
X83625819Y-122238281D01*
X83610311Y-122225222D01*
X83610309Y-122225221D01*
X83610308Y-122225220D01*
X83584122Y-122210795D01*
X83584122Y-122210794D01*
X83579389Y-122208187D01*
X83550075Y-122188600D01*
X83524906Y-122178174D01*
X83518790Y-122174805D01*
X83518776Y-122174799D01*
X81224612Y-120911066D01*
X81174596Y-120860678D01*
X81168997Y-120848920D01*
X81153440Y-120811362D01*
X81105102Y-120694664D01*
X81005678Y-120545865D01*
X80879135Y-120419322D01*
X80730336Y-120319898D01*
X80581798Y-120258371D01*
X80565003Y-120251414D01*
X80565001Y-120251413D01*
X80565000Y-120251413D01*
X80476645Y-120233838D01*
X80389481Y-120216500D01*
X80389479Y-120216500D01*
X80210521Y-120216500D01*
X80210518Y-120216500D01*
X80079771Y-120242507D01*
X80035000Y-120251413D01*
X80034999Y-120251413D01*
X80034996Y-120251414D01*
X79911149Y-120302714D01*
X79881482Y-120315003D01*
X79869662Y-120319899D01*
X79720869Y-120419319D01*
X79720862Y-120419324D01*
X79594324Y-120545862D01*
X79594319Y-120545869D01*
X79494899Y-120694662D01*
X79426414Y-120859996D01*
X79426413Y-120859999D01*
X79426413Y-120860000D01*
X79424508Y-120869576D01*
X79391500Y-121035518D01*
X79391500Y-121214481D01*
X79393864Y-121226365D01*
X79426413Y-121390000D01*
X79494898Y-121555336D01*
X79594322Y-121704135D01*
X79720865Y-121830678D01*
X79869664Y-121930102D01*
X80035000Y-121998587D01*
X80210521Y-122033500D01*
X80210522Y-122033500D01*
X80389478Y-122033500D01*
X80389479Y-122033500D01*
X80525714Y-122006401D01*
X80596426Y-122012729D01*
X80611083Y-122019613D01*
X82849954Y-123252890D01*
X82878254Y-123274158D01*
X89818023Y-130213927D01*
X89852049Y-130276239D01*
X89846984Y-130347054D01*
X89804437Y-130403890D01*
X89798930Y-130407787D01*
X89673776Y-130491412D01*
X89673769Y-130491417D01*
X89547231Y-130617955D01*
X89547226Y-130617962D01*
X89469966Y-130733591D01*
X89447805Y-130766757D01*
X89402675Y-130875711D01*
X89397794Y-130887494D01*
X89353245Y-130942774D01*
X89285882Y-130965195D01*
X89217091Y-130947637D01*
X89204163Y-130938838D01*
X88721137Y-130564199D01*
X88709271Y-130553738D01*
X87963463Y-129807930D01*
X87963459Y-129807927D01*
X87919574Y-129778603D01*
X87884812Y-129743841D01*
X87879097Y-129735288D01*
X87869461Y-129720866D01*
X87742918Y-129594323D01*
X87594119Y-129494899D01*
X87457213Y-129438190D01*
X87428786Y-129426415D01*
X87428784Y-129426414D01*
X87428783Y-129426414D01*
X87340351Y-129408824D01*
X87253264Y-129391501D01*
X87253262Y-129391501D01*
X87252305Y-129391501D01*
X87251822Y-129391359D01*
X87247106Y-129390895D01*
X87247194Y-129390000D01*
X87184184Y-129371499D01*
X87175083Y-129365064D01*
X85262532Y-127881670D01*
X85220963Y-127824115D01*
X85213754Y-127782107D01*
X85213754Y-126737410D01*
X85213754Y-126737403D01*
X85185805Y-126525105D01*
X85130384Y-126318270D01*
X85048439Y-126120439D01*
X85048435Y-126120432D01*
X85048432Y-126120426D01*
X84941376Y-125935000D01*
X84920942Y-125908370D01*
X84811020Y-125765115D01*
X84811019Y-125765114D01*
X84811010Y-125765104D01*
X84745405Y-125699499D01*
X84711379Y-125637187D01*
X84708963Y-125614712D01*
X84708680Y-125614728D01*
X84708499Y-125611350D01*
X84701990Y-125550803D01*
X84701988Y-125550795D01*
X84650889Y-125413797D01*
X84650887Y-125413792D01*
X84619259Y-125371543D01*
X84619257Y-125371541D01*
X84563261Y-125296739D01*
X84488458Y-125240742D01*
X84488455Y-125240739D01*
X84446207Y-125209112D01*
X84446202Y-125209110D01*
X84309204Y-125158011D01*
X84309196Y-125158009D01*
X84248649Y-125151500D01*
X84248638Y-125151500D01*
X82806139Y-125151500D01*
X82738018Y-125131498D01*
X82691525Y-125077842D01*
X82681421Y-125007568D01*
X82710915Y-124942988D01*
X82717044Y-124936405D01*
X82770189Y-124883260D01*
X82836707Y-124816742D01*
X82936131Y-124667943D01*
X83004616Y-124502607D01*
X83039529Y-124327086D01*
X83039529Y-124148128D01*
X83004616Y-123972607D01*
X82936131Y-123807271D01*
X82836707Y-123658472D01*
X82710164Y-123531929D01*
X82561365Y-123432505D01*
X82434381Y-123379906D01*
X82396032Y-123364021D01*
X82396030Y-123364020D01*
X82396029Y-123364020D01*
X82290258Y-123342981D01*
X82220510Y-123329107D01*
X82220508Y-123329107D01*
X82041550Y-123329107D01*
X82041547Y-123329107D01*
X81910800Y-123355114D01*
X81866029Y-123364020D01*
X81866028Y-123364020D01*
X81866025Y-123364021D01*
X81700691Y-123432506D01*
X81551898Y-123531926D01*
X81551891Y-123531931D01*
X81425353Y-123658469D01*
X81425348Y-123658476D01*
X81325928Y-123807269D01*
X81257443Y-123972603D01*
X81257442Y-123972606D01*
X81257442Y-123972607D01*
X81253123Y-123994322D01*
X81222529Y-124148125D01*
X81222529Y-124327091D01*
X81255746Y-124494081D01*
X81253356Y-124520779D01*
X81254812Y-124547546D01*
X81250242Y-124555585D01*
X81249418Y-124564795D01*
X81232973Y-124585964D01*
X81219727Y-124609267D01*
X81211537Y-124613558D01*
X81205864Y-124620862D01*
X81180583Y-124629780D01*
X81156842Y-124642222D01*
X81147631Y-124641404D01*
X81138911Y-124644481D01*
X81112825Y-124638316D01*
X81086123Y-124635948D01*
X81074258Y-124629203D01*
X81069817Y-124628154D01*
X81054945Y-124618225D01*
X80854296Y-124462600D01*
X80823786Y-124428380D01*
X80705561Y-124233457D01*
X80703063Y-124229146D01*
X80625223Y-124088331D01*
X80425746Y-123797858D01*
X80219454Y-123552276D01*
X80199107Y-123528054D01*
X80199106Y-123528053D01*
X80199101Y-123528047D01*
X79947415Y-123281430D01*
X79947412Y-123281427D01*
X79673062Y-123060331D01*
X79673057Y-123060328D01*
X79673049Y-123060321D01*
X79378578Y-122866795D01*
X79066764Y-122702668D01*
X79066763Y-122702667D01*
X79066760Y-122702666D01*
X78801585Y-122594404D01*
X78746078Y-122550137D01*
X78723315Y-122482889D01*
X78723863Y-122464944D01*
X78733000Y-122375516D01*
X78733000Y-122329000D01*
X77626000Y-122329000D01*
X77557879Y-122308998D01*
X77511386Y-122255342D01*
X77500000Y-122203000D01*
X77500000Y-122075000D01*
X77372000Y-122075000D01*
X77303879Y-122054998D01*
X77257386Y-122001342D01*
X77246000Y-121949000D01*
X77246000Y-121821000D01*
X77754000Y-121821000D01*
X78733000Y-121821000D01*
X78733000Y-121774483D01*
X78722394Y-121670681D01*
X78722393Y-121670678D01*
X78666657Y-121502474D01*
X78573634Y-121351660D01*
X78573629Y-121351654D01*
X78448345Y-121226370D01*
X78448339Y-121226365D01*
X78297525Y-121133342D01*
X78129321Y-121077606D01*
X78129318Y-121077605D01*
X78025516Y-121067000D01*
X77754000Y-121067000D01*
X77754000Y-121821000D01*
X77246000Y-121821000D01*
X77246000Y-121067000D01*
X76974483Y-121067000D01*
X76870681Y-121077605D01*
X76870678Y-121077606D01*
X76702472Y-121133343D01*
X76599899Y-121196611D01*
X76531420Y-121215348D01*
X76463681Y-121194088D01*
X76418190Y-121139581D01*
X76416779Y-121136200D01*
X76149246Y-120467368D01*
X76147103Y-120444857D01*
X76140265Y-120423303D01*
X76143441Y-120406381D01*
X76142519Y-120396694D01*
X76144599Y-120387702D01*
X76146714Y-120379872D01*
X76173587Y-120315000D01*
X76199621Y-120184113D01*
X76200731Y-120180009D01*
X76217137Y-120153223D01*
X76231695Y-120125392D01*
X76235673Y-120122959D01*
X76237813Y-120119466D01*
X76254840Y-120111239D01*
X76278030Y-120097061D01*
X76277381Y-120095494D01*
X76283099Y-120093125D01*
X76283101Y-120093125D01*
X76448437Y-120024640D01*
X76597236Y-119925216D01*
X76723779Y-119798673D01*
X76757732Y-119747857D01*
X76812208Y-119702329D01*
X76882651Y-119693480D01*
X76887023Y-119694268D01*
X76958570Y-119708500D01*
X76958571Y-119708500D01*
X77137527Y-119708500D01*
X77137528Y-119708500D01*
X77313049Y-119673587D01*
X77478385Y-119605102D01*
X77627184Y-119505678D01*
X77753727Y-119379135D01*
X77853151Y-119230336D01*
X77921636Y-119065000D01*
X77956549Y-118889479D01*
X77956549Y-118710521D01*
X77921636Y-118535000D01*
X77853151Y-118369664D01*
X77753727Y-118220865D01*
X77731282Y-118198420D01*
X77697256Y-118136108D01*
X77702321Y-118065293D01*
X77744868Y-118008457D01*
X77811388Y-117983646D01*
X77876502Y-117996515D01*
X81959925Y-120028158D01*
X81965038Y-120030702D01*
X82017118Y-120078954D01*
X82025320Y-120095292D01*
X82071611Y-120207047D01*
X82071613Y-120207051D01*
X82112277Y-120267909D01*
X82171038Y-120355851D01*
X82297581Y-120482394D01*
X82446380Y-120581818D01*
X82611716Y-120650303D01*
X82787237Y-120685216D01*
X82787238Y-120685216D01*
X82966194Y-120685216D01*
X82966195Y-120685216D01*
X83141716Y-120650303D01*
X83307052Y-120581818D01*
X83455851Y-120482394D01*
X83582394Y-120355851D01*
X83681818Y-120207052D01*
X83750303Y-120041716D01*
X83785216Y-119866195D01*
X83785216Y-119687237D01*
X83750303Y-119511716D01*
X83681818Y-119346380D01*
X83582394Y-119197581D01*
X83455851Y-119071038D01*
X83307052Y-118971614D01*
X83179184Y-118918649D01*
X83141719Y-118903130D01*
X83141717Y-118903129D01*
X83141716Y-118903129D01*
X83053361Y-118885554D01*
X82966197Y-118868216D01*
X82966195Y-118868216D01*
X82787237Y-118868216D01*
X82787234Y-118868216D01*
X82697603Y-118886045D01*
X82611716Y-118903129D01*
X82611713Y-118903130D01*
X82605646Y-118904337D01*
X82605113Y-118901658D01*
X82545895Y-118902156D01*
X82524251Y-118893775D01*
X82515620Y-118889481D01*
X78007250Y-116646413D01*
X78006825Y-116646201D01*
X77948989Y-116617113D01*
X77898582Y-116591761D01*
X77825947Y-116563377D01*
X77669969Y-116502424D01*
X77434043Y-116434737D01*
X77434044Y-116434737D01*
X77434040Y-116434736D01*
X77247687Y-116399618D01*
X77192835Y-116389281D01*
X76948465Y-116366456D01*
X76948446Y-116366455D01*
X76825731Y-116366496D01*
X76748808Y-116366496D01*
X74822847Y-116366499D01*
X74822807Y-116366501D01*
X74517573Y-116366509D01*
X73776020Y-116399618D01*
X73536613Y-116421038D01*
X73036694Y-116465769D01*
X73036687Y-116465770D01*
X72301058Y-116564829D01*
X71570546Y-116696608D01*
X70846691Y-116860828D01*
X70593285Y-116930336D01*
X70187863Y-117041541D01*
X70130829Y-117057185D01*
X69424466Y-117285267D01*
X68728976Y-117544629D01*
X68045740Y-117834757D01*
X67376116Y-118155075D01*
X66721475Y-118504927D01*
X66402524Y-118694124D01*
X66402356Y-118694223D01*
X55876367Y-124916024D01*
X55807547Y-124933468D01*
X55787673Y-124931135D01*
X55683375Y-124910389D01*
X55683368Y-124910389D01*
X55504410Y-124910389D01*
X55504407Y-124910389D01*
X55394888Y-124932174D01*
X55328889Y-124945302D01*
X55328888Y-124945302D01*
X55328885Y-124945303D01*
X55163551Y-125013788D01*
X55014758Y-125113208D01*
X55014751Y-125113213D01*
X54888213Y-125239751D01*
X54888208Y-125239758D01*
X54788788Y-125388551D01*
X54720303Y-125553885D01*
X54685389Y-125729407D01*
X54685389Y-125908370D01*
X54698510Y-125974332D01*
X54720302Y-126083889D01*
X54788787Y-126249225D01*
X54888211Y-126398024D01*
X55014754Y-126524567D01*
X55014757Y-126524569D01*
X55014762Y-126524573D01*
X55161375Y-126622536D01*
X55206903Y-126677012D01*
X55215752Y-126747455D01*
X55185111Y-126811500D01*
X55124709Y-126848811D01*
X55079033Y-126852695D01*
X55075314Y-126852329D01*
X55075308Y-126852329D01*
X54896350Y-126852329D01*
X54896347Y-126852329D01*
X54765600Y-126878336D01*
X54720829Y-126887242D01*
X54720828Y-126887242D01*
X54720825Y-126887243D01*
X54555491Y-126955728D01*
X54406698Y-127055148D01*
X54406691Y-127055153D01*
X54280153Y-127181691D01*
X54280148Y-127181698D01*
X54180728Y-127330491D01*
X54112243Y-127495825D01*
X54077329Y-127671347D01*
X54077329Y-127850310D01*
X54091383Y-127920963D01*
X54112242Y-128025829D01*
X54180727Y-128191165D01*
X54280151Y-128339964D01*
X54406694Y-128466507D01*
X54423305Y-128477606D01*
X54453250Y-128497615D01*
X54498778Y-128552092D01*
X54507626Y-128622535D01*
X54476984Y-128686579D01*
X54456199Y-128705114D01*
X53065815Y-129692417D01*
X53062362Y-129694868D01*
X53027305Y-129716382D01*
X53011607Y-129730909D01*
X53004961Y-129735629D01*
X53004959Y-129735629D01*
X52994170Y-129743292D01*
X52968820Y-129770125D01*
X52962816Y-129776068D01*
X52954275Y-129783973D01*
X52938270Y-129796546D01*
X52937594Y-129796993D01*
X52937583Y-129797002D01*
X52902592Y-129831706D01*
X52901030Y-129833254D01*
X52863293Y-129868182D01*
X52856817Y-129877104D01*
X52849562Y-129884301D01*
X52849563Y-129884301D01*
X52839460Y-129894322D01*
X52795520Y-129937902D01*
X52780466Y-129950657D01*
X52778271Y-129952238D01*
X52778266Y-129952243D01*
X52745956Y-129986923D01*
X52742498Y-129990491D01*
X52708843Y-130023871D01*
X52708835Y-130023881D01*
X52707325Y-130026122D01*
X52695049Y-130041566D01*
X52654440Y-130085156D01*
X52641887Y-130098630D01*
X52641886Y-130098630D01*
X52635133Y-130105877D01*
X52625209Y-130113643D01*
X52592666Y-130151461D01*
X52590960Y-130153293D01*
X52558662Y-130187961D01*
X52557237Y-130190266D01*
X52545579Y-130206182D01*
X52494699Y-130265311D01*
X52488238Y-130272818D01*
X52478635Y-130280964D01*
X52447644Y-130319993D01*
X52446023Y-130321878D01*
X52446013Y-130321891D01*
X52415075Y-130357846D01*
X52415062Y-130357865D01*
X52413734Y-130360216D01*
X52402716Y-130376577D01*
X52363464Y-130426013D01*
X52348062Y-130445411D01*
X52338780Y-130453936D01*
X52309334Y-130494184D01*
X52307785Y-130496136D01*
X52278303Y-130533268D01*
X52278296Y-130533278D01*
X52277062Y-130535681D01*
X52266696Y-130552466D01*
X52220642Y-130615417D01*
X52220643Y-130615418D01*
X52214794Y-130623412D01*
X52205862Y-130632291D01*
X52178020Y-130673680D01*
X52176543Y-130675700D01*
X52176540Y-130675701D01*
X52148562Y-130713949D01*
X52148557Y-130713957D01*
X52147420Y-130716403D01*
X52137721Y-130733591D01*
X52094180Y-130798320D01*
X52088654Y-130806535D01*
X52080082Y-130815757D01*
X52053910Y-130858189D01*
X52052510Y-130860271D01*
X52026053Y-130899605D01*
X52026047Y-130899617D01*
X52025007Y-130902107D01*
X52015993Y-130919668D01*
X51975045Y-130986059D01*
X51975044Y-130986058D01*
X51969842Y-130994491D01*
X51961642Y-131004043D01*
X51937169Y-131047467D01*
X51935855Y-131049599D01*
X51935844Y-131049619D01*
X51910960Y-131089968D01*
X51910016Y-131092505D01*
X51901704Y-131110402D01*
X51863415Y-131178346D01*
X51863415Y-131178347D01*
X51858554Y-131186973D01*
X51850727Y-131196852D01*
X51827965Y-131241251D01*
X51826750Y-131243408D01*
X51803475Y-131284712D01*
X51803470Y-131284723D01*
X51802629Y-131287288D01*
X51795031Y-131305496D01*
X51759454Y-131374898D01*
X51759453Y-131374900D01*
X51754931Y-131383719D01*
X51747506Y-131393892D01*
X51726523Y-131439135D01*
X51725378Y-131441370D01*
X51703758Y-131483544D01*
X51703015Y-131486155D01*
X51696143Y-131504642D01*
X51663328Y-131575404D01*
X51663328Y-131575405D01*
X51659160Y-131584390D01*
X51652141Y-131594851D01*
X51632958Y-131640892D01*
X51631902Y-131643170D01*
X51611967Y-131686156D01*
X51611962Y-131686171D01*
X51611327Y-131688792D01*
X51605188Y-131707545D01*
X51575189Y-131779549D01*
X51571379Y-131788693D01*
X51564781Y-131799418D01*
X51547446Y-131846137D01*
X51546479Y-131848460D01*
X51546470Y-131848486D01*
X51528241Y-131892242D01*
X51528239Y-131892247D01*
X51527706Y-131894901D01*
X51522312Y-131913878D01*
X51495181Y-131987004D01*
X51495181Y-131987005D01*
X51491734Y-131996292D01*
X51485562Y-132007274D01*
X51470081Y-132054650D01*
X51469205Y-132057014D01*
X51452715Y-132101462D01*
X51452710Y-132101479D01*
X51452281Y-132104157D01*
X51447642Y-132123325D01*
X51423423Y-132197452D01*
X51423422Y-132197456D01*
X51420344Y-132206873D01*
X51414610Y-132218089D01*
X51401007Y-132266049D01*
X51400232Y-132268424D01*
X51400223Y-132268457D01*
X51385503Y-132313512D01*
X51385502Y-132313516D01*
X51385181Y-132316195D01*
X51381301Y-132335539D01*
X51360019Y-132410585D01*
X51357316Y-132420114D01*
X51352030Y-132431546D01*
X51340334Y-132479994D01*
X51339647Y-132482419D01*
X51339646Y-132482427D01*
X51326711Y-132528040D01*
X51326495Y-132530744D01*
X51323381Y-132550229D01*
X51305083Y-132626036D01*
X51305082Y-132626040D01*
X51302757Y-132635668D01*
X51297925Y-132647302D01*
X51288152Y-132696166D01*
X51287573Y-132698566D01*
X51287562Y-132698618D01*
X51276435Y-132744723D01*
X51276434Y-132744725D01*
X51276325Y-132747425D01*
X51273983Y-132767013D01*
X51258688Y-132843497D01*
X51256745Y-132853209D01*
X51252375Y-132865028D01*
X51244531Y-132914285D01*
X51244044Y-132916723D01*
X51234747Y-132963215D01*
X51234744Y-132965924D01*
X51233176Y-132985596D01*
X51220912Y-133062615D01*
X51219353Y-133072399D01*
X51215453Y-133084382D01*
X51209562Y-133133888D01*
X51209172Y-133136338D01*
X51209169Y-133136364D01*
X51201713Y-133183192D01*
X51201817Y-133185893D01*
X51201027Y-133205615D01*
X51191811Y-133283060D01*
X51191812Y-133283061D01*
X51190642Y-133292897D01*
X51187218Y-133305021D01*
X51183284Y-133354741D01*
X51179221Y-133388888D01*
X51151311Y-133454167D01*
X51092539Y-133493995D01*
X51054104Y-133500000D01*
X49906777Y-133500000D01*
X49858559Y-133490409D01*
X49853839Y-133488454D01*
X49783690Y-133474500D01*
X49783688Y-133474500D01*
X48716312Y-133474500D01*
X48716306Y-133474500D01*
X48639581Y-133489762D01*
X48590419Y-133489762D01*
X48513693Y-133474500D01*
X48513688Y-133474500D01*
X47446312Y-133474500D01*
X47446306Y-133474500D01*
X47369581Y-133489762D01*
X47320419Y-133489762D01*
X47243693Y-133474500D01*
X47243688Y-133474500D01*
X46176312Y-133474500D01*
X46176306Y-133474500D01*
X46099581Y-133489762D01*
X46050419Y-133489762D01*
X45973693Y-133474500D01*
X45973688Y-133474500D01*
X44906312Y-133474500D01*
X44906306Y-133474500D01*
X44829581Y-133489762D01*
X44780419Y-133489762D01*
X44703693Y-133474500D01*
X44703688Y-133474500D01*
X43636312Y-133474500D01*
X43636309Y-133474500D01*
X43566160Y-133488454D01*
X43561441Y-133490409D01*
X43513223Y-133500000D01*
X42601651Y-133500000D01*
X42591743Y-133497090D01*
X42581498Y-133498378D01*
X42558253Y-133487257D01*
X42533530Y-133479998D01*
X42526767Y-133472193D01*
X42517454Y-133467738D01*
X42503912Y-133445817D01*
X42487037Y-133426342D01*
X42485567Y-133416121D01*
X42480141Y-133407337D01*
X42480600Y-133381575D01*
X42476933Y-133356068D01*
X42481256Y-133344784D01*
X42481407Y-133336352D01*
X42496885Y-133304000D01*
X42510876Y-133283060D01*
X42541302Y-133237523D01*
X42551314Y-133224475D01*
X42658144Y-133102657D01*
X42666267Y-133094220D01*
X52564779Y-123728977D01*
X53809959Y-123728977D01*
X53809959Y-123907940D01*
X53822822Y-123972607D01*
X53844871Y-124083456D01*
X53844873Y-124083462D01*
X53851602Y-124099706D01*
X53913357Y-124248795D01*
X54012781Y-124397594D01*
X54139324Y-124524137D01*
X54288123Y-124623561D01*
X54453459Y-124692046D01*
X54628980Y-124726959D01*
X54628981Y-124726959D01*
X54807937Y-124726959D01*
X54807938Y-124726959D01*
X54983459Y-124692046D01*
X55148795Y-124623561D01*
X55297594Y-124524137D01*
X55424137Y-124397594D01*
X55523561Y-124248795D01*
X55592046Y-124083459D01*
X55592047Y-124083450D01*
X55593843Y-124077535D01*
X55595717Y-124078103D01*
X55624405Y-124023235D01*
X55650857Y-124002313D01*
X65206817Y-118339672D01*
X65208967Y-118338428D01*
X65899395Y-117948261D01*
X65903905Y-117945834D01*
X66608609Y-117585009D01*
X66613238Y-117582758D01*
X67332216Y-117251215D01*
X67336964Y-117249145D01*
X67337185Y-117249054D01*
X68068924Y-116947481D01*
X68073689Y-116945631D01*
X68817504Y-116674310D01*
X68822362Y-116672651D01*
X69576690Y-116432165D01*
X69581596Y-116430711D01*
X70345178Y-116221460D01*
X70350173Y-116220201D01*
X71121728Y-116042537D01*
X71126713Y-116041497D01*
X71904954Y-115895718D01*
X71909990Y-115894882D01*
X72693499Y-115781253D01*
X72698614Y-115780617D01*
X73486183Y-115699310D01*
X73491270Y-115698891D01*
X74281511Y-115650051D01*
X74286637Y-115649841D01*
X75079451Y-115633527D01*
X75082043Y-115633500D01*
X75157684Y-115633500D01*
X75811636Y-115633500D01*
X75886605Y-115633500D01*
X75890476Y-115633559D01*
X76460009Y-115651066D01*
X76467728Y-115651541D01*
X77033178Y-115703819D01*
X77040802Y-115704761D01*
X77526600Y-115779998D01*
X77601990Y-115791674D01*
X77609602Y-115793094D01*
X77658940Y-115803874D01*
X78164361Y-115914306D01*
X78171830Y-115916180D01*
X78718128Y-116071246D01*
X78725506Y-116073588D01*
X78770716Y-116089481D01*
X79261199Y-116261900D01*
X79268421Y-116264691D01*
X79791534Y-116485549D01*
X79798572Y-116488778D01*
X80307149Y-116741360D01*
X80313974Y-116745015D01*
X80806077Y-117028356D01*
X80812665Y-117032424D01*
X80895245Y-117086987D01*
X81288071Y-117346538D01*
X81291209Y-117348682D01*
X81310738Y-117362466D01*
X81354857Y-117418088D01*
X81361658Y-117440822D01*
X81376414Y-117515003D01*
X81381274Y-117526736D01*
X81444898Y-117680336D01*
X81544322Y-117829135D01*
X81670865Y-117955678D01*
X81819664Y-118055102D01*
X81985000Y-118123587D01*
X82160521Y-118158500D01*
X82160522Y-118158500D01*
X82339478Y-118158500D01*
X82339479Y-118158500D01*
X82515000Y-118123587D01*
X82680336Y-118055102D01*
X82829135Y-117955678D01*
X82955678Y-117829135D01*
X83055102Y-117680336D01*
X83123587Y-117515000D01*
X83158500Y-117339479D01*
X83158500Y-117160521D01*
X83123587Y-116985000D01*
X83055102Y-116819664D01*
X82955678Y-116670865D01*
X82829135Y-116544322D01*
X82680336Y-116444898D01*
X82533855Y-116384223D01*
X82515003Y-116376414D01*
X82515001Y-116376413D01*
X82515000Y-116376413D01*
X82416428Y-116356806D01*
X82339481Y-116341500D01*
X82339479Y-116341500D01*
X82160521Y-116341500D01*
X82160513Y-116341500D01*
X82136254Y-116346326D01*
X82103670Y-116343409D01*
X82070963Y-116341989D01*
X82067382Y-116340161D01*
X82065540Y-116339997D01*
X82039018Y-116325689D01*
X82020262Y-116312451D01*
X82020249Y-116312442D01*
X81777527Y-116141085D01*
X81777521Y-116141081D01*
X81777515Y-116141077D01*
X81273602Y-115826035D01*
X81273601Y-115826034D01*
X81273594Y-115826030D01*
X80752886Y-115539628D01*
X80752884Y-115539627D01*
X80752882Y-115539626D01*
X80356150Y-115349453D01*
X80216985Y-115282744D01*
X79667575Y-115056189D01*
X79667564Y-115056185D01*
X79186112Y-114888451D01*
X79106363Y-114860667D01*
X79106361Y-114860666D01*
X79106357Y-114860665D01*
X79106354Y-114860664D01*
X78535108Y-114696791D01*
X77955608Y-114565075D01*
X77369645Y-114465925D01*
X76779068Y-114399654D01*
X76779036Y-114399652D01*
X76185714Y-114366466D01*
X76185702Y-114366466D01*
X75888557Y-114366500D01*
X75013934Y-114366500D01*
X75013872Y-114366502D01*
X74656164Y-114366517D01*
X73807735Y-114401449D01*
X73501357Y-114426721D01*
X72961413Y-114471259D01*
X72837500Y-114486634D01*
X72118701Y-114575821D01*
X71280986Y-114714966D01*
X70449737Y-114888448D01*
X69691508Y-115079553D01*
X69626304Y-115095987D01*
X69432478Y-115153414D01*
X68812110Y-115337221D01*
X68008543Y-115611741D01*
X67216914Y-115919099D01*
X66438645Y-116258743D01*
X65797791Y-116570405D01*
X65701746Y-116617114D01*
X65674967Y-116630137D01*
X64927240Y-117032616D01*
X64620706Y-117214244D01*
X64620707Y-117214245D01*
X64615649Y-117217242D01*
X64615638Y-117217246D01*
X64568059Y-117245439D01*
X64561960Y-117249054D01*
X64494347Y-117289119D01*
X64494327Y-117289131D01*
X54999920Y-122915297D01*
X54931119Y-122932817D01*
X54911105Y-122930479D01*
X54807943Y-122909959D01*
X54807938Y-122909959D01*
X54628980Y-122909959D01*
X54628977Y-122909959D01*
X54514064Y-122932817D01*
X54453459Y-122944872D01*
X54453458Y-122944872D01*
X54453455Y-122944873D01*
X54322361Y-122999175D01*
X54294082Y-123010889D01*
X54288121Y-123013358D01*
X54139328Y-123112778D01*
X54139321Y-123112783D01*
X54012783Y-123239321D01*
X54012778Y-123239328D01*
X53934846Y-123355963D01*
X53913357Y-123388123D01*
X53912908Y-123389208D01*
X53844873Y-123553455D01*
X53844872Y-123553458D01*
X53844872Y-123553459D01*
X53842430Y-123565735D01*
X53809959Y-123728977D01*
X52564779Y-123728977D01*
X55059373Y-121368776D01*
X55060845Y-121367407D01*
X55805079Y-120687172D01*
X55808293Y-120684336D01*
X55812984Y-120680336D01*
X56574605Y-120030901D01*
X56577884Y-120028201D01*
X57366297Y-119401498D01*
X57369687Y-119398898D01*
X58179202Y-118799725D01*
X58182646Y-118797266D01*
X59012309Y-118226327D01*
X59015843Y-118223984D01*
X59864690Y-117681943D01*
X59868332Y-117679704D01*
X60735327Y-117167223D01*
X60739025Y-117165123D01*
X61623153Y-116682800D01*
X61626926Y-116680825D01*
X62527109Y-116229250D01*
X62530953Y-116227403D01*
X63446174Y-115807082D01*
X63450101Y-115805360D01*
X64379232Y-115416813D01*
X64383228Y-115415222D01*
X65325188Y-115058901D01*
X65329222Y-115057455D01*
X66282894Y-114733781D01*
X66286934Y-114732486D01*
X67251241Y-114441826D01*
X67255304Y-114440677D01*
X68229040Y-114183400D01*
X68233196Y-114182379D01*
X69215178Y-113958792D01*
X69219368Y-113957913D01*
X70208430Y-113768281D01*
X70212673Y-113767542D01*
X71207697Y-113612078D01*
X71211944Y-113611489D01*
X72211736Y-113490380D01*
X72216041Y-113489934D01*
X73219367Y-113403329D01*
X73223641Y-113403033D01*
X74229420Y-113351026D01*
X74233708Y-113350878D01*
X75222606Y-113333847D01*
X75291059Y-113352673D01*
X75294757Y-113355051D01*
X75369664Y-113405102D01*
X75535000Y-113473587D01*
X75710521Y-113508500D01*
X75710522Y-113508500D01*
X75889478Y-113508500D01*
X75889479Y-113508500D01*
X76065000Y-113473587D01*
X76230336Y-113405102D01*
X76379135Y-113305678D01*
X76505678Y-113179135D01*
X76605102Y-113030336D01*
X76673587Y-112865000D01*
X76708500Y-112689479D01*
X76708500Y-112510521D01*
X76673587Y-112335000D01*
X76605102Y-112169664D01*
X76536163Y-112066489D01*
X76505684Y-112020873D01*
X76505680Y-112020868D01*
X76505678Y-112020865D01*
X76495331Y-112010518D01*
X100691500Y-112010518D01*
X100691500Y-112189481D01*
X100706230Y-112263533D01*
X100726413Y-112365000D01*
X100794898Y-112530336D01*
X100894322Y-112679135D01*
X101020865Y-112805678D01*
X101169664Y-112905102D01*
X101335000Y-112973587D01*
X101510521Y-113008500D01*
X101510522Y-113008500D01*
X101689478Y-113008500D01*
X101689479Y-113008500D01*
X101865000Y-112973587D01*
X102030336Y-112905102D01*
X102179135Y-112805678D01*
X102305678Y-112679135D01*
X102405102Y-112530336D01*
X102473587Y-112365000D01*
X102508500Y-112189479D01*
X102508500Y-112010521D01*
X102473587Y-111835000D01*
X102405102Y-111669664D01*
X102305678Y-111520865D01*
X102179135Y-111394322D01*
X102030336Y-111294898D01*
X101885721Y-111234996D01*
X101865003Y-111226414D01*
X101865001Y-111226413D01*
X101865000Y-111226413D01*
X101776645Y-111208838D01*
X101689481Y-111191500D01*
X101689479Y-111191500D01*
X101510521Y-111191500D01*
X101510518Y-111191500D01*
X101379771Y-111217507D01*
X101335000Y-111226413D01*
X101334999Y-111226413D01*
X101334996Y-111226414D01*
X101169662Y-111294899D01*
X101020869Y-111394319D01*
X101020862Y-111394324D01*
X100894324Y-111520862D01*
X100894319Y-111520869D01*
X100794899Y-111669662D01*
X100726414Y-111834996D01*
X100691500Y-112010518D01*
X76495331Y-112010518D01*
X76379135Y-111894322D01*
X76230336Y-111794898D01*
X76075946Y-111730947D01*
X76065003Y-111726414D01*
X76065001Y-111726413D01*
X76065000Y-111726413D01*
X75976645Y-111708838D01*
X75889481Y-111691500D01*
X75889479Y-111691500D01*
X75710521Y-111691500D01*
X75710518Y-111691500D01*
X75579771Y-111717507D01*
X75535000Y-111726413D01*
X75534999Y-111726413D01*
X75534996Y-111726414D01*
X75403902Y-111780716D01*
X75374959Y-111792705D01*
X75369662Y-111794899D01*
X75220869Y-111894319D01*
X75220867Y-111894320D01*
X75089945Y-112025242D01*
X75089000Y-112024297D01*
X75035994Y-112060396D01*
X74997281Y-112066489D01*
X74715353Y-112066479D01*
X74715199Y-112066479D01*
X74715198Y-112066479D01*
X74715191Y-112066479D01*
X73660645Y-112102813D01*
X72607968Y-112175441D01*
X71558404Y-112284276D01*
X70513218Y-112429187D01*
X69473653Y-112610001D01*
X68440927Y-112826506D01*
X67416244Y-113078451D01*
X66400884Y-113365521D01*
X65395970Y-113687397D01*
X64402778Y-114043673D01*
X63422411Y-114433950D01*
X62456083Y-114857746D01*
X61504894Y-115314581D01*
X60570046Y-115803874D01*
X59652552Y-116325097D01*
X58871526Y-116805102D01*
X58753589Y-116877584D01*
X58674031Y-116930337D01*
X57874171Y-117460703D01*
X57015346Y-118073769D01*
X56178158Y-118716030D01*
X55363580Y-119386743D01*
X55081867Y-119635464D01*
X54584693Y-120074413D01*
X54572554Y-120085130D01*
X54198842Y-120438738D01*
X54198838Y-120438742D01*
X46323456Y-127889847D01*
X46312906Y-127895233D01*
X46305165Y-127904200D01*
X46281864Y-127911085D01*
X46260226Y-127922135D01*
X46248438Y-127920963D01*
X46237079Y-127924320D01*
X46213754Y-127917515D01*
X46189578Y-127915112D01*
X46178557Y-127907246D01*
X46168923Y-127904436D01*
X46153691Y-127889500D01*
X46141779Y-127880998D01*
X46136534Y-127874967D01*
X46089727Y-127804914D01*
X45981589Y-127696776D01*
X45978710Y-127693465D01*
X45965666Y-127665033D01*
X45950670Y-127637570D01*
X45950993Y-127633050D01*
X45949105Y-127628935D01*
X45953503Y-127597962D01*
X45955736Y-127566754D01*
X45958450Y-127563128D01*
X45959087Y-127558644D01*
X45979531Y-127534965D01*
X45998282Y-127509918D01*
X46003770Y-127506034D01*
X46079135Y-127455678D01*
X46205678Y-127329135D01*
X46305102Y-127180336D01*
X46373587Y-127015000D01*
X46408500Y-126839479D01*
X46408500Y-126660521D01*
X46373587Y-126485000D01*
X46305102Y-126319664D01*
X46205678Y-126170865D01*
X46079135Y-126044322D01*
X45974384Y-125974330D01*
X45928858Y-125919855D01*
X45920009Y-125849412D01*
X45950063Y-125786026D01*
X52447749Y-118449929D01*
X52457007Y-118440521D01*
X60045618Y-111500000D01*
X60999829Y-111500000D01*
X61069589Y-111604402D01*
X61196132Y-111730945D01*
X61344931Y-111830369D01*
X61510267Y-111898854D01*
X61685788Y-111933767D01*
X61685789Y-111933767D01*
X61864745Y-111933767D01*
X61864746Y-111933767D01*
X62040267Y-111898854D01*
X62040272Y-111898852D01*
X62150189Y-111853323D01*
X62198407Y-111843732D01*
X64846991Y-111843732D01*
X64856247Y-111845292D01*
X64909311Y-111843732D01*
X64962394Y-111843732D01*
X64962398Y-111843732D01*
X64968561Y-111843125D01*
X64968561Y-111843131D01*
X64974843Y-111842419D01*
X64974843Y-111842412D01*
X64980974Y-111841625D01*
X64980982Y-111841625D01*
X65032717Y-111829743D01*
X65084785Y-111819387D01*
X65093457Y-111815794D01*
X65102605Y-111813694D01*
X65151033Y-111791945D01*
X65200075Y-111771632D01*
X65207878Y-111766418D01*
X70312048Y-109474243D01*
X76341500Y-109474243D01*
X76341500Y-109653206D01*
X76376414Y-109828728D01*
X76387751Y-109856097D01*
X76444898Y-109994061D01*
X76544322Y-110142860D01*
X76670865Y-110269403D01*
X76819664Y-110368827D01*
X76985000Y-110437312D01*
X77160521Y-110472225D01*
X77160522Y-110472225D01*
X77339478Y-110472225D01*
X77339479Y-110472225D01*
X77515000Y-110437312D01*
X77680336Y-110368827D01*
X77829135Y-110269403D01*
X77955678Y-110142860D01*
X78055102Y-109994061D01*
X78067029Y-109965265D01*
X78087310Y-109940097D01*
X78106248Y-109913895D01*
X78110262Y-109911614D01*
X78111576Y-109909985D01*
X78137426Y-109896185D01*
X78146140Y-109892767D01*
X78192637Y-109884071D01*
X108189880Y-110003297D01*
X108193066Y-110003352D01*
X108674481Y-110017774D01*
X108680975Y-110018136D01*
X109159401Y-110057405D01*
X109165851Y-110058103D01*
X109615201Y-110118608D01*
X109641536Y-110122154D01*
X109647998Y-110123195D01*
X110119725Y-110211860D01*
X110126103Y-110213231D01*
X110594198Y-110326661D01*
X110597288Y-110327452D01*
X110670016Y-110347089D01*
X111156153Y-110478345D01*
X111216705Y-110515412D01*
X111228073Y-110529986D01*
X111294322Y-110629135D01*
X111420865Y-110755678D01*
X111569664Y-110855102D01*
X111735000Y-110923587D01*
X111910521Y-110958500D01*
X111910522Y-110958500D01*
X112089478Y-110958500D01*
X112089479Y-110958500D01*
X112265000Y-110923587D01*
X112430336Y-110855102D01*
X112555000Y-110771804D01*
X112622751Y-110750590D01*
X112691218Y-110769373D01*
X112694971Y-110771785D01*
X112819664Y-110855102D01*
X112985000Y-110923587D01*
X113160521Y-110958500D01*
X113160522Y-110958500D01*
X113339478Y-110958500D01*
X113339479Y-110958500D01*
X113515000Y-110923587D01*
X113680336Y-110855102D01*
X113829135Y-110755678D01*
X113955678Y-110629135D01*
X114055102Y-110480336D01*
X114123587Y-110315000D01*
X114158500Y-110139479D01*
X114158500Y-109960521D01*
X114123587Y-109785000D01*
X114055102Y-109619664D01*
X113955678Y-109470865D01*
X113829135Y-109344322D01*
X113680336Y-109244898D01*
X113674795Y-109242603D01*
X113515003Y-109176414D01*
X113515001Y-109176413D01*
X113515000Y-109176413D01*
X113435091Y-109160518D01*
X129591500Y-109160518D01*
X129591500Y-109339481D01*
X129593475Y-109349409D01*
X129617633Y-109470862D01*
X129626414Y-109515003D01*
X129635033Y-109535810D01*
X129694898Y-109680336D01*
X129794322Y-109829135D01*
X129920865Y-109955678D01*
X130069664Y-110055102D01*
X130235000Y-110123587D01*
X130410521Y-110158500D01*
X130410522Y-110158500D01*
X130589478Y-110158500D01*
X130589479Y-110158500D01*
X130765000Y-110123587D01*
X130930336Y-110055102D01*
X131079135Y-109955678D01*
X131205678Y-109829135D01*
X131234593Y-109785859D01*
X131289069Y-109740331D01*
X131314505Y-109732336D01*
X153978298Y-105173018D01*
X160054000Y-105173018D01*
X160054000Y-105173021D01*
X160054000Y-105351979D01*
X160080240Y-105483899D01*
X160088914Y-105527503D01*
X160105763Y-105568180D01*
X160157398Y-105692836D01*
X160256822Y-105841635D01*
X160383365Y-105968178D01*
X160532164Y-106067602D01*
X160697500Y-106136087D01*
X160873021Y-106171000D01*
X160873022Y-106171000D01*
X161051978Y-106171000D01*
X161051979Y-106171000D01*
X161227500Y-106136087D01*
X161392836Y-106067602D01*
X161541635Y-105968178D01*
X161668178Y-105841635D01*
X161767602Y-105692836D01*
X161836087Y-105527500D01*
X161871000Y-105351979D01*
X161871000Y-105173021D01*
X161836087Y-104997500D01*
X161767602Y-104832164D01*
X161668178Y-104683365D01*
X161541635Y-104556822D01*
X161392836Y-104457398D01*
X161275929Y-104408973D01*
X161227503Y-104388914D01*
X161227501Y-104388913D01*
X161227500Y-104388913D01*
X161139145Y-104371338D01*
X161051981Y-104354000D01*
X161051979Y-104354000D01*
X160873021Y-104354000D01*
X160873018Y-104354000D01*
X160742271Y-104380007D01*
X160697500Y-104388913D01*
X160697499Y-104388913D01*
X160697496Y-104388914D01*
X160566402Y-104443216D01*
X160552620Y-104448925D01*
X160532162Y-104457399D01*
X160383369Y-104556819D01*
X160383362Y-104556824D01*
X160256824Y-104683362D01*
X160256819Y-104683369D01*
X160157399Y-104832162D01*
X160088914Y-104997496D01*
X160088913Y-104997499D01*
X160088913Y-104997500D01*
X160082183Y-105031336D01*
X160054000Y-105173018D01*
X153978298Y-105173018D01*
X258554107Y-84135305D01*
X258577841Y-84132836D01*
X268046408Y-84049220D01*
X268114701Y-84068620D01*
X268161666Y-84121863D01*
X268172390Y-84192045D01*
X268167352Y-84214151D01*
X268102876Y-84412585D01*
X268097756Y-84444913D01*
X268067343Y-84509066D01*
X268007074Y-84546591D01*
X267936085Y-84545576D01*
X267929275Y-84543255D01*
X267881704Y-84525511D01*
X267881696Y-84525509D01*
X267821149Y-84519000D01*
X267821138Y-84519000D01*
X266028862Y-84519000D01*
X266028850Y-84519000D01*
X265968303Y-84525509D01*
X265968295Y-84525511D01*
X265831297Y-84576610D01*
X265831292Y-84576612D01*
X265714238Y-84664238D01*
X265626612Y-84781292D01*
X265626610Y-84781297D01*
X265575511Y-84918295D01*
X265575509Y-84918303D01*
X265569000Y-84978850D01*
X265569000Y-86771149D01*
X265575509Y-86831696D01*
X265575511Y-86831704D01*
X265626610Y-86968702D01*
X265626612Y-86968707D01*
X265714238Y-87085761D01*
X265821270Y-87165884D01*
X265863817Y-87222720D01*
X265868881Y-87293535D01*
X265847698Y-87340812D01*
X265765246Y-87454298D01*
X265668345Y-87644478D01*
X265619745Y-87794052D01*
X265602389Y-87847469D01*
X265569000Y-88058280D01*
X265569000Y-88271720D01*
X265602389Y-88482531D01*
X265668346Y-88685523D01*
X265765245Y-88875699D01*
X265890701Y-89048375D01*
X265890703Y-89048377D01*
X265890705Y-89048380D01*
X266041618Y-89199293D01*
X266041621Y-89199295D01*
X266041625Y-89199299D01*
X266053691Y-89208065D01*
X266097043Y-89264287D01*
X266103118Y-89335023D01*
X266069986Y-89397815D01*
X266053695Y-89411931D01*
X266042891Y-89419780D01*
X266041618Y-89420706D01*
X265890705Y-89571619D01*
X265890703Y-89571622D01*
X265765247Y-89744297D01*
X265668345Y-89934478D01*
X265607270Y-90122447D01*
X265602389Y-90137469D01*
X265569000Y-90348280D01*
X265569000Y-90561720D01*
X265602389Y-90772531D01*
X265668346Y-90975523D01*
X265765245Y-91165699D01*
X265890701Y-91338375D01*
X265890703Y-91338377D01*
X265890705Y-91338380D01*
X266041618Y-91489293D01*
X266041621Y-91489295D01*
X266041625Y-91489299D01*
X266053691Y-91498065D01*
X266097043Y-91554287D01*
X266103118Y-91625023D01*
X266069986Y-91687815D01*
X266053695Y-91701931D01*
X266042891Y-91709780D01*
X266041618Y-91710706D01*
X265890705Y-91861619D01*
X265890703Y-91861622D01*
X265765247Y-92034297D01*
X265668345Y-92224478D01*
X265608552Y-92408500D01*
X265602389Y-92427469D01*
X265569000Y-92638280D01*
X265569000Y-92851720D01*
X265602389Y-93062531D01*
X265602390Y-93062534D01*
X265644910Y-93193397D01*
X265668346Y-93265523D01*
X265765245Y-93455699D01*
X265890701Y-93628375D01*
X265890703Y-93628377D01*
X265890705Y-93628380D01*
X266041619Y-93779294D01*
X266041622Y-93779296D01*
X266041625Y-93779299D01*
X266054115Y-93788373D01*
X266097468Y-93844594D01*
X266103545Y-93915330D01*
X266070414Y-93978122D01*
X266054117Y-93992244D01*
X266041945Y-94001087D01*
X265891087Y-94151945D01*
X265891085Y-94151948D01*
X265765675Y-94324559D01*
X265668807Y-94514672D01*
X265602878Y-94717580D01*
X265592833Y-94781000D01*
X266419241Y-94781000D01*
X266398504Y-94816918D01*
X266360000Y-94960616D01*
X266360000Y-95109384D01*
X266398504Y-95253082D01*
X266419241Y-95289000D01*
X265592833Y-95289000D01*
X265602878Y-95352419D01*
X265668807Y-95555327D01*
X265765675Y-95745440D01*
X265891085Y-95918051D01*
X265891087Y-95918054D01*
X266041945Y-96068912D01*
X266041948Y-96068914D01*
X266214559Y-96194324D01*
X266404672Y-96291192D01*
X266607581Y-96357121D01*
X266607592Y-96357124D01*
X266671000Y-96367166D01*
X266671000Y-95540758D01*
X266706918Y-95561496D01*
X266850616Y-95600000D01*
X266999384Y-95600000D01*
X267143082Y-95561496D01*
X267179000Y-95540758D01*
X267179000Y-96367165D01*
X267242407Y-96357124D01*
X267242418Y-96357121D01*
X267445327Y-96291192D01*
X267635440Y-96194324D01*
X267808051Y-96068914D01*
X267808054Y-96068912D01*
X267958912Y-95918054D01*
X267958914Y-95918051D01*
X268084324Y-95745440D01*
X268181192Y-95555327D01*
X268247121Y-95352419D01*
X268257167Y-95289000D01*
X267430759Y-95289000D01*
X267451496Y-95253082D01*
X267490000Y-95109384D01*
X267490000Y-94960616D01*
X267451496Y-94816918D01*
X267430759Y-94781000D01*
X268275555Y-94781000D01*
X268293441Y-94769323D01*
X268364436Y-94768815D01*
X268418900Y-94800867D01*
X268541945Y-94923912D01*
X268541948Y-94923914D01*
X268714559Y-95049324D01*
X268904672Y-95146192D01*
X269107581Y-95212121D01*
X269107592Y-95212124D01*
X269171000Y-95222166D01*
X269171000Y-94395758D01*
X269206918Y-94416496D01*
X269350616Y-94455000D01*
X269499384Y-94455000D01*
X269643082Y-94416496D01*
X269679000Y-94395758D01*
X269679000Y-95138756D01*
X269658998Y-95206877D01*
X269642095Y-95227851D01*
X267740352Y-97129595D01*
X267678040Y-97163620D01*
X267651257Y-97166500D01*
X260703503Y-97166500D01*
X260635382Y-97146498D01*
X260614408Y-97129595D01*
X260579137Y-97094324D01*
X260579135Y-97094322D01*
X260430336Y-96994898D01*
X260269097Y-96928110D01*
X260265003Y-96926414D01*
X260265001Y-96926413D01*
X260265000Y-96926413D01*
X260176645Y-96908838D01*
X260089481Y-96891500D01*
X260089479Y-96891500D01*
X259910521Y-96891500D01*
X259910518Y-96891500D01*
X259779771Y-96917507D01*
X259735000Y-96926413D01*
X259734999Y-96926413D01*
X259734996Y-96926414D01*
X259569662Y-96994899D01*
X259420869Y-97094319D01*
X259420862Y-97094324D01*
X259294324Y-97220862D01*
X259294319Y-97220869D01*
X259194899Y-97369662D01*
X259126414Y-97534996D01*
X259091500Y-97710518D01*
X259091500Y-97710521D01*
X259091500Y-97889479D01*
X259126413Y-98065000D01*
X259194898Y-98230336D01*
X259294322Y-98379135D01*
X259420865Y-98505678D01*
X259450142Y-98525240D01*
X259495669Y-98579716D01*
X259504518Y-98650159D01*
X259473877Y-98714203D01*
X259450143Y-98734770D01*
X259390867Y-98774377D01*
X259390864Y-98774379D01*
X259264326Y-98900917D01*
X259264321Y-98900924D01*
X259168505Y-99044324D01*
X259164900Y-99049719D01*
X259164784Y-99050000D01*
X259096416Y-99215051D01*
X259061502Y-99390573D01*
X259061502Y-99390576D01*
X259061502Y-99569534D01*
X259079600Y-99660522D01*
X259096416Y-99745058D01*
X259116475Y-99793484D01*
X259164900Y-99910391D01*
X259264324Y-100059190D01*
X259390867Y-100185733D01*
X259539666Y-100285157D01*
X259705002Y-100353642D01*
X259880523Y-100388555D01*
X259880524Y-100388555D01*
X260059476Y-100388555D01*
X260059481Y-100388555D01*
X260106645Y-100379173D01*
X260155801Y-100379173D01*
X260177553Y-100383500D01*
X266046497Y-100383500D01*
X266114618Y-100403502D01*
X266135592Y-100420405D01*
X266170865Y-100455678D01*
X266319664Y-100555102D01*
X266485000Y-100623587D01*
X266660521Y-100658500D01*
X266660522Y-100658500D01*
X266839478Y-100658500D01*
X266839479Y-100658500D01*
X267015000Y-100623587D01*
X267180336Y-100555102D01*
X267329135Y-100455678D01*
X267455678Y-100329135D01*
X267555102Y-100180336D01*
X267623587Y-100015000D01*
X267658500Y-99839479D01*
X267658500Y-99660521D01*
X267623587Y-99485000D01*
X267555102Y-99319664D01*
X267455678Y-99170865D01*
X267329135Y-99044322D01*
X267180336Y-98944898D01*
X267017564Y-98877475D01*
X267015003Y-98876414D01*
X267015001Y-98876413D01*
X267015000Y-98876413D01*
X266926645Y-98858838D01*
X266839481Y-98841500D01*
X266839479Y-98841500D01*
X266660521Y-98841500D01*
X266660518Y-98841500D01*
X266530483Y-98867366D01*
X266485000Y-98876413D01*
X266484999Y-98876413D01*
X266484996Y-98876414D01*
X266319662Y-98944899D01*
X266170869Y-99044319D01*
X266170862Y-99044324D01*
X266135592Y-99079595D01*
X266073280Y-99113621D01*
X266046497Y-99116500D01*
X260886321Y-99116500D01*
X260818200Y-99096498D01*
X260779309Y-99054353D01*
X260778543Y-99054866D01*
X260775291Y-99050000D01*
X260775203Y-99049904D01*
X260775104Y-99049720D01*
X260775104Y-99049719D01*
X260675680Y-98900920D01*
X260549137Y-98774377D01*
X260519859Y-98754814D01*
X260501731Y-98733123D01*
X260481146Y-98713744D01*
X260479279Y-98706257D01*
X260474331Y-98700337D01*
X260470807Y-98672284D01*
X260463968Y-98644857D01*
X260466444Y-98637550D01*
X260465483Y-98629894D01*
X260477685Y-98604389D01*
X260486760Y-98577618D01*
X260493770Y-98570769D01*
X260496124Y-98565850D01*
X260511342Y-98551505D01*
X260515457Y-98548225D01*
X260579135Y-98505678D01*
X260619437Y-98465375D01*
X260624984Y-98460956D01*
X260651546Y-98450125D01*
X260676720Y-98436379D01*
X260688316Y-98435132D01*
X260690726Y-98434150D01*
X260693190Y-98434608D01*
X260703503Y-98433500D01*
X268028244Y-98433500D01*
X268028245Y-98433500D01*
X268150636Y-98409155D01*
X268265926Y-98361400D01*
X268369684Y-98292071D01*
X270727945Y-95933810D01*
X270790257Y-95899784D01*
X270861072Y-95904849D01*
X270906135Y-95933810D01*
X271041619Y-96069294D01*
X271041622Y-96069296D01*
X271041625Y-96069299D01*
X271214301Y-96194755D01*
X271404477Y-96291654D01*
X271607469Y-96357611D01*
X271818280Y-96391000D01*
X271818283Y-96391000D01*
X272031717Y-96391000D01*
X272031720Y-96391000D01*
X272242531Y-96357611D01*
X272445523Y-96291654D01*
X272635699Y-96194755D01*
X272808375Y-96069299D01*
X272959299Y-95918375D01*
X273084755Y-95745699D01*
X273181654Y-95555523D01*
X273247611Y-95352531D01*
X273281000Y-95141720D01*
X273281000Y-94928280D01*
X273247611Y-94717469D01*
X273181654Y-94514477D01*
X273084755Y-94324301D01*
X272959299Y-94151625D01*
X272959296Y-94151622D01*
X272959294Y-94151619D01*
X272808381Y-94000706D01*
X272808377Y-94000703D01*
X272808375Y-94000701D01*
X272796309Y-93991935D01*
X272752957Y-93935716D01*
X272746880Y-93864980D01*
X272780010Y-93802188D01*
X272796303Y-93788069D01*
X272808375Y-93779299D01*
X272959299Y-93628375D01*
X273084755Y-93455699D01*
X273181654Y-93265523D01*
X273247611Y-93062531D01*
X273281000Y-92851720D01*
X273281000Y-92638280D01*
X273247611Y-92427469D01*
X273181654Y-92224477D01*
X273084755Y-92034301D01*
X272959299Y-91861625D01*
X272959296Y-91861622D01*
X272959294Y-91861619D01*
X272808381Y-91710706D01*
X272808377Y-91710703D01*
X272808375Y-91710701D01*
X272796309Y-91701935D01*
X272752957Y-91645716D01*
X272746880Y-91574980D01*
X272780010Y-91512188D01*
X272796303Y-91498069D01*
X272808375Y-91489299D01*
X272959299Y-91338375D01*
X273084755Y-91165699D01*
X273181654Y-90975523D01*
X273247611Y-90772531D01*
X273281000Y-90561720D01*
X273281000Y-90348280D01*
X273247611Y-90137469D01*
X273181654Y-89934477D01*
X273084755Y-89744301D01*
X272959299Y-89571625D01*
X272959296Y-89571622D01*
X272959294Y-89571619D01*
X272808381Y-89420706D01*
X272808377Y-89420703D01*
X272808375Y-89420701D01*
X272796309Y-89411935D01*
X272752957Y-89355716D01*
X272746880Y-89284980D01*
X272780010Y-89222188D01*
X272796303Y-89208069D01*
X272808375Y-89199299D01*
X272959299Y-89048375D01*
X273084755Y-88875699D01*
X273181654Y-88685523D01*
X273247611Y-88482531D01*
X273281000Y-88271720D01*
X273281000Y-88058280D01*
X273247611Y-87847469D01*
X273181654Y-87644477D01*
X273084755Y-87454301D01*
X272959299Y-87281625D01*
X272959296Y-87281622D01*
X272959294Y-87281619D01*
X272808381Y-87130706D01*
X272808377Y-87130703D01*
X272808375Y-87130701D01*
X272796309Y-87121935D01*
X272752957Y-87065716D01*
X272746880Y-86994980D01*
X272780010Y-86932188D01*
X272796303Y-86918069D01*
X272808375Y-86909299D01*
X272959299Y-86758375D01*
X273084755Y-86585699D01*
X273181654Y-86395523D01*
X273247611Y-86192531D01*
X273281000Y-85981720D01*
X273281000Y-85768280D01*
X273247611Y-85557469D01*
X273181654Y-85354477D01*
X273084755Y-85164301D01*
X272959299Y-84991625D01*
X272959296Y-84991622D01*
X272959294Y-84991619D01*
X272808380Y-84840705D01*
X272808377Y-84840703D01*
X272808375Y-84840701D01*
X272635699Y-84715245D01*
X272445523Y-84618346D01*
X272445522Y-84618345D01*
X272445521Y-84618345D01*
X272242534Y-84552390D01*
X272242531Y-84552389D01*
X272031720Y-84519000D01*
X271818280Y-84519000D01*
X271607469Y-84552389D01*
X271607466Y-84552389D01*
X271607465Y-84552390D01*
X271554303Y-84569664D01*
X271500936Y-84587004D01*
X271429969Y-84589032D01*
X271369171Y-84552369D01*
X271337846Y-84488657D01*
X271336000Y-84467171D01*
X271336000Y-84216230D01*
X271335999Y-84216226D01*
X271311655Y-84093838D01*
X271297668Y-84060070D01*
X271263901Y-83978548D01*
X271194572Y-83874790D01*
X270313953Y-82994172D01*
X270312363Y-82991837D01*
X270269828Y-82950047D01*
X270269378Y-82949597D01*
X270227716Y-82907934D01*
X270227483Y-82907743D01*
X270227167Y-82907459D01*
X270226011Y-82906527D01*
X270225148Y-82905826D01*
X270223914Y-82904813D01*
X270223568Y-82904559D01*
X270223353Y-82904386D01*
X270223349Y-82904382D01*
X270173493Y-82871702D01*
X270123952Y-82838600D01*
X270121344Y-82837519D01*
X270118983Y-82835972D01*
X270092738Y-82825371D01*
X270064233Y-82813857D01*
X270064233Y-82813856D01*
X270063590Y-82813596D01*
X270008662Y-82790845D01*
X270005896Y-82790294D01*
X270003280Y-82789238D01*
X270003277Y-82789237D01*
X270003276Y-82789237D01*
X269993515Y-82787384D01*
X269945255Y-82778226D01*
X269945255Y-82778227D01*
X269944707Y-82778123D01*
X269886271Y-82766500D01*
X269883447Y-82766500D01*
X269880675Y-82765974D01*
X269880674Y-82765974D01*
X269880669Y-82765973D01*
X269821677Y-82766495D01*
X269820564Y-82766500D01*
X269761483Y-82766500D01*
X269761480Y-82766500D01*
X269761212Y-82766527D01*
X269749979Y-82767128D01*
X258497039Y-82866499D01*
X258497040Y-82866500D01*
X258496445Y-82866505D01*
X258436229Y-82866637D01*
X258434144Y-82867056D01*
X258432012Y-82867075D01*
X258373479Y-82879256D01*
X258372659Y-82879424D01*
X131064869Y-108490172D01*
X130994141Y-108483998D01*
X130970017Y-108471412D01*
X130930337Y-108444899D01*
X130930338Y-108444899D01*
X130930336Y-108444898D01*
X130813429Y-108396473D01*
X130765003Y-108376414D01*
X130765001Y-108376413D01*
X130765000Y-108376413D01*
X130676645Y-108358838D01*
X130589481Y-108341500D01*
X130589479Y-108341500D01*
X130410521Y-108341500D01*
X130410518Y-108341500D01*
X130306273Y-108362236D01*
X130235000Y-108376413D01*
X130234999Y-108376413D01*
X130234996Y-108376414D01*
X130103902Y-108430716D01*
X130071287Y-108444226D01*
X130069662Y-108444899D01*
X129920869Y-108544319D01*
X129920862Y-108544324D01*
X129794324Y-108670862D01*
X129794319Y-108670869D01*
X129750425Y-108736562D01*
X129694898Y-108819664D01*
X129687190Y-108838273D01*
X129626414Y-108984996D01*
X129591500Y-109160518D01*
X113435091Y-109160518D01*
X113426645Y-109158838D01*
X113339481Y-109141500D01*
X113339479Y-109141500D01*
X113160521Y-109141500D01*
X113160518Y-109141500D01*
X113051120Y-109163261D01*
X112985000Y-109176413D01*
X112984999Y-109176413D01*
X112984996Y-109176414D01*
X112819662Y-109244899D01*
X112695002Y-109328194D01*
X112627249Y-109349409D01*
X112558782Y-109330626D01*
X112554998Y-109328194D01*
X112504891Y-109294714D01*
X112430336Y-109244898D01*
X112313429Y-109196473D01*
X112265003Y-109176414D01*
X112265001Y-109176413D01*
X112265000Y-109176413D01*
X112176645Y-109158838D01*
X112089481Y-109141500D01*
X112089479Y-109141500D01*
X111910521Y-109141500D01*
X111910518Y-109141500D01*
X111801120Y-109163261D01*
X111735000Y-109176413D01*
X111734999Y-109176413D01*
X111734996Y-109176414D01*
X111638422Y-109216417D01*
X111569664Y-109244898D01*
X111569662Y-109244899D01*
X111563946Y-109247267D01*
X111563082Y-109245182D01*
X111503464Y-109257571D01*
X111480780Y-109253625D01*
X111006365Y-109125533D01*
X110926018Y-109103840D01*
X110925963Y-109103825D01*
X110865781Y-109087576D01*
X110865777Y-109087575D01*
X110865772Y-109087573D01*
X110659312Y-109031832D01*
X110119144Y-108915701D01*
X110119136Y-108915700D01*
X109573710Y-108827782D01*
X109024371Y-108768294D01*
X109024374Y-108768294D01*
X108472743Y-108737415D01*
X108258636Y-108736561D01*
X108258634Y-108736561D01*
X108258633Y-108736560D01*
X108258633Y-108736561D01*
X108258104Y-108736558D01*
X108220382Y-108736408D01*
X108197887Y-108736319D01*
X108196491Y-108736314D01*
X108196489Y-108736313D01*
X108119324Y-108736007D01*
X108119316Y-108736007D01*
X78058191Y-108616526D01*
X78058191Y-108616525D01*
X78057160Y-108616520D01*
X77999636Y-108615430D01*
X77994921Y-108616274D01*
X77990131Y-108616256D01*
X77990125Y-108616257D01*
X77990124Y-108616257D01*
X77963240Y-108621492D01*
X77934491Y-108627092D01*
X77932642Y-108627437D01*
X77876801Y-108637449D01*
X77872265Y-108638731D01*
X77867635Y-108640115D01*
X77815170Y-108661603D01*
X77813417Y-108662306D01*
X77672901Y-108717410D01*
X77602180Y-108723658D01*
X77578682Y-108716516D01*
X77515005Y-108690140D01*
X77515000Y-108690138D01*
X77339481Y-108655225D01*
X77339479Y-108655225D01*
X77160521Y-108655225D01*
X77160518Y-108655225D01*
X77029771Y-108681232D01*
X76985000Y-108690138D01*
X76984999Y-108690138D01*
X76984996Y-108690139D01*
X76819662Y-108758624D01*
X76670869Y-108858044D01*
X76670862Y-108858049D01*
X76544324Y-108984587D01*
X76544319Y-108984594D01*
X76444899Y-109133387D01*
X76376414Y-109298721D01*
X76341500Y-109474243D01*
X70312048Y-109474243D01*
X75115746Y-107317004D01*
X75186079Y-107307345D01*
X75215576Y-107315538D01*
X75235000Y-107323584D01*
X75410521Y-107358497D01*
X75410522Y-107358497D01*
X75589478Y-107358497D01*
X75589479Y-107358497D01*
X75765000Y-107323584D01*
X75930336Y-107255099D01*
X76079135Y-107155675D01*
X76197906Y-107036904D01*
X76260218Y-107002879D01*
X76287001Y-107000000D01*
X77488000Y-107000000D01*
X77556121Y-107020002D01*
X77577094Y-107036904D01*
X77645868Y-107105678D01*
X77794667Y-107205102D01*
X77960003Y-107273587D01*
X78135524Y-107308500D01*
X78135525Y-107308500D01*
X78314481Y-107308500D01*
X78314482Y-107308500D01*
X78490003Y-107273587D01*
X78655339Y-107205102D01*
X78804138Y-107105678D01*
X78872911Y-107036905D01*
X78935223Y-107002879D01*
X78962006Y-107000000D01*
X120199997Y-107000000D01*
X120200000Y-107000000D01*
X129968467Y-105496099D01*
X218459954Y-77587245D01*
X266794000Y-77587245D01*
X266794000Y-77882754D01*
X266827086Y-78176407D01*
X266892844Y-78464508D01*
X266990436Y-78743409D01*
X266990444Y-78743429D01*
X267118663Y-79009677D01*
X267275878Y-79259883D01*
X267393461Y-79407327D01*
X267393462Y-79407327D01*
X268117628Y-78683160D01*
X268193147Y-78787102D01*
X268372898Y-78966853D01*
X268476837Y-79042369D01*
X267752671Y-79766536D01*
X267752671Y-79766538D01*
X267900116Y-79884121D01*
X268150322Y-80041336D01*
X268416570Y-80169555D01*
X268416590Y-80169563D01*
X268695491Y-80267155D01*
X268983592Y-80332913D01*
X269277245Y-80366000D01*
X269572755Y-80366000D01*
X269866407Y-80332913D01*
X270154508Y-80267155D01*
X270433409Y-80169563D01*
X270433429Y-80169555D01*
X270699677Y-80041336D01*
X270949883Y-79884121D01*
X271097328Y-79766537D01*
X270373161Y-79042370D01*
X270477102Y-78966853D01*
X270656853Y-78787102D01*
X270732370Y-78683161D01*
X271456537Y-79407328D01*
X271574121Y-79259883D01*
X271731336Y-79009677D01*
X271859555Y-78743429D01*
X271859563Y-78743409D01*
X271957155Y-78464508D01*
X272022913Y-78176407D01*
X272056000Y-77882754D01*
X272056000Y-77587245D01*
X272022913Y-77293592D01*
X271957155Y-77005491D01*
X271859563Y-76726590D01*
X271859555Y-76726570D01*
X271731336Y-76460322D01*
X271574121Y-76210116D01*
X271456538Y-76062671D01*
X271456536Y-76062671D01*
X270732369Y-76786837D01*
X270656853Y-76682898D01*
X270477102Y-76503147D01*
X270373160Y-76427629D01*
X271097327Y-75703462D01*
X271097327Y-75703461D01*
X270949883Y-75585878D01*
X270699677Y-75428663D01*
X270433429Y-75300444D01*
X270433409Y-75300436D01*
X270154508Y-75202844D01*
X269866407Y-75137086D01*
X269572755Y-75104000D01*
X269277245Y-75104000D01*
X268983592Y-75137086D01*
X268695491Y-75202844D01*
X268416590Y-75300436D01*
X268416570Y-75300444D01*
X268150322Y-75428663D01*
X267900125Y-75585871D01*
X267900118Y-75585877D01*
X267752671Y-75703460D01*
X267752671Y-75703462D01*
X268476838Y-76427629D01*
X268372898Y-76503147D01*
X268193147Y-76682898D01*
X268117629Y-76786838D01*
X267393462Y-76062671D01*
X267393460Y-76062671D01*
X267275877Y-76210118D01*
X267275871Y-76210125D01*
X267118663Y-76460322D01*
X266990444Y-76726570D01*
X266990436Y-76726590D01*
X266892844Y-77005491D01*
X266827086Y-77293592D01*
X266794000Y-77587245D01*
X218459954Y-77587245D01*
X232181279Y-73259750D01*
X232219627Y-73253917D01*
X274823963Y-73409587D01*
G37*
%TD.AperFunction*%
%TA.AperFunction,Conductor*%
G36*
X93164316Y-131762629D02*
G01*
X93260943Y-131802654D01*
X93436464Y-131837567D01*
X93462139Y-131837567D01*
X93530260Y-131857569D01*
X93551234Y-131874472D01*
X93830595Y-132153833D01*
X93918833Y-132242071D01*
X94022591Y-132311400D01*
X94137881Y-132359155D01*
X94260272Y-132383500D01*
X95140500Y-132383500D01*
X95208621Y-132403502D01*
X95255114Y-132457158D01*
X95266500Y-132509500D01*
X95266500Y-133374000D01*
X95246498Y-133442121D01*
X95192842Y-133488614D01*
X95140500Y-133500000D01*
X94346777Y-133500000D01*
X94328933Y-133498730D01*
X94303847Y-133495141D01*
X94293839Y-133488454D01*
X94223688Y-133474500D01*
X94159563Y-133474500D01*
X94150686Y-133473230D01*
X94126214Y-133462075D01*
X94100409Y-133454498D01*
X94094414Y-133447579D01*
X94086085Y-133443783D01*
X94071529Y-133421169D01*
X94053916Y-133400842D01*
X94051603Y-133390211D01*
X94047659Y-133384083D01*
X94047650Y-133372039D01*
X94042530Y-133348500D01*
X94042530Y-133183671D01*
X94042529Y-133183667D01*
X94042233Y-133182177D01*
X94018185Y-133061279D01*
X93970430Y-132945989D01*
X93901101Y-132842231D01*
X93812863Y-132753993D01*
X93027004Y-131968134D01*
X92992978Y-131905822D01*
X92998043Y-131835007D01*
X93040590Y-131778171D01*
X93107110Y-131753360D01*
X93164316Y-131762629D01*
G37*
%TD.AperFunction*%
%TD*%
%TA.AperFunction,Conductor*%
%TO.N,GND*%
G36*
X61000118Y-93107935D02*
G01*
X62841648Y-93794322D01*
X69818861Y-96394914D01*
X69875705Y-96437448D01*
X69891261Y-96464757D01*
X69896887Y-96478339D01*
X69896889Y-96478343D01*
X69896890Y-96478344D01*
X69996314Y-96627143D01*
X70122857Y-96753686D01*
X70271656Y-96853110D01*
X70436992Y-96921595D01*
X70612513Y-96956508D01*
X70612514Y-96956508D01*
X70791470Y-96956508D01*
X70791471Y-96956508D01*
X70966992Y-96921595D01*
X71132328Y-96853110D01*
X71281127Y-96753686D01*
X71364775Y-96670038D01*
X71427087Y-96636012D01*
X71497902Y-96641077D01*
X71554738Y-96683624D01*
X71558634Y-96689129D01*
X71567330Y-96702143D01*
X71693873Y-96828686D01*
X71842672Y-96928110D01*
X72008008Y-96996595D01*
X72183529Y-97031508D01*
X72183530Y-97031508D01*
X72368677Y-97031508D01*
X72368677Y-97032925D01*
X72431388Y-97044811D01*
X72482923Y-97093644D01*
X72500000Y-97156983D01*
X72500000Y-98870567D01*
X72497132Y-98897300D01*
X72403821Y-99327095D01*
X72402102Y-99334052D01*
X72261582Y-99840467D01*
X72259470Y-99847314D01*
X72090399Y-100344889D01*
X72087901Y-100351606D01*
X71890801Y-100838802D01*
X71887926Y-100845366D01*
X71663460Y-101320542D01*
X71660216Y-101326932D01*
X71409093Y-101788589D01*
X71405493Y-101794781D01*
X71128524Y-102241427D01*
X71124584Y-102247394D01*
X70822685Y-102677551D01*
X70818404Y-102683297D01*
X70492528Y-103095610D01*
X70487926Y-103101104D01*
X70137948Y-103495562D01*
X70135532Y-103498208D01*
X69919675Y-103727993D01*
X69919674Y-103727994D01*
X69868718Y-103782236D01*
X69865233Y-103785802D01*
X69624152Y-104022893D01*
X69616770Y-104029599D01*
X69359612Y-104245271D01*
X69351723Y-104251372D01*
X69078317Y-104446028D01*
X69069970Y-104451486D01*
X68782018Y-104623913D01*
X68773267Y-104628694D01*
X68472580Y-104777809D01*
X68463476Y-104781883D01*
X68149621Y-104907676D01*
X68144956Y-104909439D01*
X64802969Y-106097703D01*
X64800436Y-106098603D01*
X64753649Y-106113036D01*
X64741738Y-106119472D01*
X64732592Y-106122725D01*
X64732590Y-106122727D01*
X64728985Y-106124008D01*
X64728983Y-106124010D01*
X64689233Y-106147726D01*
X64684590Y-106150364D01*
X64420679Y-106293018D01*
X64418392Y-106294224D01*
X64410753Y-106298152D01*
X64364084Y-106314608D01*
X64271545Y-106369492D01*
X64268279Y-106371428D01*
X64268273Y-106371432D01*
X64256751Y-106378265D01*
X64251757Y-106381933D01*
X64251524Y-106381616D01*
X64234188Y-106393825D01*
X61441872Y-107903185D01*
X61441871Y-107903186D01*
X61433685Y-107907610D01*
X61363491Y-107933084D01*
X61256747Y-107997720D01*
X61241956Y-108011245D01*
X61228295Y-108018630D01*
X61228293Y-108018630D01*
X61050601Y-108114681D01*
X61032800Y-108122591D01*
X61029545Y-108123745D01*
X61029528Y-108123753D01*
X60989448Y-108147615D01*
X60984907Y-108150192D01*
X60969796Y-108158360D01*
X60900358Y-108173157D01*
X60833944Y-108148063D01*
X60791639Y-108091047D01*
X60786876Y-108020210D01*
X60790054Y-108008562D01*
X60790792Y-108006290D01*
X60823000Y-107802938D01*
X60823000Y-107597061D01*
X60790791Y-107393703D01*
X60727173Y-107197906D01*
X60727170Y-107197900D01*
X60633699Y-107014454D01*
X60602583Y-106971626D01*
X60602582Y-106971626D01*
X59915000Y-107659209D01*
X59915000Y-107647339D01*
X59887741Y-107545606D01*
X59835080Y-107454394D01*
X59760606Y-107379920D01*
X59669394Y-107327259D01*
X59567661Y-107300000D01*
X59555790Y-107300000D01*
X60243372Y-106612416D01*
X60200541Y-106581298D01*
X60200540Y-106581297D01*
X60017099Y-106487829D01*
X60017093Y-106487826D01*
X59821294Y-106424208D01*
X59821298Y-106424208D01*
X59617939Y-106392000D01*
X59412061Y-106392000D01*
X59208703Y-106424208D01*
X59012906Y-106487826D01*
X59012900Y-106487829D01*
X58829452Y-106581301D01*
X58786625Y-106612416D01*
X59474209Y-107300000D01*
X59462339Y-107300000D01*
X59360606Y-107327259D01*
X59269394Y-107379920D01*
X59194920Y-107454394D01*
X59142259Y-107545606D01*
X59115000Y-107647339D01*
X59115000Y-107659209D01*
X58427416Y-106971625D01*
X58396301Y-107014452D01*
X58302829Y-107197900D01*
X58302826Y-107197906D01*
X58239208Y-107393703D01*
X58207000Y-107597061D01*
X58207000Y-107802938D01*
X58239208Y-108006296D01*
X58302826Y-108202093D01*
X58302829Y-108202099D01*
X58396297Y-108385540D01*
X58396298Y-108385541D01*
X58427416Y-108428372D01*
X59115000Y-107740788D01*
X59115000Y-107752661D01*
X59142259Y-107854394D01*
X59194920Y-107945606D01*
X59269394Y-108020080D01*
X59360606Y-108072741D01*
X59462339Y-108100000D01*
X59474210Y-108100000D01*
X58786626Y-108787582D01*
X58786626Y-108787583D01*
X58829454Y-108818699D01*
X59012900Y-108912170D01*
X59012906Y-108912173D01*
X59208705Y-108975791D01*
X59208701Y-108975791D01*
X59412061Y-109008000D01*
X59617944Y-109008000D01*
X59675861Y-108998826D01*
X59746272Y-109007924D01*
X59800586Y-109053645D01*
X59821560Y-109121473D01*
X59802534Y-109189873D01*
X59779914Y-109216883D01*
X57281883Y-111467609D01*
X57217886Y-111498347D01*
X57197542Y-111500000D01*
X43852190Y-111500000D01*
X43784069Y-111479998D01*
X43763095Y-111463095D01*
X41036905Y-108736905D01*
X41002879Y-108674593D01*
X41000000Y-108647810D01*
X41000000Y-106851350D01*
X42966500Y-106851350D01*
X42966500Y-108548649D01*
X42973009Y-108609196D01*
X42973011Y-108609204D01*
X43024110Y-108746202D01*
X43024112Y-108746207D01*
X43111738Y-108863261D01*
X43228792Y-108950887D01*
X43228794Y-108950888D01*
X43228796Y-108950889D01*
X43287875Y-108972924D01*
X43365795Y-109001988D01*
X43365803Y-109001990D01*
X43426350Y-109008499D01*
X43426355Y-109008499D01*
X43426362Y-109008500D01*
X43426368Y-109008500D01*
X45123632Y-109008500D01*
X45123638Y-109008500D01*
X45123645Y-109008499D01*
X45123649Y-109008499D01*
X45184196Y-109001990D01*
X45184199Y-109001989D01*
X45184201Y-109001989D01*
X45321204Y-108950889D01*
X45322578Y-108949861D01*
X45438261Y-108863261D01*
X45525887Y-108746207D01*
X45525887Y-108746206D01*
X45525889Y-108746204D01*
X45576989Y-108609201D01*
X45583500Y-108548638D01*
X45583500Y-106851362D01*
X45582192Y-106839196D01*
X45576990Y-106790803D01*
X45576988Y-106790795D01*
X45544790Y-106704470D01*
X45525889Y-106653797D01*
X45525887Y-106653792D01*
X45438261Y-106536738D01*
X45321207Y-106449112D01*
X45321202Y-106449110D01*
X45184204Y-106398011D01*
X45184196Y-106398009D01*
X45123649Y-106391500D01*
X45123638Y-106391500D01*
X43426362Y-106391500D01*
X43426350Y-106391500D01*
X43365803Y-106398009D01*
X43365795Y-106398011D01*
X43228797Y-106449110D01*
X43228792Y-106449112D01*
X43111738Y-106536738D01*
X43024112Y-106653792D01*
X43024110Y-106653797D01*
X42973011Y-106790795D01*
X42973009Y-106790803D01*
X42966500Y-106851350D01*
X41000000Y-106851350D01*
X41000000Y-99977019D01*
X42966500Y-99977019D01*
X42966500Y-100182981D01*
X42998720Y-100386408D01*
X43062366Y-100582290D01*
X43155871Y-100765803D01*
X43276932Y-100932430D01*
X43276934Y-100932432D01*
X43276936Y-100932435D01*
X43422564Y-101078063D01*
X43422567Y-101078065D01*
X43422570Y-101078068D01*
X43589197Y-101199129D01*
X43772710Y-101292634D01*
X43968592Y-101356280D01*
X44172019Y-101388500D01*
X44172022Y-101388500D01*
X44377978Y-101388500D01*
X44377981Y-101388500D01*
X44581408Y-101356280D01*
X44777290Y-101292634D01*
X44960803Y-101199129D01*
X45127430Y-101078068D01*
X45273068Y-100932430D01*
X45394129Y-100765803D01*
X45487634Y-100582290D01*
X45551280Y-100386408D01*
X45583500Y-100182981D01*
X45583500Y-99977019D01*
X58206500Y-99977019D01*
X58206500Y-100182981D01*
X58238720Y-100386408D01*
X58302366Y-100582290D01*
X58395871Y-100765803D01*
X58516932Y-100932430D01*
X58516934Y-100932432D01*
X58516936Y-100932435D01*
X58662564Y-101078063D01*
X58662567Y-101078065D01*
X58662570Y-101078068D01*
X58829197Y-101199129D01*
X59012710Y-101292634D01*
X59208592Y-101356280D01*
X59412019Y-101388500D01*
X59412022Y-101388500D01*
X59617978Y-101388500D01*
X59617981Y-101388500D01*
X59821408Y-101356280D01*
X60017290Y-101292634D01*
X60200803Y-101199129D01*
X60367430Y-101078068D01*
X60513068Y-100932430D01*
X60634129Y-100765803D01*
X60727634Y-100582290D01*
X60791280Y-100386408D01*
X60792148Y-100380925D01*
X60822557Y-100316771D01*
X60868683Y-100284096D01*
X62443256Y-99636744D01*
X62513862Y-99629342D01*
X62515655Y-99629684D01*
X62660521Y-99658500D01*
X62660522Y-99658500D01*
X62839478Y-99658500D01*
X62839479Y-99658500D01*
X63015000Y-99623587D01*
X63180336Y-99555102D01*
X63329135Y-99455678D01*
X63455678Y-99329135D01*
X63555102Y-99180336D01*
X63623587Y-99015000D01*
X63658500Y-98839479D01*
X63658500Y-98660521D01*
X63658499Y-98660515D01*
X63652213Y-98628912D01*
X63648554Y-98610518D01*
X65391500Y-98610518D01*
X65391500Y-98789481D01*
X65426414Y-98965003D01*
X65433870Y-98983002D01*
X65494898Y-99130336D01*
X65594322Y-99279135D01*
X65720865Y-99405678D01*
X65869664Y-99505102D01*
X65965911Y-99544969D01*
X66034997Y-99573586D01*
X66034998Y-99573586D01*
X66035000Y-99573587D01*
X66176879Y-99601808D01*
X66239789Y-99634715D01*
X66241393Y-99636292D01*
X66673677Y-100068576D01*
X66707703Y-100130888D01*
X66710582Y-100157671D01*
X66710582Y-102593465D01*
X66690580Y-102661586D01*
X66689348Y-102663466D01*
X66608980Y-102783745D01*
X66540496Y-102949078D01*
X66505582Y-103124600D01*
X66505582Y-103124603D01*
X66505582Y-103303561D01*
X66540495Y-103479082D01*
X66608980Y-103644418D01*
X66708404Y-103793217D01*
X66834947Y-103919760D01*
X66983746Y-104019184D01*
X67149082Y-104087669D01*
X67324603Y-104122582D01*
X67324604Y-104122582D01*
X67503560Y-104122582D01*
X67503561Y-104122582D01*
X67679082Y-104087669D01*
X67844418Y-104019184D01*
X67993217Y-103919760D01*
X68119760Y-103793217D01*
X68219184Y-103644418D01*
X68287669Y-103479082D01*
X68322582Y-103303561D01*
X68322582Y-103124603D01*
X68287669Y-102949082D01*
X68219184Y-102783746D01*
X68175123Y-102717804D01*
X68138816Y-102663466D01*
X68117602Y-102595713D01*
X68117582Y-102593465D01*
X68117582Y-100160518D01*
X68591500Y-100160518D01*
X68591500Y-100339481D01*
X68600835Y-100386412D01*
X68626413Y-100515000D01*
X68694898Y-100680336D01*
X68794322Y-100829135D01*
X68920865Y-100955678D01*
X69069664Y-101055102D01*
X69235000Y-101123587D01*
X69410521Y-101158500D01*
X69410522Y-101158500D01*
X69589478Y-101158500D01*
X69589479Y-101158500D01*
X69765000Y-101123587D01*
X69930336Y-101055102D01*
X70079135Y-100955678D01*
X70205678Y-100829135D01*
X70305102Y-100680336D01*
X70373587Y-100515000D01*
X70408500Y-100339479D01*
X70408500Y-100160521D01*
X70373587Y-99985000D01*
X70305102Y-99819664D01*
X70205678Y-99670865D01*
X70079135Y-99544322D01*
X69930336Y-99444898D01*
X69807924Y-99394193D01*
X69765003Y-99376414D01*
X69765001Y-99376413D01*
X69765000Y-99376413D01*
X69676645Y-99358838D01*
X69589481Y-99341500D01*
X69589479Y-99341500D01*
X69410521Y-99341500D01*
X69410518Y-99341500D01*
X69289225Y-99365627D01*
X69235000Y-99376413D01*
X69234999Y-99376413D01*
X69234996Y-99376414D01*
X69069662Y-99444899D01*
X68920869Y-99544319D01*
X68920862Y-99544324D01*
X68794324Y-99670862D01*
X68794319Y-99670869D01*
X68725686Y-99773587D01*
X68694898Y-99819664D01*
X68683445Y-99847314D01*
X68626414Y-99984996D01*
X68591500Y-100160518D01*
X68117582Y-100160518D01*
X68117582Y-99744794D01*
X68117581Y-99744790D01*
X68090547Y-99608879D01*
X68077636Y-99577710D01*
X68037516Y-99480850D01*
X67960526Y-99365627D01*
X67236290Y-98641391D01*
X67202267Y-98579081D01*
X67201808Y-98576879D01*
X67186969Y-98502277D01*
X67173587Y-98435000D01*
X67173585Y-98434996D01*
X67132261Y-98335232D01*
X67105102Y-98269664D01*
X67005678Y-98120865D01*
X66879135Y-97994322D01*
X66730336Y-97894898D01*
X66601423Y-97841500D01*
X66565003Y-97826414D01*
X66565001Y-97826413D01*
X66565000Y-97826413D01*
X66476645Y-97808838D01*
X66389481Y-97791500D01*
X66389479Y-97791500D01*
X66210521Y-97791500D01*
X66210518Y-97791500D01*
X66079771Y-97817507D01*
X66035000Y-97826413D01*
X66034999Y-97826413D01*
X66034996Y-97826414D01*
X65869662Y-97894899D01*
X65720869Y-97994319D01*
X65720862Y-97994324D01*
X65594324Y-98120862D01*
X65594319Y-98120869D01*
X65494899Y-98269662D01*
X65426414Y-98434996D01*
X65391500Y-98610518D01*
X63648554Y-98610518D01*
X63641863Y-98576879D01*
X63623587Y-98485000D01*
X63555102Y-98319664D01*
X63455678Y-98170865D01*
X63329135Y-98044322D01*
X63180336Y-97944898D01*
X63059626Y-97894898D01*
X63015003Y-97876414D01*
X63015001Y-97876413D01*
X63015000Y-97876413D01*
X62926645Y-97858838D01*
X62839481Y-97841500D01*
X62839479Y-97841500D01*
X62660521Y-97841500D01*
X62660518Y-97841500D01*
X62529771Y-97867507D01*
X62485000Y-97876413D01*
X62484999Y-97876413D01*
X62484996Y-97876414D01*
X62319662Y-97944899D01*
X62170869Y-98044319D01*
X62170862Y-98044324D01*
X62044324Y-98170862D01*
X62044319Y-98170869D01*
X61965588Y-98288698D01*
X61911111Y-98334226D01*
X61908734Y-98335232D01*
X60333141Y-98983002D01*
X60262531Y-98990405D01*
X60211170Y-98968403D01*
X60200805Y-98960872D01*
X60076038Y-98897300D01*
X60017290Y-98867366D01*
X60017287Y-98867365D01*
X60017285Y-98867364D01*
X59821412Y-98803721D01*
X59821410Y-98803720D01*
X59821408Y-98803720D01*
X59617981Y-98771500D01*
X59412019Y-98771500D01*
X59208592Y-98803720D01*
X59208590Y-98803720D01*
X59208587Y-98803721D01*
X59012714Y-98867364D01*
X59012708Y-98867367D01*
X58829193Y-98960873D01*
X58662567Y-99081934D01*
X58662564Y-99081936D01*
X58516936Y-99227564D01*
X58516934Y-99227567D01*
X58395873Y-99394193D01*
X58302367Y-99577708D01*
X58302364Y-99577714D01*
X58238721Y-99773587D01*
X58238720Y-99773590D01*
X58238720Y-99773592D01*
X58206500Y-99977019D01*
X45583500Y-99977019D01*
X45551280Y-99773592D01*
X45487634Y-99577710D01*
X45394129Y-99394197D01*
X45273068Y-99227570D01*
X45273065Y-99227567D01*
X45273063Y-99227564D01*
X45127435Y-99081936D01*
X45127432Y-99081934D01*
X45127430Y-99081932D01*
X44960803Y-98960871D01*
X44777290Y-98867366D01*
X44777287Y-98867365D01*
X44777285Y-98867364D01*
X44581412Y-98803721D01*
X44581410Y-98803720D01*
X44581408Y-98803720D01*
X44377981Y-98771500D01*
X44172019Y-98771500D01*
X43968592Y-98803720D01*
X43968590Y-98803720D01*
X43968587Y-98803721D01*
X43772714Y-98867364D01*
X43772708Y-98867367D01*
X43589193Y-98960873D01*
X43422567Y-99081934D01*
X43422564Y-99081936D01*
X43276936Y-99227564D01*
X43276934Y-99227567D01*
X43155873Y-99394193D01*
X43062367Y-99577708D01*
X43062364Y-99577714D01*
X42998721Y-99773587D01*
X42998720Y-99773590D01*
X42998720Y-99773592D01*
X42966500Y-99977019D01*
X41000000Y-99977019D01*
X41000000Y-96959456D01*
X41020002Y-96891335D01*
X41029334Y-96878637D01*
X41176898Y-96702140D01*
X42706275Y-94872888D01*
X44150754Y-93145181D01*
X44209794Y-93105749D01*
X44247420Y-93100000D01*
X60956112Y-93100000D01*
X61000118Y-93107935D01*
G37*
%TD.AperFunction*%
%TA.AperFunction,Conductor*%
G36*
X60790017Y-110918994D02*
G01*
X60844900Y-110964031D01*
X60866722Y-111031591D01*
X60866767Y-111034970D01*
X60866767Y-111114746D01*
X60901680Y-111290267D01*
X60970165Y-111455603D01*
X60970166Y-111455604D01*
X60999830Y-111500000D01*
X60045618Y-111500000D01*
X60655730Y-110941993D01*
X60719497Y-110910778D01*
X60790017Y-110918994D01*
G37*
%TD.AperFunction*%
%TD*%
M02*
