%TF.GenerationSoftware,KiCad,Pcbnew,9.0.2*%
%TF.CreationDate,2025-08-11T18:57:52-07:00*%
%TF.ProjectId,cardshark-isa,63617264-7368-4617-926b-2d6973612e6b,rev?*%
%TF.SameCoordinates,Original*%
%TF.FileFunction,Paste,Top*%
%TF.FilePolarity,Positive*%
%FSLAX46Y46*%
G04 Gerber Fmt 4.6, Leading zero omitted, Abs format (unit mm)*
G04 Created by KiCad (PCBNEW 9.0.2) date 2025-08-11 18:57:52*
%MOMM*%
%LPD*%
G01*
G04 APERTURE LIST*
G04 Aperture macros list*
%AMRoundRect*
0 Rectangle with rounded corners*
0 $1 Rounding radius*
0 $2 $3 $4 $5 $6 $7 $8 $9 X,Y pos of 4 corners*
0 Add a 4 corners polygon primitive as box body*
4,1,4,$2,$3,$4,$5,$6,$7,$8,$9,$2,$3,0*
0 Add four circle primitives for the rounded corners*
1,1,$1+$1,$2,$3*
1,1,$1+$1,$4,$5*
1,1,$1+$1,$6,$7*
1,1,$1+$1,$8,$9*
0 Add four rect primitives between the rounded corners*
20,1,$1+$1,$2,$3,$4,$5,0*
20,1,$1+$1,$4,$5,$6,$7,0*
20,1,$1+$1,$6,$7,$8,$9,0*
20,1,$1+$1,$8,$9,$2,$3,0*%
G04 Aperture macros list end*
%ADD10RoundRect,0.250000X0.250000X0.475000X-0.250000X0.475000X-0.250000X-0.475000X0.250000X-0.475000X0*%
%ADD11RoundRect,0.250000X-0.250000X-0.475000X0.250000X-0.475000X0.250000X0.475000X-0.250000X0.475000X0*%
%ADD12R,1.000000X1.000000*%
%ADD13RoundRect,0.250000X-0.475000X0.250000X-0.475000X-0.250000X0.475000X-0.250000X0.475000X0.250000X0*%
%ADD14RoundRect,0.249998X0.450002X-0.262502X0.450002X0.262502X-0.450002X0.262502X-0.450002X-0.262502X0*%
%ADD15RoundRect,0.249998X-0.262502X-0.450002X0.262502X-0.450002X0.262502X0.450002X-0.262502X0.450002X0*%
%ADD16RoundRect,0.250000X0.475000X-0.250000X0.475000X0.250000X-0.475000X0.250000X-0.475000X-0.250000X0*%
%ADD17RoundRect,0.250000X-0.450000X0.262500X-0.450000X-0.262500X0.450000X-0.262500X0.450000X0.262500X0*%
%ADD18R,1.600000X0.500000*%
%ADD19R,1.600000X0.400000*%
%ADD20RoundRect,0.150000X-0.150000X1.475000X-0.150000X-1.475000X0.150000X-1.475000X0.150000X1.475000X0*%
%ADD21RoundRect,0.250000X0.450000X-0.262500X0.450000X0.262500X-0.450000X0.262500X-0.450000X-0.262500X0*%
%ADD22RoundRect,0.075000X0.075000X-0.800000X0.075000X0.800000X-0.075000X0.800000X-0.075000X-0.800000X0*%
%ADD23RoundRect,0.075000X0.800000X-0.075000X0.800000X0.075000X-0.800000X0.075000X-0.800000X-0.075000X0*%
%ADD24RoundRect,0.150000X-1.350000X-0.150000X1.350000X-0.150000X1.350000X0.150000X-1.350000X0.150000X0*%
%ADD25RoundRect,0.151250X-1.348750X-0.151250X1.348750X-0.151250X1.348750X0.151250X-1.348750X0.151250X0*%
%ADD26RoundRect,0.250000X0.159099X-0.512652X0.512652X-0.159099X-0.159099X0.512652X-0.512652X0.159099X0*%
%ADD27RoundRect,0.250000X-0.262500X-0.450000X0.262500X-0.450000X0.262500X0.450000X-0.262500X0.450000X0*%
%ADD28RoundRect,0.218750X-0.218750X-0.381250X0.218750X-0.381250X0.218750X0.381250X-0.218750X0.381250X0*%
%ADD29RoundRect,0.125000X0.125000X-0.825000X0.125000X0.825000X-0.125000X0.825000X-0.125000X-0.825000X0*%
G04 APERTURE END LIST*
D10*
%TO.C,C54*%
X154050000Y-61500000D03*
X155950000Y-61500000D03*
%TD*%
%TO.C,C9*%
X158000000Y-108300000D03*
X156100000Y-108300000D03*
%TD*%
D11*
%TO.C,C10*%
X139950001Y-104500000D03*
X141849999Y-104500000D03*
%TD*%
%TO.C,C8*%
X124450000Y-108300000D03*
X126350000Y-108300000D03*
%TD*%
%TO.C,C14*%
X189250000Y-61345466D03*
X191150000Y-61345466D03*
%TD*%
%TO.C,C15*%
X182950001Y-61345466D03*
X184849999Y-61345466D03*
%TD*%
%TO.C,C13*%
X162850000Y-65400000D03*
X164750000Y-65400000D03*
%TD*%
D12*
%TO.C,D1*%
X216604534Y-77850000D03*
X216604534Y-75350000D03*
%TD*%
D13*
%TO.C,C37*%
X168900000Y-95300001D03*
X168900000Y-97199999D03*
%TD*%
D14*
%TO.C,R21*%
X219500000Y-93825000D03*
X219500000Y-92000000D03*
%TD*%
%TO.C,R22*%
X219500000Y-89825000D03*
X219500000Y-88000000D03*
%TD*%
%TO.C,R24*%
X219500000Y-85325000D03*
X219500000Y-83500000D03*
%TD*%
%TO.C,R16*%
X211101975Y-72635032D03*
X211101975Y-70810032D03*
%TD*%
D15*
%TO.C,R14*%
X226587500Y-99250000D03*
X228412500Y-99250000D03*
%TD*%
%TO.C,R15*%
X226587500Y-96550000D03*
X228412500Y-96550000D03*
%TD*%
D10*
%TO.C,C38*%
X158000000Y-90700000D03*
X156100000Y-90700000D03*
%TD*%
D16*
%TO.C,C32*%
X259600000Y-94100000D03*
X259600000Y-92200000D03*
%TD*%
D17*
%TO.C,R9*%
X195250000Y-72387500D03*
X195250000Y-74212500D03*
%TD*%
D18*
%TO.C,RN3*%
X163445000Y-101700000D03*
D19*
X163445000Y-100900000D03*
X163445000Y-100100000D03*
D18*
X163445000Y-99300000D03*
X160905000Y-99300000D03*
D19*
X160905000Y-100100000D03*
X160905000Y-100900000D03*
D18*
X160905000Y-101700000D03*
%TD*%
D20*
%TO.C,U7*%
X191190000Y-65295466D03*
X189922000Y-65295466D03*
X188652000Y-65295466D03*
X187382000Y-65295466D03*
X186112000Y-65295466D03*
X184842000Y-65295466D03*
X183572000Y-65295466D03*
X182302000Y-65295466D03*
X181032000Y-65295466D03*
X179762000Y-65295466D03*
X178492000Y-65295466D03*
X177222000Y-65295466D03*
X175952000Y-65295466D03*
X174682000Y-65295466D03*
X173412000Y-65295466D03*
X172142000Y-65295466D03*
X170872000Y-65295466D03*
X169602000Y-65295466D03*
X168332000Y-65295466D03*
X167062000Y-65295466D03*
X167062000Y-75265466D03*
X168332000Y-75265466D03*
X169602000Y-75265466D03*
X170872000Y-75265466D03*
X172142000Y-75265466D03*
X173412000Y-75265466D03*
X174682000Y-75265466D03*
X175952000Y-75265466D03*
X177222000Y-75265466D03*
X178492000Y-75265466D03*
X179762000Y-75265466D03*
X181032000Y-75265466D03*
X182302000Y-75265466D03*
X183572000Y-75265466D03*
X184842000Y-75265466D03*
X186112000Y-75265466D03*
X187382000Y-75265466D03*
X188652000Y-75265466D03*
X189922000Y-75265466D03*
X191192000Y-75265466D03*
%TD*%
D18*
%TO.C,RN1*%
X163445000Y-98000000D03*
D19*
X163445000Y-97200000D03*
X163445000Y-96400000D03*
D18*
X163445000Y-95600000D03*
X160905000Y-95600000D03*
D19*
X160905000Y-96400000D03*
X160905000Y-97200000D03*
D18*
X160905000Y-98000000D03*
%TD*%
D21*
%TO.C,R8*%
X219500000Y-79575000D03*
X219500000Y-77750000D03*
%TD*%
D20*
%TO.C,U3*%
X153078000Y-108350000D03*
X151810000Y-108350000D03*
X150540000Y-108350000D03*
X149270000Y-108350000D03*
X148000000Y-108350000D03*
X146730000Y-108350000D03*
X145460000Y-108350000D03*
X144190000Y-108350000D03*
X142920000Y-108350000D03*
X141650000Y-108350000D03*
X140380000Y-108350000D03*
X139110000Y-108350000D03*
X137840000Y-108350000D03*
X136570000Y-108350000D03*
X135300000Y-108350000D03*
X134030000Y-108350000D03*
X132760000Y-108350000D03*
X131490000Y-108350000D03*
X130220000Y-108350000D03*
X128950000Y-108350000D03*
X128950000Y-118320000D03*
X130220000Y-118320000D03*
X131490000Y-118320000D03*
X132760000Y-118320000D03*
X134030000Y-118320000D03*
X135300000Y-118320000D03*
X136570000Y-118320000D03*
X137840000Y-118320000D03*
X139110000Y-118320000D03*
X140380000Y-118320000D03*
X141650000Y-118320000D03*
X142920000Y-118320000D03*
X144190000Y-118320000D03*
X145460000Y-118320000D03*
X146730000Y-118320000D03*
X148000000Y-118320000D03*
X149270000Y-118320000D03*
X150540000Y-118320000D03*
X151810000Y-118320000D03*
X153080000Y-118320000D03*
%TD*%
%TO.C,U13*%
X152978000Y-65295466D03*
X151710000Y-65295466D03*
X150440000Y-65295466D03*
X149170000Y-65295466D03*
X147900000Y-65295466D03*
X146630000Y-65295466D03*
X145360000Y-65295466D03*
X144090000Y-65295466D03*
X142820000Y-65295466D03*
X141550000Y-65295466D03*
X140280000Y-65295466D03*
X139010000Y-65295466D03*
X137740000Y-65295466D03*
X136470000Y-65295466D03*
X135200000Y-65295466D03*
X133930000Y-65295466D03*
X132660000Y-65295466D03*
X131390000Y-65295466D03*
X130120000Y-65295466D03*
X128850000Y-65295466D03*
X128850000Y-75265466D03*
X130120000Y-75265466D03*
X131390000Y-75265466D03*
X132660000Y-75265466D03*
X133930000Y-75265466D03*
X135200000Y-75265466D03*
X136470000Y-75265466D03*
X137740000Y-75265466D03*
X139010000Y-75265466D03*
X140280000Y-75265466D03*
X141550000Y-75265466D03*
X142820000Y-75265466D03*
X144090000Y-75265466D03*
X145360000Y-75265466D03*
X146630000Y-75265466D03*
X147900000Y-75265466D03*
X149170000Y-75265466D03*
X150440000Y-75265466D03*
X151710000Y-75265466D03*
X152980000Y-75265466D03*
%TD*%
D22*
%TO.C,U1*%
X178709672Y-113429533D03*
X179209672Y-113429533D03*
X179709672Y-113429533D03*
X180209672Y-113429533D03*
X180709672Y-113429533D03*
X181209672Y-113429533D03*
X181709672Y-113429533D03*
X182209672Y-113429533D03*
X182709672Y-113429533D03*
X183209672Y-113429533D03*
X183709672Y-113429533D03*
X184209672Y-113429533D03*
X184709672Y-113429533D03*
X185209672Y-113429533D03*
X185709672Y-113429533D03*
X186209672Y-113429533D03*
X186709672Y-113429533D03*
X187209672Y-113429533D03*
X187709672Y-113429533D03*
X188209672Y-113429533D03*
X188709672Y-113429533D03*
X189209672Y-113429533D03*
X189709672Y-113429533D03*
X190209672Y-113429533D03*
X190709672Y-113429533D03*
X191209672Y-113429533D03*
X191709672Y-113429533D03*
X192209672Y-113429533D03*
X192709672Y-113429533D03*
X193209672Y-113429533D03*
X193709672Y-113429533D03*
X194209672Y-113429533D03*
X194709672Y-113429533D03*
X195209672Y-113429533D03*
X195709672Y-113429533D03*
X196209672Y-113429533D03*
X196709672Y-113429533D03*
X197209672Y-113429533D03*
X197709672Y-113429533D03*
X198209672Y-113429533D03*
X198709672Y-113429533D03*
X199209672Y-113429533D03*
X199709672Y-113429533D03*
X200209672Y-113429533D03*
X200709672Y-113429533D03*
X201209672Y-113429533D03*
X201709672Y-113429533D03*
X202209672Y-113429533D03*
X202709672Y-113429533D03*
X203209672Y-113429533D03*
X203709672Y-113429533D03*
X204209672Y-113429533D03*
D23*
X206534672Y-111079533D03*
X206534672Y-110579533D03*
X206534672Y-110079533D03*
X206534672Y-109579533D03*
X206534672Y-109079533D03*
X206534672Y-108579533D03*
X206534672Y-108079533D03*
X206534672Y-107579533D03*
X206534672Y-107079533D03*
X206534672Y-106579533D03*
X206534672Y-106079533D03*
X206534672Y-105579533D03*
X206534672Y-105079533D03*
X206534672Y-104579533D03*
X206534672Y-104079533D03*
X206534672Y-103579533D03*
X206534672Y-103079533D03*
X206534672Y-102579533D03*
X206534672Y-102079533D03*
X206534672Y-101579533D03*
X206534672Y-101079533D03*
X206534672Y-100579533D03*
X206534672Y-100079533D03*
X206534672Y-99579533D03*
X206534672Y-99079533D03*
X206534672Y-98579533D03*
X206534672Y-98079533D03*
X206534672Y-97579533D03*
X206534672Y-97079533D03*
X206534672Y-96579533D03*
X206534672Y-96079533D03*
X206534672Y-95579533D03*
X206534672Y-95079533D03*
X206534672Y-94579533D03*
X206534672Y-94079533D03*
X206534672Y-93579533D03*
X206534672Y-93079533D03*
X206534672Y-92579533D03*
X206534672Y-92079533D03*
X206534672Y-91579533D03*
X206534672Y-91079533D03*
X206534672Y-90579533D03*
X206534672Y-90079533D03*
X206534672Y-89579533D03*
X206534672Y-89079533D03*
X206534672Y-88579533D03*
X206534672Y-88079533D03*
X206534672Y-87579533D03*
X206534672Y-87079533D03*
X206534672Y-86579533D03*
X206534672Y-86079533D03*
X206534672Y-85579533D03*
D22*
X204209672Y-83254533D03*
X203709672Y-83254533D03*
X203209672Y-83254533D03*
X202709672Y-83254533D03*
X202209672Y-83254533D03*
X201709672Y-83254533D03*
X201209672Y-83254533D03*
X200709672Y-83254533D03*
X200209672Y-83254533D03*
X199709672Y-83254533D03*
X199209672Y-83254533D03*
X198709672Y-83254533D03*
X198209672Y-83254533D03*
X197709672Y-83254533D03*
X197209672Y-83254533D03*
X196709672Y-83254533D03*
X196209672Y-83254533D03*
X195709672Y-83254533D03*
X195209672Y-83254533D03*
X194709672Y-83254533D03*
X194209672Y-83254533D03*
X193709672Y-83254533D03*
X193209672Y-83254533D03*
X192709672Y-83254533D03*
X192209672Y-83254533D03*
X191709672Y-83254533D03*
X191209672Y-83254533D03*
X190709672Y-83254533D03*
X190209672Y-83254533D03*
X189709672Y-83254533D03*
X189209672Y-83254533D03*
X188709672Y-83254533D03*
X188209672Y-83254533D03*
X187709672Y-83254533D03*
X187209672Y-83254533D03*
X186709672Y-83254533D03*
X186209672Y-83254533D03*
X185709672Y-83254533D03*
X185209672Y-83254533D03*
X184709672Y-83254533D03*
X184209672Y-83254533D03*
X183709672Y-83254533D03*
X183209672Y-83254533D03*
X182709672Y-83254533D03*
X182209672Y-83254533D03*
X181709672Y-83254533D03*
X181209672Y-83254533D03*
X180709672Y-83254533D03*
X180209672Y-83254533D03*
X179709672Y-83254533D03*
X179209672Y-83254533D03*
X178709672Y-83254533D03*
D23*
X176359672Y-85579533D03*
X176359672Y-86079533D03*
X176359672Y-86579533D03*
X176359672Y-87079533D03*
X176359672Y-87579533D03*
X176359672Y-88079533D03*
X176359672Y-88579533D03*
X176359672Y-89079533D03*
X176359672Y-89579533D03*
X176359672Y-90079533D03*
X176359672Y-90579533D03*
X176359672Y-91079533D03*
X176359672Y-91579533D03*
X176359672Y-92079533D03*
X176359672Y-92579533D03*
X176359672Y-93079533D03*
X176359672Y-93579533D03*
X176359672Y-94079533D03*
X176359672Y-94579533D03*
X176359672Y-95079533D03*
X176359672Y-95579533D03*
X176359672Y-96079533D03*
X176359672Y-96579533D03*
X176359672Y-97079533D03*
X176359672Y-97579533D03*
X176359672Y-98079533D03*
X176359672Y-98579533D03*
X176359672Y-99079533D03*
X176359672Y-99579533D03*
X176359672Y-100079533D03*
X176359672Y-100579533D03*
X176359672Y-101079533D03*
X176359672Y-101579533D03*
X176359672Y-102079533D03*
X176359672Y-102579533D03*
X176359672Y-103079533D03*
X176359672Y-103579533D03*
X176359672Y-104079533D03*
X176359672Y-104579533D03*
X176359672Y-105079533D03*
X176359672Y-105579533D03*
X176359672Y-106079533D03*
X176359672Y-106579533D03*
X176359672Y-107079533D03*
X176359672Y-107579533D03*
X176359672Y-108079533D03*
X176359672Y-108579533D03*
X176359672Y-109079533D03*
X176359672Y-109579533D03*
X176359672Y-110079533D03*
X176359672Y-110579533D03*
X176359672Y-111079533D03*
%TD*%
D24*
%TO.C,U9*%
X220204534Y-70345000D03*
X220204534Y-71615000D03*
X220204534Y-72885000D03*
X220204534Y-74155000D03*
D25*
X226204534Y-74152500D03*
D24*
X226204534Y-72885000D03*
X226204534Y-71615000D03*
D25*
X226204534Y-70347500D03*
%TD*%
D26*
%TO.C,C21*%
X181753249Y-121046751D03*
X183096751Y-119703249D03*
%TD*%
D16*
%TO.C,C29*%
X252400000Y-94025000D03*
X252400000Y-92125000D03*
%TD*%
D27*
%TO.C,R7*%
X201220518Y-77500000D03*
X203045518Y-77500000D03*
%TD*%
D17*
%TO.C,R32*%
X217250000Y-70787500D03*
X217250000Y-72612500D03*
%TD*%
D11*
%TO.C,C43*%
X139950000Y-86700000D03*
X141850000Y-86700000D03*
%TD*%
D24*
%TO.C,U11*%
X200204534Y-70345000D03*
X200204534Y-71615000D03*
X200204534Y-72885000D03*
X200204534Y-74155000D03*
D25*
X206204534Y-74152500D03*
D24*
X206204534Y-72885000D03*
X206204534Y-71615000D03*
D25*
X206204534Y-70347500D03*
%TD*%
D28*
%TO.C,FB2*%
X255337500Y-87925000D03*
X257462500Y-87925000D03*
%TD*%
%TO.C,FB3*%
X255337500Y-92125000D03*
X257462500Y-92125000D03*
%TD*%
%TO.C,FB1*%
X255362500Y-83775000D03*
X257487500Y-83775000D03*
%TD*%
D11*
%TO.C,C26*%
X124450000Y-90700000D03*
X126350000Y-90700000D03*
%TD*%
%TO.C,C55*%
X139950000Y-61500000D03*
X141850000Y-61500000D03*
%TD*%
D20*
%TO.C,U12*%
X152998000Y-90650000D03*
X151730000Y-90650000D03*
X150460000Y-90650000D03*
X149190000Y-90650000D03*
X147920000Y-90650000D03*
X146650000Y-90650000D03*
X145380000Y-90650000D03*
X144110000Y-90650000D03*
X142840000Y-90650000D03*
X141570000Y-90650000D03*
X140300000Y-90650000D03*
X139030000Y-90650000D03*
X137760000Y-90650000D03*
X136490000Y-90650000D03*
X135220000Y-90650000D03*
X133950000Y-90650000D03*
X132680000Y-90650000D03*
X131410000Y-90650000D03*
X130140000Y-90650000D03*
X128870000Y-90650000D03*
X128870000Y-100620000D03*
X130140000Y-100620000D03*
X131410000Y-100620000D03*
X132680000Y-100620000D03*
X133950000Y-100620000D03*
X135220000Y-100620000D03*
X136490000Y-100620000D03*
X137760000Y-100620000D03*
X139030000Y-100620000D03*
X140300000Y-100620000D03*
X141570000Y-100620000D03*
X142840000Y-100620000D03*
X144110000Y-100620000D03*
X145380000Y-100620000D03*
X146650000Y-100620000D03*
X147920000Y-100620000D03*
X149190000Y-100620000D03*
X150460000Y-100620000D03*
X151730000Y-100620000D03*
X153000000Y-100620000D03*
%TD*%
D11*
%TO.C,C45*%
X124550000Y-65250000D03*
X126450000Y-65250000D03*
%TD*%
D21*
%TO.C,R31*%
X215250000Y-72612500D03*
X215250000Y-70787500D03*
%TD*%
D16*
%TO.C,C28*%
X252400000Y-89825000D03*
X252400000Y-87925000D03*
%TD*%
D11*
%TO.C,C1*%
X171800000Y-114450000D03*
X173700000Y-114450000D03*
%TD*%
D29*
%TO.C,U6*%
X228475000Y-123500000D03*
X229125000Y-123500000D03*
X229775000Y-123500000D03*
X230425000Y-123500000D03*
X231075000Y-123500000D03*
X231725000Y-123500000D03*
X232375000Y-123500000D03*
X233025000Y-123500000D03*
X233675000Y-123500000D03*
X234325000Y-123500000D03*
X234325000Y-116500000D03*
X233675000Y-116500000D03*
X233025000Y-116500000D03*
X232375000Y-116500000D03*
X231725000Y-116500000D03*
X231075000Y-116500000D03*
X230425000Y-116500000D03*
X229775000Y-116500000D03*
X229125000Y-116500000D03*
X228475000Y-116500000D03*
%TD*%
D16*
%TO.C,C31*%
X259600000Y-89900000D03*
X259600000Y-88000000D03*
%TD*%
D17*
%TO.C,R10*%
X197300000Y-72387500D03*
X197300000Y-74212500D03*
%TD*%
D16*
%TO.C,C30*%
X259600000Y-85675000D03*
X259600000Y-83775000D03*
%TD*%
D11*
%TO.C,C20*%
X258050000Y-96500000D03*
X259950000Y-96500000D03*
%TD*%
%TO.C,C23*%
X258050000Y-99225000D03*
X259950000Y-99225000D03*
%TD*%
D16*
%TO.C,C27*%
X252400000Y-85600000D03*
X252400000Y-83700000D03*
%TD*%
%TO.C,C33*%
X209106509Y-72672532D03*
X209106509Y-70772532D03*
%TD*%
M02*
