%TF.GenerationSoftware,KiCad,Pcbnew,9.0.3+1*%
%TF.CreationDate,2025-09-04T08:11:30-07:00*%
%TF.ProjectId,cardshark-isa,63617264-7368-4617-926b-2d6973612e6b,rev?*%
%TF.SameCoordinates,Original*%
%TF.FileFunction,Soldermask,Top*%
%TF.FilePolarity,Negative*%
%FSLAX46Y46*%
G04 Gerber Fmt 4.6, Leading zero omitted, Abs format (unit mm)*
G04 Created by KiCad (PCBNEW 9.0.3+1) date 2025-09-04 08:11:30*
%MOMM*%
%LPD*%
G01*
G04 APERTURE LIST*
G04 Aperture macros list*
%AMRoundRect*
0 Rectangle with rounded corners*
0 $1 Rounding radius*
0 $2 $3 $4 $5 $6 $7 $8 $9 X,Y pos of 4 corners*
0 Add a 4 corners polygon primitive as box body*
4,1,4,$2,$3,$4,$5,$6,$7,$8,$9,$2,$3,0*
0 Add four circle primitives for the rounded corners*
1,1,$1+$1,$2,$3*
1,1,$1+$1,$4,$5*
1,1,$1+$1,$6,$7*
1,1,$1+$1,$8,$9*
0 Add four rect primitives between the rounded corners*
20,1,$1+$1,$2,$3,$4,$5,0*
20,1,$1+$1,$4,$5,$6,$7,0*
20,1,$1+$1,$6,$7,$8,$9,0*
20,1,$1+$1,$8,$9,$2,$3,0*%
G04 Aperture macros list end*
%ADD10RoundRect,0.250000X-0.250000X-0.475000X0.250000X-0.475000X0.250000X0.475000X-0.250000X0.475000X0*%
%ADD11R,1.000000X1.000000*%
%ADD12RoundRect,0.250000X0.250000X0.475000X-0.250000X0.475000X-0.250000X-0.475000X0.250000X-0.475000X0*%
%ADD13RoundRect,0.249998X0.450002X-0.262502X0.450002X0.262502X-0.450002X0.262502X-0.450002X-0.262502X0*%
%ADD14C,2.000000*%
%ADD15RoundRect,0.249998X-0.262502X-0.450002X0.262502X-0.450002X0.262502X0.450002X-0.262502X0.450002X0*%
%ADD16R,1.700000X1.700000*%
%ADD17O,1.700000X1.700000*%
%ADD18RoundRect,0.250000X0.475000X-0.250000X0.475000X0.250000X-0.475000X0.250000X-0.475000X-0.250000X0*%
%ADD19RoundRect,0.250000X-0.450000X0.262500X-0.450000X-0.262500X0.450000X-0.262500X0.450000X0.262500X0*%
%ADD20C,4.450000*%
%ADD21RoundRect,0.102000X0.847500X-0.847500X0.847500X0.847500X-0.847500X0.847500X-0.847500X-0.847500X0*%
%ADD22C,1.899000*%
%ADD23RoundRect,0.150000X-0.150000X1.475000X-0.150000X-1.475000X0.150000X-1.475000X0.150000X1.475000X0*%
%ADD24R,1.600000X1.600000*%
%ADD25O,1.600000X1.600000*%
%ADD26RoundRect,0.250000X0.450000X-0.262500X0.450000X0.262500X-0.450000X0.262500X-0.450000X-0.262500X0*%
%ADD27RoundRect,0.150000X1.475000X0.150000X-1.475000X0.150000X-1.475000X-0.150000X1.475000X-0.150000X0*%
%ADD28RoundRect,0.075000X0.075000X-0.800000X0.075000X0.800000X-0.075000X0.800000X-0.075000X-0.800000X0*%
%ADD29RoundRect,0.075000X0.800000X-0.075000X0.800000X0.075000X-0.800000X0.075000X-0.800000X-0.075000X0*%
%ADD30RoundRect,0.150000X-1.350000X-0.150000X1.350000X-0.150000X1.350000X0.150000X-1.350000X0.150000X0*%
%ADD31RoundRect,0.151250X-1.348750X-0.151250X1.348750X-0.151250X1.348750X0.151250X-1.348750X0.151250X0*%
%ADD32RoundRect,0.250000X0.159099X-0.512652X0.512652X-0.159099X-0.159099X0.512652X-0.512652X0.159099X0*%
%ADD33RoundRect,0.250000X-0.262500X-0.450000X0.262500X-0.450000X0.262500X0.450000X-0.262500X0.450000X0*%
%ADD34RoundRect,0.218750X-0.218750X-0.381250X0.218750X-0.381250X0.218750X0.381250X-0.218750X0.381250X0*%
%ADD35R,1.780000X7.620000*%
%ADD36RoundRect,0.125000X0.125000X-0.825000X0.125000X0.825000X-0.125000X0.825000X-0.125000X-0.825000X0*%
G04 APERTURE END LIST*
D10*
%TO.C,C14*%
X189250000Y-61345466D03*
X191150000Y-61345466D03*
%TD*%
%TO.C,C15*%
X182950001Y-61345466D03*
X184849999Y-61345466D03*
%TD*%
%TO.C,C13*%
X165200000Y-61345466D03*
X167100000Y-61345466D03*
%TD*%
D11*
%TO.C,D1*%
X216604534Y-77850000D03*
X216604534Y-75350000D03*
%TD*%
D12*
%TO.C,C37*%
X173699999Y-95400000D03*
X171800001Y-95400000D03*
%TD*%
D13*
%TO.C,R21*%
X219500000Y-93825000D03*
X219500000Y-92000000D03*
%TD*%
%TO.C,R22*%
X219500000Y-89825000D03*
X219500000Y-88000000D03*
%TD*%
%TO.C,R24*%
X219500000Y-85325000D03*
X219500000Y-83500000D03*
%TD*%
D14*
%TO.C,FID1*%
X272250000Y-73000000D03*
%TD*%
%TO.C,FID2*%
X272500000Y-127000000D03*
%TD*%
%TO.C,FID3*%
X128750000Y-64750000D03*
%TD*%
D13*
%TO.C,R16*%
X211100000Y-72162500D03*
X211100000Y-70337500D03*
%TD*%
D15*
%TO.C,R14*%
X226587500Y-99250000D03*
X228412500Y-99250000D03*
%TD*%
%TO.C,R15*%
X226587500Y-96550000D03*
X228412500Y-96550000D03*
%TD*%
D16*
%TO.C,J1*%
X239250000Y-61300000D03*
D17*
X239250000Y-63840000D03*
X236710000Y-61300000D03*
X236710000Y-63840000D03*
X234170000Y-61300000D03*
X234170000Y-63840000D03*
X231630000Y-61300000D03*
X231630000Y-63840000D03*
X229090000Y-61300000D03*
X229090000Y-63840000D03*
X226550000Y-61300000D03*
X226550000Y-63840000D03*
X224010000Y-61300000D03*
X224010000Y-63840000D03*
X221470000Y-61300000D03*
X221470000Y-63840000D03*
X218930000Y-61300000D03*
X218930000Y-63840000D03*
X216390000Y-61300000D03*
X216390000Y-63840000D03*
X213850000Y-61300000D03*
X213850000Y-63840000D03*
X211310000Y-61300000D03*
X211310000Y-63840000D03*
X208770000Y-61300000D03*
X208770000Y-63840000D03*
%TD*%
D18*
%TO.C,C32*%
X259600000Y-94100000D03*
X259600000Y-92200000D03*
%TD*%
D19*
%TO.C,R9*%
X195250000Y-70337500D03*
X195250000Y-72162500D03*
%TD*%
D20*
%TO.C,J3*%
X269425000Y-102725000D03*
X269425000Y-77735000D03*
D21*
X266925000Y-85875000D03*
D22*
X266925000Y-88165000D03*
X266925000Y-90455000D03*
X266925000Y-92745000D03*
X266925000Y-95035000D03*
X269425000Y-84730000D03*
X269425000Y-87020000D03*
X269425000Y-89310000D03*
X269425000Y-91600000D03*
X269425000Y-93890000D03*
X271925000Y-85875000D03*
X271925000Y-88165000D03*
X271925000Y-90455000D03*
X271925000Y-92745000D03*
X271925000Y-95035000D03*
%TD*%
D23*
%TO.C,U7*%
X191190000Y-65295466D03*
X189922000Y-65295466D03*
X188652000Y-65295466D03*
X187382000Y-65295466D03*
X186112000Y-65295466D03*
X184842000Y-65295466D03*
X183572000Y-65295466D03*
X182302000Y-65295466D03*
X181032000Y-65295466D03*
X179762000Y-65295466D03*
X178492000Y-65295466D03*
X177222000Y-65295466D03*
X175952000Y-65295466D03*
X174682000Y-65295466D03*
X173412000Y-65295466D03*
X172142000Y-65295466D03*
X170872000Y-65295466D03*
X169602000Y-65295466D03*
X168332000Y-65295466D03*
X167062000Y-65295466D03*
X167062000Y-75265466D03*
X168332000Y-75265466D03*
X169602000Y-75265466D03*
X170872000Y-75265466D03*
X172142000Y-75265466D03*
X173412000Y-75265466D03*
X174682000Y-75265466D03*
X175952000Y-75265466D03*
X177222000Y-75265466D03*
X178492000Y-75265466D03*
X179762000Y-75265466D03*
X181032000Y-75265466D03*
X182302000Y-75265466D03*
X183572000Y-75265466D03*
X184842000Y-75265466D03*
X186112000Y-75265466D03*
X187382000Y-75265466D03*
X188652000Y-75265466D03*
X189922000Y-75265466D03*
X191192000Y-75265466D03*
%TD*%
D24*
%TO.C,U2*%
X270600000Y-108500000D03*
D25*
X268060000Y-108500000D03*
X265520000Y-108500000D03*
X262980000Y-108500000D03*
X260440000Y-108500000D03*
X257900000Y-108500000D03*
X255360000Y-108500000D03*
X252820000Y-108500000D03*
X250280000Y-108500000D03*
X247740000Y-108500000D03*
X245200000Y-108500000D03*
X242660000Y-108500000D03*
X240120000Y-108500000D03*
X237580000Y-108500000D03*
X237580000Y-123740000D03*
X240120000Y-123740000D03*
X242660000Y-123740000D03*
X245200000Y-123740000D03*
X247740000Y-123740000D03*
X250280000Y-123740000D03*
X252820000Y-123740000D03*
X255360000Y-123740000D03*
X257900000Y-123740000D03*
X260440000Y-123740000D03*
X262980000Y-123740000D03*
X265520000Y-123740000D03*
X268060000Y-123740000D03*
X270600000Y-123740000D03*
%TD*%
D26*
%TO.C,R8*%
X219500000Y-79575000D03*
X219500000Y-77750000D03*
%TD*%
D27*
%TO.C,U3*%
X139300000Y-113290000D03*
X139300000Y-112022000D03*
X139300000Y-110752000D03*
X139300000Y-109482000D03*
X139300000Y-108212000D03*
X139300000Y-106942000D03*
X139300000Y-105672000D03*
X139300000Y-104402000D03*
X139300000Y-103132000D03*
X139300000Y-101862000D03*
X139300000Y-100592000D03*
X139300000Y-99322000D03*
X139300000Y-98052000D03*
X139300000Y-96782000D03*
X139300000Y-95512000D03*
X139300000Y-94242000D03*
X139300000Y-92972000D03*
X139300000Y-91702000D03*
X139300000Y-90432000D03*
X139300000Y-89162000D03*
X129330000Y-89162000D03*
X129330000Y-90432000D03*
X129330000Y-91702000D03*
X129330000Y-92972000D03*
X129330000Y-94242000D03*
X129330000Y-95512000D03*
X129330000Y-96782000D03*
X129330000Y-98052000D03*
X129330000Y-99322000D03*
X129330000Y-100592000D03*
X129330000Y-101862000D03*
X129330000Y-103132000D03*
X129330000Y-104402000D03*
X129330000Y-105672000D03*
X129330000Y-106942000D03*
X129330000Y-108212000D03*
X129330000Y-109482000D03*
X129330000Y-110752000D03*
X129330000Y-112022000D03*
X129330000Y-113292000D03*
%TD*%
D23*
%TO.C,U13*%
X160190000Y-65295466D03*
X158922000Y-65295466D03*
X157652000Y-65295466D03*
X156382000Y-65295466D03*
X155112000Y-65295466D03*
X153842000Y-65295466D03*
X152572000Y-65295466D03*
X151302000Y-65295466D03*
X150032000Y-65295466D03*
X148762000Y-65295466D03*
X147492000Y-65295466D03*
X146222000Y-65295466D03*
X144952000Y-65295466D03*
X143682000Y-65295466D03*
X142412000Y-65295466D03*
X141142000Y-65295466D03*
X139872000Y-65295466D03*
X138602000Y-65295466D03*
X137332000Y-65295466D03*
X136062000Y-65295466D03*
X136062000Y-75265466D03*
X137332000Y-75265466D03*
X138602000Y-75265466D03*
X139872000Y-75265466D03*
X141142000Y-75265466D03*
X142412000Y-75265466D03*
X143682000Y-75265466D03*
X144952000Y-75265466D03*
X146222000Y-75265466D03*
X147492000Y-75265466D03*
X148762000Y-75265466D03*
X150032000Y-75265466D03*
X151302000Y-75265466D03*
X152572000Y-75265466D03*
X153842000Y-75265466D03*
X155112000Y-75265466D03*
X156382000Y-75265466D03*
X157652000Y-75265466D03*
X158922000Y-75265466D03*
X160192000Y-75265466D03*
%TD*%
D28*
%TO.C,U1*%
X178709672Y-113429533D03*
X179209672Y-113429533D03*
X179709672Y-113429533D03*
X180209672Y-113429533D03*
X180709672Y-113429533D03*
X181209672Y-113429533D03*
X181709672Y-113429533D03*
X182209672Y-113429533D03*
X182709672Y-113429533D03*
X183209672Y-113429533D03*
X183709672Y-113429533D03*
X184209672Y-113429533D03*
X184709672Y-113429533D03*
X185209672Y-113429533D03*
X185709672Y-113429533D03*
X186209672Y-113429533D03*
X186709672Y-113429533D03*
X187209672Y-113429533D03*
X187709672Y-113429533D03*
X188209672Y-113429533D03*
X188709672Y-113429533D03*
X189209672Y-113429533D03*
X189709672Y-113429533D03*
X190209672Y-113429533D03*
X190709672Y-113429533D03*
X191209672Y-113429533D03*
X191709672Y-113429533D03*
X192209672Y-113429533D03*
X192709672Y-113429533D03*
X193209672Y-113429533D03*
X193709672Y-113429533D03*
X194209672Y-113429533D03*
X194709672Y-113429533D03*
X195209672Y-113429533D03*
X195709672Y-113429533D03*
X196209672Y-113429533D03*
X196709672Y-113429533D03*
X197209672Y-113429533D03*
X197709672Y-113429533D03*
X198209672Y-113429533D03*
X198709672Y-113429533D03*
X199209672Y-113429533D03*
X199709672Y-113429533D03*
X200209672Y-113429533D03*
X200709672Y-113429533D03*
X201209672Y-113429533D03*
X201709672Y-113429533D03*
X202209672Y-113429533D03*
X202709672Y-113429533D03*
X203209672Y-113429533D03*
X203709672Y-113429533D03*
X204209672Y-113429533D03*
D29*
X206534672Y-111079533D03*
X206534672Y-110579533D03*
X206534672Y-110079533D03*
X206534672Y-109579533D03*
X206534672Y-109079533D03*
X206534672Y-108579533D03*
X206534672Y-108079533D03*
X206534672Y-107579533D03*
X206534672Y-107079533D03*
X206534672Y-106579533D03*
X206534672Y-106079533D03*
X206534672Y-105579533D03*
X206534672Y-105079533D03*
X206534672Y-104579533D03*
X206534672Y-104079533D03*
X206534672Y-103579533D03*
X206534672Y-103079533D03*
X206534672Y-102579533D03*
X206534672Y-102079533D03*
X206534672Y-101579533D03*
X206534672Y-101079533D03*
X206534672Y-100579533D03*
X206534672Y-100079533D03*
X206534672Y-99579533D03*
X206534672Y-99079533D03*
X206534672Y-98579533D03*
X206534672Y-98079533D03*
X206534672Y-97579533D03*
X206534672Y-97079533D03*
X206534672Y-96579533D03*
X206534672Y-96079533D03*
X206534672Y-95579533D03*
X206534672Y-95079533D03*
X206534672Y-94579533D03*
X206534672Y-94079533D03*
X206534672Y-93579533D03*
X206534672Y-93079533D03*
X206534672Y-92579533D03*
X206534672Y-92079533D03*
X206534672Y-91579533D03*
X206534672Y-91079533D03*
X206534672Y-90579533D03*
X206534672Y-90079533D03*
X206534672Y-89579533D03*
X206534672Y-89079533D03*
X206534672Y-88579533D03*
X206534672Y-88079533D03*
X206534672Y-87579533D03*
X206534672Y-87079533D03*
X206534672Y-86579533D03*
X206534672Y-86079533D03*
X206534672Y-85579533D03*
D28*
X204209672Y-83254533D03*
X203709672Y-83254533D03*
X203209672Y-83254533D03*
X202709672Y-83254533D03*
X202209672Y-83254533D03*
X201709672Y-83254533D03*
X201209672Y-83254533D03*
X200709672Y-83254533D03*
X200209672Y-83254533D03*
X199709672Y-83254533D03*
X199209672Y-83254533D03*
X198709672Y-83254533D03*
X198209672Y-83254533D03*
X197709672Y-83254533D03*
X197209672Y-83254533D03*
X196709672Y-83254533D03*
X196209672Y-83254533D03*
X195709672Y-83254533D03*
X195209672Y-83254533D03*
X194709672Y-83254533D03*
X194209672Y-83254533D03*
X193709672Y-83254533D03*
X193209672Y-83254533D03*
X192709672Y-83254533D03*
X192209672Y-83254533D03*
X191709672Y-83254533D03*
X191209672Y-83254533D03*
X190709672Y-83254533D03*
X190209672Y-83254533D03*
X189709672Y-83254533D03*
X189209672Y-83254533D03*
X188709672Y-83254533D03*
X188209672Y-83254533D03*
X187709672Y-83254533D03*
X187209672Y-83254533D03*
X186709672Y-83254533D03*
X186209672Y-83254533D03*
X185709672Y-83254533D03*
X185209672Y-83254533D03*
X184709672Y-83254533D03*
X184209672Y-83254533D03*
X183709672Y-83254533D03*
X183209672Y-83254533D03*
X182709672Y-83254533D03*
X182209672Y-83254533D03*
X181709672Y-83254533D03*
X181209672Y-83254533D03*
X180709672Y-83254533D03*
X180209672Y-83254533D03*
X179709672Y-83254533D03*
X179209672Y-83254533D03*
X178709672Y-83254533D03*
D29*
X176359672Y-85579533D03*
X176359672Y-86079533D03*
X176359672Y-86579533D03*
X176359672Y-87079533D03*
X176359672Y-87579533D03*
X176359672Y-88079533D03*
X176359672Y-88579533D03*
X176359672Y-89079533D03*
X176359672Y-89579533D03*
X176359672Y-90079533D03*
X176359672Y-90579533D03*
X176359672Y-91079533D03*
X176359672Y-91579533D03*
X176359672Y-92079533D03*
X176359672Y-92579533D03*
X176359672Y-93079533D03*
X176359672Y-93579533D03*
X176359672Y-94079533D03*
X176359672Y-94579533D03*
X176359672Y-95079533D03*
X176359672Y-95579533D03*
X176359672Y-96079533D03*
X176359672Y-96579533D03*
X176359672Y-97079533D03*
X176359672Y-97579533D03*
X176359672Y-98079533D03*
X176359672Y-98579533D03*
X176359672Y-99079533D03*
X176359672Y-99579533D03*
X176359672Y-100079533D03*
X176359672Y-100579533D03*
X176359672Y-101079533D03*
X176359672Y-101579533D03*
X176359672Y-102079533D03*
X176359672Y-102579533D03*
X176359672Y-103079533D03*
X176359672Y-103579533D03*
X176359672Y-104079533D03*
X176359672Y-104579533D03*
X176359672Y-105079533D03*
X176359672Y-105579533D03*
X176359672Y-106079533D03*
X176359672Y-106579533D03*
X176359672Y-107079533D03*
X176359672Y-107579533D03*
X176359672Y-108079533D03*
X176359672Y-108579533D03*
X176359672Y-109079533D03*
X176359672Y-109579533D03*
X176359672Y-110079533D03*
X176359672Y-110579533D03*
X176359672Y-111079533D03*
%TD*%
D30*
%TO.C,U9*%
X220204534Y-69845000D03*
X220204534Y-71115000D03*
X220204534Y-72385000D03*
X220204534Y-73655000D03*
D31*
X226204534Y-73652500D03*
D30*
X226204534Y-72385000D03*
X226204534Y-71115000D03*
D31*
X226204534Y-69847500D03*
%TD*%
D10*
%TO.C,C54*%
X158350000Y-61345466D03*
X160250000Y-61345466D03*
%TD*%
D32*
%TO.C,C21*%
X182078249Y-120246751D03*
X183421751Y-118903249D03*
%TD*%
D18*
%TO.C,C29*%
X252400000Y-94025000D03*
X252400000Y-92125000D03*
%TD*%
D33*
%TO.C,R7*%
X201220518Y-77500000D03*
X203045518Y-77500000D03*
%TD*%
D19*
%TO.C,R32*%
X217250000Y-70337500D03*
X217250000Y-72162500D03*
%TD*%
D30*
%TO.C,U11*%
X200204534Y-69845000D03*
X200204534Y-71115000D03*
X200204534Y-72385000D03*
X200204534Y-73655000D03*
D31*
X206204534Y-73652500D03*
D30*
X206204534Y-72385000D03*
X206204534Y-71115000D03*
D31*
X206204534Y-69847500D03*
%TD*%
D16*
%TO.C,JP1*%
X247425000Y-127550000D03*
D17*
X244885000Y-127550000D03*
%TD*%
D34*
%TO.C,FB2*%
X255337500Y-87925000D03*
X257462500Y-87925000D03*
%TD*%
%TO.C,FB3*%
X255337500Y-92125000D03*
X257462500Y-92125000D03*
%TD*%
D35*
%TO.C,J4*%
X253800000Y-135500000D03*
X251260000Y-135500000D03*
X248720000Y-135500000D03*
X246180000Y-135500000D03*
X243640000Y-135500000D03*
X241100000Y-135500000D03*
X238560000Y-135500000D03*
X236020000Y-135500000D03*
X233480000Y-135500000D03*
X230940000Y-135500000D03*
X228400000Y-135500000D03*
X225860000Y-135500000D03*
X223320000Y-135500000D03*
X220780000Y-135500000D03*
X218240000Y-135500000D03*
X215700000Y-135500000D03*
X213160000Y-135500000D03*
X210620000Y-135500000D03*
X208080000Y-135500000D03*
X205540000Y-135500000D03*
X203000000Y-135500000D03*
X200460000Y-135500000D03*
X197920000Y-135500000D03*
X195380000Y-135500000D03*
X192840000Y-135500000D03*
X190300000Y-135500000D03*
X187760000Y-135500000D03*
X185220000Y-135500000D03*
X182680000Y-135500000D03*
X180140000Y-135500000D03*
X177600000Y-135500000D03*
X167440000Y-135500000D03*
X164900000Y-135500000D03*
X162360000Y-135500000D03*
X159820000Y-135500000D03*
X157280000Y-135500000D03*
X154740000Y-135500000D03*
X152200000Y-135500000D03*
X149660000Y-135500000D03*
X147120000Y-135500000D03*
X144580000Y-135500000D03*
X142040000Y-135500000D03*
X139500000Y-135500000D03*
X136960000Y-135500000D03*
X134420000Y-135500000D03*
X131880000Y-135500000D03*
X129340000Y-135500000D03*
X126800000Y-135500000D03*
X124260000Y-135500000D03*
%TD*%
D34*
%TO.C,FB1*%
X255362500Y-83775000D03*
X257487500Y-83775000D03*
%TD*%
D16*
%TO.C,JP2*%
X241000000Y-127550000D03*
D17*
X238460000Y-127550000D03*
%TD*%
D12*
%TO.C,C55*%
X155750000Y-61345466D03*
X153850000Y-61345466D03*
%TD*%
D27*
%TO.C,U12*%
X159050000Y-113190000D03*
X159050000Y-111922000D03*
X159050000Y-110652000D03*
X159050000Y-109382000D03*
X159050000Y-108112000D03*
X159050000Y-106842000D03*
X159050000Y-105572000D03*
X159050000Y-104302000D03*
X159050000Y-103032000D03*
X159050000Y-101762000D03*
X159050000Y-100492000D03*
X159050000Y-99222000D03*
X159050000Y-97952000D03*
X159050000Y-96682000D03*
X159050000Y-95412000D03*
X159050000Y-94142000D03*
X159050000Y-92872000D03*
X159050000Y-91602000D03*
X159050000Y-90332000D03*
X159050000Y-89062000D03*
X149080000Y-89062000D03*
X149080000Y-90332000D03*
X149080000Y-91602000D03*
X149080000Y-92872000D03*
X149080000Y-94142000D03*
X149080000Y-95412000D03*
X149080000Y-96682000D03*
X149080000Y-97952000D03*
X149080000Y-99222000D03*
X149080000Y-100492000D03*
X149080000Y-101762000D03*
X149080000Y-103032000D03*
X149080000Y-104302000D03*
X149080000Y-105572000D03*
X149080000Y-106842000D03*
X149080000Y-108112000D03*
X149080000Y-109382000D03*
X149080000Y-110652000D03*
X149080000Y-111922000D03*
X149080000Y-113192000D03*
%TD*%
D10*
%TO.C,C45*%
X134150000Y-61345466D03*
X136050000Y-61345466D03*
%TD*%
D26*
%TO.C,R31*%
X215250000Y-72162500D03*
X215250000Y-70337500D03*
%TD*%
D18*
%TO.C,C28*%
X252400000Y-89825000D03*
X252400000Y-87925000D03*
%TD*%
D10*
%TO.C,C1*%
X171800000Y-114450000D03*
X173700000Y-114450000D03*
%TD*%
D36*
%TO.C,U6*%
X228475000Y-123500000D03*
X229125000Y-123500000D03*
X229775000Y-123500000D03*
X230425000Y-123500000D03*
X231075000Y-123500000D03*
X231725000Y-123500000D03*
X232375000Y-123500000D03*
X233025000Y-123500000D03*
X233675000Y-123500000D03*
X234325000Y-123500000D03*
X234325000Y-116500000D03*
X233675000Y-116500000D03*
X233025000Y-116500000D03*
X232375000Y-116500000D03*
X231725000Y-116500000D03*
X231075000Y-116500000D03*
X230425000Y-116500000D03*
X229775000Y-116500000D03*
X229125000Y-116500000D03*
X228475000Y-116500000D03*
%TD*%
D18*
%TO.C,C31*%
X259600000Y-89900000D03*
X259600000Y-88000000D03*
%TD*%
D19*
%TO.C,R10*%
X197200000Y-70337500D03*
X197200000Y-72162500D03*
%TD*%
D18*
%TO.C,C30*%
X259600000Y-85675000D03*
X259600000Y-83775000D03*
%TD*%
D10*
%TO.C,C20*%
X258050000Y-96500000D03*
X259950000Y-96500000D03*
%TD*%
%TO.C,C23*%
X258050000Y-99225000D03*
X259950000Y-99225000D03*
%TD*%
D18*
%TO.C,C27*%
X252400000Y-85600000D03*
X252400000Y-83700000D03*
%TD*%
%TO.C,C33*%
X209104534Y-72200000D03*
X209104534Y-70300000D03*
%TD*%
G36*
X169942121Y-131920002D02*
G01*
X169988614Y-131973658D01*
X170000000Y-132026000D01*
X170000000Y-139452317D01*
X169979998Y-139520438D01*
X169968431Y-139535736D01*
X169287616Y-140306419D01*
X169227525Y-140344230D01*
X169193185Y-140349000D01*
X122546175Y-140349000D01*
X122478054Y-140328998D01*
X122464757Y-140319162D01*
X121824582Y-139777146D01*
X121785518Y-139717863D01*
X121780000Y-139680984D01*
X121780000Y-132026000D01*
X121800002Y-131957879D01*
X121853658Y-131911386D01*
X121906000Y-131900000D01*
X169874000Y-131900000D01*
X169942121Y-131920002D01*
G37*
G36*
X256217121Y-131920002D02*
G01*
X256263614Y-131973658D01*
X256275000Y-132026000D01*
X256275000Y-139397810D01*
X256254998Y-139465931D01*
X256238095Y-139486905D01*
X255361905Y-140363095D01*
X255299593Y-140397121D01*
X255272810Y-140400000D01*
X176002190Y-140400000D01*
X175934069Y-140379998D01*
X175913095Y-140363095D01*
X175036905Y-139486905D01*
X175002879Y-139424593D01*
X175000000Y-139397810D01*
X175000000Y-132026000D01*
X175020002Y-131957879D01*
X175073658Y-131911386D01*
X175126000Y-131900000D01*
X256149000Y-131900000D01*
X256217121Y-131920002D01*
G37*
M02*
