%TF.GenerationSoftware,KiCad,Pcbnew,8.0.5-dirty*%
%TF.CreationDate,2025-01-08T12:48:53-08:00*%
%TF.ProjectId,cardshark,63617264-7368-4617-926b-2e6b69636164,rev?*%
%TF.SameCoordinates,Original*%
%TF.FileFunction,Drillmap*%
%TF.FilePolarity,Positive*%
%FSLAX45Y45*%
G04 Gerber Fmt 4.5, Leading zero omitted, Abs format (unit mm)*
G04 Created by KiCad (PCBNEW 8.0.5-dirty) date 2025-01-08 12:48:53*
%MOMM*%
%LPD*%
G01*
G04 APERTURE LIST*
%ADD10C,0.050000*%
%ADD11C,0.200000*%
%ADD12C,0.100000*%
%ADD13C,0.113000*%
%ADD14C,0.323000*%
G04 APERTURE END LIST*
D10*
X27525000Y-7245000D02*
X27525000Y-12820000D01*
X27406967Y-12940000D01*
X25627500Y-12940000D01*
X25627500Y-13945000D01*
X25532500Y-14040000D01*
X17595000Y-14040000D01*
X17500000Y-13945000D01*
X17500000Y-13155000D01*
X11239400Y-13155000D01*
X11239400Y-13971400D01*
X11175900Y-14034900D01*
X5537100Y-14034900D01*
X5473600Y-13971400D01*
X5473600Y-13184000D01*
X5265320Y-13184000D01*
X5265320Y-13971400D01*
X5201820Y-14034900D01*
X3886100Y-14034900D01*
X3822600Y-13971400D01*
X3822600Y-13195000D01*
X3822500Y-13195000D01*
X3825142Y-7433642D01*
X4160171Y-7095000D01*
X27375000Y-7095000D01*
X27525000Y-7245000D01*
D11*
D12*
X3905000Y-7480000D02*
X3945000Y-7520000D01*
X3945000Y-7480000D02*
X3905000Y-7520000D01*
X3905000Y-7890000D02*
X3945000Y-7930000D01*
X3945000Y-7890000D02*
X3905000Y-7930000D01*
X3905000Y-8280000D02*
X3945000Y-8320000D01*
X3945000Y-8280000D02*
X3905000Y-8320000D01*
X3905000Y-8690000D02*
X3945000Y-8730000D01*
X3945000Y-8690000D02*
X3905000Y-8730000D01*
X3905000Y-9120000D02*
X3945000Y-9160000D01*
X3945000Y-9120000D02*
X3905000Y-9160000D01*
X3905000Y-9540000D02*
X3945000Y-9580000D01*
X3945000Y-9540000D02*
X3905000Y-9580000D01*
X3905000Y-9950000D02*
X3945000Y-9990000D01*
X3945000Y-9950000D02*
X3905000Y-9990000D01*
X3905000Y-10370000D02*
X3945000Y-10410000D01*
X3945000Y-10370000D02*
X3905000Y-10410000D01*
X3905000Y-10770000D02*
X3945000Y-10810000D01*
X3945000Y-10770000D02*
X3905000Y-10810000D01*
X3905000Y-11180000D02*
X3945000Y-11220000D01*
X3945000Y-11180000D02*
X3905000Y-11220000D01*
X3905000Y-11600000D02*
X3945000Y-11640000D01*
X3945000Y-11600000D02*
X3905000Y-11640000D01*
X3905000Y-12010000D02*
X3945000Y-12050000D01*
X3945000Y-12010000D02*
X3905000Y-12050000D01*
X3905000Y-12430000D02*
X3945000Y-12470000D01*
X3945000Y-12430000D02*
X3905000Y-12470000D01*
X3905000Y-12830000D02*
X3945000Y-12870000D01*
X3945000Y-12830000D02*
X3905000Y-12870000D01*
X3980000Y-9730000D02*
X4020000Y-9770000D01*
X4020000Y-9730000D02*
X3980000Y-9770000D01*
X4018500Y-13205000D02*
X4058500Y-13245000D01*
X4058500Y-13205000D02*
X4018500Y-13245000D01*
X4055000Y-7305000D02*
X4095000Y-7345000D01*
X4095000Y-7305000D02*
X4055000Y-7345000D01*
X4105000Y-9830000D02*
X4145000Y-9870000D01*
X4145000Y-9830000D02*
X4105000Y-9870000D01*
X4105000Y-12430000D02*
X4145000Y-12470000D01*
X4145000Y-12430000D02*
X4105000Y-12470000D01*
X4174352Y-12643842D02*
X4214353Y-12683842D01*
X4214353Y-12643842D02*
X4174352Y-12683842D01*
X4180000Y-7155000D02*
X4220000Y-7195000D01*
X4220000Y-7155000D02*
X4180000Y-7195000D01*
X4230000Y-9730000D02*
X4270000Y-9770000D01*
X4270000Y-9730000D02*
X4230000Y-9770000D01*
X4330000Y-13220000D02*
X4370000Y-13260000D01*
X4370000Y-13220000D02*
X4330000Y-13260000D01*
X4345000Y-12965000D02*
X4385000Y-13005000D01*
X4385000Y-12965000D02*
X4345000Y-13005000D01*
X4355000Y-9830000D02*
X4395000Y-9870000D01*
X4395000Y-9830000D02*
X4355000Y-9870000D01*
X4405000Y-10580000D02*
X4445000Y-10620000D01*
X4445000Y-10580000D02*
X4405000Y-10620000D01*
X4440000Y-7155000D02*
X4480000Y-7195000D01*
X4480000Y-7155000D02*
X4440000Y-7195000D01*
X4480000Y-8680000D02*
X4520000Y-8720000D01*
X4520000Y-8680000D02*
X4480000Y-8720000D01*
X4480000Y-9730000D02*
X4520000Y-9770000D01*
X4520000Y-9730000D02*
X4480000Y-9770000D01*
X4530000Y-13205000D02*
X4570000Y-13245000D01*
X4570000Y-13205000D02*
X4530000Y-13245000D01*
X4555000Y-12055000D02*
X4595000Y-12095000D01*
X4595000Y-12055000D02*
X4555000Y-12095000D01*
X4580000Y-8780000D02*
X4620000Y-8820000D01*
X4620000Y-8780000D02*
X4580000Y-8820000D01*
X4580000Y-12730000D02*
X4620000Y-12770000D01*
X4620000Y-12730000D02*
X4580000Y-12770000D01*
X4605000Y-9830000D02*
X4645000Y-9870000D01*
X4645000Y-9830000D02*
X4605000Y-9870000D01*
X4670052Y-12518790D02*
X4710052Y-12558790D01*
X4710052Y-12518790D02*
X4670052Y-12558790D01*
X4674621Y-12401426D02*
X4714621Y-12441426D01*
X4714621Y-12401426D02*
X4674621Y-12441426D01*
X4680000Y-8380000D02*
X4720000Y-8420000D01*
X4720000Y-8380000D02*
X4680000Y-8420000D01*
X4680000Y-8850000D02*
X4720000Y-8890000D01*
X4720000Y-8850000D02*
X4680000Y-8890000D01*
X4700000Y-12967500D02*
X4740000Y-13007500D01*
X4740000Y-12967500D02*
X4700000Y-13007500D01*
X4730000Y-9730000D02*
X4770000Y-9770000D01*
X4770000Y-9730000D02*
X4730000Y-9770000D01*
X4780000Y-8880000D02*
X4820000Y-8920000D01*
X4820000Y-8880000D02*
X4780000Y-8920000D01*
X4780500Y-13219500D02*
X4820500Y-13259500D01*
X4820500Y-13219500D02*
X4780500Y-13259500D01*
X4830000Y-7155000D02*
X4870000Y-7195000D01*
X4870000Y-7155000D02*
X4830000Y-7195000D01*
X4855000Y-9830000D02*
X4895000Y-9870000D01*
X4895000Y-9830000D02*
X4855000Y-9870000D01*
X4880000Y-8880000D02*
X4920000Y-8920000D01*
X4920000Y-8880000D02*
X4880000Y-8920000D01*
X4905000Y-11680000D02*
X4945000Y-11720000D01*
X4945000Y-11680000D02*
X4905000Y-11720000D01*
X4980000Y-8880000D02*
X5020000Y-8920000D01*
X5020000Y-8880000D02*
X4980000Y-8920000D01*
X4980000Y-9730000D02*
X5020000Y-9770000D01*
X5020000Y-9730000D02*
X4980000Y-9770000D01*
X4980000Y-12094000D02*
X5020000Y-12134000D01*
X5020000Y-12094000D02*
X4980000Y-12134000D01*
X5053544Y-12427166D02*
X5093544Y-12467166D01*
X5093544Y-12427166D02*
X5053544Y-12467166D01*
X5080000Y-8380000D02*
X5120000Y-8420000D01*
X5120000Y-8380000D02*
X5080000Y-8420000D01*
X5080000Y-8850000D02*
X5120000Y-8890000D01*
X5120000Y-8850000D02*
X5080000Y-8890000D01*
X5105000Y-9855000D02*
X5145000Y-9895000D01*
X5145000Y-9855000D02*
X5105000Y-9895000D01*
X5105000Y-10105000D02*
X5145000Y-10145000D01*
X5145000Y-10105000D02*
X5105000Y-10145000D01*
X5105000Y-10355000D02*
X5145000Y-10395000D01*
X5145000Y-10355000D02*
X5105000Y-10395000D01*
X5105000Y-10605000D02*
X5145000Y-10645000D01*
X5145000Y-10605000D02*
X5105000Y-10645000D01*
X5125247Y-12349667D02*
X5165247Y-12389667D01*
X5165247Y-12349667D02*
X5125247Y-12389667D01*
X5130000Y-11455000D02*
X5170000Y-11495000D01*
X5170000Y-11455000D02*
X5130000Y-11495000D01*
X5180000Y-8780000D02*
X5220000Y-8820000D01*
X5220000Y-8780000D02*
X5180000Y-8820000D01*
X5180000Y-11780000D02*
X5220000Y-11820000D01*
X5220000Y-11780000D02*
X5180000Y-11820000D01*
X5230000Y-9730000D02*
X5270000Y-9770000D01*
X5270000Y-9730000D02*
X5230000Y-9770000D01*
X5230000Y-9980000D02*
X5270000Y-10020000D01*
X5270000Y-9980000D02*
X5230000Y-10020000D01*
X5230000Y-10230000D02*
X5270000Y-10270000D01*
X5270000Y-10230000D02*
X5230000Y-10270000D01*
X5230000Y-10480000D02*
X5270000Y-10520000D01*
X5270000Y-10480000D02*
X5230000Y-10520000D01*
X5230000Y-10730000D02*
X5270000Y-10770000D01*
X5270000Y-10730000D02*
X5230000Y-10770000D01*
X5240000Y-7155000D02*
X5280000Y-7195000D01*
X5280000Y-7155000D02*
X5240000Y-7195000D01*
X5280000Y-8680000D02*
X5320000Y-8720000D01*
X5320000Y-8680000D02*
X5280000Y-8720000D01*
X5350874Y-11904836D02*
X5390874Y-11944836D01*
X5390874Y-11904836D02*
X5350874Y-11944836D01*
X5351672Y-11799839D02*
X5391672Y-11839839D01*
X5391672Y-11799839D02*
X5351672Y-11839839D01*
X5355000Y-13085000D02*
X5395000Y-13125000D01*
X5395000Y-13085000D02*
X5355000Y-13125000D01*
X5395000Y-10340000D02*
X5435000Y-10380000D01*
X5435000Y-10340000D02*
X5395000Y-10380000D01*
X5437086Y-10243803D02*
X5477086Y-10283803D01*
X5477086Y-10243803D02*
X5437086Y-10283803D01*
X5455000Y-12380000D02*
X5495000Y-12420000D01*
X5495000Y-12380000D02*
X5455000Y-12420000D01*
X5482772Y-10149263D02*
X5522772Y-10189263D01*
X5522772Y-10149263D02*
X5482772Y-10189263D01*
X5505000Y-11755000D02*
X5545000Y-11795000D01*
X5545000Y-11755000D02*
X5505000Y-11795000D01*
X5521342Y-10051603D02*
X5561342Y-10091603D01*
X5561342Y-10051603D02*
X5521342Y-10091603D01*
X5550000Y-11350000D02*
X5590000Y-11390000D01*
X5590000Y-11350000D02*
X5550000Y-11390000D01*
X5559378Y-9953735D02*
X5599378Y-9993735D01*
X5599378Y-9953735D02*
X5559378Y-9993735D01*
X5607503Y-9860412D02*
X5647503Y-9900412D01*
X5647503Y-9860412D02*
X5607503Y-9900412D01*
X5646833Y-9763056D02*
X5686833Y-9803056D01*
X5686833Y-9763056D02*
X5646833Y-9803056D01*
X5667500Y-11435000D02*
X5707500Y-11475000D01*
X5707500Y-11435000D02*
X5667500Y-11475000D01*
X5670000Y-7155000D02*
X5710000Y-7195000D01*
X5710000Y-7155000D02*
X5670000Y-7195000D01*
X5696708Y-9668378D02*
X5736708Y-9708378D01*
X5736708Y-9668378D02*
X5696708Y-9708378D01*
X5768393Y-9591656D02*
X5808393Y-9631656D01*
X5808393Y-9591656D02*
X5768393Y-9631656D01*
X5786173Y-9488172D02*
X5826173Y-9528172D01*
X5826173Y-9488172D02*
X5786173Y-9528172D01*
X5795500Y-13225000D02*
X5835500Y-13265000D01*
X5835500Y-13225000D02*
X5795500Y-13265000D01*
X5855000Y-11680000D02*
X5895000Y-11720000D01*
X5895000Y-11680000D02*
X5855000Y-11720000D01*
X5880495Y-9442037D02*
X5920495Y-9482037D01*
X5920495Y-9442037D02*
X5880495Y-9482037D01*
X5930000Y-12380000D02*
X5970000Y-12420000D01*
X5970000Y-12380000D02*
X5930000Y-12420000D01*
X6090000Y-7155000D02*
X6130000Y-7195000D01*
X6130000Y-7155000D02*
X6090000Y-7195000D01*
X6122494Y-12572494D02*
X6162494Y-12612494D01*
X6162494Y-12572494D02*
X6122494Y-12612494D01*
X6127000Y-13205000D02*
X6167000Y-13245000D01*
X6167000Y-13205000D02*
X6127000Y-13245000D01*
X6132500Y-9399616D02*
X6172500Y-9439616D01*
X6172500Y-9399616D02*
X6132500Y-9439616D01*
X6170298Y-13109342D02*
X6210298Y-13149342D01*
X6210298Y-13109342D02*
X6170298Y-13149342D01*
X6182500Y-9301401D02*
X6222500Y-9341401D01*
X6222500Y-9301401D02*
X6182500Y-9341401D01*
X6198279Y-13008139D02*
X6238279Y-13048139D01*
X6238279Y-13008139D02*
X6198279Y-13048139D01*
X6226400Y-12906975D02*
X6266400Y-12946975D01*
X6266400Y-12906975D02*
X6226400Y-12946975D01*
X6230000Y-12430000D02*
X6270000Y-12470000D01*
X6270000Y-12430000D02*
X6230000Y-12470000D01*
X6239999Y-9184890D02*
X6279999Y-9224890D01*
X6279999Y-9184890D02*
X6239999Y-9224890D01*
X6263836Y-12805269D02*
X6303836Y-12845269D01*
X6303836Y-12805269D02*
X6263836Y-12845269D01*
X6289999Y-9086593D02*
X6329999Y-9126593D01*
X6329999Y-9086593D02*
X6289999Y-9126593D01*
X6339999Y-8905000D02*
X6379999Y-8945000D01*
X6379999Y-8905000D02*
X6339999Y-8945000D01*
X6380000Y-11680000D02*
X6420000Y-11720000D01*
X6420000Y-11680000D02*
X6380000Y-11720000D01*
X6389999Y-8810291D02*
X6429999Y-8850291D01*
X6429999Y-8810291D02*
X6389999Y-8850291D01*
X6439999Y-8716883D02*
X6479999Y-8756883D01*
X6479999Y-8716883D02*
X6439999Y-8756883D01*
X6480000Y-10705000D02*
X6520000Y-10745000D01*
X6520000Y-10705000D02*
X6480000Y-10745000D01*
X6480000Y-10882500D02*
X6520000Y-10922500D01*
X6520000Y-10882500D02*
X6480000Y-10922500D01*
X6480000Y-13110000D02*
X6520000Y-13150000D01*
X6520000Y-13110000D02*
X6480000Y-13150000D01*
X6482500Y-12959239D02*
X6522500Y-12999239D01*
X6522500Y-12959239D02*
X6482500Y-12999239D01*
X6489999Y-8612491D02*
X6529999Y-8652491D01*
X6529999Y-8612491D02*
X6489999Y-8652491D01*
X6500000Y-7155000D02*
X6540000Y-7195000D01*
X6540000Y-7155000D02*
X6500000Y-7195000D01*
X6538917Y-8519033D02*
X6578917Y-8559033D01*
X6578917Y-8519033D02*
X6538917Y-8559033D01*
X6588248Y-8426342D02*
X6628248Y-8466342D01*
X6628248Y-8426342D02*
X6588248Y-8466342D01*
X6630000Y-8330000D02*
X6670000Y-8370000D01*
X6670000Y-8330000D02*
X6630000Y-8370000D01*
X6637500Y-13075000D02*
X6677500Y-13115000D01*
X6677500Y-13075000D02*
X6637500Y-13115000D01*
X6682343Y-8207344D02*
X6722343Y-8247344D01*
X6722343Y-8207344D02*
X6682343Y-8247344D01*
X6729488Y-8089489D02*
X6769488Y-8129489D01*
X6769488Y-8089489D02*
X6729488Y-8129489D01*
X6755034Y-7954341D02*
X6795034Y-7994341D01*
X6795034Y-7954341D02*
X6755034Y-7994341D01*
X6781284Y-7832500D02*
X6821284Y-7872500D01*
X6821284Y-7832500D02*
X6781284Y-7872500D01*
X6792500Y-12810944D02*
X6832500Y-12850944D01*
X6832500Y-12810944D02*
X6792500Y-12850944D01*
X6880000Y-7782500D02*
X6920000Y-7822500D01*
X6920000Y-7782500D02*
X6880000Y-7822500D01*
X6890000Y-13235000D02*
X6930000Y-13275000D01*
X6930000Y-13235000D02*
X6890000Y-13275000D01*
X6905000Y-10480000D02*
X6945000Y-10520000D01*
X6945000Y-10480000D02*
X6905000Y-10520000D01*
X6905000Y-11680000D02*
X6945000Y-11720000D01*
X6945000Y-11680000D02*
X6905000Y-11720000D01*
X6920000Y-7155000D02*
X6960000Y-7195000D01*
X6960000Y-7155000D02*
X6920000Y-7195000D01*
X6952145Y-12922543D02*
X6992145Y-12962543D01*
X6992145Y-12922543D02*
X6952145Y-12962543D01*
X7005000Y-10930000D02*
X7045000Y-10970000D01*
X7045000Y-10930000D02*
X7005000Y-10970000D01*
X7105000Y-9805000D02*
X7145000Y-9845000D01*
X7145000Y-9805000D02*
X7105000Y-9845000D01*
X7107500Y-13215000D02*
X7147500Y-13255000D01*
X7147500Y-13215000D02*
X7107500Y-13255000D01*
X7112500Y-12987699D02*
X7152500Y-13027699D01*
X7152500Y-12987699D02*
X7112500Y-13027699D01*
X7130000Y-9630000D02*
X7170000Y-9670000D01*
X7170000Y-9630000D02*
X7130000Y-9670000D01*
X7153750Y-11358750D02*
X7193750Y-11398750D01*
X7193750Y-11358750D02*
X7153750Y-11398750D01*
X7205000Y-10180000D02*
X7245000Y-10220000D01*
X7245000Y-10180000D02*
X7205000Y-10220000D01*
X7242000Y-13130389D02*
X7282000Y-13170389D01*
X7282000Y-13130389D02*
X7242000Y-13170389D01*
X7305000Y-9605000D02*
X7345000Y-9645000D01*
X7345000Y-9605000D02*
X7305000Y-9645000D01*
X7320000Y-7155000D02*
X7360000Y-7195000D01*
X7360000Y-7155000D02*
X7320000Y-7195000D01*
X7330000Y-11280000D02*
X7370000Y-11320000D01*
X7370000Y-11280000D02*
X7330000Y-11320000D01*
X7397000Y-12910819D02*
X7437000Y-12950819D01*
X7437000Y-12910819D02*
X7397000Y-12950819D01*
X7440000Y-11450000D02*
X7480000Y-11490000D01*
X7480000Y-11450000D02*
X7440000Y-11490000D01*
X7530000Y-11680000D02*
X7570000Y-11720000D01*
X7570000Y-11680000D02*
X7530000Y-11720000D01*
X7530000Y-13040000D02*
X7570000Y-13080000D01*
X7570000Y-13040000D02*
X7530000Y-13080000D01*
X7580000Y-10555000D02*
X7620000Y-10595000D01*
X7620000Y-10555000D02*
X7580000Y-10595000D01*
X7626236Y-12856940D02*
X7666236Y-12896940D01*
X7666236Y-12856940D02*
X7626236Y-12896940D01*
X7655000Y-11280000D02*
X7695000Y-11320000D01*
X7695000Y-11280000D02*
X7655000Y-11320000D01*
X7680000Y-7155000D02*
X7720000Y-7195000D01*
X7720000Y-7155000D02*
X7680000Y-7195000D01*
X7680000Y-9655000D02*
X7720000Y-9695000D01*
X7720000Y-9655000D02*
X7680000Y-9695000D01*
X7730000Y-11455000D02*
X7770000Y-11495000D01*
X7770000Y-11455000D02*
X7730000Y-11495000D01*
X7769776Y-7247409D02*
X7809776Y-7287409D01*
X7809776Y-7247409D02*
X7769776Y-7287409D01*
X7778000Y-12922398D02*
X7818000Y-12962398D01*
X7818000Y-12922398D02*
X7778000Y-12962398D01*
X7854081Y-7310000D02*
X7894081Y-7350000D01*
X7894081Y-7310000D02*
X7854081Y-7350000D01*
X7877500Y-13077273D02*
X7917500Y-13117273D01*
X7917500Y-13077273D02*
X7877500Y-13117273D01*
X7905000Y-11680000D02*
X7945000Y-11720000D01*
X7945000Y-11680000D02*
X7905000Y-11720000D01*
X7930000Y-9455000D02*
X7970000Y-9495000D01*
X7970000Y-9455000D02*
X7930000Y-9495000D01*
X7946412Y-7360000D02*
X7986412Y-7400000D01*
X7986412Y-7360000D02*
X7946412Y-7400000D01*
X7955000Y-10930000D02*
X7995000Y-10970000D01*
X7995000Y-10930000D02*
X7955000Y-10970000D01*
X7964730Y-12717229D02*
X8004730Y-12757229D01*
X8004730Y-12717229D02*
X7964730Y-12757229D01*
X7965000Y-13010000D02*
X8005000Y-13050000D01*
X8005000Y-13010000D02*
X7965000Y-13050000D01*
X7980000Y-11280000D02*
X8020000Y-11320000D01*
X8020000Y-11280000D02*
X7980000Y-11320000D01*
X8028750Y-11631250D02*
X8068750Y-11671250D01*
X8068750Y-11631250D02*
X8028750Y-11671250D01*
X8032500Y-13253282D02*
X8072500Y-13293282D01*
X8072500Y-13253282D02*
X8032500Y-13293282D01*
X8038743Y-7410000D02*
X8078743Y-7450000D01*
X8078743Y-7410000D02*
X8038743Y-7450000D01*
X8078280Y-12713280D02*
X8118280Y-12753280D01*
X8118280Y-12713280D02*
X8078280Y-12753280D01*
X8131074Y-7460000D02*
X8171074Y-7500000D01*
X8171074Y-7460000D02*
X8131074Y-7500000D01*
X8150000Y-7155000D02*
X8190000Y-7195000D01*
X8190000Y-7155000D02*
X8150000Y-7195000D01*
X8169968Y-12370570D02*
X8209968Y-12410570D01*
X8209968Y-12370570D02*
X8169968Y-12410570D01*
X8205000Y-11555000D02*
X8245000Y-11595000D01*
X8245000Y-11555000D02*
X8205000Y-11595000D01*
X8212855Y-13261500D02*
X8252855Y-13301500D01*
X8252855Y-13261500D02*
X8212855Y-13301500D01*
X8223405Y-7510000D02*
X8263405Y-7550000D01*
X8263405Y-7510000D02*
X8223405Y-7550000D01*
X8255000Y-9780000D02*
X8295000Y-9820000D01*
X8295000Y-9780000D02*
X8255000Y-9820000D01*
X8275000Y-12228820D02*
X8315000Y-12268820D01*
X8315000Y-12228820D02*
X8275000Y-12268820D01*
X8315736Y-7560000D02*
X8355736Y-7600000D01*
X8355736Y-7560000D02*
X8315736Y-7600000D01*
X8332500Y-12316676D02*
X8372500Y-12356676D01*
X8372500Y-12316676D02*
X8332500Y-12356676D01*
X8356796Y-12569612D02*
X8396796Y-12609612D01*
X8396796Y-12569612D02*
X8356796Y-12609612D01*
X8390000Y-12470000D02*
X8430000Y-12510000D01*
X8430000Y-12470000D02*
X8390000Y-12510000D01*
X8408068Y-7610000D02*
X8448068Y-7650000D01*
X8448068Y-7610000D02*
X8408068Y-7650000D01*
X8428961Y-12358153D02*
X8468961Y-12398153D01*
X8468961Y-12358153D02*
X8428961Y-12398153D01*
X8441500Y-13261500D02*
X8481500Y-13301500D01*
X8481500Y-13261500D02*
X8441500Y-13301500D01*
X8455000Y-9455000D02*
X8495000Y-9495000D01*
X8495000Y-9455000D02*
X8455000Y-9495000D01*
X8500000Y-8540000D02*
X8540000Y-8580000D01*
X8540000Y-8540000D02*
X8500000Y-8580000D01*
X8500399Y-7660000D02*
X8540399Y-7700000D01*
X8540399Y-7660000D02*
X8500399Y-7700000D01*
X8513000Y-13079605D02*
X8553000Y-13119605D01*
X8553000Y-13079605D02*
X8513000Y-13119605D01*
X8513000Y-13184606D02*
X8553000Y-13224606D01*
X8553000Y-13184606D02*
X8513000Y-13224606D01*
X8530000Y-12930000D02*
X8570000Y-12970000D01*
X8570000Y-12930000D02*
X8530000Y-12970000D01*
X8560000Y-7155000D02*
X8600000Y-7195000D01*
X8600000Y-7155000D02*
X8560000Y-7195000D01*
X8576334Y-12793268D02*
X8616334Y-12833268D01*
X8616334Y-12793268D02*
X8576334Y-12833268D01*
X8594469Y-11975532D02*
X8634469Y-12015532D01*
X8634469Y-11975532D02*
X8594469Y-12015532D01*
X8633668Y-11337301D02*
X8673668Y-11377301D01*
X8673668Y-11337301D02*
X8633668Y-11377301D01*
X8634050Y-12995638D02*
X8674050Y-13035638D01*
X8674050Y-12995638D02*
X8634050Y-13035638D01*
X8650000Y-11853000D02*
X8690000Y-11893000D01*
X8690000Y-11853000D02*
X8650000Y-11893000D01*
X8655000Y-10180000D02*
X8695000Y-10220000D01*
X8695000Y-10180000D02*
X8655000Y-10220000D01*
X8672500Y-13261500D02*
X8712500Y-13301500D01*
X8712500Y-13261500D02*
X8672500Y-13301500D01*
X8727209Y-11385000D02*
X8767209Y-11425000D01*
X8767209Y-11385000D02*
X8727209Y-11425000D01*
X8730000Y-11530000D02*
X8770000Y-11570000D01*
X8770000Y-11530000D02*
X8730000Y-11570000D01*
X8737500Y-12390000D02*
X8777500Y-12430000D01*
X8777500Y-12390000D02*
X8737500Y-12430000D01*
X8742500Y-13183237D02*
X8782500Y-13223237D01*
X8782500Y-13183237D02*
X8742500Y-13223237D01*
X8755000Y-9780000D02*
X8795000Y-9820000D01*
X8795000Y-9780000D02*
X8755000Y-9820000D01*
X8778707Y-11179371D02*
X8818707Y-11219371D01*
X8818707Y-11179371D02*
X8778707Y-11219371D01*
X8802000Y-12112000D02*
X8842000Y-12152000D01*
X8842000Y-12112000D02*
X8802000Y-12152000D01*
X8828000Y-12295000D02*
X8868000Y-12335000D01*
X8868000Y-12295000D02*
X8828000Y-12335000D01*
X8870000Y-11127500D02*
X8910000Y-11167500D01*
X8910000Y-11127500D02*
X8870000Y-11167500D01*
X8897500Y-13225000D02*
X8937500Y-13265000D01*
X8937500Y-13225000D02*
X8897500Y-13265000D01*
X8905000Y-11655000D02*
X8945000Y-11695000D01*
X8945000Y-11655000D02*
X8905000Y-11695000D01*
X8930000Y-9470000D02*
X8970000Y-9510000D01*
X8970000Y-9470000D02*
X8930000Y-9510000D01*
X8967683Y-11077500D02*
X9007683Y-11117500D01*
X9007683Y-11077500D02*
X8967683Y-11117500D01*
X8980000Y-7155000D02*
X9020000Y-7195000D01*
X9020000Y-7155000D02*
X8980000Y-7195000D01*
X8997500Y-13101648D02*
X9037500Y-13141648D01*
X9037500Y-13101648D02*
X8997500Y-13141648D01*
X9030000Y-10580000D02*
X9070000Y-10620000D01*
X9070000Y-10580000D02*
X9030000Y-10620000D01*
X9060131Y-11652257D02*
X9100131Y-11692257D01*
X9100131Y-11652257D02*
X9060131Y-11692257D01*
X9070740Y-11027500D02*
X9110740Y-11067500D01*
X9110740Y-11027500D02*
X9070740Y-11067500D01*
X9077500Y-13207898D02*
X9117500Y-13247898D01*
X9117500Y-13207898D02*
X9077500Y-13247898D01*
X9105000Y-10130000D02*
X9145000Y-10170000D01*
X9145000Y-10130000D02*
X9105000Y-10170000D01*
X9105000Y-11480000D02*
X9145000Y-11520000D01*
X9145000Y-11480000D02*
X9105000Y-11520000D01*
X9150318Y-8540318D02*
X9190318Y-8580318D01*
X9190318Y-8540318D02*
X9150318Y-8580318D01*
X9165000Y-11657500D02*
X9205000Y-11697500D01*
X9205000Y-11657500D02*
X9165000Y-11697500D01*
X9180085Y-10977500D02*
X9220085Y-11017500D01*
X9220085Y-10977500D02*
X9180085Y-11017500D01*
X9224000Y-13042500D02*
X9264000Y-13082500D01*
X9264000Y-13042500D02*
X9224000Y-13082500D01*
X9237500Y-12836195D02*
X9277500Y-12876195D01*
X9277500Y-12836195D02*
X9237500Y-12876195D01*
X9260000Y-11417500D02*
X9300000Y-11457500D01*
X9300000Y-11417500D02*
X9260000Y-11457500D01*
X9267825Y-12542175D02*
X9307825Y-12582175D01*
X9307825Y-12542175D02*
X9267825Y-12582175D01*
X9285444Y-10927500D02*
X9325444Y-10967500D01*
X9325444Y-10927500D02*
X9285444Y-10967500D01*
X9358294Y-11467500D02*
X9398294Y-11507500D01*
X9398294Y-11467500D02*
X9358294Y-11507500D01*
X9360000Y-11620000D02*
X9400000Y-11660000D01*
X9400000Y-11620000D02*
X9360000Y-11660000D01*
X9364971Y-12356478D02*
X9404971Y-12396478D01*
X9404971Y-12356478D02*
X9364971Y-12396478D01*
X9380000Y-7155000D02*
X9420000Y-7195000D01*
X9420000Y-7155000D02*
X9380000Y-7195000D01*
X9380000Y-7720000D02*
X9420000Y-7760000D01*
X9420000Y-7720000D02*
X9380000Y-7760000D01*
X9389273Y-10880552D02*
X9429273Y-10920552D01*
X9429273Y-10880552D02*
X9389273Y-10920552D01*
X9430000Y-10580000D02*
X9470000Y-10620000D01*
X9470000Y-10580000D02*
X9430000Y-10620000D01*
X9447708Y-11522546D02*
X9487708Y-11562546D01*
X9487708Y-11522546D02*
X9447708Y-11562546D01*
X9450000Y-11720000D02*
X9490000Y-11760000D01*
X9490000Y-11720000D02*
X9450000Y-11760000D01*
X9455000Y-12909210D02*
X9495000Y-12949210D01*
X9495000Y-12909210D02*
X9455000Y-12949210D01*
X9489324Y-10402848D02*
X9529324Y-10442848D01*
X9529324Y-10402848D02*
X9489324Y-10442848D01*
X9504718Y-10828196D02*
X9544718Y-10868196D01*
X9544718Y-10828196D02*
X9504718Y-10868196D01*
X9580000Y-10755000D02*
X9620000Y-10795000D01*
X9620000Y-10755000D02*
X9580000Y-10795000D01*
X9580667Y-10351066D02*
X9620667Y-10391066D01*
X9620667Y-10351066D02*
X9580667Y-10391066D01*
X9640000Y-10040000D02*
X9680000Y-10080000D01*
X9680000Y-10040000D02*
X9640000Y-10080000D01*
X9658168Y-10273566D02*
X9698168Y-10313566D01*
X9698168Y-10273566D02*
X9658168Y-10313566D01*
X9684219Y-13212500D02*
X9724219Y-13252500D01*
X9724219Y-13212500D02*
X9684219Y-13252500D01*
X9780000Y-7155000D02*
X9820000Y-7195000D01*
X9820000Y-7155000D02*
X9780000Y-7195000D01*
X9780000Y-7720000D02*
X9820000Y-7760000D01*
X9820000Y-7720000D02*
X9780000Y-7760000D01*
X9880000Y-10305000D02*
X9920000Y-10345000D01*
X9920000Y-10305000D02*
X9880000Y-10345000D01*
X9881915Y-9841915D02*
X9921915Y-9881915D01*
X9921915Y-9841915D02*
X9881915Y-9881915D01*
X9937000Y-12965000D02*
X9977000Y-13005000D01*
X9977000Y-12965000D02*
X9937000Y-13005000D01*
X9955000Y-10755000D02*
X9995000Y-10795000D01*
X9995000Y-10755000D02*
X9955000Y-10795000D01*
X9970000Y-8540000D02*
X10010000Y-8580000D01*
X10010000Y-8540000D02*
X9970000Y-8580000D01*
X10000000Y-12752500D02*
X10040000Y-12792500D01*
X10040000Y-12752500D02*
X10000000Y-12792500D01*
X10040000Y-9940000D02*
X10080000Y-9980000D01*
X10080000Y-9940000D02*
X10040000Y-9980000D01*
X10055000Y-12574877D02*
X10095000Y-12614877D01*
X10095000Y-12574877D02*
X10055000Y-12614877D01*
X10080000Y-12005000D02*
X10120000Y-12045000D01*
X10120000Y-12005000D02*
X10080000Y-12045000D01*
X10145000Y-10107500D02*
X10185000Y-10147500D01*
X10185000Y-10107500D02*
X10145000Y-10147500D01*
X10165000Y-10542500D02*
X10205000Y-10582500D01*
X10205000Y-10542500D02*
X10165000Y-10582500D01*
X10180000Y-7155000D02*
X10220000Y-7195000D01*
X10220000Y-7155000D02*
X10180000Y-7195000D01*
X10180000Y-7720000D02*
X10220000Y-7760000D01*
X10220000Y-7720000D02*
X10180000Y-7760000D01*
X10180000Y-10755000D02*
X10220000Y-10795000D01*
X10220000Y-10755000D02*
X10180000Y-10795000D01*
X10180000Y-12940000D02*
X10220000Y-12980000D01*
X10220000Y-12940000D02*
X10180000Y-12980000D01*
X10191000Y-13140000D02*
X10231000Y-13180000D01*
X10231000Y-13140000D02*
X10191000Y-13180000D01*
X10262500Y-12570245D02*
X10302500Y-12610245D01*
X10302500Y-12570245D02*
X10262500Y-12610245D01*
X10380000Y-8540000D02*
X10420000Y-8580000D01*
X10420000Y-8540000D02*
X10380000Y-8580000D01*
X10417500Y-12934210D02*
X10457500Y-12974210D01*
X10457500Y-12934210D02*
X10417500Y-12974210D01*
X10530000Y-12860000D02*
X10570000Y-12900000D01*
X10570000Y-12860000D02*
X10530000Y-12900000D01*
X10580000Y-7155000D02*
X10620000Y-7195000D01*
X10620000Y-7155000D02*
X10580000Y-7195000D01*
X10580000Y-7720000D02*
X10620000Y-7760000D01*
X10620000Y-7720000D02*
X10580000Y-7760000D01*
X10605000Y-11605000D02*
X10645000Y-11645000D01*
X10645000Y-11605000D02*
X10605000Y-11645000D01*
X10730000Y-10130000D02*
X10770000Y-10170000D01*
X10770000Y-10130000D02*
X10730000Y-10170000D01*
X10730000Y-10755000D02*
X10770000Y-10795000D01*
X10770000Y-10755000D02*
X10730000Y-10795000D01*
X10780000Y-8540000D02*
X10820000Y-8580000D01*
X10820000Y-8540000D02*
X10780000Y-8580000D01*
X10799000Y-12962559D02*
X10839000Y-13002559D01*
X10839000Y-12962559D02*
X10799000Y-13002559D01*
X10820000Y-11420000D02*
X10860000Y-11460000D01*
X10860000Y-11420000D02*
X10820000Y-11460000D01*
X10980000Y-7155000D02*
X11020000Y-7195000D01*
X11020000Y-7155000D02*
X10980000Y-7195000D01*
X10980000Y-7720000D02*
X11020000Y-7760000D01*
X11020000Y-7720000D02*
X10980000Y-7760000D01*
X10994952Y-10582500D02*
X11034952Y-10622500D01*
X11034952Y-10582500D02*
X10994952Y-10622500D01*
X11045000Y-10417500D02*
X11085000Y-10457500D01*
X11085000Y-10417500D02*
X11045000Y-10457500D01*
X11055322Y-11534051D02*
X11095322Y-11574051D01*
X11095322Y-11534051D02*
X11055322Y-11574051D01*
X11105000Y-11430000D02*
X11145000Y-11470000D01*
X11145000Y-11430000D02*
X11105000Y-11470000D01*
X11130000Y-10130000D02*
X11170000Y-10170000D01*
X11170000Y-10130000D02*
X11130000Y-10170000D01*
X11180000Y-8540000D02*
X11220000Y-8580000D01*
X11220000Y-8540000D02*
X11180000Y-8580000D01*
X11230000Y-10755000D02*
X11270000Y-10795000D01*
X11270000Y-10755000D02*
X11230000Y-10795000D01*
X11240000Y-13040000D02*
X11280000Y-13080000D01*
X11280000Y-13040000D02*
X11240000Y-13080000D01*
X11305000Y-10305000D02*
X11345000Y-10345000D01*
X11345000Y-10305000D02*
X11305000Y-10345000D01*
X11305000Y-12105000D02*
X11345000Y-12145000D01*
X11345000Y-12105000D02*
X11305000Y-12145000D01*
X11321551Y-10440854D02*
X11361551Y-10480854D01*
X11361551Y-10440854D02*
X11321551Y-10480854D01*
X11352500Y-12760000D02*
X11392500Y-12800000D01*
X11392500Y-12760000D02*
X11352500Y-12800000D01*
X11380000Y-7155000D02*
X11420000Y-7195000D01*
X11420000Y-7155000D02*
X11380000Y-7195000D01*
X11380000Y-7720000D02*
X11420000Y-7760000D01*
X11420000Y-7720000D02*
X11380000Y-7760000D01*
X11380000Y-11430000D02*
X11420000Y-11470000D01*
X11420000Y-11430000D02*
X11380000Y-11470000D01*
X11392864Y-11660251D02*
X11432864Y-11700251D01*
X11432864Y-11660251D02*
X11392864Y-11700251D01*
X11398750Y-10241250D02*
X11438750Y-10281250D01*
X11438750Y-10241250D02*
X11398750Y-10281250D01*
X11417500Y-9790000D02*
X11457500Y-9830000D01*
X11457500Y-9790000D02*
X11417500Y-9830000D01*
X11420000Y-11860000D02*
X11460000Y-11900000D01*
X11460000Y-11860000D02*
X11420000Y-11900000D01*
X11455000Y-12630000D02*
X11495000Y-12670000D01*
X11495000Y-12630000D02*
X11455000Y-12670000D01*
X11580000Y-8540000D02*
X11620000Y-8580000D01*
X11620000Y-8540000D02*
X11580000Y-8580000D01*
X11630000Y-12805000D02*
X11670000Y-12845000D01*
X11670000Y-12805000D02*
X11630000Y-12845000D01*
X11640000Y-13040000D02*
X11680000Y-13080000D01*
X11680000Y-13040000D02*
X11640000Y-13080000D01*
X11655000Y-12105000D02*
X11695000Y-12145000D01*
X11695000Y-12105000D02*
X11655000Y-12145000D01*
X11680000Y-11430000D02*
X11720000Y-11470000D01*
X11720000Y-11430000D02*
X11680000Y-11470000D01*
X11745000Y-9362500D02*
X11785000Y-9402500D01*
X11785000Y-9362500D02*
X11745000Y-9402500D01*
X11762325Y-11672675D02*
X11802325Y-11712675D01*
X11802325Y-11672675D02*
X11762325Y-11712675D01*
X11770000Y-11860000D02*
X11810000Y-11900000D01*
X11810000Y-11860000D02*
X11770000Y-11900000D01*
X11770883Y-9528781D02*
X11810883Y-9568781D01*
X11810883Y-9528781D02*
X11770883Y-9568781D01*
X11808000Y-7155000D02*
X11848000Y-7195000D01*
X11848000Y-7155000D02*
X11808000Y-7195000D01*
X11808000Y-7720000D02*
X11848000Y-7760000D01*
X11848000Y-7720000D02*
X11808000Y-7760000D01*
X11814839Y-9627524D02*
X11854839Y-9667524D01*
X11854839Y-9627524D02*
X11814839Y-9667524D01*
X11817101Y-9732500D02*
X11857101Y-9772500D01*
X11857101Y-9732500D02*
X11817101Y-9772500D01*
X11826391Y-9887500D02*
X11866391Y-9927500D01*
X11866391Y-9887500D02*
X11826391Y-9927500D01*
X11880000Y-12330000D02*
X11920000Y-12370000D01*
X11920000Y-12330000D02*
X11880000Y-12370000D01*
X11880000Y-12655000D02*
X11920000Y-12695000D01*
X11920000Y-12655000D02*
X11880000Y-12695000D01*
X11897234Y-9810000D02*
X11937234Y-9850000D01*
X11937234Y-9810000D02*
X11897234Y-9850000D01*
X11907500Y-10042500D02*
X11947500Y-10082500D01*
X11947500Y-10042500D02*
X11907500Y-10082500D01*
X11980000Y-8540000D02*
X12020000Y-8580000D01*
X12020000Y-8540000D02*
X11980000Y-8580000D01*
X11980000Y-9965000D02*
X12020000Y-10005000D01*
X12020000Y-9965000D02*
X11980000Y-10005000D01*
X11987344Y-9497656D02*
X12027344Y-9537656D01*
X12027344Y-9497656D02*
X11987344Y-9537656D01*
X12005000Y-11430000D02*
X12045000Y-11470000D01*
X12045000Y-11430000D02*
X12005000Y-11470000D01*
X12030000Y-12105000D02*
X12070000Y-12145000D01*
X12070000Y-12105000D02*
X12030000Y-12145000D01*
X12031440Y-10476062D02*
X12071440Y-10516062D01*
X12071440Y-10476062D02*
X12031440Y-10516062D01*
X12060000Y-13040000D02*
X12100000Y-13080000D01*
X12100000Y-13040000D02*
X12060000Y-13080000D01*
X12105844Y-11679548D02*
X12145844Y-11719548D01*
X12145844Y-11679548D02*
X12105844Y-11719548D01*
X12120000Y-11860000D02*
X12160000Y-11900000D01*
X12160000Y-11860000D02*
X12120000Y-11900000D01*
X12142500Y-9512500D02*
X12182500Y-9552500D01*
X12182500Y-9512500D02*
X12142500Y-9552500D01*
X12208000Y-7155000D02*
X12248000Y-7195000D01*
X12248000Y-7155000D02*
X12208000Y-7195000D01*
X12208000Y-7720000D02*
X12248000Y-7760000D01*
X12248000Y-7720000D02*
X12208000Y-7760000D01*
X12350000Y-11760000D02*
X12390000Y-11800000D01*
X12390000Y-11760000D02*
X12350000Y-11800000D01*
X12360000Y-12080000D02*
X12400000Y-12120000D01*
X12400000Y-12080000D02*
X12360000Y-12120000D01*
X12360000Y-12280000D02*
X12400000Y-12320000D01*
X12400000Y-12280000D02*
X12360000Y-12320000D01*
X12360000Y-12482500D02*
X12400000Y-12522500D01*
X12400000Y-12482500D02*
X12360000Y-12522500D01*
X12380000Y-8540000D02*
X12420000Y-8580000D01*
X12420000Y-8540000D02*
X12380000Y-8580000D01*
X12470000Y-13040000D02*
X12510000Y-13080000D01*
X12510000Y-13040000D02*
X12470000Y-13080000D01*
X12505000Y-11430000D02*
X12545000Y-11470000D01*
X12545000Y-11430000D02*
X12505000Y-11470000D01*
X12517520Y-10345480D02*
X12557520Y-10385480D01*
X12557520Y-10345480D02*
X12517520Y-10385480D01*
X12608000Y-7155000D02*
X12648000Y-7195000D01*
X12648000Y-7155000D02*
X12608000Y-7195000D01*
X12608000Y-7720000D02*
X12648000Y-7760000D01*
X12648000Y-7720000D02*
X12608000Y-7760000D01*
X12677500Y-9360000D02*
X12717500Y-9400000D01*
X12717500Y-9360000D02*
X12677500Y-9400000D01*
X12730000Y-10555000D02*
X12770000Y-10595000D01*
X12770000Y-10555000D02*
X12730000Y-10595000D01*
X12730000Y-10755000D02*
X12770000Y-10795000D01*
X12770000Y-10755000D02*
X12730000Y-10795000D01*
X12768949Y-10218551D02*
X12808949Y-10258551D01*
X12808949Y-10218551D02*
X12768949Y-10258551D01*
X12780000Y-8540000D02*
X12820000Y-8580000D01*
X12820000Y-8540000D02*
X12780000Y-8580000D01*
X12780000Y-10355000D02*
X12820000Y-10395000D01*
X12820000Y-10355000D02*
X12780000Y-10395000D01*
X12890000Y-13040000D02*
X12930000Y-13080000D01*
X12930000Y-13040000D02*
X12890000Y-13080000D01*
X13008000Y-7155000D02*
X13048000Y-7195000D01*
X13048000Y-7155000D02*
X13008000Y-7195000D01*
X13008000Y-7720000D02*
X13048000Y-7760000D01*
X13048000Y-7720000D02*
X13008000Y-7760000D01*
X13049623Y-9552500D02*
X13089623Y-9592500D01*
X13089623Y-9552500D02*
X13049623Y-9592500D01*
X13055000Y-11430000D02*
X13095000Y-11470000D01*
X13095000Y-11430000D02*
X13055000Y-11470000D01*
X13100000Y-12080000D02*
X13140000Y-12120000D01*
X13140000Y-12080000D02*
X13100000Y-12120000D01*
X13100000Y-12280000D02*
X13140000Y-12320000D01*
X13140000Y-12280000D02*
X13100000Y-12320000D01*
X13100000Y-12480000D02*
X13140000Y-12520000D01*
X13140000Y-12480000D02*
X13100000Y-12520000D01*
X13105000Y-11855000D02*
X13145000Y-11895000D01*
X13145000Y-11855000D02*
X13105000Y-11895000D01*
X13120000Y-10132500D02*
X13160000Y-10172500D01*
X13160000Y-10132500D02*
X13120000Y-10172500D01*
X13180000Y-11540000D02*
X13220000Y-11580000D01*
X13220000Y-11540000D02*
X13180000Y-11580000D01*
X13260000Y-11670000D02*
X13300000Y-11710000D01*
X13300000Y-11670000D02*
X13260000Y-11710000D01*
X13275000Y-8540000D02*
X13315000Y-8580000D01*
X13315000Y-8540000D02*
X13275000Y-8580000D01*
X13320000Y-13040000D02*
X13360000Y-13080000D01*
X13360000Y-13040000D02*
X13320000Y-13080000D01*
X13408000Y-7155000D02*
X13448000Y-7195000D01*
X13448000Y-7155000D02*
X13408000Y-7195000D01*
X13408000Y-7720000D02*
X13448000Y-7760000D01*
X13448000Y-7720000D02*
X13408000Y-7760000D01*
X13420000Y-12080000D02*
X13460000Y-12120000D01*
X13460000Y-12080000D02*
X13420000Y-12120000D01*
X13420000Y-12280000D02*
X13460000Y-12320000D01*
X13460000Y-12280000D02*
X13420000Y-12320000D01*
X13420000Y-12480000D02*
X13460000Y-12520000D01*
X13460000Y-12480000D02*
X13420000Y-12520000D01*
X13425000Y-11855000D02*
X13465000Y-11895000D01*
X13465000Y-11855000D02*
X13425000Y-11895000D01*
X13530000Y-11530000D02*
X13570000Y-11570000D01*
X13570000Y-11530000D02*
X13530000Y-11570000D01*
X13570000Y-11690000D02*
X13610000Y-11730000D01*
X13610000Y-11690000D02*
X13570000Y-11730000D01*
X13675000Y-8540000D02*
X13715000Y-8580000D01*
X13715000Y-8540000D02*
X13675000Y-8580000D01*
X13705754Y-11084500D02*
X13745754Y-11124500D01*
X13745754Y-11084500D02*
X13705754Y-11124500D01*
X13719231Y-10965629D02*
X13759231Y-11005629D01*
X13759231Y-10965629D02*
X13719231Y-11005629D01*
X13730000Y-13040000D02*
X13770000Y-13080000D01*
X13770000Y-13040000D02*
X13730000Y-13080000D01*
X13742500Y-9385000D02*
X13782500Y-9425000D01*
X13782500Y-9385000D02*
X13742500Y-9425000D01*
X13755000Y-11855000D02*
X13795000Y-11895000D01*
X13795000Y-11855000D02*
X13755000Y-11895000D01*
X13760000Y-12080000D02*
X13800000Y-12120000D01*
X13800000Y-12080000D02*
X13760000Y-12120000D01*
X13760000Y-12280000D02*
X13800000Y-12320000D01*
X13800000Y-12280000D02*
X13760000Y-12320000D01*
X13760000Y-12480000D02*
X13800000Y-12520000D01*
X13800000Y-12480000D02*
X13760000Y-12520000D01*
X13780000Y-10880000D02*
X13820000Y-10920000D01*
X13820000Y-10880000D02*
X13780000Y-10920000D01*
X13792500Y-10660000D02*
X13832500Y-10700000D01*
X13832500Y-10660000D02*
X13792500Y-10700000D01*
X13806809Y-11113010D02*
X13846809Y-11153010D01*
X13846809Y-11113010D02*
X13806809Y-11153010D01*
X13808000Y-7155000D02*
X13848000Y-7195000D01*
X13848000Y-7155000D02*
X13808000Y-7195000D01*
X13808000Y-7720000D02*
X13848000Y-7760000D01*
X13848000Y-7720000D02*
X13808000Y-7760000D01*
X13880000Y-9430000D02*
X13920000Y-9470000D01*
X13920000Y-9430000D02*
X13880000Y-9470000D01*
X13882301Y-9537301D02*
X13922301Y-9577301D01*
X13922301Y-9537301D02*
X13882301Y-9577301D01*
X13883315Y-9645888D02*
X13923315Y-9685888D01*
X13923315Y-9645888D02*
X13883315Y-9685888D01*
X13930707Y-11455212D02*
X13970707Y-11495212D01*
X13970707Y-11455212D02*
X13930707Y-11495212D01*
X13980000Y-10755000D02*
X14020000Y-10795000D01*
X14020000Y-10755000D02*
X13980000Y-10795000D01*
X13993563Y-9645242D02*
X14033563Y-9685242D01*
X14033563Y-9645242D02*
X13993563Y-9685242D01*
X14022289Y-11403852D02*
X14062289Y-11443852D01*
X14062289Y-11403852D02*
X14022289Y-11443852D01*
X14054191Y-10082500D02*
X14094191Y-10122500D01*
X14094191Y-10082500D02*
X14054191Y-10122500D01*
X14060000Y-10555000D02*
X14100000Y-10595000D01*
X14100000Y-10555000D02*
X14060000Y-10595000D01*
X14080000Y-11855000D02*
X14120000Y-11895000D01*
X14120000Y-11855000D02*
X14080000Y-11895000D01*
X14080000Y-12080000D02*
X14120000Y-12120000D01*
X14120000Y-12080000D02*
X14080000Y-12120000D01*
X14080000Y-12280000D02*
X14120000Y-12320000D01*
X14120000Y-12280000D02*
X14080000Y-12320000D01*
X14080000Y-12480000D02*
X14120000Y-12520000D01*
X14120000Y-12480000D02*
X14080000Y-12520000D01*
X14090000Y-8540000D02*
X14130000Y-8580000D01*
X14130000Y-8540000D02*
X14090000Y-8580000D01*
X14107500Y-11342500D02*
X14147500Y-11382500D01*
X14147500Y-11342500D02*
X14107500Y-11382500D01*
X14120000Y-13040000D02*
X14160000Y-13080000D01*
X14160000Y-13040000D02*
X14120000Y-13080000D01*
X14130000Y-10007500D02*
X14170000Y-10047500D01*
X14170000Y-10007500D02*
X14130000Y-10047500D01*
X14155000Y-9880000D02*
X14195000Y-9920000D01*
X14195000Y-9880000D02*
X14155000Y-9920000D01*
X14178351Y-9777629D02*
X14218351Y-9817629D01*
X14218351Y-9777629D02*
X14178351Y-9817629D01*
X14208000Y-7155000D02*
X14248000Y-7195000D01*
X14248000Y-7155000D02*
X14208000Y-7195000D01*
X14208000Y-7720000D02*
X14248000Y-7760000D01*
X14248000Y-7720000D02*
X14208000Y-7760000D01*
X14392500Y-11855000D02*
X14432500Y-11895000D01*
X14432500Y-11855000D02*
X14392500Y-11895000D01*
X14392500Y-12080000D02*
X14432500Y-12120000D01*
X14432500Y-12080000D02*
X14392500Y-12120000D01*
X14392500Y-12280000D02*
X14432500Y-12320000D01*
X14432500Y-12280000D02*
X14392500Y-12320000D01*
X14392500Y-12480000D02*
X14432500Y-12520000D01*
X14432500Y-12480000D02*
X14392500Y-12520000D01*
X14392500Y-12830000D02*
X14432500Y-12870000D01*
X14432500Y-12830000D02*
X14392500Y-12870000D01*
X14470000Y-8740000D02*
X14510000Y-8780000D01*
X14510000Y-8740000D02*
X14470000Y-8780000D01*
X14530000Y-13040000D02*
X14570000Y-13080000D01*
X14570000Y-13040000D02*
X14530000Y-13080000D01*
X14605000Y-11211500D02*
X14645000Y-11251500D01*
X14645000Y-11211500D02*
X14605000Y-11251500D01*
X14630000Y-7155000D02*
X14670000Y-7195000D01*
X14670000Y-7155000D02*
X14630000Y-7195000D01*
X14630000Y-7720000D02*
X14670000Y-7760000D01*
X14670000Y-7720000D02*
X14630000Y-7760000D01*
X14695000Y-11297500D02*
X14735000Y-11337500D01*
X14735000Y-11297500D02*
X14695000Y-11337500D01*
X14720720Y-10246075D02*
X14760720Y-10286075D01*
X14760720Y-10246075D02*
X14720720Y-10286075D01*
X14742500Y-11855000D02*
X14782500Y-11895000D01*
X14782500Y-11855000D02*
X14742500Y-11895000D01*
X14742500Y-12080000D02*
X14782500Y-12120000D01*
X14782500Y-12080000D02*
X14742500Y-12120000D01*
X14742500Y-12280000D02*
X14782500Y-12320000D01*
X14782500Y-12280000D02*
X14742500Y-12320000D01*
X14742500Y-12480000D02*
X14782500Y-12520000D01*
X14782500Y-12480000D02*
X14742500Y-12520000D01*
X14742500Y-12830000D02*
X14782500Y-12870000D01*
X14782500Y-12830000D02*
X14742500Y-12870000D01*
X14780000Y-9050000D02*
X14820000Y-9090000D01*
X14820000Y-9050000D02*
X14780000Y-9090000D01*
X14815000Y-10340000D02*
X14855000Y-10380000D01*
X14855000Y-10340000D02*
X14815000Y-10380000D01*
X14815000Y-10555000D02*
X14855000Y-10595000D01*
X14855000Y-10555000D02*
X14815000Y-10595000D01*
X14930000Y-8540000D02*
X14970000Y-8580000D01*
X14970000Y-8540000D02*
X14930000Y-8580000D01*
X14940779Y-10284221D02*
X14980779Y-10324221D01*
X14980779Y-10284221D02*
X14940779Y-10324221D01*
X14950000Y-13040000D02*
X14990000Y-13080000D01*
X14990000Y-13040000D02*
X14950000Y-13080000D01*
X14955000Y-10660000D02*
X14995000Y-10700000D01*
X14995000Y-10660000D02*
X14955000Y-10700000D01*
X15025000Y-10505000D02*
X15065000Y-10545000D01*
X15065000Y-10505000D02*
X15025000Y-10545000D01*
X15030000Y-9290000D02*
X15070000Y-9330000D01*
X15070000Y-9290000D02*
X15030000Y-9330000D01*
X15040000Y-8650000D02*
X15080000Y-8690000D01*
X15080000Y-8650000D02*
X15040000Y-8690000D01*
X15080000Y-7155000D02*
X15120000Y-7195000D01*
X15120000Y-7155000D02*
X15080000Y-7195000D01*
X15080000Y-7720000D02*
X15120000Y-7760000D01*
X15120000Y-7720000D02*
X15080000Y-7760000D01*
X15102500Y-10765000D02*
X15142500Y-10805000D01*
X15142500Y-10765000D02*
X15102500Y-10805000D01*
X15117500Y-11855000D02*
X15157500Y-11895000D01*
X15157500Y-11855000D02*
X15117500Y-11895000D01*
X15117500Y-12080000D02*
X15157500Y-12120000D01*
X15157500Y-12080000D02*
X15117500Y-12120000D01*
X15117500Y-12280000D02*
X15157500Y-12320000D01*
X15157500Y-12280000D02*
X15117500Y-12320000D01*
X15117500Y-12480000D02*
X15157500Y-12520000D01*
X15157500Y-12480000D02*
X15117500Y-12520000D01*
X15117500Y-12830000D02*
X15157500Y-12870000D01*
X15157500Y-12830000D02*
X15117500Y-12870000D01*
X15150732Y-11112500D02*
X15190732Y-11152500D01*
X15190732Y-11112500D02*
X15150732Y-11152500D01*
X15205000Y-8805000D02*
X15245000Y-8845000D01*
X15245000Y-8805000D02*
X15205000Y-8845000D01*
X15214801Y-8965199D02*
X15254801Y-9005199D01*
X15254801Y-8965199D02*
X15214801Y-9005199D01*
X15253538Y-10840000D02*
X15293538Y-10880000D01*
X15293538Y-10840000D02*
X15253538Y-10880000D01*
X15255000Y-11043129D02*
X15295000Y-11083129D01*
X15295000Y-11043129D02*
X15255000Y-11083129D01*
X15290000Y-9090000D02*
X15330000Y-9130000D01*
X15330000Y-9090000D02*
X15290000Y-9130000D01*
X15290000Y-9220000D02*
X15330000Y-9260000D01*
X15330000Y-9220000D02*
X15290000Y-9260000D01*
X15322500Y-10957500D02*
X15362500Y-10997500D01*
X15362500Y-10957500D02*
X15322500Y-10997500D01*
X15324645Y-9435355D02*
X15364645Y-9475355D01*
X15364645Y-9435355D02*
X15324645Y-9475355D01*
X15332645Y-9315951D02*
X15372645Y-9355951D01*
X15372645Y-9315951D02*
X15332645Y-9355951D01*
X15370000Y-13040000D02*
X15410000Y-13080000D01*
X15410000Y-13040000D02*
X15370000Y-13080000D01*
X15467500Y-12830000D02*
X15507500Y-12870000D01*
X15507500Y-12830000D02*
X15467500Y-12870000D01*
X15480000Y-11855000D02*
X15520000Y-11895000D01*
X15520000Y-11855000D02*
X15480000Y-11895000D01*
X15480000Y-12080000D02*
X15520000Y-12120000D01*
X15520000Y-12080000D02*
X15480000Y-12120000D01*
X15480000Y-12280000D02*
X15520000Y-12320000D01*
X15520000Y-12280000D02*
X15480000Y-12320000D01*
X15480000Y-12480000D02*
X15520000Y-12520000D01*
X15520000Y-12480000D02*
X15480000Y-12520000D01*
X15508000Y-7155000D02*
X15548000Y-7195000D01*
X15548000Y-7155000D02*
X15508000Y-7195000D01*
X15508000Y-7720000D02*
X15548000Y-7760000D01*
X15548000Y-7720000D02*
X15508000Y-7760000D01*
X15674981Y-9710000D02*
X15714981Y-9750000D01*
X15714981Y-9710000D02*
X15674981Y-9750000D01*
X15752500Y-9872712D02*
X15792500Y-9912712D01*
X15792500Y-9872712D02*
X15752500Y-9912712D01*
X15767946Y-9758811D02*
X15807946Y-9798811D01*
X15807946Y-9758811D02*
X15767946Y-9798811D01*
X15780000Y-13040000D02*
X15820000Y-13080000D01*
X15820000Y-13040000D02*
X15780000Y-13080000D01*
X15828288Y-9945383D02*
X15868288Y-9985383D01*
X15868288Y-9945383D02*
X15828288Y-9985383D01*
X15848423Y-9561577D02*
X15888423Y-9601577D01*
X15888423Y-9561577D02*
X15848423Y-9601577D01*
X15867500Y-11855000D02*
X15907500Y-11895000D01*
X15907500Y-11855000D02*
X15867500Y-11895000D01*
X15867500Y-12080000D02*
X15907500Y-12120000D01*
X15907500Y-12080000D02*
X15867500Y-12120000D01*
X15867500Y-12280000D02*
X15907500Y-12320000D01*
X15907500Y-12280000D02*
X15867500Y-12320000D01*
X15867500Y-12480000D02*
X15907500Y-12520000D01*
X15907500Y-12480000D02*
X15867500Y-12520000D01*
X15867500Y-12830000D02*
X15907500Y-12870000D01*
X15907500Y-12830000D02*
X15867500Y-12870000D01*
X15870000Y-8540000D02*
X15910000Y-8580000D01*
X15910000Y-8540000D02*
X15870000Y-8580000D01*
X15879513Y-11505487D02*
X15919513Y-11545487D01*
X15919513Y-11505487D02*
X15879513Y-11545487D01*
X15887500Y-10740000D02*
X15927500Y-10780000D01*
X15927500Y-10740000D02*
X15887500Y-10780000D01*
X15908000Y-7155000D02*
X15948000Y-7195000D01*
X15948000Y-7155000D02*
X15908000Y-7195000D01*
X15908000Y-7720000D02*
X15948000Y-7760000D01*
X15948000Y-7720000D02*
X15908000Y-7760000D01*
X15960000Y-8650000D02*
X16000000Y-8690000D01*
X16000000Y-8650000D02*
X15960000Y-8690000D01*
X15970162Y-11452500D02*
X16010162Y-11492500D01*
X16010162Y-11452500D02*
X15970162Y-11492500D01*
X16008288Y-9826622D02*
X16048288Y-9866622D01*
X16048288Y-9826622D02*
X16008288Y-9866622D01*
X16032500Y-9680000D02*
X16072500Y-9720000D01*
X16072500Y-9680000D02*
X16032500Y-9720000D01*
X16067500Y-11405421D02*
X16107500Y-11445421D01*
X16107500Y-11405421D02*
X16067500Y-11445421D01*
X16110000Y-8800000D02*
X16150000Y-8840000D01*
X16150000Y-8800000D02*
X16110000Y-8840000D01*
X16123218Y-10002500D02*
X16163218Y-10042500D01*
X16163218Y-10002500D02*
X16123218Y-10042500D01*
X16130000Y-10740000D02*
X16170000Y-10780000D01*
X16170000Y-10740000D02*
X16130000Y-10780000D01*
X16162272Y-9779558D02*
X16202272Y-9819558D01*
X16202272Y-9779558D02*
X16162272Y-9819558D01*
X16170000Y-11297500D02*
X16210000Y-11337500D01*
X16210000Y-11297500D02*
X16170000Y-11337500D01*
X16200000Y-13040000D02*
X16240000Y-13080000D01*
X16240000Y-13040000D02*
X16200000Y-13080000D01*
X16242500Y-11855000D02*
X16282500Y-11895000D01*
X16282500Y-11855000D02*
X16242500Y-11895000D01*
X16242500Y-12080000D02*
X16282500Y-12120000D01*
X16282500Y-12080000D02*
X16242500Y-12120000D01*
X16242500Y-12280000D02*
X16282500Y-12320000D01*
X16282500Y-12280000D02*
X16242500Y-12320000D01*
X16242500Y-12480000D02*
X16282500Y-12520000D01*
X16282500Y-12480000D02*
X16242500Y-12520000D01*
X16242500Y-12830000D02*
X16282500Y-12870000D01*
X16282500Y-12830000D02*
X16242500Y-12870000D01*
X16270000Y-8970000D02*
X16310000Y-9010000D01*
X16310000Y-8970000D02*
X16270000Y-9010000D01*
X16298381Y-9205127D02*
X16338381Y-9245127D01*
X16338381Y-9205127D02*
X16298381Y-9245127D01*
X16308000Y-7155000D02*
X16348000Y-7195000D01*
X16348000Y-7155000D02*
X16308000Y-7195000D01*
X16308000Y-7720000D02*
X16348000Y-7760000D01*
X16348000Y-7720000D02*
X16308000Y-7760000D01*
X16308493Y-9416210D02*
X16348493Y-9456210D01*
X16348493Y-9416210D02*
X16308493Y-9456210D01*
X16327507Y-9722493D02*
X16367507Y-9762493D01*
X16367507Y-9722493D02*
X16327507Y-9762493D01*
X16327706Y-9832294D02*
X16367706Y-9872294D01*
X16367706Y-9832294D02*
X16327706Y-9872294D01*
X16328704Y-9309616D02*
X16368704Y-9349616D01*
X16368704Y-9309616D02*
X16328704Y-9349616D01*
X16330000Y-9105000D02*
X16370000Y-9145000D01*
X16370000Y-9105000D02*
X16330000Y-9145000D01*
X16334932Y-11222568D02*
X16374932Y-11262568D01*
X16374932Y-11222568D02*
X16334932Y-11262568D01*
X16592500Y-12830000D02*
X16632500Y-12870000D01*
X16632500Y-12830000D02*
X16592500Y-12870000D01*
X16630000Y-11855000D02*
X16670000Y-11895000D01*
X16670000Y-11855000D02*
X16630000Y-11895000D01*
X16630000Y-12080000D02*
X16670000Y-12120000D01*
X16670000Y-12080000D02*
X16630000Y-12120000D01*
X16630000Y-12280000D02*
X16670000Y-12320000D01*
X16670000Y-12280000D02*
X16630000Y-12320000D01*
X16630000Y-12480000D02*
X16670000Y-12520000D01*
X16670000Y-12480000D02*
X16630000Y-12520000D01*
X16630000Y-13040000D02*
X16670000Y-13080000D01*
X16670000Y-13040000D02*
X16630000Y-13080000D01*
X16708000Y-7155000D02*
X16748000Y-7195000D01*
X16748000Y-7155000D02*
X16708000Y-7195000D01*
X16708000Y-7720000D02*
X16748000Y-7760000D01*
X16748000Y-7720000D02*
X16708000Y-7760000D01*
X16740124Y-10425000D02*
X16780124Y-10465000D01*
X16780124Y-10425000D02*
X16740124Y-10465000D01*
X16777500Y-10740000D02*
X16817500Y-10780000D01*
X16817500Y-10740000D02*
X16777500Y-10780000D01*
X16790000Y-8970000D02*
X16830000Y-9010000D01*
X16830000Y-8970000D02*
X16790000Y-9010000D01*
X16790000Y-9330000D02*
X16830000Y-9370000D01*
X16830000Y-9330000D02*
X16790000Y-9370000D01*
X16840832Y-10377571D02*
X16880832Y-10417571D01*
X16880832Y-10377571D02*
X16840832Y-10417571D01*
X16930231Y-10322500D02*
X16970231Y-10362500D01*
X16970231Y-10322500D02*
X16930231Y-10362500D01*
X17017500Y-11855000D02*
X17057500Y-11895000D01*
X17057500Y-11855000D02*
X17017500Y-11895000D01*
X17017500Y-12080000D02*
X17057500Y-12120000D01*
X17057500Y-12080000D02*
X17017500Y-12120000D01*
X17017500Y-12280000D02*
X17057500Y-12320000D01*
X17057500Y-12280000D02*
X17017500Y-12320000D01*
X17017500Y-12480000D02*
X17057500Y-12520000D01*
X17057500Y-12480000D02*
X17017500Y-12520000D01*
X17034402Y-10272500D02*
X17074402Y-10312500D01*
X17074402Y-10272500D02*
X17034402Y-10312500D01*
X17040000Y-9100000D02*
X17080000Y-9140000D01*
X17080000Y-9100000D02*
X17040000Y-9140000D01*
X17040000Y-13040000D02*
X17080000Y-13080000D01*
X17080000Y-13040000D02*
X17040000Y-13080000D01*
X17108000Y-7155000D02*
X17148000Y-7195000D01*
X17148000Y-7155000D02*
X17108000Y-7195000D01*
X17139161Y-10224020D02*
X17179161Y-10264020D01*
X17179161Y-10224020D02*
X17139161Y-10264020D01*
X17185000Y-10740000D02*
X17225000Y-10780000D01*
X17225000Y-10740000D02*
X17185000Y-10780000D01*
X17230000Y-11123981D02*
X17270000Y-11163981D01*
X17270000Y-11123981D02*
X17230000Y-11163981D01*
X17230653Y-10172500D02*
X17270653Y-10212500D01*
X17270653Y-10172500D02*
X17230653Y-10212500D01*
X17254268Y-10933319D02*
X17294268Y-10973319D01*
X17294268Y-10933319D02*
X17254268Y-10973319D01*
X17265000Y-10510000D02*
X17305000Y-10550000D01*
X17305000Y-10510000D02*
X17265000Y-10550000D01*
X17285000Y-9732500D02*
X17325000Y-9772500D01*
X17325000Y-9732500D02*
X17285000Y-9772500D01*
X17305000Y-11035000D02*
X17345000Y-11075000D01*
X17345000Y-11035000D02*
X17305000Y-11075000D01*
X17324205Y-10855000D02*
X17364205Y-10895000D01*
X17364205Y-10855000D02*
X17324205Y-10895000D01*
X17330000Y-10122500D02*
X17370000Y-10162500D01*
X17370000Y-10122500D02*
X17330000Y-10162500D01*
X17405000Y-11855000D02*
X17445000Y-11895000D01*
X17445000Y-11855000D02*
X17405000Y-11895000D01*
X17405000Y-12080000D02*
X17445000Y-12120000D01*
X17445000Y-12080000D02*
X17405000Y-12120000D01*
X17405000Y-12280000D02*
X17445000Y-12320000D01*
X17445000Y-12280000D02*
X17405000Y-12320000D01*
X17405000Y-12480000D02*
X17445000Y-12520000D01*
X17445000Y-12480000D02*
X17405000Y-12520000D01*
X17410000Y-7720000D02*
X17450000Y-7760000D01*
X17450000Y-7720000D02*
X17410000Y-7760000D01*
X17415000Y-10665000D02*
X17455000Y-10705000D01*
X17455000Y-10665000D02*
X17415000Y-10705000D01*
X17435000Y-10095000D02*
X17475000Y-10135000D01*
X17475000Y-10095000D02*
X17435000Y-10135000D01*
X17530000Y-7155000D02*
X17570000Y-7195000D01*
X17570000Y-7155000D02*
X17530000Y-7195000D01*
X17577500Y-13067500D02*
X17617500Y-13107500D01*
X17617500Y-13067500D02*
X17577500Y-13107500D01*
X17817500Y-11855000D02*
X17857500Y-11895000D01*
X17857500Y-11855000D02*
X17817500Y-11895000D01*
X17817500Y-12080000D02*
X17857500Y-12120000D01*
X17857500Y-12080000D02*
X17817500Y-12120000D01*
X17817500Y-12280000D02*
X17857500Y-12320000D01*
X17857500Y-12280000D02*
X17817500Y-12320000D01*
X17817500Y-12480000D02*
X17857500Y-12520000D01*
X17857500Y-12480000D02*
X17817500Y-12520000D01*
X17862500Y-9605000D02*
X17902500Y-9645000D01*
X17902500Y-9605000D02*
X17862500Y-9645000D01*
X17900000Y-12780000D02*
X17940000Y-12820000D01*
X17940000Y-12780000D02*
X17900000Y-12820000D01*
X17965000Y-11125000D02*
X18005000Y-11165000D01*
X18005000Y-11125000D02*
X17965000Y-11165000D01*
X17980000Y-7155000D02*
X18020000Y-7195000D01*
X18020000Y-7155000D02*
X17980000Y-7195000D01*
X18035000Y-12660000D02*
X18075000Y-12700000D01*
X18075000Y-12660000D02*
X18035000Y-12700000D01*
X18040000Y-11560421D02*
X18080000Y-11600421D01*
X18080000Y-11560421D02*
X18040000Y-11600421D01*
X18117345Y-11467090D02*
X18157345Y-11507090D01*
X18157345Y-11467090D02*
X18117345Y-11507090D01*
X18168750Y-10193750D02*
X18208750Y-10233750D01*
X18208750Y-10193750D02*
X18168750Y-10233750D01*
X18176000Y-11380000D02*
X18216000Y-11420000D01*
X18216000Y-11380000D02*
X18176000Y-11420000D01*
X18180000Y-7720000D02*
X18220000Y-7760000D01*
X18220000Y-7720000D02*
X18180000Y-7760000D01*
X18192500Y-11855000D02*
X18232500Y-11895000D01*
X18232500Y-11855000D02*
X18192500Y-11895000D01*
X18192500Y-12080000D02*
X18232500Y-12120000D01*
X18232500Y-12080000D02*
X18192500Y-12120000D01*
X18192500Y-12280000D02*
X18232500Y-12320000D01*
X18232500Y-12280000D02*
X18192500Y-12320000D01*
X18192500Y-12480000D02*
X18232500Y-12520000D01*
X18232500Y-12480000D02*
X18192500Y-12520000D01*
X18195000Y-10765000D02*
X18235000Y-10805000D01*
X18235000Y-10765000D02*
X18195000Y-10805000D01*
X18230000Y-13055000D02*
X18270000Y-13095000D01*
X18270000Y-13055000D02*
X18230000Y-13095000D01*
X18270000Y-11289000D02*
X18310000Y-11329000D01*
X18310000Y-11289000D02*
X18270000Y-11329000D01*
X18370425Y-11222500D02*
X18410425Y-11262500D01*
X18410425Y-11222500D02*
X18370425Y-11262500D01*
X18400000Y-9600000D02*
X18440000Y-9640000D01*
X18440000Y-9600000D02*
X18400000Y-9640000D01*
X18430000Y-7155000D02*
X18470000Y-7195000D01*
X18470000Y-7155000D02*
X18430000Y-7195000D01*
X18445000Y-12820000D02*
X18485000Y-12860000D01*
X18485000Y-12820000D02*
X18445000Y-12860000D01*
X18555000Y-13055000D02*
X18595000Y-13095000D01*
X18595000Y-13055000D02*
X18555000Y-13095000D01*
X18580000Y-8880000D02*
X18620000Y-8920000D01*
X18620000Y-8880000D02*
X18580000Y-8920000D01*
X18580000Y-11855000D02*
X18620000Y-11895000D01*
X18620000Y-11855000D02*
X18580000Y-11895000D01*
X18580000Y-12080000D02*
X18620000Y-12120000D01*
X18620000Y-12080000D02*
X18580000Y-12120000D01*
X18580000Y-12280000D02*
X18620000Y-12320000D01*
X18620000Y-12280000D02*
X18580000Y-12320000D01*
X18605000Y-12660000D02*
X18645000Y-12700000D01*
X18645000Y-12660000D02*
X18605000Y-12700000D01*
X18610000Y-7720000D02*
X18650000Y-7760000D01*
X18650000Y-7720000D02*
X18610000Y-7760000D01*
X18690000Y-8090000D02*
X18730000Y-8130000D01*
X18730000Y-8090000D02*
X18690000Y-8130000D01*
X18770000Y-12820000D02*
X18810000Y-12860000D01*
X18810000Y-12820000D02*
X18770000Y-12860000D01*
X18805000Y-13055000D02*
X18845000Y-13095000D01*
X18845000Y-13055000D02*
X18805000Y-13095000D01*
X18858000Y-7155000D02*
X18898000Y-7195000D01*
X18898000Y-7155000D02*
X18858000Y-7195000D01*
X18910000Y-11125000D02*
X18950000Y-11165000D01*
X18950000Y-11125000D02*
X18910000Y-11165000D01*
X18915000Y-12660000D02*
X18955000Y-12700000D01*
X18955000Y-12660000D02*
X18915000Y-12700000D01*
X18967500Y-11855000D02*
X19007500Y-11895000D01*
X19007500Y-11855000D02*
X18967500Y-11895000D01*
X18967500Y-12080000D02*
X19007500Y-12120000D01*
X19007500Y-12080000D02*
X18967500Y-12120000D01*
X18967500Y-12280000D02*
X19007500Y-12320000D01*
X19007500Y-12280000D02*
X18967500Y-12320000D01*
X19045000Y-12820000D02*
X19085000Y-12860000D01*
X19085000Y-12820000D02*
X19045000Y-12860000D01*
X19055000Y-13055000D02*
X19095000Y-13095000D01*
X19095000Y-13055000D02*
X19055000Y-13095000D01*
X19180000Y-10765000D02*
X19220000Y-10805000D01*
X19220000Y-10765000D02*
X19180000Y-10805000D01*
X19258000Y-7155000D02*
X19298000Y-7195000D01*
X19298000Y-7155000D02*
X19258000Y-7195000D01*
X19295000Y-11125000D02*
X19335000Y-11165000D01*
X19335000Y-11125000D02*
X19295000Y-11165000D01*
X19295000Y-12820000D02*
X19335000Y-12860000D01*
X19335000Y-12820000D02*
X19295000Y-12860000D01*
X19330000Y-13055000D02*
X19370000Y-13095000D01*
X19370000Y-13055000D02*
X19330000Y-13095000D01*
X19338069Y-8087670D02*
X19378069Y-8127670D01*
X19378069Y-8087670D02*
X19338069Y-8127670D01*
X19355000Y-11855000D02*
X19395000Y-11895000D01*
X19395000Y-11855000D02*
X19355000Y-11895000D01*
X19355000Y-12080000D02*
X19395000Y-12120000D01*
X19395000Y-12080000D02*
X19355000Y-12120000D01*
X19355000Y-12280000D02*
X19395000Y-12320000D01*
X19395000Y-12280000D02*
X19355000Y-12320000D01*
X19388841Y-11025775D02*
X19428841Y-11065775D01*
X19428841Y-11025775D02*
X19388841Y-11065775D01*
X19400130Y-10867594D02*
X19440130Y-10907594D01*
X19440130Y-10867594D02*
X19400130Y-10907594D01*
X19414801Y-9995199D02*
X19454801Y-10035199D01*
X19454801Y-9995199D02*
X19414801Y-10035199D01*
X19415000Y-10120000D02*
X19455000Y-10160000D01*
X19455000Y-10120000D02*
X19415000Y-10160000D01*
X19420000Y-9100000D02*
X19460000Y-9140000D01*
X19460000Y-9100000D02*
X19420000Y-9140000D01*
X19420000Y-9230000D02*
X19460000Y-9270000D01*
X19460000Y-9230000D02*
X19420000Y-9270000D01*
X19420000Y-9360000D02*
X19460000Y-9400000D01*
X19460000Y-9360000D02*
X19420000Y-9400000D01*
X19420000Y-9490000D02*
X19460000Y-9530000D01*
X19460000Y-9490000D02*
X19420000Y-9530000D01*
X19420000Y-9740000D02*
X19460000Y-9780000D01*
X19460000Y-9740000D02*
X19420000Y-9780000D01*
X19420000Y-9860000D02*
X19460000Y-9900000D01*
X19460000Y-9860000D02*
X19420000Y-9900000D01*
X19432500Y-10455000D02*
X19472500Y-10495000D01*
X19472500Y-10455000D02*
X19432500Y-10495000D01*
X19463143Y-10951585D02*
X19503143Y-10991585D01*
X19503143Y-10951585D02*
X19463143Y-10991585D01*
X19545000Y-12820000D02*
X19585000Y-12860000D01*
X19585000Y-12820000D02*
X19545000Y-12860000D01*
X19555000Y-10665000D02*
X19595000Y-10705000D01*
X19595000Y-10665000D02*
X19555000Y-10705000D01*
X19580000Y-13055000D02*
X19620000Y-13095000D01*
X19620000Y-13055000D02*
X19580000Y-13095000D01*
X19582881Y-10852119D02*
X19622881Y-10892119D01*
X19622881Y-10852119D02*
X19582881Y-10892119D01*
X19658000Y-7155000D02*
X19698000Y-7195000D01*
X19698000Y-7155000D02*
X19658000Y-7195000D01*
X19705000Y-11855000D02*
X19745000Y-11895000D01*
X19745000Y-11855000D02*
X19705000Y-11895000D01*
X19705000Y-12080000D02*
X19745000Y-12120000D01*
X19745000Y-12080000D02*
X19705000Y-12120000D01*
X19705000Y-12280000D02*
X19745000Y-12320000D01*
X19745000Y-12280000D02*
X19705000Y-12320000D01*
X19830000Y-13055000D02*
X19870000Y-13095000D01*
X19870000Y-13055000D02*
X19830000Y-13095000D01*
X19999099Y-9551401D02*
X20039099Y-9591401D01*
X20039099Y-9551401D02*
X19999099Y-9591401D01*
X20058000Y-7155000D02*
X20098000Y-7195000D01*
X20098000Y-7155000D02*
X20058000Y-7195000D01*
X20080000Y-13055000D02*
X20120000Y-13095000D01*
X20120000Y-13055000D02*
X20080000Y-13095000D01*
X20092500Y-11855000D02*
X20132500Y-11895000D01*
X20132500Y-11855000D02*
X20092500Y-11895000D01*
X20092500Y-12080000D02*
X20132500Y-12120000D01*
X20132500Y-12080000D02*
X20092500Y-12120000D01*
X20092500Y-12280000D02*
X20132500Y-12320000D01*
X20132500Y-12280000D02*
X20092500Y-12320000D01*
X20114054Y-11532921D02*
X20154054Y-11572921D01*
X20154054Y-11532921D02*
X20114054Y-11572921D01*
X20135000Y-11125000D02*
X20175000Y-11165000D01*
X20175000Y-11125000D02*
X20135000Y-11165000D01*
X20218014Y-11488937D02*
X20258014Y-11528937D01*
X20258014Y-11488937D02*
X20218014Y-11528937D01*
X20299568Y-11422801D02*
X20339568Y-11462801D01*
X20339568Y-11422801D02*
X20299568Y-11462801D01*
X20330000Y-13055000D02*
X20370000Y-13095000D01*
X20370000Y-13055000D02*
X20330000Y-13095000D01*
X20377068Y-11350895D02*
X20417068Y-11390895D01*
X20417068Y-11350895D02*
X20377068Y-11390895D01*
X20458000Y-7155000D02*
X20498000Y-7195000D01*
X20498000Y-7155000D02*
X20458000Y-7195000D01*
X20460000Y-9520000D02*
X20500000Y-9560000D01*
X20500000Y-9520000D02*
X20460000Y-9560000D01*
X20480000Y-11855000D02*
X20520000Y-11895000D01*
X20520000Y-11855000D02*
X20480000Y-11895000D01*
X20480000Y-12080000D02*
X20520000Y-12120000D01*
X20520000Y-12080000D02*
X20480000Y-12120000D01*
X20480000Y-12280000D02*
X20520000Y-12320000D01*
X20520000Y-12280000D02*
X20480000Y-12320000D01*
X20505557Y-11265557D02*
X20545557Y-11305557D01*
X20545557Y-11265557D02*
X20505557Y-11305557D01*
X20526203Y-8360203D02*
X20566203Y-8400203D01*
X20566203Y-8360203D02*
X20526203Y-8400203D01*
X20580000Y-13055000D02*
X20620000Y-13095000D01*
X20620000Y-13055000D02*
X20580000Y-13095000D01*
X20630000Y-8730000D02*
X20670000Y-8770000D01*
X20670000Y-8730000D02*
X20630000Y-8770000D01*
X20780000Y-11580000D02*
X20820000Y-11620000D01*
X20820000Y-11580000D02*
X20780000Y-11620000D01*
X20850000Y-11850000D02*
X20890000Y-11890000D01*
X20890000Y-11850000D02*
X20850000Y-11890000D01*
X20858000Y-7155000D02*
X20898000Y-7195000D01*
X20898000Y-7155000D02*
X20858000Y-7195000D01*
X20930000Y-12080000D02*
X20970000Y-12120000D01*
X20970000Y-12080000D02*
X20930000Y-12120000D01*
X21040000Y-11660000D02*
X21080000Y-11700000D01*
X21080000Y-11660000D02*
X21040000Y-11700000D01*
X21105000Y-11255000D02*
X21145000Y-11295000D01*
X21145000Y-11255000D02*
X21105000Y-11295000D01*
X21130000Y-12230000D02*
X21170000Y-12270000D01*
X21170000Y-12230000D02*
X21130000Y-12270000D01*
X21160000Y-11850000D02*
X21200000Y-11890000D01*
X21200000Y-11850000D02*
X21160000Y-11890000D01*
X21230000Y-11460000D02*
X21270000Y-11500000D01*
X21270000Y-11460000D02*
X21230000Y-11500000D01*
X21258000Y-7155000D02*
X21298000Y-7195000D01*
X21298000Y-7155000D02*
X21258000Y-7195000D01*
X21330000Y-12030000D02*
X21370000Y-12070000D01*
X21370000Y-12030000D02*
X21330000Y-12070000D01*
X21350000Y-11660000D02*
X21390000Y-11700000D01*
X21390000Y-11660000D02*
X21350000Y-11700000D01*
X21400000Y-11300000D02*
X21440000Y-11340000D01*
X21440000Y-11300000D02*
X21400000Y-11340000D01*
X21430000Y-10930000D02*
X21470000Y-10970000D01*
X21470000Y-10930000D02*
X21430000Y-10970000D01*
X21460000Y-7680000D02*
X21500000Y-7720000D01*
X21500000Y-7680000D02*
X21460000Y-7720000D01*
X21460000Y-7980000D02*
X21500000Y-8020000D01*
X21500000Y-7980000D02*
X21460000Y-8020000D01*
X21530000Y-11830000D02*
X21570000Y-11870000D01*
X21570000Y-11830000D02*
X21530000Y-11870000D01*
X21550000Y-11460000D02*
X21590000Y-11500000D01*
X21590000Y-11460000D02*
X21550000Y-11500000D01*
X21590000Y-11110000D02*
X21630000Y-11150000D01*
X21630000Y-11110000D02*
X21590000Y-11150000D01*
X21680000Y-7155000D02*
X21720000Y-7195000D01*
X21720000Y-7155000D02*
X21680000Y-7195000D01*
X21680000Y-13030000D02*
X21720000Y-13070000D01*
X21720000Y-13030000D02*
X21680000Y-13070000D01*
X21730000Y-11630000D02*
X21770000Y-11670000D01*
X21770000Y-11630000D02*
X21730000Y-11670000D01*
X21750000Y-11260000D02*
X21790000Y-11300000D01*
X21790000Y-11260000D02*
X21750000Y-11300000D01*
X21755000Y-10605000D02*
X21795000Y-10645000D01*
X21795000Y-10605000D02*
X21755000Y-10645000D01*
X21780000Y-10910000D02*
X21820000Y-10950000D01*
X21820000Y-10910000D02*
X21780000Y-10950000D01*
X21930000Y-11430000D02*
X21970000Y-11470000D01*
X21970000Y-11430000D02*
X21930000Y-11470000D01*
X21940000Y-11070000D02*
X21980000Y-11110000D01*
X21980000Y-11070000D02*
X21940000Y-11110000D01*
X21955000Y-12755000D02*
X21995000Y-12795000D01*
X21995000Y-12755000D02*
X21955000Y-12795000D01*
X22005000Y-10690000D02*
X22045000Y-10730000D01*
X22045000Y-10690000D02*
X22005000Y-10730000D01*
X22080000Y-10280000D02*
X22120000Y-10320000D01*
X22120000Y-10280000D02*
X22080000Y-10320000D01*
X22130000Y-7155000D02*
X22170000Y-7195000D01*
X22170000Y-7155000D02*
X22130000Y-7195000D01*
X22140000Y-10870000D02*
X22180000Y-10910000D01*
X22180000Y-10870000D02*
X22140000Y-10910000D01*
X22140000Y-11220000D02*
X22180000Y-11260000D01*
X22180000Y-11220000D02*
X22140000Y-11260000D01*
X22195000Y-10500000D02*
X22235000Y-10540000D01*
X22235000Y-10500000D02*
X22195000Y-10540000D01*
X22230000Y-9705000D02*
X22270000Y-9745000D01*
X22270000Y-9705000D02*
X22230000Y-9745000D01*
X22240000Y-11430000D02*
X22280000Y-11470000D01*
X22280000Y-11430000D02*
X22240000Y-11470000D01*
X22255000Y-12455000D02*
X22295000Y-12495000D01*
X22295000Y-12455000D02*
X22255000Y-12495000D01*
X22340000Y-10670000D02*
X22380000Y-10710000D01*
X22380000Y-10670000D02*
X22340000Y-10710000D01*
X22340000Y-11020000D02*
X22380000Y-11060000D01*
X22380000Y-11020000D02*
X22340000Y-11060000D01*
X22400000Y-10300000D02*
X22440000Y-10340000D01*
X22440000Y-10300000D02*
X22400000Y-10340000D01*
X22433600Y-13035600D02*
X22473600Y-13075600D01*
X22473600Y-13035600D02*
X22433600Y-13075600D01*
X22505000Y-9855000D02*
X22545000Y-9895000D01*
X22545000Y-9855000D02*
X22505000Y-9895000D01*
X22540000Y-10470000D02*
X22580000Y-10510000D01*
X22580000Y-10470000D02*
X22540000Y-10510000D01*
X22540000Y-10820000D02*
X22580000Y-10860000D01*
X22580000Y-10820000D02*
X22540000Y-10860000D01*
X22556000Y-13094000D02*
X22596000Y-13134000D01*
X22596000Y-13094000D02*
X22556000Y-13134000D01*
X22558000Y-7155000D02*
X22598000Y-7195000D01*
X22598000Y-7155000D02*
X22558000Y-7195000D01*
X22680000Y-12455000D02*
X22720000Y-12495000D01*
X22720000Y-12455000D02*
X22680000Y-12495000D01*
X22700000Y-10000000D02*
X22740000Y-10040000D01*
X22740000Y-10000000D02*
X22700000Y-10040000D01*
X22740000Y-10620000D02*
X22780000Y-10660000D01*
X22780000Y-10620000D02*
X22740000Y-10660000D01*
X22830000Y-9530000D02*
X22870000Y-9570000D01*
X22870000Y-9530000D02*
X22830000Y-9570000D01*
X22860000Y-12020000D02*
X22900000Y-12060000D01*
X22900000Y-12020000D02*
X22860000Y-12060000D01*
X22890000Y-9810000D02*
X22930000Y-9850000D01*
X22930000Y-9810000D02*
X22890000Y-9850000D01*
X22940000Y-10420000D02*
X22980000Y-10460000D01*
X22980000Y-10420000D02*
X22940000Y-10460000D01*
X22958000Y-7155000D02*
X22998000Y-7195000D01*
X22998000Y-7155000D02*
X22958000Y-7195000D01*
X23025000Y-10910000D02*
X23065000Y-10950000D01*
X23065000Y-10910000D02*
X23025000Y-10950000D01*
X23055000Y-11842500D02*
X23095000Y-11882500D01*
X23095000Y-11842500D02*
X23055000Y-11882500D01*
X23095000Y-9610000D02*
X23135000Y-9650000D01*
X23135000Y-9610000D02*
X23095000Y-9650000D01*
X23105000Y-12455000D02*
X23145000Y-12495000D01*
X23145000Y-12455000D02*
X23105000Y-12495000D01*
X23105000Y-12805000D02*
X23145000Y-12845000D01*
X23145000Y-12805000D02*
X23105000Y-12845000D01*
X23110000Y-9900000D02*
X23150000Y-9940000D01*
X23150000Y-9900000D02*
X23110000Y-9940000D01*
X23155000Y-9205000D02*
X23195000Y-9245000D01*
X23195000Y-9205000D02*
X23155000Y-9245000D01*
X23240000Y-10880000D02*
X23280000Y-10920000D01*
X23280000Y-10880000D02*
X23240000Y-10920000D01*
X23285000Y-9410000D02*
X23325000Y-9450000D01*
X23325000Y-9410000D02*
X23285000Y-9450000D01*
X23310000Y-9705000D02*
X23350000Y-9745000D01*
X23350000Y-9705000D02*
X23310000Y-9745000D01*
X23358000Y-7155000D02*
X23398000Y-7195000D01*
X23398000Y-7155000D02*
X23358000Y-7195000D01*
X23405000Y-12455000D02*
X23445000Y-12495000D01*
X23445000Y-12455000D02*
X23405000Y-12495000D01*
X23405000Y-12805000D02*
X23445000Y-12845000D01*
X23445000Y-12805000D02*
X23405000Y-12845000D01*
X23475000Y-9220000D02*
X23515000Y-9260000D01*
X23515000Y-9220000D02*
X23475000Y-9260000D01*
X23480000Y-8880000D02*
X23520000Y-8920000D01*
X23520000Y-8880000D02*
X23480000Y-8920000D01*
X23495000Y-9860000D02*
X23535000Y-9900000D01*
X23535000Y-9860000D02*
X23495000Y-9900000D01*
X23505000Y-10640000D02*
X23545000Y-10680000D01*
X23545000Y-10640000D02*
X23505000Y-10680000D01*
X23510000Y-9500000D02*
X23550000Y-9540000D01*
X23550000Y-9500000D02*
X23510000Y-9540000D01*
X23530000Y-11835000D02*
X23570000Y-11875000D01*
X23570000Y-11835000D02*
X23530000Y-11875000D01*
X23555000Y-12855000D02*
X23595000Y-12895000D01*
X23595000Y-12855000D02*
X23555000Y-12895000D01*
X23565048Y-11690000D02*
X23605048Y-11730000D01*
X23605048Y-11690000D02*
X23565048Y-11730000D01*
X23570000Y-12020000D02*
X23610000Y-12060000D01*
X23610000Y-12020000D02*
X23570000Y-12060000D01*
X23630000Y-11607500D02*
X23670000Y-11647500D01*
X23670000Y-11607500D02*
X23630000Y-11647500D01*
X23680000Y-9020000D02*
X23720000Y-9060000D01*
X23720000Y-9020000D02*
X23680000Y-9060000D01*
X23695000Y-9665000D02*
X23735000Y-9705000D01*
X23735000Y-9665000D02*
X23695000Y-9705000D01*
X23726250Y-11557500D02*
X23766250Y-11597500D01*
X23766250Y-11557500D02*
X23726250Y-11597500D01*
X23737500Y-7667500D02*
X23777500Y-7707500D01*
X23777500Y-7667500D02*
X23737500Y-7707500D01*
X23745000Y-9265000D02*
X23785000Y-9305000D01*
X23785000Y-9265000D02*
X23745000Y-9305000D01*
X23758000Y-7155000D02*
X23798000Y-7195000D01*
X23798000Y-7155000D02*
X23758000Y-7195000D01*
X23805000Y-8555000D02*
X23845000Y-8595000D01*
X23845000Y-8555000D02*
X23805000Y-8595000D01*
X23900000Y-8790000D02*
X23940000Y-8830000D01*
X23940000Y-8790000D02*
X23900000Y-8830000D01*
X23900000Y-9460000D02*
X23940000Y-9500000D01*
X23940000Y-9460000D02*
X23900000Y-9500000D01*
X23950000Y-9070000D02*
X23990000Y-9110000D01*
X23990000Y-9070000D02*
X23950000Y-9110000D01*
X23982500Y-7985000D02*
X24022500Y-8025000D01*
X24022500Y-7985000D02*
X23982500Y-8025000D01*
X24120000Y-8980000D02*
X24160000Y-9020000D01*
X24160000Y-8980000D02*
X24120000Y-9020000D01*
X24120000Y-9372500D02*
X24160000Y-9412500D01*
X24160000Y-9372500D02*
X24120000Y-9412500D01*
X24120000Y-9780000D02*
X24160000Y-9820000D01*
X24160000Y-9780000D02*
X24120000Y-9820000D01*
X24130000Y-8230000D02*
X24170000Y-8270000D01*
X24170000Y-8230000D02*
X24130000Y-8270000D01*
X24158000Y-7155000D02*
X24198000Y-7195000D01*
X24198000Y-7155000D02*
X24158000Y-7195000D01*
X24255000Y-12630000D02*
X24295000Y-12670000D01*
X24295000Y-12630000D02*
X24255000Y-12670000D01*
X24350000Y-12060000D02*
X24390000Y-12100000D01*
X24390000Y-12060000D02*
X24350000Y-12100000D01*
X24380000Y-8180000D02*
X24420000Y-8220000D01*
X24420000Y-8180000D02*
X24380000Y-8220000D01*
X24380000Y-8540000D02*
X24420000Y-8580000D01*
X24420000Y-8540000D02*
X24380000Y-8580000D01*
X24380000Y-8982500D02*
X24420000Y-9022500D01*
X24420000Y-8982500D02*
X24380000Y-9022500D01*
X24380000Y-9372500D02*
X24420000Y-9412500D01*
X24420000Y-9372500D02*
X24380000Y-9412500D01*
X24380000Y-9780000D02*
X24420000Y-9820000D01*
X24420000Y-9780000D02*
X24380000Y-9820000D01*
X24500000Y-11500000D02*
X24540000Y-11540000D01*
X24540000Y-11500000D02*
X24500000Y-11540000D01*
X24530000Y-12805000D02*
X24570000Y-12845000D01*
X24570000Y-12805000D02*
X24530000Y-12845000D01*
X24545000Y-11027500D02*
X24585000Y-11067500D01*
X24585000Y-11027500D02*
X24545000Y-11067500D01*
X24580000Y-7155000D02*
X24620000Y-7195000D01*
X24620000Y-7155000D02*
X24580000Y-7195000D01*
X24660000Y-8180000D02*
X24700000Y-8220000D01*
X24700000Y-8180000D02*
X24660000Y-8220000D01*
X24660000Y-8540000D02*
X24700000Y-8580000D01*
X24700000Y-8540000D02*
X24660000Y-8580000D01*
X24660000Y-8982500D02*
X24700000Y-9022500D01*
X24700000Y-8982500D02*
X24660000Y-9022500D01*
X24660000Y-9372500D02*
X24700000Y-9412500D01*
X24700000Y-9372500D02*
X24660000Y-9412500D01*
X24660000Y-9780000D02*
X24700000Y-9820000D01*
X24700000Y-9780000D02*
X24660000Y-9820000D01*
X24880000Y-12880000D02*
X24920000Y-12920000D01*
X24920000Y-12880000D02*
X24880000Y-12920000D01*
X24950000Y-8982500D02*
X24990000Y-9022500D01*
X24990000Y-8982500D02*
X24950000Y-9022500D01*
X24950000Y-9372500D02*
X24990000Y-9412500D01*
X24990000Y-9372500D02*
X24950000Y-9412500D01*
X24950000Y-9780000D02*
X24990000Y-9820000D01*
X24990000Y-9780000D02*
X24950000Y-9820000D01*
X24955000Y-8180000D02*
X24995000Y-8220000D01*
X24995000Y-8180000D02*
X24955000Y-8220000D01*
X24955000Y-8540000D02*
X24995000Y-8580000D01*
X24995000Y-8540000D02*
X24955000Y-8580000D01*
X25020000Y-11280000D02*
X25060000Y-11320000D01*
X25060000Y-11280000D02*
X25020000Y-11320000D01*
X25020000Y-11930000D02*
X25060000Y-11970000D01*
X25060000Y-11930000D02*
X25020000Y-11970000D01*
X25030000Y-7155000D02*
X25070000Y-7195000D01*
X25070000Y-7155000D02*
X25030000Y-7195000D01*
X25037699Y-10552500D02*
X25077699Y-10592500D01*
X25077699Y-10552500D02*
X25037699Y-10592500D01*
X25040000Y-10957500D02*
X25080000Y-10997500D01*
X25080000Y-10957500D02*
X25040000Y-10997500D01*
X25105000Y-8355000D02*
X25145000Y-8395000D01*
X25145000Y-8355000D02*
X25105000Y-8395000D01*
X25105000Y-8780000D02*
X25145000Y-8820000D01*
X25145000Y-8780000D02*
X25105000Y-8820000D01*
X25105000Y-9180000D02*
X25145000Y-9220000D01*
X25145000Y-9180000D02*
X25105000Y-9220000D01*
X25140000Y-13010000D02*
X25180000Y-13050000D01*
X25180000Y-13010000D02*
X25140000Y-13050000D01*
X25170000Y-10555000D02*
X25210000Y-10595000D01*
X25210000Y-10555000D02*
X25170000Y-10595000D01*
X25170000Y-10957500D02*
X25210000Y-10997500D01*
X25210000Y-10957500D02*
X25170000Y-10997500D01*
X25290000Y-10957500D02*
X25330000Y-10997500D01*
X25330000Y-10957500D02*
X25290000Y-10997500D01*
X25295000Y-10570000D02*
X25335000Y-10610000D01*
X25335000Y-10570000D02*
X25295000Y-10610000D01*
X25388726Y-12243500D02*
X25428726Y-12283500D01*
X25428726Y-12243500D02*
X25388726Y-12283500D01*
X25405000Y-10647500D02*
X25445000Y-10687500D01*
X25445000Y-10647500D02*
X25405000Y-10687500D01*
X25425000Y-10957500D02*
X25465000Y-10997500D01*
X25465000Y-10957500D02*
X25425000Y-10997500D01*
X25455000Y-7155000D02*
X25495000Y-7195000D01*
X25495000Y-7155000D02*
X25455000Y-7195000D01*
X25455000Y-12855000D02*
X25495000Y-12895000D01*
X25495000Y-12855000D02*
X25455000Y-12895000D01*
X25470000Y-11610000D02*
X25510000Y-11650000D01*
X25510000Y-11610000D02*
X25470000Y-11650000D01*
X25490000Y-8537500D02*
X25530000Y-8577500D01*
X25530000Y-8537500D02*
X25490000Y-8577500D01*
X25490000Y-8980000D02*
X25530000Y-9020000D01*
X25530000Y-8980000D02*
X25490000Y-9020000D01*
X25490000Y-9370000D02*
X25530000Y-9410000D01*
X25530000Y-9370000D02*
X25490000Y-9410000D01*
X25530000Y-9655000D02*
X25570000Y-9695000D01*
X25570000Y-9655000D02*
X25530000Y-9695000D01*
X25530000Y-9905000D02*
X25570000Y-9945000D01*
X25570000Y-9905000D02*
X25530000Y-9945000D01*
X25530000Y-10725000D02*
X25570000Y-10765000D01*
X25570000Y-10725000D02*
X25530000Y-10765000D01*
X25530000Y-10957500D02*
X25570000Y-10997500D01*
X25570000Y-10957500D02*
X25530000Y-10997500D01*
X25655000Y-10802500D02*
X25695000Y-10842500D01*
X25695000Y-10802500D02*
X25655000Y-10842500D01*
X25655000Y-10957500D02*
X25695000Y-10997500D01*
X25695000Y-10957500D02*
X25655000Y-10997500D01*
X25656144Y-12357254D02*
X25696144Y-12397254D01*
X25696144Y-12357254D02*
X25656144Y-12397254D01*
X25670000Y-12010000D02*
X25710000Y-12050000D01*
X25710000Y-12010000D02*
X25670000Y-12050000D01*
X25755000Y-12855000D02*
X25795000Y-12895000D01*
X25795000Y-12855000D02*
X25755000Y-12895000D01*
X25780000Y-8980000D02*
X25820000Y-9020000D01*
X25820000Y-8980000D02*
X25780000Y-9020000D01*
X25780000Y-9370000D02*
X25820000Y-9410000D01*
X25820000Y-9370000D02*
X25780000Y-9410000D01*
X25785000Y-8537500D02*
X25825000Y-8577500D01*
X25825000Y-8537500D02*
X25785000Y-8577500D01*
X25805000Y-12005000D02*
X25845000Y-12045000D01*
X25845000Y-12005000D02*
X25805000Y-12045000D01*
X25855000Y-7155000D02*
X25895000Y-7195000D01*
X25895000Y-7155000D02*
X25855000Y-7195000D01*
X25886671Y-10940576D02*
X25926671Y-10980576D01*
X25926671Y-10940576D02*
X25886671Y-10980576D01*
X25930000Y-11280000D02*
X25970000Y-11320000D01*
X25970000Y-11280000D02*
X25930000Y-11320000D01*
X25930000Y-11830000D02*
X25970000Y-11870000D01*
X25970000Y-11830000D02*
X25930000Y-11870000D01*
X25980000Y-9655000D02*
X26020000Y-9695000D01*
X26020000Y-9655000D02*
X25980000Y-9695000D01*
X25980000Y-9900000D02*
X26020000Y-9940000D01*
X26020000Y-9900000D02*
X25980000Y-9940000D01*
X26055000Y-12855000D02*
X26095000Y-12895000D01*
X26095000Y-12855000D02*
X26055000Y-12895000D01*
X26185000Y-11060500D02*
X26225000Y-11100500D01*
X26225000Y-11060500D02*
X26185000Y-11100500D01*
X26255000Y-7155000D02*
X26295000Y-7195000D01*
X26295000Y-7155000D02*
X26255000Y-7195000D01*
X26280000Y-11155000D02*
X26320000Y-11195000D01*
X26320000Y-11155000D02*
X26280000Y-11195000D01*
X26355000Y-12855000D02*
X26395000Y-12895000D01*
X26395000Y-12855000D02*
X26355000Y-12895000D01*
X26385000Y-11155000D02*
X26425000Y-11195000D01*
X26425000Y-11155000D02*
X26385000Y-11195000D01*
X26455000Y-11668500D02*
X26495000Y-11708500D01*
X26495000Y-11668500D02*
X26455000Y-11708500D01*
X26655000Y-7155000D02*
X26695000Y-7195000D01*
X26695000Y-7155000D02*
X26655000Y-7195000D01*
X26655000Y-12855000D02*
X26695000Y-12895000D01*
X26695000Y-12855000D02*
X26655000Y-12895000D01*
X26750000Y-9910000D02*
X26790000Y-9950000D01*
X26790000Y-9910000D02*
X26750000Y-9950000D01*
X26930000Y-9717500D02*
X26970000Y-9757500D01*
X26970000Y-9717500D02*
X26930000Y-9757500D01*
X26980000Y-12855000D02*
X27020000Y-12895000D01*
X27020000Y-12855000D02*
X26980000Y-12895000D01*
X27042500Y-9607500D02*
X27082500Y-9647500D01*
X27082500Y-9607500D02*
X27042500Y-9647500D01*
X27055000Y-7155000D02*
X27095000Y-7195000D01*
X27095000Y-7155000D02*
X27055000Y-7195000D01*
X27330000Y-7155000D02*
X27370000Y-7195000D01*
X27370000Y-7155000D02*
X27330000Y-7195000D01*
X27330000Y-11030000D02*
X27370000Y-11070000D01*
X27370000Y-11030000D02*
X27330000Y-11070000D01*
X27330000Y-11330000D02*
X27370000Y-11370000D01*
X27370000Y-11330000D02*
X27330000Y-11370000D01*
X27330000Y-11610000D02*
X27370000Y-11650000D01*
X27370000Y-11610000D02*
X27330000Y-11650000D01*
X27330000Y-11920000D02*
X27370000Y-11960000D01*
X27370000Y-11920000D02*
X27330000Y-11960000D01*
X27330000Y-12200000D02*
X27370000Y-12240000D01*
X27370000Y-12200000D02*
X27330000Y-12240000D01*
X27330000Y-12490000D02*
X27370000Y-12530000D01*
X27370000Y-12490000D02*
X27330000Y-12530000D01*
X27430000Y-7355000D02*
X27470000Y-7395000D01*
X27470000Y-7355000D02*
X27430000Y-7395000D01*
X27430000Y-7655000D02*
X27470000Y-7695000D01*
X27470000Y-7655000D02*
X27430000Y-7695000D01*
X27430000Y-7945000D02*
X27470000Y-7985000D01*
X27470000Y-7945000D02*
X27430000Y-7985000D01*
X27430000Y-8225000D02*
X27470000Y-8265000D01*
X27470000Y-8225000D02*
X27430000Y-8265000D01*
X27430000Y-8535000D02*
X27470000Y-8575000D01*
X27470000Y-8535000D02*
X27430000Y-8575000D01*
X27430000Y-8815000D02*
X27470000Y-8855000D01*
X27470000Y-8815000D02*
X27430000Y-8855000D01*
X27430000Y-9105000D02*
X27470000Y-9145000D01*
X27470000Y-9105000D02*
X27430000Y-9145000D01*
X27430000Y-9405000D02*
X27470000Y-9445000D01*
X27470000Y-9405000D02*
X27430000Y-9445000D01*
X27430000Y-9695000D02*
X27470000Y-9735000D01*
X27470000Y-9695000D02*
X27430000Y-9735000D01*
X27430000Y-9975000D02*
X27470000Y-10015000D01*
X27470000Y-9975000D02*
X27430000Y-10015000D01*
X27430000Y-10285000D02*
X27470000Y-10325000D01*
X27470000Y-10285000D02*
X27430000Y-10325000D01*
X27430000Y-10565000D02*
X27470000Y-10605000D01*
X27470000Y-10565000D02*
X27430000Y-10605000D01*
X27430000Y-10855000D02*
X27470000Y-10895000D01*
X27470000Y-10855000D02*
X27430000Y-10895000D01*
X27430000Y-11180000D02*
X27470000Y-11220000D01*
X27470000Y-11180000D02*
X27430000Y-11220000D01*
X27430000Y-11470000D02*
X27470000Y-11510000D01*
X27470000Y-11470000D02*
X27430000Y-11510000D01*
X27430000Y-11750000D02*
X27470000Y-11790000D01*
X27470000Y-11750000D02*
X27430000Y-11790000D01*
X27430000Y-12060000D02*
X27470000Y-12100000D01*
X27470000Y-12060000D02*
X27430000Y-12100000D01*
X27430000Y-12340000D02*
X27470000Y-12380000D01*
X27470000Y-12340000D02*
X27430000Y-12380000D01*
X27430000Y-12630000D02*
X27470000Y-12670000D01*
X27470000Y-12630000D02*
X27430000Y-12670000D01*
X26780500Y-12500000D02*
G75*
G02*
X26715500Y-12500000I-32500J0D01*
G01*
X26715500Y-12500000D02*
G75*
G02*
X26780500Y-12500000I32500J0D01*
G01*
X26782500Y-12150000D02*
G75*
G02*
X26717500Y-12150000I-32500J0D01*
G01*
X26717500Y-12150000D02*
G75*
G02*
X26782500Y-12150000I32500J0D01*
G01*
X26907500Y-12500000D02*
G75*
G02*
X26842500Y-12500000I-32500J0D01*
G01*
X26842500Y-12500000D02*
G75*
G02*
X26907500Y-12500000I32500J0D01*
G01*
X26909500Y-12150000D02*
G75*
G02*
X26844500Y-12150000I-32500J0D01*
G01*
X26844500Y-12150000D02*
G75*
G02*
X26909500Y-12150000I32500J0D01*
G01*
X4180000Y-11476000D02*
X4180000Y-11576000D01*
X4130000Y-11526000D02*
X4230000Y-11526000D01*
X4180000Y-11730000D02*
X4180000Y-11830000D01*
X4130000Y-11780000D02*
X4230000Y-11780000D01*
X4434000Y-11476000D02*
X4434000Y-11576000D01*
X4384000Y-11526000D02*
X4484000Y-11526000D01*
X4434000Y-11730000D02*
X4434000Y-11830000D01*
X4384000Y-11780000D02*
X4484000Y-11780000D01*
X4688000Y-11476000D02*
X4688000Y-11576000D01*
X4638000Y-11526000D02*
X4738000Y-11526000D01*
X4688000Y-11730000D02*
X4688000Y-11830000D01*
X4638000Y-11780000D02*
X4738000Y-11780000D01*
X6591000Y-7415000D02*
X6591000Y-7515000D01*
X6541000Y-7465000D02*
X6641000Y-7465000D01*
X6845000Y-7415000D02*
X6845000Y-7515000D01*
X6795000Y-7465000D02*
X6895000Y-7465000D01*
X24747500Y-12710000D02*
X24747500Y-12810000D01*
X24697500Y-12760000D02*
X24797500Y-12760000D01*
X25001500Y-12710000D02*
X25001500Y-12810000D01*
X24951500Y-12760000D02*
X25051500Y-12760000D01*
D13*
X26732452Y-8627452D02*
X26732452Y-8547548D01*
X26652548Y-8547548D01*
X26652548Y-8627452D01*
X26732452Y-8627452D01*
X26732452Y-8856452D02*
X26732452Y-8776548D01*
X26652548Y-8776548D01*
X26652548Y-8856452D01*
X26732452Y-8856452D01*
X26732452Y-9085452D02*
X26732452Y-9005548D01*
X26652548Y-9005548D01*
X26652548Y-9085452D01*
X26732452Y-9085452D01*
X26732452Y-9314452D02*
X26732452Y-9234548D01*
X26652548Y-9234548D01*
X26652548Y-9314452D01*
X26732452Y-9314452D01*
X26732452Y-9543452D02*
X26732452Y-9463548D01*
X26652548Y-9463548D01*
X26652548Y-9543452D01*
X26732452Y-9543452D01*
X26982452Y-8512952D02*
X26982452Y-8433048D01*
X26902548Y-8433048D01*
X26902548Y-8512952D01*
X26982452Y-8512952D01*
X26982452Y-8741952D02*
X26982452Y-8662048D01*
X26902548Y-8662048D01*
X26902548Y-8741952D01*
X26982452Y-8741952D01*
X26982452Y-8970952D02*
X26982452Y-8891048D01*
X26902548Y-8891048D01*
X26902548Y-8970952D01*
X26982452Y-8970952D01*
X26982452Y-9199952D02*
X26982452Y-9120048D01*
X26902548Y-9120048D01*
X26902548Y-9199952D01*
X26982452Y-9199952D01*
X26982452Y-9428952D02*
X26982452Y-9349048D01*
X26902548Y-9349048D01*
X26902548Y-9428952D01*
X26982452Y-9428952D01*
X27232452Y-8627452D02*
X27232452Y-8547548D01*
X27152548Y-8547548D01*
X27152548Y-8627452D01*
X27232452Y-8627452D01*
X27232452Y-8856452D02*
X27232452Y-8776548D01*
X27152548Y-8776548D01*
X27152548Y-8856452D01*
X27232452Y-8856452D01*
X27232452Y-9085452D02*
X27232452Y-9005548D01*
X27152548Y-9005548D01*
X27152548Y-9085452D01*
X27232452Y-9085452D01*
X27232452Y-9314452D02*
X27232452Y-9234548D01*
X27152548Y-9234548D01*
X27152548Y-9314452D01*
X27232452Y-9314452D01*
X27232452Y-9543452D02*
X27232452Y-9463548D01*
X27152548Y-9463548D01*
X27152548Y-9543452D01*
X27232452Y-9543452D01*
D14*
X26942500Y-7935000D02*
X27104000Y-7773500D01*
X26942500Y-7612000D01*
X26781000Y-7773500D01*
X26942500Y-7935000D01*
X26942500Y-10434000D02*
X27104000Y-10272500D01*
X26942500Y-10111000D01*
X26781000Y-10272500D01*
X26942500Y-10434000D01*
D11*
X4080777Y-14353984D02*
X4080777Y-14153984D01*
X4080777Y-14153984D02*
X4128396Y-14153984D01*
X4128396Y-14153984D02*
X4156967Y-14163508D01*
X4156967Y-14163508D02*
X4176015Y-14182555D01*
X4176015Y-14182555D02*
X4185539Y-14201603D01*
X4185539Y-14201603D02*
X4195063Y-14239698D01*
X4195063Y-14239698D02*
X4195063Y-14268269D01*
X4195063Y-14268269D02*
X4185539Y-14306365D01*
X4185539Y-14306365D02*
X4176015Y-14325412D01*
X4176015Y-14325412D02*
X4156967Y-14344460D01*
X4156967Y-14344460D02*
X4128396Y-14353984D01*
X4128396Y-14353984D02*
X4080777Y-14353984D01*
X4280777Y-14353984D02*
X4280777Y-14220650D01*
X4280777Y-14258746D02*
X4290301Y-14239698D01*
X4290301Y-14239698D02*
X4299824Y-14230174D01*
X4299824Y-14230174D02*
X4318872Y-14220650D01*
X4318872Y-14220650D02*
X4337920Y-14220650D01*
X4404586Y-14353984D02*
X4404586Y-14220650D01*
X4404586Y-14153984D02*
X4395063Y-14163508D01*
X4395063Y-14163508D02*
X4404586Y-14173031D01*
X4404586Y-14173031D02*
X4414110Y-14163508D01*
X4414110Y-14163508D02*
X4404586Y-14153984D01*
X4404586Y-14153984D02*
X4404586Y-14173031D01*
X4528396Y-14353984D02*
X4509348Y-14344460D01*
X4509348Y-14344460D02*
X4499824Y-14325412D01*
X4499824Y-14325412D02*
X4499824Y-14153984D01*
X4633158Y-14353984D02*
X4614110Y-14344460D01*
X4614110Y-14344460D02*
X4604586Y-14325412D01*
X4604586Y-14325412D02*
X4604586Y-14153984D01*
X4861729Y-14353984D02*
X4861729Y-14153984D01*
X4861729Y-14153984D02*
X4928396Y-14296841D01*
X4928396Y-14296841D02*
X4995063Y-14153984D01*
X4995063Y-14153984D02*
X4995063Y-14353984D01*
X5176015Y-14353984D02*
X5176015Y-14249222D01*
X5176015Y-14249222D02*
X5166491Y-14230174D01*
X5166491Y-14230174D02*
X5147444Y-14220650D01*
X5147444Y-14220650D02*
X5109348Y-14220650D01*
X5109348Y-14220650D02*
X5090301Y-14230174D01*
X5176015Y-14344460D02*
X5156967Y-14353984D01*
X5156967Y-14353984D02*
X5109348Y-14353984D01*
X5109348Y-14353984D02*
X5090301Y-14344460D01*
X5090301Y-14344460D02*
X5080777Y-14325412D01*
X5080777Y-14325412D02*
X5080777Y-14306365D01*
X5080777Y-14306365D02*
X5090301Y-14287317D01*
X5090301Y-14287317D02*
X5109348Y-14277793D01*
X5109348Y-14277793D02*
X5156967Y-14277793D01*
X5156967Y-14277793D02*
X5176015Y-14268269D01*
X5271253Y-14220650D02*
X5271253Y-14420650D01*
X5271253Y-14230174D02*
X5290301Y-14220650D01*
X5290301Y-14220650D02*
X5328396Y-14220650D01*
X5328396Y-14220650D02*
X5347444Y-14230174D01*
X5347444Y-14230174D02*
X5356967Y-14239698D01*
X5356967Y-14239698D02*
X5366491Y-14258746D01*
X5366491Y-14258746D02*
X5366491Y-14315888D01*
X5366491Y-14315888D02*
X5356967Y-14334936D01*
X5356967Y-14334936D02*
X5347444Y-14344460D01*
X5347444Y-14344460D02*
X5328396Y-14353984D01*
X5328396Y-14353984D02*
X5290301Y-14353984D01*
X5290301Y-14353984D02*
X5271253Y-14344460D01*
X5452205Y-14334936D02*
X5461729Y-14344460D01*
X5461729Y-14344460D02*
X5452205Y-14353984D01*
X5452205Y-14353984D02*
X5442682Y-14344460D01*
X5442682Y-14344460D02*
X5452205Y-14334936D01*
X5452205Y-14334936D02*
X5452205Y-14353984D01*
X5452205Y-14230174D02*
X5461729Y-14239698D01*
X5461729Y-14239698D02*
X5452205Y-14249222D01*
X5452205Y-14249222D02*
X5442682Y-14239698D01*
X5442682Y-14239698D02*
X5452205Y-14230174D01*
X5452205Y-14230174D02*
X5452205Y-14249222D01*
D12*
X3780000Y-14662500D02*
X3820000Y-14702500D01*
X3820000Y-14662500D02*
X3780000Y-14702500D01*
D11*
X4118872Y-14573984D02*
X4137920Y-14573984D01*
X4137920Y-14573984D02*
X4156967Y-14583508D01*
X4156967Y-14583508D02*
X4166491Y-14593031D01*
X4166491Y-14593031D02*
X4176015Y-14612079D01*
X4176015Y-14612079D02*
X4185539Y-14650174D01*
X4185539Y-14650174D02*
X4185539Y-14697793D01*
X4185539Y-14697793D02*
X4176015Y-14735888D01*
X4176015Y-14735888D02*
X4166491Y-14754936D01*
X4166491Y-14754936D02*
X4156967Y-14764460D01*
X4156967Y-14764460D02*
X4137920Y-14773984D01*
X4137920Y-14773984D02*
X4118872Y-14773984D01*
X4118872Y-14773984D02*
X4099824Y-14764460D01*
X4099824Y-14764460D02*
X4090301Y-14754936D01*
X4090301Y-14754936D02*
X4080777Y-14735888D01*
X4080777Y-14735888D02*
X4071253Y-14697793D01*
X4071253Y-14697793D02*
X4071253Y-14650174D01*
X4071253Y-14650174D02*
X4080777Y-14612079D01*
X4080777Y-14612079D02*
X4090301Y-14593031D01*
X4090301Y-14593031D02*
X4099824Y-14583508D01*
X4099824Y-14583508D02*
X4118872Y-14573984D01*
X4271253Y-14754936D02*
X4280777Y-14764460D01*
X4280777Y-14764460D02*
X4271253Y-14773984D01*
X4271253Y-14773984D02*
X4261729Y-14764460D01*
X4261729Y-14764460D02*
X4271253Y-14754936D01*
X4271253Y-14754936D02*
X4271253Y-14773984D01*
X4452205Y-14640650D02*
X4452205Y-14773984D01*
X4404586Y-14564460D02*
X4356967Y-14707317D01*
X4356967Y-14707317D02*
X4480777Y-14707317D01*
X4595063Y-14573984D02*
X4614110Y-14573984D01*
X4614110Y-14573984D02*
X4633158Y-14583508D01*
X4633158Y-14583508D02*
X4642682Y-14593031D01*
X4642682Y-14593031D02*
X4652205Y-14612079D01*
X4652205Y-14612079D02*
X4661729Y-14650174D01*
X4661729Y-14650174D02*
X4661729Y-14697793D01*
X4661729Y-14697793D02*
X4652205Y-14735888D01*
X4652205Y-14735888D02*
X4642682Y-14754936D01*
X4642682Y-14754936D02*
X4633158Y-14764460D01*
X4633158Y-14764460D02*
X4614110Y-14773984D01*
X4614110Y-14773984D02*
X4595063Y-14773984D01*
X4595063Y-14773984D02*
X4576015Y-14764460D01*
X4576015Y-14764460D02*
X4566491Y-14754936D01*
X4566491Y-14754936D02*
X4556967Y-14735888D01*
X4556967Y-14735888D02*
X4547444Y-14697793D01*
X4547444Y-14697793D02*
X4547444Y-14650174D01*
X4547444Y-14650174D02*
X4556967Y-14612079D01*
X4556967Y-14612079D02*
X4566491Y-14593031D01*
X4566491Y-14593031D02*
X4576015Y-14583508D01*
X4576015Y-14583508D02*
X4595063Y-14573984D01*
X4785539Y-14573984D02*
X4804586Y-14573984D01*
X4804586Y-14573984D02*
X4823634Y-14583508D01*
X4823634Y-14583508D02*
X4833158Y-14593031D01*
X4833158Y-14593031D02*
X4842682Y-14612079D01*
X4842682Y-14612079D02*
X4852205Y-14650174D01*
X4852205Y-14650174D02*
X4852205Y-14697793D01*
X4852205Y-14697793D02*
X4842682Y-14735888D01*
X4842682Y-14735888D02*
X4833158Y-14754936D01*
X4833158Y-14754936D02*
X4823634Y-14764460D01*
X4823634Y-14764460D02*
X4804586Y-14773984D01*
X4804586Y-14773984D02*
X4785539Y-14773984D01*
X4785539Y-14773984D02*
X4766491Y-14764460D01*
X4766491Y-14764460D02*
X4756967Y-14754936D01*
X4756967Y-14754936D02*
X4747444Y-14735888D01*
X4747444Y-14735888D02*
X4737920Y-14697793D01*
X4737920Y-14697793D02*
X4737920Y-14650174D01*
X4737920Y-14650174D02*
X4747444Y-14612079D01*
X4747444Y-14612079D02*
X4756967Y-14593031D01*
X4756967Y-14593031D02*
X4766491Y-14583508D01*
X4766491Y-14583508D02*
X4785539Y-14573984D01*
X4937920Y-14773984D02*
X4937920Y-14640650D01*
X4937920Y-14659698D02*
X4947444Y-14650174D01*
X4947444Y-14650174D02*
X4966491Y-14640650D01*
X4966491Y-14640650D02*
X4995063Y-14640650D01*
X4995063Y-14640650D02*
X5014110Y-14650174D01*
X5014110Y-14650174D02*
X5023634Y-14669222D01*
X5023634Y-14669222D02*
X5023634Y-14773984D01*
X5023634Y-14669222D02*
X5033158Y-14650174D01*
X5033158Y-14650174D02*
X5052205Y-14640650D01*
X5052205Y-14640650D02*
X5080777Y-14640650D01*
X5080777Y-14640650D02*
X5099825Y-14650174D01*
X5099825Y-14650174D02*
X5109348Y-14669222D01*
X5109348Y-14669222D02*
X5109348Y-14773984D01*
X5204586Y-14773984D02*
X5204586Y-14640650D01*
X5204586Y-14659698D02*
X5214110Y-14650174D01*
X5214110Y-14650174D02*
X5233158Y-14640650D01*
X5233158Y-14640650D02*
X5261729Y-14640650D01*
X5261729Y-14640650D02*
X5280777Y-14650174D01*
X5280777Y-14650174D02*
X5290301Y-14669222D01*
X5290301Y-14669222D02*
X5290301Y-14773984D01*
X5290301Y-14669222D02*
X5299825Y-14650174D01*
X5299825Y-14650174D02*
X5318872Y-14640650D01*
X5318872Y-14640650D02*
X5347444Y-14640650D01*
X5347444Y-14640650D02*
X5366491Y-14650174D01*
X5366491Y-14650174D02*
X5376015Y-14669222D01*
X5376015Y-14669222D02*
X5376015Y-14773984D01*
X5766491Y-14564460D02*
X5595063Y-14821603D01*
X6023634Y-14573984D02*
X6042682Y-14573984D01*
X6042682Y-14573984D02*
X6061729Y-14583508D01*
X6061729Y-14583508D02*
X6071253Y-14593031D01*
X6071253Y-14593031D02*
X6080777Y-14612079D01*
X6080777Y-14612079D02*
X6090301Y-14650174D01*
X6090301Y-14650174D02*
X6090301Y-14697793D01*
X6090301Y-14697793D02*
X6080777Y-14735888D01*
X6080777Y-14735888D02*
X6071253Y-14754936D01*
X6071253Y-14754936D02*
X6061729Y-14764460D01*
X6061729Y-14764460D02*
X6042682Y-14773984D01*
X6042682Y-14773984D02*
X6023634Y-14773984D01*
X6023634Y-14773984D02*
X6004586Y-14764460D01*
X6004586Y-14764460D02*
X5995063Y-14754936D01*
X5995063Y-14754936D02*
X5985539Y-14735888D01*
X5985539Y-14735888D02*
X5976015Y-14697793D01*
X5976015Y-14697793D02*
X5976015Y-14650174D01*
X5976015Y-14650174D02*
X5985539Y-14612079D01*
X5985539Y-14612079D02*
X5995063Y-14593031D01*
X5995063Y-14593031D02*
X6004586Y-14583508D01*
X6004586Y-14583508D02*
X6023634Y-14573984D01*
X6176015Y-14754936D02*
X6185539Y-14764460D01*
X6185539Y-14764460D02*
X6176015Y-14773984D01*
X6176015Y-14773984D02*
X6166491Y-14764460D01*
X6166491Y-14764460D02*
X6176015Y-14754936D01*
X6176015Y-14754936D02*
X6176015Y-14773984D01*
X6309348Y-14573984D02*
X6328396Y-14573984D01*
X6328396Y-14573984D02*
X6347444Y-14583508D01*
X6347444Y-14583508D02*
X6356967Y-14593031D01*
X6356967Y-14593031D02*
X6366491Y-14612079D01*
X6366491Y-14612079D02*
X6376015Y-14650174D01*
X6376015Y-14650174D02*
X6376015Y-14697793D01*
X6376015Y-14697793D02*
X6366491Y-14735888D01*
X6366491Y-14735888D02*
X6356967Y-14754936D01*
X6356967Y-14754936D02*
X6347444Y-14764460D01*
X6347444Y-14764460D02*
X6328396Y-14773984D01*
X6328396Y-14773984D02*
X6309348Y-14773984D01*
X6309348Y-14773984D02*
X6290301Y-14764460D01*
X6290301Y-14764460D02*
X6280777Y-14754936D01*
X6280777Y-14754936D02*
X6271253Y-14735888D01*
X6271253Y-14735888D02*
X6261729Y-14697793D01*
X6261729Y-14697793D02*
X6261729Y-14650174D01*
X6261729Y-14650174D02*
X6271253Y-14612079D01*
X6271253Y-14612079D02*
X6280777Y-14593031D01*
X6280777Y-14593031D02*
X6290301Y-14583508D01*
X6290301Y-14583508D02*
X6309348Y-14573984D01*
X6566491Y-14773984D02*
X6452206Y-14773984D01*
X6509348Y-14773984D02*
X6509348Y-14573984D01*
X6509348Y-14573984D02*
X6490301Y-14602555D01*
X6490301Y-14602555D02*
X6471253Y-14621603D01*
X6471253Y-14621603D02*
X6452206Y-14631127D01*
X6747444Y-14573984D02*
X6652206Y-14573984D01*
X6652206Y-14573984D02*
X6642682Y-14669222D01*
X6642682Y-14669222D02*
X6652206Y-14659698D01*
X6652206Y-14659698D02*
X6671253Y-14650174D01*
X6671253Y-14650174D02*
X6718872Y-14650174D01*
X6718872Y-14650174D02*
X6737920Y-14659698D01*
X6737920Y-14659698D02*
X6747444Y-14669222D01*
X6747444Y-14669222D02*
X6756967Y-14688269D01*
X6756967Y-14688269D02*
X6756967Y-14735888D01*
X6756967Y-14735888D02*
X6747444Y-14754936D01*
X6747444Y-14754936D02*
X6737920Y-14764460D01*
X6737920Y-14764460D02*
X6718872Y-14773984D01*
X6718872Y-14773984D02*
X6671253Y-14773984D01*
X6671253Y-14773984D02*
X6652206Y-14764460D01*
X6652206Y-14764460D02*
X6642682Y-14754936D01*
X6823634Y-14573984D02*
X6956967Y-14573984D01*
X6956967Y-14573984D02*
X6871253Y-14773984D01*
X7023634Y-14573984D02*
X7023634Y-14612079D01*
X7099825Y-14573984D02*
X7099825Y-14612079D01*
X7395063Y-14850174D02*
X7385539Y-14840650D01*
X7385539Y-14840650D02*
X7366491Y-14812079D01*
X7366491Y-14812079D02*
X7356968Y-14793031D01*
X7356968Y-14793031D02*
X7347444Y-14764460D01*
X7347444Y-14764460D02*
X7337920Y-14716841D01*
X7337920Y-14716841D02*
X7337920Y-14678746D01*
X7337920Y-14678746D02*
X7347444Y-14631127D01*
X7347444Y-14631127D02*
X7356968Y-14602555D01*
X7356968Y-14602555D02*
X7366491Y-14583508D01*
X7366491Y-14583508D02*
X7385539Y-14554936D01*
X7385539Y-14554936D02*
X7395063Y-14545412D01*
X7499825Y-14659698D02*
X7480777Y-14650174D01*
X7480777Y-14650174D02*
X7471253Y-14640650D01*
X7471253Y-14640650D02*
X7461729Y-14621603D01*
X7461729Y-14621603D02*
X7461729Y-14612079D01*
X7461729Y-14612079D02*
X7471253Y-14593031D01*
X7471253Y-14593031D02*
X7480777Y-14583508D01*
X7480777Y-14583508D02*
X7499825Y-14573984D01*
X7499825Y-14573984D02*
X7537920Y-14573984D01*
X7537920Y-14573984D02*
X7556968Y-14583508D01*
X7556968Y-14583508D02*
X7566491Y-14593031D01*
X7566491Y-14593031D02*
X7576015Y-14612079D01*
X7576015Y-14612079D02*
X7576015Y-14621603D01*
X7576015Y-14621603D02*
X7566491Y-14640650D01*
X7566491Y-14640650D02*
X7556968Y-14650174D01*
X7556968Y-14650174D02*
X7537920Y-14659698D01*
X7537920Y-14659698D02*
X7499825Y-14659698D01*
X7499825Y-14659698D02*
X7480777Y-14669222D01*
X7480777Y-14669222D02*
X7471253Y-14678746D01*
X7471253Y-14678746D02*
X7461729Y-14697793D01*
X7461729Y-14697793D02*
X7461729Y-14735888D01*
X7461729Y-14735888D02*
X7471253Y-14754936D01*
X7471253Y-14754936D02*
X7480777Y-14764460D01*
X7480777Y-14764460D02*
X7499825Y-14773984D01*
X7499825Y-14773984D02*
X7537920Y-14773984D01*
X7537920Y-14773984D02*
X7556968Y-14764460D01*
X7556968Y-14764460D02*
X7566491Y-14754936D01*
X7566491Y-14754936D02*
X7576015Y-14735888D01*
X7576015Y-14735888D02*
X7576015Y-14697793D01*
X7576015Y-14697793D02*
X7566491Y-14678746D01*
X7566491Y-14678746D02*
X7556968Y-14669222D01*
X7556968Y-14669222D02*
X7537920Y-14659698D01*
X7766491Y-14773984D02*
X7652206Y-14773984D01*
X7709348Y-14773984D02*
X7709348Y-14573984D01*
X7709348Y-14573984D02*
X7690301Y-14602555D01*
X7690301Y-14602555D02*
X7671253Y-14621603D01*
X7671253Y-14621603D02*
X7652206Y-14631127D01*
X7880777Y-14659698D02*
X7861729Y-14650174D01*
X7861729Y-14650174D02*
X7852206Y-14640650D01*
X7852206Y-14640650D02*
X7842682Y-14621603D01*
X7842682Y-14621603D02*
X7842682Y-14612079D01*
X7842682Y-14612079D02*
X7852206Y-14593031D01*
X7852206Y-14593031D02*
X7861729Y-14583508D01*
X7861729Y-14583508D02*
X7880777Y-14573984D01*
X7880777Y-14573984D02*
X7918872Y-14573984D01*
X7918872Y-14573984D02*
X7937920Y-14583508D01*
X7937920Y-14583508D02*
X7947444Y-14593031D01*
X7947444Y-14593031D02*
X7956968Y-14612079D01*
X7956968Y-14612079D02*
X7956968Y-14621603D01*
X7956968Y-14621603D02*
X7947444Y-14640650D01*
X7947444Y-14640650D02*
X7937920Y-14650174D01*
X7937920Y-14650174D02*
X7918872Y-14659698D01*
X7918872Y-14659698D02*
X7880777Y-14659698D01*
X7880777Y-14659698D02*
X7861729Y-14669222D01*
X7861729Y-14669222D02*
X7852206Y-14678746D01*
X7852206Y-14678746D02*
X7842682Y-14697793D01*
X7842682Y-14697793D02*
X7842682Y-14735888D01*
X7842682Y-14735888D02*
X7852206Y-14754936D01*
X7852206Y-14754936D02*
X7861729Y-14764460D01*
X7861729Y-14764460D02*
X7880777Y-14773984D01*
X7880777Y-14773984D02*
X7918872Y-14773984D01*
X7918872Y-14773984D02*
X7937920Y-14764460D01*
X7937920Y-14764460D02*
X7947444Y-14754936D01*
X7947444Y-14754936D02*
X7956968Y-14735888D01*
X7956968Y-14735888D02*
X7956968Y-14697793D01*
X7956968Y-14697793D02*
X7947444Y-14678746D01*
X7947444Y-14678746D02*
X7937920Y-14669222D01*
X7937920Y-14669222D02*
X7918872Y-14659698D01*
X8195063Y-14773984D02*
X8195063Y-14573984D01*
X8280777Y-14773984D02*
X8280777Y-14669222D01*
X8280777Y-14669222D02*
X8271253Y-14650174D01*
X8271253Y-14650174D02*
X8252206Y-14640650D01*
X8252206Y-14640650D02*
X8223634Y-14640650D01*
X8223634Y-14640650D02*
X8204587Y-14650174D01*
X8204587Y-14650174D02*
X8195063Y-14659698D01*
X8404587Y-14773984D02*
X8385539Y-14764460D01*
X8385539Y-14764460D02*
X8376015Y-14754936D01*
X8376015Y-14754936D02*
X8366491Y-14735888D01*
X8366491Y-14735888D02*
X8366491Y-14678746D01*
X8366491Y-14678746D02*
X8376015Y-14659698D01*
X8376015Y-14659698D02*
X8385539Y-14650174D01*
X8385539Y-14650174D02*
X8404587Y-14640650D01*
X8404587Y-14640650D02*
X8433158Y-14640650D01*
X8433158Y-14640650D02*
X8452206Y-14650174D01*
X8452206Y-14650174D02*
X8461730Y-14659698D01*
X8461730Y-14659698D02*
X8471253Y-14678746D01*
X8471253Y-14678746D02*
X8471253Y-14735888D01*
X8471253Y-14735888D02*
X8461730Y-14754936D01*
X8461730Y-14754936D02*
X8452206Y-14764460D01*
X8452206Y-14764460D02*
X8433158Y-14773984D01*
X8433158Y-14773984D02*
X8404587Y-14773984D01*
X8585539Y-14773984D02*
X8566492Y-14764460D01*
X8566492Y-14764460D02*
X8556968Y-14745412D01*
X8556968Y-14745412D02*
X8556968Y-14573984D01*
X8737920Y-14764460D02*
X8718873Y-14773984D01*
X8718873Y-14773984D02*
X8680777Y-14773984D01*
X8680777Y-14773984D02*
X8661730Y-14764460D01*
X8661730Y-14764460D02*
X8652206Y-14745412D01*
X8652206Y-14745412D02*
X8652206Y-14669222D01*
X8652206Y-14669222D02*
X8661730Y-14650174D01*
X8661730Y-14650174D02*
X8680777Y-14640650D01*
X8680777Y-14640650D02*
X8718873Y-14640650D01*
X8718873Y-14640650D02*
X8737920Y-14650174D01*
X8737920Y-14650174D02*
X8747444Y-14669222D01*
X8747444Y-14669222D02*
X8747444Y-14688269D01*
X8747444Y-14688269D02*
X8652206Y-14707317D01*
X8823634Y-14764460D02*
X8842682Y-14773984D01*
X8842682Y-14773984D02*
X8880777Y-14773984D01*
X8880777Y-14773984D02*
X8899825Y-14764460D01*
X8899825Y-14764460D02*
X8909349Y-14745412D01*
X8909349Y-14745412D02*
X8909349Y-14735888D01*
X8909349Y-14735888D02*
X8899825Y-14716841D01*
X8899825Y-14716841D02*
X8880777Y-14707317D01*
X8880777Y-14707317D02*
X8852206Y-14707317D01*
X8852206Y-14707317D02*
X8833158Y-14697793D01*
X8833158Y-14697793D02*
X8823634Y-14678746D01*
X8823634Y-14678746D02*
X8823634Y-14669222D01*
X8823634Y-14669222D02*
X8833158Y-14650174D01*
X8833158Y-14650174D02*
X8852206Y-14640650D01*
X8852206Y-14640650D02*
X8880777Y-14640650D01*
X8880777Y-14640650D02*
X8899825Y-14650174D01*
X8976015Y-14850174D02*
X8985539Y-14840650D01*
X8985539Y-14840650D02*
X9004587Y-14812079D01*
X9004587Y-14812079D02*
X9014111Y-14793031D01*
X9014111Y-14793031D02*
X9023634Y-14764460D01*
X9023634Y-14764460D02*
X9033158Y-14716841D01*
X9033158Y-14716841D02*
X9033158Y-14678746D01*
X9033158Y-14678746D02*
X9023634Y-14631127D01*
X9023634Y-14631127D02*
X9014111Y-14602555D01*
X9014111Y-14602555D02*
X9004587Y-14583508D01*
X9004587Y-14583508D02*
X8985539Y-14554936D01*
X8985539Y-14554936D02*
X8976015Y-14545412D01*
D12*
X3820000Y-14946500D02*
G75*
G02*
X3755000Y-14946500I-32500J0D01*
G01*
X3755000Y-14946500D02*
G75*
G02*
X3820000Y-14946500I32500J0D01*
G01*
D11*
X4118872Y-14837984D02*
X4137920Y-14837984D01*
X4137920Y-14837984D02*
X4156967Y-14847508D01*
X4156967Y-14847508D02*
X4166491Y-14857031D01*
X4166491Y-14857031D02*
X4176015Y-14876079D01*
X4176015Y-14876079D02*
X4185539Y-14914174D01*
X4185539Y-14914174D02*
X4185539Y-14961793D01*
X4185539Y-14961793D02*
X4176015Y-14999888D01*
X4176015Y-14999888D02*
X4166491Y-15018936D01*
X4166491Y-15018936D02*
X4156967Y-15028460D01*
X4156967Y-15028460D02*
X4137920Y-15037984D01*
X4137920Y-15037984D02*
X4118872Y-15037984D01*
X4118872Y-15037984D02*
X4099824Y-15028460D01*
X4099824Y-15028460D02*
X4090301Y-15018936D01*
X4090301Y-15018936D02*
X4080777Y-14999888D01*
X4080777Y-14999888D02*
X4071253Y-14961793D01*
X4071253Y-14961793D02*
X4071253Y-14914174D01*
X4071253Y-14914174D02*
X4080777Y-14876079D01*
X4080777Y-14876079D02*
X4090301Y-14857031D01*
X4090301Y-14857031D02*
X4099824Y-14847508D01*
X4099824Y-14847508D02*
X4118872Y-14837984D01*
X4271253Y-15018936D02*
X4280777Y-15028460D01*
X4280777Y-15028460D02*
X4271253Y-15037984D01*
X4271253Y-15037984D02*
X4261729Y-15028460D01*
X4261729Y-15028460D02*
X4271253Y-15018936D01*
X4271253Y-15018936D02*
X4271253Y-15037984D01*
X4452205Y-14837984D02*
X4414110Y-14837984D01*
X4414110Y-14837984D02*
X4395063Y-14847508D01*
X4395063Y-14847508D02*
X4385539Y-14857031D01*
X4385539Y-14857031D02*
X4366491Y-14885603D01*
X4366491Y-14885603D02*
X4356967Y-14923698D01*
X4356967Y-14923698D02*
X4356967Y-14999888D01*
X4356967Y-14999888D02*
X4366491Y-15018936D01*
X4366491Y-15018936D02*
X4376015Y-15028460D01*
X4376015Y-15028460D02*
X4395063Y-15037984D01*
X4395063Y-15037984D02*
X4433158Y-15037984D01*
X4433158Y-15037984D02*
X4452205Y-15028460D01*
X4452205Y-15028460D02*
X4461729Y-15018936D01*
X4461729Y-15018936D02*
X4471253Y-14999888D01*
X4471253Y-14999888D02*
X4471253Y-14952269D01*
X4471253Y-14952269D02*
X4461729Y-14933222D01*
X4461729Y-14933222D02*
X4452205Y-14923698D01*
X4452205Y-14923698D02*
X4433158Y-14914174D01*
X4433158Y-14914174D02*
X4395063Y-14914174D01*
X4395063Y-14914174D02*
X4376015Y-14923698D01*
X4376015Y-14923698D02*
X4366491Y-14933222D01*
X4366491Y-14933222D02*
X4356967Y-14952269D01*
X4652205Y-14837984D02*
X4556967Y-14837984D01*
X4556967Y-14837984D02*
X4547444Y-14933222D01*
X4547444Y-14933222D02*
X4556967Y-14923698D01*
X4556967Y-14923698D02*
X4576015Y-14914174D01*
X4576015Y-14914174D02*
X4623634Y-14914174D01*
X4623634Y-14914174D02*
X4642682Y-14923698D01*
X4642682Y-14923698D02*
X4652205Y-14933222D01*
X4652205Y-14933222D02*
X4661729Y-14952269D01*
X4661729Y-14952269D02*
X4661729Y-14999888D01*
X4661729Y-14999888D02*
X4652205Y-15018936D01*
X4652205Y-15018936D02*
X4642682Y-15028460D01*
X4642682Y-15028460D02*
X4623634Y-15037984D01*
X4623634Y-15037984D02*
X4576015Y-15037984D01*
X4576015Y-15037984D02*
X4556967Y-15028460D01*
X4556967Y-15028460D02*
X4547444Y-15018936D01*
X4785539Y-14837984D02*
X4804586Y-14837984D01*
X4804586Y-14837984D02*
X4823634Y-14847508D01*
X4823634Y-14847508D02*
X4833158Y-14857031D01*
X4833158Y-14857031D02*
X4842682Y-14876079D01*
X4842682Y-14876079D02*
X4852205Y-14914174D01*
X4852205Y-14914174D02*
X4852205Y-14961793D01*
X4852205Y-14961793D02*
X4842682Y-14999888D01*
X4842682Y-14999888D02*
X4833158Y-15018936D01*
X4833158Y-15018936D02*
X4823634Y-15028460D01*
X4823634Y-15028460D02*
X4804586Y-15037984D01*
X4804586Y-15037984D02*
X4785539Y-15037984D01*
X4785539Y-15037984D02*
X4766491Y-15028460D01*
X4766491Y-15028460D02*
X4756967Y-15018936D01*
X4756967Y-15018936D02*
X4747444Y-14999888D01*
X4747444Y-14999888D02*
X4737920Y-14961793D01*
X4737920Y-14961793D02*
X4737920Y-14914174D01*
X4737920Y-14914174D02*
X4747444Y-14876079D01*
X4747444Y-14876079D02*
X4756967Y-14857031D01*
X4756967Y-14857031D02*
X4766491Y-14847508D01*
X4766491Y-14847508D02*
X4785539Y-14837984D01*
X4937920Y-15037984D02*
X4937920Y-14904650D01*
X4937920Y-14923698D02*
X4947444Y-14914174D01*
X4947444Y-14914174D02*
X4966491Y-14904650D01*
X4966491Y-14904650D02*
X4995063Y-14904650D01*
X4995063Y-14904650D02*
X5014110Y-14914174D01*
X5014110Y-14914174D02*
X5023634Y-14933222D01*
X5023634Y-14933222D02*
X5023634Y-15037984D01*
X5023634Y-14933222D02*
X5033158Y-14914174D01*
X5033158Y-14914174D02*
X5052205Y-14904650D01*
X5052205Y-14904650D02*
X5080777Y-14904650D01*
X5080777Y-14904650D02*
X5099825Y-14914174D01*
X5099825Y-14914174D02*
X5109348Y-14933222D01*
X5109348Y-14933222D02*
X5109348Y-15037984D01*
X5204586Y-15037984D02*
X5204586Y-14904650D01*
X5204586Y-14923698D02*
X5214110Y-14914174D01*
X5214110Y-14914174D02*
X5233158Y-14904650D01*
X5233158Y-14904650D02*
X5261729Y-14904650D01*
X5261729Y-14904650D02*
X5280777Y-14914174D01*
X5280777Y-14914174D02*
X5290301Y-14933222D01*
X5290301Y-14933222D02*
X5290301Y-15037984D01*
X5290301Y-14933222D02*
X5299825Y-14914174D01*
X5299825Y-14914174D02*
X5318872Y-14904650D01*
X5318872Y-14904650D02*
X5347444Y-14904650D01*
X5347444Y-14904650D02*
X5366491Y-14914174D01*
X5366491Y-14914174D02*
X5376015Y-14933222D01*
X5376015Y-14933222D02*
X5376015Y-15037984D01*
X5766491Y-14828460D02*
X5595063Y-15085603D01*
X6023634Y-14837984D02*
X6042682Y-14837984D01*
X6042682Y-14837984D02*
X6061729Y-14847508D01*
X6061729Y-14847508D02*
X6071253Y-14857031D01*
X6071253Y-14857031D02*
X6080777Y-14876079D01*
X6080777Y-14876079D02*
X6090301Y-14914174D01*
X6090301Y-14914174D02*
X6090301Y-14961793D01*
X6090301Y-14961793D02*
X6080777Y-14999888D01*
X6080777Y-14999888D02*
X6071253Y-15018936D01*
X6071253Y-15018936D02*
X6061729Y-15028460D01*
X6061729Y-15028460D02*
X6042682Y-15037984D01*
X6042682Y-15037984D02*
X6023634Y-15037984D01*
X6023634Y-15037984D02*
X6004586Y-15028460D01*
X6004586Y-15028460D02*
X5995063Y-15018936D01*
X5995063Y-15018936D02*
X5985539Y-14999888D01*
X5985539Y-14999888D02*
X5976015Y-14961793D01*
X5976015Y-14961793D02*
X5976015Y-14914174D01*
X5976015Y-14914174D02*
X5985539Y-14876079D01*
X5985539Y-14876079D02*
X5995063Y-14857031D01*
X5995063Y-14857031D02*
X6004586Y-14847508D01*
X6004586Y-14847508D02*
X6023634Y-14837984D01*
X6176015Y-15018936D02*
X6185539Y-15028460D01*
X6185539Y-15028460D02*
X6176015Y-15037984D01*
X6176015Y-15037984D02*
X6166491Y-15028460D01*
X6166491Y-15028460D02*
X6176015Y-15018936D01*
X6176015Y-15018936D02*
X6176015Y-15037984D01*
X6309348Y-14837984D02*
X6328396Y-14837984D01*
X6328396Y-14837984D02*
X6347444Y-14847508D01*
X6347444Y-14847508D02*
X6356967Y-14857031D01*
X6356967Y-14857031D02*
X6366491Y-14876079D01*
X6366491Y-14876079D02*
X6376015Y-14914174D01*
X6376015Y-14914174D02*
X6376015Y-14961793D01*
X6376015Y-14961793D02*
X6366491Y-14999888D01*
X6366491Y-14999888D02*
X6356967Y-15018936D01*
X6356967Y-15018936D02*
X6347444Y-15028460D01*
X6347444Y-15028460D02*
X6328396Y-15037984D01*
X6328396Y-15037984D02*
X6309348Y-15037984D01*
X6309348Y-15037984D02*
X6290301Y-15028460D01*
X6290301Y-15028460D02*
X6280777Y-15018936D01*
X6280777Y-15018936D02*
X6271253Y-14999888D01*
X6271253Y-14999888D02*
X6261729Y-14961793D01*
X6261729Y-14961793D02*
X6261729Y-14914174D01*
X6261729Y-14914174D02*
X6271253Y-14876079D01*
X6271253Y-14876079D02*
X6280777Y-14857031D01*
X6280777Y-14857031D02*
X6290301Y-14847508D01*
X6290301Y-14847508D02*
X6309348Y-14837984D01*
X6452206Y-14857031D02*
X6461729Y-14847508D01*
X6461729Y-14847508D02*
X6480777Y-14837984D01*
X6480777Y-14837984D02*
X6528396Y-14837984D01*
X6528396Y-14837984D02*
X6547444Y-14847508D01*
X6547444Y-14847508D02*
X6556967Y-14857031D01*
X6556967Y-14857031D02*
X6566491Y-14876079D01*
X6566491Y-14876079D02*
X6566491Y-14895127D01*
X6566491Y-14895127D02*
X6556967Y-14923698D01*
X6556967Y-14923698D02*
X6442682Y-15037984D01*
X6442682Y-15037984D02*
X6566491Y-15037984D01*
X6747444Y-14837984D02*
X6652206Y-14837984D01*
X6652206Y-14837984D02*
X6642682Y-14933222D01*
X6642682Y-14933222D02*
X6652206Y-14923698D01*
X6652206Y-14923698D02*
X6671253Y-14914174D01*
X6671253Y-14914174D02*
X6718872Y-14914174D01*
X6718872Y-14914174D02*
X6737920Y-14923698D01*
X6737920Y-14923698D02*
X6747444Y-14933222D01*
X6747444Y-14933222D02*
X6756967Y-14952269D01*
X6756967Y-14952269D02*
X6756967Y-14999888D01*
X6756967Y-14999888D02*
X6747444Y-15018936D01*
X6747444Y-15018936D02*
X6737920Y-15028460D01*
X6737920Y-15028460D02*
X6718872Y-15037984D01*
X6718872Y-15037984D02*
X6671253Y-15037984D01*
X6671253Y-15037984D02*
X6652206Y-15028460D01*
X6652206Y-15028460D02*
X6642682Y-15018936D01*
X6928396Y-14837984D02*
X6890301Y-14837984D01*
X6890301Y-14837984D02*
X6871253Y-14847508D01*
X6871253Y-14847508D02*
X6861729Y-14857031D01*
X6861729Y-14857031D02*
X6842682Y-14885603D01*
X6842682Y-14885603D02*
X6833158Y-14923698D01*
X6833158Y-14923698D02*
X6833158Y-14999888D01*
X6833158Y-14999888D02*
X6842682Y-15018936D01*
X6842682Y-15018936D02*
X6852206Y-15028460D01*
X6852206Y-15028460D02*
X6871253Y-15037984D01*
X6871253Y-15037984D02*
X6909348Y-15037984D01*
X6909348Y-15037984D02*
X6928396Y-15028460D01*
X6928396Y-15028460D02*
X6937920Y-15018936D01*
X6937920Y-15018936D02*
X6947444Y-14999888D01*
X6947444Y-14999888D02*
X6947444Y-14952269D01*
X6947444Y-14952269D02*
X6937920Y-14933222D01*
X6937920Y-14933222D02*
X6928396Y-14923698D01*
X6928396Y-14923698D02*
X6909348Y-14914174D01*
X6909348Y-14914174D02*
X6871253Y-14914174D01*
X6871253Y-14914174D02*
X6852206Y-14923698D01*
X6852206Y-14923698D02*
X6842682Y-14933222D01*
X6842682Y-14933222D02*
X6833158Y-14952269D01*
X7023634Y-14837984D02*
X7023634Y-14876079D01*
X7099825Y-14837984D02*
X7099825Y-14876079D01*
X7395063Y-15114174D02*
X7385539Y-15104650D01*
X7385539Y-15104650D02*
X7366491Y-15076079D01*
X7366491Y-15076079D02*
X7356968Y-15057031D01*
X7356968Y-15057031D02*
X7347444Y-15028460D01*
X7347444Y-15028460D02*
X7337920Y-14980841D01*
X7337920Y-14980841D02*
X7337920Y-14942746D01*
X7337920Y-14942746D02*
X7347444Y-14895127D01*
X7347444Y-14895127D02*
X7356968Y-14866555D01*
X7356968Y-14866555D02*
X7366491Y-14847508D01*
X7366491Y-14847508D02*
X7385539Y-14818936D01*
X7385539Y-14818936D02*
X7395063Y-14809412D01*
X7556968Y-14904650D02*
X7556968Y-15037984D01*
X7509348Y-14828460D02*
X7461729Y-14971317D01*
X7461729Y-14971317D02*
X7585539Y-14971317D01*
X7814110Y-15037984D02*
X7814110Y-14837984D01*
X7899825Y-15037984D02*
X7899825Y-14933222D01*
X7899825Y-14933222D02*
X7890301Y-14914174D01*
X7890301Y-14914174D02*
X7871253Y-14904650D01*
X7871253Y-14904650D02*
X7842682Y-14904650D01*
X7842682Y-14904650D02*
X7823634Y-14914174D01*
X7823634Y-14914174D02*
X7814110Y-14923698D01*
X8023634Y-15037984D02*
X8004587Y-15028460D01*
X8004587Y-15028460D02*
X7995063Y-15018936D01*
X7995063Y-15018936D02*
X7985539Y-14999888D01*
X7985539Y-14999888D02*
X7985539Y-14942746D01*
X7985539Y-14942746D02*
X7995063Y-14923698D01*
X7995063Y-14923698D02*
X8004587Y-14914174D01*
X8004587Y-14914174D02*
X8023634Y-14904650D01*
X8023634Y-14904650D02*
X8052206Y-14904650D01*
X8052206Y-14904650D02*
X8071253Y-14914174D01*
X8071253Y-14914174D02*
X8080777Y-14923698D01*
X8080777Y-14923698D02*
X8090301Y-14942746D01*
X8090301Y-14942746D02*
X8090301Y-14999888D01*
X8090301Y-14999888D02*
X8080777Y-15018936D01*
X8080777Y-15018936D02*
X8071253Y-15028460D01*
X8071253Y-15028460D02*
X8052206Y-15037984D01*
X8052206Y-15037984D02*
X8023634Y-15037984D01*
X8204587Y-15037984D02*
X8185539Y-15028460D01*
X8185539Y-15028460D02*
X8176015Y-15009412D01*
X8176015Y-15009412D02*
X8176015Y-14837984D01*
X8356968Y-15028460D02*
X8337920Y-15037984D01*
X8337920Y-15037984D02*
X8299825Y-15037984D01*
X8299825Y-15037984D02*
X8280777Y-15028460D01*
X8280777Y-15028460D02*
X8271253Y-15009412D01*
X8271253Y-15009412D02*
X8271253Y-14933222D01*
X8271253Y-14933222D02*
X8280777Y-14914174D01*
X8280777Y-14914174D02*
X8299825Y-14904650D01*
X8299825Y-14904650D02*
X8337920Y-14904650D01*
X8337920Y-14904650D02*
X8356968Y-14914174D01*
X8356968Y-14914174D02*
X8366491Y-14933222D01*
X8366491Y-14933222D02*
X8366491Y-14952269D01*
X8366491Y-14952269D02*
X8271253Y-14971317D01*
X8442682Y-15028460D02*
X8461730Y-15037984D01*
X8461730Y-15037984D02*
X8499825Y-15037984D01*
X8499825Y-15037984D02*
X8518873Y-15028460D01*
X8518873Y-15028460D02*
X8528396Y-15009412D01*
X8528396Y-15009412D02*
X8528396Y-14999888D01*
X8528396Y-14999888D02*
X8518873Y-14980841D01*
X8518873Y-14980841D02*
X8499825Y-14971317D01*
X8499825Y-14971317D02*
X8471253Y-14971317D01*
X8471253Y-14971317D02*
X8452206Y-14961793D01*
X8452206Y-14961793D02*
X8442682Y-14942746D01*
X8442682Y-14942746D02*
X8442682Y-14933222D01*
X8442682Y-14933222D02*
X8452206Y-14914174D01*
X8452206Y-14914174D02*
X8471253Y-14904650D01*
X8471253Y-14904650D02*
X8499825Y-14904650D01*
X8499825Y-14904650D02*
X8518873Y-14914174D01*
X8595063Y-15114174D02*
X8604587Y-15104650D01*
X8604587Y-15104650D02*
X8623634Y-15076079D01*
X8623634Y-15076079D02*
X8633158Y-15057031D01*
X8633158Y-15057031D02*
X8642682Y-15028460D01*
X8642682Y-15028460D02*
X8652206Y-14980841D01*
X8652206Y-14980841D02*
X8652206Y-14942746D01*
X8652206Y-14942746D02*
X8642682Y-14895127D01*
X8642682Y-14895127D02*
X8633158Y-14866555D01*
X8633158Y-14866555D02*
X8623634Y-14847508D01*
X8623634Y-14847508D02*
X8604587Y-14818936D01*
X8604587Y-14818936D02*
X8595063Y-14809412D01*
D12*
X3770000Y-15160500D02*
X3770000Y-15260500D01*
X3720000Y-15210500D02*
X3820000Y-15210500D01*
D11*
X4185539Y-15301984D02*
X4071253Y-15301984D01*
X4128396Y-15301984D02*
X4128396Y-15101984D01*
X4128396Y-15101984D02*
X4109348Y-15130555D01*
X4109348Y-15130555D02*
X4090301Y-15149603D01*
X4090301Y-15149603D02*
X4071253Y-15159127D01*
X4271253Y-15282936D02*
X4280777Y-15292460D01*
X4280777Y-15292460D02*
X4271253Y-15301984D01*
X4271253Y-15301984D02*
X4261729Y-15292460D01*
X4261729Y-15292460D02*
X4271253Y-15282936D01*
X4271253Y-15282936D02*
X4271253Y-15301984D01*
X4404586Y-15101984D02*
X4423634Y-15101984D01*
X4423634Y-15101984D02*
X4442682Y-15111508D01*
X4442682Y-15111508D02*
X4452205Y-15121031D01*
X4452205Y-15121031D02*
X4461729Y-15140079D01*
X4461729Y-15140079D02*
X4471253Y-15178174D01*
X4471253Y-15178174D02*
X4471253Y-15225793D01*
X4471253Y-15225793D02*
X4461729Y-15263888D01*
X4461729Y-15263888D02*
X4452205Y-15282936D01*
X4452205Y-15282936D02*
X4442682Y-15292460D01*
X4442682Y-15292460D02*
X4423634Y-15301984D01*
X4423634Y-15301984D02*
X4404586Y-15301984D01*
X4404586Y-15301984D02*
X4385539Y-15292460D01*
X4385539Y-15292460D02*
X4376015Y-15282936D01*
X4376015Y-15282936D02*
X4366491Y-15263888D01*
X4366491Y-15263888D02*
X4356967Y-15225793D01*
X4356967Y-15225793D02*
X4356967Y-15178174D01*
X4356967Y-15178174D02*
X4366491Y-15140079D01*
X4366491Y-15140079D02*
X4376015Y-15121031D01*
X4376015Y-15121031D02*
X4385539Y-15111508D01*
X4385539Y-15111508D02*
X4404586Y-15101984D01*
X4595063Y-15101984D02*
X4614110Y-15101984D01*
X4614110Y-15101984D02*
X4633158Y-15111508D01*
X4633158Y-15111508D02*
X4642682Y-15121031D01*
X4642682Y-15121031D02*
X4652205Y-15140079D01*
X4652205Y-15140079D02*
X4661729Y-15178174D01*
X4661729Y-15178174D02*
X4661729Y-15225793D01*
X4661729Y-15225793D02*
X4652205Y-15263888D01*
X4652205Y-15263888D02*
X4642682Y-15282936D01*
X4642682Y-15282936D02*
X4633158Y-15292460D01*
X4633158Y-15292460D02*
X4614110Y-15301984D01*
X4614110Y-15301984D02*
X4595063Y-15301984D01*
X4595063Y-15301984D02*
X4576015Y-15292460D01*
X4576015Y-15292460D02*
X4566491Y-15282936D01*
X4566491Y-15282936D02*
X4556967Y-15263888D01*
X4556967Y-15263888D02*
X4547444Y-15225793D01*
X4547444Y-15225793D02*
X4547444Y-15178174D01*
X4547444Y-15178174D02*
X4556967Y-15140079D01*
X4556967Y-15140079D02*
X4566491Y-15121031D01*
X4566491Y-15121031D02*
X4576015Y-15111508D01*
X4576015Y-15111508D02*
X4595063Y-15101984D01*
X4785539Y-15101984D02*
X4804586Y-15101984D01*
X4804586Y-15101984D02*
X4823634Y-15111508D01*
X4823634Y-15111508D02*
X4833158Y-15121031D01*
X4833158Y-15121031D02*
X4842682Y-15140079D01*
X4842682Y-15140079D02*
X4852205Y-15178174D01*
X4852205Y-15178174D02*
X4852205Y-15225793D01*
X4852205Y-15225793D02*
X4842682Y-15263888D01*
X4842682Y-15263888D02*
X4833158Y-15282936D01*
X4833158Y-15282936D02*
X4823634Y-15292460D01*
X4823634Y-15292460D02*
X4804586Y-15301984D01*
X4804586Y-15301984D02*
X4785539Y-15301984D01*
X4785539Y-15301984D02*
X4766491Y-15292460D01*
X4766491Y-15292460D02*
X4756967Y-15282936D01*
X4756967Y-15282936D02*
X4747444Y-15263888D01*
X4747444Y-15263888D02*
X4737920Y-15225793D01*
X4737920Y-15225793D02*
X4737920Y-15178174D01*
X4737920Y-15178174D02*
X4747444Y-15140079D01*
X4747444Y-15140079D02*
X4756967Y-15121031D01*
X4756967Y-15121031D02*
X4766491Y-15111508D01*
X4766491Y-15111508D02*
X4785539Y-15101984D01*
X4937920Y-15301984D02*
X4937920Y-15168650D01*
X4937920Y-15187698D02*
X4947444Y-15178174D01*
X4947444Y-15178174D02*
X4966491Y-15168650D01*
X4966491Y-15168650D02*
X4995063Y-15168650D01*
X4995063Y-15168650D02*
X5014110Y-15178174D01*
X5014110Y-15178174D02*
X5023634Y-15197222D01*
X5023634Y-15197222D02*
X5023634Y-15301984D01*
X5023634Y-15197222D02*
X5033158Y-15178174D01*
X5033158Y-15178174D02*
X5052205Y-15168650D01*
X5052205Y-15168650D02*
X5080777Y-15168650D01*
X5080777Y-15168650D02*
X5099825Y-15178174D01*
X5099825Y-15178174D02*
X5109348Y-15197222D01*
X5109348Y-15197222D02*
X5109348Y-15301984D01*
X5204586Y-15301984D02*
X5204586Y-15168650D01*
X5204586Y-15187698D02*
X5214110Y-15178174D01*
X5214110Y-15178174D02*
X5233158Y-15168650D01*
X5233158Y-15168650D02*
X5261729Y-15168650D01*
X5261729Y-15168650D02*
X5280777Y-15178174D01*
X5280777Y-15178174D02*
X5290301Y-15197222D01*
X5290301Y-15197222D02*
X5290301Y-15301984D01*
X5290301Y-15197222D02*
X5299825Y-15178174D01*
X5299825Y-15178174D02*
X5318872Y-15168650D01*
X5318872Y-15168650D02*
X5347444Y-15168650D01*
X5347444Y-15168650D02*
X5366491Y-15178174D01*
X5366491Y-15178174D02*
X5376015Y-15197222D01*
X5376015Y-15197222D02*
X5376015Y-15301984D01*
X5766491Y-15092460D02*
X5595063Y-15349603D01*
X6023634Y-15101984D02*
X6042682Y-15101984D01*
X6042682Y-15101984D02*
X6061729Y-15111508D01*
X6061729Y-15111508D02*
X6071253Y-15121031D01*
X6071253Y-15121031D02*
X6080777Y-15140079D01*
X6080777Y-15140079D02*
X6090301Y-15178174D01*
X6090301Y-15178174D02*
X6090301Y-15225793D01*
X6090301Y-15225793D02*
X6080777Y-15263888D01*
X6080777Y-15263888D02*
X6071253Y-15282936D01*
X6071253Y-15282936D02*
X6061729Y-15292460D01*
X6061729Y-15292460D02*
X6042682Y-15301984D01*
X6042682Y-15301984D02*
X6023634Y-15301984D01*
X6023634Y-15301984D02*
X6004586Y-15292460D01*
X6004586Y-15292460D02*
X5995063Y-15282936D01*
X5995063Y-15282936D02*
X5985539Y-15263888D01*
X5985539Y-15263888D02*
X5976015Y-15225793D01*
X5976015Y-15225793D02*
X5976015Y-15178174D01*
X5976015Y-15178174D02*
X5985539Y-15140079D01*
X5985539Y-15140079D02*
X5995063Y-15121031D01*
X5995063Y-15121031D02*
X6004586Y-15111508D01*
X6004586Y-15111508D02*
X6023634Y-15101984D01*
X6176015Y-15282936D02*
X6185539Y-15292460D01*
X6185539Y-15292460D02*
X6176015Y-15301984D01*
X6176015Y-15301984D02*
X6166491Y-15292460D01*
X6166491Y-15292460D02*
X6176015Y-15282936D01*
X6176015Y-15282936D02*
X6176015Y-15301984D01*
X6309348Y-15101984D02*
X6328396Y-15101984D01*
X6328396Y-15101984D02*
X6347444Y-15111508D01*
X6347444Y-15111508D02*
X6356967Y-15121031D01*
X6356967Y-15121031D02*
X6366491Y-15140079D01*
X6366491Y-15140079D02*
X6376015Y-15178174D01*
X6376015Y-15178174D02*
X6376015Y-15225793D01*
X6376015Y-15225793D02*
X6366491Y-15263888D01*
X6366491Y-15263888D02*
X6356967Y-15282936D01*
X6356967Y-15282936D02*
X6347444Y-15292460D01*
X6347444Y-15292460D02*
X6328396Y-15301984D01*
X6328396Y-15301984D02*
X6309348Y-15301984D01*
X6309348Y-15301984D02*
X6290301Y-15292460D01*
X6290301Y-15292460D02*
X6280777Y-15282936D01*
X6280777Y-15282936D02*
X6271253Y-15263888D01*
X6271253Y-15263888D02*
X6261729Y-15225793D01*
X6261729Y-15225793D02*
X6261729Y-15178174D01*
X6261729Y-15178174D02*
X6271253Y-15140079D01*
X6271253Y-15140079D02*
X6280777Y-15121031D01*
X6280777Y-15121031D02*
X6290301Y-15111508D01*
X6290301Y-15111508D02*
X6309348Y-15101984D01*
X6442682Y-15101984D02*
X6566491Y-15101984D01*
X6566491Y-15101984D02*
X6499825Y-15178174D01*
X6499825Y-15178174D02*
X6528396Y-15178174D01*
X6528396Y-15178174D02*
X6547444Y-15187698D01*
X6547444Y-15187698D02*
X6556967Y-15197222D01*
X6556967Y-15197222D02*
X6566491Y-15216269D01*
X6566491Y-15216269D02*
X6566491Y-15263888D01*
X6566491Y-15263888D02*
X6556967Y-15282936D01*
X6556967Y-15282936D02*
X6547444Y-15292460D01*
X6547444Y-15292460D02*
X6528396Y-15301984D01*
X6528396Y-15301984D02*
X6471253Y-15301984D01*
X6471253Y-15301984D02*
X6452206Y-15292460D01*
X6452206Y-15292460D02*
X6442682Y-15282936D01*
X6661729Y-15301984D02*
X6699825Y-15301984D01*
X6699825Y-15301984D02*
X6718872Y-15292460D01*
X6718872Y-15292460D02*
X6728396Y-15282936D01*
X6728396Y-15282936D02*
X6747444Y-15254365D01*
X6747444Y-15254365D02*
X6756967Y-15216269D01*
X6756967Y-15216269D02*
X6756967Y-15140079D01*
X6756967Y-15140079D02*
X6747444Y-15121031D01*
X6747444Y-15121031D02*
X6737920Y-15111508D01*
X6737920Y-15111508D02*
X6718872Y-15101984D01*
X6718872Y-15101984D02*
X6680777Y-15101984D01*
X6680777Y-15101984D02*
X6661729Y-15111508D01*
X6661729Y-15111508D02*
X6652206Y-15121031D01*
X6652206Y-15121031D02*
X6642682Y-15140079D01*
X6642682Y-15140079D02*
X6642682Y-15187698D01*
X6642682Y-15187698D02*
X6652206Y-15206746D01*
X6652206Y-15206746D02*
X6661729Y-15216269D01*
X6661729Y-15216269D02*
X6680777Y-15225793D01*
X6680777Y-15225793D02*
X6718872Y-15225793D01*
X6718872Y-15225793D02*
X6737920Y-15216269D01*
X6737920Y-15216269D02*
X6747444Y-15206746D01*
X6747444Y-15206746D02*
X6756967Y-15187698D01*
X6928396Y-15168650D02*
X6928396Y-15301984D01*
X6880777Y-15092460D02*
X6833158Y-15235317D01*
X6833158Y-15235317D02*
X6956967Y-15235317D01*
X7023634Y-15101984D02*
X7023634Y-15140079D01*
X7099825Y-15101984D02*
X7099825Y-15140079D01*
X7395063Y-15378174D02*
X7385539Y-15368650D01*
X7385539Y-15368650D02*
X7366491Y-15340079D01*
X7366491Y-15340079D02*
X7356968Y-15321031D01*
X7356968Y-15321031D02*
X7347444Y-15292460D01*
X7347444Y-15292460D02*
X7337920Y-15244841D01*
X7337920Y-15244841D02*
X7337920Y-15206746D01*
X7337920Y-15206746D02*
X7347444Y-15159127D01*
X7347444Y-15159127D02*
X7356968Y-15130555D01*
X7356968Y-15130555D02*
X7366491Y-15111508D01*
X7366491Y-15111508D02*
X7385539Y-15082936D01*
X7385539Y-15082936D02*
X7395063Y-15073412D01*
X7576015Y-15301984D02*
X7461729Y-15301984D01*
X7518872Y-15301984D02*
X7518872Y-15101984D01*
X7518872Y-15101984D02*
X7499825Y-15130555D01*
X7499825Y-15130555D02*
X7480777Y-15149603D01*
X7480777Y-15149603D02*
X7461729Y-15159127D01*
X7699825Y-15101984D02*
X7718872Y-15101984D01*
X7718872Y-15101984D02*
X7737920Y-15111508D01*
X7737920Y-15111508D02*
X7747444Y-15121031D01*
X7747444Y-15121031D02*
X7756968Y-15140079D01*
X7756968Y-15140079D02*
X7766491Y-15178174D01*
X7766491Y-15178174D02*
X7766491Y-15225793D01*
X7766491Y-15225793D02*
X7756968Y-15263888D01*
X7756968Y-15263888D02*
X7747444Y-15282936D01*
X7747444Y-15282936D02*
X7737920Y-15292460D01*
X7737920Y-15292460D02*
X7718872Y-15301984D01*
X7718872Y-15301984D02*
X7699825Y-15301984D01*
X7699825Y-15301984D02*
X7680777Y-15292460D01*
X7680777Y-15292460D02*
X7671253Y-15282936D01*
X7671253Y-15282936D02*
X7661729Y-15263888D01*
X7661729Y-15263888D02*
X7652206Y-15225793D01*
X7652206Y-15225793D02*
X7652206Y-15178174D01*
X7652206Y-15178174D02*
X7661729Y-15140079D01*
X7661729Y-15140079D02*
X7671253Y-15121031D01*
X7671253Y-15121031D02*
X7680777Y-15111508D01*
X7680777Y-15111508D02*
X7699825Y-15101984D01*
X8004587Y-15301984D02*
X8004587Y-15101984D01*
X8090301Y-15301984D02*
X8090301Y-15197222D01*
X8090301Y-15197222D02*
X8080777Y-15178174D01*
X8080777Y-15178174D02*
X8061730Y-15168650D01*
X8061730Y-15168650D02*
X8033158Y-15168650D01*
X8033158Y-15168650D02*
X8014110Y-15178174D01*
X8014110Y-15178174D02*
X8004587Y-15187698D01*
X8214110Y-15301984D02*
X8195063Y-15292460D01*
X8195063Y-15292460D02*
X8185539Y-15282936D01*
X8185539Y-15282936D02*
X8176015Y-15263888D01*
X8176015Y-15263888D02*
X8176015Y-15206746D01*
X8176015Y-15206746D02*
X8185539Y-15187698D01*
X8185539Y-15187698D02*
X8195063Y-15178174D01*
X8195063Y-15178174D02*
X8214110Y-15168650D01*
X8214110Y-15168650D02*
X8242682Y-15168650D01*
X8242682Y-15168650D02*
X8261730Y-15178174D01*
X8261730Y-15178174D02*
X8271253Y-15187698D01*
X8271253Y-15187698D02*
X8280777Y-15206746D01*
X8280777Y-15206746D02*
X8280777Y-15263888D01*
X8280777Y-15263888D02*
X8271253Y-15282936D01*
X8271253Y-15282936D02*
X8261730Y-15292460D01*
X8261730Y-15292460D02*
X8242682Y-15301984D01*
X8242682Y-15301984D02*
X8214110Y-15301984D01*
X8395063Y-15301984D02*
X8376015Y-15292460D01*
X8376015Y-15292460D02*
X8366491Y-15273412D01*
X8366491Y-15273412D02*
X8366491Y-15101984D01*
X8547444Y-15292460D02*
X8528396Y-15301984D01*
X8528396Y-15301984D02*
X8490301Y-15301984D01*
X8490301Y-15301984D02*
X8471253Y-15292460D01*
X8471253Y-15292460D02*
X8461730Y-15273412D01*
X8461730Y-15273412D02*
X8461730Y-15197222D01*
X8461730Y-15197222D02*
X8471253Y-15178174D01*
X8471253Y-15178174D02*
X8490301Y-15168650D01*
X8490301Y-15168650D02*
X8528396Y-15168650D01*
X8528396Y-15168650D02*
X8547444Y-15178174D01*
X8547444Y-15178174D02*
X8556968Y-15197222D01*
X8556968Y-15197222D02*
X8556968Y-15216269D01*
X8556968Y-15216269D02*
X8461730Y-15235317D01*
X8633158Y-15292460D02*
X8652206Y-15301984D01*
X8652206Y-15301984D02*
X8690301Y-15301984D01*
X8690301Y-15301984D02*
X8709349Y-15292460D01*
X8709349Y-15292460D02*
X8718873Y-15273412D01*
X8718873Y-15273412D02*
X8718873Y-15263888D01*
X8718873Y-15263888D02*
X8709349Y-15244841D01*
X8709349Y-15244841D02*
X8690301Y-15235317D01*
X8690301Y-15235317D02*
X8661730Y-15235317D01*
X8661730Y-15235317D02*
X8642682Y-15225793D01*
X8642682Y-15225793D02*
X8633158Y-15206746D01*
X8633158Y-15206746D02*
X8633158Y-15197222D01*
X8633158Y-15197222D02*
X8642682Y-15178174D01*
X8642682Y-15178174D02*
X8661730Y-15168650D01*
X8661730Y-15168650D02*
X8690301Y-15168650D01*
X8690301Y-15168650D02*
X8709349Y-15178174D01*
X8785539Y-15378174D02*
X8795063Y-15368650D01*
X8795063Y-15368650D02*
X8814111Y-15340079D01*
X8814111Y-15340079D02*
X8823634Y-15321031D01*
X8823634Y-15321031D02*
X8833158Y-15292460D01*
X8833158Y-15292460D02*
X8842682Y-15244841D01*
X8842682Y-15244841D02*
X8842682Y-15206746D01*
X8842682Y-15206746D02*
X8833158Y-15159127D01*
X8833158Y-15159127D02*
X8823634Y-15130555D01*
X8823634Y-15130555D02*
X8814111Y-15111508D01*
X8814111Y-15111508D02*
X8795063Y-15082936D01*
X8795063Y-15082936D02*
X8785539Y-15073412D01*
D13*
X3803452Y-15514452D02*
X3803452Y-15434548D01*
X3723548Y-15434548D01*
X3723548Y-15514452D01*
X3803452Y-15514452D01*
D11*
X4185539Y-15565984D02*
X4071253Y-15565984D01*
X4128396Y-15565984D02*
X4128396Y-15365984D01*
X4128396Y-15365984D02*
X4109348Y-15394555D01*
X4109348Y-15394555D02*
X4090301Y-15413603D01*
X4090301Y-15413603D02*
X4071253Y-15423127D01*
X4271253Y-15546936D02*
X4280777Y-15556460D01*
X4280777Y-15556460D02*
X4271253Y-15565984D01*
X4271253Y-15565984D02*
X4261729Y-15556460D01*
X4261729Y-15556460D02*
X4271253Y-15546936D01*
X4271253Y-15546936D02*
X4271253Y-15565984D01*
X4471253Y-15565984D02*
X4356967Y-15565984D01*
X4414110Y-15565984D02*
X4414110Y-15365984D01*
X4414110Y-15365984D02*
X4395063Y-15394555D01*
X4395063Y-15394555D02*
X4376015Y-15413603D01*
X4376015Y-15413603D02*
X4356967Y-15423127D01*
X4537920Y-15365984D02*
X4661729Y-15365984D01*
X4661729Y-15365984D02*
X4595063Y-15442174D01*
X4595063Y-15442174D02*
X4623634Y-15442174D01*
X4623634Y-15442174D02*
X4642682Y-15451698D01*
X4642682Y-15451698D02*
X4652205Y-15461222D01*
X4652205Y-15461222D02*
X4661729Y-15480269D01*
X4661729Y-15480269D02*
X4661729Y-15527888D01*
X4661729Y-15527888D02*
X4652205Y-15546936D01*
X4652205Y-15546936D02*
X4642682Y-15556460D01*
X4642682Y-15556460D02*
X4623634Y-15565984D01*
X4623634Y-15565984D02*
X4566491Y-15565984D01*
X4566491Y-15565984D02*
X4547444Y-15556460D01*
X4547444Y-15556460D02*
X4537920Y-15546936D01*
X4785539Y-15365984D02*
X4804586Y-15365984D01*
X4804586Y-15365984D02*
X4823634Y-15375508D01*
X4823634Y-15375508D02*
X4833158Y-15385031D01*
X4833158Y-15385031D02*
X4842682Y-15404079D01*
X4842682Y-15404079D02*
X4852205Y-15442174D01*
X4852205Y-15442174D02*
X4852205Y-15489793D01*
X4852205Y-15489793D02*
X4842682Y-15527888D01*
X4842682Y-15527888D02*
X4833158Y-15546936D01*
X4833158Y-15546936D02*
X4823634Y-15556460D01*
X4823634Y-15556460D02*
X4804586Y-15565984D01*
X4804586Y-15565984D02*
X4785539Y-15565984D01*
X4785539Y-15565984D02*
X4766491Y-15556460D01*
X4766491Y-15556460D02*
X4756967Y-15546936D01*
X4756967Y-15546936D02*
X4747444Y-15527888D01*
X4747444Y-15527888D02*
X4737920Y-15489793D01*
X4737920Y-15489793D02*
X4737920Y-15442174D01*
X4737920Y-15442174D02*
X4747444Y-15404079D01*
X4747444Y-15404079D02*
X4756967Y-15385031D01*
X4756967Y-15385031D02*
X4766491Y-15375508D01*
X4766491Y-15375508D02*
X4785539Y-15365984D01*
X4937920Y-15565984D02*
X4937920Y-15432650D01*
X4937920Y-15451698D02*
X4947444Y-15442174D01*
X4947444Y-15442174D02*
X4966491Y-15432650D01*
X4966491Y-15432650D02*
X4995063Y-15432650D01*
X4995063Y-15432650D02*
X5014110Y-15442174D01*
X5014110Y-15442174D02*
X5023634Y-15461222D01*
X5023634Y-15461222D02*
X5023634Y-15565984D01*
X5023634Y-15461222D02*
X5033158Y-15442174D01*
X5033158Y-15442174D02*
X5052205Y-15432650D01*
X5052205Y-15432650D02*
X5080777Y-15432650D01*
X5080777Y-15432650D02*
X5099825Y-15442174D01*
X5099825Y-15442174D02*
X5109348Y-15461222D01*
X5109348Y-15461222D02*
X5109348Y-15565984D01*
X5204586Y-15565984D02*
X5204586Y-15432650D01*
X5204586Y-15451698D02*
X5214110Y-15442174D01*
X5214110Y-15442174D02*
X5233158Y-15432650D01*
X5233158Y-15432650D02*
X5261729Y-15432650D01*
X5261729Y-15432650D02*
X5280777Y-15442174D01*
X5280777Y-15442174D02*
X5290301Y-15461222D01*
X5290301Y-15461222D02*
X5290301Y-15565984D01*
X5290301Y-15461222D02*
X5299825Y-15442174D01*
X5299825Y-15442174D02*
X5318872Y-15432650D01*
X5318872Y-15432650D02*
X5347444Y-15432650D01*
X5347444Y-15432650D02*
X5366491Y-15442174D01*
X5366491Y-15442174D02*
X5376015Y-15461222D01*
X5376015Y-15461222D02*
X5376015Y-15565984D01*
X5766491Y-15356460D02*
X5595063Y-15613603D01*
X6023634Y-15365984D02*
X6042682Y-15365984D01*
X6042682Y-15365984D02*
X6061729Y-15375508D01*
X6061729Y-15375508D02*
X6071253Y-15385031D01*
X6071253Y-15385031D02*
X6080777Y-15404079D01*
X6080777Y-15404079D02*
X6090301Y-15442174D01*
X6090301Y-15442174D02*
X6090301Y-15489793D01*
X6090301Y-15489793D02*
X6080777Y-15527888D01*
X6080777Y-15527888D02*
X6071253Y-15546936D01*
X6071253Y-15546936D02*
X6061729Y-15556460D01*
X6061729Y-15556460D02*
X6042682Y-15565984D01*
X6042682Y-15565984D02*
X6023634Y-15565984D01*
X6023634Y-15565984D02*
X6004586Y-15556460D01*
X6004586Y-15556460D02*
X5995063Y-15546936D01*
X5995063Y-15546936D02*
X5985539Y-15527888D01*
X5985539Y-15527888D02*
X5976015Y-15489793D01*
X5976015Y-15489793D02*
X5976015Y-15442174D01*
X5976015Y-15442174D02*
X5985539Y-15404079D01*
X5985539Y-15404079D02*
X5995063Y-15385031D01*
X5995063Y-15385031D02*
X6004586Y-15375508D01*
X6004586Y-15375508D02*
X6023634Y-15365984D01*
X6176015Y-15546936D02*
X6185539Y-15556460D01*
X6185539Y-15556460D02*
X6176015Y-15565984D01*
X6176015Y-15565984D02*
X6166491Y-15556460D01*
X6166491Y-15556460D02*
X6176015Y-15546936D01*
X6176015Y-15546936D02*
X6176015Y-15565984D01*
X6309348Y-15365984D02*
X6328396Y-15365984D01*
X6328396Y-15365984D02*
X6347444Y-15375508D01*
X6347444Y-15375508D02*
X6356967Y-15385031D01*
X6356967Y-15385031D02*
X6366491Y-15404079D01*
X6366491Y-15404079D02*
X6376015Y-15442174D01*
X6376015Y-15442174D02*
X6376015Y-15489793D01*
X6376015Y-15489793D02*
X6366491Y-15527888D01*
X6366491Y-15527888D02*
X6356967Y-15546936D01*
X6356967Y-15546936D02*
X6347444Y-15556460D01*
X6347444Y-15556460D02*
X6328396Y-15565984D01*
X6328396Y-15565984D02*
X6309348Y-15565984D01*
X6309348Y-15565984D02*
X6290301Y-15556460D01*
X6290301Y-15556460D02*
X6280777Y-15546936D01*
X6280777Y-15546936D02*
X6271253Y-15527888D01*
X6271253Y-15527888D02*
X6261729Y-15489793D01*
X6261729Y-15489793D02*
X6261729Y-15442174D01*
X6261729Y-15442174D02*
X6271253Y-15404079D01*
X6271253Y-15404079D02*
X6280777Y-15385031D01*
X6280777Y-15385031D02*
X6290301Y-15375508D01*
X6290301Y-15375508D02*
X6309348Y-15365984D01*
X6547444Y-15432650D02*
X6547444Y-15565984D01*
X6499825Y-15356460D02*
X6452206Y-15499317D01*
X6452206Y-15499317D02*
X6576015Y-15499317D01*
X6737920Y-15432650D02*
X6737920Y-15565984D01*
X6690301Y-15356460D02*
X6642682Y-15499317D01*
X6642682Y-15499317D02*
X6766491Y-15499317D01*
X6937920Y-15365984D02*
X6842682Y-15365984D01*
X6842682Y-15365984D02*
X6833158Y-15461222D01*
X6833158Y-15461222D02*
X6842682Y-15451698D01*
X6842682Y-15451698D02*
X6861729Y-15442174D01*
X6861729Y-15442174D02*
X6909348Y-15442174D01*
X6909348Y-15442174D02*
X6928396Y-15451698D01*
X6928396Y-15451698D02*
X6937920Y-15461222D01*
X6937920Y-15461222D02*
X6947444Y-15480269D01*
X6947444Y-15480269D02*
X6947444Y-15527888D01*
X6947444Y-15527888D02*
X6937920Y-15546936D01*
X6937920Y-15546936D02*
X6928396Y-15556460D01*
X6928396Y-15556460D02*
X6909348Y-15565984D01*
X6909348Y-15565984D02*
X6861729Y-15565984D01*
X6861729Y-15565984D02*
X6842682Y-15556460D01*
X6842682Y-15556460D02*
X6833158Y-15546936D01*
X7023634Y-15365984D02*
X7023634Y-15404079D01*
X7099825Y-15365984D02*
X7099825Y-15404079D01*
X7395063Y-15642174D02*
X7385539Y-15632650D01*
X7385539Y-15632650D02*
X7366491Y-15604079D01*
X7366491Y-15604079D02*
X7356968Y-15585031D01*
X7356968Y-15585031D02*
X7347444Y-15556460D01*
X7347444Y-15556460D02*
X7337920Y-15508841D01*
X7337920Y-15508841D02*
X7337920Y-15470746D01*
X7337920Y-15470746D02*
X7347444Y-15423127D01*
X7347444Y-15423127D02*
X7356968Y-15394555D01*
X7356968Y-15394555D02*
X7366491Y-15375508D01*
X7366491Y-15375508D02*
X7385539Y-15346936D01*
X7385539Y-15346936D02*
X7395063Y-15337412D01*
X7576015Y-15565984D02*
X7461729Y-15565984D01*
X7518872Y-15565984D02*
X7518872Y-15365984D01*
X7518872Y-15365984D02*
X7499825Y-15394555D01*
X7499825Y-15394555D02*
X7480777Y-15413603D01*
X7480777Y-15413603D02*
X7461729Y-15423127D01*
X7756968Y-15365984D02*
X7661729Y-15365984D01*
X7661729Y-15365984D02*
X7652206Y-15461222D01*
X7652206Y-15461222D02*
X7661729Y-15451698D01*
X7661729Y-15451698D02*
X7680777Y-15442174D01*
X7680777Y-15442174D02*
X7728396Y-15442174D01*
X7728396Y-15442174D02*
X7747444Y-15451698D01*
X7747444Y-15451698D02*
X7756968Y-15461222D01*
X7756968Y-15461222D02*
X7766491Y-15480269D01*
X7766491Y-15480269D02*
X7766491Y-15527888D01*
X7766491Y-15527888D02*
X7756968Y-15546936D01*
X7756968Y-15546936D02*
X7747444Y-15556460D01*
X7747444Y-15556460D02*
X7728396Y-15565984D01*
X7728396Y-15565984D02*
X7680777Y-15565984D01*
X7680777Y-15565984D02*
X7661729Y-15556460D01*
X7661729Y-15556460D02*
X7652206Y-15546936D01*
X8004587Y-15565984D02*
X8004587Y-15365984D01*
X8090301Y-15565984D02*
X8090301Y-15461222D01*
X8090301Y-15461222D02*
X8080777Y-15442174D01*
X8080777Y-15442174D02*
X8061730Y-15432650D01*
X8061730Y-15432650D02*
X8033158Y-15432650D01*
X8033158Y-15432650D02*
X8014110Y-15442174D01*
X8014110Y-15442174D02*
X8004587Y-15451698D01*
X8214110Y-15565984D02*
X8195063Y-15556460D01*
X8195063Y-15556460D02*
X8185539Y-15546936D01*
X8185539Y-15546936D02*
X8176015Y-15527888D01*
X8176015Y-15527888D02*
X8176015Y-15470746D01*
X8176015Y-15470746D02*
X8185539Y-15451698D01*
X8185539Y-15451698D02*
X8195063Y-15442174D01*
X8195063Y-15442174D02*
X8214110Y-15432650D01*
X8214110Y-15432650D02*
X8242682Y-15432650D01*
X8242682Y-15432650D02*
X8261730Y-15442174D01*
X8261730Y-15442174D02*
X8271253Y-15451698D01*
X8271253Y-15451698D02*
X8280777Y-15470746D01*
X8280777Y-15470746D02*
X8280777Y-15527888D01*
X8280777Y-15527888D02*
X8271253Y-15546936D01*
X8271253Y-15546936D02*
X8261730Y-15556460D01*
X8261730Y-15556460D02*
X8242682Y-15565984D01*
X8242682Y-15565984D02*
X8214110Y-15565984D01*
X8395063Y-15565984D02*
X8376015Y-15556460D01*
X8376015Y-15556460D02*
X8366491Y-15537412D01*
X8366491Y-15537412D02*
X8366491Y-15365984D01*
X8547444Y-15556460D02*
X8528396Y-15565984D01*
X8528396Y-15565984D02*
X8490301Y-15565984D01*
X8490301Y-15565984D02*
X8471253Y-15556460D01*
X8471253Y-15556460D02*
X8461730Y-15537412D01*
X8461730Y-15537412D02*
X8461730Y-15461222D01*
X8461730Y-15461222D02*
X8471253Y-15442174D01*
X8471253Y-15442174D02*
X8490301Y-15432650D01*
X8490301Y-15432650D02*
X8528396Y-15432650D01*
X8528396Y-15432650D02*
X8547444Y-15442174D01*
X8547444Y-15442174D02*
X8556968Y-15461222D01*
X8556968Y-15461222D02*
X8556968Y-15480269D01*
X8556968Y-15480269D02*
X8461730Y-15499317D01*
X8633158Y-15556460D02*
X8652206Y-15565984D01*
X8652206Y-15565984D02*
X8690301Y-15565984D01*
X8690301Y-15565984D02*
X8709349Y-15556460D01*
X8709349Y-15556460D02*
X8718873Y-15537412D01*
X8718873Y-15537412D02*
X8718873Y-15527888D01*
X8718873Y-15527888D02*
X8709349Y-15508841D01*
X8709349Y-15508841D02*
X8690301Y-15499317D01*
X8690301Y-15499317D02*
X8661730Y-15499317D01*
X8661730Y-15499317D02*
X8642682Y-15489793D01*
X8642682Y-15489793D02*
X8633158Y-15470746D01*
X8633158Y-15470746D02*
X8633158Y-15461222D01*
X8633158Y-15461222D02*
X8642682Y-15442174D01*
X8642682Y-15442174D02*
X8661730Y-15432650D01*
X8661730Y-15432650D02*
X8690301Y-15432650D01*
X8690301Y-15432650D02*
X8709349Y-15442174D01*
X8785539Y-15642174D02*
X8795063Y-15632650D01*
X8795063Y-15632650D02*
X8814111Y-15604079D01*
X8814111Y-15604079D02*
X8823634Y-15585031D01*
X8823634Y-15585031D02*
X8833158Y-15556460D01*
X8833158Y-15556460D02*
X8842682Y-15508841D01*
X8842682Y-15508841D02*
X8842682Y-15470746D01*
X8842682Y-15470746D02*
X8833158Y-15423127D01*
X8833158Y-15423127D02*
X8823634Y-15394555D01*
X8823634Y-15394555D02*
X8814111Y-15375508D01*
X8814111Y-15375508D02*
X8795063Y-15346936D01*
X8795063Y-15346936D02*
X8785539Y-15337412D01*
X3720000Y-15838500D02*
X3820000Y-15738500D01*
X3720000Y-15638500D01*
X3620000Y-15738500D01*
X3720000Y-15838500D01*
X4061729Y-15629984D02*
X4185539Y-15629984D01*
X4185539Y-15629984D02*
X4118872Y-15706174D01*
X4118872Y-15706174D02*
X4147443Y-15706174D01*
X4147443Y-15706174D02*
X4166491Y-15715698D01*
X4166491Y-15715698D02*
X4176015Y-15725222D01*
X4176015Y-15725222D02*
X4185539Y-15744269D01*
X4185539Y-15744269D02*
X4185539Y-15791888D01*
X4185539Y-15791888D02*
X4176015Y-15810936D01*
X4176015Y-15810936D02*
X4166491Y-15820460D01*
X4166491Y-15820460D02*
X4147443Y-15829984D01*
X4147443Y-15829984D02*
X4090301Y-15829984D01*
X4090301Y-15829984D02*
X4071253Y-15820460D01*
X4071253Y-15820460D02*
X4061729Y-15810936D01*
X4271253Y-15810936D02*
X4280777Y-15820460D01*
X4280777Y-15820460D02*
X4271253Y-15829984D01*
X4271253Y-15829984D02*
X4261729Y-15820460D01*
X4261729Y-15820460D02*
X4271253Y-15810936D01*
X4271253Y-15810936D02*
X4271253Y-15829984D01*
X4356967Y-15649031D02*
X4366491Y-15639508D01*
X4366491Y-15639508D02*
X4385539Y-15629984D01*
X4385539Y-15629984D02*
X4433158Y-15629984D01*
X4433158Y-15629984D02*
X4452205Y-15639508D01*
X4452205Y-15639508D02*
X4461729Y-15649031D01*
X4461729Y-15649031D02*
X4471253Y-15668079D01*
X4471253Y-15668079D02*
X4471253Y-15687127D01*
X4471253Y-15687127D02*
X4461729Y-15715698D01*
X4461729Y-15715698D02*
X4347444Y-15829984D01*
X4347444Y-15829984D02*
X4471253Y-15829984D01*
X4537920Y-15629984D02*
X4661729Y-15629984D01*
X4661729Y-15629984D02*
X4595063Y-15706174D01*
X4595063Y-15706174D02*
X4623634Y-15706174D01*
X4623634Y-15706174D02*
X4642682Y-15715698D01*
X4642682Y-15715698D02*
X4652205Y-15725222D01*
X4652205Y-15725222D02*
X4661729Y-15744269D01*
X4661729Y-15744269D02*
X4661729Y-15791888D01*
X4661729Y-15791888D02*
X4652205Y-15810936D01*
X4652205Y-15810936D02*
X4642682Y-15820460D01*
X4642682Y-15820460D02*
X4623634Y-15829984D01*
X4623634Y-15829984D02*
X4566491Y-15829984D01*
X4566491Y-15829984D02*
X4547444Y-15820460D01*
X4547444Y-15820460D02*
X4537920Y-15810936D01*
X4785539Y-15629984D02*
X4804586Y-15629984D01*
X4804586Y-15629984D02*
X4823634Y-15639508D01*
X4823634Y-15639508D02*
X4833158Y-15649031D01*
X4833158Y-15649031D02*
X4842682Y-15668079D01*
X4842682Y-15668079D02*
X4852205Y-15706174D01*
X4852205Y-15706174D02*
X4852205Y-15753793D01*
X4852205Y-15753793D02*
X4842682Y-15791888D01*
X4842682Y-15791888D02*
X4833158Y-15810936D01*
X4833158Y-15810936D02*
X4823634Y-15820460D01*
X4823634Y-15820460D02*
X4804586Y-15829984D01*
X4804586Y-15829984D02*
X4785539Y-15829984D01*
X4785539Y-15829984D02*
X4766491Y-15820460D01*
X4766491Y-15820460D02*
X4756967Y-15810936D01*
X4756967Y-15810936D02*
X4747444Y-15791888D01*
X4747444Y-15791888D02*
X4737920Y-15753793D01*
X4737920Y-15753793D02*
X4737920Y-15706174D01*
X4737920Y-15706174D02*
X4747444Y-15668079D01*
X4747444Y-15668079D02*
X4756967Y-15649031D01*
X4756967Y-15649031D02*
X4766491Y-15639508D01*
X4766491Y-15639508D02*
X4785539Y-15629984D01*
X4937920Y-15829984D02*
X4937920Y-15696650D01*
X4937920Y-15715698D02*
X4947444Y-15706174D01*
X4947444Y-15706174D02*
X4966491Y-15696650D01*
X4966491Y-15696650D02*
X4995063Y-15696650D01*
X4995063Y-15696650D02*
X5014110Y-15706174D01*
X5014110Y-15706174D02*
X5023634Y-15725222D01*
X5023634Y-15725222D02*
X5023634Y-15829984D01*
X5023634Y-15725222D02*
X5033158Y-15706174D01*
X5033158Y-15706174D02*
X5052205Y-15696650D01*
X5052205Y-15696650D02*
X5080777Y-15696650D01*
X5080777Y-15696650D02*
X5099825Y-15706174D01*
X5099825Y-15706174D02*
X5109348Y-15725222D01*
X5109348Y-15725222D02*
X5109348Y-15829984D01*
X5204586Y-15829984D02*
X5204586Y-15696650D01*
X5204586Y-15715698D02*
X5214110Y-15706174D01*
X5214110Y-15706174D02*
X5233158Y-15696650D01*
X5233158Y-15696650D02*
X5261729Y-15696650D01*
X5261729Y-15696650D02*
X5280777Y-15706174D01*
X5280777Y-15706174D02*
X5290301Y-15725222D01*
X5290301Y-15725222D02*
X5290301Y-15829984D01*
X5290301Y-15725222D02*
X5299825Y-15706174D01*
X5299825Y-15706174D02*
X5318872Y-15696650D01*
X5318872Y-15696650D02*
X5347444Y-15696650D01*
X5347444Y-15696650D02*
X5366491Y-15706174D01*
X5366491Y-15706174D02*
X5376015Y-15725222D01*
X5376015Y-15725222D02*
X5376015Y-15829984D01*
X5766491Y-15620460D02*
X5595063Y-15877603D01*
X6023634Y-15629984D02*
X6042682Y-15629984D01*
X6042682Y-15629984D02*
X6061729Y-15639508D01*
X6061729Y-15639508D02*
X6071253Y-15649031D01*
X6071253Y-15649031D02*
X6080777Y-15668079D01*
X6080777Y-15668079D02*
X6090301Y-15706174D01*
X6090301Y-15706174D02*
X6090301Y-15753793D01*
X6090301Y-15753793D02*
X6080777Y-15791888D01*
X6080777Y-15791888D02*
X6071253Y-15810936D01*
X6071253Y-15810936D02*
X6061729Y-15820460D01*
X6061729Y-15820460D02*
X6042682Y-15829984D01*
X6042682Y-15829984D02*
X6023634Y-15829984D01*
X6023634Y-15829984D02*
X6004586Y-15820460D01*
X6004586Y-15820460D02*
X5995063Y-15810936D01*
X5995063Y-15810936D02*
X5985539Y-15791888D01*
X5985539Y-15791888D02*
X5976015Y-15753793D01*
X5976015Y-15753793D02*
X5976015Y-15706174D01*
X5976015Y-15706174D02*
X5985539Y-15668079D01*
X5985539Y-15668079D02*
X5995063Y-15649031D01*
X5995063Y-15649031D02*
X6004586Y-15639508D01*
X6004586Y-15639508D02*
X6023634Y-15629984D01*
X6176015Y-15810936D02*
X6185539Y-15820460D01*
X6185539Y-15820460D02*
X6176015Y-15829984D01*
X6176015Y-15829984D02*
X6166491Y-15820460D01*
X6166491Y-15820460D02*
X6176015Y-15810936D01*
X6176015Y-15810936D02*
X6176015Y-15829984D01*
X6376015Y-15829984D02*
X6261729Y-15829984D01*
X6318872Y-15829984D02*
X6318872Y-15629984D01*
X6318872Y-15629984D02*
X6299825Y-15658555D01*
X6299825Y-15658555D02*
X6280777Y-15677603D01*
X6280777Y-15677603D02*
X6261729Y-15687127D01*
X6452206Y-15649031D02*
X6461729Y-15639508D01*
X6461729Y-15639508D02*
X6480777Y-15629984D01*
X6480777Y-15629984D02*
X6528396Y-15629984D01*
X6528396Y-15629984D02*
X6547444Y-15639508D01*
X6547444Y-15639508D02*
X6556967Y-15649031D01*
X6556967Y-15649031D02*
X6566491Y-15668079D01*
X6566491Y-15668079D02*
X6566491Y-15687127D01*
X6566491Y-15687127D02*
X6556967Y-15715698D01*
X6556967Y-15715698D02*
X6442682Y-15829984D01*
X6442682Y-15829984D02*
X6566491Y-15829984D01*
X6633158Y-15629984D02*
X6766491Y-15629984D01*
X6766491Y-15629984D02*
X6680777Y-15829984D01*
X6833158Y-15649031D02*
X6842682Y-15639508D01*
X6842682Y-15639508D02*
X6861729Y-15629984D01*
X6861729Y-15629984D02*
X6909348Y-15629984D01*
X6909348Y-15629984D02*
X6928396Y-15639508D01*
X6928396Y-15639508D02*
X6937920Y-15649031D01*
X6937920Y-15649031D02*
X6947444Y-15668079D01*
X6947444Y-15668079D02*
X6947444Y-15687127D01*
X6947444Y-15687127D02*
X6937920Y-15715698D01*
X6937920Y-15715698D02*
X6823634Y-15829984D01*
X6823634Y-15829984D02*
X6947444Y-15829984D01*
X7023634Y-15629984D02*
X7023634Y-15668079D01*
X7099825Y-15629984D02*
X7099825Y-15668079D01*
X7395063Y-15906174D02*
X7385539Y-15896650D01*
X7385539Y-15896650D02*
X7366491Y-15868079D01*
X7366491Y-15868079D02*
X7356968Y-15849031D01*
X7356968Y-15849031D02*
X7347444Y-15820460D01*
X7347444Y-15820460D02*
X7337920Y-15772841D01*
X7337920Y-15772841D02*
X7337920Y-15734746D01*
X7337920Y-15734746D02*
X7347444Y-15687127D01*
X7347444Y-15687127D02*
X7356968Y-15658555D01*
X7356968Y-15658555D02*
X7366491Y-15639508D01*
X7366491Y-15639508D02*
X7385539Y-15610936D01*
X7385539Y-15610936D02*
X7395063Y-15601412D01*
X7461729Y-15649031D02*
X7471253Y-15639508D01*
X7471253Y-15639508D02*
X7490301Y-15629984D01*
X7490301Y-15629984D02*
X7537920Y-15629984D01*
X7537920Y-15629984D02*
X7556968Y-15639508D01*
X7556968Y-15639508D02*
X7566491Y-15649031D01*
X7566491Y-15649031D02*
X7576015Y-15668079D01*
X7576015Y-15668079D02*
X7576015Y-15687127D01*
X7576015Y-15687127D02*
X7566491Y-15715698D01*
X7566491Y-15715698D02*
X7452206Y-15829984D01*
X7452206Y-15829984D02*
X7576015Y-15829984D01*
X7814110Y-15829984D02*
X7814110Y-15629984D01*
X7899825Y-15829984D02*
X7899825Y-15725222D01*
X7899825Y-15725222D02*
X7890301Y-15706174D01*
X7890301Y-15706174D02*
X7871253Y-15696650D01*
X7871253Y-15696650D02*
X7842682Y-15696650D01*
X7842682Y-15696650D02*
X7823634Y-15706174D01*
X7823634Y-15706174D02*
X7814110Y-15715698D01*
X8023634Y-15829984D02*
X8004587Y-15820460D01*
X8004587Y-15820460D02*
X7995063Y-15810936D01*
X7995063Y-15810936D02*
X7985539Y-15791888D01*
X7985539Y-15791888D02*
X7985539Y-15734746D01*
X7985539Y-15734746D02*
X7995063Y-15715698D01*
X7995063Y-15715698D02*
X8004587Y-15706174D01*
X8004587Y-15706174D02*
X8023634Y-15696650D01*
X8023634Y-15696650D02*
X8052206Y-15696650D01*
X8052206Y-15696650D02*
X8071253Y-15706174D01*
X8071253Y-15706174D02*
X8080777Y-15715698D01*
X8080777Y-15715698D02*
X8090301Y-15734746D01*
X8090301Y-15734746D02*
X8090301Y-15791888D01*
X8090301Y-15791888D02*
X8080777Y-15810936D01*
X8080777Y-15810936D02*
X8071253Y-15820460D01*
X8071253Y-15820460D02*
X8052206Y-15829984D01*
X8052206Y-15829984D02*
X8023634Y-15829984D01*
X8204587Y-15829984D02*
X8185539Y-15820460D01*
X8185539Y-15820460D02*
X8176015Y-15801412D01*
X8176015Y-15801412D02*
X8176015Y-15629984D01*
X8356968Y-15820460D02*
X8337920Y-15829984D01*
X8337920Y-15829984D02*
X8299825Y-15829984D01*
X8299825Y-15829984D02*
X8280777Y-15820460D01*
X8280777Y-15820460D02*
X8271253Y-15801412D01*
X8271253Y-15801412D02*
X8271253Y-15725222D01*
X8271253Y-15725222D02*
X8280777Y-15706174D01*
X8280777Y-15706174D02*
X8299825Y-15696650D01*
X8299825Y-15696650D02*
X8337920Y-15696650D01*
X8337920Y-15696650D02*
X8356968Y-15706174D01*
X8356968Y-15706174D02*
X8366491Y-15725222D01*
X8366491Y-15725222D02*
X8366491Y-15744269D01*
X8366491Y-15744269D02*
X8271253Y-15763317D01*
X8442682Y-15820460D02*
X8461730Y-15829984D01*
X8461730Y-15829984D02*
X8499825Y-15829984D01*
X8499825Y-15829984D02*
X8518873Y-15820460D01*
X8518873Y-15820460D02*
X8528396Y-15801412D01*
X8528396Y-15801412D02*
X8528396Y-15791888D01*
X8528396Y-15791888D02*
X8518873Y-15772841D01*
X8518873Y-15772841D02*
X8499825Y-15763317D01*
X8499825Y-15763317D02*
X8471253Y-15763317D01*
X8471253Y-15763317D02*
X8452206Y-15753793D01*
X8452206Y-15753793D02*
X8442682Y-15734746D01*
X8442682Y-15734746D02*
X8442682Y-15725222D01*
X8442682Y-15725222D02*
X8452206Y-15706174D01*
X8452206Y-15706174D02*
X8471253Y-15696650D01*
X8471253Y-15696650D02*
X8499825Y-15696650D01*
X8499825Y-15696650D02*
X8518873Y-15706174D01*
X8595063Y-15906174D02*
X8604587Y-15896650D01*
X8604587Y-15896650D02*
X8623634Y-15868079D01*
X8623634Y-15868079D02*
X8633158Y-15849031D01*
X8633158Y-15849031D02*
X8642682Y-15820460D01*
X8642682Y-15820460D02*
X8652206Y-15772841D01*
X8652206Y-15772841D02*
X8652206Y-15734746D01*
X8652206Y-15734746D02*
X8642682Y-15687127D01*
X8642682Y-15687127D02*
X8633158Y-15658555D01*
X8633158Y-15658555D02*
X8623634Y-15639508D01*
X8623634Y-15639508D02*
X8604587Y-15610936D01*
X8604587Y-15610936D02*
X8595063Y-15601412D01*
M02*
