M48
; DRILL file KiCad 10.0.4 date 2026-09-10T18:54:19
; FORMAT={-:-/ absolute / metric / decimal}
; #@! TF.CreationDate,2026-09-10T18:54:19-07:00
; #@! TF.GenerationSoftware,Kicad,Pcbnew,10.0.4
; #@! TF.FileFunction,Plated,1,4,PTH
FMAT,2
METRIC
; #@! TA.AperFunction,Plated,PTH,ViaDrill
T1C0.400
; #@! TA.AperFunction,Plated,PTH,ComponentDrill
T2C0.800
; #@! TA.AperFunction,Plated,PTH,ComponentDrill
T3C1.000
; #@! TA.AperFunction,Plated,PTH,ComponentDrill
T4C1.130
; #@! TA.AperFunction,Plated,PTH,ComponentDrill
T5C3.230
%
G90
G05
T1
X41.5Y-103.75
X41.75Y-97.0
X42.75Y-109.25
X44.25Y-126.75
X45.25Y-93.75
X45.384Y-128.384
X45.5Y-126.75
X47.5Y-96.25
X47.98Y-132.18
X48.25Y-124.25
X49.0Y-88.763
X50.1Y-129.3
X51.775Y-85.888
X52.0Y-99.25
X52.0Y-110.25
X52.25Y-93.75
X52.8Y-125.8
X53.058Y-73.963
X53.25Y-119.0
X54.134Y-130.75
X54.718Y-123.818
X55.3Y-127.7
X55.8Y-126.4
X56.438Y-133.044
X56.6Y-105.1
X56.919Y-124.74
X56.969Y-130.394
X58.0Y-120.2
X58.25Y-133.0
X58.5Y-91.5
X58.75Y-93.75
X58.925Y-132.196
X59.408Y-73.963
X61.475Y-132.795
X61.5Y-97.25
X61.775Y-111.025
X62.061Y-131.065
X62.75Y-98.75
X63.171Y-131.65
X63.185Y-110.435
X64.5Y-133.0
X64.507Y-109.822
X65.0Y-100.5
X65.75Y-105.4
X65.75Y-131.75
X66.3Y-98.7
X67.0Y-77.864
X67.352Y-131.248
X67.414Y-103.214
X67.9Y-133.075
X68.25Y-77.864
X68.25Y-87.5
X68.6Y-104.2
X69.045Y-130.705
X69.5Y-100.25
X69.5Y-102.2
X69.568Y-73.763
X69.7Y-77.763
X69.75Y-87.5
X70.7Y-131.25
X70.702Y-96.048
X71.25Y-99.5
X71.753Y-94.5
X72.25Y-87.5
X72.273Y-96.123
X72.3Y-131.25
X72.3Y-132.904
X72.411Y-122.605
X72.556Y-119.821
X73.04Y-121.765
X73.254Y-92.554
X73.5Y-87.5
X73.865Y-133.075
X73.927Y-123.091
X74.257Y-125.647
X74.9Y-121.3
X74.942Y-131.958
X75.0Y-87.5
X75.275Y-95.975
X75.4Y-100.55
X75.4Y-101.8
X75.5Y-106.45
X75.525Y-133.075
X75.568Y-120.168
X75.693Y-123.912
X75.8Y-112.6
X75.875Y-125.814
X76.018Y-119.22
X76.113Y-87.394
X76.216Y-105.682
X76.252Y-104.55
X76.38Y-95.952
X76.384Y-100.184
X76.4Y-131.204
X76.761Y-117.775
X77.048Y-118.8
X77.1Y-116.0
X77.25Y-109.564
X77.25Y-113.25
X77.338Y-99.725
X77.488Y-95.908
X77.584Y-96.954
X77.675Y-98.0
X77.95Y-131.781
X78.0Y-75.963
X78.225Y-106.4
X78.365Y-87.77
X78.702Y-131.048
X78.715Y-99.225
X78.75Y-120.5
X78.832Y-133.014
X79.0Y-86.75
X79.76Y-87.825
X80.75Y-117.5
X80.775Y-131.729
X81.25Y-121.151
X81.658Y-133.082
X82.1Y-114.2
X82.25Y-117.25
X82.853Y-124.307
X82.877Y-119.777
X83.9Y-120.8
X84.958Y-120.184
X85.0Y-117.75
X85.5Y-96.4
X85.729Y-129.925
X85.803Y-119.517
X85.937Y-132.475
X86.0Y-98.5
X86.0Y-107.75
X86.0Y-110.6
X86.0Y-114.0
X86.031Y-127.375
X86.6Y-120.2
X86.75Y-80.647
X87.287Y-129.213
X87.4Y-119.4
X87.436Y-132.922
X88.0Y-79.988
X88.875Y-119.375
X89.0Y-79.37
X89.071Y-132.914
X89.338Y-120.865
X89.6Y-94.5
X89.839Y-78.739
X90.477Y-120.727
X90.5Y-82.996
X90.75Y-117.5
X90.875Y-87.119
X91.0Y-114.0
X91.005Y-124.095
X91.25Y-94.5
X91.339Y-132.878
X91.759Y-119.745
X92.097Y-124.413
X92.809Y-119.761
X92.925Y-82.221
X93.752Y-130.448
X93.762Y-121.039
X94.2Y-117.5
X94.611Y-131.399
X94.812Y-121.05
X94.823Y-132.427
X94.9Y-115.662
X94.925Y-85.0
X95.141Y-126.75
X95.375Y-120.164
X96.5Y-107.75
X96.6Y-94.8
X96.675Y-132.888
X96.75Y-98.5
X97.044Y-118.106
X97.6Y-110.6
X97.75Y-96.0
X98.132Y-117.472
X98.143Y-94.823
X98.425Y-120.4
X98.975Y-86.062
X99.116Y-94.428
X99.571Y-132.175
X99.815Y-82.338
X99.897Y-118.543
X100.022Y-93.897
X100.1Y-119.8
X100.4Y-113.3
X100.741Y-132.512
X101.6Y-112.1
X102.0Y-97.75
X102.0Y-99.75
X102.0Y-104.75
X102.0Y-107.75
X102.171Y-127.12
X102.25Y-110.75
X102.5Y-119.75
X103.25Y-76.538
X103.25Y-85.008
X103.25Y-86.225
X103.75Y-122.0
X104.75Y-126.277
X105.225Y-115.805
X105.293Y-132.907
X105.75Y-125.5
X105.99Y-127.5
X106.744Y-124.683
X106.9Y-93.798
X106.907Y-114.539
X107.421Y-129.787
X108.105Y-130.688
X109.246Y-110.392
X109.25Y-123.75
X109.475Y-131.048
X109.536Y-119.473
X109.971Y-114.39
X110.229Y-128.119
X110.459Y-78.209
X110.54Y-100.0
X110.57Y-131.874
X111.47Y-132.525
X111.725Y-118.227
X112.0Y-110.05
X112.014Y-93.305
X112.75Y-119.0
X113.25Y-110.05
X113.642Y-93.461
X113.766Y-114.266
X114.75Y-116.0
X114.998Y-79.936
X118.25Y-116.5
X119.0Y-93.4
X120.25Y-80.0
X120.3Y-123.0
X121.25Y-83.775
X121.25Y-114.0
X121.318Y-78.0
X123.5Y-92.675
X123.9Y-123.0
X124.25Y-130.499
X124.425Y-81.197
X125.1Y-82.001
X125.25Y-116.5
X126.4Y-82.757
X127.75Y-83.364
X128.25Y-121.0
X128.5Y-113.7
X128.938Y-73.963
X128.938Y-85.029
X129.0Y-116.5
X130.5Y-109.25
X131.2Y-130.5
X131.773Y-107.873
X132.067Y-93.366
X132.49Y-120.75
X132.5Y-116.5
X135.492Y-98.32
X135.6Y-86.8
X136.327Y-77.827
X136.5Y-113.7
X136.7Y-123.0
X137.8Y-130.5
X137.865Y-87.614
X139.115Y-87.614
X140.365Y-87.614
X141.492Y-104.32
X141.615Y-87.614
X141.65Y-89.55
X142.118Y-78.368
X142.842Y-95.42
X144.125Y-126.25
X144.125Y-130.5
X144.36Y-87.918
X145.0Y-113.7
X145.365Y-87.614
X145.5Y-127.5
X146.25Y-128.5
X146.615Y-87.614
X147.0Y-129.5
X147.865Y-87.614
X148.765Y-80.451
X150.0Y-122.75
X151.375Y-130.5
X152.75Y-102.0
X152.88Y-94.52
X153.165Y-79.247
X153.183Y-84.364
X153.25Y-113.7
X154.69Y-81.207
X156.246Y-81.663
X158.114Y-81.763
X158.875Y-130.5
X159.664Y-81.763
X160.765Y-73.513
X160.865Y-78.013
X161.615Y-84.614
X161.625Y-97.375
X162.25Y-113.0
X163.652Y-109.58
X165.75Y-104.25
X165.765Y-88.563
X167.8Y-111.5
X169.0Y-109.25
X170.0Y-128.0
X173.75Y-102.75
X175.475Y-130.6
X177.25Y-98.25
X177.6Y-126.25
X178.8Y-118.8
X179.387Y-126.688
X182.75Y-91.0
X184.345Y-130.25
X186.0Y-122.75
X188.0Y-96.0
X188.75Y-99.5
X197.5Y-105.0
X198.75Y-94.0
X198.75Y-97.25
X206.0Y-82.5
X210.0Y-105.0
X210.25Y-90.5
X210.25Y-95.0
X215.4Y-130.2
X217.5Y-130.325
X222.5Y-105.0
X226.525Y-130.25
X227.6Y-130.3
X229.2Y-110.6
X229.5Y-86.75
X229.5Y-90.75
X230.89Y-130.39
X231.0Y-75.0
X231.75Y-107.75
X233.4Y-98.4
X235.0Y-105.0
X236.4Y-122.7
X237.8Y-122.7
X239.8Y-98.0
X240.139Y-116.425
X240.2Y-124.7
X240.793Y-121.51
X241.723Y-116.925
X242.772Y-117.425
X243.888Y-117.746
X244.0Y-87.75
X244.931Y-117.873
X246.0Y-124.75
X246.003Y-118.125
X246.75Y-120.25
X246.8Y-118.9
X247.5Y-105.0
X250.148Y-129.975
X250.2Y-80.2
X252.0Y-100.75
X253.75Y-97.1
X253.75Y-130.25
X254.25Y-100.25
X257.0Y-85.0
X257.5Y-96.0
X259.97Y-99.48
X260.0Y-97.8
X260.0Y-105.0
X261.4Y-95.0
X261.45Y-87.7
X261.5Y-91.55
X264.0Y-76.0
X266.75Y-99.75
X272.0Y-98.6
X273.37Y-76.76
X273.37Y-79.66
X273.909Y-84.25
X274.5Y-91.25
X274.5Y-97.15
X274.5Y-103.05
T2
X44.275Y-100.08
X44.275Y-107.7
X59.515Y-100.08
X59.515Y-107.7
X192.74Y-107.76
X192.74Y-123.0
X195.28Y-107.76
X195.28Y-123.0
X197.82Y-107.76
X197.82Y-123.0
X200.36Y-107.76
X200.36Y-123.0
X202.9Y-107.76
X202.9Y-123.0
X205.44Y-107.76
X205.44Y-123.0
X207.98Y-107.76
X207.98Y-123.0
X210.52Y-107.76
X210.52Y-123.0
X213.06Y-107.76
X213.06Y-123.0
X215.6Y-107.76
X215.6Y-123.0
X218.14Y-107.76
X218.14Y-123.0
X220.68Y-107.76
X220.68Y-123.0
X223.22Y-107.76
X223.22Y-123.0
X225.76Y-107.76
X225.76Y-123.0
T3
X42.5Y-121.71
X42.5Y-124.25
X229.96Y-126.5
X232.5Y-126.5
T4
X266.925Y-85.875
X266.925Y-88.165
X266.925Y-90.455
X266.925Y-92.745
X266.925Y-95.035
X269.425Y-84.73
X269.425Y-87.02
X269.425Y-89.31
X269.425Y-91.6
X269.425Y-93.89
X271.925Y-85.875
X271.925Y-88.165
X271.925Y-90.455
X271.925Y-92.745
X271.925Y-95.035
T5
X269.425Y-77.735
X269.425Y-102.725
M30
